<svg width="178" height="57" viewBox="0 0 178 57" fill="none" xmlns="http://www.w3.org/2000/svg">
<path fill-rule="evenodd" clip-rule="evenodd" d="M32.7717 8.3924C36.0417 6.52249 40.125 8.87997 40.1406 12.6468L40.2372 35.9774C40.256 40.5196 35.3368 43.3601 31.394 41.0837L12.5179 30.1856C8.5751 27.9092 8.5754 22.2288 12.5184 19.974L32.7717 8.3924ZM30.603 15.6764C32.5294 14.5607 34.9196 15.9407 34.9166 18.1668L34.8977 31.9546C34.8941 34.6389 31.9961 36.3336 29.6881 35.001L18.6385 28.6215C16.3305 27.289 16.349 23.9319 18.6719 22.5866L30.603 15.6764Z" fill="#8C30F5"/>
<path d="M17.4139 48.4545C15.7045 49.6501 13.3699 48.3022 13.5506 46.2241L14.1205 39.6697C14.2759 37.8821 16.238 36.865 17.796 37.7645L22.6174 40.5481C24.1754 41.4476 24.2756 43.6554 22.8052 44.6838L17.4139 48.4545Z" fill="#8C30F5"/>
<path fill-rule="evenodd" clip-rule="evenodd" d="M86.4912 29.0492L86.4915 29.0351C86.4917 29.0254 86.4918 29.0156 86.4918 29.0057V12.4599C86.4918 11.6536 85.8267 11 85.0063 11C84.1859 11 83.5208 11.6536 83.5208 12.4599V22.4155C81.8379 20.8632 79.5737 19.9125 77.0835 19.9125C71.8874 19.9125 67.6752 24.0521 67.6752 29.1586C67.6752 34.2652 71.8874 38.4048 77.0835 38.4048C82.2796 38.4048 86.4918 34.2652 86.4918 29.1586C86.4918 29.1221 86.4916 29.0856 86.4912 29.0492ZM83.5208 29.1586C83.5208 25.6647 80.6387 22.8323 77.0835 22.8323C73.5283 22.8323 70.6462 25.6647 70.6462 29.1586C70.6462 32.6526 73.5283 35.485 77.0835 35.485C80.6387 35.485 83.5208 32.6526 83.5208 29.1586Z" fill="#1E0E62"/>
<path fill-rule="evenodd" clip-rule="evenodd" d="M130.067 35.9017C128.384 37.454 126.12 38.4047 123.63 38.4047C118.434 38.4047 114.222 34.2651 114.222 29.1585C114.222 24.052 118.434 19.9123 123.63 19.9123C128.826 19.9123 133.038 24.052 133.038 29.1585C133.038 29.2752 133.036 29.3914 133.032 29.5071C133.036 29.5525 133.038 29.5986 133.038 29.6452V36.9448C133.038 37.7511 132.373 38.4047 131.553 38.4047C130.732 38.4047 130.067 37.7511 130.067 36.9448V35.9017ZM130.067 29.1585C130.067 32.6525 127.185 35.4849 123.63 35.4849C120.075 35.4849 117.193 32.6525 117.193 29.1585C117.193 25.6646 120.075 22.8322 123.63 22.8322C127.185 22.8322 130.067 25.6646 130.067 29.1585Z" fill="#1E0E62"/>
<path d="M61.7331 38.2519C60.9127 38.2519 60.2476 37.5983 60.2476 36.792V21.2195C60.2476 20.4132 60.9127 19.7595 61.7331 19.7595C62.5535 19.7595 63.2186 20.4132 63.2186 21.2195V36.792C63.2186 37.5983 62.5535 38.2519 61.7331 38.2519Z" fill="#1E0E62"/>
<path d="M60 14.8931C60 15.8338 60.7759 16.5964 61.7331 16.5964C62.6903 16.5964 63.4662 15.8338 63.4662 14.8931C63.4662 13.9525 62.6903 13.1899 61.7331 13.1899C60.7759 13.1899 60 13.9525 60 14.8931Z" fill="#1E0E62"/>
<path d="M163.927 44.931C163.585 45.6639 163.912 46.5305 164.658 46.8667C165.404 47.2029 166.286 46.8813 166.628 46.1484L177.864 22.0747C178.206 21.3418 177.879 20.4752 177.134 20.139C176.388 19.8028 175.506 20.1244 175.164 20.8573L169.04 33.9771L161.268 20.7471C160.858 20.0488 159.949 19.8096 159.239 20.2127C158.528 20.6159 158.285 21.5088 158.695 22.207L167.521 37.2313L163.927 44.931Z" fill="#1E0E62"/>
<path d="M100.357 35.3318C101.851 35.3318 103.226 34.8317 104.318 33.9924V34.0003C104.581 33.7692 104.928 33.6286 105.308 33.6286C106.129 33.6286 106.794 34.2822 106.794 35.0885C106.794 35.5963 106.53 36.0436 106.13 36.3051H106.132C104.538 37.5251 102.534 38.2517 100.357 38.2517C95.1606 38.2517 90.9484 34.112 90.9484 29.0055C90.9484 23.899 95.1606 19.7593 100.357 19.7593C105.553 19.7593 109.765 23.899 109.765 29.0055C109.765 29.8118 109.1 30.4654 108.279 30.4654H100.357C99.5362 30.4654 98.8712 29.8118 98.8712 29.0055C98.8712 28.1992 99.5362 27.5456 100.357 27.5456H106.622C105.951 24.7555 103.401 22.6792 100.357 22.6792C96.8015 22.6792 93.9194 25.5116 93.9194 29.0055C93.9194 32.4994 96.8015 35.3318 100.357 35.3318Z" fill="#1E0E62"/>
<path d="M150.155 31.9966C150.816 32.4643 151.147 33.1258 151.147 33.9812C151.147 34.791 150.775 35.4411 150.033 35.9316C149.302 36.4106 148.327 36.6501 147.108 36.6501C145.785 36.6501 144.717 36.3422 143.905 35.7263C143.521 35.4252 143.222 35.0741 143.008 34.6731C142.601 33.9078 141.928 33.1942 141.05 33.1942C140.136 33.1942 139.369 33.9386 139.644 34.7944C139.807 35.3001 140.049 35.7875 140.371 36.2566C141.033 37.1919 141.944 37.9219 143.104 38.4465C144.265 38.9712 145.599 39.2335 147.108 39.2335C149.255 39.2335 151.002 38.7374 152.348 37.7451C153.694 36.7414 154.367 35.4126 154.367 33.7588C154.367 32.7665 154.124 31.9282 153.636 31.2439C153.16 30.5481 152.423 29.955 151.425 29.4646C150.427 28.9741 149.122 28.5521 147.508 28.1985C145.907 27.845 144.799 27.4743 144.183 27.0865C143.568 26.6987 143.261 26.1227 143.261 25.3585C143.261 24.5487 143.592 23.8929 144.253 23.3911C144.915 22.8892 145.831 22.6383 147.004 22.6383C148.141 22.6383 149.081 22.9519 149.824 23.5793C150.08 23.7925 150.282 24.0116 150.438 24.242C150.932 24.9745 151.589 25.752 152.483 25.752C153.378 25.752 154.2 25.0177 153.952 24.1737C153.939 24.1322 153.926 24.0906 153.912 24.0488C153.599 23.1355 153.025 22.3403 152.191 21.6631C150.868 20.5796 149.139 20.0378 147.004 20.0378C144.973 20.0378 143.301 20.5625 141.99 21.6118C140.69 22.6611 140.04 23.9442 140.04 25.4612C140.04 26.3736 140.267 27.1606 140.719 27.8222C141.183 28.4837 141.891 29.054 142.843 29.533C143.806 30.012 145.1 30.4227 146.725 30.7648C148.361 31.107 149.505 31.5176 150.155 31.9966Z" fill="#1E0E62"/>
</svg>
