<svg width="160" height="130" viewBox="0 0 160 130" fill="none" xmlns="http://www.w3.org/2000/svg">
<path d="M50.8276 64.7656C48.883 64.7656 47.7722 66.9608 49.0114 68.4685C55.6453 76.5399 66.2024 85.4153 80.0074 85.4153C93.6985 85.4153 104.266 76.5995 110.972 68.4734C112.216 66.9662 111.106 64.7656 109.159 64.7656C108.436 64.7656 107.754 65.0965 107.29 65.6539C106.739 66.3158 106.16 66.9817 105.555 67.6456C99.2341 74.5813 90.548 80.7222 80.0074 80.7222C69.4545 80.7222 60.8238 74.6379 54.5677 67.8025C53.9131 67.0873 53.2903 66.3698 52.6999 65.658C52.2356 65.0982 51.5523 64.7656 50.8276 64.7656Z" fill="white"/>
<path d="M89.3295 57.2565C91.2617 57.2565 92.828 55.6806 92.828 53.7367C92.828 51.7927 91.2617 50.2168 89.3295 50.2168C87.3973 50.2168 85.8309 51.7927 85.8309 53.7367C85.8309 55.6806 87.3973 57.2565 89.3295 57.2565Z" fill="white"/>
<path fill-rule="evenodd" clip-rule="evenodd" d="M80 95.2709C105.119 95.2709 125.481 66.5043 125.481 65.0002C125.481 63.4961 105.119 34.7295 80 34.7295C54.8815 34.7295 34.519 63.6841 34.519 65.0002C34.519 66.3163 54.8815 95.2709 80 95.2709ZM120.086 65.0002C119.61 64.321 118.999 63.4958 118.258 62.559C116.098 59.8298 112.947 56.2933 109.056 52.8045C101.137 45.7033 90.8512 39.4226 80 39.4226C69.1584 39.4226 58.876 45.7399 50.9491 52.87C47.0562 56.3716 43.9025 59.9169 41.7382 62.6437C41.025 63.5423 40.4302 64.3381 39.9597 65.0002C40.4302 65.6624 41.025 66.4581 41.7382 67.3567C43.9025 70.0835 47.0562 73.6288 50.9491 77.1304C58.876 84.2605 69.1584 90.5778 80 90.5778C90.8512 90.5778 101.137 84.2972 109.056 77.196C112.947 73.7071 116.098 70.1706 118.258 67.4414C118.999 66.5046 119.61 65.6795 120.086 65.0002Z" fill="white"/>
<ellipse cx="88.5333" cy="54.3442" rx="5.33333" ry="5.32786" fill="white"/>
<rect x="77.4344" width="5.1312" height="20.6498" rx="2.5656" fill="#C4C4C4"/>
<rect x="160" y="62.4187" width="5.16245" height="20.5248" rx="2.58122" transform="rotate(90 160 62.4187)" fill="#C4C4C4"/>
<rect width="5.14685" height="20.5874" rx="2.57342" transform="matrix(0.704957 0.70925 -0.704957 0.70925 133.464 20.6494)" fill="#FF9F07"/>
<rect x="77.4344" width="5.1312" height="20.6498" rx="2.5656" fill="white"/>
<rect x="77.4344" y="109.35" width="5.1312" height="20.6498" rx="2.5656" fill="white"/>
<rect x="160" y="62.4187" width="5.16245" height="20.5248" rx="2.58122" transform="rotate(90 160 62.4187)" fill="white"/>
<rect x="20.5248" y="62.4187" width="5.16245" height="20.5248" rx="2.58122" transform="rotate(90 20.5248 62.4187)" fill="white"/>
<rect width="5.14685" height="20.5874" rx="2.57342" transform="matrix(-0.704957 0.70925 0.704957 0.70925 28.3514 20.6494)" fill="#FF9F07"/>
<rect width="5.14685" height="20.5874" rx="2.57342" transform="matrix(0.704957 -0.70925 -0.704957 -0.70925 133.464 108.829)" fill="#FF9F07"/>
<rect width="5.14685" height="20.5874" rx="2.57342" transform="matrix(-0.704957 -0.70925 0.704957 -0.70925 28.3514 108.829)" fill="#FF9F07"/>
</svg>
