<svg width="180" height="60" viewBox="0 0 180 60" fill="none" xmlns="http://www.w3.org/2000/svg">
<path fill-rule="evenodd" clip-rule="evenodd" d="M42.225 13.5497C42.2141 9.6325 37.9777 7.18662 34.5799 9.13573L13.5348 21.2078C9.43763 23.5581 9.42938 29.4653 13.52 31.827L33.1038 43.1337C37.1944 45.4954 42.306 42.5347 42.2928 37.8113L42.225 13.5497ZM37.0486 18.8552C37.0548 16.5402 34.575 15.1085 32.5733 16.2714L20.1755 23.474C17.7619 24.8763 17.7379 28.3674 20.1324 29.7499L31.5963 36.3685C33.9908 37.751 37.0022 35.9847 37.0097 33.1932L37.0486 18.8552Z" fill="#8C30F5"/>
<path d="M14.5708 48.5048C14.3802 50.6661 16.8023 52.0645 18.5788 50.8188L24.1819 46.8901C25.7101 45.8186 25.6091 43.5228 23.9927 42.5896L18.9905 39.7016C17.3741 38.7684 15.3355 39.8288 15.1716 41.688L14.5708 48.5048Z" fill="#EC615B"/>
<path fill-rule="evenodd" clip-rule="evenodd" d="M88.4921 31.0492L88.4925 31.0351C88.4927 31.0254 88.4928 31.0156 88.4928 31.0057V14.4599C88.4928 13.6536 87.8277 13 87.0073 13C86.1868 13 85.5217 13.6536 85.5217 14.4599V24.4155C83.8388 22.8632 81.5746 21.9125 79.0845 21.9125C73.8884 21.9125 69.6762 26.0521 69.6762 31.1586C69.6762 36.2652 73.8884 40.4048 79.0845 40.4048C84.2805 40.4048 88.4928 36.2652 88.4928 31.1586C88.4928 31.1221 88.4926 31.0856 88.4921 31.0492ZM85.5217 31.1586C85.5217 27.6647 82.6397 24.8323 79.0845 24.8323C75.5293 24.8323 72.6472 27.6647 72.6472 31.1586C72.6472 34.6526 75.5293 37.485 79.0845 37.485C82.6397 37.485 85.5217 34.6526 85.5217 31.1586Z" fill="#1E0E62"/>
<path fill-rule="evenodd" clip-rule="evenodd" d="M132.068 37.9017C130.385 39.454 128.121 40.4047 125.631 40.4047C120.435 40.4047 116.223 36.2651 116.223 31.1585C116.223 26.052 120.435 21.9123 125.631 21.9123C130.827 21.9123 135.039 26.052 135.039 31.1585C135.039 31.2752 135.037 31.3914 135.033 31.5071C135.037 31.5525 135.039 31.5986 135.039 31.6452V38.9448C135.039 39.7511 134.374 40.4047 133.554 40.4047C132.733 40.4047 132.068 39.7511 132.068 38.9448V37.9017ZM132.068 31.1585C132.068 34.6525 129.186 37.4849 125.631 37.4849C122.076 37.4849 119.194 34.6525 119.194 31.1585C119.194 27.6646 122.076 24.8322 125.631 24.8322C129.186 24.8322 132.068 27.6646 132.068 31.1585Z" fill="#1E0E62"/>
<path d="M63.7341 40.2519C62.9137 40.2519 62.2486 39.5983 62.2486 38.792V23.2195C62.2486 22.4132 62.9137 21.7595 63.7341 21.7595C64.5545 21.7595 65.2196 22.4132 65.2196 23.2195V38.792C65.2196 39.5983 64.5545 40.2519 63.7341 40.2519Z" fill="#1E0E62"/>
<path d="M62.001 16.8931C62.001 17.8338 62.7769 18.5964 63.7341 18.5964C64.6913 18.5964 65.4672 17.8338 65.4672 16.8931C65.4672 15.9525 64.6913 15.1899 63.7341 15.1899C62.7769 15.1899 62.001 15.9525 62.001 16.8931Z" fill="#1E0E62"/>
<path d="M165.928 46.931C165.586 47.6639 165.913 48.5305 166.659 48.8667C167.405 49.2029 168.287 48.8813 168.629 48.1484L179.865 24.0747C180.207 23.3418 179.88 22.4752 179.134 22.139C178.389 21.8028 177.507 22.1244 177.165 22.8573L171.041 35.9771L163.269 22.7471C162.859 22.0488 161.95 21.8096 161.24 22.2127C160.529 22.6159 160.286 23.5088 160.696 24.207L169.522 39.2313L165.928 46.931Z" fill="#1E0E62"/>
<path d="M102.358 37.3318C103.852 37.3318 105.227 36.8317 106.319 35.9924V36.0003C106.582 35.7692 106.929 35.6286 107.309 35.6286C108.13 35.6286 108.795 36.2822 108.795 37.0885C108.795 37.5963 108.531 38.0436 108.131 38.3051H108.133C106.539 39.5251 104.535 40.2517 102.358 40.2517C97.1616 40.2517 92.9493 36.112 92.9493 31.0055C92.9493 25.899 97.1616 21.7593 102.358 21.7593C107.554 21.7593 111.766 25.899 111.766 31.0055C111.766 31.8118 111.101 32.4654 110.28 32.4654H102.358C101.537 32.4654 100.872 31.8118 100.872 31.0055C100.872 30.1992 101.537 29.5456 102.358 29.5456H108.623C107.952 26.7555 105.402 24.6792 102.358 24.6792C98.8025 24.6792 95.9204 27.5116 95.9204 31.0055C95.9204 34.4994 98.8025 37.3318 102.358 37.3318Z" fill="#1E0E62"/>
<path d="M152.156 33.9966C152.817 34.4643 153.148 35.1258 153.148 35.9812C153.148 36.791 152.776 37.4411 152.034 37.9316C151.303 38.4106 150.328 38.6501 149.109 38.6501C147.786 38.6501 146.718 38.3422 145.906 37.7263C145.521 37.4252 145.223 37.0741 145.009 36.6731C144.602 35.9078 143.929 35.1942 143.051 35.1942C142.137 35.1942 141.37 35.9386 141.645 36.7944C141.808 37.3001 142.05 37.7875 142.372 38.2566C143.033 39.1919 143.945 39.9219 145.105 40.4465C146.266 40.9712 147.6 41.2335 149.109 41.2335C151.256 41.2335 153.003 40.7374 154.349 39.7451C155.695 38.7414 156.368 37.4126 156.368 35.7588C156.368 34.7665 156.125 33.9282 155.637 33.2439C155.161 32.5481 154.424 31.955 153.426 31.4646C152.428 30.9741 151.123 30.5521 149.509 30.1985C147.908 29.845 146.8 29.4743 146.184 29.0865C145.569 28.6987 145.262 28.1227 145.262 27.3585C145.262 26.5487 145.593 25.8929 146.254 25.3911C146.916 24.8892 147.832 24.6383 149.005 24.6383C150.142 24.6383 151.082 24.9519 151.825 25.5793C152.081 25.7925 152.283 26.0116 152.439 26.242C152.933 26.9745 153.59 27.752 154.484 27.752C155.379 27.752 156.201 27.0177 155.952 26.1737C155.94 26.1322 155.927 26.0906 155.913 26.0488C155.6 25.1355 155.026 24.3403 154.192 23.6631C152.869 22.5796 151.14 22.0378 149.005 22.0378C146.974 22.0378 145.302 22.5625 143.991 23.6118C142.691 24.6611 142.041 25.9442 142.041 27.4612C142.041 28.3736 142.268 29.1606 142.72 29.8222C143.184 30.4837 143.892 31.054 144.844 31.533C145.807 32.012 147.101 32.4227 148.726 32.7648C150.362 33.107 151.506 33.5176 152.156 33.9966Z" fill="#1E0E62"/>
</svg>
