<svg width="552" height="485" viewBox="0 0 552 485" fill="none" xmlns="http://www.w3.org/2000/svg">
<path fill-rule="evenodd" clip-rule="evenodd" d="M341.286 0.322496C394.529 1.90541 455.864 -2.86827 493.19 37.3981C529.816 76.9112 512.861 142.051 523.024 196.381C531.572 242.071 563.081 286.383 547.948 330.114C532.91 373.571 483.343 387.413 447.673 414.128C412.623 440.378 384.139 482.345 341.286 484.894C297.762 487.482 267.175 442.042 225.856 427.319C156.549 402.623 61.3897 432.986 18.8158 369.989C-21.6171 310.161 11.0527 221.678 42.5633 156.101C71.2838 96.331 126.272 57.793 183.062 28.1779C232.236 2.53457 286.502 -1.30625 341.286 0.322496Z" fill="#EFEFF6"/>
<circle cx="88" cy="193" r="32" fill="#00BF1F"/>
<path d="M78.1641 177.281L92 191.115L95.5703 187.544C90.6916 184.584 84.1574 180.613 81.2188 178.828L79.25 177.635C78.902 177.423 78.5294 177.309 78.1641 177.281ZM76.0521 178.938C76.0241 179.09 76 179.242 76 179.406V206.745C76 206.859 76.0231 206.966 76.0391 207.076L90.1146 193L76.0521 178.938ZM97.9167 188.969L93.8854 193L97.8464 196.961C99.945 195.689 101.399 194.806 101.56 194.708C102.273 194.272 102.676 193.615 102.664 192.896C102.653 192.191 102.25 191.56 101.565 191.172C101.412 191.084 99.978 190.218 97.9167 188.969ZM92 194.885L78.2057 208.68C78.4737 208.633 78.7414 208.553 78.9974 208.398C79.3521 208.182 88.9333 202.369 95.5 198.385L92 194.885Z" fill="white"/>
<circle cx="215.545" cy="193.001" r="31.5429" fill="white"/>
<path d="M215.543 161.456C198.148 161.456 184 175.604 184 192.999C184 210.394 198.148 224.542 215.543 224.542C232.937 224.542 247.086 210.394 247.086 192.999C247.086 175.604 232.937 161.456 215.543 161.456ZM210.614 180.415C211.048 179.676 211.996 179.429 212.736 179.863L214.112 180.667C214.852 181.101 215.104 182.049 214.67 182.794L213.304 185.129L209.248 182.756L210.614 180.415ZM195.421 190.701H203.848L201.164 195.238H195.421V190.701ZM197.452 208.186C197.35 208.283 197.2 208.299 197.077 208.229C196.959 208.16 196.9 208.02 196.937 207.886L198.898 200.467L202.954 202.84L197.452 208.186ZM199.407 199.588L208.916 183.324L212.971 185.697L203.462 201.961L199.407 199.588ZM208.123 195.238L210.641 190.706H220.359L222.877 195.238H208.123ZM213.052 176.569C212.618 175.829 212.875 174.876 213.614 174.447L214.873 173.713C215.612 173.285 216.561 173.536 216.995 174.276L227.746 192.785L223.804 195.077L213.052 176.569ZM224.243 195.838L228.186 193.545L230.468 197.472L226.525 199.76L224.243 195.838ZM232.541 208.063C232.45 208.192 232.22 208.085 232.15 207.977C231.968 207.688 232.129 207.292 231.55 206.408C230.484 204.785 229.075 205.106 227.714 202.819C227.473 202.417 226.659 200.574 227.714 199.947C228.277 199.61 229.23 199.042 229.873 198.683C230.955 198.067 231.957 199.358 232.509 200.167C233.698 201.902 234.18 205.802 232.541 208.063ZM235.605 195.238H229.954L227.484 190.706H235.605V195.238Z" fill="#1C77F2"/>
<circle cx="343.088" cy="193" r="32" fill="white"/>
<path d="M343.088 161C325.416 161 311.088 175.328 311.088 193C311.088 210.672 325.416 225 343.088 225C360.76 225 375.088 210.672 375.088 193C375.088 175.328 360.76 161 343.088 161ZM332.421 176.979H347.088C353.715 176.979 359.088 182.353 359.088 188.979C359.088 195.606 353.715 200.979 347.088 200.979H339.088V209H332.421V177V176.979ZM339.088 183.646V194.313H347.088C350.029 194.313 352.421 191.921 352.421 188.979C352.421 186.038 350.029 183.646 347.088 183.646H339.088Z" fill="#DA552F"/>
<circle cx="471.088" cy="193" r="32" fill="#0A9600"/>
<path d="M451.088 183V189.67H457.75V203H464.422V189.67H471.084V183H451.088ZM477.755 196.331V189.67H471.084V203H491.088V196.331H477.755ZM477.755 183.001H491.088V189.67H477.755V183.001Z" fill="white"/>
<circle cx="147.544" cy="325" r="32" fill="#FF9900"/>
<path d="M147.754 311C143.814 311 139.437 312.475 138.516 317.294C138.417 317.807 138.775 318.071 139.114 318.146L143.116 318.554C143.493 318.534 143.793 318.183 143.865 317.813C144.21 316.152 145.615 315.332 147.193 315.332C148.045 315.332 149.008 315.652 149.512 316.406C150.094 317.249 149.998 318.392 149.998 319.368V319.923C147.597 320.19 144.465 320.354 142.219 321.331C139.624 322.441 137.806 324.704 137.806 328.032C137.806 332.291 140.529 334.438 144.015 334.438C146.959 334.438 148.549 333.731 150.822 331.439C151.573 332.516 151.84 333.047 153.216 334.179C153.525 334.343 153.915 334.311 154.188 334.068V334.106C155.014 333.377 156.522 332.069 157.366 331.365C157.702 331.092 157.63 330.665 157.366 330.292C156.609 329.257 155.833 328.398 155.833 326.477V320.108C155.833 317.402 156.015 314.899 154 313.036C152.41 311.527 149.767 311 147.754 311ZM148.876 323.219C149.25 323.195 149.623 323.219 149.998 323.219V324.107C149.998 325.704 150.063 327.019 149.25 328.439C148.591 329.593 147.532 330.29 146.37 330.29C144.781 330.29 143.863 329.102 143.863 327.328C143.863 324.275 146.263 323.388 148.876 323.219ZM160.32 332.772C159.271 332.787 158.043 333.008 157.104 333.661C156.816 333.862 156.858 334.142 157.179 334.104C158.236 333.978 160.573 333.683 160.993 334.215C161.413 334.748 160.528 336.938 160.134 337.917C160.014 338.213 160.275 338.327 160.545 338.102C162.304 336.644 162.775 333.62 162.415 333.177C162.237 332.961 161.37 332.757 160.32 332.772ZM132.756 333.328C132.537 333.356 132.45 333.64 132.681 333.847C136.593 337.343 141.751 339.437 147.492 339.437C151.587 339.437 156.367 338.168 159.648 335.771C160.189 335.373 159.717 334.76 159.162 334.994C155.484 336.539 151.465 337.289 147.829 337.289C142.438 337.289 137.238 335.833 133.018 333.401C132.925 333.349 132.828 333.319 132.756 333.328Z" fill="white"/>
<circle cx="275.544" cy="325" r="32" fill="white"/>
<path d="M275.544 293C257.872 293 243.544 307.325 243.544 324.993C243.544 339.985 253.869 352.529 267.789 356C267.64 355.568 267.544 355.067 267.544 354.446V348.977C266.245 348.977 264.069 348.977 263.523 348.977C261.333 348.977 259.387 348.036 258.443 346.287C257.395 344.344 257.213 341.371 254.616 339.553C253.845 338.948 254.432 338.257 255.32 338.35C256.96 338.814 258.32 339.939 259.6 341.608C260.875 343.28 261.475 343.659 263.856 343.659C265.011 343.659 266.739 343.592 268.365 343.336C269.24 341.115 270.752 339.07 272.6 338.105C261.944 337.009 256.859 331.709 256.859 324.513C256.859 321.415 258.179 318.419 260.421 315.894C259.685 313.388 258.76 308.277 260.704 306.331C265.499 306.331 268.397 309.439 269.093 310.279C271.483 309.461 274.107 308.997 276.864 308.997C279.627 308.997 282.261 309.461 284.656 310.284C285.344 309.45 288.245 306.331 293.051 306.331C295.003 308.279 294.067 313.412 293.323 315.912C295.552 318.432 296.864 321.421 296.864 324.513C296.864 331.704 291.787 337.001 281.147 338.102C284.075 339.63 286.211 343.923 286.211 347.157V354.446C286.211 354.723 286.149 354.923 286.117 355.16C298.587 350.79 307.544 338.953 307.544 324.993C307.544 307.325 293.216 293 275.544 293Z" fill="#2D2B2B"/>
<g clip-path="url(#clip0_55:1242)">
<ellipse cx="407.044" cy="325" rx="31.5" ry="31" fill="white"/>
<path d="M407.544 293.32C391.114 293.32 377.605 305.821 376.021 321.833L392.137 330.083C393.764 328.715 395.88 327.88 398.184 327.88H398.257C398.819 327.016 399.465 325.935 400.141 324.812C401.553 322.493 403.137 319.873 404.692 317.857C405.038 311.42 410.381 306.28 416.904 306.28C423.658 306.28 429.144 311.767 429.144 318.52C429.144 325.044 424.005 330.387 417.568 330.732C415.552 332.287 412.945 333.872 410.612 335.269C409.489 335.96 408.408 336.606 407.544 337.167V337.24C407.544 342.41 403.354 346.6 398.184 346.6C393.014 346.6 388.824 342.41 388.824 337.24C388.824 336.996 388.838 336.765 388.852 336.52L376.266 330.068C378.7 345.16 391.776 356.68 407.544 356.68C425.04 356.68 439.224 342.496 439.224 325C439.224 307.504 425.04 293.32 407.544 293.32ZM416.904 309.16C411.749 309.16 407.544 313.365 407.544 318.52C407.544 323.676 411.749 327.88 416.904 327.88C422.059 327.88 426.264 323.676 426.264 318.52C426.264 313.365 422.059 309.16 416.904 309.16ZM416.904 312.04C420.49 312.04 423.384 314.935 423.384 318.52C423.384 322.106 420.49 325 416.904 325C413.318 325 410.424 322.106 410.424 318.52C410.424 314.935 413.318 312.04 416.904 312.04ZM398.184 330.76C397.046 330.76 395.967 331.049 395.045 331.582L399.826 334.028C401.598 334.936 402.289 337.112 401.396 338.883C400.748 340.121 399.494 340.84 398.184 340.84C397.622 340.84 397.074 340.711 396.541 340.452L391.746 337.988C392.121 341.214 394.858 343.72 398.184 343.72C401.77 343.72 404.664 340.826 404.664 337.24C404.664 333.655 401.77 330.76 398.184 330.76Z" fill="#125389"/>
</g>
<defs>
<clipPath id="clip0_55:1242">
<rect width="72" height="72" fill="white" transform="translate(371.544 289)"/>
</clipPath>
</defs>
</svg>
