<svg width="1600" height="1200" viewBox="0 0 1600 1200" fill="none" xmlns="http://www.w3.org/2000/svg">
<path d="M335 443.3C343.229 443.3 349.9 436.629 349.9 428.4C349.9 420.171 343.229 413.5 335 413.5C326.771 413.5 320.1 420.171 320.1 428.4C320.1 436.629 326.771 443.3 335 443.3Z" fill="#8C30F5"/>
<path d="M956.1 77.0992C960.905 77.0992 964.8 73.2041 964.8 68.3992C964.8 63.5943 960.905 59.6992 956.1 59.6992C951.295 59.6992 947.4 63.5943 947.4 68.3992C947.4 73.2041 951.295 77.0992 956.1 77.0992Z" fill="#8C30F5"/>
<path d="M1422.1 360.699C1430.94 360.699 1438.1 353.536 1438.1 344.699C1438.1 335.863 1430.94 328.699 1422.1 328.699C1413.26 328.699 1406.1 335.863 1406.1 344.699C1406.1 353.536 1413.26 360.699 1422.1 360.699Z" fill="#8C30F5"/>
<path d="M411 482.099C416.302 482.099 420.6 477.801 420.6 472.499C420.6 467.197 416.302 462.899 411 462.899C405.698 462.899 401.4 467.197 401.4 472.499C401.4 477.801 405.698 482.099 411 482.099Z" fill="#EC615B"/>
<path d="M908.4 107.399C912.874 107.399 916.5 103.773 916.5 99.2992C916.5 94.8257 912.874 91.1992 908.4 91.1992C903.927 91.1992 900.3 94.8257 900.3 99.2992C900.3 103.773 903.927 107.399 908.4 107.399Z" fill="#EC615B"/>
<path d="M1205.8 316.299C1211.71 316.299 1216.5 311.509 1216.5 305.599C1216.5 299.69 1211.71 294.899 1205.8 294.899C1199.89 294.899 1195.1 299.69 1195.1 305.599C1195.1 311.509 1199.89 316.299 1205.8 316.299Z" fill="#EC615B"/>
<path d="M695.6 383.999C699.632 383.999 702.9 380.731 702.9 376.699C702.9 372.668 699.632 369.399 695.6 369.399C691.568 369.399 688.3 372.668 688.3 376.699C688.3 380.731 691.568 383.999 695.6 383.999Z" fill="#EC615B"/>
<path d="M315.5 114.799C324.447 114.799 331.7 107.546 331.7 98.5994C331.7 89.6524 324.447 82.3994 315.5 82.3994C306.553 82.3994 299.3 89.6524 299.3 98.5994C299.3 107.546 306.553 114.799 315.5 114.799Z" fill="#EC615B"/>
<path d="M962.7 160.899C963.4 154.199 971.7 155.499 975.6 157.499C978.6 159.099 981.2 161.299 984.2 162.799C988.9 165.299 993.9 166.199 998.7 163.399C1004.5 159.999 1008.8 155.199 1015.8 153.799C1022.8 152.399 1027.8 157.799 1034.5 157.099C1039.4 156.499 1043.5 153.299 1047.7 150.999C1050.4 149.499 1053.3 148.099 1056.5 148.299C1060.1 148.499 1063.2 150.499 1066.3 152.099C1070.8 154.399 1075 155.699 1079.9 153.899C1083.3 152.699 1086.3 151.099 1090 150.999C1094.8 150.899 1099.2 152.599 1102.8 155.799C1104.3 157.099 1106.4 154.899 1104.9 153.699C1100.2 149.599 1094.3 147.499 1088.1 148.199C1084.2 148.599 1081.3 150.799 1077.5 151.599C1072.9 152.599 1069.1 150.199 1065.2 148.199C1059.9 145.499 1055.2 144.399 1049.6 146.699C1043 149.399 1037.2 155.899 1029.6 153.499C1026.3 152.399 1023.5 150.699 1019.8 150.499C1016.6 150.399 1013.4 151.099 1010.4 152.299C1002.7 155.399 996.6 164.499 987.8 161.099C981.3 158.599 975.9 151.899 968.3 152.599C963.7 153.099 960 156.099 959.5 160.799C959.5 162.799 962.5 162.799 962.7 160.899Z" fill="#E8E8E8"/>
<path d="M1001.9 147.199C1005.3 141.699 1011 138.099 1017.5 137.699C1023.6 137.299 1028.8 140.699 1034.7 141.799C1038.9 142.499 1042.5 141.499 1046.1 139.499C1052.2 136.099 1056.6 133.799 1063.8 134.999C1068.4 135.799 1072.9 137.199 1077.7 137.499C1082.8 137.799 1086.7 136.199 1091.2 133.999C1103.1 128.399 1113.3 137.599 1125.3 137.399C1127.2 137.399 1127.2 134.399 1125.3 134.399C1113.6 134.599 1103.3 125.499 1091.5 130.599C1088.7 131.799 1086.1 133.499 1083.1 134.199C1079.7 134.999 1076.2 134.499 1072.8 133.899C1067.5 132.899 1062.2 131.099 1056.8 131.699C1051.8 132.199 1048.2 135.099 1043.9 137.299C1036.3 141.299 1030.3 136.599 1022.8 135.099C1013.5 133.299 1004.2 137.799 999.2 145.699C998.3 147.399 1000.8 148.899 1001.9 147.199Z" fill="#E8E8E8"/>
<path d="M504.5 492.4C506.5 482.5 519.9 489.9 525.3 491.2C531.3 492.6 536.6 490.5 541.9 487.8C545.2 486.1 548.5 484.2 552.2 483.5C556.4 482.7 560.4 484.1 564.2 485.6C569.8 487.7 575.6 490.3 581.5 487.9C586.8 485.8 592.1 477.7 598.4 479.2C603.8 480.5 606.6 485.7 612.4 482C615.8 479.9 617.8 478.2 622.1 479.3C624.7 480 627.2 481.3 629.7 482.3C633.8 483.9 637.9 484.9 641.7 482.3C643.3 481.2 641.8 478.6 640.2 479.7C634.9 483.4 628.2 477.9 622.9 476.4C620.9 475.9 618.8 475.6 616.8 476C612.6 476.9 610 481.9 605.2 479.4C600.7 477 597.4 474.7 592.3 477.1C584.9 480.6 581.3 487.6 572 485.2C565.5 483.5 559.8 479.6 552.8 480.4C545.9 481.2 540.6 486.1 534.1 488C525.7 490.5 519.4 484 511.2 484.5C506.7 484.8 502.5 487.1 501.5 491.7C501.2 493.5 504.1 494.3 504.5 492.4Z" fill="#E8E8E8"/>
<path d="M576.3 471.5C581 467.5 587.3 466.5 593 469.1C596.6 470.7 599.7 472.8 603.8 472.9C612.3 473 624.8 463.6 631.6 472.4C632.2 473.2 633.5 472.8 634 472.1C640.9 460.7 655.5 464.3 665.9 467.4C667.8 467.9 668.5 465.1 666.7 464.5C654.8 461 639 457.9 631.4 470.6C632.2 470.5 633 470.4 633.8 470.3C625.9 460.2 613.4 470.2 603.8 470C597.7 469.8 593.1 464.9 586.9 464.7C582.1 464.6 577.8 466.4 574.2 469.5C572.7 470.7 574.9 472.8 576.3 471.5Z" fill="#E8E8E8"/>
<path d="M189.6 582.5C191.1 578.2 195.1 575.1 199.8 575.1C203.9 575.1 207.1 577.9 210 580.4C213.7 583.5 217.7 587.1 222.9 586.2C229 585.1 231.7 578.7 236.4 575.4C243.2 570.7 252.4 571.2 260 573.5C266.3 575.5 272.5 579.2 279.2 576.6C285.3 574.2 288.9 567.8 296 567.4C307.5 566.8 317.4 577.8 328.9 572.3C330.6 571.5 329.1 568.9 327.4 569.7C315.5 575.4 303.5 560.6 291 565.4C282.7 568.6 279.5 576.6 269.2 573.6C262.2 571.6 256.1 568.6 248.6 568.7C242.6 568.8 236.8 570.6 232.3 574.7C229.1 577.6 226.5 582.9 221.7 583.2C217.9 583.4 214.8 580.3 212.1 578.1C208 574.7 203.8 571.3 198.1 572.1C192.7 572.8 188.5 576.5 186.7 581.5C186.1 583.5 189 584.3 189.6 582.5Z" fill="#E8E8E8"/>
<path d="M125.7 889.3C155.2 867.6 189.1 852.3 224.9 844.5C242.8 840.6 261.2 838.6 279.5 838.7C299.8 838.8 319.9 841.1 340.1 842.6C362.1 844.2 384.3 844.4 405.9 839.6C407.8 839.2 407 836.3 405.1 836.7C364.5 845.9 323.2 836.3 282.3 835.8C246.4 835.3 210.6 842.5 177.5 856.4C158.5 864.4 140.6 874.6 124 886.8C122.6 887.9 124.1 890.5 125.7 889.3Z" fill="#E8E8E8"/>
<path d="M335 846.1C360.6 827.6 386 808.6 412 790.6C424 782.3 436.6 774.6 450.5 769.8C464.1 765.2 478.4 763.7 492.5 761.8C505.5 760.1 518.6 758 530.8 752.7C541.7 748 551.2 740.8 559.9 732.8C578.7 715.3 593.9 694.1 616.8 681.5C644.2 666.5 676.2 663.1 706.8 660C708.7 659.8 708.7 656.8 706.8 657C680 659.7 652.5 662.6 627.4 673.1C603.6 683 587 700.5 569.6 718.8C560.7 728.2 551.4 737.5 540.3 744.4C528.1 752 514.3 755.5 500.2 757.7C486.7 759.8 472.9 760.9 459.6 764.1C445.7 767.4 432.9 773.6 420.9 781.1C406.2 790.3 392.3 800.9 378.3 811.1C363.4 821.9 348.5 832.7 333.5 843.4C332 844.6 333.5 847.2 335 846.1Z" fill="#E8E8E8"/>
<path d="M798.5 1009C815.1 993.199 836.2 983.799 856.9 974.399C880.7 963.599 904.7 955.299 931 962.199C932.9 962.699 933.7 959.799 931.8 959.299C906.1 952.499 882.3 959.799 858.7 970.299C836.7 980.099 814.1 989.999 796.4 1006.8C794.9 1008.2 797.1 1010.3 798.5 1009Z" fill="#E8E8E8"/>
<path d="M567.9 925.4C584.9 923 602.1 927.4 618.3 932.3C631.2 936.2 644.8 941.7 651.5 954.2C652.4 955.9 655 954.4 654.1 952.7C647.2 940 633.7 933.9 620.5 929.9C603.3 924.6 585.1 920.1 567.1 922.6C565.2 922.7 566 925.6 567.9 925.4Z" fill="#E8E8E8"/>
<path d="M712.1 915.7C730.3 896.7 755.9 886.2 782.1 887.1C784 887.2 784 884.2 782.1 884.1C755.1 883.2 728.6 894 709.9 913.6C708.6 915 710.7 917.2 712.1 915.7Z" fill="#E8E8E8"/>
<path d="M713.8 800.399C733.9 803.799 751.7 815.699 762.5 833.099C763.5 834.699 766.1 833.199 765.1 831.599C753.9 813.599 735.5 801.099 714.7 797.599C712.7 797.199 711.9 800.099 713.8 800.399Z" fill="#E8E8E8"/>
<path d="M818.6 780.499C840.3 758.799 870.5 747.099 901.2 748.399C903.1 748.499 903.1 745.499 901.2 745.399C869.8 743.999 838.8 756.099 816.5 778.399C815.1 779.799 817.2 781.899 818.6 780.499Z" fill="#E8E8E8"/>
<path d="M761.3 1047.8C772.6 1032.6 795.7 1029.6 810.8 1040.9C812.3 1042.1 813.8 1039.5 812.3 1038.3C795.8 1025.9 771 1029.9 758.7 1046.3C757.5 1047.9 760.1 1049.4 761.3 1047.8Z" fill="#E8E8E8"/>
<path d="M912.7 847.299C927.7 833.999 945.7 824.499 965.1 819.499C974.6 817.099 984.4 815.699 994.3 815.599C998.6 815.499 1010.1 818.299 1011.4 811.799C1011.8 809.899 1008.9 809.099 1008.5 810.999C1007.9 814.399 997.6 812.599 995.2 812.599C990.6 812.599 986 812.899 981.5 813.499C972.8 814.499 964.2 816.4 955.9 819.2C939.2 824.7 923.9 833.599 910.7 845.299C909.1 846.499 911.2 848.599 912.7 847.299Z" fill="#E8E8E8"/>
<path d="M936.8 737.8C949.6 736.2 961.7 745.4 963.5 758.2C963.8 760.1 966.7 759.3 966.4 757.4C964.4 743.4 950.8 733.1 936.8 734.8C934.9 735 934.9 738 936.8 737.8Z" fill="#E8E8E8"/>
<path d="M980.7 758.8C1003.1 732.4 1039 719.5 1073 725.7C1074.9 726 1075.7 723.2 1073.8 722.8C1038.8 716.4 1001.7 729.4 978.6 756.7C977.3 758.1 979.4 760.2 980.7 758.8Z" fill="#E8E8E8"/>
<path d="M485.5 1036.1C503.6 1027.9 523.7 1030.7 542.3 1035.2C561.2 1039.8 579.9 1044.8 591.7 1061.5C592.8 1063.1 595.4 1061.6 594.3 1060C589 1052.4 582.1 1046.2 573.8 1042C564.3 1037.2 553.4 1034.8 543.1 1032.3C523.6 1027.5 502.8 1025 484 1033.5C482.2 1034.3 483.7 1036.8 485.5 1036.1Z" fill="#E8E8E8"/>
<path d="M1053 946.999C1084.9 926.599 1123.9 918.099 1161.4 923.899C1170.9 925.399 1180.3 927.699 1189.9 927.999C1198.9 928.299 1207.1 925.999 1215.3 922.499C1233.7 914.799 1252.2 909.399 1272.3 908.699C1294.2 907.899 1316.2 912.099 1336.3 920.899C1338.1 921.699 1339.6 919.099 1337.8 918.299C1303.1 902.999 1262.9 901.399 1227.2 914.399C1217.4 917.999 1208 923.499 1197.4 924.699C1186.2 925.999 1175.1 923.099 1164.1 921.299C1146.3 918.399 1128.1 918.399 1110.3 921.499C1089.4 925.099 1069.4 932.999 1051.5 944.399C1049.9 945.499 1051.4 948.099 1053 946.999Z" fill="#E8E8E8"/>
<path d="M1205.1 877.5C1237.6 863.5 1273.1 848.5 1309.3 853.2C1317.2 854.2 1325.3 857.7 1333.3 856.8C1340.7 856 1347.5 852 1354.8 850.4C1371.7 846.7 1389.5 849.4 1404.6 857.5C1406.3 858.4 1407.8 855.8 1406.1 854.9C1392 847.3 1376 844.3 1360.1 846.4C1351.9 847.5 1344.9 850.8 1337 853C1327.6 855.6 1317.9 851.3 1308.5 850.1C1271.9 845.7 1236.4 860.7 1203.5 874.9C1201.9 875.7 1203.4 878.3 1205.1 877.5Z" fill="#E8E8E8"/>
<path d="M198 998.499C214.5 989.499 233.9 991.099 251.3 996.099C260.9 998.799 270.2 1002.5 279.5 1006C287.2 1008.8 296.7 1013.7 305 1013.1C312.1 1012.6 318.8 1007 325.4 1004.5C333.7 1001.4 342.5 999.599 351.3 999.099C368.6 998.199 385.7 1002.4 400.6 1011.4C402.3 1012.4 403.8 1009.8 402.1 1008.8C379.7 995.299 351.6 992.299 326.9 1000.8C321 1002.8 315.7 1005.9 310.1 1008.5C301.9 1012.3 291.7 1007.2 283.8 1004.4C269.3 999.199 254.9 992.899 239.6 990.299C224.9 987.799 209.7 988.599 196.4 995.799C194.8 996.799 196.3 999.399 198 998.499Z" fill="#E8E8E8"/>
<path d="M1181.1 82.3C1182.1 128.1 1182.1 173.9 1181.2 219.8C1181.2 221.7 1184.2 221.7 1184.2 219.8C1185.1 174 1185.1 128.2 1184.1 82.3C1184 80.4 1181 80.4 1181.1 82.3Z" fill="#E8E8E8"/>
<path d="M1186.4 78.5996C1265.7 78.5996 1345 78.5996 1424.3 78.5996C1426.2 78.5996 1426.2 75.5996 1424.3 75.5996C1345 75.5996 1265.7 75.5996 1186.4 75.5996C1184.4 75.5996 1184.4 78.5996 1186.4 78.5996Z" fill="#E8E8E8"/>
<path d="M1196.9 223.1C1271.5 223.1 1346.1 223.1 1420.7 223.1C1422.6 223.1 1422.6 220.1 1420.7 220.1C1346.1 220.1 1271.5 220.1 1196.9 220.1C1195 220.1 1195 223.1 1196.9 223.1Z" fill="#E8E8E8"/>
<path d="M1428.1 77.0996C1428.1 122.3 1428.1 167.6 1428.1 212.8C1428.1 214.7 1431.1 214.7 1431.1 212.8C1431.1 167.6 1431.1 122.3 1431.1 77.0996C1431.1 75.0996 1428.1 75.0996 1428.1 77.0996Z" fill="#E8E8E8"/>
<path d="M1283.7 69.8996C1283.4 72.2996 1285.4 73.9996 1287.8 73.4996C1291.3 72.7996 1291.7 67.9996 1292.7 65.2996C1293.8 62.3996 1295.3 59.5996 1297.1 56.9996C1298.6 54.8996 1299.1 53.2996 1301.7 53.9996C1304.2 54.6996 1303.9 55.8996 1304.6 58.0996C1306.5 64.5996 1308.1 71.0996 1309.5 77.5996C1309.9 79.4996 1312.8 78.6996 1312.4 76.7996C1311 70.1996 1309.4 63.6996 1307.5 57.2996C1306.7 54.5996 1305.9 49.5996 1302.3 49.1996C1298.8 48.6996 1296.1 53.1996 1294.5 55.5996C1292.9 57.7996 1291.6 60.1996 1290.6 62.7996C1290.1 63.8996 1289.7 65.0996 1289.3 66.1996C1289.1 66.6996 1289 67.1996 1288.8 67.7996C1288.7 68.9996 1288 69.6996 1286.8 70.0996C1287 67.9996 1284 67.9996 1283.7 69.8996Z" fill="#E8E8E8"/>
<path d="M1193.7 96.3996C1193.7 131.6 1193.7 166.9 1193.7 202.1C1193.7 204 1196.7 204 1196.7 202.1C1196.7 166.9 1196.7 131.6 1196.7 96.3996C1196.7 94.4996 1193.7 94.4996 1193.7 96.3996Z" fill="#E8E8E8"/>
<path d="M1200.5 203.699C1268.6 203.699 1336.8 203.699 1404.9 203.699C1406.8 203.699 1406.8 200.699 1404.9 200.699C1336.8 200.699 1268.6 200.699 1200.5 200.699C1198.5 200.699 1198.5 203.699 1200.5 203.699Z" fill="#E8E8E8"/>
<path d="M1202.2 96.1992C1271.5 96.1992 1340.8 96.1992 1410.2 96.1992C1412.1 96.1992 1412.1 93.1992 1410.2 93.1992C1340.9 93.1992 1271.6 93.1992 1202.2 93.1992C1200.3 93.1992 1200.3 96.1992 1202.2 96.1992Z" fill="#E8E8E8"/>
<path d="M1410.4 91.1992C1410.4 126.999 1410.4 162.899 1410.4 198.699C1410.4 200.599 1413.4 200.599 1413.4 198.699C1413.4 162.899 1413.4 126.999 1413.4 91.1992C1413.4 89.1992 1410.4 89.1992 1410.4 91.1992Z" fill="#E8E8E8"/>
<path d="M1197.2 154.499C1218.6 146.299 1238.8 163.199 1257.2 171.699C1275.3 180.099 1294.5 185.699 1314.3 188.599C1316.2 188.899 1317 185.999 1315.1 185.699C1293.2 182.499 1272 175.999 1252.2 165.999C1235 157.299 1216.4 143.899 1196.3 151.599C1194.6 152.299 1195.4 155.199 1197.2 154.499Z" fill="#E8E8E8"/>
<path d="M1271.9 173.599C1284.2 173.299 1296.3 171.799 1308.2 168.699C1314.1 167.199 1319.8 164.999 1325.6 163.299C1332.7 161.199 1338.6 161.399 1345.7 163.299C1356 166.199 1364.2 164.499 1373.7 159.699C1385.9 153.599 1397.4 149.199 1411.2 149.199C1413.1 149.199 1413.1 146.199 1411.2 146.199C1399.9 146.199 1389 148.699 1378.9 153.699C1373.5 156.299 1368.3 159.499 1362.5 161.099C1355.6 162.999 1349.9 161.199 1343.3 159.499C1332.2 156.699 1322.4 161.399 1311.9 164.499C1298.9 168.299 1285.5 170.199 1271.9 170.499C1269.9 170.599 1269.9 173.599 1271.9 173.599Z" fill="#E8E8E8"/>
<path d="M1366.9 155.899C1365.1 154.299 1361.5 152.299 1360.5 150.199C1359.3 149.399 1359.5 148.199 1361.3 146.799C1361.3 144.499 1362.2 143.399 1364.1 143.499C1365.2 142.999 1366.6 143.099 1367.8 142.999C1371 142.599 1374.4 141.599 1376 138.599C1377.3 136.299 1376.7 134.499 1375.6 132.399C1374 129.299 1372 126.299 1375.3 123.299C1378.9 120.099 1384 121.799 1387.4 124.199C1388.3 124.799 1389.3 124.099 1389.6 123.299C1390.8 120.199 1393.5 117.999 1396.7 117.399C1398 117.099 1399.6 117.099 1400.8 117.499C1402.2 117.999 1406.6 121.699 1403.4 123.499C1401.7 124.499 1403.2 127.099 1404.9 126.099C1409.9 123.199 1406.6 116.399 1402.1 114.799C1395.7 112.499 1389 116.499 1386.6 122.499C1387.3 122.199 1388.1 121.899 1388.8 121.599C1384.5 118.699 1378.6 117.099 1374 120.399C1369.5 123.599 1369.9 127.699 1371.4 132.199C1371.7 132.599 1372 132.999 1372.4 133.399C1373.2 137.499 1372 139.699 1368.6 139.999C1366.6 140.399 1364.5 140.299 1362.5 140.799C1360.1 141.399 1358 142.599 1356.7 144.699C1353.3 150.499 1361.1 154.899 1364.7 158.099C1366.3 159.299 1368.4 157.099 1366.9 155.899Z" fill="#E8E8E8"/>
<path d="M1291.6 126.9C1288.2 124.7 1290.9 119.7 1293.4 118C1296.3 116 1300.7 115.6 1303.6 117.8C1306.7 120 1307.2 125 1304.5 127.9C1301.7 130.9 1296.9 130.3 1294.2 127.5C1292.9 126.1 1290.8 128.2 1292.1 129.6C1295.8 133.6 1302.7 134.1 1306.6 130C1310.5 125.9 1309.9 118.7 1305.4 115.4C1300.9 112.1 1293.9 113 1290.1 116.8C1286.7 120.2 1285.5 126.6 1290 129.5C1291.7 130.5 1293.2 127.9 1291.6 126.9Z" fill="#E8E8E8"/>
<path d="M397 120.699C394.2 184.699 392.4 248.699 391.6 312.799C391.6 314.699 394.6 314.699 394.6 312.799C395.4 248.699 397.2 184.699 400 120.699C400.1 118.799 397.1 118.799 397 120.699Z" fill="#E8E8E8"/>
<path d="M396 309.9C479.9 289 563 265.1 645.2 238.2C668.7 230.5 692.1 222.6 715.4 214.5C717.2 213.9 716.4 211 714.6 211.6C633 240.1 550.4 265.7 467 288.3C443.2 294.8 419.3 301 395.3 307C393.4 307.4 394.2 310.3 396 309.9Z" fill="#E8E8E8"/>
<path d="M405.3 119.4C481.9 99.7998 559.4 83.6998 637.5 71.1998C660.2 67.5998 682.9 64.1998 705.7 61.1998C707.6 60.8998 707.6 57.8998 705.7 58.1998C626.9 68.6998 548.5 82.7998 471 100.4C448.8 105.5 426.7 110.8 404.6 116.5C402.6 116.9 403.4 119.8 405.3 119.4Z" fill="#E8E8E8"/>
<path d="M706.1 60.0996C708.8 110.2 711.5 160.3 714.2 210.4C714.3 212.3 717.3 212.3 717.2 210.4C714.5 160.3 711.8 110.2 709.1 60.0996C709 58.0996 706 58.0996 706.1 60.0996Z" fill="#E8E8E8"/>
<path d="M397.9 141.7C408.3 139.1 418.8 136.6 429.2 134C428.6 133.5 427.9 133 427.3 132.6C422.5 186.6 420.9 240.8 422.6 295C422.7 296.9 425.7 296.9 425.6 295C423.9 240.8 425.5 186.6 430.3 132.6C430.4 131.6 429.3 130.9 428.4 131.2C418 133.8 407.5 136.3 397.1 138.9C395.3 139.3 396.1 142.2 397.9 141.7Z" fill="#E8E8E8"/>
<path d="M565.5 257.2C565.6 249.4 566 241.6 566.8 233.8C567 232.1 566.7 229.4 567.6 227.9C569 225.5 572.7 224.7 575.1 224C578.6 223 582.1 222 585.6 221C600.5 216.8 615.4 212.6 630.4 208.4C645 204.3 659.6 200.2 674.2 196.1C678 195 681.8 194 685.6 192.9C689 191.9 693.5 189.7 697 189.7C700.4 189.7 700.6 191.3 700.3 194C700.1 195.8 700 197.7 699.8 199.5C699.5 203.2 699.1 206.8 698.8 210.5C698.6 212.4 701.6 212.4 701.8 210.5C702.2 205.6 702.7 200.7 703.1 195.8C703.3 193.4 704.3 190.1 702.6 188C699.4 183.8 690.4 188.4 686.6 189.5C668.2 194.7 649.8 199.9 631.4 205.1C613 210.3 594.6 215.5 576.2 220.7C570.8 222.2 565.6 222.7 564.4 228.8C562.6 238 562.7 248 562.6 257.3C562.5 259.1 565.5 259.1 565.5 257.2Z" fill="#E8E8E8"/>
<path d="M564.8 225.4C543.8 223.2 522.7 221 502 216.7C500.8 216.5 500 217.4 500.2 218.5C501.5 226.6 501.9 235.4 504.1 243.3C505.6 248.5 510.1 249.7 514.7 251.5C529.3 257.2 544.5 261.1 560 263.4C561.9 263.7 562.7 260.8 560.8 260.5C547.7 258.6 534.9 255.5 522.4 251.2C519.5 250.2 516.6 249.1 513.8 248C509.2 246.1 507.3 244.2 506.5 239.2C505.4 232.1 504.3 224.9 503.2 217.8C502.6 218.4 502 219 501.4 219.6C522.4 223.9 543.7 226.1 565 228.4C566.7 228.6 566.7 225.6 564.8 225.4Z" fill="#E8E8E8"/>
<path d="M504.1 217.4C516.1 212.9 528.2 208.9 540.5 205.5C542.4 205 541.6 202.1 539.7 202.6C527.4 206.1 515.2 210.1 503.3 214.5C501.5 215.1 502.2 218 504.1 217.4Z" fill="#E8E8E8"/>
<path d="M578.3 193.999C579 201.199 579.7 208.399 580.3 215.499C580.5 217.399 583.5 217.399 583.3 215.499C582.6 208.299 581.9 201.099 581.3 193.999C581.1 192.099 578.1 192.099 578.3 193.999Z" fill="#E8E8E8"/>
<path d="M578.1 192.399C596.5 191.199 613.9 183.799 631.6 179.099C650.2 174.099 669.1 170.299 688.2 167.599C687.6 166.999 687 166.399 686.4 165.799C685.3 173.099 684.6 180.399 684.2 187.699C684.1 189.599 687.1 189.599 687.2 187.699C687.6 180.599 688.3 173.599 689.3 166.599C689.5 165.399 688.7 164.599 687.5 164.799C669 167.399 650.8 171.099 632.7 175.799C614.7 180.499 596.8 188.299 578.2 189.499C576.1 189.499 576.1 192.499 578.1 192.399Z" fill="#E8E8E8"/>
<path d="M541.6 185.3C541.2 190.2 539.7 196.2 540.3 201C540.7 203.9 542.5 204.8 545 205.6C556.4 209.1 568.3 211.3 579.9 214.1C581.8 214.6 582.6 211.7 580.7 211.2C572 209.1 563.2 206.9 554.5 204.8C552.3 204.3 549.8 204 547.7 203.1C544.9 201.9 543.7 200.9 543.4 197.6C543.1 193.7 544.1 189.1 544.5 185.2C544.7 183.3 541.7 183.3 541.6 185.3Z" fill="#E8E8E8"/>
<path d="M542.1 183.699C554 185.599 565.9 187.499 577.8 189.399C579.7 189.699 580.5 186.799 578.6 186.499C566.7 184.599 554.8 182.699 542.9 180.799C541 180.599 540.2 183.399 542.1 183.699Z" fill="#E8E8E8"/>
<path d="M544.7 180.399C563.7 174.999 582.7 169.699 601.7 164.299C620.5 158.999 639.4 153.699 658.9 152.299C660.8 152.199 660.8 149.199 658.9 149.299C639.7 150.699 621.2 155.699 602.7 160.899C583.1 166.399 563.5 171.999 543.8 177.499C542.1 177.999 542.9 180.899 544.7 180.399Z" fill="#E8E8E8"/>
<path d="M652.1 151.7C663.5 155.4 674.5 160 685.1 165.6C686.8 166.5 688.3 163.9 686.6 163C675.7 157.4 664.5 152.6 652.9 148.8C651 148.2 650.2 151.1 652.1 151.7Z" fill="#E8E8E8"/>
<path d="M426.6 161.999C432.3 159.899 438.2 158.599 444.3 158.699C446.8 158.699 449.6 158.499 450.9 161.799C451.3 162.799 450.9 164.699 451 165.799C451 168.799 451.1 171.799 451.1 174.799C451.3 187.399 451.4 200.099 451.6 212.699C451.9 237.599 452.3 262.599 452.6 287.499C452.6 289.399 455.6 289.399 455.6 287.499C455.2 258.199 454.8 228.999 454.5 199.699C454.4 192.399 454.3 185.099 454.2 177.799C454.2 174.499 454.1 171.099 454.1 167.799C454.1 165.099 454.7 161.599 453.7 158.999C452.3 155.399 447.6 155.699 444.5 155.699C438.1 155.599 431.9 156.899 426 159.099C424 159.799 424.8 162.699 426.6 161.999Z" fill="#E8E8E8"/>
<path d="M457.1 260.999C472.7 256.699 488.2 252.399 503.8 248.099C505.7 247.599 504.9 244.699 503 245.199C487.4 249.499 471.9 253.799 456.3 258.099C454.5 258.699 455.2 261.499 457.1 260.999Z" fill="#E8E8E8"/>
<path d="M399.7 336.199C399.2 352.299 398.7 368.499 398.1 384.599C398 386.499 401 386.499 401.1 384.599C401.6 368.499 402.1 352.299 402.7 336.199C402.8 334.299 399.8 334.299 399.7 336.199Z" fill="#E8E8E8"/>
<path d="M586.8 239.5C587.5 233.6 595.3 234.6 599.4 234.1C601.8 233.8 604 233.1 606 231.9C608.5 230.4 610.3 228.1 612.8 226.5C615.6 224.7 621.3 223.5 622.1 228.2C622.3 229.4 623.9 229.6 624.6 228.9C628.2 225.6 631.9 222.2 636.3 220C638.9 218.7 641.7 217.8 644.6 217.9C646.5 218 648.1 218.8 650 218.8C653.1 218.8 656.1 216.7 658.8 215.3C663.6 213 668.3 210.6 673.1 208.3C674.8 207.5 673.3 204.9 671.6 205.7C666.8 208 662.1 210.4 657.3 212.7C654.2 214.2 651.8 215.7 648.2 215.4C646.2 215.2 644.5 214.8 642.3 215C634.5 215.9 628 221.5 622.5 226.7C623.3 226.9 624.2 227.1 625 227.4C624.5 224.2 622 222.5 618.9 222C614.8 221.4 611.8 223.4 608.7 225.9C605.5 228.5 603.3 230.4 599.2 231.1C596.4 231.5 593.5 231.2 590.8 232C587 233.1 584.4 235.6 583.9 239.5C583.6 241.4 586.6 241.4 586.8 239.5Z" fill="#E8E8E8"/>
<path d="M600.9 196.8C605.4 192.5 613.4 197.3 619 196.4C621.4 196 623.2 194.7 625.4 193.7C629.1 192 633.1 192.5 637.1 191.8C649.8 189.6 661.1 178.8 674.5 181.3C676.4 181.7 677.2 178.8 675.3 178.4C660.8 175.7 649.5 186.9 635.8 188.9C632.3 189.4 628.7 189.1 625.4 190.4C623.5 191.1 621.8 192.5 619.9 193.1C617.6 193.8 615.3 193.4 613 193.1C608 192.3 602.9 190.7 598.8 194.6C597.4 196 599.5 198.1 600.9 196.8Z" fill="#E8E8E8"/>
<path d="M398.8 336.499C481.2 310.499 563.6 284.499 645.9 258.599C669.3 251.199 692.8 243.799 716.2 236.399C718 235.799 717.3 232.899 715.4 233.499C633 259.499 550.6 285.499 468.3 311.399C444.9 318.799 421.4 326.199 398 333.599C396.2 334.199 397 337.099 398.8 336.499Z" fill="#E8E8E8"/>
<path d="M400.3 384.799C483.7 363.299 565.7 336.099 645.4 303.499C667.4 294.499 689.3 285.099 711 275.199C712.8 274.399 711.2 271.799 709.5 272.599C631.4 307.999 551 338.099 468.8 362.599C445.8 369.499 422.7 375.899 399.5 381.899C397.6 382.399 398.4 385.299 400.3 384.799Z" fill="#E8E8E8"/>
<path d="M713 238.2C713.1 249.5 713.3 260.7 713.4 272C713.4 273.9 716.4 273.9 716.4 272C716.3 260.7 716.1 249.5 716 238.2C716 236.3 713 236.2 713 238.2Z" fill="#E8E8E8"/>
<path d="M555.8 709.2C571.2 699.7 591.8 683.5 603.5 657.6C615.8 630.4 608.2 614.8 614.2 590.9C626.1 543.8 669.3 550.4 716 496.8C764.4 441.3 746.7 401.3 803.2 345.6C822.9 326.1 842.5 313.8 855.9 306.4C855.1 314.2 854.2 322 853.4 329.9C849.6 331.8 843.7 335 837 339.6C818.2 352.6 801 372 780.1 416.3C760.9 456.9 769.3 453.7 756.7 475C734.8 512.3 700.8 536.6 679.7 551.6C653.3 570.4 638.4 575.1 630.9 594.5C624.3 611.6 630.7 621.3 628.5 641C626.5 659 617.6 683.3 586.7 710.7C576.4 710.1 566.1 709.7 555.8 709.2Z" fill="#8C30F5"/>
<path d="M378.9 809.1L530.4 840.9L683.8 715.2L544.8 708.7L378.9 809.1Z" fill="white" stroke="#1E0E62" stroke-width="3" stroke-miterlimit="10"/>
<path d="M415.3 800.8C447.2 806.2 478.8 812.8 510.2 820.5C512.1 821 512.9 818.1 511 817.6C479.6 809.9 447.9 803.3 416.1 797.9C414.2 797.6 413.3 800.5 415.3 800.8Z" fill="#1E0E62"/>
<path d="M416.6 798.4C458.4 772.9 500.2 747.3 542 721.8C543.6 720.8 542.1 718.2 540.5 719.2C498.7 744.7 456.9 770.299 415.1 795.799C413.5 796.899 415 799.5 416.6 798.4Z" fill="#1E0E62"/>
<path d="M542.7 720.3C571.7 722.7 600.8 724.1 630 724.7C631.9 724.7 631.9 721.7 630 721.7C600.9 721.2 571.8 719.7 542.7 717.3C540.7 717.1 540.7 720.1 542.7 720.3Z" fill="#1E0E62"/>
<path d="M511.2 820.3C550.7 787.9 590.5 755.801 630.5 724.201C632 723.001 629.9 720.9 628.4 722.1C588.3 753.8 548.6 785.801 509.1 818.201C507.6 819.401 509.8 821.6 511.2 820.3Z" fill="#1E0E62"/>
<path d="M430.1 790.3C459.4 796.1 488.5 802.9 517.3 810.7C519.2 811.2 520 808.3 518.1 807.8C489.3 800 460.2 793.1 430.9 787.4C429 787 428.2 789.9 430.1 790.3Z" fill="#1E0E62"/>
<path d="M451.5 778.3C478.3 783.6 504.7 791 530.4 800.4C532.2 801.1 533 798.2 531.2 797.5C505.5 788.1 479.1 780.8 452.3 775.4C450.4 775 449.6 777.9 451.5 778.3Z" fill="#1E0E62"/>
<path d="M522.7 795.5C541 781.6 559.4 767.6 577.7 753.7C579.2 752.5 577.7 749.9 576.2 751.1C557.9 765 539.5 779 521.2 792.9C519.7 794.1 521.2 796.7 522.7 795.5Z" fill="#1E0E62"/>
<path d="M471 766C491.9 771.6 512.5 778.1 532.8 785.5C534.6 786.2 535.4 783.3 533.6 782.6C513.3 775.2 492.7 768.7 471.8 763.1C469.9 762.6 469.1 765.5 471 766Z" fill="#1E0E62"/>
<path d="M493 753.2C512.6 758 531.7 764.6 550.1 773C551.8 773.8 553.4 771.2 551.6 770.4C533 761.9 513.7 755.199 493.8 750.299C492 749.899 491.2 752.8 493 753.2Z" fill="#1E0E62"/>
<path d="M510.3 742.5C529.1 748.7 547.8 754.9 566.6 761.2C568.4 761.8 569.2 758.9 567.4 758.3C548.6 752.1 529.9 745.9 511.1 739.6C509.3 739 508.5 741.9 510.3 742.5Z" fill="#1E0E62"/>
<path d="M523.9 731.9C547.7 737 571.4 742.1 595.2 747.2C597.1 747.6 597.9 744.7 596 744.3C572.2 739.2 548.5 734.1 524.7 729C522.8 728.6 522 731.5 523.9 731.9Z" fill="#1E0E62"/>
<path d="M577.8 753.2C581.2 751.4 584.1 749 586.5 746C587.7 744.5 585.6 742.4 584.4 743.9C582.1 746.7 579.4 748.9 576.3 750.6C574.6 751.5 576.1 754.1 577.8 753.2Z" fill="#1E0E62"/>
<path d="M539.1 725C562.7 729.8 586.3 734.6 609.8 739.3C611.7 739.7 612.5 736.8 610.6 736.4C587 731.6 563.4 726.8 539.9 722.1C538 721.7 537.2 724.6 539.1 725Z" fill="#1E0E62"/>
<path d="M452.5 794C486.9 771.7 520.6 748.4 553.5 724.1C555 723 553.5 720.4 552 721.5C519.1 745.9 485.4 769.2 451 791.4C449.4 792.5 450.9 795.1 452.5 794Z" fill="#1E0E62"/>
<path d="M474.2 798.8C507.7 774.1 541.3 749.4 574.8 724.7C576.3 723.6 574.8 721 573.3 722.1C539.8 746.8 506.2 771.5 472.7 796.2C471.2 797.3 472.7 799.9 474.2 798.8Z" fill="#1E0E62"/>
<path d="M495.1 804.4C527.3 777.1 560.3 750.8 594.1 725.6C595.6 724.5 594.1 721.9 592.6 723C558.6 748.4 525.3 774.8 493 802.3C491.5 803.5 493.7 805.6 495.1 804.4Z" fill="#1E0E62"/>
<path d="M296.5 647.7C324 701.5 351.5 755.3 379 809.1C434.3 775.6 489.6 742.2 544.9 708.7C522.8 662.6 500.6 616.6 478.5 570.5C417.8 596.2 357.1 621.9 296.5 647.7Z" fill="white" stroke="#1E0E62" stroke-width="3" stroke-miterlimit="10"/>
<path d="M310.9 652C335.2 698.5 359.5 744.9 383.8 791.4C432.7 762.5 481.5 733.6 530.4 704.6C510.8 664.8 491.3 625 471.7 585.2C418.1 607.5 364.5 629.8 310.9 652Z" fill="white" stroke="#1E0E62" stroke-width="3" stroke-miterlimit="10"/>
<path d="M372.2 687.2C375.9 694.2 380 700.9 384.6 707.3C385.1 708 385.9 708.2 386.7 707.8C415.1 693.1 443.5 678.5 471.9 663.8C473.6 662.9 472.1 660.3 470.4 661.2C442 675.9 413.6 690.5 385.2 705.2C385.9 705.4 386.6 705.6 387.3 705.7C382.7 699.3 378.5 692.6 374.9 685.6C373.9 683.9 371.3 685.5 372.2 687.2Z" fill="#E8E8E8"/>
<path d="M376.7 686.1C394.4 680.2 410.1 670.3 426.2 661.2C434.6 656.4 443.2 651.8 452.2 648.2C454.2 647.4 456.3 646.7 458.3 646C459.8 645.5 463.7 643.6 465.4 643.9C467.8 644.4 467.9 648.6 468.3 650.5C468.9 653.5 469.6 656.4 470.2 659.4C470.6 661.3 473.5 660.5 473.1 658.6C472.5 655.6 471.8 652.7 471.2 649.7C470.7 647.6 470.7 644.7 469.5 642.7C467.8 639.8 464.8 640.9 462.2 641.6C452.4 644.3 443 648.6 434 653.3C414.7 663.5 396.7 676.2 375.9 683.1C374 683.8 374.8 686.7 376.7 686.1Z" fill="#E8E8E8"/>
<path d="M423.5 660.7C427.5 667.2 431.5 673.7 435.5 680.2C436.5 681.8 439.1 680.3 438.1 678.7C434.1 672.2 430.1 665.7 426.1 659.2C425.1 657.5 422.5 659.1 423.5 660.7Z" fill="#E8E8E8"/>
<path d="M406.9 644.7C409.6 643.8 412.2 643 414.9 642.1C414.3 641.5 413.7 640.9 413.1 640.3C411.4 646.7 411.7 653.1 414.1 659.3C414.8 661.1 417.7 660.3 417 658.5C414.8 652.8 414.5 647 416 641.1C416.3 640 415.3 638.9 414.2 639.3C411.5 640.2 408.9 641 406.2 641.9C404.2 642.4 405 645.3 406.9 644.7Z" fill="#E8E8E8"/>
<path d="M409.6 652.9C412.8 649.2 416.9 646.8 421.7 645.8C423.6 645.4 422.8 642.5 420.9 642.9C415.6 643.9 410.9 646.6 407.4 650.7C406.3 652.2 408.4 654.3 409.6 652.9Z" fill="#E8E8E8"/>
<path d="M428 646.3C426.4 643.8 424.5 641 424.6 637.9C424.7 635.7 427.1 632.2 429.8 633.5C432 634.6 432.8 639.3 432.6 641.5C432.3 644.3 429.6 647.2 426.7 645.5C425 644.5 423.5 647.1 425.2 648.1C428.7 650.1 433 648.4 434.7 644.9C436.6 641.1 435.4 634.4 432.1 631.6C429.2 629.1 425 630.8 423 633.6C419.7 638.2 422.8 643.8 425.4 647.9C426.5 649.4 429.1 647.9 428 646.3Z" fill="#E8E8E8"/>
<path d="M443.3 624C442.7 630.3 442.1 636.6 441.5 642.8C441.3 644.7 444.3 644.7 444.5 642.8C445.1 636.5 445.7 630.2 446.3 624C446.5 622.1 443.5 622.1 443.3 624Z" fill="#E8E8E8"/>
<path d="M437.3 625.5C439.2 625.5 439.2 622.5 437.3 622.5C435.4 622.5 435.4 625.5 437.3 625.5Z" fill="#E8E8E8"/>
<path d="M453.3 638.6C455.2 638.6 455.2 635.6 453.3 635.6C451.4 635.6 451.4 638.6 453.3 638.6Z" fill="#E8E8E8"/>
<path d="M395.1 716.4C402.6 714.4 410 711.8 417 708.5C424.6 704.9 431.3 699.2 439.1 696.1C445.9 693.4 452.7 691.8 459 688C464.9 684.4 470.1 679.7 474.5 674.4C475.7 672.9 473.6 670.8 472.4 672.3C467.8 677.9 462.5 682.7 456.2 686.3C449.9 689.9 442.9 691.2 436.4 694.2C429.7 697.3 423.8 702 417.1 705.3C409.8 708.9 402.2 711.6 394.3 713.7C392.5 714 393.2 716.9 395.1 716.4Z" fill="#E8E8E8"/>
<path d="M1120.6 344.4C1114.9 349.8 1113.1 356.3 1112.3 359.2C1105.2 385.8 1105.1 401.2 1105.1 401.2C1104.9 433 1101 424.7 1099.4 469.8C1098.8 487.1 1098.7 508.4 1099.9 532.7C1096 538.5 1090.5 547.8 1086.3 560.1C1081.3 574.5 1077.9 584.2 1082.2 594C1087.7 606.7 1102.6 611.4 1106.3 612.6C1113.9 615 1117.1 613.7 1135.2 616.5C1141.4 617.5 1146.4 618.5 1149.8 619.2C1146.9 625.2 1142.6 634 1139.7 640C1133.3 653.2 1126.9 666.4 1120.5 679.6C1126.7 683.2 1135.6 688.3 1146.5 694.1C1169.7 706.5 1181.3 712.7 1194 717C1202.2 719.8 1220.8 725.4 1245 726.1C1261.5 726.6 1273.4 724.6 1292 721.5C1310.6 718.4 1325.8 714.6 1336.4 711.6C1338.4 701.2 1341 688 1344.4 672.9C1345.3 668.8 1349.7 649.7 1356.7 623.5C1361.3 606.5 1367.2 585.7 1374.8 561.8C1365.4 560.3 1356 558.7 1346.6 557.2C1353.5 545.4 1359.5 536 1363.6 529.5C1368.2 522.3 1377 508.8 1384.8 490.5C1387.9 483.2 1389.8 477.5 1387.7 471.5C1385 463.9 1377.3 460.4 1375.6 459.6C1368.8 456.5 1362.7 457.4 1354.1 458.4C1343.8 459.6 1333.3 459.8 1323 461.2C1311.7 462.7 1295.4 463.6 1274.1 460.3C1273 442.2 1272.8 427.4 1272.9 417C1273.1 396.1 1274.2 384.8 1266.9 379.4C1265.4 378.3 1264 377.7 1248.7 375.6C1239.3 374.3 1234.6 373.7 1226.1 372.8C1216.5 371.8 1203.1 370.4 1188.5 366.2C1168.8 360.6 1159 357.8 1149.9 349.3C1144.3 344 1140.7 338.2 1133.9 338C1127.7 337.7 1122.3 342.8 1120.6 344.4Z" fill="white"/>
<path opacity="0.2" d="M1186.9 637C1189.3 645.9 1194.5 660.3 1206.9 672.5C1226.2 691.6 1251.4 694.1 1279 696.8C1293.1 698.2 1314.2 699 1339.8 694.7C1341.9 684.6 1344.7 672.2 1348.1 658C1350.3 648.7 1354.9 630 1361.6 606.4C1365.3 593.4 1369.7 578.4 1375 561.7C1366.4 559.7 1357.8 557.7 1349.2 555.7C1340.4 570.7 1333.3 583 1328.4 591.5C1314.3 616.4 1307.3 629.5 1293.6 652.3C1288.5 660.8 1284.2 667.8 1281.4 672.3C1277.1 672.6 1271.1 672.8 1264 672.3C1258.9 671.9 1237.5 670 1213.6 656.7C1206.6 652.8 1196.9 646.6 1186.9 637Z" fill="#898989"/>
<path opacity="0.22" d="M1269.8 468C1275.2 472.2 1282.7 479 1289.5 489.2C1290.9 491.3 1298.9 503.6 1302.5 520.5C1307.9 545.8 1300.4 567.2 1294.7 583.1C1281 621 1257.5 647.7 1239.9 663.9C1243.3 666.4 1248.3 669.4 1254.7 671.4C1266.3 675.1 1276.4 673.7 1281.6 672.6C1307.1 629.9 1328.1 594.7 1345.9 565.7C1353.8 552.8 1366.9 531.6 1379.5 500.9C1383.9 490.3 1387 481.3 1389 475.3C1387.3 471 1383.6 463.4 1375.8 459.7C1370.2 457 1364.8 457.4 1362.2 457.6C1331 460.4 1315.4 461.8 1312.7 462.2C1301.3 463.8 1284.3 464.3 1262.2 458C1264.9 461.3 1267.3 464.6 1269.8 468Z" fill="#898989"/>
<path opacity="0.18" d="M1105.1 407.5C1110.2 425.5 1115.3 443.5 1120.4 461.6C1144.8 441.4 1169.2 421.1 1193.6 400.9C1178.1 416.4 1165.7 430.9 1156 443.2C1151.6 448.8 1137.3 467.3 1121.4 493.7C1112.3 508.8 1105.3 522.2 1100 532.9C1099.3 519.8 1098.9 506.1 1099.1 491.8C1099.4 461.1 1101.7 432.9 1105.1 407.5Z" fill="#898989"/>
<path d="M1128.1 486.8C1136.8 472.5 1146.2 458.6 1156.3 445.2C1166.4 431.8 1177 417.5 1189.2 406C1205 391.2 1220.3 410.3 1230 422.3C1239.6 434.2 1248.8 446.4 1258.7 458C1269.6 470.6 1281.4 482.4 1295.1 492C1296.7 493.1 1298.2 490.5 1296.6 489.4C1269 470.2 1250 442 1228.9 416.3C1220.9 406.5 1208.2 392.5 1194.1 398.8C1187.3 401.8 1182.3 408.8 1177.5 414.2C1171.5 421.1 1165.6 428.1 1160 435.3C1147.5 451.2 1136 467.9 1125.4 485.2C1124.5 486.9 1127.1 488.4 1128.1 486.8Z" fill="#1E0E62"/>
<path d="M1262 459.4C1283.6 464.5 1305.9 465.8 1327.8 463.1C1338.7 461.7 1349.6 458.4 1360.6 458.3C1371.1 458.2 1383.6 462.6 1387.1 473.7C1388.9 479.6 1386.4 484.8 1383.7 489.9C1381 495.1 1378.2 500.2 1375.4 505.3C1369.8 515.6 1364.2 525.8 1358.6 536.1C1347.3 556.6 1335.8 576.9 1324.1 597.1C1310.8 620.1 1297.2 643 1283.4 665.8C1282.4 667.5 1285 669 1286 667.3C1312.3 624 1337.7 580.2 1362.2 535.8C1368.2 525 1374.1 514.2 1379.9 503.3C1384.3 495.2 1392 485.4 1390.6 475.6C1389.5 467.5 1383 461.1 1375.8 457.9C1366.9 453.9 1356.8 455 1347.5 456.6C1333.4 459 1319.6 461.4 1305.2 461.4C1290.9 461.4 1276.6 459.7 1262.7 456.4C1261 456.1 1260.2 459 1262 459.4Z" fill="#1E0E62"/>
<path d="M1129.6 477.4C1115.7 499.5 1102.9 522.3 1091.5 545.8C1082.7 564 1069.8 589 1088.8 605.3C1106.2 620.2 1131.4 615.1 1151.9 621.4C1174.9 628.4 1193.6 644.2 1214 656.2C1235 668.6 1260.7 678.2 1284.8 669.3C1286.6 668.6 1285.8 665.7 1284 666.4C1239.3 682.7 1201.8 639.5 1164.6 623C1155.5 618.9 1146 616.3 1136.1 615.2C1124.5 613.8 1112.5 613.9 1101.6 609.5C1090.6 605.1 1082 596.4 1081.8 584C1081.6 571.7 1088.1 559.9 1093.3 549.1C1104.9 525 1117.9 501.6 1132.2 479C1133.2 477.3 1130.6 475.7 1129.6 477.4Z" fill="#1E0E62"/>
<path d="M1101.6 532.7C1100.1 502.8 1100.4 472.8 1102.5 443C1103.6 427.6 1105.2 412.2 1107.3 396.8C1109 384.1 1110.2 370.6 1114.2 358.4C1115.7 353.8 1117.9 348.9 1121.6 345.5C1127.5 340 1134.9 341.5 1141.4 345.1C1152.9 351.3 1164 357.6 1176.2 362.3C1188.8 367.2 1202 370.8 1215.3 373.1C1227.4 375.2 1239.4 375.4 1251.6 376.3C1257.8 376.7 1265.4 377.9 1269.1 383.5C1273.3 390 1271.5 401.7 1271.6 409.1C1271.8 426.3 1272 443.6 1272.2 460.8C1272.2 462.7 1275.2 462.7 1275.2 460.8C1275 444.2 1274.8 427.6 1274.6 411.1C1274.5 400.1 1277.6 383.5 1266.2 376.9C1256.4 371.2 1243 373.2 1232.2 372.3C1217.1 371 1202.1 367.9 1187.6 363.3C1173.1 358.6 1159.3 352.3 1146.2 344.6C1137.1 339.3 1126.7 335.5 1118.4 344.3C1110.8 352.3 1109.2 364.4 1107.4 374.8C1104.8 390.3 1102.7 405.9 1101.1 421.6C1097.4 458.5 1096.5 495.7 1098.3 532.7C1098.7 534.7 1101.7 534.7 1101.6 532.7Z" fill="#1E0E62"/>
<path d="M1147.9 621.5C1143 631 1138 640.4 1133.1 649.9C1130.6 654.6 1128.2 659.4 1125.7 664.1C1123.6 668.1 1120.7 672.2 1119.4 676.5C1118.8 678.6 1118.9 680.4 1120.6 681.9C1123.8 684.9 1129.1 686.6 1132.9 688.6C1142.1 693.4 1151.3 698.3 1160.5 703.1C1177.5 712 1195 720.4 1213.9 724.4C1232.9 728.4 1252.5 728.4 1271.8 726.2C1293.9 723.7 1315.6 718.4 1337.1 713.1C1339 712.6 1338.2 709.7 1336.3 710.2C1301.1 718.9 1264.6 727.8 1228.1 723.7C1191 719.5 1158.1 698.6 1125.7 681.4C1126 681.5 1123.2 680.3 1123 679.9C1121.9 678.4 1123.2 675.8 1123.8 674.4C1124.9 671.7 1126.6 669 1128 666.4C1130.5 661.7 1132.9 656.9 1135.4 652.2C1140.5 642.4 1145.6 632.7 1150.6 622.9C1151.4 621.3 1148.8 619.8 1147.9 621.5Z" fill="#1E0E62"/>
<path d="M1346.4 557.3C1356.3 557.5 1365.7 559.5 1374.8 563.3C1374.5 562.7 1374.1 562.1 1373.8 561.5C1358.2 610.5 1345.3 660.3 1335.2 710.6C1334.8 712.5 1337.7 713.3 1338.1 711.4C1348.2 661 1361.1 611.2 1376.7 562.3C1377 561.5 1376.4 560.8 1375.7 560.5C1366.4 556.6 1356.6 554.6 1346.5 554.4C1344.4 554.2 1344.4 557.2 1346.4 557.3Z" fill="#1E0E62"/>
<path d="M891.9 636.1C866.2 670.2 840.4 704.2 814.6 738.1C748.6 824.9 682.2 911.3 615.4 997.5C620 998.3 626.9 1000.2 634.3 1004.6C640.9 1008.5 645.6 1013.1 648.4 1016.4C744.5 892.1 840.6 767.7 936.8 643.4C921.8 640.9 906.9 638.5 891.9 636.1Z" fill="white" stroke="#1E0E62" stroke-width="3" stroke-miterlimit="10"/>
<path d="M570.7 937.999C566.9 940.199 568.8 950.199 569.5 954.099C573.6 975.599 580.4 1014.8 589.4 1067.1C601.5 1068.8 613.7 1070.6 625.8 1072.3C634.4 1056.6 643.1 1040.9 651.7 1025.1C650.6 1022.3 648.9 1018.1 646.4 1013.3C640.7 1002.7 634.7 996.199 628.1 988.999C607.5 966.699 602.4 960.699 590.2 949.999C577.9 939.099 573.3 936.499 570.7 937.999Z" fill="white" stroke="#1E0E62" stroke-width="3" stroke-miterlimit="10"/>
<path d="M574.5 947.9C588.5 963.2 593.8 985 600.6 1004C608.4 1025.6 616.1 1047.1 623.9 1068.7C624.5 1070.5 627.4 1069.7 626.8 1067.9C618.6 1045.1 610.4 1022.3 602.2 999.4C595.6 981 590.2 960.5 576.7 945.7C575.4 944.3 573.2 946.4 574.5 947.9Z" fill="#1E0E62"/>
<path d="M638.8 969.5C651.4 966.9 664.3 974.9 667.7 987.2C668.2 989.1 671.1 988.3 670.6 986.4C666.7 972.4 652.1 963.7 638 966.6C636.1 967 636.9 969.9 638.8 969.5Z" fill="#1E0E62"/>
<path d="M660.7 941.8C672.8 939.9 684.6 948.4 686.9 960.4C687.3 962.3 690.2 961.5 689.8 959.6C687.2 945.9 673.6 936.7 659.9 938.9C658 939.2 658.8 942.1 660.7 941.8Z" fill="#1E0E62"/>
<path d="M684.6 910.9C697.6 905.4 711.8 913.9 713.2 927.9C713.4 929.8 716.4 929.8 716.2 927.9C714.6 911.4 698.3 901.9 683.1 908.3C681.3 909.1 682.8 911.7 684.6 910.9Z" fill="#1E0E62"/>
<path d="M703.3 885.5C710.5 883.2 717.5 882.3 723.6 887.7C728.2 891.8 730.2 897.7 731.1 903.7C731.4 905.6 734.3 904.8 734 902.9C733 895.8 730.2 888.8 724.2 884.4C717.4 879.3 710.2 880.199 702.5 882.599C700.7 883.199 701.5 886.1 703.3 885.5Z" fill="#1E0E62"/>
<path d="M723.9 857.1C737.7 852.4 752.1 861.1 753.6 875.7C753.8 877.6 756.8 877.6 756.6 875.7C754.9 859.2 738.9 848.7 723.1 854.2C721.3 854.8 722.1 857.7 723.9 857.1Z" fill="#1E0E62"/>
<path d="M747.9 826.999C761.5 823.499 774.4 832.199 776.5 845.999C776.8 847.899 779.7 847.099 779.4 845.199C777.1 829.699 762.2 820.199 747.1 824.099C745.3 824.599 746.1 827.499 747.9 826.999Z" fill="#1E0E62"/>
<path d="M766.7 802.199C772.6 798.099 780.2 799.499 785.5 803.899C791 808.499 793.7 815.299 795.9 821.999C796.5 823.799 799.4 822.999 798.8 821.199C796.2 813.299 792.7 804.899 785.4 800.099C779.3 796.099 771.2 795.399 765.1 799.599C763.6 800.699 765.1 803.299 766.7 802.199Z" fill="#1E0E62"/>
<path d="M787.2 778.3C792.7 774.9 799.5 777.4 804.8 780.1C810.6 783.1 814.2 788.1 815.5 794.4C815.9 796.3 818.8 795.5 818.4 793.6C816.8 786 812 780.2 805 776.9C798.9 774 791.8 771.9 785.6 775.7C784.1 776.7 785.6 779.3 787.2 778.3Z" fill="#1E0E62"/>
<path d="M808.2 749.1C821.2 745 834.7 751 839.9 763.8C840.6 763.2 841.4 762.7 842.1 762.1C841.8 761.9 841.5 761.8 841.1 761.6C839.4 760.8 837.8 763.3 839.6 764.2C839.9 764.4 840.2 764.5 840.6 764.7C841.6 765.2 843.3 764.3 842.8 763C837.1 748.8 822.1 741.6 807.4 746.3C805.6 746.8 806.4 749.7 808.2 749.1Z" fill="#1E0E62"/>
<path d="M829.7 720.3C844.1 717.4 857.1 727.8 857.7 742.4C857.8 744.3 860.8 744.3 860.7 742.4C860 725.7 845.3 714.2 828.9 717.4C827 717.8 827.8 720.7 829.7 720.3Z" fill="#1E0E62"/>
<path d="M847.5 695.7C861.6 690.5 876.3 698.5 879.5 713.3C879.9 715.2 882.8 714.4 882.4 712.5C879 696.3 862.3 687.1 846.7 692.8C844.9 693.4 845.7 696.3 847.5 695.7Z" fill="#1E0E62"/>
<path d="M866.1 674.7C880 670 894 678 896.9 692.4C897.3 694.3 900.2 693.5 899.8 691.6C896.6 675.7 880.6 666.6 865.3 671.8C863.5 672.4 864.3 675.3 866.1 674.7Z" fill="#1E0E62"/>
<path d="M881.9 651C895 648.6 911.1 652.1 915 666.7C915.5 668.6 918.4 667.8 917.9 665.9C913.5 649.6 895.8 645.5 881.1 648.1C879.2 648.5 880 651.4 881.9 651Z" fill="#1E0E62"/>
<path opacity="0.29" d="M915.8 639.899C880.7 687.299 845.4 734.499 809.8 781.499C753.7 855.599 696.9 929.199 639.6 1002.3C624.3 979.199 608.5 964.899 597 955.999C595.6 954.999 575.9 939.899 573.4 942.499C571.5 944.499 580.2 955.699 587.4 964.499C597 988.499 606.3 1013.6 615.2 1039.6C618.9 1050.5 622.5 1061.4 625.9 1072.1C637.5 1049.3 649 1026.5 660.6 1003.8C680.5 977.699 710.5 938.399 730.5 912.299C799.2 822.499 867.9 732.799 936.8 643.199C929.7 642.199 922.8 641.099 915.8 639.899Z" fill="#828282"/>
<path d="M1016.2 664.199C990.5 698.299 964.7 732.299 938.9 766.199C872.9 852.999 806.5 939.399 739.7 1025.6C744.3 1026.4 751.2 1028.3 758.6 1032.7C765.2 1036.6 769.9 1041.2 772.7 1044.5C868.8 920.199 964.9 795.799 1061.1 671.499C1046 668.999 1031.1 666.599 1016.2 664.199Z" fill="white" stroke="#1E0E62" stroke-width="3" stroke-miterlimit="10"/>
<path d="M694.9 966.099C691.1 968.299 693 978.299 693.7 982.199C697.8 1003.7 704.6 1042.9 713.6 1095.2C725.7 1096.9 737.9 1098.7 750 1100.4C758.6 1084.7 767.3 1069 775.9 1053.2C774.8 1050.4 773.1 1046.2 770.6 1041.4C764.9 1030.8 758.9 1024.3 752.3 1017.1C731.7 994.799 726.6 988.799 714.4 978.099C702.1 967.099 697.5 964.599 694.9 966.099Z" fill="white" stroke="#1E0E62" stroke-width="3" stroke-miterlimit="10"/>
<path d="M698.8 975.899C712.8 991.199 718.1 1013 724.9 1032C732.7 1053.6 740.4 1075.1 748.2 1096.7C748.8 1098.5 751.7 1097.7 751.1 1095.9C742.9 1073.1 734.7 1050.3 726.5 1027.4C719.9 1009 714.5 988.499 701 973.699C699.6 972.399 697.5 974.499 698.8 975.899Z" fill="#1E0E62"/>
<path d="M763 997.599C775.6 994.999 788.5 1003 791.9 1015.3C792.4 1017.2 795.3 1016.4 794.8 1014.5C790.9 1000.5 776.3 991.799 762.2 994.699C760.3 995.099 761.1 997.899 763 997.599Z" fill="#1E0E62"/>
<path d="M784.9 969.799C797 967.899 808.8 976.399 811.1 988.399C811.5 990.299 814.4 989.499 814 987.599C811.4 973.899 797.8 964.699 784.1 966.899C782.2 967.199 783 970.099 784.9 969.799Z" fill="#1E0E62"/>
<path d="M808.8 938.999C821.8 933.499 836 941.999 837.4 955.999C837.6 957.899 840.6 957.899 840.4 955.999C838.8 939.499 822.5 929.999 807.3 936.399C805.5 937.199 807 939.799 808.8 938.999Z" fill="#1E0E62"/>
<path d="M827.6 913.599C834.8 911.299 841.8 910.399 847.9 915.799C852.5 919.899 854.5 925.799 855.4 931.799C855.7 933.699 858.6 932.899 858.3 930.999C857.3 923.899 854.5 916.899 848.5 912.499C841.7 907.399 834.5 908.299 826.8 910.699C824.9 911.299 825.7 914.199 827.6 913.599Z" fill="#1E0E62"/>
<path d="M848.1 885.099C861.9 880.399 876.3 889.099 877.8 903.699C878 905.599 881 905.599 880.8 903.699C879.1 887.199 863.1 876.699 847.3 882.199C845.5 882.899 846.3 885.799 848.1 885.099Z" fill="#1E0E62"/>
<path d="M872.2 855.099C885.8 851.599 898.7 860.299 900.8 874.099C901.1 875.999 904 875.199 903.7 873.299C901.4 857.799 886.5 848.299 871.4 852.199C869.5 852.699 870.3 855.599 872.2 855.099Z" fill="#1E0E62"/>
<path d="M890.9 830.299C896.8 826.199 904.4 827.599 909.7 831.999C915.2 836.599 917.9 843.399 920.1 850.099C920.7 851.899 923.6 851.099 923 849.299C920.4 841.399 916.9 832.999 909.6 828.199C903.5 824.199 895.4 823.499 889.3 827.699C887.8 828.799 889.3 831.399 890.9 830.299Z" fill="#1E0E62"/>
<path d="M911.4 806.4C916.9 803 923.7 805.5 929 808.2C934.8 811.2 938.4 816.2 939.7 822.5C940.1 824.4 943 823.6 942.6 821.7C941 814.1 936.2 808.3 929.2 805C923.1 802.1 916 800 909.8 803.8C908.3 804.8 909.8 807.4 911.4 806.4Z" fill="#1E0E62"/>
<path d="M932.4 777.199C945.4 773.099 958.9 779.099 964.1 791.899C964.8 791.299 965.6 790.799 966.3 790.199C966 789.999 965.7 789.899 965.3 789.699C963.6 788.899 962 791.399 963.8 792.299C964.1 792.499 964.4 792.599 964.8 792.799C965.8 793.299 967.5 792.399 967 791.099C961.3 776.899 946.3 769.699 931.6 774.399C929.8 774.899 930.6 777.799 932.4 777.199Z" fill="#1E0E62"/>
<path d="M954 748.3C968.4 745.4 981.4 755.8 982 770.4C982.1 772.3 985.1 772.3 985 770.4C984.3 753.7 969.6 742.2 953.2 745.4C951.3 745.8 952.1 748.7 954 748.3Z" fill="#1E0E62"/>
<path d="M971.7 723.699C985.8 718.499 1000.5 726.499 1003.7 741.299C1004.1 743.199 1007 742.399 1006.6 740.499C1003.2 724.299 986.5 715.099 970.9 720.799C969.1 721.499 969.9 724.399 971.7 723.699Z" fill="#1E0E62"/>
<path d="M990.4 702.699C1004.3 697.999 1018.3 705.999 1021.2 720.399C1021.6 722.299 1024.5 721.499 1024.1 719.599C1020.9 703.699 1004.9 694.599 989.6 699.799C987.8 700.499 988.5 703.399 990.4 702.699Z" fill="#1E0E62"/>
<path d="M1006.1 679.099C1019.2 676.699 1035.3 680.199 1039.2 694.799C1039.7 696.699 1042.6 695.899 1042.1 693.999C1037.7 677.699 1020 673.599 1005.3 676.199C1003.4 676.499 1004.2 679.399 1006.1 679.099Z" fill="#1E0E62"/>
<path opacity="0.29" d="M1040 667.999C1004.9 715.399 969.6 762.599 934 809.599C877.9 883.699 821.1 957.299 763.8 1030.4C748.5 1007.3 732.7 992.999 721.2 984.099C719.8 983.099 700.1 967.999 697.6 970.599C695.7 972.599 704.4 983.799 711.6 992.599C721.2 1016.6 730.5 1041.7 739.4 1067.7C743.1 1078.6 746.7 1089.5 750.1 1100.2C761.7 1077.4 773.2 1054.6 784.8 1031.9C804.7 1005.8 834.7 966.499 854.7 940.399C923.4 850.599 992.1 760.899 1061 671.299C1054 670.299 1047 669.099 1040 667.999Z" fill="#828282"/>
<path d="M848 388.899C839.7 399.699 829.8 414.199 820.8 432.499C817.9 438.399 808.7 457.499 801.7 484.099C797.7 499.199 793.8 518.999 792.6 542.599C803.9 544.299 815.2 545.899 826.5 547.599C829.4 526.299 834.8 500.499 844.7 472.299C852.6 449.799 861.7 430.499 870.5 414.499C863 405.999 855.5 397.499 848 388.899Z" fill="white" stroke="#1E0E62" stroke-width="3" stroke-miterlimit="10"/>
<path d="M795.5 530.399C804.9 523.599 818.2 524.899 825.9 533.599C827.2 534.999 829.3 532.899 828 531.499C819.4 521.899 804.4 520.199 794 527.799C792.5 528.899 794 531.499 795.5 530.399Z" fill="#1E0E62"/>
<path d="M797.3 508.899C807.2 497.799 825 501.599 829.2 515.999C829.7 517.799 832.6 517.099 832.1 515.199C827.2 498.699 806.7 493.899 795.2 506.799C793.9 508.199 796 510.299 797.3 508.899Z" fill="#1E0E62"/>
<path d="M801.9 488.399C811.8 476.699 830.2 480.599 834.2 495.499C834.7 497.399 837.6 496.599 837.1 494.699C832.6 477.699 811.2 472.699 799.8 486.199C798.5 487.699 800.6 489.899 801.9 488.399Z" fill="#1E0E62"/>
<path d="M807.6 469.999C812 464.599 819.3 462.799 825.8 465.199C832.4 467.599 836.9 473.499 839.8 479.599C840.6 481.299 843.2 479.799 842.4 478.099C839 470.799 833.3 464.099 825.3 461.899C818.1 459.899 810.2 461.999 805.5 467.899C804.3 469.299 806.4 471.499 807.6 469.999Z" fill="#1E0E62"/>
<path d="M815 448.499C821.5 444.299 828.5 443.499 834.9 448.599C839.6 452.399 843.9 457.399 845.7 463.199C846.3 464.999 849.2 464.199 848.6 462.399C846.3 455.199 840.5 448.199 834.1 444.299C827.4 440.199 819.9 441.799 813.6 445.899C811.9 446.999 813.4 449.599 815 448.499Z" fill="#1E0E62"/>
<path d="M824.5 429.199C831.3 426.599 838.1 425.199 844 430.599C847.9 434.199 852.1 439.599 853.2 444.899C854 444.399 854.9 443.899 855.7 443.399C855.4 443.199 855.1 442.899 854.8 442.699C853.3 441.499 851.2 443.599 852.7 444.799C853 444.999 853.3 445.299 853.6 445.499C854.8 446.399 856.4 445.599 856.1 443.999C854.7 437.599 849.4 430.599 844.2 426.799C837.7 421.999 830.7 423.599 823.7 426.199C821.9 426.999 822.7 429.899 824.5 429.199Z" fill="#1E0E62"/>
<path d="M836 408.199C850.6 403.699 859.5 419.899 860.3 432.099C860.4 433.999 863.4 433.999 863.3 432.099C862.3 417.999 851.8 400.199 835.2 405.299C833.4 405.799 834.2 408.699 836 408.199Z" fill="#1E0E62"/>
<path d="M1059.3 408.499C1059.3 408.499 1075.6 510.799 1076.2 514.999C1076.9 519.299 1068 672.499 1068 672.499L1118.4 625.099C1110.5 539.899 1102.6 454.599 1094.7 369.399C1083 382.499 1071.1 395.499 1059.3 408.499Z" fill="#8C30F5" stroke="#1E0E62" stroke-width="3" stroke-miterlimit="10"/>
<path d="M846.8 384.599L917.2 360.699L1094.8 369.399L1059.3 408.499L846.8 384.599Z" fill="white" stroke="#1E0E62" stroke-width="3" stroke-miterlimit="10"/>
<path d="M846.8 384.6L882.1 518.5C880.1 559.5 878.2 600.6 876.2 641.6C940.1 651.9 1004.1 662.2 1068 672.6C1071 621.5 1073.9 570.5 1076.9 519.4L1059.3 408.6L846.8 384.6Z" fill="white" stroke="#1E0E62" stroke-width="3" stroke-miterlimit="10"/>
<path d="M988.1 428.799C987.4 436.599 988.1 444.199 990.4 451.699C991 453.499 993.9 452.799 993.3 450.899C991.1 443.599 990.4 436.299 991.1 428.799C991.3 426.899 988.3 426.899 988.1 428.799Z" fill="#1E0E62"/>
<path d="M990.2 429.899C1003.1 430.499 1016 431.399 1028.9 432.699C1030.8 432.899 1030.8 429.899 1028.9 429.699C1016 428.399 1003.2 427.399 990.2 426.899C988.3 426.799 988.3 429.799 990.2 429.899Z" fill="#1E0E62"/>
<path d="M992.4 454C1004.5 455.6 1016.7 456.3 1028.9 456.1C1030.8 456.1 1030.8 453.1 1028.9 453.1C1016.7 453.3 1004.5 452.6 992.4 451C990.5 450.7 990.5 453.7 992.4 454Z" fill="#1E0E62"/>
<path d="M1027.7 433.1C1030.6 439.5 1030.9 446.4 1028.7 453.1C1028.1 454.9 1031 455.7 1031.6 453.9C1034 446.4 1033.5 438.8 1030.3 431.6C1029.5 429.8 1026.9 431.3 1027.7 433.1Z" fill="#1E0E62"/>
<path d="M1031.8 438.499C1033.9 438.399 1035.9 439.899 1036.5 441.999C1036.9 443.599 1035.6 446.899 1033.6 445.399C1032.1 444.199 1030.6 446.799 1032.1 447.999C1035.5 450.499 1039.6 446.699 1039.7 443.199C1039.8 438.999 1036 435.499 1031.9 435.599C1029.9 435.599 1029.8 438.599 1031.8 438.499Z" fill="#1E0E62"/>
<path d="M994.2 435.499C994 439.799 994.5 443.999 995.6 448.199C996.1 450.099 999 449.299 998.5 447.399C997.5 443.499 997.1 439.599 997.2 435.499C997.3 433.499 994.3 433.499 994.2 435.499Z" fill="#1E0E62"/>
<path d="M996.2 435.799C998.6 435.899 1001 436.099 1003.4 436.399C1003 435.899 1002.7 435.399 1002.3 434.999C1002 439.299 1002.1 443.599 1002.5 447.999C1002.7 449.899 1005.7 449.899 1005.5 447.999C1005 443.699 1005 439.399 1005.3 434.999C1005.3 434.399 1004.8 433.599 1004.2 433.599C1001.5 433.199 998.9 432.899 996.2 432.799C994.3 432.799 994.3 435.799 996.2 435.799Z" fill="#1E0E62"/>
<path d="M997.3 449.499C999.5 449.799 1001.7 449.799 1003.9 449.399C1005.8 448.999 1005 446.099 1003.1 446.499C1001.5 446.799 999.8 446.899 998.1 446.599C997.3 446.499 996.5 446.799 996.3 447.599C996.1 448.299 996.5 449.399 997.3 449.499Z" fill="#1E0E62"/>
<path d="M1007.4 434.799C1006.7 439.499 1006.9 444.199 1008 448.899C1008.5 450.799 1011.4 449.999 1010.9 448.099C1009.9 443.999 1009.6 439.799 1010.3 435.599C1010.6 433.699 1007.7 432.899 1007.4 434.799Z" fill="#1E0E62"/>
<path d="M1009.2 435.899C1011.2 436.399 1013.3 436.899 1015.3 437.399C1014.9 436.899 1014.6 436.399 1014.2 435.999C1014.5 439.999 1014.8 443.999 1015.2 447.899C1015.4 449.799 1018.4 449.799 1018.2 447.899C1017.9 443.899 1017.6 439.899 1017.2 435.999C1017.1 435.299 1016.8 434.699 1016.1 434.599C1014.1 434.099 1012 433.599 1010 433.099C1008.1 432.599 1007.3 435.499 1009.2 435.899Z" fill="#1E0E62"/>
<path d="M1009.9 449.699C1012.3 450.899 1015 450.799 1017.2 449.399C1018.9 448.399 1017.3 445.799 1015.7 446.799C1014.4 447.599 1012.8 447.699 1011.4 447.099C1009.7 446.299 1008.2 448.899 1009.9 449.699Z" fill="#1E0E62"/>
<path d="M1018.8 435.699C1018.5 439.399 1018.3 443.399 1019.2 446.999C1019.9 450.099 1023 449.899 1025.6 449.299C1027.5 448.799 1026.7 445.899 1024.8 446.399C1024 446.599 1023.3 446.699 1022.5 446.699C1022 446.899 1021.8 446.599 1022 445.799C1021.7 444.799 1021.7 443.499 1021.7 442.399C1021.6 440.199 1021.6 437.999 1021.8 435.699C1022 433.799 1019 433.799 1018.8 435.699Z" fill="#1E0E62"/>
<path d="M1020.6 436.599C1021.6 436.799 1022.8 436.899 1023.8 437.199C1023.8 437.199 1024.7 437.499 1024.5 437.299C1024.8 437.599 1024.5 439.299 1024.5 439.699C1024.5 442.399 1024.6 445.099 1024.6 447.699C1024.6 449.599 1027.6 449.599 1027.6 447.699C1027.6 445.799 1027.5 443.899 1027.5 441.999C1027.5 440.299 1027.7 438.299 1027.4 436.599C1026.9 433.899 1023.6 433.999 1021.4 433.599C1019.5 433.299 1018.7 436.199 1020.6 436.599Z" fill="#1E0E62"/>
<path d="M859.7 403.599C870.7 438.599 880.5 473.999 889.3 509.699C889.8 511.599 892.7 510.799 892.2 508.899C883.4 473.299 873.6 437.899 862.6 402.799C862 400.999 859.1 401.799 859.7 403.599Z" fill="#1E0E62"/>
<path d="M891.6 520.4C889.7 556.7 887.1 592.9 883.6 629.1C883.4 631 886.4 631 886.6 629.1C890 592.9 892.7 556.7 894.6 520.4C894.7 518.5 891.7 518.5 891.6 520.4Z" fill="#1E0E62"/>
<path d="M885.7 632.099C943.1 637.799 1000.1 646.899 1056.4 659.299C1058.3 659.699 1059.1 656.799 1057.2 656.399C1000.6 643.999 943.3 634.899 885.7 629.099C883.8 628.899 883.8 631.899 885.7 632.099Z" fill="#1E0E62"/>
<path d="M861.6 403.8C902.1 410.5 942.7 416 983.5 420.3C985.4 420.5 985.4 417.5 983.5 417.3C943 413 902.6 407.6 862.4 400.9C860.5 400.6 859.7 403.5 861.6 403.8Z" fill="#1E0E62"/>
<path d="M894.7 624.3C894.5 623.7 894.2 623 894 622.4C894 622.7 894 622.9 894 623.2C894.4 622.1 896.1 622.3 896.2 623.4C896.4 624.5 894.9 624.8 894.5 624C893.6 622.3 891 623.8 891.9 625.5C892.9 627.2 895.1 627.9 896.9 627.2C898.9 626.4 899.7 624.1 899 622.2C898.2 620.1 896.1 619.1 894 619.7C893 620 892.2 620.6 891.6 621.5C891.2 622 891 622.6 891.1 623.3C891.2 623.9 891.6 624.6 891.8 625.2C892.5 626.9 895.4 626.1 894.7 624.3Z" fill="#1E0E62"/>
<path d="M871.8 413.799C871.9 413.899 871.9 413.599 871.8 413.799C871.8 413.599 871.8 413.699 871.8 413.599C871.9 413.399 872 413.299 872.1 413.299C872.1 413.299 872.3 413.199 872.2 413.299C872.2 413.299 872.2 413.299 872.1 413.299C872.3 413.399 872.3 413.399 872.2 413.299C872.4 413.399 872.5 413.499 872.6 413.699C872.5 413.499 872.7 413.899 872.7 413.999C872.7 413.899 872.6 414.099 872.7 413.999C872.8 413.799 872.5 414.199 872.7 413.999C872.5 414.199 872.7 413.999 872.5 414.099C872.7 413.999 872.3 414.099 872.3 414.099C872.6 414.099 872.1 414.099 872.1 414.099C872.3 414.099 872 413.999 872 414.099C871.9 413.999 871.9 413.999 872 414.099C871.9 413.999 871.9 413.999 871.8 413.899C871.3 413.299 870.2 413.399 869.7 413.899C869.1 414.499 869.2 415.399 869.7 415.999C870.7 417.299 872.8 417.499 874.2 416.599C875.8 415.599 876.1 413.599 875.2 411.999C874.2 410.399 872.2 409.799 870.6 410.799C869 411.799 868.5 413.799 869.3 415.399C869.7 416.099 870.7 416.299 871.4 415.899C872 415.399 872.2 414.499 871.8 413.799Z" fill="#1E0E62"/>
<path d="M1055.1 476.899C1058.3 489.899 1061.2 502.899 1063.8 515.999C1064.2 517.899 1067.1 517.099 1066.7 515.199C1064.1 502.099 1061.2 489.099 1058 476.099C1057.6 474.199 1054.7 474.999 1055.1 476.899Z" fill="#1E0E62"/>
<path d="M1064.7 516.599C1064.3 531.299 1063.3 546.099 1061.7 560.699C1061.5 562.599 1064.5 562.599 1064.7 560.699C1066.2 545.999 1067.2 531.299 1067.7 516.599C1067.7 514.699 1064.7 514.699 1064.7 516.599Z" fill="#1E0E62"/>
<path d="M732 479.7C732.9 479.9 740.1 481.2 745.6 476.2C748.8 473.3 749.8 469.8 750.2 468.3C752.1 470.5 754.2 472.7 756.8 474.9C768.9 485.1 780.4 483.4 791.6 488.7C797.8 491.6 806.1 497.7 813.3 511.7C817.7 508.7 824.3 504.6 833 501.2C851 494.1 864.7 495 875.8 493.8C889.4 492.4 908.1 486.8 930.2 468.4C933.8 494.2 936.9 521.1 939.4 549.1C943.8 599.8 945.5 647.7 945.3 692.2C874.1 621.3 803 550.5 732 479.7Z" fill="white" stroke="#1E0E62" stroke-width="3" stroke-miterlimit="10"/>
<path d="M732 479.699C740.9 539.499 749.9 599.399 758.8 659.199C775.2 680.899 791.5 702.699 807.9 724.399C810.5 726.199 814.4 728.299 819.4 729.399C832.3 732.099 842.7 725.599 845.3 723.899C885.9 714.799 926.5 705.699 967.1 696.699C958.7 624.299 950.3 551.799 941.9 479.399C904.4 492.199 866.8 504.999 829.3 517.899C828.5 518.499 820.5 524.299 811 521.299C804.5 519.299 801.2 514.399 800.3 512.899C777.5 501.699 754.7 490.699 732 479.699Z" fill="#EC615B"/>
<path d="M797.5 521.9C801.4 586.4 806.6 650.9 813.1 715.2C813.3 717.1 816.3 717.1 816.1 715.2C809.6 650.9 804.4 586.4 800.5 521.9C800.4 520 797.4 519.9 797.5 521.9Z" fill="#1E0E62"/>
<path d="M826.2 553.1C828.9 595.4 830.6 637.8 831.4 680.2C831.4 682.1 834.4 682.1 834.4 680.2C833.6 637.8 831.9 595.4 829.2 553.1C829.1 551.2 826.1 551.2 826.2 553.1Z" fill="#1E0E62"/>
<path d="M858.3 535.9C858.7 540.4 859.1 544.8 859.5 549.3C859.7 551.6 859.6 554.3 860.5 556.5C862.9 562.2 870.1 558.8 874.4 557.6C889.3 553.5 904 549 917.7 541.8C919.4 540.9 917.9 538.3 916.2 539.2C905.7 544.7 894.5 548.6 883.1 552C880.5 552.8 877.9 553.5 875.3 554.2C873 554.8 869.9 556.4 867.5 556.3C860.6 556.1 861.7 540.5 861.3 535.8C861.1 534 858.1 534 858.3 535.9Z" fill="#1E0E62"/>
<path d="M861.2 535.8C870.1 533.1 879 530.4 887.8 527.7C896.6 525 905.8 521.2 915.1 520.8C914.6 520.3 914.1 519.8 913.6 519.3C913.5 527 914.4 534.6 916.3 542.1C916.8 544 919.7 543.2 919.2 541.3C917.3 534.1 916.5 526.8 916.6 519.3C916.6 518.5 915.9 517.8 915.1 517.8C906.1 518.2 897.4 521.7 888.9 524.2C879.4 527.1 869.9 530 860.4 532.9C858.6 533.5 859.3 536.4 861.2 535.8Z" fill="#1E0E62"/>
<path d="M739.5 562.5C739.4 563.9 739.2 566.2 739.8 573.5C739.9 575.2 740.3 579.1 741.2 586.9C742 593 742.3 596.1 743 599.7C743.9 604.4 744.8 608.199 745.5 610.799C743.1 613.399 743.2 617.2 745.2 619C746.8 620.5 749.5 620.799 751.2 619.599C752.2 618.899 752.8 617.6 753 613.2C753.4 604.8 751.4 603.7 752.4 598.5C753.1 594.8 754.3 593.8 754 590.5C753.9 589.9 753.8 588.7 752 584.5C748.9 577 747.9 577.099 747.6 574.299C747.3 571.299 748.4 570.899 748.1 566.099C748 563.299 747.5 561.299 747.4 560.799C746.7 557.899 744.7 552.1 742.8 552.2C740.5 552.4 739.6 561.6 739.5 562.5Z" fill="white"/>
<path d="M740.2 551.5C738 555.8 737.2 560.7 738.5 565.5C739.3 568.7 741.6 573 745.6 572.3C749 571.7 749.7 567.8 749.6 565C749.4 560.3 747.3 556 744.1 552.5C742.8 551.1 740.7 553.2 742 554.6C743.7 556.4 745 558.5 745.8 560.8C746.2 562.1 746.5 563.6 746.6 565C746.7 567.1 747.1 567.7 744.5 567.7C742.1 567.6 742.1 566.9 741.4 564.7C741.1 563.5 740.9 562.2 740.9 560.9C740.8 558.1 741.5 555.5 742.8 553C743.7 551.3 741.1 549.8 740.2 551.5Z" fill="#1E0E62"/>
<path d="M738.7 564.7C737.7 571.7 738.3 578.5 741.1 585C742.8 589 745.8 594.3 750.6 595.1C754.2 595.7 755.9 593.4 755.4 590.1C754.4 583 749.3 577.2 748.2 570C747.9 568.1 745 568.9 745.3 570.8C745.8 574 746.8 576.9 748.1 579.8C748.7 581.2 755 592.5 749.2 591.3C745.7 590.6 743 582 742.3 579.4C741 574.8 740.9 570.1 741.6 565.4C741.9 563.6 739 562.8 738.7 564.7Z" fill="#1E0E62"/>
<path d="M739.3 580.7C739.3 587.1 740.4 597.8 746 602C747.8 603.4 750.2 603.3 752 601.8C754.3 599.8 754.2 596.7 753.9 593.9C753.7 592 750.7 592 750.9 593.9C751 594.7 751.1 595.5 751.1 596.3C748.6 599.2 746.9 599.5 746.1 597.3C744.9 596.3 744.4 593.6 744 592.1C742.8 588.4 742.3 584.6 742.4 580.7C742.3 578.7 739.3 578.7 739.3 580.7Z" fill="#1E0E62"/>
<path d="M741.7 591.299C741 596.399 741.3 601.499 742.9 606.399C743.9 609.599 745.7 615.399 749.4 616.499C757.3 618.799 755 603.699 754.2 600.099C753.8 598.199 750.9 598.999 751.3 600.899C751.9 603.699 752.2 606.499 752.1 609.299C752.1 610.299 752 611.299 751.7 612.399C750.6 612.199 749.5 611.999 748.4 611.799C747.3 610.999 746.7 608.399 746.3 607.199C744.4 602.099 744 596.799 744.7 591.399C745 589.399 742 589.399 741.7 591.299Z" fill="#1E0E62"/>
<path d="M744.2 610.3C743.8 613.7 743.8 619.3 747.3 621.3C750.9 623.3 753.2 619.9 753.7 616.8C754 614.9 751.1 614.1 750.8 616C750.7 616.7 750.6 617.9 750.1 618.4C749 619.5 747.9 618 747.6 616.9C746.9 614.8 746.9 612.4 747.2 610.2C747.4 608.4 744.4 608.4 744.2 610.3Z" fill="#1E0E62"/>
<path d="M989.5 615.4C988.2 611.9 986.2 607.2 983.5 601.6C982.4 599.4 979.8 594.1 975.9 587.7C968.9 576.3 965.9 574.6 963.7 573.8C963.3 573.7 957.6 571.7 955.6 574C952.4 577.7 961.4 589.8 962.4 591.2C959.7 591.7 955.5 592.5 950.4 593.3C932.4 596.1 925.2 595.7 912.5 598C898.5 600.5 892.2 599.9 890.9 603.6C889.8 606.6 892.5 609.9 892.8 610.4C895.9 614.2 902.2 615.3 908.3 612.6C911.8 612.4 915.3 612.3 918.8 612.1C918.4 614.6 918.1 618.2 919.1 622.4C919.9 625.8 920.9 626.2 923.2 631.8C925.9 638.5 925.4 639.9 927.6 643C930.1 646.5 933.2 648.3 934.8 649.1C942.3 653.3 950.3 651.8 965.6 649.8C970.9 649.1 979.4 648 990.2 646.9C990 636.4 989.7 625.9 989.5 615.4Z" fill="white"/>
<path d="M1080.6 403.999C1076.3 413.399 1082.3 424.199 1086 431.999C1086.4 432.799 1091.7 458.399 1102.3 509.799C1105.5 525.099 1109.9 547.399 1114.7 575.099C1105.8 580.499 1096 585.699 1085.1 590.699C1049.3 606.899 1015.7 613.299 989.4 615.599C988.1 618.199 985.2 624.899 986.3 633.499C987.7 644.499 994.5 651.2 996.4 652.9C1007.1 649.8 1022.4 645.299 1040.7 639.699C1125 613.899 1143.2 604.599 1148.8 588.399C1151 581.899 1149.4 579.699 1144.6 554.699C1134.3 500.899 1136 480.899 1122.3 432.099C1114.8 405.399 1109.4 394.099 1100.5 392.399C1093.3 390.899 1084 396.499 1080.6 403.999Z" fill="white" stroke="#1E0E62" stroke-width="3" stroke-miterlimit="10"/>
<path d="M1005.6 614.1C1002.6 625.7 1005 637.9 1012.2 647.4C1013.4 648.9 1016 647.4 1014.8 645.9C1008 636.9 1005.7 625.8 1008.5 614.9C1009 613.1 1006.1 612.3 1005.6 614.1Z" fill="#1E0E62"/>
<path d="M990.9 614.999C987.7 606.599 983.9 598.499 979.4 590.699C975.7 584.299 971.5 577.799 965.5 573.199C962.4 570.899 957.3 567.399 954.7 572.199C951.8 577.699 958.3 587.4 961.2 591.9C962.2 593.5 964.8 592 963.8 590.4C962.6 588.5 953.4 573.099 959.8 573.099C961.9 573.099 964.9 576.499 966.4 577.799C968.6 579.899 970.5 582.199 972.2 584.699C978.9 594.199 983.9 604.999 988.1 615.799C988.7 617.599 991.6 616.799 990.9 614.999Z" fill="#1E0E62"/>
<path d="M961.1 591.299C948.7 591.699 936.3 592.799 923.9 594.599C917.8 595.499 911.8 596.599 905.7 597.799C901.1 598.799 894.7 599.199 890.7 601.899C888.6 603.399 887.2 605.999 888.2 608.599C889.6 611.799 894.5 612.499 897.5 613.099C909.2 615.299 921.8 614.299 933.6 614.499C935.5 614.499 935.5 611.499 933.6 611.499C924.6 611.399 915.6 611.399 906.6 610.999C903.8 610.899 901 610.699 898.2 610.199C897.1 609.999 894 609.799 893.1 608.899C887.4 603.199 901.9 601.599 904.4 601.099C923 597.099 941.9 594.899 960.8 594.299C963 594.199 963 591.199 961.1 591.299Z" fill="#1E0E62"/>
<path d="M916.4 614.299C914.8 619.199 917.4 623.999 921.7 626.499C928.1 630.099 936.7 628.199 943.6 627.699C945.5 627.499 945.5 624.499 943.6 624.699C939.2 624.999 934.7 625.699 930.3 625.499C924.7 625.299 917 622.199 919.2 615.099C919.9 613.199 917 612.399 916.4 614.299Z" fill="#1E0E62"/>
<path d="M919.5 626.199C920.9 638.099 933.9 638.699 943.2 637.399C945.1 637.099 944.3 634.199 942.4 634.499C935.3 635.499 923.6 635.799 922.5 626.199C922.3 624.299 919.3 624.299 919.5 626.199Z" fill="#1E0E62"/>
<path d="M923.9 635.699C924.5 646.299 934.3 652.099 944.1 652.799C951.6 653.399 959.2 651.999 966.5 651.099C974.4 650.199 982.4 649.299 990.3 648.299C992.2 648.099 992.2 645.099 990.3 645.299C978.6 646.699 966.9 648.2 955.2 649.4C944.7 650.5 927.8 649.699 926.9 635.599C926.7 633.799 923.7 633.799 923.9 635.699Z" fill="#1E0E62"/>
<path d="M1029.6 611.8C1028.6 622 1030.7 631.9 1035.7 640.9C1036.6 642.6 1039.2 641.1 1038.3 639.4C1033.6 630.8 1031.7 621.6 1032.6 611.8C1032.8 609.8 1029.8 609.9 1029.6 611.8Z" fill="#1E0E62"/>
<path d="M1054.2 602.399C1054.3 612.999 1056.7 623.199 1061.2 632.799C1062 634.499 1064.6 632.999 1063.8 631.299C1059.5 622.099 1057.4 612.499 1057.2 602.399C1057.1 600.399 1054.1 600.399 1054.2 602.399Z" fill="#1E0E62"/>
<path d="M1075 595.799C1078.5 605.199 1081.3 614.799 1083.4 624.599C1083.8 626.499 1086.7 625.699 1086.3 623.799C1084.2 613.999 1081.4 604.399 1077.9 594.999C1077.3 593.199 1074.4 593.999 1075 595.799Z" fill="#1E0E62"/>
<path d="M1098 585.7C1103.8 595.1 1107 605.6 1107.4 616.7C1107.5 618.6 1110.5 618.6 1110.4 616.7C1110 605.1 1106.7 594.1 1100.6 584.2C1099.5 582.6 1096.9 584.1 1098 585.7Z" fill="#1E0E62"/>
<path d="M1114.9 577.599C1120.7 577.499 1125.9 579.399 1130.6 582.699C1132.9 584.299 1135 586.199 1137 588.099C1138 589.099 1139 590.199 1140 591.299C1141.7 593.199 1141.5 592.599 1143.9 593.499C1142.1 592.799 1141.3 595.699 1143.1 596.399C1143.3 596.499 1143.4 596.499 1143.6 596.599C1144.1 596.799 1144.7 596.599 1145.1 596.199C1146.2 594.999 1146 594.099 1145.3 592.799C1143.2 589.199 1139.1 585.599 1135.9 582.899C1129.9 577.799 1122.8 574.399 1114.9 574.499C1112.9 574.599 1112.9 577.599 1114.9 577.599Z" fill="#1E0E62"/>
<path d="M1114.6 560.599C1120.5 553.799 1132.2 545.499 1141.8 548.699C1143.6 549.299 1144.4 546.399 1142.6 545.799C1132 542.199 1119.1 550.799 1112.5 558.399C1111.2 559.999 1113.3 562.099 1114.6 560.599Z" fill="#1E0E62"/>
<path d="M1110.7 540.4C1115.9 529.2 1128.9 528.5 1139.7 528.3C1141.6 528.3 1141.6 525.3 1139.7 525.3C1127.9 525.5 1113.8 526.8 1108.2 538.9C1107.3 540.7 1109.9 542.2 1110.7 540.4Z" fill="#1E0E62"/>
<path d="M1105.7 515.3C1109.5 504.3 1123.5 499.2 1134.1 499.1C1136 499.1 1136 496.1 1134.1 496.1C1122 496.2 1107 502.1 1102.8 514.5C1102.2 516.3 1105.1 517.1 1105.7 515.3Z" fill="#1E0E62"/>
<path d="M1100.6 488.699C1102.1 482.799 1107 478.999 1111.7 475.299C1117.4 470.799 1122.9 467.499 1130.3 467.399C1132.2 467.399 1132.2 464.399 1130.3 464.399C1122.7 464.499 1116.9 467.599 1110.9 472.099C1105.4 476.299 1099.6 480.799 1097.7 487.799C1097.2 489.699 1100.1 490.499 1100.6 488.699Z" fill="#1E0E62"/>
<path d="M1095.1 462.899C1101.1 452.199 1111.9 445.099 1124.2 444.099C1126.1 443.899 1126.1 440.899 1124.2 441.099C1110.9 442.199 1099.1 449.599 1092.5 461.299C1091.6 463.099 1094.2 464.599 1095.1 462.899Z" fill="#1E0E62"/>
<path d="M1091.1 437.699C1094.2 433.599 1098 430.299 1102.5 427.799C1104.6 426.599 1106.9 425.699 1109.2 424.999C1110.2 424.699 1111.2 424.399 1112.2 424.199C1112.9 423.999 1113.6 423.899 1114.3 423.899C1115.6 423.999 1116.5 423.399 1116.8 421.999C1115.4 423.299 1117.5 425.399 1118.9 424.099C1119 423.999 1119.1 423.899 1119.2 423.799C1119.6 423.399 1119.7 422.799 1119.6 422.299C1119.6 422.099 1119.5 421.999 1119.5 421.799C1119.4 421.299 1118.9 420.899 1118.5 420.799C1113.5 419.699 1107 422.199 1102.5 424.399C1096.9 427.099 1092.4 431.099 1088.6 435.999C1087.3 437.699 1089.9 439.199 1091.1 437.699Z" fill="#1E0E62"/>
<path opacity="0.28" d="M1100.8 392.3C1103.5 402 1107 415.5 1110.5 431.7C1116.6 460 1116 465.6 1123.4 518.6C1129.5 561.5 1131.9 572.2 1124 584C1120.5 589.3 1112.5 593.9 1096.9 603.1C1075.8 615.4 1060.8 624.2 1038.3 631.5C1026.3 635.4 1009.4 639.7 988.5 641.6C984.6 642.2 979.6 642.8 973.7 643.3C962.9 644.2 953.8 644.1 947 643.9C941.4 643.7 934.7 643.2 927 642.2C929.1 644.6 932.6 648 937.6 650.3C946.3 654.4 954.7 653.3 969.3 651.3C974.6 650.5 981.8 649.3 990.2 647.1C992.3 649.1 994.4 651.1 996.6 653C1009.9 649 1029.6 643.1 1053.8 635.8C1183.9 596.5 1083.7 625.3 1100.5 620.4C1107.1 618.5 1120.5 614.6 1134.8 605C1142.4 599.9 1147.2 595.1 1149.1 588.5C1150.6 583.2 1149.5 578.9 1148.2 573.1C1145.9 562.5 1145.1 551.7 1142.4 541.2C1138 523.9 1140.7 525.3 1134.4 487.6C1127.1 443.4 1125.6 454.5 1121.4 428.1C1120.8 424.4 1119.6 416.4 1114.5 407.8C1110.1 400.1 1104.7 395.2 1100.8 392.3Z" fill="#828282"/>
<path d="M947.4 345.3C949.1 350.2 951 355.3 953 360.5C956.3 369 959.8 377.1 963.4 384.7C967.7 383.9 972.9 382.6 978.5 380.4C982.9 378.6 986.6 376.7 989.7 374.8C987.4 362.1 985.1 349.5 982.8 336.8C971 339.6 959.2 342.4 947.4 345.3Z" fill="white" stroke="#1E0E62" stroke-width="2" stroke-miterlimit="10"/>
<path d="M959.4 375.4C970.9 379.5 982 373.8 989 364.7C990.2 363.2 988.1 361.1 986.9 362.6C980.5 370.9 970.8 376.4 960.2 372.6C958.3 371.8 957.6 374.7 959.4 375.4Z" fill="#1E0E62"/>
<path d="M954.2 364.599C965.9 366.299 980.7 367.299 987.2 355.099C988.1 353.399 985.5 351.899 984.6 353.599C978.8 364.499 965.4 363.199 955 361.699C953.1 361.399 952.3 364.299 954.2 364.599Z" fill="#1E0E62"/>
<path d="M949.1 353C961.2 356.5 974.2 354.1 984.2 346.5C985.7 345.3 984.2 342.7 982.7 343.9C973.2 351.1 961.3 353.4 949.9 350.1C948.1 349.6 947.3 352.5 949.1 353Z" fill="#1E0E62"/>
<path d="M1007.8 226.1H1057.6L1068.2 320L1019.2 345.3L1007.8 226.1Z" fill="#8C30F5" stroke="#1E0E62" stroke-width="3" stroke-miterlimit="10"/>
<path d="M839.6 244.8L855.9 345.3H1019.2L1007.8 226.1L839.6 244.8Z" fill="white" stroke="#1E0E62" stroke-width="3" stroke-miterlimit="10"/>
<path d="M846.8 252.3L861.5 339.4H1007.8L997.5 236L846.8 252.3Z" fill="white" stroke="#1E0E62" stroke-width="3" stroke-miterlimit="10"/>
<path d="M885.599 296.572C887.464 295.496 887.409 291.908 885.476 288.56C883.543 285.212 880.464 283.372 878.599 284.448C876.733 285.525 876.788 289.112 878.721 292.46C880.654 295.808 883.733 297.649 885.599 296.572Z" fill="#1E0E62" stroke="#1E0E62" stroke-width="3" stroke-miterlimit="10"/>
<path d="M954.292 291.743C956.158 290.666 956.103 287.079 954.17 283.731C952.237 280.383 949.158 278.542 947.292 279.619C945.427 280.696 945.482 284.283 947.415 287.631C949.348 290.979 952.427 292.82 954.292 291.743Z" fill="#1E0E62" stroke="#1E0E62" stroke-width="3" stroke-miterlimit="10"/>
<path d="M909.4 307.5C911.9 310.9 914.6 314.2 917.4 317.3C918.2 318.2 919.6 317.6 919.9 316.6C921.3 312.4 923 308.3 925 304.4C925.8 302.7 923.3 301.1 922.4 302.9C920.4 307.1 918.6 311.4 917 315.9C917.8 315.7 918.7 315.5 919.5 315.2C916.8 312.3 914.3 309.2 911.9 306C910.8 304.5 908.2 306 909.4 307.5Z" fill="#1E0E62"/>
</svg>
