<svg width="1790" height="1790" viewBox="0 0 1790 1790" fill="none" xmlns="http://www.w3.org/2000/svg">
<g clip-path="url(#clip0_104:2128)">
<path d="M482.832 1139.04C415.181 1139.04 360.142 1084 360.142 1016.35V398.017C360.142 330.365 415.181 275.326 482.832 275.326H1307.17C1374.82 275.326 1429.86 330.365 1429.86 398.017V1016.35C1429.86 1084 1374.82 1139.04 1307.17 1139.04H482.832V1139.04Z" fill="white" stroke="#1E0E62" stroke-width="2" stroke-miterlimit="10" stroke-linecap="round" stroke-linejoin="round"/>
<path d="M700.448 394.185H469.343C456.815 394.185 446.658 384.028 446.658 371.5V371.5C446.658 358.971 456.815 348.814 469.343 348.814H700.448C712.977 348.814 723.133 358.971 723.133 371.5V371.5C723.133 384.028 712.977 394.185 700.448 394.185Z" fill="#E8E8EF"/>
<path d="M1320.66 394.185C1308.13 394.185 1297.97 384.028 1297.97 371.5V371.5C1297.97 358.971 1308.13 348.814 1320.66 348.814C1333.19 348.814 1343.34 358.971 1343.34 371.5V371.5C1343.34 384.028 1333.19 394.185 1320.66 394.185Z" fill="#EC615B"/>
<path d="M1194.47 394.185H1194.47C1181.94 394.185 1171.79 384.028 1171.79 371.5V371.5C1171.79 358.971 1181.94 348.814 1194.47 348.814H1194.47C1207 348.814 1217.16 358.971 1217.16 371.5V371.5C1217.16 384.028 1207 394.185 1194.47 394.185Z" fill="#EC615B"/>
<path d="M1068.28 394.185H1068.28C1055.76 394.185 1045.6 384.028 1045.6 371.5V371.5C1045.6 358.971 1055.76 348.814 1068.28 348.814H1068.28C1080.81 348.814 1090.97 358.971 1090.97 371.5V371.5C1090.97 384.028 1080.81 394.185 1068.28 394.185Z" fill="#EC615B"/>
<path d="M619.423 1091.31H482.833" stroke="#1E0E62" stroke-width="2" stroke-miterlimit="10" stroke-linecap="round" stroke-linejoin="round"/>
<path d="M1382.13 469.718V1016.35C1382.13 1057.68 1348.5 1091.31 1307.17 1091.31H663.109" stroke="#1E0E62" stroke-width="2" stroke-miterlimit="10" stroke-linecap="round" stroke-linejoin="round"/>
<path d="M1307.17 1052.52H482.832C462.854 1052.52 446.658 1036.33 446.658 1016.35V469.716C446.658 449.738 462.854 433.542 482.832 433.542H1307.17C1327.15 433.542 1343.34 449.738 1343.34 469.716V1016.35C1343.34 1036.33 1327.15 1052.52 1307.17 1052.52Z" fill="#E8E8EF"/>
<path d="M1285.81 874.471H1225.35C1213.31 874.471 1203.55 864.711 1203.55 852.672V852.672C1203.55 840.633 1213.31 830.873 1225.35 830.873H1285.81C1297.85 830.873 1307.61 840.633 1307.61 852.672V852.672C1307.61 864.711 1297.85 874.471 1285.81 874.471Z" fill="white" stroke="#1E0E62" stroke-width="2" stroke-miterlimit="10" stroke-linecap="round" stroke-linejoin="round"/>
<path d="M1285.81 951.052H1142.51C1130.47 951.052 1120.71 941.292 1120.71 929.253C1120.71 917.214 1130.47 907.454 1142.51 907.454H1285.81C1297.85 907.454 1307.61 917.214 1307.61 929.253C1307.61 941.292 1297.85 951.052 1285.81 951.052Z" fill="white" stroke="#1E0E62" stroke-width="2" stroke-miterlimit="10" stroke-linecap="round" stroke-linejoin="round"/>
<path d="M1289.01 771.31H1188.37C1181.17 771.31 1175.34 765.478 1175.34 758.284V552.537C1175.34 545.343 1181.17 539.511 1188.37 539.511H1289.01C1296.21 539.511 1302.04 545.343 1302.04 552.537V758.284C1302.04 765.478 1296.21 771.31 1289.01 771.31Z" fill="white" stroke="#1E0E62" stroke-width="2" stroke-miterlimit="10" stroke-linecap="round" stroke-linejoin="round"/>
<path d="M1260.81 593.742H1216.58C1209.38 593.742 1203.55 587.91 1203.55 580.716V580.716C1203.55 573.521 1209.38 567.689 1216.58 567.689H1260.81C1268 567.689 1273.83 573.521 1273.83 580.716V580.716C1273.83 587.91 1268 593.742 1260.81 593.742Z" fill="#E8E8EF"/>
<path d="M1260.81 644.785H1216.58C1209.38 644.785 1203.55 638.953 1203.55 631.759C1203.55 624.564 1209.38 618.732 1216.58 618.732H1260.81C1268 618.732 1273.83 624.564 1273.83 631.759C1273.83 638.953 1268 644.785 1260.81 644.785Z" fill="#E8E8EF"/>
<path d="M1238.69 744.853C1258.1 744.853 1273.83 729.12 1273.83 709.712C1273.83 690.304 1258.1 674.571 1238.69 674.571C1219.28 674.571 1203.55 690.304 1203.55 709.712C1203.55 729.12 1219.28 744.853 1238.69 744.853Z" fill="#EC615B"/>
<path d="M1090.51 555.425L1313.76 332.177H1516.19C1522.78 332.177 1528.13 326.834 1528.13 320.244C1528.13 313.653 1522.78 308.311 1516.19 308.311L1308.82 308.311C1305.67 308.311 1302.6 309.584 1300.38 311.806L1073.63 538.549C1068.97 543.21 1068.97 550.765 1073.63 555.426C1078.3 560.086 1085.85 560.086 1090.51 555.426L1090.51 555.425Z" fill="white" stroke="#1E0E62" stroke-width="2" stroke-miterlimit="10" stroke-linecap="round" stroke-linejoin="round"/>
<path d="M1634.67 404.605C1681.26 404.605 1719.03 366.835 1719.03 320.244C1719.03 273.653 1681.26 235.884 1634.67 235.884C1588.08 235.884 1550.31 273.653 1550.31 320.244C1550.31 366.835 1588.08 404.605 1634.67 404.605Z" fill="#E8E8EF"/>
<path d="M1634.67 362.565C1658.04 362.565 1676.99 343.617 1676.99 320.244C1676.99 296.87 1658.04 277.922 1634.67 277.922C1611.29 277.922 1592.35 296.87 1592.35 320.244C1592.35 343.617 1611.29 362.565 1634.67 362.565Z" fill="white" stroke="#1E0E62" stroke-width="2" stroke-miterlimit="10" stroke-linecap="round" stroke-linejoin="round"/>
<path d="M699.489 555.425L476.242 332.177H273.808C267.218 332.177 261.875 326.834 261.875 320.244C261.875 313.653 267.218 308.311 273.808 308.311L481.185 308.311C484.327 308.311 487.401 309.584 489.623 311.806L716.365 538.549C721.025 543.21 721.025 550.765 716.365 555.426C711.705 560.086 704.149 560.086 699.489 555.426L699.489 555.425Z" fill="white" stroke="#1E0E62" stroke-width="2" stroke-miterlimit="10" stroke-linecap="round" stroke-linejoin="round"/>
<path d="M155.332 404.605C201.923 404.605 239.692 366.835 239.692 320.244C239.692 273.653 201.923 235.884 155.332 235.884C108.741 235.884 70.9712 273.653 70.9712 320.244C70.9712 366.835 108.741 404.605 155.332 404.605Z" fill="#E8E8EF"/>
<path d="M199.322 331.607L166.695 364.234C160.419 370.51 150.244 370.51 143.969 364.234L111.342 331.607C105.066 325.331 105.066 315.156 111.342 308.881L143.969 276.254C150.244 269.978 160.419 269.978 166.695 276.254L199.322 308.881C205.598 315.156 205.598 325.331 199.322 331.607Z" fill="white" stroke="#1E0E62" stroke-width="2" stroke-miterlimit="10" stroke-linecap="round" stroke-linejoin="round"/>
<path d="M882.758 485.689L822.346 259.028L647.033 157.812C641.326 154.516 639.37 147.218 642.666 141.51C645.961 135.803 653.259 133.847 658.967 137.142L838.56 240.831C841.282 242.402 843.307 245.041 844.12 248.077L905.812 479.512C907.517 485.878 903.74 492.422 897.373 494.127C891.007 495.833 884.464 492.055 882.758 485.689Z" fill="white" stroke="#1E0E62" stroke-width="2" stroke-miterlimit="10" stroke-linecap="round" stroke-linejoin="round"/>
<path d="M508.216 161.297C548.565 184.592 600.159 170.768 623.455 130.419C646.75 90.0697 632.926 38.4757 592.577 15.1802C552.228 -8.11528 500.634 5.7093 477.338 46.0583C454.043 86.4072 467.867 138.001 508.216 161.297Z" fill="#E8E8EF"/>
<path d="M582.812 120.074L538.242 132.016C529.669 134.313 520.858 129.226 518.561 120.653L506.618 76.0837C504.321 67.511 509.409 58.6994 517.981 56.4023L562.551 44.4599C571.124 42.1629 579.935 47.2503 582.232 55.823L594.175 100.393C596.472 108.965 591.384 117.777 582.812 120.074Z" fill="white" stroke="#1E0E62" stroke-width="2" stroke-miterlimit="10" stroke-linecap="round" stroke-linejoin="round"/>
<path d="M991.495 506.016L1127.58 386.367L1127.58 202.933C1127.58 196.343 1132.93 191 1139.52 191C1146.11 191 1151.45 196.343 1151.45 202.933L1151.45 391.31C1151.45 394.452 1150.18 397.526 1147.95 399.748L1008.37 522.892C1003.71 527.552 996.155 527.552 991.495 522.892C986.835 518.232 986.835 510.676 991.495 506.016Z" fill="white" stroke="#1E0E62" stroke-width="2" stroke-miterlimit="10" stroke-linecap="round" stroke-linejoin="round"/>
<path d="M1060.54 74.2674C1053.06 120.255 1084.28 163.595 1130.27 171.07C1176.25 178.546 1219.59 147.326 1227.07 101.339C1234.55 55.3514 1203.33 12.0112 1157.34 4.53565C1111.35 -2.93988 1068.01 28.2801 1060.54 74.2674Z" fill="#E8E8EF"/>
<path d="M1125.91 131.888L1098.94 94.4483C1093.75 87.2471 1095.38 77.2041 1102.58 72.0166L1140.02 45.0472C1147.22 39.8598 1157.27 41.4923 1162.46 48.6936L1189.42 86.1331C1194.61 93.3344 1192.98 103.377 1185.78 108.565L1148.34 135.534C1141.14 140.722 1131.09 139.089 1125.91 131.888Z" fill="white" stroke="#1E0E62" stroke-width="2" stroke-miterlimit="10" stroke-linecap="round" stroke-linejoin="round"/>
<path d="M699.489 916.521L476.242 1139.77H273.808C267.218 1139.77 261.875 1145.11 261.875 1151.7C261.875 1158.29 267.218 1163.64 273.808 1163.64H481.185C484.327 1163.64 487.401 1162.36 489.623 1160.14L716.365 933.397C721.025 928.737 721.025 921.181 716.365 916.521C711.705 911.86 704.149 911.86 699.489 916.521L699.489 916.521Z" fill="white" stroke="#1E0E62" stroke-width="2" stroke-miterlimit="10" stroke-linecap="round" stroke-linejoin="round"/>
<path d="M155.332 1236.06C201.923 1236.06 239.692 1198.29 239.692 1151.7C239.692 1105.11 201.923 1067.34 155.332 1067.34C108.741 1067.34 70.9712 1105.11 70.9712 1151.7C70.9712 1198.29 108.741 1236.06 155.332 1236.06Z" fill="#E8E8EF"/>
<path d="M116.191 1138.06V1165.34C116.191 1170.88 119.149 1176.01 123.95 1178.78L147.572 1192.42C152.374 1195.19 158.289 1195.19 163.091 1192.42L186.713 1178.78C191.515 1176.01 194.472 1170.88 194.472 1165.34V1138.06C194.472 1132.52 191.515 1127.4 186.713 1124.62L163.091 1110.99C158.289 1108.21 152.374 1108.21 147.572 1110.99L123.95 1124.62C119.149 1127.4 116.191 1132.52 116.191 1138.06Z" fill="white" stroke="#1E0E62" stroke-width="2" stroke-miterlimit="10" stroke-linecap="round" stroke-linejoin="round"/>
<path d="M1134.2 664.534L1138.72 686.796M848.531 980.225C847.636 980.054 846.742 979.878 845.851 979.697L823.588 975.178L848.531 980.225ZM1142.26 709.856C1143.16 718.488 1143.62 727.211 1143.62 735.959C1143.62 752.575 1141.97 769.121 1138.72 785.142L1134.21 807.43L1084.73 810.814C1083.89 812.958 1083 815.086 1082.08 817.201L1114.69 854.617L1102.08 873.573C1083.66 901.262 1060.29 924.639 1032.6 943.055L1013.63 955.667L976.24 923.051C974.128 923.969 972.001 924.852 969.857 925.7L966.443 975.178L944.181 979.697C928.187 982.945 911.644 984.591 895.015 984.591C885.094 984.591 875.204 984.006 865.444 982.843L1142.26 709.856Z" stroke="#1E0E62" stroke-width="2" stroke-miterlimit="10" stroke-linecap="round" stroke-linejoin="round"/>
<path d="M1109.49 779.218C1112.32 765.226 1113.78 750.757 1113.78 735.959C1113.78 721.162 1112.32 706.693 1109.49 692.731L1062.83 689.509C1058.98 675.636 1053.46 662.42 1046.51 650.159L1077.24 614.896C1061.13 590.671 1040.3 569.847 1016.08 553.737L980.816 584.466C968.554 577.514 955.338 571.995 941.466 568.147L938.243 521.487C924.282 518.653 909.812 517.191 895.015 517.191C880.218 517.191 865.749 518.653 851.786 521.487L848.564 568.147C834.662 571.995 821.476 577.514 809.214 584.466L773.951 553.737C749.727 569.817 728.903 590.641 712.763 614.896L743.521 650.159C736.54 662.42 731.021 675.636 727.203 689.509L680.513 692.731C677.679 706.693 676.217 721.162 676.217 735.959C676.217 750.757 677.679 765.226 680.513 779.218L727.203 782.41C731.021 796.312 736.54 809.498 743.521 821.79L712.763 857.053C728.873 881.277 749.697 902.101 773.921 918.211L809.214 887.453C821.476 894.434 834.662 899.953 848.564 903.772L851.786 950.461C865.749 953.295 880.218 954.757 895.015 954.757C909.812 954.757 924.282 953.295 938.243 950.461L941.466 903.772C955.338 899.953 968.554 894.434 980.816 887.453L1016.08 918.211C1040.3 902.101 1061.13 881.277 1077.24 857.053L1046.51 821.79C1053.46 809.498 1058.98 796.312 1062.83 782.41L1109.49 779.218ZM895.015 794.194C862.855 794.194 836.78 768.12 836.78 735.959C836.78 703.829 862.855 677.754 895.015 677.754C927.175 677.754 953.22 703.829 953.22 735.959C953.22 768.12 927.175 794.194 895.015 794.194Z" fill="#8C30F5"/>
<path d="M895 760.779C908.699 760.779 919.804 749.673 919.804 735.974C919.804 722.275 908.699 711.17 895 711.17C881.301 711.17 870.195 722.275 870.195 735.974C870.195 749.673 881.301 760.779 895 760.779Z" fill="white" stroke="#1E0E62" stroke-width="2" stroke-miterlimit="10" stroke-linecap="round" stroke-linejoin="round"/>
<path d="M156.36 949.721C202.951 949.721 240.721 911.951 240.721 865.36C240.721 818.769 202.951 781 156.36 781C109.769 781 72 818.769 72 865.36C72 911.951 109.769 949.721 156.36 949.721Z" fill="#EC615B"/>
<path d="M179.431 904.501H133.29C124.414 904.501 117.22 897.306 117.22 888.431V842.289C117.22 833.414 124.414 826.22 133.29 826.22H179.431C188.306 826.22 195.501 833.414 195.501 842.289V888.431C195.501 897.306 188.306 904.501 179.431 904.501Z" fill="white" stroke="#1E0E62" stroke-width="2" stroke-miterlimit="10" stroke-linecap="round" stroke-linejoin="round"/>
<path d="M606.832 877.294H274.837C268.247 877.294 262.904 871.952 262.904 865.361C262.904 858.77 268.247 853.428 274.837 853.428H606.832C613.422 853.428 618.765 858.77 618.765 865.361C618.765 871.952 613.422 877.294 606.832 877.294Z" fill="white" stroke="#1E0E62" stroke-width="2" stroke-miterlimit="10" stroke-linecap="round" stroke-linejoin="round"/>
<path d="M156.36 696.721C202.951 696.721 240.721 658.951 240.721 612.36C240.721 565.769 202.951 528 156.36 528C109.769 528 72 565.769 72 612.36C72 658.951 109.769 696.721 156.36 696.721Z" fill="#EC615B"/>
<path d="M179.431 651.501H133.29C124.414 651.501 117.22 644.306 117.22 635.431V589.289C117.22 580.414 124.414 573.22 133.29 573.22H179.431C188.306 573.22 195.501 580.414 195.501 589.289V635.431C195.501 644.306 188.306 651.501 179.431 651.501Z" fill="white" stroke="#1E0E62" stroke-width="2" stroke-miterlimit="10" stroke-linecap="round" stroke-linejoin="round"/>
<path d="M606.832 624.294H274.837C268.247 624.294 262.904 618.952 262.904 612.361C262.904 605.77 268.247 600.428 274.837 600.428H606.832C613.422 600.428 618.765 605.77 618.765 612.361C618.765 618.952 613.422 624.294 606.832 624.294Z" fill="white" stroke="#1E0E62" stroke-width="2" stroke-miterlimit="10" stroke-linecap="round" stroke-linejoin="round"/>
<circle cx="157" cy="613" r="85" fill="#FF9900"/>
<path d="M157.558 575.812C147.091 575.812 135.465 579.729 133.018 592.531C132.755 593.894 133.708 594.595 134.608 594.794L145.238 595.878C146.238 595.826 147.035 594.894 147.227 593.91C148.143 589.499 151.876 587.319 156.068 587.319C158.331 587.319 160.889 588.168 162.228 590.172C163.774 592.411 163.519 595.447 163.519 598.041V599.516C157.14 600.225 148.82 600.659 142.856 603.253C135.963 606.201 131.134 612.214 131.134 621.055C131.134 632.367 138.365 638.068 147.625 638.068C155.446 638.068 159.67 636.192 165.706 630.104C167.702 632.964 168.411 634.375 172.065 637.383C172.886 637.817 173.922 637.734 174.647 637.088V637.188C176.842 635.251 180.847 631.777 183.09 629.908C183.982 629.183 183.791 628.048 183.09 627.056C181.078 624.306 179.018 622.027 179.018 616.923V600.006C179.018 592.818 179.5 586.168 174.149 581.219C169.926 577.211 162.905 575.812 157.558 575.812ZM160.538 608.269C161.53 608.205 162.523 608.269 163.519 608.269V610.628C163.519 614.871 163.69 618.362 161.53 622.135C159.781 625.199 156.968 627.052 153.88 627.052C149.661 627.052 147.223 623.896 147.223 619.182C147.223 611.074 153.598 608.719 160.538 608.269ZM190.935 633.646C188.15 633.686 184.887 634.271 182.393 636.004C181.628 636.538 181.739 637.283 182.592 637.184C185.401 636.849 191.609 636.064 192.724 637.479C193.84 638.893 191.489 644.71 190.441 647.312C190.122 648.097 190.816 648.4 191.533 647.802C196.206 643.929 197.458 635.897 196.501 634.721C196.027 634.148 193.724 633.606 190.935 633.646ZM117.718 635.12C117.137 635.196 116.905 635.949 117.519 636.499C127.91 645.786 141.613 651.348 156.861 651.348C167.738 651.348 180.436 647.977 189.15 641.61C190.589 640.555 189.333 638.925 187.859 639.547C178.09 643.65 167.415 645.643 157.757 645.643C143.437 645.643 129.624 641.774 118.416 635.315C118.169 635.176 117.91 635.096 117.718 635.12Z" fill="white"/>
<path d="M943.659 1432.82C932.994 1432.82 923.354 1437.15 916.381 1444.13C909.385 1451.1 905.078 1460.76 905.078 1471.4C905.078 1460.76 900.771 1451.1 893.775 1444.13C886.802 1437.15 877.163 1432.82 866.498 1432.82C877.163 1432.82 886.802 1428.49 893.775 1421.52C900.771 1414.55 905.078 1404.88 905.078 1394.24C905.078 1404.88 909.385 1414.55 916.381 1421.52C923.354 1428.49 932.994 1432.82 943.659 1432.82Z" fill="#EC615B"/>
<path d="M1646.13 610.255C1635.46 610.255 1625.83 614.585 1618.85 621.558C1611.86 628.531 1607.55 638.193 1607.55 648.835C1607.55 638.193 1603.24 628.531 1596.25 621.558C1589.27 614.585 1579.63 610.255 1568.97 610.255C1579.63 610.255 1589.27 605.925 1596.25 598.952C1603.24 591.979 1607.55 582.317 1607.55 571.675C1607.55 582.317 1611.86 591.979 1618.85 598.952C1625.83 605.925 1635.46 610.255 1646.13 610.255Z" fill="#E8E8EF"/>
<path d="M247.834 1324.94C242.163 1324.94 237.037 1327.24 233.328 1330.95C229.608 1334.66 227.318 1339.8 227.318 1345.45C227.318 1339.8 225.027 1334.66 221.307 1330.95C217.599 1327.24 212.473 1324.94 206.801 1324.94C212.473 1324.94 217.599 1322.64 221.307 1318.93C225.027 1315.22 227.318 1310.08 227.318 1304.42C227.318 1310.08 229.608 1315.22 233.328 1318.93C237.037 1322.64 242.163 1324.94 247.834 1324.94Z" fill="#EC615B"/>
<path d="M308.344 464.172C300.003 464.172 292.465 467.558 287.011 473.011C281.54 478.465 278.172 486.021 278.172 494.344C278.172 486.021 274.804 478.465 269.332 473.011C263.879 467.558 256.341 464.172 248 464.172C256.341 464.172 263.879 460.786 269.332 455.332C274.804 449.879 278.172 442.323 278.172 434C278.172 442.323 281.54 449.879 287.011 455.332C292.465 460.786 300.003 464.172 308.344 464.172Z" fill="#E8E8EF"/>
<path d="M812.441 1288.45C807.109 1288.45 802.289 1290.61 798.802 1294.1C795.304 1297.58 793.151 1302.42 793.151 1307.74C793.151 1302.42 790.998 1297.58 787.5 1294.1C784.013 1290.61 779.193 1288.45 773.861 1288.45C779.193 1288.45 784.013 1286.28 787.5 1282.79C790.998 1279.31 793.151 1274.48 793.151 1269.16C793.151 1274.48 795.304 1279.31 798.802 1282.79C802.289 1286.28 807.109 1288.45 812.441 1288.45Z" fill="#E8E8EF"/>
<path d="M72.0238 1000.01C67.874 1000.01 64.1232 1001.7 61.4099 1004.41C58.6877 1007.12 57.0119 1010.88 57.0119 1015.02C57.0119 1010.88 55.336 1007.12 52.6139 1004.41C49.9005 1001.7 46.1498 1000.01 42 1000.01C46.1498 1000.01 49.9005 998.327 52.6139 995.614C55.336 992.901 57.0119 989.141 57.0119 985C57.0119 989.141 58.6877 992.901 61.4099 995.614C64.1232 998.327 67.874 1000.01 72.0238 1000.01Z" fill="#EC615B"/>
<path d="M234.024 116.012C229.874 116.012 226.123 117.697 223.41 120.41C220.688 123.123 219.012 126.883 219.012 131.024C219.012 126.883 217.336 123.123 214.614 120.41C211.901 117.697 208.15 116.012 204 116.012C208.15 116.012 211.901 114.327 214.614 111.614C217.336 108.901 219.012 105.141 219.012 101C219.012 105.141 220.688 108.901 223.41 111.614C226.123 114.327 229.874 116.012 234.024 116.012Z" fill="#EC615B"/>
<path d="M1069.87 1298.43C1076.26 1298.43 1081.45 1293.24 1081.45 1286.85C1081.45 1280.46 1076.26 1275.28 1069.87 1275.28C1063.48 1275.28 1058.29 1280.46 1058.29 1286.85C1058.29 1293.24 1063.48 1298.43 1069.87 1298.43Z" fill="#E8E8EF"/>
<path d="M1647.52 871.511C1652.74 871.511 1656.97 867.283 1656.97 862.066C1656.97 856.85 1652.74 852.621 1647.52 852.621C1642.31 852.621 1638.08 856.85 1638.08 862.066C1638.08 867.283 1642.31 871.511 1647.52 871.511Z" fill="#EC615B"/>
<path d="M1580.55 934.701C1623.63 936.537 1705.94 1078.01 1742.28 1144.45C1753.08 1164.2 1749.23 1188.74 1732.94 1204.26L1732.94 1204.26C1711.69 1224.5 1677.64 1222.04 1659.53 1198.95L1542.51 1049.79C1542.51 1049.79 1493.92 931.011 1580.55 934.701Z" fill="#EC615B"/>
<path d="M1339.25 932.571C1285.32 948.99 1214.16 1224.32 1214.16 1224.32C1200.92 1298.43 1285.46 1307.97 1306.99 1258.33L1404.88 1034.48C1404.88 1034.48 1422.2 907.319 1339.25 932.571Z" fill="#EC615B"/>
<path d="M1214.16 1224.32L1217.94 1405.4H1298.17L1306.99 1258.33C1319.49 1179.66 1229.26 1170.26 1214.16 1224.32Z" fill="#EC615B"/>
<path d="M1334.2 1341.29L1126.19 1437.43C1104.33 1447.54 1090.33 1469.42 1090.33 1493.5V1493.5C1090.33 1533.17 1127.19 1562.55 1165.86 1553.72L1468.89 1484.49V1329.95H1332.78L1334.2 1341.29Z" fill="#E8E8EF"/>
<path d="M1440.54 1329.95V1379.48C1440.54 1388.43 1444.86 1396.84 1452.15 1402.04L1468.89 1414V1469.96" stroke="#1E0E62" stroke-width="2" stroke-miterlimit="10" stroke-linecap="round" stroke-linejoin="round"/>
<path d="M1188.87 1442.62L1371.06 1359.72V1334.91" stroke="#1E0E62" stroke-width="2" stroke-miterlimit="10" stroke-linecap="round" stroke-linejoin="round"/>
<path d="M1580.55 934.701C1580.55 934.701 1515.71 915.796 1350.15 930.045C1350.15 930.045 1320.02 977.285 1312.58 1083.62C1304.25 1202.57 1298.17 1353.35 1298.17 1353.35H1614.36C1614.36 1353.35 1631.44 1167.43 1580.55 934.701Z" fill="#EC615B"/>
<path d="M1344.29 941.273C1335.14 960.91 1317.95 1006.87 1312.58 1083.62C1310.22 1117.32 1308.04 1153.58 1306.13 1188.23" stroke="#1E0E62" stroke-width="2" stroke-miterlimit="10" stroke-linecap="round" stroke-linejoin="round"/>
<path d="M1607.55 1100.58C1602.21 1051.7 1594.09 997.926 1581.97 941.273" stroke="#1E0E62" stroke-width="2" stroke-miterlimit="10" stroke-linecap="round" stroke-linejoin="round"/>
<path d="M1518.45 937.263C1507.6 962.496 1487.22 972.712 1474.47 976.713C1471.19 958.719 1462.16 936.089 1462.16 936.089C1452.12 949.905 1446.82 968.176 1445.51 976.512C1413.01 967.578 1409.31 936.336 1409.31 936.336C1413.28 905.029 1440.2 881.456 1463.31 882.241C1514.38 883.976 1518.45 937.263 1518.45 937.263Z" fill="white" stroke="#1E0E62" stroke-width="2" stroke-miterlimit="10" stroke-linecap="round" stroke-linejoin="round"/>
<path d="M1468.89 1484.49H1529.71C1572.61 1484.49 1608.68 1452.3 1613.54 1409.68L1647.42 1112.98C1651.45 1077.68 1623.84 1046.74 1588.31 1046.74C1561.2 1046.74 1537.52 1065.06 1530.72 1091.31L1468.89 1353.88V1484.49Z" fill="#E8E8EF"/>
<path d="M1468.89 1365.12V1471.61" stroke="#1E0E62" stroke-width="2" stroke-miterlimit="10" stroke-linecap="round" stroke-linejoin="round"/>
<path d="M1514.29 1483.93V1520.49L1429.22 1529.3V1479.73L1514.29 1483.93Z" fill="white" stroke="#1E0E62" stroke-width="2" stroke-miterlimit="10" stroke-linecap="round" stroke-linejoin="round"/>
<path d="M1496.89 1538.67V1468.3L1611.65 1450.76V1552.14L1496.89 1538.67Z" fill="#E8E8EF"/>
<path d="M1496.89 1538.67V1468.3L1611.65 1450.76V1552.14L1496.89 1538.67Z" stroke="#1E0E62" stroke-width="2" stroke-miterlimit="10" stroke-linecap="round" stroke-linejoin="round"/>
<path d="M1511.16 1517.04H1568.58" stroke="#1E0E62" stroke-width="2" stroke-miterlimit="10" stroke-linecap="round" stroke-linejoin="round"/>
<path d="M1511.16 1489.93H1568.58" stroke="#1E0E62" stroke-width="2" stroke-miterlimit="10" stroke-linecap="round" stroke-linejoin="round"/>
<path d="M1554.27 1501.86V1501.86C1554.27 1533.99 1580.32 1560.04 1612.45 1560.04H1619.81V1443.67H1612.45C1580.32 1443.67 1554.27 1469.72 1554.27 1501.86Z" fill="white" stroke="#1E0E62" stroke-width="2" stroke-miterlimit="10" stroke-linecap="round" stroke-linejoin="round"/>
<path d="M1436.98 1464.64V1543.34L1155.18 1555.69C1140.08 1556.35 1125.94 1551.51 1114.78 1542.86C1102.04 1533.05 1093.18 1518.28 1091.21 1501.12L1090.35 1493.52V1487.46C1090.35 1476.06 1094.32 1465.68 1100.97 1457.51C1110.49 1445.66 1125.58 1438.53 1142.05 1439.91L1436.98 1464.64Z" fill="#E8E8EF"/>
<path d="M1168.81 1497.75C1168.81 1523.08 1148.29 1543.61 1122.96 1543.61C1120.15 1543.61 1117.44 1543.37 1114.78 1542.86C1102.04 1533.05 1093.18 1518.28 1091.21 1501.12L1090.35 1493.52V1487.46C1090.35 1476.06 1094.32 1465.68 1100.97 1457.51C1107.5 1453.9 1114.99 1451.87 1122.96 1451.87C1148.29 1451.87 1168.81 1472.42 1168.81 1497.75Z" fill="white"/>
<path d="M1142.15 1554.89C1132.02 1553.17 1122.66 1548.97 1114.78 1542.86C1102.04 1533.05 1093.18 1518.28 1091.21 1501.12L1090.35 1493.52V1487.46C1090.35 1476.06 1094.32 1465.68 1100.97 1457.51C1110.49 1445.66 1125.58 1438.53 1142.05 1439.91L1436.98 1464.64" stroke="#1E0E62" stroke-width="2" stroke-miterlimit="10" stroke-linecap="round" stroke-linejoin="round"/>
<path d="M1414.13 1469.96V1533.76" stroke="#1E0E62" stroke-width="2" stroke-miterlimit="10" stroke-linecap="round" stroke-linejoin="round"/>
<path d="M1617.11 1459.68H1580.55L1571.74 1374.61H1621.31L1617.11 1459.68Z" fill="white" stroke="#1E0E62" stroke-width="2" stroke-miterlimit="10" stroke-linecap="round" stroke-linejoin="round"/>
<path d="M1556.7 1391.91H1635.4L1647.75 1110.1C1648.41 1095.01 1643.57 1080.87 1634.92 1069.71C1625.11 1056.97 1610.34 1048.11 1593.19 1046.14L1585.58 1045.28H1579.52C1568.13 1045.28 1557.74 1049.24 1549.57 1055.9C1537.73 1065.41 1530.6 1080.51 1531.97 1096.98L1556.7 1391.91Z" fill="#E8E8EF"/>
<path d="M1589.82 1123.74C1615.14 1123.74 1635.67 1103.21 1635.67 1077.88C1635.67 1075.08 1635.43 1072.37 1634.92 1069.71C1625.11 1056.97 1610.34 1048.11 1593.19 1046.14L1585.58 1045.28H1579.52C1568.13 1045.28 1557.74 1049.24 1549.57 1055.9C1545.96 1062.43 1543.93 1069.92 1543.93 1077.88C1543.93 1103.21 1564.49 1123.74 1589.82 1123.74Z" fill="white"/>
<path d="M1634.92 1069.71C1625.11 1056.97 1610.34 1048.11 1593.19 1046.14L1585.58 1045.28H1579.52C1568.13 1045.28 1557.74 1049.24 1549.57 1055.9C1537.73 1065.41 1530.6 1080.51 1531.97 1096.98L1556.7 1391.91H1632.12" stroke="#1E0E62" stroke-width="2" stroke-miterlimit="10" stroke-linecap="round" stroke-linejoin="round"/>
<path d="M1565.3 1369.06H1625.82" stroke="#1E0E62" stroke-width="2" stroke-miterlimit="10" stroke-linecap="round" stroke-linejoin="round"/>
<path d="M1565.31 1432.82H1635.67L1653.21 1547.58H1551.84L1565.31 1432.82Z" fill="#E8E8EF"/>
<path d="M1565.31 1432.82H1635.67L1653.21 1547.58H1551.84L1565.31 1432.82Z" stroke="#1E0E62" stroke-width="2" stroke-miterlimit="10" stroke-linecap="round" stroke-linejoin="round"/>
<path d="M1586.93 1447.09V1504.51" stroke="#1E0E62" stroke-width="2" stroke-miterlimit="10" stroke-linecap="round" stroke-linejoin="round"/>
<path d="M1614.04 1447.09V1504.51" stroke="#1E0E62" stroke-width="2" stroke-miterlimit="10" stroke-linecap="round" stroke-linejoin="round"/>
<path d="M1602.12 1490.2H1602.12C1569.98 1490.2 1543.93 1516.25 1543.93 1548.38V1555.75H1660.3V1548.38C1660.3 1516.25 1634.25 1490.2 1602.12 1490.2Z" fill="white" stroke="#1E0E62" stroke-width="2" stroke-miterlimit="10" stroke-linecap="round" stroke-linejoin="round"/>
<path d="M1484.58 919.132C1477.86 923.049 1470.81 925.462 1463.4 926.221C1455.99 925.538 1448.96 923.019 1442.22 919.132V862.064H1484.58V919.132Z" fill="white" stroke="#1E0E62" stroke-width="2" stroke-miterlimit="10" stroke-linecap="round" stroke-linejoin="round"/>
<path d="M1495.44 843.579C1497.1 828.944 1505.65 817.226 1514.68 817.903C1516.52 818.041 1518.35 818.68 1520.09 820.027C1530.03 827.724 1519.67 868.444 1493.78 858.212L1495.44 843.579Z" fill="white" stroke="#1E0E62" stroke-width="2" stroke-miterlimit="10" stroke-linecap="round" stroke-linejoin="round"/>
<path d="M1428.17 843.579C1426.51 828.944 1417.95 817.226 1408.93 817.903C1407.09 818.041 1405.26 818.68 1403.52 820.027C1393.58 827.724 1403.93 868.444 1429.82 858.212L1428.17 843.579Z" fill="white" stroke="#1E0E62" stroke-width="2" stroke-miterlimit="10" stroke-linecap="round" stroke-linejoin="round"/>
<path d="M1503.69 836.723C1503.69 849.676 1494.64 877.555 1461.8 879.969C1428.97 877.555 1419.92 849.676 1419.92 836.723C1419.92 823.735 1408.99 771.309 1461.8 771.309C1514.62 771.309 1503.69 823.735 1503.69 836.723Z" fill="white" stroke="#1E0E62" stroke-width="2" stroke-miterlimit="10" stroke-linecap="round" stroke-linejoin="round"/>
<path d="M1506.09 837.368L1501.99 837.723L1504.62 817.875C1504.62 817.875 1490.04 821.128 1488.79 813.117C1488.79 813.117 1487.16 804.843 1490.3 786.967C1490.3 786.967 1471.39 791.24 1458.53 791.24C1419.84 791.24 1411.83 765.607 1414.81 752.475C1414.83 752.392 1414.85 752.308 1414.87 752.224C1419.42 732.989 1426.5 746.845 1426.5 746.845C1426.5 746.845 1430.36 731.367 1438.55 730.664C1446.77 729.966 1448.6 750.298 1448.6 750.298C1448.6 750.298 1465.53 744.511 1490.69 750.566C1521.38 757.953 1508.86 775.321 1508.86 775.321C1508.86 775.321 1538.93 781.936 1506.09 837.368Z" fill="#1E0E62"/>
<path d="M1426.48 764.597C1402.18 773.074 1402.09 800.544 1418.98 835.37H1423.47L1420.67 819.233C1420.67 819.233 1440.89 819.088 1433.39 782.281L1426.48 764.597Z" fill="#1E0E62"/>
<path d="M1430.61 1417.85H1169.73C1157.2 1417.85 1147.05 1407.69 1147.05 1395.17V1220.77C1147.05 1208.24 1157.2 1198.09 1169.73 1198.09H1430.61C1443.14 1198.09 1453.3 1208.24 1453.3 1220.77V1395.17C1453.3 1407.69 1443.14 1417.85 1430.61 1417.85Z" fill="white" stroke="#1E0E62" stroke-width="2" stroke-miterlimit="10" stroke-linecap="round" stroke-linejoin="round"/>
<path d="M1748.56 1170.26L1748.56 1170.29C1748.91 1207.64 1715.95 1227.64 1684.53 1217.4C1673.43 1213.83 1662.53 1206.47 1653.38 1194.77C1614.55 1145.22 1571.4 1060.57 1571.4 1060.57L1624.78 1013.94C1624.78 1013.94 1734.98 1108.24 1746.28 1153.24C1747.8 1159.26 1748.51 1164.92 1748.56 1170.26Z" fill="#EC615B"/>
<path d="M1748.56 1170.26L1748.56 1170.29C1748.91 1207.64 1715.95 1227.64 1684.53 1217.4C1680.74 1211.38 1678.56 1204.27 1678.49 1196.66C1678.28 1174.64 1695.96 1156.61 1718 1156.4C1730.2 1156.29 1741.17 1161.68 1748.56 1170.26Z" fill="white"/>
<path d="M1748.56 1170.26L1748.56 1170.29C1748.91 1207.64 1715.95 1227.64 1684.53 1217.4" stroke="#1E0E62" stroke-width="2" stroke-miterlimit="10" stroke-linecap="round" stroke-linejoin="round"/>
<path d="M1706.29 1093.18C1670.7 1053.22 1624.79 1013.93 1624.79 1013.93L1571.38 1060.57C1571.38 1060.57 1604.26 1125.03 1638.42 1174.38" stroke="#1E0E62" stroke-width="2" stroke-miterlimit="10" stroke-linecap="round" stroke-linejoin="round"/>
<path d="M1623.08 1030.25C1623.08 1030.25 1594.37 1005.26 1564.06 1005.8C1554.48 1005.96 1523.66 1030.79 1515.68 1041.95C1507.71 1053.12 1508.77 1075.45 1517.28 1084.49C1525.78 1093.52 1531.63 1081.3 1531.63 1081.3C1531.63 1081.3 1529.5 1095.65 1552.9 1099.9C1576.29 1104.16 1589.59 1087.68 1590.12 1068C1590.12 1068 1620.42 1071.19 1623.08 1030.25Z" fill="white" stroke="#1E0E62" stroke-width="2" stroke-miterlimit="10" stroke-linecap="round" stroke-linejoin="round"/>
<path d="M1531.29 1071.19C1531.29 1071.19 1530.38 1060.71 1532.18 1052.9C1533.98 1045.09 1549 1036.68 1549 1036.68" stroke="#1E0E62" stroke-width="2" stroke-miterlimit="10" stroke-linecap="round" stroke-linejoin="round"/>
<path d="M501.217 1462.5C501.217 1462.5 404.16 1379.68 418.014 1224.45C525.551 1337.25 501.217 1462.5 501.217 1462.5Z" fill="white" stroke="#1E0E62" stroke-width="2" stroke-miterlimit="10" stroke-linecap="round" stroke-linejoin="round"/>
<path d="M501.217 1462.5C501.217 1462.5 381.169 1419.28 339.324 1269.16C479.762 1336.73 501.217 1462.5 501.217 1462.5Z" fill="#E8E8EF"/>
<path d="M501.217 1462.5C501.217 1462.5 598.274 1379.68 584.419 1224.45C476.883 1337.25 501.217 1462.5 501.217 1462.5Z" fill="white" stroke="#1E0E62" stroke-width="2" stroke-miterlimit="10" stroke-linecap="round" stroke-linejoin="round"/>
<path d="M501.217 1462.5C501.217 1462.5 621.265 1419.28 663.11 1269.16C522.671 1336.73 501.217 1462.5 501.217 1462.5Z" fill="#E8E8EF"/>
<path d="M501.217 1462.5C501.217 1462.5 436.921 1352.3 501.217 1210.33C565.512 1352.3 501.217 1462.5 501.217 1462.5Z" fill="#E8E8EF"/>
<path d="M619.423 1405.4C619.423 1514.8 559.496 1566.73 559.496 1566.73H442.903C442.903 1566.73 383.01 1514.8 383.01 1405.4H619.423Z" fill="#8C30F5"/>
<ellipse cx="1635.09" cy="319.09" rx="84.9973" ry="84.9975" fill="white"/>
<path d="M1635.09 234.088C1588.21 234.088 1550.09 272.213 1550.09 319.085C1550.09 365.958 1588.21 404.083 1635.09 404.083C1681.96 404.083 1720.08 365.958 1720.08 319.085C1720.08 272.213 1681.96 234.088 1635.09 234.088ZM1621.8 285.176C1622.97 283.184 1625.53 282.52 1627.52 283.689L1631.23 285.854C1633.22 287.024 1633.9 289.579 1632.73 291.585L1629.05 297.879L1618.12 291.484L1621.8 285.176ZM1580.86 312.892H1603.57L1596.34 325.12H1580.86V312.892ZM1586.34 360.011C1586.06 360.271 1585.66 360.314 1585.33 360.126C1585.01 359.938 1584.85 359.563 1584.95 359.202L1590.23 339.209L1601.16 345.604L1586.34 360.011ZM1591.6 336.841L1617.23 293.014L1628.16 299.41L1602.53 343.236L1591.6 336.841ZM1615.09 325.12L1621.88 312.907H1648.06L1654.85 325.12H1615.09ZM1628.37 274.811C1627.2 272.819 1627.9 270.249 1629.89 269.095L1633.28 267.117C1635.27 265.962 1637.83 266.64 1639 268.633L1667.97 318.508L1657.34 324.686L1628.37 274.811ZM1658.53 326.736L1669.15 320.558L1675.3 331.139L1664.68 337.303L1658.53 326.736ZM1680.89 359.679C1680.64 360.025 1680.02 359.736 1679.84 359.448C1679.34 358.668 1679.78 357.6 1678.22 355.218C1675.35 350.844 1671.55 351.71 1667.88 345.546C1667.23 344.463 1665.04 339.498 1667.88 337.809C1669.4 336.899 1671.97 335.369 1673.7 334.402C1676.62 332.742 1679.32 336.221 1680.8 338.4C1684.01 343.078 1685.31 353.587 1680.89 359.679ZM1689.15 325.12H1673.92L1667.26 312.907H1689.15V325.12Z" fill="#1C77F2"/>
<circle cx="155" cy="320" r="85" fill="#00BF1F"/>
<path d="M128.873 278.247L165.625 314.992L175.109 305.508C162.15 297.646 144.793 287.098 136.987 282.356L131.758 279.188C130.833 278.625 129.844 278.321 128.873 278.247ZM123.263 282.646C123.189 283.05 123.125 283.456 123.125 283.892V356.51C123.125 356.814 123.186 357.098 123.229 357.388L160.617 320L123.263 282.646ZM181.341 309.292L170.633 320L181.154 330.521C186.729 327.142 190.59 324.796 191.018 324.538C192.913 323.38 193.983 321.632 193.951 319.723C193.923 317.85 192.853 316.175 191.032 315.144C190.625 314.91 186.817 312.611 181.341 309.292ZM165.625 325.008L128.984 361.649C129.696 361.525 130.407 361.313 131.087 360.902C132.029 360.328 157.479 344.888 174.922 334.305L165.625 325.008Z" fill="white"/>
<circle cx="155" cy="1153" r="85" fill="white"/>
<path d="M155 1068C108.059 1068 70 1106.06 70 1153C70 1199.94 108.059 1238 155 1238C201.941 1238 240 1199.94 240 1153C240 1106.06 201.941 1068 155 1068ZM126.667 1110.44H165.625C183.227 1110.44 197.5 1124.72 197.5 1142.32C197.5 1159.92 183.227 1174.19 165.625 1174.19H144.375V1195.5H126.667V1110.5V1110.44ZM144.375 1128.15V1156.49H165.625C173.438 1156.49 179.792 1150.13 179.792 1142.32C179.792 1134.51 173.438 1128.15 165.625 1128.15H144.375Z" fill="#DA552F"/>
<circle cx="157" cy="866" r="85" fill="#0A9600"/>
<path d="M103.875 839.438V857.154H121.572V892.563H139.293V857.154H156.99V839.438H103.875ZM174.709 874.848V857.154H156.988V892.563H210.125V874.848H174.709ZM174.709 839.439H210.125V857.154H174.709V839.439Z" fill="white"/>
<circle cx="549" cy="89" r="85" fill="white"/>
<path d="M549 4C502.059 4 464 42.0507 464 88.982C464 128.803 491.427 162.123 528.402 171.344C528.005 170.196 527.75 168.865 527.75 167.215V152.69C524.3 152.69 518.52 152.69 517.068 152.69C511.253 152.69 506.082 150.19 503.575 145.545C500.791 140.382 500.309 132.486 493.41 127.656C491.363 126.048 492.921 124.214 495.28 124.462C499.636 125.694 503.249 128.683 506.649 133.116C510.035 137.556 511.628 138.562 517.954 138.562C521.021 138.562 525.611 138.385 529.932 137.705C532.255 131.806 536.271 126.374 541.18 123.81C512.875 120.9 499.367 106.821 499.367 87.7073C499.367 79.4782 502.873 71.5182 508.83 64.8117C506.875 58.1548 504.418 44.5789 509.581 39.4092C522.317 39.4092 530.017 47.6666 531.865 49.8974C538.212 47.7232 545.182 46.491 552.506 46.491C559.845 46.491 566.843 47.7232 573.204 49.9115C575.031 47.6949 582.738 39.4092 595.502 39.4092C600.687 44.586 598.201 58.2185 596.225 64.8613C602.146 71.5536 605.631 79.4924 605.631 87.7073C605.631 106.807 592.145 120.879 563.882 123.803C571.66 127.861 577.333 139.263 577.333 147.853V167.215C577.333 167.952 577.17 168.483 577.085 169.113C610.207 157.506 634 126.063 634 88.982C634 42.0507 595.941 4 549 4Z" fill="#2D2B2B"/>
<ellipse cx="1142.64" cy="88" rx="85.3816" ry="84.0263" fill="white"/>
<path d="M1144 2.13184C1099.47 2.13184 1062.85 36.0143 1058.56 79.4174L1102.24 101.777C1106.65 98.0687 1112.38 95.8077 1118.63 95.8077H1118.83C1120.35 93.4658 1122.1 90.535 1123.94 87.4906C1127.76 81.2065 1132.05 74.1024 1136.27 68.638C1137.21 51.1909 1151.69 37.2603 1169.37 37.2603C1187.68 37.2603 1202.55 52.1313 1202.55 70.4371C1202.55 88.1184 1188.62 102.601 1171.17 103.538C1165.71 107.753 1158.64 112.048 1152.32 115.834C1149.27 117.708 1146.34 119.458 1144 120.98V121.178C1144 135.191 1132.64 146.549 1118.63 146.549C1104.62 146.549 1093.26 135.191 1093.26 121.178C1093.26 120.515 1093.3 119.89 1093.34 119.227L1059.22 101.739C1065.82 142.644 1101.26 173.871 1144 173.871C1191.42 173.871 1229.87 135.425 1229.87 88.0013C1229.87 40.578 1191.42 2.13184 1144 2.13184ZM1169.37 45.0666C1155.4 45.0666 1144 56.4638 1144 70.4371C1144 84.4104 1155.4 95.8077 1169.37 95.8077C1183.34 95.8077 1194.74 84.4104 1194.74 70.4371C1194.74 56.4638 1183.34 45.0666 1169.37 45.0666ZM1169.37 52.8729C1179.09 52.8729 1186.93 60.7183 1186.93 70.4371C1186.93 80.156 1179.09 88.0013 1169.37 88.0013C1159.65 88.0013 1151.81 80.156 1151.81 70.4371C1151.81 60.7183 1159.65 52.8729 1169.37 52.8729ZM1118.63 103.614C1115.55 103.614 1112.62 104.396 1110.12 105.84L1123.08 112.472C1127.88 114.931 1129.76 120.829 1127.34 125.63C1125.58 128.987 1122.18 130.936 1118.63 130.936C1117.11 130.936 1115.62 130.587 1114.18 129.884L1101.18 123.206C1102.19 131.949 1109.61 138.742 1118.63 138.742C1128.35 138.742 1136.19 130.897 1136.19 121.178C1136.19 111.459 1128.35 103.614 1118.63 103.614Z" fill="#125389"/>
</g>
<defs>
<clipPath id="clip0_104:2128">
<rect width="1790" height="1790" fill="white"/>
</clipPath>
</defs>
</svg>
