<svg width="1708" height="1594" viewBox="0 0 1708 1594" fill="none" xmlns="http://www.w3.org/2000/svg">
<path d="M440.832 1166.04C373.181 1166.04 318.142 1111 318.142 1043.35V425.017C318.142 357.365 373.181 302.326 440.832 302.326H1265.17C1332.82 302.326 1387.86 357.365 1387.86 425.017V1043.35C1387.86 1111 1332.82 1166.04 1265.17 1166.04H440.832Z" fill="white" stroke="#1E0E62" stroke-width="2" stroke-miterlimit="10" stroke-linecap="round" stroke-linejoin="round"/>
<path d="M658.448 421.185H427.343C414.815 421.185 404.658 411.028 404.658 398.5V398.5C404.658 385.971 414.815 375.814 427.343 375.814H658.448C670.977 375.814 681.133 385.971 681.133 398.5V398.5C681.133 411.028 670.977 421.185 658.448 421.185Z" fill="#E8E8EF"/>
<path d="M1278.66 421.185C1266.13 421.185 1255.97 411.028 1255.97 398.5V398.5C1255.97 385.971 1266.13 375.814 1278.66 375.814C1291.19 375.814 1301.34 385.971 1301.34 398.5V398.5C1301.34 411.028 1291.19 421.185 1278.66 421.185Z" fill="#EC615B"/>
<path d="M1152.47 421.185H1152.47C1139.94 421.185 1129.79 411.028 1129.79 398.5V398.5C1129.79 385.971 1139.94 375.814 1152.47 375.814H1152.47C1165 375.814 1175.16 385.971 1175.16 398.5V398.5C1175.16 411.028 1165 421.185 1152.47 421.185Z" fill="#EC615B"/>
<path d="M1026.28 421.185H1026.28C1013.76 421.185 1003.6 411.028 1003.6 398.5V398.5C1003.6 385.971 1013.76 375.814 1026.28 375.814H1026.28C1038.81 375.814 1048.97 385.971 1048.97 398.5V398.5C1048.97 411.028 1038.81 421.185 1026.28 421.185Z" fill="#EC615B"/>
<path d="M577.423 1118.31H440.833" stroke="#1E0E62" stroke-width="2" stroke-miterlimit="10" stroke-linecap="round" stroke-linejoin="round"/>
<path d="M1340.13 496.718V1043.35C1340.13 1084.68 1306.5 1118.31 1265.17 1118.31H621.109" stroke="#1E0E62" stroke-width="2" stroke-miterlimit="10" stroke-linecap="round" stroke-linejoin="round"/>
<path d="M1265.17 1079.52H440.832C420.854 1079.52 404.658 1063.33 404.658 1043.35V496.716C404.658 476.738 420.854 460.542 440.832 460.542H1265.17C1285.15 460.542 1301.34 476.738 1301.34 496.716V1043.35C1301.34 1063.33 1285.15 1079.52 1265.17 1079.52Z" fill="#E8E8EF"/>
<path d="M1243.81 901.471H1183.35C1171.31 901.471 1161.55 891.711 1161.55 879.672V879.672C1161.55 867.633 1171.31 857.873 1183.35 857.873H1243.81C1255.85 857.873 1265.61 867.633 1265.61 879.672V879.672C1265.61 891.711 1255.85 901.471 1243.81 901.471Z" fill="white" stroke="#1E0E62" stroke-width="2" stroke-miterlimit="10" stroke-linecap="round" stroke-linejoin="round"/>
<path d="M1243.81 978.052H1100.51C1088.47 978.052 1078.71 968.292 1078.71 956.253C1078.71 944.214 1088.47 934.454 1100.51 934.454H1243.81C1255.85 934.454 1265.61 944.214 1265.61 956.253C1265.61 968.292 1255.85 978.052 1243.81 978.052Z" fill="white" stroke="#1E0E62" stroke-width="2" stroke-miterlimit="10" stroke-linecap="round" stroke-linejoin="round"/>
<path d="M1247.01 798.31H1146.37C1139.17 798.31 1133.34 792.478 1133.34 785.284V579.537C1133.34 572.343 1139.17 566.511 1146.37 566.511H1247.01C1254.21 566.511 1260.04 572.343 1260.04 579.537V785.284C1260.04 792.478 1254.21 798.31 1247.01 798.31Z" fill="white" stroke="#1E0E62" stroke-width="2" stroke-miterlimit="10" stroke-linecap="round" stroke-linejoin="round"/>
<path d="M1218.81 620.742H1174.58C1167.38 620.742 1161.55 614.91 1161.55 607.716V607.716C1161.55 600.521 1167.38 594.689 1174.58 594.689H1218.81C1226 594.689 1231.83 600.521 1231.83 607.716V607.716C1231.83 614.91 1226 620.742 1218.81 620.742Z" fill="#E8E8EF"/>
<path d="M1218.81 671.785H1174.58C1167.38 671.785 1161.55 665.953 1161.55 658.759C1161.55 651.564 1167.38 645.732 1174.58 645.732H1218.81C1226 645.732 1231.83 651.564 1231.83 658.759C1231.83 665.953 1226 671.785 1218.81 671.785Z" fill="#E8E8EF"/>
<path d="M1196.69 771.853C1216.1 771.853 1231.83 756.12 1231.83 736.712C1231.83 717.304 1216.1 701.571 1196.69 701.571C1177.28 701.571 1161.55 717.304 1161.55 736.712C1161.55 756.12 1177.28 771.853 1196.69 771.853Z" fill="#EC615B"/>
<path d="M1048.51 582.425L1271.76 359.177H1474.19C1480.78 359.177 1486.13 353.834 1486.13 347.244C1486.13 340.653 1480.78 335.311 1474.19 335.311L1266.82 335.311C1263.67 335.311 1260.6 336.584 1258.38 338.806L1031.63 565.549C1026.97 570.21 1026.97 577.765 1031.63 582.426C1036.3 587.086 1043.85 587.086 1048.51 582.426L1048.51 582.425Z" fill="white" stroke="#1E0E62" stroke-width="2" stroke-miterlimit="10" stroke-linecap="round" stroke-linejoin="round"/>
<path d="M1592.67 431.605C1639.26 431.605 1677.03 393.835 1677.03 347.244C1677.03 300.653 1639.26 262.884 1592.67 262.884C1546.08 262.884 1508.31 300.653 1508.31 347.244C1508.31 393.835 1546.08 431.605 1592.67 431.605Z" fill="#E8E8EF"/>
<path d="M1592.67 389.565C1616.04 389.565 1634.99 370.617 1634.99 347.244C1634.99 323.87 1616.04 304.922 1592.67 304.922C1569.29 304.922 1550.35 323.87 1550.35 347.244C1550.35 370.617 1569.29 389.565 1592.67 389.565Z" fill="white" stroke="#1E0E62" stroke-width="2" stroke-miterlimit="10" stroke-linecap="round" stroke-linejoin="round"/>
<path d="M657.489 582.425L434.242 359.177H231.808C225.218 359.177 219.875 353.834 219.875 347.244C219.875 340.653 225.218 335.311 231.808 335.311L439.185 335.311C442.327 335.311 445.401 336.584 447.623 338.806L674.365 565.549C679.025 570.21 679.025 577.765 674.365 582.426C669.705 587.086 662.149 587.086 657.489 582.426L657.489 582.425Z" fill="white" stroke="#1E0E62" stroke-width="2" stroke-miterlimit="10" stroke-linecap="round" stroke-linejoin="round"/>
<path d="M113.332 431.605C159.923 431.605 197.692 393.835 197.692 347.244C197.692 300.653 159.923 262.884 113.332 262.884C66.7406 262.884 28.9712 300.653 28.9712 347.244C28.9712 393.835 66.7406 431.605 113.332 431.605Z" fill="#E8E8EF"/>
<path d="M157.322 358.607L124.695 391.234C118.419 397.51 108.244 397.51 101.969 391.234L69.3415 358.607C63.0659 352.331 63.0659 342.156 69.3415 335.881L101.969 303.254C108.244 296.978 118.419 296.978 124.695 303.254L157.322 335.881C163.598 342.156 163.598 352.331 157.322 358.607Z" fill="white" stroke="#1E0E62" stroke-width="2" stroke-miterlimit="10" stroke-linecap="round" stroke-linejoin="round"/>
<path d="M840.758 512.689L780.346 286.028L605.033 184.812C599.326 181.516 597.37 174.218 600.666 168.51C603.961 162.803 611.259 160.847 616.967 164.142L796.56 267.831C799.282 269.402 801.307 272.041 802.12 275.077L863.812 506.512C865.517 512.878 861.74 519.422 855.373 521.127C849.007 522.833 842.464 519.055 840.758 512.689Z" fill="white" stroke="#1E0E62" stroke-width="2" stroke-miterlimit="10" stroke-linecap="round" stroke-linejoin="round"/>
<path d="M466.216 188.297C506.565 211.592 558.159 197.768 581.455 157.419C604.75 117.07 590.926 65.4757 550.577 42.1802C510.228 18.8847 458.634 32.7093 435.338 73.0583C412.043 113.407 425.867 165.001 466.216 188.297Z" fill="#E8E8EF"/>
<path d="M540.812 147.074L496.242 159.016C487.669 161.313 478.858 156.226 476.561 147.653L464.618 103.084C462.321 94.511 467.409 85.6994 475.981 83.4023L520.551 71.4599C529.124 69.1629 537.935 74.2503 540.232 82.823L552.175 127.393C554.472 135.965 549.384 144.777 540.812 147.074Z" fill="white" stroke="#1E0E62" stroke-width="2" stroke-miterlimit="10" stroke-linecap="round" stroke-linejoin="round"/>
<path d="M949.495 533.016L1085.58 413.367L1085.58 229.933C1085.58 223.343 1090.93 218 1097.52 218C1104.11 218 1109.45 223.343 1109.45 229.933L1109.45 418.31C1109.45 421.452 1108.18 424.526 1105.95 426.748L966.371 549.892C961.711 554.552 954.155 554.552 949.495 549.892C944.835 545.232 944.835 537.676 949.495 533.016Z" fill="white" stroke="#1E0E62" stroke-width="2" stroke-miterlimit="10" stroke-linecap="round" stroke-linejoin="round"/>
<path d="M1018.54 101.267C1011.06 147.255 1042.28 190.595 1088.27 198.07C1134.25 205.546 1177.59 174.326 1185.07 128.339C1192.55 82.3514 1161.33 39.0112 1115.34 31.5356C1069.35 24.0601 1026.01 55.2801 1018.54 101.267Z" fill="#E8E8EF"/>
<path d="M1083.91 158.888L1056.94 121.448C1051.75 114.247 1053.38 104.204 1060.58 99.0166L1098.02 72.0472C1105.22 66.8598 1115.27 68.4923 1120.46 75.6936L1147.42 113.133C1152.61 120.334 1150.98 130.377 1143.78 135.565L1106.34 162.534C1099.14 167.722 1089.09 166.089 1083.91 158.888Z" fill="white" stroke="#1E0E62" stroke-width="2" stroke-miterlimit="10" stroke-linecap="round" stroke-linejoin="round"/>
<path d="M657.489 943.521L434.242 1166.77H231.808C225.218 1166.77 219.875 1172.11 219.875 1178.7C219.875 1185.29 225.218 1190.64 231.808 1190.64H439.185C442.327 1190.64 445.401 1189.36 447.623 1187.14L674.365 960.397C679.025 955.737 679.025 948.181 674.365 943.521C669.705 938.86 662.149 938.86 657.489 943.521L657.489 943.521Z" fill="white" stroke="#1E0E62" stroke-width="2" stroke-miterlimit="10" stroke-linecap="round" stroke-linejoin="round"/>
<path d="M113.332 1263.06C159.923 1263.06 197.692 1225.29 197.692 1178.7C197.692 1132.11 159.923 1094.34 113.332 1094.34C66.7406 1094.34 28.9712 1132.11 28.9712 1178.7C28.9712 1225.29 66.7406 1263.06 113.332 1263.06Z" fill="#E8E8EF"/>
<path d="M74.1909 1165.06V1192.34C74.1909 1197.88 77.1487 1203.01 81.9501 1205.78L105.572 1219.42C110.374 1222.19 116.289 1222.19 121.091 1219.42L144.713 1205.78C149.515 1203.01 152.472 1197.88 152.472 1192.34V1165.06C152.472 1159.52 149.515 1154.4 144.713 1151.62L121.091 1137.99C116.289 1135.21 110.374 1135.21 105.572 1137.99L81.9501 1151.62C77.1487 1154.4 74.1909 1159.52 74.1909 1165.06Z" fill="white" stroke="#1E0E62" stroke-width="2" stroke-miterlimit="10" stroke-linecap="round" stroke-linejoin="round"/>
<path d="M1092.2 691.534L1096.72 713.796M806.531 1007.23C805.636 1007.05 804.742 1006.88 803.851 1006.7L781.588 1002.18L806.531 1007.23ZM1100.26 736.856C1101.16 745.488 1101.62 754.211 1101.62 762.959C1101.62 779.575 1099.97 796.121 1096.72 812.142L1092.21 834.43L1042.73 837.814C1041.89 839.958 1041 842.086 1040.08 844.201L1072.69 881.617L1060.08 900.573C1041.66 928.262 1018.29 951.639 990.6 970.055L971.634 982.667L934.24 950.051C932.128 950.969 930.001 951.852 927.857 952.7L924.443 1002.18L902.181 1006.7C886.187 1009.95 869.644 1011.59 853.015 1011.59C843.094 1011.59 833.204 1011.01 823.444 1009.84L1100.26 736.856Z" stroke="#1E0E62" stroke-width="2" stroke-miterlimit="10" stroke-linecap="round" stroke-linejoin="round"/>
<path d="M1067.49 806.218C1070.32 792.226 1071.78 777.757 1071.78 762.959C1071.78 748.162 1070.32 733.693 1067.49 719.731L1020.83 716.509C1016.98 702.636 1011.46 689.42 1004.51 677.159L1035.24 641.896C1019.13 617.671 998.303 596.847 974.079 580.737L938.816 611.466C926.554 604.514 913.338 598.995 899.466 595.147L896.243 548.487C882.282 545.653 867.812 544.191 853.015 544.191C838.218 544.191 823.749 545.653 809.786 548.487L806.564 595.147C792.662 598.995 779.476 604.514 767.214 611.466L731.951 580.737C707.727 596.817 686.903 617.641 670.763 641.896L701.521 677.159C694.54 689.42 689.021 702.636 685.203 716.509L638.513 719.731C635.679 733.693 634.217 748.162 634.217 762.959C634.217 777.757 635.679 792.226 638.513 806.218L685.203 809.41C689.021 823.312 694.54 836.498 701.521 848.79L670.763 884.053C686.873 908.277 707.697 929.101 731.921 945.211L767.214 914.453C779.476 921.434 792.662 926.953 806.564 930.772L809.786 977.461C823.749 980.295 838.218 981.757 853.015 981.757C867.812 981.757 882.282 980.295 896.243 977.461L899.466 930.772C913.338 926.953 926.554 921.434 938.816 914.453L974.079 945.211C998.303 929.101 1019.13 908.277 1035.24 884.053L1004.51 848.79C1011.46 836.498 1016.98 823.312 1020.83 809.41L1067.49 806.218ZM853.015 821.194C820.855 821.194 794.78 795.12 794.78 762.959C794.78 730.829 820.855 704.754 853.015 704.754C885.175 704.754 911.22 730.829 911.22 762.959C911.22 795.12 885.175 821.194 853.015 821.194Z" fill="#8C30F5"/>
<path d="M853 787.779C866.699 787.779 877.804 776.673 877.804 762.974C877.804 749.275 866.699 738.17 853 738.17C839.301 738.17 828.195 749.275 828.195 762.974C828.195 776.673 839.301 787.779 853 787.779Z" fill="white" stroke="#1E0E62" stroke-width="2" stroke-miterlimit="10" stroke-linecap="round" stroke-linejoin="round"/>
<path d="M114.36 976.721C160.951 976.721 198.721 938.951 198.721 892.36C198.721 845.769 160.951 808 114.36 808C67.7694 808 30 845.769 30 892.36C30 938.951 67.7694 976.721 114.36 976.721Z" fill="#EC615B"/>
<path d="M137.431 931.501H91.2895C82.4144 931.501 75.2197 924.306 75.2197 915.431V869.289C75.2197 860.414 82.4144 853.22 91.2895 853.22H137.431C146.306 853.22 153.501 860.414 153.501 869.289V915.431C153.501 924.306 146.306 931.501 137.431 931.501Z" fill="white" stroke="#1E0E62" stroke-width="2" stroke-miterlimit="10" stroke-linecap="round" stroke-linejoin="round"/>
<path d="M564.832 904.294H232.837C226.247 904.294 220.904 898.952 220.904 892.361C220.904 885.77 226.247 880.428 232.837 880.428H564.832C571.422 880.428 576.765 885.77 576.765 892.361C576.765 898.952 571.422 904.294 564.832 904.294Z" fill="white" stroke="#1E0E62" stroke-width="2" stroke-miterlimit="10" stroke-linecap="round" stroke-linejoin="round"/>
<path d="M114.36 723.721C160.951 723.721 198.721 685.951 198.721 639.36C198.721 592.769 160.951 555 114.36 555C67.7694 555 30 592.769 30 639.36C30 685.951 67.7694 723.721 114.36 723.721Z" fill="#EC615B"/>
<path d="M137.431 678.501H91.2895C82.4144 678.501 75.2197 671.306 75.2197 662.431V616.289C75.2197 607.414 82.4144 600.22 91.2895 600.22H137.431C146.306 600.22 153.501 607.414 153.501 616.289V662.431C153.501 671.306 146.306 678.501 137.431 678.501Z" fill="white" stroke="#1E0E62" stroke-width="2" stroke-miterlimit="10" stroke-linecap="round" stroke-linejoin="round"/>
<path d="M564.832 651.294H232.837C226.247 651.294 220.904 645.952 220.904 639.361C220.904 632.77 226.247 627.428 232.837 627.428H564.832C571.422 627.428 576.765 632.77 576.765 639.361C576.765 645.952 571.422 651.294 564.832 651.294Z" fill="white" stroke="#1E0E62" stroke-width="2" stroke-miterlimit="10" stroke-linecap="round" stroke-linejoin="round"/>
<circle cx="115" cy="640" r="85" fill="#FF9900"/>
<path d="M115.558 602.812C105.091 602.812 93.4647 606.729 91.0183 619.531C90.7553 620.894 91.7076 621.595 92.608 621.794L103.238 622.878C104.238 622.826 105.035 621.894 105.227 620.91C106.143 616.499 109.876 614.319 114.068 614.319C116.331 614.319 118.889 615.168 120.228 617.172C121.774 619.411 121.519 622.448 121.519 625.041V626.516C115.14 627.225 106.82 627.659 100.856 630.253C93.9627 633.201 89.1337 639.214 89.1337 648.055C89.1337 659.367 96.3653 665.068 105.625 665.068C113.446 665.068 117.67 663.192 123.706 657.104C125.702 659.964 126.411 661.375 130.065 664.383C130.886 664.817 131.922 664.734 132.647 664.088V664.188C134.842 662.251 138.847 658.777 141.09 656.908C141.982 656.183 141.791 655.048 141.09 654.056C139.078 651.306 137.018 649.027 137.018 643.923V627.006C137.018 619.818 137.5 613.168 132.149 608.219C127.926 604.211 120.905 602.812 115.558 602.812ZM118.538 635.269C119.53 635.205 120.523 635.269 121.519 635.269V637.628C121.519 641.871 121.69 645.362 119.53 649.135C117.781 652.199 114.968 654.052 111.88 654.052C107.661 654.052 105.223 650.896 105.223 646.182C105.223 638.074 111.598 635.719 118.538 635.269ZM148.935 660.646C146.15 660.686 142.887 661.271 140.393 663.004C139.628 663.538 139.739 664.283 140.592 664.184C143.401 663.849 149.609 663.064 150.724 664.479C151.84 665.893 149.489 671.71 148.441 674.312C148.122 675.097 148.816 675.4 149.533 674.802C154.206 670.929 155.458 662.897 154.501 661.721C154.027 661.148 151.724 660.606 148.935 660.646ZM75.7183 662.12C75.1366 662.196 74.9055 662.949 75.5191 663.499C85.9103 672.786 99.6126 678.348 114.861 678.348C125.738 678.348 138.436 674.978 147.15 668.61C148.589 667.555 147.333 665.925 145.859 666.547C136.09 670.65 125.415 672.643 115.757 672.643C101.437 672.643 87.6236 668.774 76.4155 662.315C76.1685 662.176 75.9095 662.096 75.7183 662.12Z" fill="white"/>
<path d="M901.659 1459.82C890.994 1459.82 881.354 1464.15 874.381 1471.13C867.385 1478.1 863.078 1487.76 863.078 1498.4C863.078 1487.76 858.771 1478.1 851.775 1471.13C844.802 1464.15 835.163 1459.82 824.498 1459.82C835.163 1459.82 844.802 1455.49 851.775 1448.52C858.771 1441.55 863.078 1431.88 863.078 1421.24C863.078 1431.88 867.385 1441.55 874.381 1448.52C881.354 1455.49 890.994 1459.82 901.659 1459.82Z" fill="#EC615B"/>
<path d="M1604.13 637.255C1593.46 637.255 1583.83 641.585 1576.85 648.558C1569.86 655.531 1565.55 665.193 1565.55 675.835C1565.55 665.193 1561.24 655.531 1554.25 648.558C1547.27 641.585 1537.63 637.255 1526.97 637.255C1537.63 637.255 1547.27 632.925 1554.25 625.952C1561.24 618.979 1565.55 609.317 1565.55 598.675C1565.55 609.317 1569.86 618.979 1576.85 625.952C1583.83 632.925 1593.46 637.255 1604.13 637.255Z" fill="#E8E8EF"/>
<path d="M205.834 1351.94C200.163 1351.94 195.037 1354.24 191.328 1357.95C187.608 1361.66 185.318 1366.8 185.318 1372.45C185.318 1366.8 183.027 1361.66 179.307 1357.95C175.599 1354.24 170.473 1351.94 164.801 1351.94C170.473 1351.94 175.599 1349.64 179.307 1345.93C183.027 1342.22 185.318 1337.08 185.318 1331.42C185.318 1337.08 187.608 1342.22 191.328 1345.93C195.037 1349.64 200.163 1351.94 205.834 1351.94Z" fill="#EC615B"/>
<path d="M266.344 491.172C258.003 491.172 250.465 494.558 245.011 500.011C239.54 505.465 236.172 513.021 236.172 521.344C236.172 513.021 232.804 505.465 227.332 500.011C221.879 494.558 214.341 491.172 206 491.172C214.341 491.172 221.879 487.786 227.332 482.332C232.804 476.879 236.172 469.323 236.172 461C236.172 469.323 239.54 476.879 245.011 482.332C250.465 487.786 258.003 491.172 266.344 491.172Z" fill="#E8E8EF"/>
<path d="M770.441 1315.45C765.109 1315.45 760.289 1317.61 756.802 1321.1C753.304 1324.58 751.151 1329.42 751.151 1334.74C751.151 1329.42 748.998 1324.58 745.5 1321.1C742.013 1317.61 737.193 1315.45 731.861 1315.45C737.193 1315.45 742.013 1313.28 745.5 1309.79C748.998 1306.31 751.151 1301.48 751.151 1296.16C751.151 1301.48 753.304 1306.31 756.802 1309.79C760.289 1313.28 765.109 1315.45 770.441 1315.45Z" fill="#E8E8EF"/>
<path d="M30.0238 1027.01C25.874 1027.01 22.1232 1028.7 19.4099 1031.41C16.6877 1034.12 15.0119 1037.88 15.0119 1042.02C15.0119 1037.88 13.336 1034.12 10.6139 1031.41C7.90055 1028.7 4.14981 1027.01 0 1027.01C4.14981 1027.01 7.90055 1025.33 10.6139 1022.61C13.336 1019.9 15.0119 1016.14 15.0119 1012C15.0119 1016.14 16.6877 1019.9 19.4099 1022.61C22.1232 1025.33 25.874 1027.01 30.0238 1027.01Z" fill="#EC615B"/>
<path d="M192.024 143.012C187.874 143.012 184.123 144.697 181.41 147.41C178.688 150.123 177.012 153.883 177.012 158.024C177.012 153.883 175.336 150.123 172.614 147.41C169.901 144.697 166.15 143.012 162 143.012C166.15 143.012 169.901 141.327 172.614 138.614C175.336 135.901 177.012 132.141 177.012 128C177.012 132.141 178.688 135.901 181.41 138.614C184.123 141.327 187.874 143.012 192.024 143.012Z" fill="#EC615B"/>
<path d="M1027.87 1325.43C1034.26 1325.43 1039.45 1320.24 1039.45 1313.85C1039.45 1307.46 1034.26 1302.28 1027.87 1302.28C1021.48 1302.28 1016.29 1307.46 1016.29 1313.85C1016.29 1320.24 1021.48 1325.43 1027.87 1325.43Z" fill="#E8E8EF"/>
<path d="M1605.52 898.511C1610.74 898.511 1614.97 894.283 1614.97 889.066C1614.97 883.85 1610.74 879.621 1605.52 879.621C1600.31 879.621 1596.08 883.85 1596.08 889.066C1596.08 894.283 1600.31 898.511 1605.52 898.511Z" fill="#EC615B"/>
<path d="M1538.55 961.701C1581.63 963.537 1663.94 1105.01 1700.28 1171.45C1711.08 1191.2 1707.23 1215.74 1690.94 1231.26L1690.94 1231.26C1669.69 1251.5 1635.64 1249.04 1617.53 1225.95L1500.51 1076.79C1500.51 1076.79 1451.92 958.011 1538.55 961.701Z" fill="#EC615B"/>
<path d="M1297.25 959.571C1243.32 975.99 1172.16 1251.32 1172.16 1251.32C1158.92 1325.43 1243.46 1334.97 1264.99 1285.33L1362.88 1061.48C1362.88 1061.48 1380.2 934.319 1297.25 959.571Z" fill="#EC615B"/>
<path d="M1172.16 1251.32L1175.94 1432.4H1256.17L1264.99 1285.33C1277.49 1206.66 1187.26 1197.26 1172.16 1251.32Z" fill="#EC615B"/>
<path d="M1292.2 1368.29L1084.19 1464.43C1062.33 1474.54 1048.33 1496.42 1048.33 1520.5V1520.5C1048.33 1560.17 1085.19 1589.55 1123.86 1580.72L1426.89 1511.49V1356.95H1290.78L1292.2 1368.29Z" fill="#E8E8EF"/>
<path d="M1398.54 1356.95V1406.48C1398.54 1415.43 1402.86 1423.84 1410.15 1429.04L1426.89 1441V1496.96" stroke="#1E0E62" stroke-width="2" stroke-miterlimit="10" stroke-linecap="round" stroke-linejoin="round"/>
<path d="M1146.87 1469.62L1329.06 1386.72V1361.91" stroke="#1E0E62" stroke-width="2" stroke-miterlimit="10" stroke-linecap="round" stroke-linejoin="round"/>
<path d="M1538.55 961.701C1538.55 961.701 1473.71 942.796 1308.15 957.045C1308.15 957.045 1278.02 1004.28 1270.58 1110.62C1262.25 1229.57 1256.17 1380.35 1256.17 1380.35H1572.36C1572.36 1380.35 1589.44 1194.43 1538.55 961.701Z" fill="#EC615B"/>
<path d="M1302.29 968.273C1293.14 987.91 1275.95 1033.87 1270.58 1110.62C1268.22 1144.32 1266.04 1180.58 1264.13 1215.23" stroke="#1E0E62" stroke-width="2" stroke-miterlimit="10" stroke-linecap="round" stroke-linejoin="round"/>
<path d="M1565.55 1127.58C1560.21 1078.7 1552.09 1024.93 1539.97 968.273" stroke="#1E0E62" stroke-width="2" stroke-miterlimit="10" stroke-linecap="round" stroke-linejoin="round"/>
<path d="M1476.45 964.263C1465.6 989.496 1445.22 999.712 1432.47 1003.71C1429.19 985.719 1420.16 963.089 1420.16 963.089C1410.12 976.905 1404.82 995.176 1403.51 1003.51C1371.01 994.578 1367.31 963.336 1367.31 963.336C1371.28 932.029 1398.2 908.456 1421.31 909.241C1472.38 910.976 1476.45 964.263 1476.45 964.263Z" fill="white" stroke="#1E0E62" stroke-width="2" stroke-miterlimit="10" stroke-linecap="round" stroke-linejoin="round"/>
<path d="M1426.89 1511.49H1487.71C1530.61 1511.49 1566.68 1479.3 1571.54 1436.68L1605.42 1139.98C1609.45 1104.68 1581.84 1073.74 1546.31 1073.74C1519.2 1073.74 1495.52 1092.06 1488.72 1118.31L1426.89 1380.88V1511.49Z" fill="#E8E8EF"/>
<path d="M1426.89 1392.12V1498.61" stroke="#1E0E62" stroke-width="2" stroke-miterlimit="10" stroke-linecap="round" stroke-linejoin="round"/>
<path d="M1472.29 1510.93V1547.49L1387.22 1556.3V1506.73L1472.29 1510.93Z" fill="white" stroke="#1E0E62" stroke-width="2" stroke-miterlimit="10" stroke-linecap="round" stroke-linejoin="round"/>
<path d="M1454.89 1565.67V1495.3L1569.65 1477.76V1579.14L1454.89 1565.67Z" fill="#E8E8EF"/>
<path d="M1454.89 1565.67V1495.3L1569.65 1477.76V1579.14L1454.89 1565.67Z" stroke="#1E0E62" stroke-width="2" stroke-miterlimit="10" stroke-linecap="round" stroke-linejoin="round"/>
<path d="M1469.16 1544.04H1526.58" stroke="#1E0E62" stroke-width="2" stroke-miterlimit="10" stroke-linecap="round" stroke-linejoin="round"/>
<path d="M1469.16 1516.93H1526.58" stroke="#1E0E62" stroke-width="2" stroke-miterlimit="10" stroke-linecap="round" stroke-linejoin="round"/>
<path d="M1512.27 1528.86V1528.86C1512.27 1560.99 1538.32 1587.04 1570.45 1587.04H1577.81V1470.67H1570.45C1538.32 1470.67 1512.27 1496.72 1512.27 1528.86Z" fill="white" stroke="#1E0E62" stroke-width="2" stroke-miterlimit="10" stroke-linecap="round" stroke-linejoin="round"/>
<path d="M1394.98 1491.64V1570.34L1113.18 1582.69C1098.08 1583.35 1083.94 1578.51 1072.78 1569.86C1060.04 1560.05 1051.18 1545.28 1049.21 1528.12L1048.35 1520.52V1514.46C1048.35 1503.06 1052.32 1492.68 1058.97 1484.51C1068.49 1472.66 1083.58 1465.53 1100.05 1466.91L1394.98 1491.64Z" fill="#E8E8EF"/>
<path d="M1126.81 1524.75C1126.81 1550.08 1106.29 1570.61 1080.96 1570.61C1078.15 1570.61 1075.44 1570.37 1072.78 1569.86C1060.04 1560.05 1051.18 1545.28 1049.21 1528.12L1048.35 1520.52V1514.46C1048.35 1503.06 1052.32 1492.68 1058.97 1484.51C1065.5 1480.9 1072.99 1478.87 1080.96 1478.87C1106.29 1478.87 1126.81 1499.42 1126.81 1524.75Z" fill="white"/>
<path d="M1100.15 1581.89C1090.02 1580.17 1080.66 1575.97 1072.78 1569.86C1060.04 1560.05 1051.18 1545.28 1049.21 1528.12L1048.35 1520.52V1514.46C1048.35 1503.06 1052.32 1492.68 1058.97 1484.51C1068.49 1472.66 1083.58 1465.53 1100.05 1466.91L1394.98 1491.64" stroke="#1E0E62" stroke-width="2" stroke-miterlimit="10" stroke-linecap="round" stroke-linejoin="round"/>
<path d="M1372.13 1496.96V1560.76" stroke="#1E0E62" stroke-width="2" stroke-miterlimit="10" stroke-linecap="round" stroke-linejoin="round"/>
<path d="M1575.11 1486.68H1538.55L1529.74 1401.61H1579.31L1575.11 1486.68Z" fill="white" stroke="#1E0E62" stroke-width="2" stroke-miterlimit="10" stroke-linecap="round" stroke-linejoin="round"/>
<path d="M1514.7 1418.91H1593.4L1605.75 1137.1C1606.41 1122.01 1601.57 1107.87 1592.92 1096.71C1583.11 1083.97 1568.34 1075.11 1551.19 1073.14L1543.58 1072.28H1537.52C1526.13 1072.28 1515.74 1076.24 1507.57 1082.9C1495.73 1092.41 1488.6 1107.51 1489.97 1123.98L1514.7 1418.91Z" fill="#E8E8EF"/>
<path d="M1547.82 1150.74C1573.14 1150.74 1593.67 1130.21 1593.67 1104.88C1593.67 1102.08 1593.43 1099.37 1592.92 1096.71C1583.11 1083.97 1568.34 1075.11 1551.19 1073.14L1543.58 1072.28H1537.52C1526.13 1072.28 1515.74 1076.24 1507.57 1082.9C1503.96 1089.43 1501.93 1096.92 1501.93 1104.88C1501.93 1130.21 1522.49 1150.74 1547.82 1150.74Z" fill="white"/>
<path d="M1592.92 1096.71C1583.11 1083.97 1568.34 1075.11 1551.19 1073.14L1543.58 1072.28H1537.52C1526.13 1072.28 1515.74 1076.24 1507.57 1082.9C1495.73 1092.41 1488.6 1107.51 1489.97 1123.98L1514.7 1418.91H1590.12" stroke="#1E0E62" stroke-width="2" stroke-miterlimit="10" stroke-linecap="round" stroke-linejoin="round"/>
<path d="M1523.3 1396.06H1583.82" stroke="#1E0E62" stroke-width="2" stroke-miterlimit="10" stroke-linecap="round" stroke-linejoin="round"/>
<path d="M1523.31 1459.82H1593.67L1611.21 1574.58H1509.84L1523.31 1459.82Z" fill="#E8E8EF"/>
<path d="M1523.31 1459.82H1593.67L1611.21 1574.58H1509.84L1523.31 1459.82Z" stroke="#1E0E62" stroke-width="2" stroke-miterlimit="10" stroke-linecap="round" stroke-linejoin="round"/>
<path d="M1544.93 1474.09V1531.51" stroke="#1E0E62" stroke-width="2" stroke-miterlimit="10" stroke-linecap="round" stroke-linejoin="round"/>
<path d="M1572.04 1474.09V1531.51" stroke="#1E0E62" stroke-width="2" stroke-miterlimit="10" stroke-linecap="round" stroke-linejoin="round"/>
<path d="M1560.12 1517.2H1560.12C1527.98 1517.2 1501.93 1543.25 1501.93 1575.38V1582.75H1618.3V1575.38C1618.3 1543.25 1592.25 1517.2 1560.12 1517.2Z" fill="white" stroke="#1E0E62" stroke-width="2" stroke-miterlimit="10" stroke-linecap="round" stroke-linejoin="round"/>
<path d="M1442.58 946.132C1435.86 950.049 1428.81 952.462 1421.4 953.221C1413.99 952.538 1406.96 950.019 1400.22 946.132V889.064H1442.58V946.132Z" fill="white" stroke="#1E0E62" stroke-width="2" stroke-miterlimit="10" stroke-linecap="round" stroke-linejoin="round"/>
<path d="M1453.44 870.579C1455.1 855.944 1463.65 844.226 1472.68 844.903C1474.52 845.041 1476.35 845.68 1478.09 847.027C1488.03 854.724 1477.67 895.444 1451.78 885.212L1453.44 870.579Z" fill="white" stroke="#1E0E62" stroke-width="2" stroke-miterlimit="10" stroke-linecap="round" stroke-linejoin="round"/>
<path d="M1386.17 870.579C1384.51 855.944 1375.95 844.226 1366.93 844.903C1365.09 845.041 1363.26 845.68 1361.52 847.027C1351.58 854.724 1361.93 895.444 1387.82 885.212L1386.17 870.579Z" fill="white" stroke="#1E0E62" stroke-width="2" stroke-miterlimit="10" stroke-linecap="round" stroke-linejoin="round"/>
<path d="M1461.69 863.723C1461.69 876.676 1452.64 904.555 1419.8 906.969C1386.97 904.555 1377.92 876.676 1377.92 863.723C1377.92 850.735 1366.99 798.309 1419.8 798.309C1472.62 798.309 1461.69 850.735 1461.69 863.723Z" fill="white" stroke="#1E0E62" stroke-width="2" stroke-miterlimit="10" stroke-linecap="round" stroke-linejoin="round"/>
<path d="M1464.09 864.368L1459.99 864.723L1462.62 844.875C1462.62 844.875 1448.04 848.128 1446.79 840.117C1446.79 840.117 1445.16 831.843 1448.3 813.967C1448.3 813.967 1429.39 818.24 1416.53 818.24C1377.84 818.24 1369.83 792.607 1372.81 779.475C1372.83 779.392 1372.85 779.308 1372.87 779.224C1377.42 759.989 1384.5 773.845 1384.5 773.845C1384.5 773.845 1388.36 758.367 1396.55 757.664C1404.77 756.966 1406.6 777.298 1406.6 777.298C1406.6 777.298 1423.53 771.511 1448.69 777.566C1479.38 784.953 1466.86 802.321 1466.86 802.321C1466.86 802.321 1496.93 808.936 1464.09 864.368Z" fill="#1E0E62"/>
<path d="M1384.48 791.597C1360.18 800.074 1360.09 827.544 1376.98 862.37H1381.47L1378.67 846.233C1378.67 846.233 1398.89 846.088 1391.39 809.281L1384.48 791.597Z" fill="#1E0E62"/>
<path d="M1388.61 1444.85H1127.73C1115.2 1444.85 1105.05 1434.69 1105.05 1422.17V1247.77C1105.05 1235.24 1115.2 1225.09 1127.73 1225.09H1388.61C1401.14 1225.09 1411.3 1235.24 1411.3 1247.77V1422.17C1411.3 1434.69 1401.14 1444.85 1388.61 1444.85Z" fill="white" stroke="#1E0E62" stroke-width="2" stroke-miterlimit="10" stroke-linecap="round" stroke-linejoin="round"/>
<path d="M1706.56 1197.26L1706.56 1197.29C1706.91 1234.64 1673.95 1254.64 1642.53 1244.4C1631.43 1240.83 1620.53 1233.47 1611.38 1221.77C1572.55 1172.22 1529.4 1087.57 1529.4 1087.57L1582.78 1040.94C1582.78 1040.94 1692.98 1135.24 1704.28 1180.24C1705.8 1186.26 1706.51 1191.92 1706.56 1197.26Z" fill="#EC615B"/>
<path d="M1706.56 1197.26L1706.56 1197.29C1706.91 1234.64 1673.95 1254.64 1642.53 1244.4C1638.74 1238.38 1636.56 1231.27 1636.49 1223.66C1636.28 1201.64 1653.96 1183.61 1676 1183.4C1688.2 1183.29 1699.17 1188.68 1706.56 1197.26Z" fill="white"/>
<path d="M1706.56 1197.26L1706.56 1197.29C1706.91 1234.64 1673.95 1254.64 1642.53 1244.4" stroke="#1E0E62" stroke-width="2" stroke-miterlimit="10" stroke-linecap="round" stroke-linejoin="round"/>
<path d="M1664.29 1120.18C1628.7 1080.22 1582.79 1040.93 1582.79 1040.93L1529.38 1087.57C1529.38 1087.57 1562.26 1152.03 1596.42 1201.38" stroke="#1E0E62" stroke-width="2" stroke-miterlimit="10" stroke-linecap="round" stroke-linejoin="round"/>
<path d="M1581.08 1057.25C1581.08 1057.25 1552.37 1032.26 1522.06 1032.8C1512.48 1032.96 1481.66 1057.79 1473.68 1068.95C1465.71 1080.12 1466.77 1102.45 1475.28 1111.49C1483.78 1120.52 1489.63 1108.3 1489.63 1108.3C1489.63 1108.3 1487.5 1122.65 1510.9 1126.9C1534.29 1131.16 1547.59 1114.68 1548.12 1095C1548.12 1095 1578.42 1098.19 1581.08 1057.25Z" fill="white" stroke="#1E0E62" stroke-width="2" stroke-miterlimit="10" stroke-linecap="round" stroke-linejoin="round"/>
<path d="M1489.29 1098.19C1489.29 1098.19 1488.38 1087.71 1490.18 1079.9C1491.98 1072.09 1507 1063.68 1507 1063.68" stroke="#1E0E62" stroke-width="2" stroke-miterlimit="10" stroke-linecap="round" stroke-linejoin="round"/>
<path d="M459.217 1489.5C459.217 1489.5 362.16 1406.68 376.014 1251.45C483.551 1364.25 459.217 1489.5 459.217 1489.5Z" fill="white" stroke="#1E0E62" stroke-width="2" stroke-miterlimit="10" stroke-linecap="round" stroke-linejoin="round"/>
<path d="M459.217 1489.5C459.217 1489.5 339.169 1446.28 297.324 1296.16C437.762 1363.73 459.217 1489.5 459.217 1489.5Z" fill="#E8E8EF"/>
<path d="M459.217 1489.5C459.217 1489.5 556.274 1406.68 542.419 1251.45C434.883 1364.25 459.217 1489.5 459.217 1489.5Z" fill="white" stroke="#1E0E62" stroke-width="2" stroke-miterlimit="10" stroke-linecap="round" stroke-linejoin="round"/>
<path d="M459.217 1489.5C459.217 1489.5 579.265 1446.28 621.11 1296.16C480.671 1363.73 459.217 1489.5 459.217 1489.5Z" fill="#E8E8EF"/>
<path d="M459.217 1489.5C459.217 1489.5 394.921 1379.3 459.217 1237.33C523.512 1379.3 459.217 1489.5 459.217 1489.5Z" fill="#E8E8EF"/>
<path d="M577.423 1432.4C577.423 1541.8 517.496 1593.73 517.496 1593.73H400.903C400.903 1593.73 341.01 1541.8 341.01 1432.4H577.423Z" fill="#8C30F5"/>
<ellipse cx="1593.09" cy="346.09" rx="84.9973" ry="84.9975" fill="white"/>
<path d="M1593.09 261.088C1546.21 261.088 1508.09 299.213 1508.09 346.085C1508.09 392.958 1546.21 431.083 1593.09 431.083C1639.96 431.083 1678.08 392.958 1678.08 346.085C1678.08 299.213 1639.96 261.088 1593.09 261.088ZM1579.8 312.176C1580.97 310.184 1583.53 309.52 1585.52 310.689L1589.23 312.854C1591.22 314.024 1591.9 316.579 1590.73 318.585L1587.05 324.879L1576.12 318.484L1579.8 312.176ZM1538.86 339.892H1561.57L1554.34 352.12H1538.86V339.892ZM1544.34 387.011C1544.06 387.271 1543.66 387.314 1543.33 387.126C1543.01 386.938 1542.85 386.563 1542.95 386.202L1548.23 366.209L1559.16 372.604L1544.34 387.011ZM1549.6 363.841L1575.23 320.014L1586.16 326.41L1560.53 370.236L1549.6 363.841ZM1573.09 352.12L1579.88 339.907H1606.06L1612.85 352.12H1573.09ZM1586.37 301.811C1585.2 299.819 1585.9 297.249 1587.89 296.095L1591.28 294.117C1593.27 292.962 1595.83 293.64 1597 295.633L1625.97 345.508L1615.34 351.686L1586.37 301.811ZM1616.53 353.736L1627.15 347.558L1633.3 358.139L1622.68 364.303L1616.53 353.736ZM1638.89 386.679C1638.64 387.025 1638.02 386.736 1637.84 386.448C1637.34 385.668 1637.78 384.6 1636.22 382.218C1633.35 377.844 1629.55 378.71 1625.88 372.546C1625.23 371.463 1623.04 366.498 1625.88 364.809C1627.4 363.899 1629.97 362.369 1631.7 361.402C1634.62 359.742 1637.32 363.221 1638.8 365.4C1642.01 370.078 1643.31 380.587 1638.89 386.679ZM1647.15 352.12H1631.92L1625.26 339.907H1647.15V352.12Z" fill="#1C77F2"/>
<circle cx="113" cy="347" r="85" fill="#00BF1F"/>
<path d="M86.8733 305.247L123.625 341.992L133.109 332.508C120.15 324.646 102.793 314.098 94.9873 309.356L89.7578 306.188C88.8334 305.625 87.8437 305.321 86.8733 305.247ZM81.2633 309.646C81.189 310.05 81.125 310.456 81.125 310.892V383.51C81.125 383.814 81.1863 384.098 81.2288 384.388L118.617 347L81.2633 309.646ZM139.341 336.292L128.633 347L139.154 357.521C144.729 354.142 148.59 351.796 149.018 351.538C150.913 350.38 151.983 348.632 151.951 346.723C151.923 344.85 150.853 343.175 149.032 342.144C148.625 341.91 144.817 339.611 139.341 336.292ZM123.625 352.008L86.984 388.649C87.6958 388.525 88.4068 388.313 89.0868 387.902C90.0289 387.328 115.479 371.888 132.922 361.305L123.625 352.008Z" fill="white"/>
<circle cx="113" cy="1180" r="85" fill="white"/>
<path d="M113 1095C66.0588 1095 28 1133.06 28 1180C28 1226.94 66.0588 1265 113 1265C159.941 1265 198 1226.94 198 1180C198 1133.06 159.941 1095 113 1095ZM84.6667 1137.44H123.625C141.227 1137.44 155.5 1151.72 155.5 1169.32C155.5 1186.92 141.227 1201.19 123.625 1201.19H102.375V1222.5H84.6667V1137.5V1137.44ZM102.375 1155.15V1183.49H123.625C131.438 1183.49 137.792 1177.13 137.792 1169.32C137.792 1161.51 131.438 1155.15 123.625 1155.15H102.375Z" fill="#DA552F"/>
<circle cx="115" cy="893" r="85" fill="#0A9600"/>
<path d="M61.875 866.438V884.154H79.5723V919.562H97.2928V884.154H114.99V866.438H61.875ZM132.709 901.848V884.154H114.988V919.562H168.125V901.848H132.709ZM132.709 866.439H168.125V884.154H132.709V866.439Z" fill="white"/>
<circle cx="507" cy="116" r="85" fill="white"/>
<path d="M507 31C460.059 31 422 69.0507 422 115.982C422 155.803 449.427 189.123 486.402 198.344C486.005 197.196 485.75 195.865 485.75 194.215V179.69C482.3 179.69 476.52 179.69 475.068 179.69C469.253 179.69 464.082 177.19 461.575 172.545C458.791 167.382 458.309 159.486 451.41 154.656C449.363 153.048 450.921 151.214 453.28 151.462C457.636 152.694 461.249 155.683 464.649 160.116C468.035 164.556 469.628 165.562 475.954 165.562C479.021 165.562 483.611 165.385 487.932 164.705C490.255 158.806 494.271 153.374 499.18 150.81C470.875 147.9 457.367 133.821 457.367 114.707C457.367 106.478 460.873 98.5182 466.83 91.8117C464.875 85.1548 462.418 71.5789 467.581 66.4092C480.317 66.4092 488.017 74.6666 489.865 76.8974C496.212 74.7232 503.182 73.491 510.506 73.491C517.845 73.491 524.843 74.7232 531.204 76.9115C533.031 74.6949 540.738 66.4092 553.502 66.4092C558.687 71.586 556.201 85.2185 554.225 91.8613C560.146 98.5536 563.631 106.492 563.631 114.707C563.631 133.807 550.145 147.879 521.882 150.803C529.66 154.861 535.333 166.263 535.333 174.853V194.215C535.333 194.952 535.17 195.483 535.085 196.113C568.207 184.506 592 153.063 592 115.982C592 69.0507 553.941 31 507 31Z" fill="#2D2B2B"/>
<ellipse cx="1100.64" cy="115" rx="85.3816" ry="84.0263" fill="white"/>
<path d="M1102 29.1318C1057.47 29.1318 1020.85 63.0143 1016.56 106.417L1060.24 128.777C1064.65 125.069 1070.38 122.808 1076.63 122.808H1076.83C1078.35 120.466 1080.1 117.535 1081.94 114.491C1085.76 108.206 1090.05 101.102 1094.27 95.638C1095.21 78.1909 1109.69 64.2603 1127.37 64.2603C1145.68 64.2603 1160.55 79.1313 1160.55 97.4371C1160.55 115.118 1146.62 129.601 1129.17 130.538C1123.71 134.753 1116.64 139.048 1110.32 142.834C1107.27 144.708 1104.34 146.458 1102 147.98V148.178C1102 162.191 1090.64 173.549 1076.63 173.549C1062.62 173.549 1051.26 162.191 1051.26 148.178C1051.26 147.515 1051.3 146.89 1051.34 146.227L1017.22 128.739C1023.82 169.644 1059.26 200.871 1102 200.871C1149.42 200.871 1187.87 162.425 1187.87 115.001C1187.87 67.578 1149.42 29.1318 1102 29.1318ZM1127.37 72.0666C1113.4 72.0666 1102 83.4638 1102 97.4371C1102 111.41 1113.4 122.808 1127.37 122.808C1141.34 122.808 1152.74 111.41 1152.74 97.4371C1152.74 83.4638 1141.34 72.0666 1127.37 72.0666ZM1127.37 79.8729C1137.09 79.8729 1144.93 87.7183 1144.93 97.4371C1144.93 107.156 1137.09 115.001 1127.37 115.001C1117.65 115.001 1109.81 107.156 1109.81 97.4371C1109.81 87.7183 1117.65 79.8729 1127.37 79.8729ZM1076.63 130.614C1073.55 130.614 1070.62 131.396 1068.12 132.84L1081.08 139.472C1085.88 141.931 1087.76 147.829 1085.34 152.63C1083.58 155.987 1080.18 157.936 1076.63 157.936C1075.11 157.936 1073.62 157.587 1072.18 156.884L1059.18 150.206C1060.19 158.949 1067.61 165.742 1076.63 165.742C1086.35 165.742 1094.19 157.897 1094.19 148.178C1094.19 138.459 1086.35 130.614 1076.63 130.614Z" fill="#125389"/>
</svg>
