<svg width="1600" height="1400" viewBox="0 0 1600 1400" fill="none" xmlns="http://www.w3.org/2000/svg">
<path d="M994.17 645.56C973.96 669.5 904.39 697.22 904.39 697.22C899.55 695.81 894.67 694.22 889.87 692.6C869.475 685.386 849.562 676.879 830.25 667.13C830.25 667.13 815.95 656.13 819.25 638.58C819.25 638.58 826.58 616.1 844.17 616.79C861.76 617.48 942.41 606.7 942.41 606.7C942.41 606.7 963.09 582.7 980.73 586.47C998.37 590.24 1014.38 621.61 994.17 645.56Z" fill="#88C0C2"/>
<path d="M883.321 674.236C885.735 668.794 881.623 661.69 874.136 658.369C866.649 655.048 858.623 656.768 856.209 662.21C853.795 667.653 857.907 674.757 865.394 678.077C872.881 681.398 880.907 679.679 883.321 674.236Z" fill="white"/>
<path d="M873 681.76C870.089 681.741 867.215 681.115 864.56 679.92C860.721 678.287 857.492 675.488 855.33 671.92C853.27 668.35 852.92 664.61 854.33 661.38C855.74 658.15 858.77 655.891 862.8 655.031C866.89 654.25 871.121 654.771 874.9 656.521V656.521C883.38 660.281 887.96 668.591 885.1 675.031C883.24 679.361 878.49 681.76 873 681.76ZM866.45 658.68C865.516 658.679 864.584 658.776 863.67 658.97C862.449 659.084 861.281 659.521 860.286 660.237C859.29 660.952 858.504 661.921 858.008 663.042C857.511 664.163 857.323 665.396 857.462 666.614C857.602 667.832 858.063 668.99 858.8 669.97C860.542 672.792 863.122 674.998 866.18 676.281C872.65 679.151 879.51 677.88 881.47 673.45C883.43 669.02 879.77 663.09 873.3 660.22C871.154 659.24 868.829 658.716 866.47 658.68H866.45Z" fill="#262424"/>
<path d="M840.77 643.35C840.24 643.35 839.731 643.139 839.356 642.764C838.981 642.389 838.77 641.88 838.77 641.35C838.77 640.819 838.981 640.311 839.356 639.935C839.731 639.56 840.24 639.35 840.77 639.35C841.45 639.35 908.77 639.08 946.54 624.11C946.785 624.011 947.046 623.962 947.31 623.965C947.574 623.968 947.834 624.023 948.077 624.127C948.319 624.231 948.538 624.382 948.722 624.572C948.906 624.761 949.05 624.985 949.147 625.23C949.244 625.475 949.292 625.737 949.287 626.001C949.282 626.265 949.225 626.525 949.12 626.766C949.014 627.008 948.861 627.226 948.671 627.409C948.481 627.591 948.256 627.734 948.01 627.83C909.54 643.08 843.57 643.35 840.78 643.35H840.77Z" fill="#262424"/>
<path d="M994.17 645.56C973.96 669.5 904.39 697.22 904.39 697.22C899.55 695.81 894.67 694.22 889.87 692.6C921.71 681.96 967.17 650.5 967.17 650.5C934.46 637.76 942.39 606.7 942.39 606.7C942.39 606.7 963.07 582.7 980.71 586.47C998.35 590.24 1014.38 621.61 994.17 645.56Z" fill="white"/>
<path d="M904.39 699.23C904.201 699.23 904.012 699.203 903.83 699.15C899.11 697.78 894.19 696.21 889.21 694.5C888.814 694.366 888.469 694.111 888.225 693.771C887.981 693.431 887.85 693.023 887.85 692.605C887.85 692.186 887.981 691.778 888.225 691.438C888.469 691.098 888.814 690.843 889.21 690.71C915.74 681.84 952.34 658.04 962.99 650.91C932.99 636.91 940.34 606.53 940.43 606.21C940.506 605.911 940.65 605.634 940.85 605.4C941.73 604.4 962.51 580.55 981.1 584.52C990.55 586.52 999.27 595.44 1003.31 607.22C1008.05 621.04 1005.31 635.49 995.67 646.86C975.37 670.86 907.96 697.95 905.1 699.09C904.874 699.179 904.633 699.226 904.39 699.23ZM896 692.54C898.82 693.46 901.61 694.32 904.33 695.12C911.33 692.27 974.05 666.36 992.69 644.28C996.9 639.462 999.758 633.614 1000.97 627.332C1002.19 621.05 1001.71 614.559 999.6 608.52C996.06 598.21 988.33 590.14 980.35 588.44C965.18 585.2 946.9 604.75 944.28 607.66C943.44 611.54 939.07 637.4 967.95 648.66C968.289 648.791 968.585 649.013 968.807 649.3C969.029 649.588 969.169 649.93 969.211 650.291C969.253 650.652 969.196 651.018 969.046 651.349C968.896 651.679 968.659 651.963 968.36 652.17C967.88 652.45 927.21 680.47 896 692.54Z" fill="#262424"/>
<path d="M797.43 639.66L829.81 651.48C829.81 651.48 848.09 645.83 842.88 624.66L810.66 607.14L797.43 639.66Z" fill="white"/>
<path d="M829.81 653.48C829.575 653.481 829.341 653.44 829.12 653.36L796.74 641.54C796.488 641.448 796.256 641.306 796.06 641.123C795.863 640.94 795.706 640.719 795.596 640.473C795.487 640.228 795.429 639.963 795.424 639.694C795.42 639.426 795.469 639.159 795.57 638.91L808.8 606.39C808.906 606.129 809.067 605.894 809.27 605.7C809.474 605.505 809.716 605.356 809.981 605.261C810.246 605.167 810.529 605.13 810.809 605.152C811.09 605.174 811.363 605.255 811.61 605.39L843.83 622.91C844.077 623.042 844.294 623.223 844.466 623.444C844.638 623.664 844.762 623.919 844.83 624.19C850.44 646.93 830.62 653.34 830.41 653.4C830.215 653.457 830.013 653.484 829.81 653.48V653.48ZM800.06 638.48L829.82 649.35C832.73 648.22 844.75 642.48 841.13 625.98L811.67 609.98L800.06 638.48Z" fill="#262424"/>
<path d="M824.14 589.33C824.14 589.33 821.48 629.99 790.14 650.66L644.81 580.66C644.81 580.66 484.81 649.33 430.14 671.99C375.47 694.65 234.14 617.99 340.14 559.99C340.14 559.99 535.14 501.48 618.07 479.17C637.99 473.8 651.43 470.53 654.14 470.66C657.67 470.83 670.24 478.47 687.07 489.8C736.92 523.36 824.14 589.33 824.14 589.33Z" fill="#88C0C2"/>
<path d="M687.07 489.8C679.59 495.25 668.95 498.66 657.14 498.66C638.85 498.66 623.35 490.47 618.07 479.17C637.99 473.8 651.43 470.53 654.14 470.66C657.67 470.83 670.24 478.47 687.07 489.8Z" fill="white"/>
<path d="M792.15 614.63C791.8 614.636 791.456 614.55 791.15 614.38L649.94 536.17L419.25 612.17C418.746 612.336 418.197 612.295 417.723 612.056C417.25 611.817 416.891 611.399 416.725 610.895C416.559 610.392 416.6 609.842 416.839 609.369C417.079 608.895 417.496 608.536 418 608.37L649.52 532.1C649.781 532.015 650.057 531.984 650.331 532.01C650.604 532.036 650.869 532.118 651.11 532.25L793.11 610.89C793.492 611.107 793.793 611.444 793.965 611.848C794.137 612.252 794.171 612.702 794.061 613.128C793.952 613.554 793.706 613.931 793.36 614.203C793.015 614.475 792.589 614.625 792.15 614.63Z" fill="#262424"/>
<path d="M646.37 575.36H646.17C645.642 575.309 645.156 575.051 644.819 574.642C644.481 574.233 644.32 573.707 644.37 573.18L650.45 510.73C650.476 510.467 650.553 510.212 650.677 509.979C650.801 509.746 650.97 509.54 651.174 509.372C651.378 509.205 651.612 509.079 651.865 509.002C652.117 508.925 652.382 508.899 652.645 508.925C652.908 508.95 653.163 509.027 653.396 509.151C653.628 509.276 653.835 509.444 654.002 509.648C654.17 509.852 654.296 510.087 654.372 510.339C654.449 510.592 654.476 510.857 654.45 511.12L648.37 573.57C648.318 574.063 648.084 574.519 647.715 574.85C647.345 575.181 646.866 575.362 646.37 575.36Z" fill="#262424"/>
<path d="M783.48 636.33C783.049 636.332 782.629 636.195 782.282 635.939C781.936 635.683 781.681 635.322 781.556 634.909C781.431 634.497 781.443 634.055 781.59 633.65C781.736 633.244 782.01 632.897 782.37 632.66C803.02 619 807.78 588.66 807.83 588.37C807.908 587.84 808.194 587.362 808.624 587.042C809.055 586.723 809.595 586.587 810.125 586.665C810.655 586.743 811.133 587.029 811.453 587.46C811.773 587.89 811.908 588.43 811.83 588.96C811.63 590.28 806.78 621.34 784.62 635.96C784.287 636.197 783.889 636.326 783.48 636.33Z" fill="#262424"/>
<path d="M679.14 1251.33C647.81 1250.99 582.14 1214.99 582.14 1214.99C580.14 1210.36 578.24 1205.61 576.46 1200.85C569.037 1180.53 562.918 1159.76 558.14 1138.66C558.14 1138.66 557.48 1120.66 573.14 1111.99C573.14 1111.99 595.14 1103.33 605.81 1117.33C616.48 1131.33 676.14 1186.66 676.14 1186.66C676.14 1186.66 707.81 1187.33 716.14 1203.33C724.47 1219.33 710.48 1251.66 679.14 1251.33Z" fill="#88C0C2"/>
<path d="M586.406 1184.16C592.14 1182.56 595 1174.86 592.795 1166.97C590.589 1159.09 584.154 1153.99 578.42 1155.59C572.686 1157.2 569.826 1164.89 572.031 1172.78C574.236 1180.67 580.672 1185.76 586.406 1184.16Z" fill="white"/>
<path d="M584.34 1186.4C578.34 1186.4 572.34 1181.05 570.15 1173.27C568.963 1169.28 569.057 1165.01 570.42 1161.08C571.86 1157.22 574.52 1154.57 577.93 1153.62C581.34 1152.67 584.99 1153.55 588.22 1156.11C591.369 1158.81 593.647 1162.39 594.764 1166.39C595.882 1170.39 595.79 1174.62 594.5 1178.57C593.06 1182.43 590.4 1185.08 586.99 1186.04C586.127 1186.28 585.236 1186.4 584.34 1186.4V1186.4ZM580.64 1157.25C580.092 1157.25 579.547 1157.32 579.02 1157.47C577.873 1157.86 576.834 1158.51 575.992 1159.38C575.15 1160.25 574.529 1161.31 574.18 1162.47C573.111 1165.61 573.052 1169 574.01 1172.18C575.91 1178.99 581.26 1183.47 585.92 1182.18C587.067 1181.79 588.106 1181.14 588.948 1180.27C589.79 1179.4 590.411 1178.34 590.76 1177.18C591.76 1174.03 591.82 1170.65 590.932 1167.47C590.044 1164.28 588.247 1161.43 585.76 1159.25C584.326 1158.02 582.517 1157.32 580.63 1157.25H580.64Z" fill="#262424"/>
<path d="M657.15 1208C656.801 1208.01 656.456 1207.92 656.15 1207.75C619.9 1187.75 577.69 1137.09 575.91 1134.94C575.588 1134.53 575.439 1134.01 575.495 1133.49C575.551 1132.97 575.807 1132.5 576.208 1132.16C576.61 1131.83 577.125 1131.67 577.645 1131.71C578.164 1131.75 578.647 1132 578.99 1132.39C579.42 1132.91 622.5 1184.66 658.08 1204.25C658.465 1204.46 658.77 1204.8 658.946 1205.2C659.122 1205.6 659.16 1206.05 659.054 1206.48C658.948 1206.91 658.704 1207.29 658.359 1207.56C658.015 1207.84 657.59 1207.99 657.15 1208Z" fill="#262424"/>
<path d="M673.81 1192.33C673.435 1192.33 673.068 1192.23 672.75 1192.03C638.24 1170.46 595.75 1123.48 595.32 1123.03C595.144 1122.83 595.009 1122.6 594.921 1122.35C594.834 1122.1 594.797 1121.84 594.812 1121.58C594.827 1121.31 594.893 1121.06 595.008 1120.82C595.123 1120.58 595.283 1120.37 595.48 1120.19C595.677 1120.01 595.907 1119.88 596.156 1119.79C596.405 1119.7 596.669 1119.67 596.933 1119.68C597.197 1119.7 597.455 1119.76 597.693 1119.88C597.931 1119.99 598.144 1120.15 598.32 1120.35C598.74 1120.82 640.87 1167.35 674.89 1188.66C675.248 1188.9 675.52 1189.24 675.668 1189.64C675.815 1190.04 675.829 1190.48 675.708 1190.89C675.587 1191.31 675.338 1191.67 674.996 1191.93C674.654 1192.18 674.238 1192.33 673.81 1192.33Z" fill="#262424"/>
<path d="M679.14 1251.33C647.81 1250.99 582.14 1214.99 582.14 1214.99C580.14 1210.36 578.24 1205.61 576.46 1200.85C604.94 1218.63 658.14 1233.66 658.14 1233.66C647.14 1200.33 676.14 1186.66 676.14 1186.66C676.14 1186.66 707.81 1187.33 716.14 1203.33C724.47 1219.33 710.48 1251.66 679.14 1251.33Z" fill="white"/>
<path d="M679.61 1253.33H679.13C647.66 1252.99 583.89 1218.22 581.19 1216.74C580.795 1216.51 580.488 1216.16 580.32 1215.74C578.32 1211.21 576.44 1206.43 574.6 1201.51C574.453 1201.12 574.433 1200.69 574.541 1200.29C574.65 1199.88 574.882 1199.52 575.205 1199.26C575.529 1199 575.927 1198.84 576.344 1198.81C576.76 1198.78 577.175 1198.89 577.53 1199.11C601.26 1213.93 642.92 1226.99 655.2 1230.67C646.91 1198.67 675.01 1184.95 675.3 1184.81C675.581 1184.68 675.889 1184.61 676.2 1184.62C677.54 1184.62 709.2 1185.51 717.93 1202.37C722.4 1210.94 721.08 1223.37 714.57 1233.94C710.95 1239.95 705.816 1244.9 699.681 1248.31C693.546 1251.71 686.625 1253.44 679.61 1253.33ZM679.17 1249.33C685.571 1249.52 691.909 1248.01 697.532 1244.94C703.156 1241.88 707.863 1237.37 711.17 1231.89C716.87 1222.6 718.17 1211.49 714.4 1204.26C707.24 1190.51 680.53 1188.85 676.61 1188.68C673.08 1190.51 650.36 1203.6 660.07 1233.04C660.183 1233.38 660.201 1233.75 660.12 1234.11C660.04 1234.46 659.866 1234.78 659.615 1235.05C659.364 1235.31 659.047 1235.5 658.698 1235.59C658.348 1235.69 657.979 1235.69 657.63 1235.59C657.13 1235.45 609.63 1221.93 580.42 1205.5C581.51 1208.26 582.62 1210.96 583.74 1213.57C590.41 1217.16 650.3 1249.02 679.2 1249.34L679.17 1249.33Z" fill="#262424"/>
<path d="M557.31 1098.16L568.81 1130.66C568.81 1130.66 584.81 1141.16 597.81 1123.66L590.81 1087.66L557.31 1098.16Z" fill="white"/>
<path d="M580.1 1135.75C575.746 1135.71 571.478 1134.53 567.72 1132.33C567.355 1132.09 567.077 1131.74 566.93 1131.33L555.43 1098.83C555.34 1098.58 555.302 1098.31 555.318 1098.04C555.335 1097.77 555.405 1097.51 555.526 1097.27C555.646 1097.02 555.814 1096.81 556.019 1096.64C556.224 1096.46 556.463 1096.33 556.72 1096.25L590.22 1085.75C590.489 1085.67 590.772 1085.64 591.052 1085.67C591.331 1085.71 591.601 1085.8 591.842 1085.94C592.084 1086.09 592.293 1086.28 592.454 1086.51C592.616 1086.74 592.727 1087 592.78 1087.28L599.78 1123.28C599.832 1123.55 599.827 1123.83 599.765 1124.1C599.703 1124.37 599.586 1124.63 599.42 1124.85C593.06 1133.41 586 1135.75 580.1 1135.75ZM570.46 1129.31C573.19 1130.84 585.26 1136.45 595.68 1123.16L589.28 1090.24L559.89 1099.45L570.46 1129.31Z" fill="#262424"/>
<path d="M604.14 1081.33C578.14 1119.99 534.81 1101.99 534.81 1101.99C510.14 1046.66 453.48 875.99 453.48 875.99L269.48 669.99C269.48 669.99 231.48 591.33 288.81 558.66C346.14 525.99 394.14 595.33 394.14 595.33L518.88 792.88L541.48 828.66L553.71 878L604.14 1081.33Z" fill="#88C0C2"/>
<path d="M435.91 663.47C435.573 663.47 435.241 663.385 434.945 663.223C434.65 663.06 434.4 662.825 434.22 662.54L392.45 596.4C392.37 596.29 379.87 578.4 360.45 565.45C360.231 565.305 360.043 565.117 359.897 564.899C359.751 564.68 359.649 564.435 359.598 564.178C359.546 563.92 359.546 563.655 359.597 563.397C359.648 563.139 359.749 562.894 359.895 562.675C360.041 562.457 360.228 562.269 360.446 562.123C360.665 561.976 360.91 561.875 361.167 561.823C361.425 561.771 361.69 561.771 361.948 561.822C362.206 561.873 362.451 561.975 362.67 562.12C375.444 570.856 386.641 581.701 395.78 594.19L437.59 660.4C437.781 660.702 437.888 661.05 437.899 661.407C437.911 661.764 437.826 662.117 437.655 662.43C437.483 662.744 437.231 663.005 436.924 663.188C436.617 663.371 436.267 663.469 435.91 663.47V663.47Z" fill="#262424"/>
<path d="M414.88 630.17C414.579 630.177 414.28 630.115 414.007 629.99C413.733 629.865 413.491 629.68 413.298 629.448C413.106 629.216 412.969 628.944 412.896 628.652C412.824 628.36 412.818 628.055 412.88 627.76L416.63 609.85C417.509 605.686 416.753 601.343 414.52 597.72L387.11 553C386.842 552.548 386.763 552.009 386.89 551.5C387.016 550.99 387.338 550.551 387.786 550.276C388.234 550.002 388.771 549.915 389.283 550.033C389.794 550.152 390.239 550.467 390.52 550.91L418 595.62C420.76 600.101 421.698 605.469 420.62 610.62L416.87 628.53C416.785 628.994 416.539 629.414 416.175 629.714C415.81 630.014 415.352 630.176 414.88 630.17V630.17Z" fill="#262424"/>
<path d="M553.71 878C553.21 878.22 552.71 878.43 552.18 878.62C534.04 885.29 512.18 871.37 503.46 847.53C494.96 824.39 501.87 800.39 518.88 792.92L541.48 828.7L553.71 878Z" fill="white"/>
<path d="M545.15 1075.66C544.738 1075.66 544.336 1075.53 543.999 1075.29C543.663 1075.05 543.408 1074.72 543.27 1074.33C519.5 1007.52 476.27 876.33 473.71 868.4L287.95 646.61C287.604 646.206 287.433 645.68 287.474 645.149C287.515 644.619 287.765 644.126 288.17 643.78C288.574 643.434 289.1 643.263 289.63 643.304C290.161 643.345 290.654 643.596 291 644L477 866.13C477.164 866.324 477.29 866.548 477.37 866.79C477.82 868.16 522.64 1004.48 547.02 1072.99C547.127 1073.29 547.16 1073.61 547.117 1073.93C547.075 1074.24 546.957 1074.55 546.774 1074.81C546.591 1075.07 546.348 1075.28 546.065 1075.43C545.783 1075.58 545.469 1075.66 545.15 1075.66Z" fill="#262424"/>
<path d="M457.48 877.33C457.023 877.331 456.58 877.174 456.224 876.888C455.869 876.601 455.622 876.201 455.525 875.755C455.428 875.309 455.487 874.842 455.691 874.434C455.896 874.026 456.234 873.7 456.65 873.51L491.32 857.68C491.803 857.46 492.353 857.441 492.85 857.626C493.347 857.812 493.75 858.188 493.97 858.67C494.19 859.153 494.21 859.703 494.024 860.2C493.838 860.697 493.463 861.1 492.98 861.32L458.31 877.15C458.049 877.269 457.766 877.33 457.48 877.33Z" fill="#262424"/>
<path d="M552.82 1090.9C546.921 1090.93 541.04 1090.26 535.3 1088.9C534.804 1088.75 534.386 1088.42 534.131 1087.97C533.877 1087.52 533.808 1086.98 533.937 1086.48C534.067 1085.98 534.385 1085.55 534.826 1085.28C535.266 1085.01 535.795 1084.92 536.3 1085.03C536.64 1085.12 570.86 1093.78 594.07 1071.52C594.453 1071.15 594.967 1070.95 595.497 1070.96C596.028 1070.97 596.533 1071.2 596.9 1071.58C597.267 1071.96 597.467 1072.48 597.456 1073.01C597.445 1073.54 597.223 1074.04 596.84 1074.41C582.84 1087.89 565.52 1090.9 552.82 1090.9Z" fill="#262424"/>
<path d="M306.81 287.16C306.81 287.16 454.5 362.55 463.5 401.55C472.5 440.55 414.31 452.16 360.31 404.66C306.31 357.16 306.81 287.16 306.81 287.16Z" fill="#8C30F5"/>
<path d="M421.48 389.5C415.16 392.19 414.98 403.67 418.15 417.5C421.32 431.33 451.82 431.17 455.15 426.17C458.48 421.17 456.98 402.34 453.32 397.17C449.66 392 429.31 386.16 421.48 389.5Z" fill="white"/>
<path d="M442.61 431.26C439.639 431.26 436.674 430.996 433.75 430.47C423.87 428.66 417.63 424.21 416.2 417.93C413.5 406.14 412.09 391.31 420.7 387.64C429.24 384.01 450.75 390.08 454.95 395.99C458.95 401.67 460.78 421.32 456.82 427.26C455 430 449.06 431.26 442.61 431.26ZM422.27 391.33C417.68 393.33 416.86 402.9 420.1 417.04C421.58 423.5 430.64 425.83 434.47 426.53C443.74 428.23 452.47 426.53 453.47 425.04C456.19 420.96 454.98 402.97 451.67 398.31C448.67 394.08 429.51 388.24 422.25 391.31L422.27 391.33Z" fill="#262424"/>
<path d="M407 390.16C398.61 391.56 402.67 410.99 405 420.16C407.33 429.33 421 432.66 420.5 420.16C420 407.66 417 388.5 407 390.16Z" fill="white"/>
<path d="M414.63 430.33C410.02 430.33 404.63 426.72 403.04 420.65C399.27 405.86 398.91 395.98 401.97 391.3C402.484 390.477 403.168 389.774 403.975 389.236C404.781 388.698 405.693 388.338 406.65 388.18V388.18C407.884 387.959 409.152 388.014 410.362 388.341C411.572 388.667 412.695 389.258 413.65 390.07C420.74 395.84 422.17 412.98 422.45 420.07C422.79 428.55 417.45 430 415.8 430.24C415.413 430.297 415.022 430.327 414.63 430.33ZM407.31 392.13C406.897 392.194 406.503 392.35 406.157 392.585C405.812 392.82 405.522 393.129 405.31 393.49C403 397.04 403.58 406.58 406.91 419.66C408.01 423.98 412.22 426.72 415.24 426.28C418.26 425.84 418.56 422.28 418.47 420.28C418.05 409.74 415.9 397.09 411.14 393.22C410.618 392.772 410.001 392.45 409.335 392.277C408.67 392.103 407.974 392.084 407.3 392.22V392.22L407.31 392.13Z" fill="#262424"/>
<path d="M275.48 701.33C275.48 701.33 330.81 605.33 466.15 518L386.15 459.33C386.15 459.33 367.48 369.16 306.82 287.16C306.82 287.16 254.82 273.99 224.82 276.66C194.82 279.33 152.15 343.33 152.15 343.33C152.15 343.33 180.15 520.01 197.48 578.68C214.81 637.35 275.48 701.33 275.48 701.33Z" fill="#8C30F5"/>
<path d="M264.54 378.72C263.735 378.75 262.933 378.617 262.18 378.33C260.96 377.79 259.91 377.33 252.6 351.17C249.1 338.67 245.84 326.17 245.81 326.01C245.733 325.752 245.709 325.482 245.738 325.214C245.768 324.947 245.852 324.688 245.984 324.454C246.116 324.22 246.294 324.014 246.508 323.851C246.721 323.687 246.965 323.568 247.226 323.5C247.486 323.433 247.758 323.419 248.024 323.459C248.29 323.499 248.545 323.592 248.774 323.733C249.003 323.874 249.202 324.06 249.357 324.279C249.513 324.499 249.623 324.747 249.68 325.01C255.32 346.69 262.14 370.86 264.15 374.74C267.121 374.641 270.028 373.85 272.64 372.43C274.28 371.51 275.31 370.48 275.55 369.53C276.18 366.53 269.7 342.67 263.08 321.36C262.922 320.854 262.972 320.305 263.219 319.835C263.465 319.366 263.889 319.013 264.395 318.855C264.902 318.697 265.45 318.747 265.92 318.994C266.39 319.24 266.742 319.664 266.9 320.17C270.16 330.68 280.72 365.35 279.43 370.5C278.85 372.81 276.86 374.85 273.66 376.41C270.808 377.791 267.705 378.577 264.54 378.72Z" fill="#262424"/>
<path d="M269.48 672C269.105 672 268.738 671.895 268.419 671.697C268.101 671.499 267.845 671.215 267.68 670.878C267.516 670.542 267.449 670.165 267.488 669.793C267.527 669.42 267.669 669.065 267.9 668.77C268.76 667.67 354.7 558 442.09 513.47C442.325 513.341 442.583 513.26 442.849 513.233C443.115 513.206 443.384 513.232 443.64 513.311C443.896 513.389 444.133 513.519 444.338 513.691C444.543 513.863 444.712 514.074 444.833 514.312C444.955 514.551 445.028 514.811 445.047 515.078C445.067 515.345 445.032 515.613 444.946 515.866C444.86 516.12 444.724 516.353 444.546 516.553C444.368 516.753 444.152 516.915 443.91 517.03C357.31 561.15 271.91 670.12 271.07 671.22C270.883 671.463 270.642 671.66 270.366 671.795C270.09 671.93 269.787 672 269.48 672Z" fill="#262424"/>
<path d="M371.14 411.2C370.729 411.2 370.328 411.073 369.992 410.837C369.655 410.601 369.4 410.267 369.26 409.88C359.07 381.68 340.91 339.42 312.26 298.23C311.958 297.794 311.841 297.255 311.936 296.733C312.03 296.211 312.329 295.748 312.765 295.445C313.201 295.143 313.74 295.026 314.262 295.121C314.784 295.216 315.248 295.514 315.55 295.95C344.42 337.49 362.73 380.1 373 408.52C373.109 408.821 373.144 409.143 373.102 409.459C373.061 409.776 372.944 410.078 372.762 410.341C372.58 410.603 372.338 410.818 372.056 410.968C371.773 411.117 371.459 411.197 371.14 411.2Z" fill="#262424"/>
<path d="M273.31 294.41C272.57 305.67 262.84 314.41 262.84 314.41C260.84 308.23 254.34 297.98 247.67 289.53C247.67 289.53 244.91 304.53 243.12 317.22C235.75 318.77 206.03 318.59 197.75 301.22C197.75 301.22 199.12 263.89 234.75 261.22C250.07 260.14 268.42 274.3 273.31 294.41Z" fill="white"/>
<path d="M235 319.83C222.65 319.83 202.8 316.52 195.91 302.1C195.771 301.807 195.706 301.484 195.72 301.16C195.72 300.77 197.58 262.01 234.56 259.28C251.72 258.01 270.34 273.87 275.22 293.93C275.267 294.127 275.284 294.329 275.27 294.53C274.49 306.47 264.56 315.53 264.14 315.87C263.893 316.091 263.595 316.247 263.272 316.324C262.95 316.401 262.613 316.397 262.293 316.311C261.973 316.226 261.679 316.063 261.437 315.835C261.196 315.608 261.015 315.325 260.91 315.01C259.3 310.14 254.6 302.16 248.81 294.33C247.81 299.74 246.25 309.17 245.07 317.48C245.013 317.888 244.832 318.268 244.551 318.568C244.27 318.869 243.903 319.076 243.5 319.16C240.694 319.653 237.848 319.877 235 319.83V319.83ZM199.74 300.83C207.28 315.55 232.84 316.56 241.31 315.47C243.08 303.24 245.64 289.3 245.66 289.15C245.729 288.771 245.905 288.42 246.169 288.139C246.433 287.858 246.772 287.659 247.146 287.566C247.519 287.473 247.912 287.49 248.277 287.615C248.641 287.74 248.962 287.967 249.2 288.27C254.44 294.91 260.5 303.94 263.52 310.76C266.22 307.69 270.67 301.63 271.25 294.58C266.25 274.58 248.43 262.26 234.85 263.27C220.85 264.27 210.67 270.99 204.64 283.13C201.955 288.685 200.308 294.683 199.78 300.83H199.74Z" fill="#262424"/>
<path d="M318.65 457.16L334.15 449.49C334.15 449.49 354.15 423.32 357.98 418.66C361.81 414 396.31 429.33 398.31 431.99C400.31 434.65 398.81 439.16 395.81 440.32C398.434 443.892 400.204 448.019 400.984 452.382C401.764 456.745 401.533 461.23 400.31 465.49C396.14 480.16 370.48 467.32 370.48 467.32C370.48 467.32 363.65 486.65 356.15 488.65C348.65 490.65 328.82 486.15 328.82 486.15L318.65 457.16Z" fill="white"/>
<path d="M351 491.16C341.91 491.16 329 488.26 328.34 488.11C328.011 488.034 327.706 487.876 327.454 487.65C327.202 487.425 327.011 487.139 326.9 486.82L316.73 457.82C316.57 457.36 316.583 456.857 316.767 456.406C316.951 455.955 317.294 455.586 317.73 455.37L332.81 447.91C335.36 444.58 352.81 421.79 356.4 417.39C357.33 416.26 358.9 415.73 361.18 415.79C371.27 416.01 397.64 427.79 399.88 430.79C400.526 431.695 400.953 432.738 401.127 433.837C401.3 434.935 401.216 436.059 400.88 437.12C400.482 438.554 399.697 439.852 398.61 440.87C400.955 444.572 402.489 448.73 403.109 453.069C403.73 457.407 403.423 461.828 402.21 466.04C401.812 467.641 401.05 469.13 399.984 470.389C398.917 471.648 397.574 472.644 396.06 473.3C388.38 476.68 376.33 472.13 371.57 470.05C369.47 475.43 363.57 488.74 356.63 490.6C354.784 491.02 352.893 491.208 351 491.16ZM330.3 484.45C336.41 485.76 350.19 488.17 355.6 486.73C360.32 485.47 366.06 473.73 368.6 466.66C368.695 466.393 368.845 466.149 369.041 465.944C369.237 465.74 369.475 465.579 369.738 465.473C370.001 465.367 370.283 465.318 370.566 465.33C370.849 465.341 371.127 465.413 371.38 465.54C375.61 467.65 388 472.54 394.49 469.64C395.462 469.216 396.321 468.572 397 467.758C397.679 466.943 398.158 465.982 398.4 464.95C399.55 461.002 399.777 456.843 399.063 452.794C398.348 448.745 396.712 444.915 394.28 441.6C394.08 441.356 393.941 441.068 393.874 440.759C393.806 440.451 393.813 440.131 393.893 439.826C393.973 439.521 394.124 439.239 394.334 439.003C394.544 438.767 394.806 438.585 395.1 438.47C395.595 438.239 396.032 437.9 396.378 437.478C396.724 437.055 396.971 436.56 397.1 436.03C397.26 435.562 397.312 435.065 397.251 434.574C397.19 434.084 397.019 433.614 396.75 433.2C393.67 430.09 363.11 417.6 359.5 420C355.8 424.52 335.97 450.45 335.77 450.72C335.584 450.964 335.345 451.163 335.07 451.3L321.16 458.18L330.3 484.45Z" fill="#262424"/>
<path d="M395.81 442.33C395.542 442.33 395.277 442.275 395.03 442.17L367.53 430.5C367.278 430.405 367.049 430.26 366.854 430.073C366.66 429.887 366.505 429.663 366.4 429.416C366.294 429.168 366.239 428.902 366.239 428.633C366.238 428.364 366.292 428.097 366.397 427.849C366.502 427.601 366.656 427.377 366.85 427.191C367.044 427.004 367.273 426.858 367.525 426.762C367.776 426.666 368.044 426.621 368.313 426.631C368.582 426.641 368.847 426.706 369.09 426.82L396.59 438.49C397.014 438.671 397.362 438.992 397.577 439.4C397.791 439.808 397.858 440.277 397.766 440.728C397.675 441.18 397.43 441.586 397.073 441.877C396.717 442.169 396.271 442.329 395.81 442.33Z" fill="#262424"/>
<path d="M340.14 491.33C340.14 491.33 269.93 565.78 236.78 587.79C235.14 588.876 233.593 589.833 232.14 590.66C213 601.48 193.59 604 176.35 578.54C166 563.24 156.41 537.81 148.14 498C126.14 392 152.14 343.34 152.14 343.34C170.81 333.67 216.48 347.67 220.81 391.67C225.14 435.67 239.14 485.34 239.14 485.34L323.48 451.34L340.14 491.33Z" fill="#8C30F5"/>
<path d="M241.7 586.35C241.279 586.349 240.87 586.215 240.53 585.967C240.19 585.72 239.936 585.371 239.806 584.972C239.675 584.572 239.674 584.141 239.802 583.74C239.93 583.34 240.181 582.99 240.52 582.74C272.45 559.35 329.96 499.16 337.8 490.9L322.4 453.9L239.89 487.16C239.63 487.265 239.351 487.313 239.07 487.303C238.79 487.293 238.515 487.224 238.263 487.1C238.011 486.976 237.788 486.801 237.609 486.586C237.429 486.371 237.297 486.12 237.22 485.85C237.08 485.35 223.12 435.5 218.82 391.85C216.93 372.63 207.09 361 199.18 354.63C188.37 345.93 173.61 341.23 161.58 342.63C161.317 342.661 161.051 342.64 160.797 342.568C160.542 342.496 160.305 342.374 160.097 342.211C159.678 341.88 159.407 341.396 159.345 340.865C159.283 340.335 159.434 339.801 159.765 339.382C160.096 338.963 160.58 338.692 161.11 338.63C174.35 337.06 189.9 341.98 201.69 351.46C210.2 358.31 220.78 370.8 222.81 391.4C226.57 429.58 237.81 472.57 240.49 482.57L322.75 449.41C323.238 449.215 323.784 449.22 324.269 449.424C324.753 449.628 325.138 450.014 325.34 450.5L342 490.5C342.148 490.856 342.191 491.248 342.121 491.628C342.052 492.008 341.875 492.359 341.61 492.64C340.97 493.32 277.32 560.64 242.89 585.9C242.553 586.176 242.135 586.334 241.7 586.35Z" fill="#262424"/>
<path d="M210.15 547.33C209.848 547.329 209.55 547.26 209.278 547.127C209.006 546.995 208.768 546.803 208.581 546.565C208.394 546.327 208.264 546.05 208.2 545.755C208.136 545.46 208.139 545.153 208.21 544.86C208.5 543.67 215.52 515.5 234.21 491.12C234.543 490.731 235.012 490.484 235.521 490.431C236.03 490.377 236.54 490.521 236.946 490.833C237.353 491.144 237.624 491.599 237.705 492.105C237.785 492.61 237.669 493.127 237.38 493.55C219.2 517.25 212.14 545.55 212.07 545.81C211.964 546.24 211.717 546.623 211.37 546.898C211.022 547.173 210.593 547.325 210.15 547.33Z" fill="#262424"/>
<path d="M236.81 586.66C236.81 587.04 236.81 587.41 236.81 587.79C235.17 588.877 233.623 589.833 232.17 590.66C213 601.48 193.59 604 176.35 578.54C180.42 568.16 192.07 560.66 205.81 560.66C222.93 560.66 236.81 572.3 236.81 586.66Z" fill="white"/>
<path d="M315.48 502.66C315.15 502.661 314.825 502.581 314.533 502.425C314.242 502.27 313.993 502.045 313.81 501.77C302.93 485.45 302.81 465.82 302.81 464.99C302.81 464.46 303.021 463.951 303.396 463.576C303.771 463.201 304.28 462.99 304.81 462.99C305.34 462.99 305.849 463.201 306.224 463.576C306.599 463.951 306.81 464.46 306.81 464.99C306.81 465.18 306.95 484.27 317.14 499.55C317.341 499.851 317.456 500.201 317.474 500.562C317.492 500.924 317.411 501.283 317.241 501.602C317.07 501.921 316.817 502.188 316.507 502.374C316.197 502.561 315.842 502.66 315.48 502.66Z" fill="#262424"/>
<path d="M324.31 492C327.348 492 329.81 489.538 329.81 486.5C329.81 483.462 327.348 481 324.31 481C321.272 481 318.81 483.462 318.81 486.5C318.81 489.538 321.272 492 324.31 492Z" fill="white"/>
<path d="M324.31 494C322.827 494 321.377 493.56 320.143 492.736C318.91 491.912 317.949 490.741 317.381 489.37C316.813 488 316.665 486.492 316.954 485.037C317.244 483.582 317.958 482.246 319.007 481.197C320.056 480.148 321.392 479.434 322.847 479.144C324.302 478.855 325.81 479.003 327.18 479.571C328.551 480.139 329.722 481.1 330.546 482.333C331.37 483.567 331.81 485.017 331.81 486.5C331.807 488.488 331.016 490.394 329.61 491.8C328.205 493.206 326.298 493.997 324.31 494V494ZM324.31 483C323.618 483 322.941 483.205 322.366 483.59C321.79 483.974 321.341 484.521 321.076 485.161C320.812 485.8 320.742 486.504 320.877 487.183C321.012 487.862 321.346 488.485 321.835 488.975C322.325 489.464 322.948 489.798 323.627 489.933C324.306 490.068 325.01 489.998 325.649 489.734C326.289 489.469 326.836 489.02 327.22 488.444C327.605 487.869 327.81 487.192 327.81 486.5C327.81 485.572 327.441 484.682 326.785 484.025C326.129 483.369 325.238 483 324.31 483V483Z" fill="#262424"/>
<path d="M212.1 218L213.56 239.91L216 277.41C229 285.73 241.28 286.17 252.77 276.81L250.34 259.45L246.66 233.16L212.1 218Z" fill="white"/>
<path d="M234.91 285.74C228.53 285.74 221.88 283.527 214.96 279.1C214.696 278.932 214.475 278.704 214.316 278.435C214.156 278.165 214.061 277.862 214.04 277.55L210.1 218.17C210.07 217.824 210.132 217.477 210.277 217.161C210.423 216.846 210.648 216.574 210.93 216.373C211.213 216.171 211.543 216.046 211.888 216.01C212.234 215.975 212.582 216.03 212.9 216.17L247.5 231.3C247.814 231.437 248.087 231.653 248.294 231.926C248.5 232.199 248.633 232.521 248.68 232.86L254.79 276.51C254.838 276.851 254.797 277.199 254.67 277.52C254.544 277.84 254.338 278.123 254.07 278.34C248 283.28 241.63 285.74 234.91 285.74ZM218 276.26C230 283.67 240.76 283.57 250.7 275.95L244.91 234.54L214.35 221.17L218 276.26Z" fill="#262424"/>
<path d="M278.67 218.22C277.3 236.32 272.61 258.04 250.87 255.22C225.02 251.87 207.92 234.09 207.07 209.6C206.22 185.11 217.16 171.01 246.57 173.07C249.074 173.238 251.559 173.616 254 174.2C271 178.32 279.84 192.1 279.2 208.54C279.08 211.52 278.94 214.8 278.67 218.22Z" fill="white"/>
<path d="M254.55 257.47C253.232 257.469 251.916 257.382 250.61 257.21C240.614 256.074 231.107 252.275 223.08 246.21C222.662 245.883 222.392 245.403 222.328 244.876C222.264 244.349 222.412 243.818 222.74 243.4C223.067 242.983 223.548 242.712 224.075 242.648C224.602 242.585 225.132 242.733 225.55 243.06C233.009 248.692 241.843 252.218 251.13 253.27C257.13 254.04 261.86 252.91 265.67 249.81C273.9 243.11 275.9 228.5 276.67 218.1C276.93 214.71 277.07 211.5 277.19 208.5C277.82 192.26 268.75 179.88 253.52 176.18C253.004 176.056 252.559 175.731 252.282 175.278C252.006 174.825 251.92 174.281 252.045 173.765C252.17 173.25 252.494 172.804 252.947 172.528C253.4 172.251 253.944 172.166 254.46 172.29C271.66 176.46 281.9 190.4 281.19 208.65C281.08 211.55 280.93 214.94 280.66 218.4C279.82 229.53 277.66 245.23 268.18 252.91C264.314 255.986 259.488 257.601 254.55 257.47Z" fill="#262424"/>
<path d="M199.52 214.4C202.089 217.929 204.96 221.228 208.1 224.26L221.1 224.74L223.64 215.48C223.64 215.48 231.87 214.91 233.43 209.3C233.471 209.172 233.505 209.042 233.53 208.91C233.92 207.08 235.4 198.91 233.85 186.32C233.85 186.32 253.85 194.57 264.69 195.43C268.58 195.74 273.07 194.14 277.23 191.95C285.56 187.57 292.59 173.63 290.89 164.37V164.19C288.23 150.62 281.37 160.24 281.37 160.24C281.37 160.24 279.06 149.32 272.17 148.7C265.28 148.08 261.17 158.33 261.17 158.33C247.9 155.591 234.233 155.367 220.88 157.67C194.41 162.4 201.49 180.53 201.49 180.53C201.49 180.53 182.06 187.29 199.52 214.4Z" fill="#262424"/>
<path d="M218.25 223.4C219.11 213.14 211.67 203.81 201.41 202.89C199.233 202.682 197.037 202.893 194.94 203.51C182.35 207.25 186.42 236.69 217.39 233.65L218.25 223.4Z" fill="white"/>
<path d="M213.13 235.88C197.35 235.88 188.49 227.05 186.65 217.62C185.18 210.11 188.43 203.37 194.39 201.62C196.727 200.931 199.174 200.694 201.6 200.92C207.067 201.481 212.093 204.177 215.584 208.421C219.076 212.666 220.753 218.116 220.25 223.59C220.206 224.12 219.954 224.611 219.547 224.955C219.141 225.3 218.615 225.468 218.085 225.425C217.555 225.381 217.063 225.128 216.719 224.722C216.375 224.316 216.206 223.79 216.25 223.26C216.667 218.843 215.326 214.439 212.518 211.004C209.71 207.569 205.662 205.379 201.25 204.91C199.326 204.728 197.384 204.915 195.53 205.46C191.59 206.63 189.53 211.46 190.53 216.88C192.07 224.77 199.98 233.38 217.16 231.7C217.69 231.648 218.22 231.809 218.631 232.148C219.043 232.486 219.303 232.974 219.355 233.505C219.407 234.035 219.246 234.564 218.907 234.976C218.569 235.388 218.08 235.648 217.55 235.7C216.03 235.82 214.557 235.88 213.13 235.88Z" fill="#262424"/>
<path d="M589.193 334.945L492.728 402C487.022 405.966 485.611 413.807 489.578 419.514L489.584 419.522C493.55 425.228 501.391 426.638 507.098 422.672L603.562 355.617C609.269 351.651 610.679 343.809 606.713 338.103L606.707 338.095C602.74 332.389 594.899 330.978 589.193 334.945Z" fill="white"/>
<path d="M500.6 430.28C499.698 430.279 498.797 430.196 497.91 430.03C495.068 429.506 492.445 428.151 490.373 426.135C488.302 424.119 486.875 421.534 486.275 418.707C485.674 415.879 485.926 412.938 486.998 410.254C488.071 407.57 489.916 405.265 492.3 403.63L589.25 337C592.442 334.807 596.374 333.971 600.182 334.677C603.99 335.383 607.362 337.573 609.555 340.765C611.748 343.957 612.584 347.89 611.878 351.697C611.172 355.505 608.982 358.877 605.79 361.07V361.07L508.84 427.7C506.419 429.377 503.545 430.277 500.6 430.28ZM597.49 338.43C595.346 338.428 593.253 339.081 591.49 340.3L494.54 406.93C493.392 407.718 492.411 408.724 491.652 409.892C490.893 411.059 490.372 412.364 490.117 413.733C489.863 415.101 489.881 416.507 490.169 417.869C490.458 419.231 491.012 420.522 491.8 421.67C492.588 422.818 493.594 423.799 494.761 424.558C495.929 425.317 497.234 425.839 498.603 426.093C499.971 426.347 501.377 426.33 502.739 426.041C504.101 425.752 505.392 425.198 506.54 424.41L603.49 357.78L604.62 359.43L603.49 357.78C605.222 356.594 606.562 354.921 607.342 352.972C608.122 351.023 608.305 348.887 607.869 346.833C607.433 344.78 606.397 342.903 604.893 341.439C603.389 339.975 601.484 338.99 599.42 338.61C598.786 338.496 598.144 338.439 597.5 338.44L597.49 338.43Z" fill="#262424"/>
<path d="M501.295 399.893L351.873 502.588C346.138 506.529 344.684 514.374 348.625 520.109L348.631 520.117C352.572 525.852 360.417 527.306 366.152 523.364L515.574 420.669C521.309 416.728 522.763 408.883 518.821 403.148L518.816 403.14C514.874 397.405 507.03 395.951 501.295 399.893Z" fill="white"/>
<path d="M359 527.57C358.098 527.57 357.197 527.486 356.31 527.32C353.468 526.797 350.844 525.441 348.773 523.425C346.702 521.409 345.275 518.824 344.675 515.997C344.074 513.17 344.326 510.228 345.398 507.544C346.471 504.86 348.316 502.555 350.7 500.92L500.16 398.24C503.352 396.047 507.284 395.212 511.092 395.918C514.9 396.624 518.272 398.814 520.465 402.005C522.658 405.197 523.494 409.13 522.788 412.938C522.082 416.746 519.892 420.117 516.7 422.31L367.28 525C364.847 526.681 361.958 527.578 359 527.57V527.57ZM508.41 399.67C506.266 399.669 504.173 400.321 502.41 401.54L353 504.23C351.852 505.018 350.871 506.025 350.112 507.192C349.353 508.359 348.832 509.664 348.577 511.033C348.323 512.402 348.34 513.807 348.629 515.169C348.918 516.531 349.472 517.823 350.26 518.97C351.048 520.118 352.054 521.099 353.221 521.858C354.389 522.617 355.694 523.139 357.063 523.393C358.431 523.648 359.837 523.63 361.199 523.341C362.561 523.053 363.852 522.498 365 521.71L514.43 419C516.162 417.814 517.502 416.141 518.282 414.192C519.061 412.243 519.245 410.107 518.809 408.054C518.373 406.001 517.337 404.123 515.833 402.659C514.329 401.195 512.424 400.211 510.36 399.83C509.716 399.718 509.064 399.664 508.41 399.67V399.67Z" fill="#262424"/>
<path d="M539.51 187.15L458.16 243.06C455.516 244.881 453.502 247.479 452.399 250.494C451.295 253.509 451.156 256.793 452 259.89L488.93 395.78C489.255 396.991 489.866 398.105 490.712 399.029C491.557 399.954 492.613 400.661 493.79 401.092C494.967 401.522 496.23 401.663 497.472 401.503C498.715 401.342 499.901 400.886 500.93 400.171L582.28 344.26C584.924 342.442 586.938 339.846 588.043 336.833C589.149 333.82 589.291 330.538 588.45 327.44L551.47 191.54C551.143 190.337 550.532 189.229 549.689 188.309C548.846 187.39 547.795 186.685 546.624 186.256C545.453 185.826 544.196 185.683 542.958 185.838C541.721 185.994 540.538 186.444 539.51 187.15V187.15Z" fill="white"/>
<path d="M496.48 403.56C495.316 403.559 494.162 403.353 493.07 402.95C491.596 402.415 490.274 401.531 489.217 400.372C488.16 399.214 487.399 397.817 487 396.3L450.06 260.41C449.115 256.908 449.281 253.199 450.535 249.796C451.789 246.392 454.069 243.462 457.06 241.41L538.41 185.5L539.54 187.15L538.41 185.5C539.701 184.618 541.184 184.056 542.735 183.863C544.287 183.67 545.862 183.851 547.33 184.39C548.798 184.929 550.115 185.811 551.173 186.963C552.231 188.114 552.998 189.502 553.41 191.01L590.34 326.9C591.285 330.402 591.119 334.111 589.865 337.515C588.611 340.918 586.331 343.848 583.34 345.9L502 401.82C500.379 402.947 498.454 403.554 496.48 403.56V403.56ZM543.91 187.77C542.744 187.765 541.604 188.114 540.64 188.77L459.29 244.68C456.987 246.265 455.232 248.525 454.269 251.149C453.305 253.773 453.18 256.632 453.91 259.33L490.84 395.22C491.083 396.117 491.537 396.942 492.164 397.627C492.791 398.312 493.573 398.836 494.445 399.156C495.316 399.477 496.252 399.583 497.173 399.467C498.095 399.352 498.975 399.016 499.74 398.49L581.09 342.58C583.38 341.001 585.125 338.752 586.088 336.142C587.051 333.532 587.185 330.689 586.47 328L549.54 192.06C549.301 191.162 548.848 190.335 548.22 189.65C547.591 188.966 546.805 188.444 545.93 188.13C545.286 187.893 544.606 187.772 543.92 187.77H543.91Z" fill="#262424"/>
<path d="M549 180.63L467.65 236.54C465.006 238.359 462.992 240.954 461.887 243.968C460.781 246.981 460.639 250.263 461.48 253.36L498.4 389.26C498.725 390.47 499.336 391.585 500.182 392.509C501.027 393.433 502.083 394.141 503.26 394.571C504.437 395.002 505.7 395.143 506.942 394.982C508.185 394.822 509.371 394.365 510.4 393.65L591.75 337.74C594.394 335.921 596.408 333.326 597.513 330.313C598.619 327.299 598.761 324.017 597.92 320.92L561 185C560.673 183.792 560.06 182.679 559.213 181.757C558.366 180.835 557.31 180.13 556.134 179.702C554.957 179.274 553.695 179.134 552.454 179.296C551.212 179.457 550.028 179.915 549 180.63V180.63Z" fill="white"/>
<path d="M506 397C504.836 396.999 503.682 396.793 502.59 396.39C501.114 395.859 499.788 394.977 498.727 393.82C497.667 392.664 496.902 391.267 496.5 389.75L459.54 253.89C458.595 250.388 458.761 246.679 460.015 243.276C461.269 239.872 463.549 236.942 466.54 234.89L547.86 179C549.151 178.118 550.634 177.556 552.185 177.363C553.737 177.17 555.312 177.351 556.78 177.89C558.248 178.429 559.565 179.311 560.623 180.463C561.681 181.614 562.448 183.002 562.86 184.51L599.79 320.4C600.735 323.902 600.569 327.611 599.315 331.015C598.061 334.418 595.781 337.348 592.79 339.4L511.5 395.3C509.88 396.409 507.963 397.001 506 397V397ZM553.4 181.25C552.234 181.245 551.094 181.594 550.13 182.25L468.78 238.16C466.477 239.745 464.722 242.005 463.759 244.629C462.795 247.253 462.67 250.112 463.4 252.81L500.33 388.7C500.573 389.597 501.026 390.422 501.654 391.107C502.281 391.792 503.063 392.316 503.935 392.636C504.806 392.957 505.742 393.063 506.663 392.947C507.585 392.832 508.465 392.496 509.23 391.97L590.58 336.06C592.885 334.483 594.643 332.23 595.614 329.612C596.585 326.994 596.72 324.139 596 321.44L559 185.55C558.761 184.652 558.308 183.825 557.679 183.14C557.051 182.456 556.265 181.934 555.39 181.62C554.753 181.382 554.08 181.257 553.4 181.25Z" fill="#262424"/>
<path d="M1425.77 773.42C1425.24 773.42 1424.73 773.209 1424.36 772.834C1423.98 772.459 1423.77 771.95 1423.77 771.42V761.18C1423.77 760.649 1423.98 760.141 1424.36 759.766C1424.73 759.39 1425.24 759.18 1425.77 759.18C1426.3 759.18 1426.81 759.39 1427.18 759.766C1427.56 760.141 1427.77 760.649 1427.77 761.18V771.42C1427.77 771.95 1427.56 772.459 1427.18 772.834C1426.81 773.209 1426.3 773.42 1425.77 773.42Z" fill="#262424"/>
<path d="M1441.21 778.62H1431C1430.47 778.62 1429.96 778.409 1429.59 778.034C1429.21 777.659 1429 777.151 1429 776.62C1429 776.09 1429.21 775.581 1429.59 775.206C1429.96 774.831 1430.47 774.62 1431 774.62H1441.24C1441.77 774.624 1442.28 774.839 1442.65 775.216C1443.02 775.594 1443.23 776.105 1443.22 776.635C1443.22 777.166 1443.01 777.673 1442.63 778.045C1442.25 778.417 1441.74 778.624 1441.21 778.62Z" fill="#262424"/>
<path d="M1425.77 794.07C1425.24 794.07 1424.73 793.859 1424.36 793.484C1423.98 793.109 1423.77 792.601 1423.77 792.07V781.83C1423.77 781.3 1423.98 780.791 1424.36 780.416C1424.73 780.041 1425.24 779.83 1425.77 779.83C1426.3 779.83 1426.81 780.041 1427.18 780.416C1427.56 780.791 1427.77 781.3 1427.77 781.83V792.07C1427.77 792.601 1427.56 793.109 1427.18 793.484C1426.81 793.859 1426.3 794.07 1425.77 794.07Z" fill="#262424"/>
<path d="M1420.56 778.62H1410.32C1409.79 778.62 1409.28 778.409 1408.91 778.034C1408.53 777.659 1408.32 777.151 1408.32 776.62C1408.32 776.09 1408.53 775.581 1408.91 775.206C1409.28 774.831 1409.79 774.62 1410.32 774.62H1420.56C1421.09 774.62 1421.6 774.831 1421.97 775.206C1422.35 775.581 1422.56 776.09 1422.56 776.62C1422.56 777.151 1422.35 777.659 1421.97 778.034C1421.6 778.409 1421.09 778.62 1420.56 778.62Z" fill="#262424"/>
<path d="M736.82 316C736.29 316 735.781 315.789 735.406 315.414C735.031 315.039 734.82 314.53 734.82 314V300C734.82 299.47 735.031 298.961 735.406 298.586C735.781 298.211 736.29 298 736.82 298C737.351 298 737.859 298.211 738.234 298.586C738.609 298.961 738.82 299.47 738.82 300V314C738.82 314.53 738.609 315.039 738.234 315.414C737.859 315.789 737.351 316 736.82 316Z" fill="#262424"/>
<path d="M758 323.14H744C743.47 323.14 742.961 322.929 742.586 322.554C742.211 322.179 742 321.67 742 321.14C742 320.609 742.211 320.101 742.586 319.725C742.961 319.35 743.47 319.14 744 319.14H758C758.53 319.14 759.039 319.35 759.414 319.725C759.789 320.101 760 320.609 760 321.14C760 321.67 759.789 322.179 759.414 322.554C759.039 322.929 758.53 323.14 758 323.14Z" fill="#262424"/>
<path d="M736.82 344.32C736.29 344.32 735.781 344.11 735.406 343.735C735.031 343.359 734.82 342.851 734.82 342.32V328.32C734.82 327.79 735.031 327.281 735.406 326.906C735.781 326.531 736.29 326.32 736.82 326.32C737.351 326.32 737.859 326.531 738.234 326.906C738.609 327.281 738.82 327.79 738.82 328.32V342.32C738.82 342.851 738.609 343.359 738.234 343.735C737.859 344.11 737.351 344.32 736.82 344.32Z" fill="#262424"/>
<path d="M729.68 323.14H715.68C715.149 323.14 714.641 322.929 714.266 322.554C713.891 322.179 713.68 321.67 713.68 321.14C713.68 320.609 713.891 320.101 714.266 319.725C714.641 319.35 715.149 319.14 715.68 319.14H729.68C730.21 319.14 730.719 319.35 731.094 319.725C731.469 320.101 731.68 320.609 731.68 321.14C731.68 321.67 731.469 322.179 731.094 322.554C730.719 322.929 730.21 323.14 729.68 323.14Z" fill="#262424"/>
<path d="M1304 252.93C1303.47 252.93 1302.96 252.719 1302.59 252.344C1302.21 251.969 1302 251.46 1302 250.93V239.35C1302 238.819 1302.21 238.31 1302.59 237.935C1302.96 237.56 1303.47 237.35 1304 237.35C1304.53 237.35 1305.04 237.56 1305.41 237.935C1305.79 238.31 1306 238.819 1306 239.35V250.93C1306 251.46 1305.79 251.969 1305.41 252.344C1305.04 252.719 1304.53 252.93 1304 252.93Z" fill="#262424"/>
<path d="M1321.45 258.81H1309.87C1309.34 258.81 1308.83 258.599 1308.46 258.224C1308.08 257.849 1307.87 257.34 1307.87 256.81C1307.87 256.279 1308.08 255.77 1308.46 255.395C1308.83 255.02 1309.34 254.81 1309.87 254.81H1321.45C1321.98 254.81 1322.49 255.02 1322.86 255.395C1323.24 255.77 1323.45 256.279 1323.45 256.81C1323.45 257.34 1323.24 257.849 1322.86 258.224C1322.49 258.599 1321.98 258.81 1321.45 258.81Z" fill="#262424"/>
<path d="M1304 276.27C1303.47 276.27 1302.96 276.059 1302.59 275.684C1302.21 275.309 1302 274.801 1302 274.27V262.7C1302 262.17 1302.21 261.661 1302.59 261.286C1302.96 260.911 1303.47 260.7 1304 260.7C1304.53 260.7 1305.04 260.911 1305.41 261.286C1305.79 261.661 1306 262.17 1306 262.7V274.28C1306 274.809 1305.79 275.315 1305.41 275.688C1305.04 276.061 1304.53 276.27 1304 276.27Z" fill="#262424"/>
<path d="M1298.11 258.81H1286.53C1286 258.81 1285.49 258.599 1285.12 258.224C1284.74 257.849 1284.53 257.34 1284.53 256.81C1284.53 256.279 1284.74 255.77 1285.12 255.395C1285.49 255.02 1286 254.81 1286.53 254.81H1298.11C1298.64 254.81 1299.15 255.02 1299.52 255.395C1299.9 255.77 1300.11 256.279 1300.11 256.81C1300.11 257.34 1299.9 257.849 1299.52 258.224C1299.15 258.599 1298.64 258.81 1298.11 258.81Z" fill="#262424"/>
<path d="M361.29 203.43C366.045 203.43 369.9 199.575 369.9 194.82C369.9 190.065 366.045 186.21 361.29 186.21C356.535 186.21 352.68 190.065 352.68 194.82C352.68 199.575 356.535 203.43 361.29 203.43Z" fill="#88C0C2"/>
<path d="M1285.8 499.75C1295.85 499.75 1304 491.601 1304 481.55C1304 471.498 1295.85 463.35 1285.8 463.35C1275.75 463.35 1267.6 471.498 1267.6 481.55C1267.6 491.601 1275.75 499.75 1285.8 499.75Z" fill="#8C30F5"/>
<path d="M304.81 1154.77C312.095 1154.77 318 1148.86 318 1141.58C318 1134.29 312.095 1128.39 304.81 1128.39C297.525 1128.39 291.62 1134.29 291.62 1141.58C291.62 1148.86 297.525 1154.77 304.81 1154.77Z" fill="#8C30F5"/>
<path d="M342.57 928C346.436 928 349.57 924.866 349.57 921C349.57 917.134 346.436 914 342.57 914C338.704 914 335.57 917.134 335.57 921C335.57 924.866 338.704 928 342.57 928Z" fill="#88C0C2"/>
<path d="M771.17 1068.31C770.73 1068.31 770.303 1068.16 769.955 1067.9C769.606 1067.63 769.356 1067.25 769.242 1066.83C769.128 1066.4 769.157 1065.95 769.325 1065.55C769.493 1065.14 769.79 1064.8 770.17 1064.58L825.76 1032.28L784.76 1008.64C784.457 1008.46 784.205 1008.21 784.03 1007.91C783.856 1007.6 783.764 1007.26 783.764 1006.91C783.764 1006.56 783.856 1006.22 784.03 1005.91C784.205 1005.61 784.457 1005.36 784.76 1005.18L845.42 969.93C845.877 969.691 846.409 969.638 846.904 969.781C847.4 969.925 847.821 970.255 848.079 970.701C848.337 971.148 848.412 971.677 848.29 972.178C848.167 972.679 847.855 973.113 847.42 973.39L789.75 1006.91L830.75 1030.55C831.053 1030.73 831.305 1030.98 831.48 1031.28C831.654 1031.59 831.747 1031.93 831.747 1032.28C831.747 1032.63 831.654 1032.97 831.48 1033.28C831.305 1033.58 831.053 1033.83 830.75 1034.01L772.18 1068.01C771.876 1068.2 771.527 1068.3 771.17 1068.31V1068.31Z" fill="#272525"/>
<path d="M643.51 1040.64C643.074 1040.64 642.651 1040.49 642.305 1040.22C641.96 1039.95 641.712 1039.58 641.599 1039.16C641.486 1038.74 641.513 1038.29 641.678 1037.89C641.842 1037.48 642.135 1037.14 642.51 1036.92L713.62 995.09L641.92 953.7C641.617 953.524 641.365 953.271 641.191 952.968C641.016 952.664 640.924 952.32 640.924 951.97C640.924 951.619 641.016 951.275 641.191 950.971C641.365 950.668 641.617 950.415 641.92 950.24L723 903.11C723.457 902.871 723.989 902.817 724.484 902.961C724.98 903.105 725.4 903.434 725.659 903.881C725.917 904.328 725.992 904.857 725.87 905.358C725.747 905.859 725.435 906.293 725 906.57L646.91 952L718.57 993.37C718.873 993.545 719.125 993.798 719.3 994.101C719.474 994.405 719.567 994.749 719.567 995.1C719.567 995.45 719.474 995.794 719.3 996.098C719.125 996.402 718.873 996.654 718.57 996.83L644.5 1040.4C644.196 1040.56 643.855 1040.65 643.51 1040.64V1040.64Z" fill="#272525"/>
<path d="M638.27 1058.08C627.36 1058.08 618.81 1053.28 618.81 1047.15C618.81 1041.02 627.36 1036.22 638.27 1036.22C649.18 1036.22 657.73 1041.02 657.73 1047.15C657.73 1053.28 649.18 1058.08 638.27 1058.08ZM638.27 1040.23C629.16 1040.23 622.81 1043.88 622.81 1047.16C622.81 1050.44 629.16 1054.09 638.27 1054.09C647.38 1054.09 653.73 1050.44 653.73 1047.16C653.73 1043.88 647.38 1040.23 638.27 1040.23Z" fill="#272525"/>
<path d="M668.42 858.94H612.53C612 858.94 611.491 858.73 611.116 858.355C610.741 857.98 610.53 857.471 610.53 856.94C610.53 856.41 610.741 855.901 611.116 855.526C611.491 855.151 612 854.94 612.53 854.94H668.41C668.94 854.939 669.45 855.149 669.826 855.523C670.202 855.897 670.414 856.405 670.415 856.935C670.416 857.466 670.207 857.975 669.833 858.351C669.459 858.727 668.95 858.939 668.42 858.94Z" fill="#272525"/>
<path d="M595.07 867.87C584.16 867.87 575.61 863.07 575.61 856.94C575.61 850.81 584.15 846 595.07 846C605.99 846 614.53 850.8 614.53 856.93C614.53 863.06 606 867.87 595.07 867.87ZM595.07 850.02C585.96 850.02 579.61 853.67 579.61 856.95C579.61 860.23 585.96 863.88 595.07 863.88C604.18 863.88 610.53 860.23 610.53 856.95C610.53 853.67 604.18 850 595.07 850V850.02Z" fill="#272525"/>
<path d="M1267.13 1068.31C1266.78 1068.31 1266.43 1068.22 1266.13 1068.04L1207.56 1034.04C1207.26 1033.86 1207.01 1033.61 1206.83 1033.31C1206.66 1033 1206.56 1032.66 1206.56 1032.31C1206.56 1031.96 1206.66 1031.61 1206.83 1031.31C1207.01 1031.01 1207.26 1030.76 1207.56 1030.58L1248.56 1006.94L1190.89 973.42C1190.65 973.295 1190.44 973.123 1190.27 972.914C1190.1 972.705 1189.97 972.464 1189.9 972.205C1189.82 971.946 1189.8 971.674 1189.83 971.406C1189.86 971.139 1189.95 970.88 1190.09 970.647C1190.22 970.413 1190.4 970.209 1190.62 970.047C1190.83 969.886 1191.08 969.769 1191.34 969.705C1191.6 969.641 1191.88 969.63 1192.14 969.674C1192.41 969.718 1192.66 969.815 1192.89 969.96L1253.55 1005.21C1253.85 1005.39 1254.1 1005.64 1254.28 1005.94C1254.45 1006.24 1254.55 1006.59 1254.55 1006.94C1254.55 1007.29 1254.45 1007.63 1254.28 1007.94C1254.1 1008.24 1253.85 1008.49 1253.55 1008.67L1212.55 1032.31L1268.14 1064.61C1268.51 1064.84 1268.79 1065.18 1268.95 1065.58C1269.11 1065.98 1269.13 1066.42 1269.02 1066.84C1268.9 1067.25 1268.66 1067.62 1268.32 1067.89C1267.98 1068.15 1267.56 1068.3 1267.13 1068.31Z" fill="#272525"/>
<path d="M1417.49 1053.3C1417.14 1053.3 1416.79 1053.21 1416.49 1053.03L1319.72 996.8C1319.42 996.624 1319.17 996.372 1318.99 996.068C1318.82 995.765 1318.72 995.42 1318.72 995.07C1318.72 994.72 1318.82 994.375 1318.99 994.072C1319.17 993.768 1319.42 993.516 1319.72 993.34L1391.39 952L1313.28 906.61C1313.04 906.485 1312.83 906.313 1312.66 906.104C1312.49 905.895 1312.36 905.654 1312.29 905.395C1312.21 905.136 1312.19 904.865 1312.22 904.597C1312.25 904.329 1312.34 904.071 1312.48 903.837C1312.61 903.603 1312.79 903.4 1313.01 903.238C1313.22 903.076 1313.47 902.96 1313.73 902.895C1313.99 902.831 1314.27 902.821 1314.53 902.864C1314.8 902.908 1315.05 903.005 1315.28 903.15L1396.37 950.28C1396.67 950.456 1396.92 950.708 1397.1 951.012C1397.27 951.315 1397.37 951.66 1397.37 952.01C1397.37 952.36 1397.27 952.705 1397.1 953.008C1396.92 953.312 1396.67 953.564 1396.37 953.74L1324.71 995.11L1418.49 1049.61C1418.85 1049.84 1419.13 1050.18 1419.29 1050.58C1419.44 1050.97 1419.46 1051.41 1419.35 1051.82C1419.24 1052.24 1419 1052.6 1418.66 1052.87C1418.33 1053.13 1417.92 1053.29 1417.49 1053.3V1053.3Z" fill="#272525"/>
<path d="M1422.73 1070.74C1411.82 1070.74 1403.27 1065.94 1403.27 1059.81C1403.27 1053.68 1411.82 1048.88 1422.73 1048.88C1433.64 1048.88 1442.19 1053.68 1442.19 1059.81C1442.19 1065.94 1433.64 1070.74 1422.73 1070.74ZM1422.73 1052.89C1413.62 1052.89 1407.27 1056.54 1407.27 1059.82C1407.27 1063.1 1413.62 1066.75 1422.73 1066.75C1431.84 1066.75 1438.19 1063.1 1438.19 1059.82C1438.19 1056.54 1431.84 1052.89 1422.73 1052.89Z" fill="#272525"/>
<path d="M1191.86 654.17C1191.42 654.169 1190.99 654.024 1190.64 653.756C1190.3 653.488 1190.05 653.113 1189.93 652.688C1189.82 652.263 1189.85 651.813 1190.01 651.407C1190.18 651 1190.48 650.661 1190.86 650.44L1248.53 616.92L1207.53 593.28C1207.23 593.104 1206.98 592.852 1206.8 592.548C1206.63 592.245 1206.53 591.9 1206.53 591.55C1206.53 591.2 1206.63 590.855 1206.8 590.552C1206.98 590.248 1207.23 589.996 1207.53 589.82L1266.1 555.82C1266.33 555.675 1266.58 555.578 1266.85 555.534C1267.11 555.491 1267.39 555.501 1267.65 555.565C1267.91 555.629 1268.16 555.746 1268.37 555.908C1268.59 556.07 1268.77 556.273 1268.9 556.507C1269.04 556.74 1269.13 556.999 1269.16 557.267C1269.19 557.534 1269.17 557.806 1269.09 558.065C1269.02 558.324 1268.89 558.565 1268.72 558.774C1268.55 558.983 1268.34 559.155 1268.1 559.28L1212.51 591.58L1253.51 615.22C1253.81 615.396 1254.06 615.648 1254.24 615.952C1254.41 616.255 1254.51 616.6 1254.51 616.95C1254.51 617.3 1254.41 617.645 1254.24 617.948C1254.06 618.252 1253.81 618.504 1253.51 618.68L1192.85 653.93C1192.55 654.094 1192.21 654.177 1191.86 654.17Z" fill="#272525"/>
<path d="M1295.82 753.81C1295.38 753.809 1294.95 753.664 1294.6 753.396C1294.26 753.128 1294.01 752.752 1293.89 752.328C1293.78 751.903 1293.81 751.453 1293.97 751.047C1294.14 750.64 1294.44 750.301 1294.82 750.08L1360.95 711.64L1289.29 670.27C1288.99 670.094 1288.74 669.842 1288.56 669.538C1288.39 669.235 1288.29 668.89 1288.29 668.54C1288.29 668.19 1288.39 667.845 1288.56 667.542C1288.74 667.238 1288.99 666.986 1289.29 666.81L1386 610.57C1386.23 610.425 1386.48 610.328 1386.75 610.284C1387.01 610.241 1387.29 610.251 1387.55 610.315C1387.81 610.379 1388.06 610.496 1388.27 610.658C1388.49 610.82 1388.67 611.023 1388.8 611.257C1388.94 611.49 1389.03 611.749 1389.06 612.017C1389.09 612.284 1389.07 612.556 1388.99 612.815C1388.92 613.074 1388.79 613.315 1388.62 613.524C1388.45 613.733 1388.24 613.905 1388 614.03L1294.22 668.53L1365.88 709.9C1366.18 710.076 1366.43 710.328 1366.61 710.632C1366.78 710.935 1366.88 711.28 1366.88 711.63C1366.88 711.98 1366.78 712.325 1366.61 712.628C1366.43 712.932 1366.18 713.184 1365.88 713.36L1296.76 753.53C1296.47 753.7 1296.15 753.796 1295.82 753.81Z" fill="#272525"/>
<path d="M1392.29 614.71C1381.38 614.71 1372.83 609.91 1372.83 603.78C1372.83 597.65 1381.38 592.85 1392.29 592.85C1403.2 592.85 1411.75 597.65 1411.75 603.78C1411.75 609.91 1403.2 614.71 1392.29 614.71ZM1392.29 596.86C1383.18 596.86 1376.83 600.51 1376.83 603.79C1376.83 607.07 1383.18 610.72 1392.29 610.72C1401.4 610.72 1407.75 607.07 1407.75 603.79C1407.75 600.51 1401.4 596.86 1392.29 596.86Z" fill="#272525"/>
<path d="M745.8 740.55C745.449 740.55 745.104 740.457 744.8 740.28L677.4 701.11C677.097 700.935 676.845 700.682 676.67 700.379C676.496 700.075 676.404 699.731 676.404 699.38C676.404 699.03 676.496 698.686 676.67 698.382C676.845 698.079 677.097 697.826 677.4 697.65L736.47 663.55L706 645.67C705.751 645.551 705.53 645.382 705.35 645.173C705.17 644.964 705.035 644.72 704.954 644.456C704.872 644.193 704.847 643.915 704.878 643.641C704.909 643.367 704.996 643.103 705.135 642.864C705.273 642.626 705.459 642.418 705.681 642.255C705.904 642.092 706.157 641.976 706.427 641.916C706.696 641.855 706.974 641.851 707.245 641.904C707.516 641.956 707.773 642.064 708 642.22L741.39 661.83C741.693 662.006 741.945 662.259 742.12 662.562C742.294 662.866 742.386 663.21 742.386 663.56C742.386 663.911 742.294 664.255 742.12 664.559C741.945 664.862 741.693 665.115 741.39 665.29L682.34 699.39L746.75 736.82C747.127 737.039 747.422 737.374 747.591 737.776C747.76 738.177 747.793 738.623 747.686 739.045C747.578 739.467 747.336 739.842 746.996 740.114C746.655 740.386 746.235 740.539 745.8 740.55Z" fill="#272525"/>
<path d="M702.71 646.29C693.3 646.29 686.2 642.29 686.2 636.87C686.2 631.45 693.3 627.45 702.71 627.45C712.12 627.45 719.22 631.45 719.22 636.87C719.22 642.29 712.12 646.29 702.71 646.29ZM702.71 631.45C695.55 631.45 690.2 634.31 690.2 636.87C690.2 639.43 695.55 642.29 702.71 642.29C709.87 642.29 715.22 639.43 715.22 636.87C715.22 634.31 709.87 631.45 702.71 631.45V631.45Z" fill="#272525"/>
<path d="M1425.77 858.94H1369.89C1369.36 858.94 1368.85 858.73 1368.48 858.355C1368.1 857.98 1367.89 857.471 1367.89 856.94C1367.89 856.41 1368.1 855.901 1368.48 855.526C1368.85 855.151 1369.36 854.94 1369.89 854.94H1425.77C1426.3 854.94 1426.81 855.151 1427.18 855.526C1427.56 855.901 1427.77 856.41 1427.77 856.94C1427.77 857.471 1427.56 857.98 1427.18 858.355C1426.81 858.73 1426.3 858.94 1425.77 858.94Z" fill="#272525"/>
<path d="M1443.23 867.87C1432.32 867.87 1423.77 863.07 1423.77 856.94C1423.77 850.81 1432.32 846.01 1443.23 846.01C1454.14 846.01 1462.69 850.81 1462.69 856.94C1462.69 863.07 1454.14 867.87 1443.23 867.87ZM1443.23 850.02C1434.12 850.02 1427.77 853.67 1427.77 856.95C1427.77 860.23 1434.12 863.88 1443.23 863.88C1452.34 863.88 1458.69 860.23 1458.69 856.95C1458.69 853.67 1452.34 850 1443.23 850V850.02Z" fill="#272525"/>
<path d="M1018.09 1149.52C1017.56 1149.52 1017.05 1149.31 1016.68 1148.93C1016.3 1148.56 1016.09 1148.05 1016.09 1147.52V1076.89C1016.09 1076.36 1016.3 1075.85 1016.68 1075.48C1017.05 1075.1 1017.56 1074.89 1018.09 1074.89C1018.62 1074.89 1019.13 1075.1 1019.5 1075.48C1019.88 1075.85 1020.09 1076.36 1020.09 1076.89V1147.52C1020.09 1148.05 1019.88 1148.56 1019.5 1148.93C1019.13 1149.31 1018.62 1149.52 1018.09 1149.52Z" fill="#272525"/>
<path d="M1018.09 1176.59C1007.18 1176.59 998.63 1171.79 998.63 1165.66C998.63 1159.53 1007.18 1154.73 1018.09 1154.73C1029 1154.73 1037.55 1159.53 1037.55 1165.66C1037.55 1171.79 1029 1176.59 1018.09 1176.59ZM1018.09 1158.74C1008.98 1158.74 1002.63 1162.39 1002.63 1165.67C1002.63 1168.95 1008.98 1172.6 1018.09 1172.6C1027.2 1172.6 1033.55 1168.95 1033.55 1165.67C1033.55 1162.39 1027.2 1158.74 1018.09 1158.74Z" fill="#272525"/>
<path d="M1346.48 811.9L1019.15 1002.13L689.69 811.91L1017.02 621.69L1346.48 811.9Z" fill="#88C0C2"/>
<path d="M1019.15 1004.12C1018.8 1004.12 1018.45 1004.03 1018.15 1003.85L688.69 813.64C688.387 813.465 688.135 813.212 687.96 812.909C687.785 812.605 687.693 812.261 687.693 811.91C687.693 811.56 687.785 811.216 687.96 810.912C688.135 810.608 688.387 810.356 688.69 810.18L1016 620C1016.3 619.825 1016.65 619.732 1017 619.732C1017.35 619.732 1017.7 619.825 1018 620L1347.46 810.21C1347.76 810.386 1348.01 810.639 1348.19 810.942C1348.36 811.246 1348.46 811.59 1348.46 811.94C1348.46 812.291 1348.36 812.635 1348.19 812.939C1348.01 813.242 1347.76 813.495 1347.46 813.67L1020.13 1003.89C1019.83 1004.05 1019.49 1004.13 1019.15 1004.12V1004.12ZM693.68 811.91L1019.14 999.82L1342.49 811.91L1017 624L693.68 811.91Z" fill="#88C0C2"/>
<path d="M943.26 878.2L889.73 847.29C889.376 847.083 888.974 846.975 888.565 846.975C888.155 846.975 887.753 847.083 887.4 847.29L819.4 886.81L824.05 889.49L888.56 852L937.45 880.22L905.45 898.79L872.92 917.7L877.57 920.39L907.82 902.81L943.27 882.23C943.617 882.024 943.906 881.731 944.107 881.381C944.309 881.03 944.416 880.634 944.42 880.23C944.424 879.819 944.318 879.415 944.114 879.058C943.911 878.701 943.616 878.405 943.26 878.2Z" fill="white"/>
<path d="M1074.87 905.7L1020.94 937L1076.23 969L1071.58 971.7L1016.29 939.78L963.86 970.2L959.21 967.52L1015.13 935L1073.69 901C1074.05 900.795 1074.45 900.687 1074.86 900.687C1075.27 900.687 1075.67 900.795 1076.03 901L1134.79 934.93L1130.16 937.62L1074.87 905.7Z" fill="white"/>
<path d="M1314.23 830.641L1309.6 833.341L1213.06 777.611L1130.18 825.791L1090 849.121L1186.53 904.851L1181.88 907.551L1084.19 851.141C1083.84 850.938 1083.55 850.646 1083.34 850.295C1083.14 849.945 1083.03 849.546 1083.03 849.141C1083.03 848.737 1083.14 848.34 1083.34 847.99C1083.54 847.639 1083.83 847.347 1084.18 847.141L1124.38 823.771L959.14 728.371L752.75 848.371L748.1 845.681L958 723.661H958.06L958.3 723.561L958.49 723.491L958.72 723.431H958.93H959.37H959.61H959.82C959.892 723.449 959.962 723.472 960.03 723.501L960.25 723.601H960.32L1129 821.071L1211.87 772.901C1212.22 772.694 1212.63 772.585 1213.03 772.585C1213.44 772.585 1213.85 772.694 1214.2 772.901L1314.23 830.641Z" fill="white"/>
<path d="M1158.43 703.32L1126.72 721.75L1119.79 717.75L1061.73 684.23L1093.44 665.8L1088.79 663.12L1057.08 681.55L985.31 640.11L980.66 642.81L1055.91 686.25L1125.54 726.45C1125.72 726.554 1125.91 726.631 1126.11 726.68C1126.3 726.735 1126.5 726.762 1126.7 726.76H1126.9C1127.03 726.753 1127.17 726.733 1127.3 726.7C1127.37 726.682 1127.44 726.659 1127.5 726.63C1127.62 726.587 1127.74 726.533 1127.86 726.47V726.47L1163.06 706.01L1158.43 703.32Z" fill="white"/>
<path d="M893.48 728.32L863.41 711L858.76 713.7L887.67 730.38L811.32 774.75L782.41 758L777.78 760.69L810.16 779.39C810.512 779.594 810.913 779.701 811.32 779.7C811.734 779.701 812.14 779.594 812.5 779.39L893.5 732.32C893.847 732.114 894.136 731.821 894.337 731.471C894.539 731.12 894.646 730.724 894.65 730.32C894.649 729.913 894.541 729.513 894.335 729.162C894.13 728.811 893.835 728.52 893.48 728.32V728.32Z" fill="white"/>
<path d="M1019.15 1002.13L1018.83 1047.15L689.37 856.94L689.69 811.91L1019.15 1002.13Z" fill="white"/>
<path d="M1018.83 1049.15C1018.48 1049.15 1018.13 1049.06 1017.83 1048.88L688.37 858.671C688.063 858.494 687.809 858.238 687.633 857.931C687.458 857.623 687.367 857.275 687.37 856.921L687.69 811.921C687.692 811.571 687.786 811.227 687.962 810.925C688.139 810.622 688.391 810.372 688.695 810.198C688.999 810.023 689.343 809.932 689.693 809.933C690.043 809.933 690.387 810.026 690.69 810.201L1020.15 1000.41C1020.46 1000.59 1020.71 1000.84 1020.89 1001.15C1021.06 1001.46 1021.15 1001.81 1021.15 1002.16L1020.83 1047.16C1020.83 1047.69 1020.62 1048.2 1020.24 1048.57C1019.87 1048.94 1019.36 1049.15 1018.83 1049.15ZM691.38 855.791L1016.85 1043.7L1017.14 1003.27L691.67 815.361L691.38 855.791Z" fill="#262424"/>
<path d="M1018.51 1002.13L1018.83 1047.15L1346.8 856.94L1346.48 811.91L1018.51 1002.13Z" fill="white"/>
<path d="M1018.83 1049.15C1018.3 1049.15 1017.79 1048.94 1017.42 1048.56C1017.04 1048.19 1016.83 1047.68 1016.83 1047.15L1016.51 1002.15C1016.51 1001.8 1016.6 1001.45 1016.78 1001.15C1016.95 1000.84 1017.2 1000.59 1017.51 1000.41L1345.51 810.201C1345.81 810.026 1346.16 809.933 1346.51 809.933C1346.86 809.932 1347.2 810.023 1347.5 810.198C1347.81 810.372 1348.06 810.622 1348.24 810.925C1348.41 811.227 1348.51 811.571 1348.51 811.921L1348.83 856.921C1348.83 857.273 1348.74 857.62 1348.56 857.925C1348.39 858.231 1348.14 858.484 1347.83 858.661L1019.83 1048.87C1019.53 1049.05 1019.18 1049.15 1018.83 1049.15V1049.15ZM1020.52 1003.27L1020.81 1043.69L1344.81 855.791L1344.52 815.371L1020.52 1003.27Z" fill="#262424"/>
<path d="M1174.75 759.641L1018.65 850.351L861.53 759.641L1017.63 668.931L1174.75 759.641Z" fill="white"/>
<path d="M1018.65 852.35C1018.3 852.35 1017.95 852.257 1017.65 852.08L860.54 761.38C860.237 761.204 859.985 760.952 859.81 760.649C859.636 760.345 859.543 760.001 859.543 759.65C859.543 759.3 859.636 758.956 859.81 758.652C859.985 758.348 860.237 758.096 860.54 757.92L1016.64 667.21C1016.94 667.035 1017.29 666.942 1017.64 666.942C1017.99 666.942 1018.34 667.035 1018.64 667.21L1175.75 757.92C1176.05 758.096 1176.3 758.348 1176.48 758.652C1176.65 758.956 1176.75 759.3 1176.75 759.65C1176.75 760.001 1176.65 760.345 1176.48 760.649C1176.3 760.952 1176.05 761.204 1175.75 761.38L1019.65 852.1C1019.34 852.27 1019 852.356 1018.65 852.35ZM865.53 759.64L1018.65 848L1170.76 759.6L1017.64 671.2L865.53 759.64Z" fill="#262424"/>
<path d="M1018.67 727.37L1018.5 875.05L837.04 770.29L837.22 622.6L1018.67 727.37Z" fill="#8C30F5"/>
<path d="M857.89 679.3L919.45 714.83V773.02L857.82 737.44L857.89 679.3Z" fill="white"/>
<path d="M919.45 774.999C919.099 774.999 918.754 774.906 918.45 774.729L856.82 739.149C856.515 738.973 856.262 738.719 856.086 738.414C855.91 738.108 855.819 737.762 855.82 737.409L855.9 679.269C855.9 678.919 855.993 678.574 856.169 678.27C856.344 677.966 856.597 677.714 856.901 677.539C857.205 677.364 857.55 677.271 857.901 677.271C858.251 677.272 858.596 677.364 858.9 677.539L920.46 713.069C920.764 713.245 921.016 713.497 921.192 713.801C921.367 714.104 921.46 714.449 921.46 714.799V772.999C921.46 773.263 921.408 773.524 921.307 773.767C921.206 774.01 921.058 774.231 920.871 774.417C920.684 774.603 920.462 774.75 920.219 774.85C919.975 774.95 919.714 775.001 919.45 774.999V774.999ZM859.82 736.269L917.45 769.539V715.999L859.89 682.769L859.82 736.269Z" fill="#262424"/>
<path d="M997.9 760.13L997.84 818.29L936.27 782.74V724.55L997.9 760.13Z" fill="white"/>
<path d="M997.84 820.29C997.489 820.289 997.144 820.196 996.84 820.02L935.27 784.47C934.966 784.294 934.714 784.042 934.538 783.739C934.363 783.435 934.27 783.09 934.27 782.74V724.55C934.27 724.199 934.363 723.854 934.539 723.55C934.714 723.247 934.967 722.994 935.271 722.819C935.575 722.644 935.92 722.552 936.271 722.552C936.621 722.552 936.966 722.644 937.27 722.82L998.9 758.4C999.204 758.575 999.456 758.827 999.632 759.131C999.807 759.435 999.9 759.779 999.9 760.13L999.84 818.29C999.84 818.82 999.629 819.329 999.254 819.704C998.879 820.079 998.37 820.29 997.84 820.29ZM938.27 781.59L995.85 814.83L995.91 761.29L938.27 728V781.57V781.59Z" fill="#262424"/>
<path d="M1018.32 727.37L1018.5 875.05L1199.13 770.29L1198.95 622.6L1018.32 727.37Z" fill="white"/>
<path d="M1018.5 877.049C1017.97 877.049 1017.46 876.839 1017.09 876.464C1016.71 876.089 1016.5 875.58 1016.5 875.049L1016.33 727.359C1016.33 727.009 1016.42 726.664 1016.6 726.361C1016.77 726.057 1017.03 725.805 1017.33 725.63L1198 620.87C1198.3 620.694 1198.65 620.602 1199 620.602C1199.35 620.601 1199.7 620.694 1200 620.869C1200.3 621.044 1200.56 621.296 1200.73 621.6C1200.91 621.904 1201 622.249 1201 622.599L1201.17 770.289C1201.17 770.64 1201.08 770.985 1200.9 771.288C1200.73 771.592 1200.47 771.844 1200.17 772.02L1019.5 876.78C1019.2 876.956 1018.85 877.049 1018.5 877.049ZM1020.33 728.51L1020.5 871.58L1197.13 769.14L1197 626.07L1020.33 728.51Z" fill="#262424"/>
<path d="M1179.1 679.3L1117.55 714.83V773.02L1179.18 737.44L1179.1 679.3Z" fill="#88C0C2"/>
<path d="M1039.09 760.13L1039.15 818.29L1100.73 782.74V724.55L1039.09 760.13Z" fill="#88C0C2"/>
<path d="M1198.95 622.6L1018.67 727.37L837.22 622.6L1017.5 517.84L1198.95 622.6Z" fill="white"/>
<path d="M1018.67 729.37C1018.32 729.369 1017.97 729.276 1017.67 729.1L836.22 624.34C835.917 624.164 835.665 623.912 835.491 623.608C835.316 623.304 835.224 622.96 835.224 622.61C835.224 622.259 835.316 621.915 835.491 621.612C835.665 621.308 835.917 621.056 836.22 620.88L1016.5 516.11C1016.8 515.934 1017.15 515.842 1017.5 515.842C1017.85 515.842 1018.2 515.934 1018.5 516.11L1200 620.87C1200.3 621.046 1200.55 621.298 1200.73 621.602C1200.9 621.905 1201 622.249 1201 622.6C1201 622.95 1200.9 623.294 1200.73 623.598C1200.55 623.902 1200.3 624.154 1200 624.33L1019.68 729.09C1019.37 729.271 1019.03 729.368 1018.67 729.37ZM841.21 622.6L1018.67 725.06L1195 622.6L1017.5 520.15L841.21 622.6Z" fill="#262424"/>
<path d="M1111.68 622.6L1018.39 676.81L924.49 622.6L1017.78 568.39L1111.68 622.6Z" fill="white"/>
<path d="M1018.39 678.81C1018.04 678.809 1017.69 678.716 1017.39 678.54L923.49 624.33C923.187 624.154 922.935 623.901 922.761 623.598C922.586 623.294 922.494 622.95 922.494 622.6C922.494 622.249 922.586 621.905 922.761 621.601C922.935 621.298 923.187 621.045 923.49 620.87L1016.78 566.66C1017.08 566.484 1017.43 566.392 1017.78 566.392C1018.13 566.392 1018.48 566.484 1018.78 566.66L1112.68 620.87C1112.98 621.045 1113.23 621.298 1113.41 621.601C1113.58 621.905 1113.68 622.249 1113.68 622.6C1113.68 622.95 1113.58 623.294 1113.41 623.598C1113.23 623.901 1112.98 624.154 1112.68 624.33L1019.39 678.54C1019.09 678.716 1018.74 678.809 1018.39 678.81ZM928.48 622.6L1018.38 674.51L1107.68 622.61L1017.78 570.7L928.48 622.6Z" fill="#262424"/>
<path d="M1018.65 667.46L1018.5 712.81L861.38 622.1L861.53 576.75L1018.65 667.46Z" fill="white"/>
<path d="M1018.5 714.81C1018.15 714.809 1017.8 714.716 1017.5 714.54L860.38 623.84C860.075 623.664 859.821 623.41 859.646 623.104C859.47 622.799 859.378 622.452 859.38 622.1L859.53 576.75C859.53 576.399 859.623 576.054 859.799 575.751C859.974 575.447 860.227 575.195 860.531 575.019C860.835 574.844 861.18 574.752 861.53 574.752C861.881 574.752 862.226 574.844 862.53 575.02L1019.64 665.73C1019.95 665.906 1020.2 666.16 1020.37 666.465C1020.55 666.771 1020.64 667.117 1020.64 667.47L1020.49 712.82C1020.49 713.347 1020.28 713.851 1019.9 714.224C1019.53 714.597 1019.03 714.807 1018.5 714.81V714.81ZM863.39 621L1016.51 709.4L1016.65 668.65L863.53 580.25L863.39 621Z" fill="#262424"/>
<path d="M1018.35 667.46L1018.5 712.81L1175.61 622.1L1175.46 576.75L1018.35 667.46Z" fill="white"/>
<path d="M1018.5 714.81C1017.97 714.81 1017.46 714.6 1017.09 714.225C1016.71 713.85 1016.5 713.341 1016.5 712.81L1016.35 667.46C1016.35 667.108 1016.44 666.761 1016.62 666.456C1016.79 666.15 1017.04 665.897 1017.35 665.72L1174.46 575C1174.76 574.825 1175.11 574.733 1175.46 574.732C1175.81 574.732 1176.16 574.825 1176.46 575C1176.76 575.175 1177.02 575.427 1177.19 575.731C1177.37 576.035 1177.46 576.379 1177.46 576.73L1177.61 622.08C1177.61 622.433 1177.52 622.779 1177.34 623.085C1177.17 623.39 1176.92 623.644 1176.61 623.82L1019.5 714.55C1019.2 714.723 1018.85 714.813 1018.5 714.81ZM1020.35 668.61L1020.49 709.36L1173.61 621L1173.47 580.25L1020.35 668.61Z" fill="#262424"/>
<path d="M1174.75 576.74L1018.65 667.46L861.53 576.75L1017.63 486.03L1174.75 576.74Z" fill="white"/>
<path d="M1018.65 669.46C1018.3 669.46 1017.95 669.366 1017.65 669.19L860.54 578.48C860.237 578.304 859.985 578.052 859.81 577.748C859.636 577.445 859.543 577.101 859.543 576.75C859.543 576.4 859.636 576.056 859.81 575.752C859.985 575.448 860.237 575.196 860.54 575.02L1016.64 484.3C1016.94 484.125 1017.29 484.032 1017.64 484.032C1017.99 484.032 1018.34 484.125 1018.64 484.3L1175.75 575C1176.05 575.176 1176.3 575.428 1176.48 575.732C1176.65 576.036 1176.75 576.38 1176.75 576.73C1176.75 577.081 1176.65 577.425 1176.48 577.728C1176.3 578.032 1176.05 578.284 1175.75 578.46L1019.65 669.18C1019.35 669.36 1019 669.457 1018.65 669.46ZM865.53 576.74L1018.65 665.14L1170.76 576.74L1017.64 488.34L865.53 576.74Z" fill="#262424"/>
<path d="M1018.67 544.47L1018.5 692.16L837.04 587.4L837.22 439.71L1018.67 544.47Z" fill="#8C30F5"/>
<path d="M857.89 496.4L919.45 531.93V590.12L857.82 554.55L857.89 496.4Z" fill="white"/>
<path d="M919.45 592.12C919.099 592.12 918.754 592.027 918.45 591.85L856.82 556.27C856.516 556.095 856.264 555.843 856.089 555.539C855.913 555.235 855.82 554.891 855.82 554.54L855.9 496.4C855.9 496.049 855.993 495.705 856.169 495.401C856.344 495.097 856.597 494.845 856.901 494.67C857.205 494.495 857.55 494.402 857.901 494.402C858.251 494.402 858.596 494.495 858.9 494.67L920.46 530.2C920.764 530.376 921.016 530.628 921.192 530.931C921.367 531.235 921.46 531.58 921.46 531.93V590.12C921.46 590.384 921.408 590.645 921.307 590.888C921.206 591.131 921.058 591.352 920.871 591.538C920.684 591.724 920.462 591.871 920.219 591.971C919.975 592.071 919.714 592.122 919.45 592.12ZM859.82 553.39L917.45 586.66V533.09L859.89 499.86L859.82 553.39Z" fill="#262424"/>
<path d="M997.9 577.23L997.84 635.39L936.27 599.85V541.65L997.9 577.23Z" fill="white"/>
<path d="M997.84 637.39C997.489 637.389 997.144 637.296 996.84 637.12L935.27 601.57C934.966 601.395 934.714 601.143 934.538 600.839C934.363 600.535 934.27 600.191 934.27 599.84V541.66C934.27 541.309 934.363 540.965 934.539 540.661C934.714 540.357 934.967 540.105 935.271 539.93C935.575 539.754 935.92 539.662 936.271 539.662C936.621 539.662 936.966 539.755 937.27 539.93L998.9 575.5C999.204 575.675 999.456 575.928 999.632 576.231C999.807 576.535 999.9 576.879 999.9 577.23L999.84 635.39C999.84 635.921 999.629 636.429 999.254 636.804C998.879 637.179 998.37 637.39 997.84 637.39ZM938.27 598.69L995.85 631.93L995.91 578.39L938.28 545.12V598.69H938.27Z" fill="#262424"/>
<path d="M1018.32 544.47L1018.5 692.16L1199.13 587.4L1198.95 439.71L1018.32 544.47Z" fill="white"/>
<path d="M1018.5 694.16C1017.97 694.16 1017.46 693.95 1017.09 693.575C1016.71 693.2 1016.5 692.691 1016.5 692.16L1016.33 544.47C1016.33 544.12 1016.42 543.775 1016.6 543.472C1016.77 543.168 1017.03 542.916 1017.33 542.74L1198 438C1198.3 437.825 1198.65 437.733 1199 437.732C1199.35 437.732 1199.7 437.825 1200 438C1200.3 438.175 1200.56 438.427 1200.73 438.731C1200.91 439.035 1201 439.379 1201 439.73L1201.17 587.42C1201.17 587.771 1201.08 588.116 1200.9 588.419C1200.73 588.723 1200.47 588.975 1200.17 589.15L1019.5 693.89C1019.2 694.067 1018.85 694.16 1018.5 694.16ZM1020.33 545.62L1020.5 688.69L1197.13 586.25L1197 443.18L1020.33 545.62Z" fill="#262424"/>
<path d="M1179.1 496.4L1117.55 531.93V590.12L1179.18 554.55L1179.1 496.4Z" fill="#88C0C2"/>
<path d="M1039.09 577.23L1039.15 635.39L1100.73 599.85V541.65L1039.09 577.23Z" fill="#88C0C2"/>
<path d="M1198.95 439.7L1018.67 544.47L837.22 439.71L1017.5 334.94L1198.95 439.7Z" fill="white"/>
<path d="M1018.67 546.47C1018.32 546.47 1017.97 546.377 1017.67 546.2L836.22 441.44C835.917 441.265 835.665 441.012 835.491 440.709C835.316 440.405 835.224 440.061 835.224 439.71C835.224 439.36 835.316 439.016 835.491 438.712C835.665 438.408 835.917 438.156 836.22 437.98L1016.5 333.21C1016.8 333.035 1017.15 332.942 1017.5 332.942C1017.85 332.942 1018.2 333.035 1018.5 333.21L1200 438C1200.3 438.176 1200.55 438.429 1200.73 438.732C1200.9 439.036 1201 439.38 1201 439.73C1201 440.081 1200.9 440.425 1200.73 440.729C1200.55 441.032 1200.3 441.285 1200 441.46L1019.68 546.2C1019.37 546.378 1019.02 546.471 1018.67 546.47ZM841.21 439.7L1018.67 542.16L1195 439.71L1017.5 337.25L841.21 439.7Z" fill="#262424"/>
<path d="M1111.68 439.7L1018.39 493.92L924.49 439.71L1017.78 385.49L1111.68 439.7Z" fill="white"/>
<path d="M1018.39 495.92C1018.04 495.92 1017.69 495.826 1017.39 495.65L923.49 441.44C923.187 441.264 922.935 441.012 922.761 440.708C922.586 440.405 922.494 440.06 922.494 439.71C922.494 439.36 922.586 439.015 922.761 438.712C922.935 438.408 923.187 438.156 923.49 437.98L1016.78 383.76C1017.08 383.585 1017.43 383.492 1017.78 383.492C1018.13 383.492 1018.48 383.585 1018.78 383.76L1112.68 437.97C1112.98 438.146 1113.23 438.398 1113.41 438.702C1113.58 439.006 1113.68 439.35 1113.68 439.7C1113.68 440.051 1113.58 440.395 1113.41 440.698C1113.23 441.002 1112.98 441.254 1112.68 441.43L1019.39 495.65C1019.09 495.826 1018.74 495.92 1018.39 495.92ZM928.48 439.7L1018.38 491.61L1107.68 439.71L1017.78 387.8L928.48 439.7Z" fill="#262424"/>
<path d="M1018.65 484.56L1018.5 529.92L861.38 439.21L861.53 393.85L1018.65 484.56Z" fill="white"/>
<path d="M1018.5 531.919C1018.15 531.919 1017.8 531.826 1017.5 531.65L860.38 440.94C860.075 440.763 859.821 440.51 859.646 440.204C859.47 439.898 859.378 439.552 859.38 439.2L859.53 393.85C859.53 393.499 859.623 393.154 859.799 392.85C859.974 392.546 860.227 392.294 860.531 392.119C860.835 391.944 861.18 391.851 861.53 391.852C861.881 391.852 862.226 391.944 862.53 392.12L1019.64 482.829C1019.95 483.006 1020.2 483.259 1020.37 483.565C1020.55 483.871 1020.64 484.217 1020.64 484.57L1020.49 529.919C1020.49 530.448 1020.28 530.955 1019.91 531.33C1019.53 531.705 1019.03 531.917 1018.5 531.919ZM863.39 438.06L1016.51 526.46L1016.65 485.72L863.53 397.32L863.39 438.06Z" fill="#262424"/>
<path d="M1018.35 484.56L1018.5 529.92L1175.61 439.21L1175.46 393.85L1018.35 484.56Z" fill="white"/>
<path d="M1018.5 531.919C1017.97 531.919 1017.46 531.709 1017.09 531.334C1016.71 530.959 1016.5 530.45 1016.5 529.919L1016.35 484.57C1016.35 484.217 1016.44 483.871 1016.62 483.565C1016.79 483.259 1017.04 483.006 1017.35 482.829L1174.46 392.12C1174.76 391.944 1175.11 391.852 1175.46 391.852C1175.81 391.851 1176.16 391.944 1176.46 392.119C1176.76 392.294 1177.02 392.546 1177.19 392.85C1177.37 393.154 1177.46 393.499 1177.46 393.85L1177.61 439.2C1177.61 439.552 1177.52 439.898 1177.34 440.204C1177.17 440.51 1176.92 440.763 1176.61 440.94L1019.5 531.65C1019.2 531.826 1018.85 531.919 1018.5 531.919ZM1020.35 485.72L1020.49 526.46L1173.61 438.06L1173.47 397.32L1020.35 485.72Z" fill="#262424"/>
<path d="M1174.75 393.85L1018.65 484.56L861.53 393.85L1017.63 303.14L1174.75 393.85Z" fill="white"/>
<path d="M1018.65 486.56C1018.3 486.559 1017.95 486.466 1017.65 486.29L860.54 395.59C860.237 395.414 859.985 395.161 859.81 394.858C859.636 394.554 859.543 394.21 859.543 393.86C859.543 393.509 859.636 393.165 859.81 392.861C859.985 392.558 860.237 392.305 860.54 392.13L1016.64 301.41C1016.94 301.234 1017.29 301.142 1017.64 301.142C1017.99 301.142 1018.34 301.234 1018.64 301.41L1175.75 392.12C1176.05 392.295 1176.3 392.548 1176.48 392.851C1176.65 393.155 1176.75 393.499 1176.75 393.85C1176.75 394.2 1176.65 394.544 1176.48 394.848C1176.3 395.151 1176.05 395.404 1175.75 395.58L1019.65 486.3C1019.35 486.472 1019 486.562 1018.65 486.56V486.56ZM865.53 393.85L1018.65 482.25L1170.76 393.85L1017.64 305.45L865.53 393.85Z" fill="#262424"/>
<path d="M1018.67 361.57L1018.5 509.26L837.04 404.5L837.22 256.81L1018.67 361.57Z" fill="#8C30F5"/>
<path d="M857.89 313.51L919.45 349.04V407.23L857.82 371.65L857.89 313.51Z" fill="white"/>
<path d="M919.45 409.23C919.099 409.229 918.754 409.136 918.45 408.96L856.82 373.38C856.516 373.204 856.264 372.952 856.089 372.648C855.913 372.345 855.82 372 855.82 371.65L855.9 313.51C855.9 313.159 855.993 312.814 856.169 312.51C856.344 312.207 856.597 311.954 856.901 311.779C857.205 311.604 857.55 311.512 857.901 311.512C858.251 311.512 858.596 311.604 858.9 311.78L920.46 347.31C920.764 347.485 921.016 347.737 921.192 348.041C921.367 348.344 921.46 348.689 921.46 349.04V407.23C921.46 407.493 921.408 407.754 921.307 407.997C921.206 408.241 921.058 408.462 920.871 408.647C920.684 408.833 920.462 408.98 920.219 409.08C919.975 409.18 919.714 409.231 919.45 409.23V409.23ZM859.82 370.5L917.45 403.77V350.19L859.89 317L859.82 370.5Z" fill="#262424"/>
<path d="M997.9 394.34L997.84 452.5L936.27 416.95V358.76L997.9 394.34Z" fill="white"/>
<path d="M997.84 454.5C997.489 454.499 997.144 454.406 996.84 454.23L935.27 418.68C934.966 418.504 934.714 418.252 934.538 417.948C934.363 417.645 934.27 417.3 934.27 416.95V358.76C934.27 358.409 934.363 358.064 934.539 357.76C934.714 357.457 934.967 357.204 935.271 357.029C935.575 356.854 935.92 356.762 936.271 356.762C936.621 356.762 936.966 356.854 937.27 357.03L998.9 392.61C999.204 392.785 999.456 393.037 999.632 393.341C999.807 393.644 999.9 393.989 999.9 394.34L999.84 452.5C999.84 453.03 999.629 453.539 999.254 453.914C998.879 454.289 998.37 454.5 997.84 454.5ZM938.27 415.8L995.84 449L995.9 395.46L938.27 362.19V415.76V415.8Z" fill="#262424"/>
<path d="M1018.32 361.57L1018.5 509.26L1199.13 404.5L1198.95 256.81L1018.32 361.57Z" fill="white"/>
<path d="M1018.5 511.259C1017.97 511.259 1017.46 511.049 1017.09 510.674C1016.71 510.299 1016.5 509.79 1016.5 509.259L1016.33 361.569C1016.33 361.219 1016.42 360.874 1016.6 360.571C1016.77 360.267 1017.03 360.015 1017.33 359.839L1198 255.079C1198.3 254.904 1198.65 254.812 1199 254.812C1199.35 254.811 1199.7 254.904 1200 255.079C1200.3 255.254 1200.56 255.506 1200.73 255.81C1200.91 256.114 1201 256.459 1201 256.809L1201.17 404.499C1201.17 404.85 1201.08 405.195 1200.9 405.498C1200.73 405.802 1200.47 406.054 1200.17 406.229L1019.5 510.999C1019.2 511.172 1018.85 511.262 1018.5 511.259V511.259ZM1020.33 362.719L1020.5 505.789L1197.13 403.349L1197 260.279L1020.33 362.719Z" fill="#262424"/>
<path d="M1179.1 313.51L1117.55 349.04V407.23L1179.18 371.65L1179.1 313.51Z" fill="#88C0C2"/>
<path d="M1039.09 394.34L1039.15 452.5L1100.73 416.95V358.76L1039.09 394.34Z" fill="#88C0C2"/>
<path d="M1198.95 256.81L1018.67 361.57L837.22 256.81L1017.5 152.04L1198.95 256.81Z" fill="white"/>
<path d="M1018.67 363.57C1018.32 363.569 1017.97 363.476 1017.67 363.3L836.22 258.55C835.917 258.374 835.665 258.122 835.491 257.818C835.316 257.514 835.224 257.17 835.224 256.82C835.224 256.469 835.316 256.125 835.491 255.821C835.665 255.518 835.917 255.266 836.22 255.09L1016.5 150.32C1016.8 150.144 1017.15 150.052 1017.5 150.052C1017.85 150.052 1018.2 150.144 1018.5 150.32L1200 255.07C1200.3 255.246 1200.55 255.498 1200.73 255.801C1200.9 256.105 1201 256.449 1201 256.8C1201 257.15 1200.9 257.494 1200.73 257.798C1200.55 258.102 1200.3 258.354 1200 258.53L1019.68 363.3C1019.37 363.478 1019.02 363.571 1018.67 363.57ZM841.21 256.81L1018.67 359.27L1195 256.81L1017.5 154.36L841.21 256.81Z" fill="#262424"/>
<path d="M1111.68 256.81L1018.39 311.02L924.49 256.81L1017.78 202.6L1111.68 256.81Z" fill="#88C0C2"/>
</svg>
