<svg width="1082" height="817" viewBox="0 0 1082 817" fill="none" xmlns="http://www.w3.org/2000/svg">
<path d="M827.002 815.308C827.002 815.308 831.314 711.079 926.332 680.357C1021.35 649.636 1028.03 744.736 968.792 760.234C887.93 781.391 827.002 815.308 827.002 815.308Z" fill="#E8E8EF"/>
<path d="M827.002 815.308C827.002 815.308 866.425 741.143 963.857 706.252" stroke="#1E0E62" stroke-width="1.56824" stroke-miterlimit="10" stroke-linecap="round" stroke-linejoin="round"/>
<path d="M810.235 815.308C810.235 815.308 747.582 764.446 772.457 691.309C797.332 618.171 859.405 657.996 841.63 701.903C817.367 761.838 810.235 815.308 810.235 815.308Z" fill="#DE9244"/>
<path d="M810.235 815.308C810.235 815.308 782.461 756.568 805.866 680.006" stroke="#1E0E62" stroke-width="1.56824" stroke-miterlimit="10" stroke-linecap="round" stroke-linejoin="round"/>
<path d="M1056.5 632.008H201.97C188.44 632.008 177.471 621.04 177.471 607.509V25.7148C177.471 12.1844 188.44 1.21582 201.97 1.21582H1056.5C1070.03 1.21582 1081 12.1844 1081 25.7148V607.509C1081 621.04 1070.03 632.008 1056.5 632.008Z" fill="white" stroke="#1E0E62" stroke-width="1.56824" stroke-miterlimit="10" stroke-linecap="round" stroke-linejoin="round"/>
<path d="M554.404 29.646V603.578" stroke="#1E0E62" stroke-width="1.56824" stroke-miterlimit="10" stroke-linecap="round" stroke-linejoin="round"/>
<path d="M1040.16 148.331H237.111" stroke="#1E0E62" stroke-width="1.56824" stroke-miterlimit="10" stroke-linecap="round" stroke-linejoin="round"/>
<path d="M499.402 280.473H251.274C243.452 280.473 237.111 274.131 237.111 266.309V221.514C237.111 213.691 243.452 207.35 251.274 207.35H499.402C507.225 207.35 513.566 213.691 513.566 221.514V266.309C513.566 274.131 507.225 280.473 499.402 280.473Z" stroke="#1E0E62" stroke-width="1.56824" stroke-miterlimit="10" stroke-linecap="round" stroke-linejoin="round"/>
<path d="M502.071 125.702H342.972C336.624 125.702 331.478 120.556 331.478 114.208V64.0743C331.478 57.7259 336.624 52.5796 342.972 52.5796H502.071C508.419 52.5796 513.566 57.7259 513.566 64.0743V114.208C513.566 120.556 508.419 125.702 502.071 125.702Z" fill="#E8E8EF"/>
<path d="M770.501 125.702H611.403C605.054 125.702 599.908 120.556 599.908 114.208V64.0743C599.908 57.7259 605.054 52.5796 611.403 52.5796H770.501C776.85 52.5796 781.996 57.7259 781.996 64.0743V114.208C781.996 120.556 776.85 125.702 770.501 125.702Z" fill="#E8E8EF"/>
<path d="M876.54 345.788H611.403C605.054 345.788 599.908 340.642 599.908 334.294V182.456C599.908 176.107 605.054 170.961 611.403 170.961H876.54C882.888 170.961 888.034 176.107 888.034 182.456V334.294C888.034 340.642 882.888 345.788 876.54 345.788Z" fill="white" stroke="#1E0E62" stroke-width="1.56824" stroke-miterlimit="10" stroke-linecap="round" stroke-linejoin="round"/>
<path d="M876.54 589.83H611.403C605.054 589.83 599.908 584.684 599.908 578.335V381.164C599.908 374.816 605.054 369.669 611.403 369.669H876.54C882.888 369.669 888.034 374.816 888.034 381.164V578.335C888.034 584.684 882.888 589.83 876.54 589.83Z" fill="white" stroke="#1E0E62" stroke-width="1.56824" stroke-miterlimit="10" stroke-linecap="round" stroke-linejoin="round"/>
<path d="M1028.66 589.831H923.411C917.062 589.831 911.916 584.684 911.916 578.336V497.08C911.916 490.731 917.062 485.585 923.411 485.585H1028.66C1035.01 485.585 1040.16 490.731 1040.16 497.08V578.336C1040.16 584.684 1035.01 589.831 1028.66 589.831Z" fill="#E8E8EF"/>
<path d="M1031.86 77.6029H943.852C939.272 77.6029 935.559 73.89 935.559 69.3099V60.8726C935.559 56.2925 939.272 52.5796 943.852 52.5796H1031.86C1036.44 52.5796 1040.16 56.2925 1040.16 60.8726V69.3099C1040.16 73.89 1036.44 77.6029 1031.86 77.6029Z" fill="#8C30F5"/>
<path d="M1031.86 125.702H943.852C939.272 125.702 935.559 121.989 935.559 117.409V108.972C935.559 104.392 939.272 100.679 943.852 100.679H1031.86C1036.44 100.679 1040.16 104.392 1040.16 108.972V117.409C1040.16 121.989 1036.44 125.702 1031.86 125.702Z" fill="#8C30F5"/>
<path d="M291.934 125.702H243.791C240.102 125.702 237.111 122.711 237.111 119.022V59.2601C237.111 55.5706 240.102 52.5796 243.791 52.5796H291.934C295.624 52.5796 298.615 55.5706 298.615 59.2601V119.022C298.615 122.711 295.624 125.702 291.934 125.702Z" fill="#E8E8EF"/>
<path d="M499.402 394.939H251.274C243.452 394.939 237.111 388.598 237.111 380.776V335.98C237.111 328.158 243.452 321.817 251.274 321.817H499.402C507.225 321.817 513.566 328.158 513.566 335.98V380.776C513.566 388.598 507.225 394.939 499.402 394.939Z" stroke="#1E0E62" stroke-width="1.56824" stroke-miterlimit="10" stroke-linecap="round" stroke-linejoin="round"/>
<path d="M499.402 509.405H251.274C243.452 509.405 237.111 503.064 237.111 495.241V450.446C237.111 442.623 243.452 436.282 251.274 436.282H499.402C507.225 436.282 513.566 442.623 513.566 450.446V495.241C513.566 503.064 507.225 509.405 499.402 509.405Z" stroke="#1E0E62" stroke-width="1.56824" stroke-miterlimit="10" stroke-linecap="round" stroke-linejoin="round"/>
<path d="M687.971 195.5C653.258 195.5 625.097 223.661 625.097 258.375C625.097 293.109 653.258 321.249 687.971 321.249C722.685 321.249 750.846 293.109 750.846 258.375C750.846 223.661 722.685 195.5 687.971 195.5ZM687.971 287.541C671.871 287.541 658.805 274.475 658.805 258.375C658.805 242.274 671.871 229.209 687.971 229.209C704.072 229.209 717.137 242.274 717.137 258.375C717.137 274.475 704.072 287.541 687.971 287.541Z" fill="#E8E8EF"/>
<path d="M750.846 258.374H717.137C717.137 242.274 704.072 229.208 687.971 229.208V195.5C722.685 195.5 750.846 223.66 750.846 258.374Z" fill="#8C30F5"/>
<path d="M855.268 274.093H789.225C785.04 274.093 781.647 270.7 781.647 266.515V256.581C781.647 252.396 785.04 249.003 789.225 249.003H855.268C859.453 249.003 862.846 252.396 862.846 256.581V266.515C862.846 270.7 859.453 274.093 855.268 274.093Z" fill="#E8E8EF"/>
<path d="M823.266 226.937H789.225C785.04 226.937 781.647 223.544 781.647 219.359V209.425C781.647 205.24 785.04 201.848 789.225 201.848H823.266C827.451 201.848 830.844 205.24 830.844 209.425V219.359C830.844 223.544 827.451 226.937 823.266 226.937Z" fill="#8C30F5"/>
<path d="M855.268 321.249H789.225C785.04 321.249 781.647 317.856 781.647 313.671V303.737C781.647 299.552 785.04 296.16 789.225 296.16H855.268C859.453 296.16 862.846 299.552 862.846 303.737V313.671C862.846 317.856 859.453 321.249 855.268 321.249Z" fill="#E8E8EF"/>
<path d="M1028.66 454.101H923.411C917.062 454.101 911.916 448.955 911.916 442.606V182.456C911.916 176.107 917.062 170.961 923.411 170.961H1028.66C1035.01 170.961 1040.16 176.107 1040.16 182.456V442.606C1040.16 448.955 1035.01 454.101 1028.66 454.101Z" fill="white" stroke="#1E0E62" stroke-width="1.56824" stroke-miterlimit="10" stroke-linecap="round" stroke-linejoin="round"/>
<path d="M974.009 214.392H1026.55" stroke="#1E0E62" stroke-width="1.56824" stroke-miterlimit="10" stroke-linecap="round" stroke-linejoin="round"/>
<path d="M974.009 279.507H1026.55" stroke="#1E0E62" stroke-width="1.56824" stroke-miterlimit="10" stroke-linecap="round" stroke-linejoin="round"/>
<path d="M974.009 344.622H1026.55" stroke="#1E0E62" stroke-width="1.56824" stroke-miterlimit="10" stroke-linecap="round" stroke-linejoin="round"/>
<path d="M974.009 409.737H1026.55" stroke="#1E0E62" stroke-width="1.56824" stroke-miterlimit="10" stroke-linecap="round" stroke-linejoin="round"/>
<path d="M951.625 226.937H937.405C933.22 226.937 929.828 223.545 929.828 219.36V209.426C929.828 205.241 933.22 201.848 937.405 201.848H951.625C955.81 201.848 959.202 205.241 959.202 209.426V219.36C959.202 223.545 955.81 226.937 951.625 226.937Z" fill="#8C30F5"/>
<path d="M951.625 292.052H937.405C933.22 292.052 929.828 288.659 929.828 284.474V274.54C929.828 270.355 933.22 266.963 937.405 266.963H951.625C955.81 266.963 959.202 270.355 959.202 274.54V284.474C959.202 288.659 955.81 292.052 951.625 292.052Z" fill="#E8E8EF"/>
<path d="M951.625 357.167H937.405C933.22 357.167 929.828 353.775 929.828 349.59V339.656C929.828 335.471 933.22 332.078 937.405 332.078H951.625C955.81 332.078 959.202 335.471 959.202 339.656V349.59C959.202 353.775 955.81 357.167 951.625 357.167Z" fill="#E8E8EF"/>
<path d="M951.625 422.282H937.405C933.22 422.282 929.828 418.889 929.828 414.704V404.77C929.828 400.585 933.22 397.193 937.405 397.193H951.625C955.81 397.193 959.202 400.585 959.202 404.77V414.704C959.202 418.889 955.81 422.282 951.625 422.282Z" fill="#E8E8EF"/>
<path d="M646.894 427.18H632.674C628.489 427.18 625.097 423.787 625.097 419.602V409.668C625.097 405.483 628.489 402.091 632.674 402.091H646.894C651.079 402.091 654.471 405.483 654.471 409.668V419.602C654.471 423.787 651.079 427.18 646.894 427.18Z" fill="#E8E8EF"/>
<path d="M646.894 492.295H632.674C628.489 492.295 625.097 488.902 625.097 484.717V474.783C625.097 470.598 628.489 467.206 632.674 467.206H646.894C651.079 467.206 654.471 470.598 654.471 474.783V484.717C654.471 488.902 651.079 492.295 646.894 492.295Z" fill="#E8E8EF"/>
<path d="M646.894 557.409H632.674C628.489 557.409 625.097 554.017 625.097 549.832V539.898C625.097 535.713 628.489 532.32 632.674 532.32H646.894C651.079 532.32 654.471 535.713 654.471 539.898V549.832C654.471 554.017 651.079 557.409 646.894 557.409Z" fill="#E8E8EF"/>
<path d="M669.276 385.679V572.913H858.898" stroke="#1E0E62" stroke-width="1.56824" stroke-miterlimit="10" stroke-linecap="round" stroke-linejoin="round"/>
<path d="M717.137 409.668V549.832C717.137 554.017 713.745 557.41 709.56 557.41H699.626C695.441 557.41 692.048 554.017 692.048 549.832V409.668C692.048 405.483 695.441 402.091 699.626 402.091H709.56C713.745 402.091 717.137 405.483 717.137 409.668Z" fill="#8C30F5"/>
<path d="M763.39 443.409V549.832C763.39 554.017 759.998 557.41 755.813 557.41H745.879C741.694 557.41 738.301 554.017 738.301 549.832V443.409C738.301 439.224 741.694 435.831 745.879 435.831H755.813C759.998 435.831 763.39 439.224 763.39 443.409Z" fill="#8C30F5"/>
<path d="M809.644 471.782V549.832C809.644 554.017 806.251 557.41 802.066 557.41H792.132C787.947 557.41 784.555 554.017 784.555 549.832V471.782C784.555 467.597 787.947 464.204 792.132 464.204H802.066C806.251 464.204 809.644 467.597 809.644 471.782Z" fill="#8C30F5"/>
<path d="M851.321 427.18H792.132C787.947 427.18 784.555 423.787 784.555 419.602V409.668C784.555 405.483 787.947 402.091 792.132 402.091H851.321C855.506 402.091 858.898 405.483 858.898 409.668V419.602C858.898 423.787 855.506 427.18 851.321 427.18Z" fill="#E8E8EF"/>
<path d="M476.147 257.218H228.019C220.197 257.218 213.856 250.877 213.856 243.054V198.259C213.856 190.436 220.197 184.095 228.019 184.095H476.147C483.97 184.095 490.311 190.436 490.311 198.259V243.054C490.311 250.877 483.97 257.218 476.147 257.218Z" fill="#8C30F5"/>
<path d="M48.5369 600.312L77.0973 632.817L106.599 598.379L65.0952 578.715L48.5369 600.312Z" fill="white" stroke="#1E0E62" stroke-width="1.56824" stroke-miterlimit="10" stroke-linecap="round" stroke-linejoin="round"/>
<path d="M76.0444 598.386L66.3223 609.674C63.518 612.929 63.4311 617.721 66.1155 621.076L75.4446 632.737C77.0398 634.73 79.4126 635.946 81.9628 636.075H81.9628C84.6521 636.211 87.2593 635.127 89.058 633.123L101.684 619.056C104.113 616.35 104.658 612.44 103.061 609.173L101.635 606.257C100.829 604.609 99.5354 603.249 97.9291 602.362L87.1216 596.397C83.4236 594.356 78.8011 595.186 76.0444 598.386Z" fill="white" stroke="#1E0E62" stroke-width="1.56824" stroke-miterlimit="10" stroke-linecap="round" stroke-linejoin="round"/>
<path d="M83.9233 590.336H83.9233C85.58 588.089 88.5224 587.209 91.1406 588.176L102.323 592.307C105.777 593.583 108.492 596.32 109.74 599.784L111.025 603.351C111.817 605.549 111.321 608.005 109.738 609.724L109.214 610.293C108.064 611.541 106.458 612.269 104.762 612.312L102.838 612.361C99.178 612.454 95.6619 610.935 93.2205 608.207L84.2972 598.236C82.3169 596.024 82.1609 592.725 83.9233 590.336Z" fill="white" stroke="#1E0E62" stroke-width="1.56824" stroke-miterlimit="10" stroke-linecap="round" stroke-linejoin="round"/>
<path d="M65.0954 578.715L92.9314 584.189C95.5214 584.698 97.638 586.56 98.4735 589.064C99.3152 591.586 98.726 594.367 96.9335 596.33L84.3796 610.085C82.5961 612.039 79.6071 612.287 77.5266 610.652C75.6954 609.214 75.0847 606.71 76.0481 604.589L79.1924 597.669L68.7871 598.661C66.9029 598.841 65.0764 597.952 64.0546 596.359L58.2048 587.237L65.0954 578.715Z" fill="white" stroke="#1E0E62" stroke-width="1.56824" stroke-miterlimit="10" stroke-linecap="round" stroke-linejoin="round"/>
<path d="M144.649 376.852C164.535 414.706 69.1633 500.819 69.1633 500.819C69.1633 500.819 75.8922 548.504 81.1728 579.814L46.5679 604.529C46.5679 604.529 13.5219 547.493 6.32857 508.248C4.57041 498.634 2.97779 489.152 1.75049 480.434C1.75049 480.434 6.92731 470.614 16.023 456.413C31.1749 432.745 67.8478 383.346 98.9429 360.542C98.9429 360.542 124.766 339.005 144.649 376.852Z" fill="#DE9244"/>
<path d="M51.8677 597.221C53.7473 597.221 55.2711 595.697 55.2711 593.817C55.2711 591.938 53.7473 590.414 51.8677 590.414C49.9881 590.414 48.4644 591.938 48.4644 593.817C48.4644 595.697 49.9881 597.221 51.8677 597.221Z" fill="white" stroke="#1E0E62" stroke-width="1.56824" stroke-miterlimit="10" stroke-linecap="round" stroke-linejoin="round"/>
<path d="M24.6674 487.338C21.6138 497.996 14.3153 505.868 6.32857 508.248C4.57041 498.634 2.97779 489.152 1.75049 480.434C1.75049 480.434 6.92731 470.614 16.023 456.413C24.5557 461.462 28.3993 474.311 24.6674 487.338Z" fill="white"/>
<path d="M29.5989 492.834L65.3148 500.52" stroke="#1E0E62" stroke-width="1.56824" stroke-miterlimit="10" stroke-linecap="round" stroke-linejoin="round"/>
<path d="M45.4741 586.528L69.1542 580.196" stroke="#1E0E62" stroke-width="1.56824" stroke-miterlimit="10" stroke-linecap="round" stroke-linejoin="round"/>
<path d="M108.483 746.378L60.0281 750.926L68.5747 730.021L109.143 723.507L108.483 746.378Z" fill="white" stroke="#1E0E62" stroke-width="1.56824" stroke-miterlimit="10" stroke-linecap="round" stroke-linejoin="round"/>
<path d="M34.0617 805.194C35.9208 802.536 39.043 796.359 41.1119 793.91C57.1189 774.957 72.0583 762.189 78.9245 756.555L71.9347 720.949C47.8784 722.919 25.5032 726.279 12.584 728.437C5.38453 729.636 1.1189 730.466 1.1189 730.466L12.0728 815.31L20.3153 814.246C25.672 813.554 30.4911 810.299 34.0617 805.194Z" fill="#E8E8EF"/>
<path d="M48.3678 760.153C55.349 759.252 60.5136 754.688 59.9032 749.961C59.2928 745.233 53.1386 742.131 46.1574 743.032C39.1762 743.933 34.0117 748.497 34.6221 753.224C35.2324 757.952 41.3866 761.054 48.3678 760.153Z" fill="white"/>
<path d="M20.313 814.247L12.072 815.311L1.11841 730.469C1.11841 730.469 5.3847 729.638 12.5843 728.436L21.9799 801.21C21.9799 801.21 31.3643 800.386 38.9409 797.081C37.217 799.878 35.341 803.369 34.0636 805.193C30.4894 810.301 25.6715 813.555 20.313 814.247Z" fill="white"/>
<path d="M20.313 814.247L12.072 815.311L1.11841 730.469C1.11841 730.469 5.3847 729.638 12.5843 728.436L21.9799 801.21C21.9799 801.21 31.3643 800.386 38.9409 797.081C37.217 799.878 35.341 803.369 34.0636 805.193C30.4894 810.301 25.6715 813.555 20.313 814.247Z" stroke="#1E0E62" stroke-width="1.56824" stroke-miterlimit="10" stroke-linecap="round" stroke-linejoin="round"/>
<path d="M267.571 754.293L253.142 754.149L103.956 752.595L99.0398 714.519L204.232 691.007C268.315 673.248 293.083 697.898 297.012 718.753C298.059 724.353 297.614 729.701 296.003 733.861C288.458 753.44 267.571 754.293 267.571 754.293Z" fill="#E8E8EF"/>
<path d="M267.571 754.293L253.142 754.149C252.995 753.479 252.885 752.784 252.795 752.086C250.54 734.623 262.867 718.642 280.31 716.39C286.191 715.63 291.921 716.532 297.011 718.753C298.059 724.353 297.614 729.701 296.003 733.861C288.458 753.44 267.571 754.293 267.571 754.293Z" fill="white"/>
<path d="M257.976 718.867L118.72 733.664" stroke="#1E0E62" stroke-width="1.56824" stroke-miterlimit="10" stroke-linecap="round" stroke-linejoin="round"/>
<path d="M238.046 685.076L257.977 718.867" stroke="#1E0E62" stroke-width="1.56824" stroke-miterlimit="10" stroke-linecap="round" stroke-linejoin="round"/>
<path d="M112.132 718.066L116.015 748.147" stroke="#1E0E62" stroke-width="1.56824" stroke-miterlimit="10" stroke-linecap="round" stroke-linejoin="round"/>
<path d="M297.585 718.588C297.585 719.593 297.545 720.618 297.424 721.643C297.424 721.663 297.424 721.683 297.424 721.683C297.344 722.728 297.183 723.754 296.982 724.799C292.921 741.462 278.389 753.362 261.424 754.226C260.76 754.266 260.097 754.286 259.434 754.286H258.027C257.042 754.286 256.057 754.246 255.092 754.166C254.429 754.126 253.766 754.065 253.102 753.965C246.208 753.08 239.655 750.347 234.147 746.025L119.614 655.994C106.328 645.039 99.2521 628.296 100.639 611.13L104.197 524.999L208.901 521.702L204.64 607.371L287.334 694.829C293.947 701.06 297.585 709.683 297.585 718.588Z" fill="#E8E8EF"/>
<path d="M151.285 616.854L133.23 623.189L115.176 616.854V580.486H151.285V616.854Z" stroke="#1E0E62" stroke-width="1.56824" stroke-miterlimit="10" stroke-linecap="round" stroke-linejoin="round"/>
<path d="M297.424 721.642C297.424 721.662 297.424 721.682 297.424 721.682C297.343 722.727 297.183 723.753 296.982 724.798C292.921 741.461 278.389 753.361 261.424 754.225L255.092 754.165L253.142 754.145C253.122 754.084 253.122 754.024 253.102 753.964C252.981 753.361 252.881 752.718 252.801 752.094C250.549 734.627 262.871 718.647 280.318 716.396C286.188 715.632 291.916 716.536 297.002 718.748C297.183 719.732 297.323 720.697 297.424 721.642Z" fill="white"/>
<path d="M297.011 718.752C298.059 724.352 297.614 729.7 296.003 733.86C288.458 753.439 267.571 754.292 267.571 754.292L253.142 754.148" stroke="#1E0E62" stroke-width="1.56824" stroke-miterlimit="10" stroke-linecap="round" stroke-linejoin="round"/>
<path d="M191.214 650.797L256.687 718.174L206.548 724.33" stroke="#1E0E62" stroke-width="1.56824" stroke-miterlimit="10" stroke-linecap="round" stroke-linejoin="round"/>
<path d="M200.912 657.68L200.912 657.68C215.996 665.966 234.178 666.354 249.602 658.72L369.42 595.594C383.228 588.319 393.44 575.691 397.666 560.667L397.666 560.667C401.427 547.295 396.336 533.005 384.967 525.022L384.967 525.022C375.813 518.595 364.01 517.288 353.671 521.557L267.937 552.517L264.207 515.261L172.684 539.62L173.624 612.395C173.929 631.295 184.344 648.58 200.912 657.68Z" fill="#E8E8EF"/>
<path d="M221.151 616.854L203.097 623.189L185.043 616.854V580.486H221.151V616.854Z" stroke="#1E0E62" stroke-width="1.56824" stroke-miterlimit="10" stroke-linecap="round" stroke-linejoin="round"/>
<path d="M172.684 539.62L173.624 612.395C173.928 631.294 184.344 648.58 200.911 657.68L200.911 657.68C208.333 661.757 216.504 663.921 224.728 664.16C224.728 664.16 232.175 664.339 237.112 663.045C242.049 661.751 248.011 659.47 248.011 659.47" stroke="#1E0E62" stroke-width="1.56824" stroke-miterlimit="10" stroke-linecap="round" stroke-linejoin="round"/>
<path d="M231.517 546.482L232.976 600.584L362.43 559.08" stroke="#1E0E62" stroke-width="1.56824" stroke-miterlimit="10" stroke-linecap="round" stroke-linejoin="round"/>
<path d="M232.976 600.584L241.127 589.845C246.334 582.985 249.169 574.618 249.205 566.006L249.286 546.482" stroke="#1E0E62" stroke-width="1.56824" stroke-miterlimit="10" stroke-linecap="round" stroke-linejoin="round"/>
<path d="M370.573 710.867L368.879 759.505L349.241 748.352L347.975 707.284L370.573 710.867Z" fill="white" stroke="#1E0E62" stroke-width="1.56824" stroke-miterlimit="10" stroke-linecap="round" stroke-linejoin="round"/>
<path d="M419.376 792.206C416.978 790.022 411.252 786.134 409.088 783.769C392.341 765.467 381.59 749.015 376.883 741.484L340.674 743.857C339.548 767.968 340.015 790.589 340.502 803.678C340.768 810.972 341.045 815.309 341.045 815.309H426.593V806.998C426.593 801.597 423.982 796.401 419.376 792.206Z" fill="#E8E8EF"/>
<path d="M367.905 784.997C372.672 784.997 376.537 779.29 376.537 772.251C376.537 765.212 372.672 759.506 367.905 759.506C363.138 759.506 359.274 765.212 359.274 772.251C359.274 779.29 363.138 784.997 367.905 784.997Z" fill="white"/>
<path d="M426.593 807.001V815.31H341.048C341.048 815.31 340.77 810.972 340.499 803.678H413.877C413.877 803.678 414.262 794.266 411.954 786.328C414.508 788.396 417.729 790.703 419.375 792.204C423.983 796.403 426.593 801.598 426.593 807.001Z" fill="white"/>
<path d="M426.593 807.001V815.31H341.048C341.048 815.31 340.77 810.972 340.499 803.678H413.877C413.877 803.678 414.262 794.266 411.954 786.328C414.508 788.396 417.729 790.703 419.375 792.204C423.983 796.403 426.593 801.598 426.593 807.001Z" stroke="#1E0E62" stroke-width="1.56824" stroke-miterlimit="10" stroke-linecap="round" stroke-linejoin="round"/>
<path d="M398.793 554.101L396.803 568.392L376.16 716.152H337.768L327.918 608.815C318.511 542.985 346.13 521.578 367.316 520.352C373.004 520.03 378.25 521.156 382.17 523.287C400.622 533.277 398.793 554.101 398.793 554.101Z" fill="#E8E8EF"/>
<path d="M398.793 554.101L396.803 568.392C396.12 568.453 395.417 568.473 394.713 568.473C377.105 568.473 362.833 554.201 362.833 536.613C362.833 530.684 364.462 525.116 367.316 520.352C373.004 520.03 378.251 521.156 382.17 523.287C400.623 533.277 398.793 554.101 398.793 554.101Z" fill="white"/>
<path d="M367.316 520.352C373.004 520.03 378.25 521.156 382.17 523.287C400.622 533.277 398.793 554.101 398.793 554.101L396.803 568.392" stroke="#1E0E62" stroke-width="1.56824" stroke-miterlimit="10" stroke-linecap="round" stroke-linejoin="round"/>
<path d="M362.43 559.08L359.274 699.085" stroke="#1E0E62" stroke-width="1.56824" stroke-miterlimit="10" stroke-linecap="round" stroke-linejoin="round"/>
<path d="M326.738 570.523L362.43 559.08" stroke="#1E0E62" stroke-width="1.56824" stroke-miterlimit="10" stroke-linecap="round" stroke-linejoin="round"/>
<path d="M342.962 703.623H373.292" stroke="#1E0E62" stroke-width="1.56824" stroke-miterlimit="10" stroke-linecap="round" stroke-linejoin="round"/>
<path d="M151.743 345.516L150.769 320.011L168.223 321.289L171.697 341.613L151.743 345.516Z" fill="white" stroke="#1E0E62" stroke-width="1.56824" stroke-miterlimit="10" stroke-linecap="round" stroke-linejoin="round"/>
<path d="M158.288 315.757C158.288 315.757 168.857 326.002 181.025 323.622C193.193 321.242 192.485 269.453 170.003 269.461C147.52 269.469 138.523 296.818 158.288 315.757Z" fill="white" stroke="#1E0E62" stroke-width="1.56824" stroke-miterlimit="10" stroke-linecap="round" stroke-linejoin="round"/>
<path d="M181.446 297.308C181.446 297.308 177.221 287.749 170.693 291.595C164.165 295.442 166.776 306.602 172.454 308.81L168.223 321.289L150.947 324.668C150.947 324.668 133.363 308.748 129.413 297.314C125.464 285.881 136.626 282.735 136.626 282.735C136.626 282.735 136.711 272.225 144.618 268.859C152.525 265.492 176.139 265.798 176.139 265.798C176.139 265.798 179.176 257.923 182.904 257.274C186.631 256.626 188.067 264.375 188.067 264.375C188.067 264.375 191.699 257.08 195.093 258.423C198.488 259.767 198.481 286.829 182.307 285.014C182.307 285.014 186.457 295.284 181.446 297.308Z" fill="#1E0E62"/>
<path d="M137.105 349.504C137.105 349.504 139.48 336.192 158.042 332.561C176.603 328.93 186.156 343.282 186.156 343.282L137.741 352.752L137.105 349.504Z" fill="white" stroke="#1E0E62" stroke-width="1.56824" stroke-miterlimit="10" stroke-linecap="round" stroke-linejoin="round"/>
<path d="M271.763 542.274C264.527 546.496 256.992 550.148 249.286 553.281L244.463 528.624C244.159 527.071 243.252 525.784 242.038 524.962C240.819 524.147 239.284 523.791 237.731 524.095C234.619 524.704 232.587 527.716 233.196 530.828L238.385 557.353C168.647 581.202 89.7831 567.591 89.7831 567.591C82.7213 436.214 105.459 357.672 105.459 357.672C138.687 342.648 233.331 332.66 233.331 332.66C251.032 414.418 271.763 542.274 271.763 542.274Z" fill="#DE9244"/>
<path d="M104.192 362.52C101.85 372.003 96.7373 395.175 92.9655 430.024L90.0061 465.099" stroke="#1E0E62" stroke-width="1.56824" stroke-miterlimit="10" stroke-linecap="round" stroke-linejoin="round"/>
<path d="M154.184 357.994C154.184 357.994 138.902 441.069 156.006 548.216" stroke="#1E0E62" stroke-width="1.56824" stroke-miterlimit="10" stroke-linecap="round" stroke-linejoin="round"/>
<path d="M250.723 540.378C255.151 538.838 259.647 537.182 264.207 535.403" stroke="#1E0E62" stroke-width="1.56824" stroke-miterlimit="10" stroke-linecap="round" stroke-linejoin="round"/>
<path d="M97.6406 554.958C97.6406 554.958 151.241 569.601 231.517 546.483" stroke="#1E0E62" stroke-width="1.56824" stroke-miterlimit="10" stroke-linecap="round" stroke-linejoin="round"/>
<path d="M376 283.969L365.855 267.497C362.717 262.883 360.839 257.529 360.406 251.966L359.485 240.109C359.354 238.424 360.707 236.994 362.397 237.032C363.491 237.056 364.475 237.703 364.931 238.699L371.038 252.042L371.677 235.247L374.754 215.677C375.054 213.771 376.79 212.43 378.71 212.622C380.525 212.804 381.925 214.301 381.984 216.124L382.644 236.361C382.677 237.369 383.446 238.2 384.448 238.312C385.525 238.433 386.507 237.686 386.678 236.615L389.42 219.481C389.874 216.645 393.105 215.223 395.503 216.806L406.747 224.228C409.174 225.83 410.603 228.57 410.527 231.477L409.837 250.798C409.718 254.127 409.064 257.415 407.9 260.536L395.662 293.873L376 283.969Z" fill="white" stroke="#1E0E62" stroke-width="1.56824" stroke-miterlimit="10" stroke-linecap="round" stroke-linejoin="round"/>
<path d="M208.567 366.205C210.167 353.571 217.378 338.202 232.444 332.78C257.177 331.372 317.292 329.766 317.292 329.766C317.292 329.766 350.739 298.051 370.715 277.276L400.019 289.561C400.019 289.561 384.983 323.775 369.473 357.735C365.671 366.052 361.812 374.179 358.082 381.524C358.082 381.524 348.85 386.283 334.263 392.304C309.959 402.341 270.78 415.881 234.709 416.713C234.709 416.713 203.541 405.891 208.567 366.205Z" fill="#DE9244"/>
<path d="M234.709 416.713C234.709 416.713 203.541 405.892 208.567 366.205C209.893 355.741 215.067 343.401 225.365 336.39" stroke="#1E0E62" stroke-width="1.56824" stroke-miterlimit="10" stroke-linecap="round" stroke-linejoin="round"/>
<path d="M390.214 298.123C391.972 298.123 393.398 296.697 393.398 294.938C393.398 293.18 391.972 291.754 390.214 291.754C388.455 291.754 387.029 293.18 387.029 294.938C387.029 296.697 388.455 298.123 390.214 298.123Z" fill="white" stroke="#1E0E62" stroke-width="1.56824" stroke-miterlimit="10" stroke-linecap="round" stroke-linejoin="round"/>
<path d="M344.202 363.949C352.255 357.409 362.072 355.281 369.474 357.734C365.671 366.052 361.812 374.179 358.083 381.524C358.083 381.524 348.85 386.283 334.263 392.304C330.423 383.858 334.359 371.942 344.202 363.949Z" fill="white"/>
<path d="M343.363 357.091L320.084 332.058" stroke="#1E0E62" stroke-width="1.56824" stroke-miterlimit="10" stroke-linecap="round" stroke-linejoin="round"/>
<path d="M391.213 303.956L364.649 291.725" stroke="#1E0E62" stroke-width="1.56824" stroke-miterlimit="10" stroke-linecap="round" stroke-linejoin="round"/>
<path d="M643.282 776.665C636.096 776.665 629.601 779.582 624.903 784.28C620.189 788.979 617.288 795.489 617.288 802.659C617.288 795.489 614.386 788.979 609.672 784.28C604.974 779.582 598.479 776.665 591.294 776.665C598.479 776.665 604.974 773.748 609.672 769.049C614.386 764.351 617.288 757.841 617.288 750.671C617.288 757.841 620.189 764.351 624.903 769.049C629.601 773.748 636.096 776.665 643.282 776.665Z" fill="#8C30F5"/>
<path d="M44.3033 674.408C41.5477 674.408 39.057 675.527 37.2552 677.328C35.4476 679.13 34.3348 681.627 34.3348 684.377C34.3348 681.627 33.2219 679.13 31.4143 677.328C29.6125 675.527 27.1219 674.408 24.3662 674.408C27.1219 674.408 29.6125 673.289 31.4143 671.487C33.2219 669.686 34.3348 667.189 34.3348 664.439C34.3348 667.189 35.4476 669.686 37.2552 671.487C39.057 673.289 41.5477 674.408 44.3033 674.408Z" fill="#8C30F5"/>
<path d="M126.52 130.497C120.9 130.497 115.821 132.779 112.147 136.453C108.461 140.127 106.191 145.218 106.191 150.826C106.191 145.218 103.922 140.127 100.236 136.453C96.5612 132.779 91.4821 130.497 85.8625 130.497C91.4821 130.497 96.5612 128.216 100.236 124.541C103.922 120.867 106.191 115.776 106.191 110.168C106.191 115.776 108.461 120.867 112.147 124.541C115.821 128.216 120.9 130.497 126.52 130.497Z" fill="#E8E8EF"/>
<path d="M535.094 690.664C531.502 690.664 528.254 692.123 525.905 694.472C523.548 696.821 522.097 700.076 522.097 703.661C522.097 700.076 520.646 696.821 518.29 694.472C515.94 692.123 512.693 690.664 509.1 690.664C512.693 690.664 515.94 689.205 518.29 686.856C520.646 684.507 522.097 681.252 522.097 677.667C522.097 681.252 523.548 684.507 525.905 686.856C528.254 689.205 531.502 690.664 535.094 690.664Z" fill="#E8E8EF"/>
<path d="M39.7138 327.551C36.9178 327.551 34.3907 328.686 32.5626 330.514C30.7285 332.342 29.5994 334.875 29.5994 337.665C29.5994 334.875 28.4702 332.342 26.6361 330.514C24.808 328.686 22.2809 327.551 19.4849 327.551C22.2809 327.551 24.808 326.416 26.6361 324.588C28.4702 322.76 29.5994 320.227 29.5994 317.437C29.5994 320.227 30.7285 322.76 32.5626 324.588C34.3907 326.416 36.9178 327.551 39.7138 327.551Z" fill="#8C30F5"/>
<path d="M700.156 690.665C702.606 690.665 704.593 688.678 704.593 686.228C704.593 683.777 702.606 681.791 700.156 681.791C697.706 681.791 695.719 683.777 695.719 686.228C695.719 688.678 697.706 690.665 700.156 690.665Z" fill="#E8E8EF"/>
<path d="M1052.96 767.144C1056.48 767.144 1059.33 764.294 1059.33 760.78C1059.33 757.265 1056.48 754.416 1052.96 754.416C1049.45 754.416 1046.6 757.265 1046.6 760.78C1046.6 764.294 1049.45 767.144 1052.96 767.144Z" fill="#8C30F5"/>
</svg>
