<svg width="1571" height="1466" viewBox="0 0 1571 1466" fill="none" xmlns="http://www.w3.org/2000/svg">
<path d="M405.501 1072.59C343.272 1072.59 292.645 1021.96 292.645 959.731V390.955C292.645 328.724 343.272 278.097 405.501 278.097H1163.77C1226 278.097 1276.63 328.724 1276.63 390.955V959.731C1276.63 1021.96 1226 1072.59 1163.77 1072.59H405.501Z" fill="white" stroke="#1E0E62" stroke-width="2" stroke-miterlimit="10" stroke-linecap="round" stroke-linejoin="round"/>
<path d="M605.677 387.429H393.094C381.57 387.429 372.227 378.087 372.227 366.562V366.562C372.227 355.038 381.57 345.695 393.094 345.695H605.677C617.202 345.695 626.544 355.038 626.544 366.562V366.562C626.544 378.087 617.202 387.429 605.677 387.429Z" fill="#E8E8EF"/>
<path d="M1176.18 387.429C1164.66 387.429 1155.31 378.087 1155.31 366.562V366.562C1155.31 355.038 1164.66 345.695 1176.18 345.695C1187.7 345.695 1197.05 355.038 1197.05 366.562V366.562C1197.05 378.087 1187.7 387.429 1176.18 387.429Z" fill="#EC615B"/>
<path d="M1060.11 387.429H1060.11C1048.58 387.429 1039.24 378.087 1039.24 366.562V366.562C1039.24 355.038 1048.58 345.695 1060.11 345.695H1060.11C1071.63 345.695 1080.97 355.038 1080.97 366.562V366.562C1080.97 378.087 1071.63 387.429 1060.11 387.429Z" fill="#EC615B"/>
<path d="M944.033 387.429H944.033C932.509 387.429 923.166 378.087 923.166 366.562V366.562C923.166 355.038 932.509 345.695 944.033 345.695H944.033C955.558 345.695 964.9 355.038 964.9 366.562V366.562C964.9 378.087 955.558 387.429 944.033 387.429Z" fill="#EC615B"/>
<path d="M531.146 1028.68H405.502" stroke="#1E0E62" stroke-width="2" stroke-miterlimit="10" stroke-linecap="round" stroke-linejoin="round"/>
<path d="M1232.72 456.908V959.729C1232.72 997.749 1201.79 1028.68 1163.77 1028.68H571.331" stroke="#1E0E62" stroke-width="2" stroke-miterlimit="10" stroke-linecap="round" stroke-linejoin="round"/>
<path d="M1163.77 993.004H405.502C387.125 993.004 372.227 978.107 372.227 959.729V456.907C372.227 438.529 387.125 423.632 405.502 423.632H1163.77C1182.15 423.632 1197.05 438.529 1197.05 456.907V959.729C1197.05 978.107 1182.15 993.004 1163.77 993.004Z" fill="#E8E8EF"/>
<path d="M1144.13 829.222H1088.51C1077.44 829.222 1068.46 820.244 1068.46 809.17V809.17C1068.46 798.096 1077.44 789.118 1088.51 789.118H1144.13C1155.2 789.118 1164.18 798.096 1164.18 809.17V809.17C1164.18 820.244 1155.2 829.222 1144.13 829.222Z" fill="white" stroke="#1E0E62" stroke-width="2" stroke-miterlimit="10" stroke-linecap="round" stroke-linejoin="round"/>
<path d="M1144.13 899.666H1012.31C1001.23 899.666 992.255 890.689 992.255 879.614C992.255 868.54 1001.23 859.562 1012.31 859.562H1144.13C1155.2 859.562 1164.18 868.54 1164.18 879.614C1164.18 890.689 1155.2 899.666 1144.13 899.666Z" fill="white" stroke="#1E0E62" stroke-width="2" stroke-miterlimit="10" stroke-linecap="round" stroke-linejoin="round"/>
<path d="M1147.07 734.329H1054.49C1047.88 734.329 1042.51 728.964 1042.51 722.347V533.09C1042.51 526.472 1047.88 521.107 1054.49 521.107H1147.07C1153.69 521.107 1159.06 526.472 1159.06 533.09V722.347C1159.06 728.964 1153.69 734.329 1147.07 734.329Z" fill="white" stroke="#1E0E62" stroke-width="2" stroke-miterlimit="10" stroke-linecap="round" stroke-linejoin="round"/>
<path d="M1121.13 570.992H1080.44C1073.82 570.992 1068.46 565.627 1068.46 559.01V559.01C1068.46 552.392 1073.82 547.027 1080.44 547.027H1121.13C1127.74 547.027 1133.11 552.392 1133.11 559.01V559.01C1133.11 565.627 1127.74 570.992 1121.13 570.992Z" fill="#E8E8EF"/>
<path d="M1121.13 617.944H1080.44C1073.82 617.944 1068.46 612.579 1068.46 605.962C1068.46 599.344 1073.82 593.979 1080.44 593.979H1121.13C1127.74 593.979 1133.11 599.344 1133.11 605.962C1133.11 612.579 1127.74 617.944 1121.13 617.944Z" fill="#E8E8EF"/>
<path d="M1100.78 709.992C1118.64 709.992 1133.11 695.52 1133.11 677.667C1133.11 659.815 1118.64 645.343 1100.78 645.343C1082.93 645.343 1068.46 659.815 1068.46 677.667C1068.46 695.52 1082.93 709.992 1100.78 709.992Z" fill="#EC615B"/>
<path d="M964.479 535.747L1169.83 330.39H1356.04C1362.11 330.39 1367.02 325.476 1367.02 319.413C1367.02 313.351 1362.11 308.437 1356.04 308.437L1165.29 308.437C1162.4 308.437 1159.57 309.608 1157.53 311.652L948.955 520.223C944.669 524.51 944.669 531.46 948.955 535.747C953.242 540.033 960.192 540.033 964.479 535.747L964.479 535.747Z" fill="white" stroke="#1E0E62" stroke-width="2" stroke-miterlimit="10" stroke-linecap="round" stroke-linejoin="round"/>
<path d="M1465.03 397.013C1507.88 397.013 1542.62 362.271 1542.62 319.414C1542.62 276.557 1507.88 241.814 1465.03 241.814C1422.17 241.814 1387.43 276.557 1387.43 319.414C1387.43 362.271 1422.17 397.013 1465.03 397.013Z" fill="#E8E8EF"/>
<path d="M1465.03 358.343C1486.53 358.343 1503.95 340.914 1503.95 319.413C1503.95 297.913 1486.53 280.483 1465.03 280.483C1443.52 280.483 1426.1 297.913 1426.1 319.413C1426.1 340.914 1443.52 358.343 1465.03 358.343Z" fill="white" stroke="#1E0E62" stroke-width="2" stroke-miterlimit="10" stroke-linecap="round" stroke-linejoin="round"/>
<path d="M604.795 535.748L399.44 330.391H213.23C207.168 330.391 202.253 325.477 202.253 319.414C202.253 313.352 207.168 308.438 213.23 308.438L403.987 308.438C406.877 308.438 409.705 309.609 411.749 311.653L620.319 520.224C624.605 524.511 624.605 531.461 620.319 535.748C616.032 540.034 609.082 540.034 604.795 535.748L604.795 535.748Z" fill="white" stroke="#1E0E62" stroke-width="2" stroke-miterlimit="10" stroke-linecap="round" stroke-linejoin="round"/>
<path d="M104.249 397.014C147.106 397.014 181.848 362.272 181.848 319.415C181.848 276.558 147.106 241.815 104.249 241.815C61.3918 241.815 26.6494 276.558 26.6494 319.415C26.6494 362.272 61.3918 397.014 104.249 397.014Z" fill="#E8E8EF"/>
<path d="M144.714 329.867L114.701 359.879C108.929 365.652 99.5691 365.652 93.7964 359.879L63.7841 329.867C58.0114 324.094 58.0114 314.735 63.7841 308.962L93.7964 278.95C99.5691 273.177 108.929 273.177 114.701 278.95L144.714 308.962C150.486 314.735 150.486 324.094 144.714 329.867Z" fill="white" stroke="#1E0E62" stroke-width="2" stroke-miterlimit="10" stroke-linecap="round" stroke-linejoin="round"/>
<path d="M773.376 471.6L717.806 263.105L556.543 170C551.293 166.969 549.495 160.256 552.526 155.005C555.557 149.755 562.27 147.956 567.52 150.987L732.72 246.366C735.224 247.811 737.087 250.239 737.835 253.031L794.582 465.918C796.151 471.774 792.676 477.793 786.82 479.362C780.964 480.931 774.945 477.456 773.376 471.6Z" fill="white" stroke="#1E0E62" stroke-width="2" stroke-miterlimit="10" stroke-linecap="round" stroke-linejoin="round"/>
<path d="M428.852 173.206C465.967 194.634 513.426 181.918 534.854 144.802C556.283 107.687 543.566 60.2282 506.451 38.7997C469.336 17.3712 421.877 30.0878 400.448 67.203C379.02 104.318 391.736 151.777 428.852 173.206Z" fill="#E8E8EF"/>
<path d="M497.468 135.287L456.471 146.272C448.585 148.385 440.48 143.705 438.367 135.82L427.382 94.8222C425.269 86.9366 429.948 78.8311 437.834 76.7182L478.832 65.7329C486.717 63.6199 494.823 68.2996 496.936 76.1853L507.921 117.183C510.034 125.069 505.354 133.174 497.468 135.287Z" fill="white" stroke="#1E0E62" stroke-width="2" stroke-miterlimit="10" stroke-linecap="round" stroke-linejoin="round"/>
<path d="M873.398 490.297L998.579 380.238L998.579 211.505C998.579 205.443 1003.49 200.528 1009.56 200.528C1015.62 200.528 1020.53 205.443 1020.53 211.505L1020.53 384.784C1020.53 387.675 1019.36 390.502 1017.32 392.546L888.922 505.821C884.635 510.108 877.685 510.108 873.398 505.821C869.111 501.534 869.111 494.584 873.398 490.297Z" fill="white" stroke="#1E0E62" stroke-width="2" stroke-miterlimit="10" stroke-linecap="round" stroke-linejoin="round"/>
<path d="M936.905 93.1513C930.029 135.453 958.747 175.32 1001.05 182.196C1043.35 189.073 1083.22 160.355 1090.09 118.053C1096.97 75.7513 1068.25 35.8846 1025.95 29.0082C983.648 22.1317 943.782 50.8496 936.905 93.1513Z" fill="#E8E8EF"/>
<path d="M997.038 146.154L972.23 111.715C967.458 105.091 968.96 95.853 975.584 91.0814L1010.02 66.2734C1016.65 61.5017 1025.89 63.0034 1030.66 69.6275L1055.46 104.066C1060.24 110.691 1058.73 119.929 1052.11 124.7L1017.67 149.508C1011.05 154.28 1001.81 152.778 997.038 146.154Z" fill="white" stroke="#1E0E62" stroke-width="2" stroke-miterlimit="10" stroke-linecap="round" stroke-linejoin="round"/>
<path d="M604.795 867.903L399.44 1073.26H213.23C207.168 1073.26 202.253 1078.17 202.253 1084.24C202.253 1090.3 207.168 1095.21 213.23 1095.21H403.987C406.877 1095.21 409.705 1094.04 411.749 1092L620.319 883.426C624.605 879.14 624.605 872.189 620.319 867.903C616.032 863.616 609.082 863.616 604.795 867.903L604.795 867.903Z" fill="white" stroke="#1E0E62" stroke-width="2" stroke-miterlimit="10" stroke-linecap="round" stroke-linejoin="round"/>
<path d="M104.249 1161.83C147.106 1161.83 181.848 1127.09 181.848 1084.24C181.848 1041.38 147.106 1006.64 104.249 1006.64C61.3918 1006.64 26.6494 1041.38 26.6494 1084.24C26.6494 1127.09 61.3918 1161.83 104.249 1161.83Z" fill="#E8E8EF"/>
<path d="M68.2451 1071.69V1096.78C68.2451 1101.88 70.9659 1106.59 75.3824 1109.14L97.1116 1121.69C101.528 1124.24 106.97 1124.24 111.386 1121.69L133.115 1109.14C137.532 1106.59 140.253 1101.88 140.253 1096.78V1071.69C140.253 1066.59 137.532 1061.88 133.115 1059.33L111.386 1046.78C106.97 1044.23 101.528 1044.23 97.1116 1046.78L75.3824 1059.33C70.9659 1061.88 68.2451 1066.59 68.2451 1071.69Z" fill="white" stroke="#1E0E62" stroke-width="2" stroke-miterlimit="10" stroke-linecap="round" stroke-linejoin="round"/>
<path d="M1004.67 636.111L1008.83 656.589M741.891 926.501C741.068 926.344 740.246 926.182 739.426 926.015L718.948 921.859L741.891 926.501ZM1012.08 677.8C1012.91 685.741 1013.33 693.765 1013.33 701.812C1013.33 717.096 1011.81 732.316 1008.83 747.053L1004.67 767.555L959.161 770.667C958.384 772.64 957.572 774.597 956.725 776.543L986.716 810.96L975.12 828.397C958.18 853.867 936.676 875.37 911.209 892.31L893.763 903.912L859.366 873.91C857.423 874.754 855.467 875.566 853.494 876.346L850.353 921.859L829.876 926.015C815.164 929.004 799.947 930.518 784.65 930.518C775.524 930.518 766.427 929.979 757.449 928.91L1012.08 677.8Z" stroke="#1E0E62" stroke-width="2" stroke-miterlimit="10" stroke-linecap="round" stroke-linejoin="round"/>
<path d="M981.933 741.603C984.54 728.733 985.885 715.423 985.885 701.812C985.885 688.201 984.54 674.891 981.933 662.048L939.014 659.084C935.474 646.323 930.397 634.167 924.003 622.888L952.268 590.451C937.449 568.168 918.295 549.013 896.011 534.194L863.575 562.46C852.296 556.066 840.139 550.989 827.378 547.449L824.414 504.529C811.571 501.922 798.262 500.577 784.65 500.577C771.039 500.577 757.73 501.922 744.886 504.529L741.923 547.449C729.134 550.989 717.005 556.066 705.726 562.46L673.289 534.194C651.006 548.986 631.851 568.14 617.005 590.451L645.298 622.888C638.877 634.167 633.8 646.323 630.287 659.084L587.34 662.048C584.733 674.891 583.388 688.201 583.388 701.812C583.388 715.423 584.733 728.733 587.34 741.603L630.287 744.54C633.8 757.328 638.877 769.457 645.298 780.764L617.005 813.2C631.824 835.484 650.979 854.638 673.262 869.457L705.726 841.164C717.005 847.586 729.134 852.663 741.923 856.175L744.886 899.122C757.73 901.73 771.039 903.074 784.65 903.074C798.262 903.074 811.571 901.73 824.414 899.122L827.378 856.175C840.139 852.663 852.296 847.586 863.575 841.164L896.011 869.457C918.295 854.638 937.449 835.484 952.268 813.2L924.003 780.764C930.397 769.457 935.474 757.328 939.014 744.54L981.933 741.603ZM784.65 755.379C755.068 755.379 731.083 731.395 731.083 701.812C731.083 672.257 755.068 648.272 784.65 648.272C814.233 648.272 838.19 672.257 838.19 701.812C838.19 731.395 814.233 755.379 784.65 755.379Z" fill="#8C30F5"/>
<path d="M784.636 724.643C797.238 724.643 807.453 714.427 807.453 701.826C807.453 689.225 797.238 679.01 784.636 679.01C772.035 679.01 761.82 689.225 761.82 701.826C761.82 714.427 772.035 724.643 784.636 724.643Z" fill="white" stroke="#1E0E62" stroke-width="2" stroke-miterlimit="10" stroke-linecap="round" stroke-linejoin="round"/>
<path d="M105.195 898.442C148.052 898.442 182.794 863.699 182.794 820.842C182.794 777.986 148.052 743.243 105.195 743.243C62.3381 743.243 27.5957 777.986 27.5957 820.842C27.5957 863.699 62.3381 898.442 105.195 898.442Z" fill="#EC615B"/>
<path d="M126.417 856.846H83.9733C75.8095 856.846 69.1914 850.228 69.1914 842.065V799.621C69.1914 791.457 75.8095 784.839 83.9733 784.839H126.417C134.581 784.839 141.199 791.457 141.199 799.621V842.065C141.199 850.228 134.581 856.846 126.417 856.846Z" fill="white" stroke="#1E0E62" stroke-width="2" stroke-miterlimit="10" stroke-linecap="round" stroke-linejoin="round"/>
<path d="M519.564 831.82H214.177C208.114 831.82 203.2 826.906 203.2 820.843C203.2 814.781 208.114 809.866 214.177 809.866H519.564C525.626 809.866 530.541 814.781 530.541 820.843C530.541 826.906 525.626 831.82 519.564 831.82Z" fill="white" stroke="#1E0E62" stroke-width="2" stroke-miterlimit="10" stroke-linecap="round" stroke-linejoin="round"/>
<path d="M105.195 665.718C148.052 665.718 182.794 630.976 182.794 588.119C182.794 545.262 148.052 510.52 105.195 510.52C62.3381 510.52 27.5957 545.262 27.5957 588.119C27.5957 630.976 62.3381 665.718 105.195 665.718Z" fill="#EC615B"/>
<path d="M126.417 624.123H83.9733C75.8095 624.123 69.1914 617.505 69.1914 609.341V566.897C69.1914 558.733 75.8095 552.115 83.9733 552.115H126.417C134.581 552.115 141.199 558.733 141.199 566.897V609.341C141.199 617.505 134.581 624.123 126.417 624.123Z" fill="white" stroke="#1E0E62" stroke-width="2" stroke-miterlimit="10" stroke-linecap="round" stroke-linejoin="round"/>
<path d="M519.564 599.096H214.177C208.114 599.096 203.2 594.182 203.2 588.12C203.2 582.057 208.114 577.143 214.177 577.143H519.564C525.626 577.143 530.541 582.057 530.541 588.12C530.541 594.182 525.626 599.096 519.564 599.096Z" fill="white" stroke="#1E0E62" stroke-width="2" stroke-miterlimit="10" stroke-linecap="round" stroke-linejoin="round"/>
<circle cx="105.783" cy="588.707" r="78.1877" fill="#FF9900"/>
<path d="M106.297 554.5C96.6685 554.5 85.9739 558.103 83.7236 569.879C83.4817 571.132 84.3576 571.777 85.1859 571.96L94.9643 572.957C95.8842 572.91 96.6172 572.052 96.7932 571.147C97.6361 567.089 101.07 565.085 104.926 565.085C107.008 565.085 109.361 565.865 110.592 567.709C112.014 569.769 111.78 572.561 111.78 574.947V576.303C105.912 576.956 98.2592 577.355 92.7726 579.741C86.4321 582.453 81.99 587.984 81.99 596.117C81.99 606.522 88.6421 611.766 97.1597 611.766C104.354 611.766 108.239 610.04 113.792 604.44C115.628 607.071 116.28 608.369 119.641 611.136C120.396 611.535 121.349 611.459 122.016 610.865V610.956C124.035 609.175 127.719 605.979 129.782 604.26C130.603 603.593 130.427 602.549 129.782 601.636C127.931 599.107 126.037 597.011 126.037 592.316V576.754C126.037 570.142 126.48 564.025 121.558 559.473C117.673 555.786 111.215 554.5 106.297 554.5ZM109.038 584.355C109.951 584.297 110.863 584.355 111.78 584.355V586.525C111.78 590.428 111.937 593.639 109.951 597.11C108.342 599.928 105.754 601.633 102.914 601.633C99.0325 601.633 96.7895 598.73 96.7895 594.394C96.7895 586.936 102.654 584.77 109.038 584.355ZM136.999 607.698C134.437 607.735 131.435 608.274 129.141 609.868C128.437 610.359 128.54 611.044 129.324 610.953C131.908 610.645 137.618 609.923 138.644 611.224C139.671 612.525 137.508 617.876 136.544 620.269C136.251 620.991 136.889 621.27 137.549 620.72C141.848 617.158 142.998 609.769 142.119 608.688C141.683 608.16 139.564 607.662 136.999 607.698ZM69.6498 609.054C69.1147 609.124 68.9021 609.817 69.4665 610.322C79.025 618.866 91.6291 623.982 105.655 623.982C115.661 623.982 127.341 620.881 135.357 615.025C136.68 614.053 135.525 612.554 134.169 613.126C125.183 616.901 115.364 618.734 106.48 618.734C93.3077 618.734 80.601 615.175 70.2912 609.234C70.064 609.106 69.8257 609.032 69.6498 609.054Z" fill="white"/>
<path d="M829.396 1342.83C819.586 1342.83 810.719 1346.81 804.304 1353.22C797.869 1359.64 793.907 1368.53 793.907 1378.31C793.907 1368.53 789.946 1359.64 783.51 1353.22C777.096 1346.81 768.229 1342.83 758.419 1342.83C768.229 1342.83 777.096 1338.84 783.51 1332.43C789.946 1326.01 793.907 1317.13 793.907 1307.34C793.907 1317.13 797.869 1326.01 804.304 1332.43C810.719 1338.84 819.586 1342.83 829.396 1342.83Z" fill="#8C30F5"/>
<path d="M1475.57 586.184C1465.76 586.184 1456.89 590.166 1450.48 596.581C1444.04 602.995 1440.08 611.883 1440.08 621.672C1440.08 611.883 1436.12 602.995 1429.68 596.581C1423.27 590.166 1414.4 586.184 1404.59 586.184C1414.4 586.184 1423.27 582.201 1429.68 575.787C1436.12 569.372 1440.08 560.485 1440.08 550.695C1440.08 560.485 1444.04 569.372 1450.48 575.787C1456.89 582.201 1465.76 586.184 1475.57 586.184Z" fill="#8C30F5"/>
<path d="M189.338 1243.59C184.121 1243.59 179.405 1245.71 175.994 1249.12C172.572 1252.53 170.465 1257.26 170.465 1262.46C170.465 1257.26 168.359 1252.53 164.936 1249.12C161.525 1245.71 156.81 1243.59 151.593 1243.59C156.81 1243.59 161.525 1241.47 164.936 1238.06C168.359 1234.65 170.465 1229.92 170.465 1224.72C170.465 1229.92 172.572 1234.65 175.994 1238.06C179.405 1241.47 184.121 1243.59 189.338 1243.59Z" fill="#8C30F5"/>
<path d="M244.998 451.807C237.326 451.807 230.391 454.922 225.375 459.938C220.342 464.955 217.244 471.905 217.244 479.561C217.244 471.905 214.146 464.955 209.113 459.938C204.097 454.922 197.162 451.807 189.49 451.807C197.162 451.807 204.097 448.693 209.113 443.676C214.146 438.66 217.244 431.709 217.244 424.054C217.244 431.709 220.342 438.66 225.375 443.676C230.391 448.693 237.326 451.807 244.998 451.807Z" fill="#8C30F5"/>
<path d="M708.694 1210.02C703.789 1210.02 699.356 1212.01 696.149 1215.22C692.931 1218.43 690.95 1222.87 690.95 1227.77C690.95 1222.87 688.969 1218.43 685.752 1215.22C682.545 1212.01 678.111 1210.02 673.206 1210.02C678.111 1210.02 682.545 1208.03 685.752 1204.82C688.969 1201.62 690.95 1197.17 690.95 1192.28C690.95 1197.17 692.931 1201.62 696.149 1204.82C699.356 1208.03 703.789 1210.02 708.694 1210.02Z" fill="#8C30F5"/>
<path d="M27.6175 944.703C23.8004 944.703 20.3502 946.253 17.8543 948.749C15.3503 951.245 13.8088 954.703 13.8088 958.512C13.8088 954.703 12.2672 951.245 9.76321 948.749C7.26736 946.253 3.81723 944.703 0 944.703C3.81723 944.703 7.26736 943.154 9.76321 940.658C12.2672 938.162 13.8088 934.704 13.8088 930.895C13.8088 934.704 15.3503 938.162 17.8543 940.658C20.3502 943.154 23.8004 944.703 27.6175 944.703Z" fill="#8C30F5"/>
<path d="M176.634 131.551C172.817 131.551 169.367 133.101 166.871 135.597C164.367 138.092 162.825 141.551 162.825 145.36C162.825 141.551 161.284 138.092 158.78 135.597C156.284 133.101 152.834 131.551 149.017 131.551C152.834 131.551 156.284 130.001 158.78 127.505C161.284 125.01 162.825 121.551 162.825 117.742C162.825 121.551 164.367 125.01 166.871 127.505C169.367 130.001 172.817 131.551 176.634 131.551Z" fill="#8C30F5"/>
<path d="M945.492 1219.2C951.373 1219.2 956.14 1214.43 956.14 1208.55C956.14 1202.67 951.373 1197.91 945.492 1197.91C939.611 1197.91 934.844 1202.67 934.844 1208.55C934.844 1214.43 939.611 1219.2 945.492 1219.2Z" fill="#EC615B"/>
<path d="M1476.85 826.501C1481.65 826.501 1485.54 822.611 1485.54 817.813C1485.54 813.015 1481.65 809.125 1476.85 809.125C1472.05 809.125 1468.16 813.015 1468.16 817.813C1468.16 822.611 1472.05 826.501 1476.85 826.501Z" fill="#EC615B"/>
<path d="M1415.24 884.626C1454.87 886.315 1530.59 1016.45 1564.01 1077.56C1573.95 1095.73 1570.41 1118.3 1555.42 1132.58L1555.42 1132.58C1535.88 1151.2 1504.55 1148.94 1487.89 1127.7L1380.25 990.493C1380.25 990.493 1335.56 881.231 1415.24 884.626Z" fill="#EC615B"/>
<path d="M1193.29 882.666C1143.68 897.769 1078.22 1151.03 1078.22 1151.03C1066.04 1219.2 1143.81 1227.98 1163.6 1182.32L1253.65 976.41C1253.65 976.41 1269.59 859.439 1193.29 882.666Z" fill="#EC615B"/>
<path d="M1078.22 1151.03L1081.69 1317.6H1155.49L1163.6 1182.32C1175.11 1109.95 1092.11 1101.3 1078.22 1151.03Z" fill="#EC615B"/>
<path d="M1188.64 1258.63L997.296 1347.07C977.189 1356.36 964.316 1376.49 964.316 1398.64V1398.64C964.316 1435.13 998.218 1462.16 1033.79 1454.03L1312.54 1390.35V1248.19H1187.33L1188.64 1258.63Z" fill="#E8E8EF"/>
<path d="M1286.45 1248.19V1293.76C1286.45 1301.99 1290.43 1309.72 1297.13 1314.51L1312.54 1325.51V1376.98" stroke="#1E0E62" stroke-width="2" stroke-miterlimit="10" stroke-linecap="round" stroke-linejoin="round"/>
<path d="M1054.96 1351.84L1222.55 1275.58V1252.76" stroke="#1E0E62" stroke-width="2" stroke-miterlimit="10" stroke-linecap="round" stroke-linejoin="round"/>
<path d="M1415.24 884.627C1415.24 884.627 1355.6 867.236 1203.31 880.343C1203.31 880.343 1175.59 923.797 1168.75 1021.61C1161.09 1131.02 1155.49 1269.72 1155.49 1269.72H1446.34C1446.34 1269.72 1462.05 1098.71 1415.24 884.627Z" fill="#EC615B"/>
<path d="M1197.92 890.672C1189.5 908.735 1173.69 951.015 1168.75 1021.61C1166.58 1052.61 1164.57 1085.96 1162.81 1117.84" stroke="#1E0E62" stroke-width="2" stroke-miterlimit="10" stroke-linecap="round" stroke-linejoin="round"/>
<path d="M1440.08 1037.21C1435.16 992.253 1427.7 942.784 1416.55 890.672" stroke="#1E0E62" stroke-width="2" stroke-miterlimit="10" stroke-linecap="round" stroke-linejoin="round"/>
<path d="M1358.12 886.983C1348.14 910.193 1329.39 919.59 1317.67 923.271C1314.65 906.719 1306.34 885.903 1306.34 885.903C1297.11 898.612 1292.23 915.418 1291.03 923.086C1261.13 914.868 1257.73 886.13 1257.73 886.13C1261.38 857.332 1286.14 835.648 1307.4 836.37C1354.37 837.966 1358.12 886.983 1358.12 886.983Z" fill="white" stroke="#1E0E62" stroke-width="2" stroke-miterlimit="10" stroke-linecap="round" stroke-linejoin="round"/>
<path d="M1312.54 1390.35H1368.48C1407.94 1390.35 1441.12 1360.75 1445.59 1321.54L1476.75 1048.62C1480.46 1016.14 1455.06 987.683 1422.38 987.683C1397.44 987.683 1375.66 1004.54 1369.4 1028.68L1312.54 1270.21V1390.35Z" fill="#E8E8EF"/>
<path d="M1312.54 1280.55V1378.51" stroke="#1E0E62" stroke-width="2" stroke-miterlimit="10" stroke-linecap="round" stroke-linejoin="round"/>
<path d="M1354.3 1389.84V1423.47L1276.04 1431.57V1385.98L1354.3 1389.84Z" fill="white" stroke="#1E0E62" stroke-width="2" stroke-miterlimit="10" stroke-linecap="round" stroke-linejoin="round"/>
<path d="M1338.29 1440.19V1375.46L1443.85 1359.33V1452.58L1338.29 1440.19Z" fill="#E8E8EF"/>
<path d="M1338.29 1440.19V1375.46L1443.85 1359.33V1452.58L1338.29 1440.19Z" stroke="#1E0E62" stroke-width="2" stroke-miterlimit="10" stroke-linecap="round" stroke-linejoin="round"/>
<path d="M1351.42 1420.3H1404.23" stroke="#1E0E62" stroke-width="2" stroke-miterlimit="10" stroke-linecap="round" stroke-linejoin="round"/>
<path d="M1351.42 1395.36H1404.23" stroke="#1E0E62" stroke-width="2" stroke-miterlimit="10" stroke-linecap="round" stroke-linejoin="round"/>
<path d="M1391.07 1406.33V1406.33C1391.07 1435.89 1415.03 1459.85 1444.59 1459.85H1451.36V1352.81H1444.59C1415.03 1352.81 1391.07 1376.77 1391.07 1406.33Z" fill="white" stroke="#1E0E62" stroke-width="2" stroke-miterlimit="10" stroke-linecap="round" stroke-linejoin="round"/>
<path d="M1283.18 1372.09V1444.48L1023.96 1455.85C1010.08 1456.45 997.068 1452 986.804 1444.05C975.087 1435.02 966.936 1421.43 965.125 1405.65L964.329 1398.66V1393.09C964.329 1382.6 967.979 1373.05 974.099 1365.53C982.853 1354.64 996.739 1348.08 1011.89 1349.34L1283.18 1372.09Z" fill="#E8E8EF"/>
<path d="M1036.5 1402.55C1036.5 1425.85 1017.62 1444.73 994.324 1444.73C991.744 1444.73 989.247 1444.51 986.804 1444.05C975.087 1435.02 966.936 1421.43 965.125 1405.65L964.329 1398.66V1393.08C964.329 1382.6 967.979 1373.05 974.099 1365.53C980.108 1362.21 986.997 1360.35 994.324 1360.35C1017.62 1360.35 1036.5 1379.25 1036.5 1402.55Z" fill="white"/>
<path d="M1011.98 1455.11C1002.66 1453.53 994.049 1449.66 986.804 1444.05C975.087 1435.02 966.936 1421.43 965.125 1405.65L964.329 1398.66V1393.09C964.329 1382.6 967.979 1373.05 974.099 1365.53C982.853 1354.64 996.739 1348.08 1011.89 1349.34L1283.18 1372.09" stroke="#1E0E62" stroke-width="2" stroke-miterlimit="10" stroke-linecap="round" stroke-linejoin="round"/>
<path d="M1262.16 1376.98V1435.67" stroke="#1E0E62" stroke-width="2" stroke-miterlimit="10" stroke-linecap="round" stroke-linejoin="round"/>
<path d="M1448.88 1367.53H1415.24L1407.14 1289.28H1452.74L1448.88 1367.53Z" fill="white" stroke="#1E0E62" stroke-width="2" stroke-miterlimit="10" stroke-linecap="round" stroke-linejoin="round"/>
<path d="M1393.31 1305.19H1465.7L1477.06 1045.97C1477.66 1032.09 1473.22 1019.08 1465.26 1008.81C1456.23 997.096 1442.65 988.946 1426.87 987.135L1419.87 986.339H1414.3C1403.82 986.339 1394.27 989.989 1386.75 996.108C1375.85 1004.86 1369.29 1018.75 1370.56 1033.9L1393.31 1305.19Z" fill="#E8E8EF"/>
<path d="M1423.77 1058.51C1447.06 1058.51 1465.95 1039.63 1465.95 1016.33C1465.95 1013.75 1465.73 1011.26 1465.26 1008.81C1456.23 997.096 1442.65 988.946 1426.87 987.135L1419.87 986.339H1414.3C1403.82 986.339 1394.27 989.989 1386.75 996.108C1383.43 1002.12 1381.56 1009.01 1381.56 1016.33C1381.56 1039.63 1400.47 1058.51 1423.77 1058.51Z" fill="white"/>
<path d="M1465.26 1008.81C1456.23 997.096 1442.65 988.946 1426.87 987.135L1419.87 986.339H1414.3C1403.82 986.339 1394.27 989.989 1386.75 996.108C1375.85 1004.86 1369.29 1018.75 1370.56 1033.9L1393.31 1305.19H1462.68" stroke="#1E0E62" stroke-width="2" stroke-miterlimit="10" stroke-linecap="round" stroke-linejoin="round"/>
<path d="M1401.22 1284.17H1456.89" stroke="#1E0E62" stroke-width="2" stroke-miterlimit="10" stroke-linecap="round" stroke-linejoin="round"/>
<path d="M1401.22 1342.83H1465.95L1482.08 1448.39H1388.83L1401.22 1342.83Z" fill="#E8E8EF"/>
<path d="M1401.22 1342.83H1465.95L1482.08 1448.39H1388.83L1401.22 1342.83Z" stroke="#1E0E62" stroke-width="2" stroke-miterlimit="10" stroke-linecap="round" stroke-linejoin="round"/>
<path d="M1421.11 1355.95V1408.77" stroke="#1E0E62" stroke-width="2" stroke-miterlimit="10" stroke-linecap="round" stroke-linejoin="round"/>
<path d="M1446.05 1355.95V1408.77" stroke="#1E0E62" stroke-width="2" stroke-miterlimit="10" stroke-linecap="round" stroke-linejoin="round"/>
<path d="M1435.08 1395.61H1435.08C1405.52 1395.61 1381.56 1419.57 1381.56 1449.13V1455.9H1488.6V1449.13C1488.6 1419.57 1464.64 1395.61 1435.08 1395.61Z" fill="white" stroke="#1E0E62" stroke-width="2" stroke-miterlimit="10" stroke-linecap="round" stroke-linejoin="round"/>
<path d="M1326.96 870.304C1320.78 873.907 1314.3 876.127 1307.48 876.825C1300.67 876.197 1294.2 873.88 1288 870.304V817.811H1326.96V870.304Z" fill="white" stroke="#1E0E62" stroke-width="2" stroke-miterlimit="10" stroke-linecap="round" stroke-linejoin="round"/>
<path d="M1336.95 800.807C1338.48 787.345 1346.35 776.566 1354.65 777.189C1356.34 777.316 1358.03 777.903 1359.63 779.143C1368.77 786.223 1359.25 823.679 1335.43 814.267L1336.95 800.807Z" fill="white" stroke="#1E0E62" stroke-width="2" stroke-miterlimit="10" stroke-linecap="round" stroke-linejoin="round"/>
<path d="M1275.07 800.807C1273.55 787.345 1265.68 776.566 1257.38 777.189C1255.69 777.316 1254 777.903 1252.4 779.143C1243.26 786.223 1252.78 823.679 1276.6 814.267L1275.07 800.807Z" fill="white" stroke="#1E0E62" stroke-width="2" stroke-miterlimit="10" stroke-linecap="round" stroke-linejoin="round"/>
<path d="M1344.54 794.501C1344.54 806.416 1336.22 832.061 1306.01 834.281C1275.81 832.061 1267.49 806.416 1267.49 794.501C1267.49 782.554 1257.43 734.329 1306.01 734.329C1354.6 734.329 1344.54 782.554 1344.54 794.501Z" fill="white" stroke="#1E0E62" stroke-width="2" stroke-miterlimit="10" stroke-linecap="round" stroke-linejoin="round"/>
<path d="M1346.76 795.094L1342.98 795.421L1345.4 777.164C1345.4 777.164 1331.99 780.156 1330.83 772.787C1330.83 772.787 1329.33 765.176 1332.22 748.733C1332.22 748.733 1314.84 752.663 1303 752.663C1267.41 752.663 1260.05 729.084 1262.79 717.005C1262.8 716.928 1262.82 716.851 1262.84 716.774C1267.03 699.081 1273.54 711.826 1273.54 711.826C1273.54 711.826 1277.09 697.589 1284.62 696.942C1292.18 696.3 1293.87 715.002 1293.87 715.002C1293.87 715.002 1309.44 709.679 1332.59 715.249C1360.82 722.044 1349.3 738.019 1349.3 738.019C1349.3 738.019 1376.96 744.105 1346.76 795.094Z" fill="#1E0E62"/>
<path d="M1273.52 728.155C1251.17 735.953 1251.09 761.222 1266.63 793.256H1270.75L1268.17 778.413C1268.17 778.413 1286.77 778.279 1279.88 744.422L1273.52 728.155Z" fill="#1E0E62"/>
<path d="M1277.32 1329.05H1037.35C1025.83 1329.05 1016.48 1319.71 1016.48 1308.19V1147.77C1016.48 1136.25 1025.83 1126.9 1037.35 1126.9H1277.32C1288.85 1126.9 1298.19 1136.25 1298.19 1147.77V1308.19C1298.19 1319.71 1288.85 1329.05 1277.32 1329.05Z" fill="white" stroke="#1E0E62" stroke-width="2" stroke-miterlimit="10" stroke-linecap="round" stroke-linejoin="round"/>
<path d="M1569.79 1101.3L1569.79 1101.33C1570.11 1135.69 1539.79 1154.08 1510.89 1144.67C1500.68 1141.38 1490.65 1134.62 1482.24 1123.86C1446.52 1078.28 1406.82 1000.4 1406.82 1000.4L1455.93 957.519C1455.93 957.519 1557.29 1044.26 1567.7 1085.65C1569.09 1091.18 1569.74 1096.39 1569.79 1101.3Z" fill="#EC615B"/>
<path d="M1569.79 1101.31L1569.79 1101.33C1570.11 1135.69 1539.79 1154.08 1510.89 1144.67C1507.41 1139.13 1505.4 1132.59 1505.33 1125.59C1505.14 1105.34 1521.4 1088.75 1541.68 1088.56C1552.9 1088.45 1562.99 1093.41 1569.79 1101.31Z" fill="white"/>
<path d="M1569.79 1101.3L1569.79 1101.33C1570.11 1135.69 1539.79 1154.08 1510.89 1144.66" stroke="#1E0E62" stroke-width="2" stroke-miterlimit="10" stroke-linecap="round" stroke-linejoin="round"/>
<path d="M1530.91 1030.41C1498.17 993.644 1455.94 957.506 1455.94 957.506L1406.81 1000.4C1406.81 1000.4 1437.05 1059.7 1468.48 1105.09" stroke="#1E0E62" stroke-width="2" stroke-miterlimit="10" stroke-linecap="round" stroke-linejoin="round"/>
<path d="M1454.37 972.521C1454.37 972.521 1427.96 949.534 1400.08 950.023C1391.26 950.178 1362.91 973.01 1355.57 983.28C1348.24 993.551 1349.22 1014.09 1357.04 1022.41C1364.87 1030.72 1370.25 1019.47 1370.25 1019.47C1370.25 1019.47 1368.29 1032.68 1389.81 1036.59C1411.33 1040.5 1423.55 1025.34 1424.04 1007.24C1424.04 1007.24 1451.92 1010.18 1454.37 972.521Z" fill="white" stroke="#1E0E62" stroke-width="2" stroke-miterlimit="10" stroke-linecap="round" stroke-linejoin="round"/>
<path d="M1369.93 1010.18C1369.93 1010.18 1369.09 1000.53 1370.75 993.349C1372.41 986.166 1386.22 978.431 1386.22 978.431" stroke="#1E0E62" stroke-width="2" stroke-miterlimit="10" stroke-linecap="round" stroke-linejoin="round"/>
<path d="M422.413 1370.13C422.413 1370.13 333.134 1293.94 345.879 1151.15C444.796 1254.92 422.413 1370.13 422.413 1370.13Z" fill="white" stroke="#1E0E62" stroke-width="2" stroke-miterlimit="10" stroke-linecap="round" stroke-linejoin="round"/>
<path d="M422.413 1370.13C422.413 1370.13 311.986 1330.37 273.495 1192.28C402.678 1254.43 422.413 1370.13 422.413 1370.13Z" fill="#E8E8EF"/>
<path d="M422.413 1370.13C422.413 1370.13 511.691 1293.94 498.947 1151.15C400.029 1254.92 422.413 1370.13 422.413 1370.13Z" fill="white" stroke="#1E0E62" stroke-width="2" stroke-miterlimit="10" stroke-linecap="round" stroke-linejoin="round"/>
<path d="M422.413 1370.13C422.413 1370.13 532.84 1330.37 571.331 1192.28C442.148 1254.43 422.413 1370.13 422.413 1370.13Z" fill="#E8E8EF"/>
<path d="M422.413 1370.13C422.413 1370.13 363.27 1268.75 422.413 1138.16C481.556 1268.75 422.413 1370.13 422.413 1370.13Z" fill="#E8E8EF"/>
<path d="M531.145 1317.6C531.145 1418.23 476.021 1466 476.021 1466H368.773C368.773 1466 313.68 1418.23 313.68 1317.6H531.145Z" fill="#8C30F5"/>
<ellipse cx="1465.41" cy="318.353" rx="78.1852" ry="78.1854" fill="white"/>
<path d="M1465.41 240.163C1422.29 240.163 1387.22 275.232 1387.22 318.349C1387.22 361.465 1422.29 396.534 1465.41 396.534C1508.52 396.534 1543.59 361.465 1543.59 318.349C1543.59 275.232 1508.52 240.163 1465.41 240.163ZM1453.19 287.157C1454.27 285.324 1456.62 284.713 1458.45 285.789L1461.86 287.781C1463.69 288.856 1464.32 291.207 1463.24 293.052L1459.86 298.842L1449.81 292.959L1453.19 287.157ZM1415.53 312.652H1436.42L1429.77 323.899H1415.53V312.652ZM1420.57 355.994C1420.31 356.233 1419.94 356.273 1419.64 356.1C1419.34 355.927 1419.2 355.582 1419.29 355.25L1424.15 336.859L1434.2 342.742L1420.57 355.994ZM1425.41 334.681L1448.98 294.367L1459.03 300.25L1435.46 340.564L1425.41 334.681ZM1447.02 323.899L1453.26 312.665H1477.35L1483.59 323.899H1447.02ZM1459.23 277.623C1458.16 275.79 1458.8 273.426 1460.63 272.364L1463.75 270.545C1465.58 269.483 1467.93 270.107 1469.01 271.939L1495.66 317.817L1485.88 323.501L1459.23 277.623ZM1486.97 325.386L1496.75 319.703L1502.4 329.436L1492.63 335.106L1486.97 325.386ZM1507.54 355.688C1507.32 356.007 1506.74 355.742 1506.57 355.476C1506.12 354.759 1506.52 353.776 1505.08 351.585C1502.44 347.562 1498.95 348.359 1495.58 342.688C1494.98 341.693 1492.96 337.125 1495.58 335.571C1496.97 334.735 1499.34 333.327 1500.93 332.437C1503.61 330.91 1506.09 334.11 1507.46 336.116C1510.41 340.418 1511.6 350.085 1507.54 355.688ZM1515.14 323.899H1501.13L1495.01 312.665H1515.14V323.899Z" fill="#1C77F2"/>
<circle cx="103.944" cy="319.19" r="78.1877" fill="#00BF1F"/>
<path d="M79.9106 280.783L113.717 314.583L122.44 305.86C110.52 298.627 94.5546 288.925 87.3744 284.563L82.564 281.649C81.7137 281.131 80.8033 280.852 79.9106 280.783ZM74.7503 284.83C74.6819 285.201 74.623 285.575 74.623 285.975V352.773C74.623 353.054 74.6794 353.314 74.7185 353.582L109.11 319.19L74.7503 284.83ZM128.173 309.34L118.324 319.19L128.002 328.868C133.129 325.76 136.681 323.602 137.075 323.364C138.818 322.299 139.802 320.691 139.773 318.935C139.747 317.212 138.762 315.671 137.088 314.723C136.713 314.508 133.21 312.393 128.173 309.34ZM113.717 323.797L80.0125 357.501C80.6673 357.387 81.3213 357.192 81.9468 356.814C82.8134 356.286 106.224 342.083 122.269 332.348L113.717 323.797Z" fill="white"/>
<circle cx="103.944" cy="1085.43" r="78.1877" fill="white"/>
<path d="M103.944 1007.24C60.7644 1007.24 25.7559 1042.25 25.7559 1085.43C25.7559 1128.61 60.7644 1163.62 103.944 1163.62C147.123 1163.62 182.131 1128.61 182.131 1085.43C182.131 1042.25 147.123 1007.24 103.944 1007.24ZM77.881 1046.29H113.717C129.908 1046.29 143.037 1059.41 143.037 1075.61C143.037 1091.8 129.908 1104.93 113.717 1104.93H94.1701V1124.52H77.881V1046.34V1046.29ZM94.1701 1062.57V1088.64H113.717C120.904 1088.64 126.748 1082.79 126.748 1075.61C126.748 1068.42 120.904 1062.57 113.717 1062.57H94.1701Z" fill="#DA552F"/>
<circle cx="105.783" cy="821.431" r="78.1877" fill="#0A9600"/>
<path d="M56.916 796.997V813.294H73.1949V845.864H89.4952V813.294H105.774V796.997H56.916ZM122.073 829.569V813.294H105.773V845.864H154.651V829.569H122.073ZM122.073 796.999H154.651V813.294H122.073V796.999Z" fill="white"/>
<circle cx="466.367" cy="106.703" r="78.1877" fill="white"/>
<path d="M466.367 28.5156C423.188 28.5156 388.179 63.5168 388.179 106.687C388.179 143.317 413.408 173.966 447.419 182.448C447.055 181.392 446.82 180.168 446.82 178.65V165.289C443.647 165.289 438.33 165.289 436.994 165.289C431.645 165.289 426.889 162.99 424.582 158.716C422.021 153.967 421.578 146.704 415.232 142.261C413.349 140.782 414.783 139.095 416.952 139.323C420.959 140.457 424.282 143.206 427.41 147.284C430.524 151.368 431.99 152.293 437.809 152.293C440.63 152.293 444.852 152.13 448.827 151.505C450.964 146.079 454.658 141.082 459.174 138.724C433.137 136.047 420.712 123.096 420.712 105.514C420.712 97.9447 423.937 90.6226 429.417 84.4536C427.618 78.3302 425.357 65.8424 430.107 61.0869C441.822 61.0869 448.905 68.6826 450.606 70.7346C456.444 68.7347 462.855 67.6012 469.592 67.6012C476.342 67.6012 482.78 68.7347 488.631 70.7476C490.312 68.7086 497.401 61.0869 509.142 61.0869C513.912 65.8489 511.625 78.3888 509.807 84.4992C515.254 90.6552 518.459 97.9577 518.459 105.514C518.459 123.083 506.054 136.027 480.056 138.717C487.21 142.45 492.429 152.938 492.429 160.84V178.65C492.429 179.327 492.28 179.816 492.201 180.396C522.669 169.719 544.555 140.795 544.555 106.687C544.555 63.5168 509.546 28.5156 466.367 28.5156Z" fill="#2D2B2B"/>
<ellipse cx="1012.43" cy="105.783" rx="78.5387" ry="77.2921" fill="white"/>
<path d="M1013.68 26.7969C972.715 26.7969 939.035 57.9639 935.086 97.8885L975.267 118.456C979.324 115.045 984.599 112.965 990.344 112.965H990.526C991.926 110.811 993.537 108.115 995.224 105.315C998.743 99.5341 1002.69 92.9994 1006.57 87.9729C1007.43 71.9241 1020.75 59.11 1037.02 59.11C1053.86 59.11 1067.54 72.7892 1067.54 89.6279C1067.54 105.892 1054.72 119.214 1038.67 120.076C1033.65 123.953 1027.15 127.904 1021.33 131.387C1018.53 133.11 1015.83 134.72 1013.68 136.12V136.302C1013.68 149.192 1003.23 159.64 990.344 159.64C977.454 159.64 967.006 149.192 967.006 136.302C967.006 135.692 967.041 135.117 967.076 134.507L935.696 118.421C941.764 156.048 974.367 184.772 1013.68 184.772C1057.3 184.772 1092.67 149.407 1092.67 105.784C1092.67 62.1617 1057.3 26.7969 1013.68 26.7969ZM1037.02 66.2906C1024.16 66.2906 1013.68 76.7744 1013.68 89.6279C1013.68 102.481 1024.16 112.965 1037.02 112.965C1049.87 112.965 1060.36 102.481 1060.36 89.6279C1060.36 76.7744 1049.87 66.2906 1037.02 66.2906ZM1037.02 73.4713C1045.96 73.4713 1053.17 80.6879 1053.17 89.6279C1053.17 98.5678 1045.96 105.784 1037.02 105.784C1028.08 105.784 1020.86 98.5678 1020.86 89.6279C1020.86 80.6879 1028.08 73.4713 1037.02 73.4713ZM990.344 120.146C987.507 120.146 984.816 120.865 982.518 122.193L994.439 128.294C998.855 130.556 1000.58 135.981 998.352 140.398C996.736 143.485 993.611 145.278 990.344 145.278C988.943 145.278 987.577 144.957 986.248 144.31L974.292 138.168C975.226 146.21 982.05 152.459 990.344 152.459C999.283 152.459 1006.5 145.242 1006.5 136.302C1006.5 127.362 999.283 120.146 990.344 120.146Z" fill="#125389"/>
</svg>
