<svg width="1954" height="1565" viewBox="0 0 1954 1565" fill="none" xmlns="http://www.w3.org/2000/svg">
<path d="M314.399 586.013C326.629 586.013 336.542 576.094 336.542 563.859C336.542 551.624 326.629 541.706 314.399 541.706C302.17 541.706 292.256 551.624 292.256 563.859C292.256 576.094 302.17 586.013 314.399 586.013Z" fill="#8C30F5"/>
<path d="M1237.44 41.5396C1244.58 41.5396 1250.36 35.7482 1250.36 28.6043C1250.36 21.4603 1244.58 15.6689 1237.44 15.6689C1230.29 15.6689 1224.51 21.4603 1224.51 28.6043C1224.51 35.7482 1230.29 41.5396 1237.44 41.5396Z" fill="#8C30F5"/>
<path d="M1929.97 463.2C1943.1 463.2 1953.75 452.55 1953.75 439.411C1953.75 426.273 1943.1 415.622 1929.97 415.622C1916.84 415.622 1906.19 426.273 1906.19 439.411C1906.19 452.55 1916.84 463.2 1929.97 463.2Z" fill="#8C30F5"/>
<path d="M427.345 643.701C435.224 643.701 441.612 637.311 441.612 629.428C441.612 621.545 435.224 615.154 427.345 615.154C419.466 615.154 413.078 621.545 413.078 629.428C413.078 637.311 419.466 643.701 427.345 643.701Z" fill="#EC615B"/>
<path d="M1166.55 86.5899C1173.2 86.5899 1178.58 81.1979 1178.58 74.5467C1178.58 67.8954 1173.2 62.5034 1166.55 62.5034C1159.9 62.5034 1154.51 67.8954 1154.51 74.5467C1154.51 81.1979 1159.9 86.5899 1166.55 86.5899Z" fill="#EC615B"/>
<path d="M1608.52 397.186C1617.3 397.186 1624.42 390.063 1624.42 381.277C1624.42 372.491 1617.3 365.368 1608.52 365.368C1599.74 365.368 1592.62 372.491 1592.62 381.277C1592.62 390.063 1599.74 397.186 1608.52 397.186Z" fill="#EC615B"/>
<path d="M850.298 497.844C856.29 497.844 861.147 492.984 861.147 486.99C861.147 480.996 856.29 476.136 850.298 476.136C844.306 476.136 839.449 480.996 839.449 486.99C839.449 492.984 844.306 497.844 850.298 497.844Z" fill="#EC615B"/>
<path d="M285.42 97.5924C298.716 97.5924 309.495 86.8085 309.495 73.5059C309.495 60.2033 298.716 49.4194 285.42 49.4194C272.123 49.4194 261.344 60.2033 261.344 73.5059C261.344 86.8085 272.123 97.5924 285.42 97.5924Z" fill="#EC615B"/>
<path d="M1247.24 166.135C1248.28 156.173 1260.62 158.106 1266.41 161.08C1270.87 163.459 1274.74 166.73 1279.2 168.96C1286.18 172.677 1293.61 174.015 1300.74 169.852C1309.36 164.797 1315.75 157.66 1326.16 155.579C1336.56 153.497 1343.99 161.526 1353.95 160.485C1361.23 159.593 1367.32 154.835 1373.56 151.415C1377.58 149.185 1381.89 147.104 1386.64 147.401C1391.99 147.698 1396.6 150.672 1401.21 153.051C1407.89 156.471 1414.14 158.403 1421.42 155.727C1426.47 153.943 1430.93 151.564 1436.43 151.415C1443.56 151.267 1450.1 153.794 1455.45 158.552C1457.68 160.485 1460.8 157.214 1458.57 155.43C1451.59 149.334 1442.82 146.212 1433.6 147.252C1427.81 147.847 1423.5 151.118 1417.85 152.308C1411.02 153.794 1405.37 150.226 1399.57 147.252C1391.7 143.238 1384.71 141.602 1376.39 145.022C1366.58 149.037 1357.96 158.701 1346.67 155.133C1341.76 153.497 1337.6 150.969 1332.1 150.672C1327.35 150.523 1322.59 151.564 1318.13 153.348C1306.69 157.957 1297.62 171.488 1284.55 166.432C1274.89 162.715 1266.86 152.754 1255.57 153.794C1248.73 154.538 1243.23 158.998 1242.49 165.986C1242.49 168.96 1246.95 168.96 1247.24 166.135Z" fill="#E8E8E8"/>
<path d="M1305.5 145.765C1310.55 137.588 1319.02 132.235 1328.68 131.64C1337.75 131.046 1345.48 136.101 1354.24 137.736C1360.49 138.777 1365.84 137.29 1371.19 134.317C1380.25 129.262 1386.79 125.842 1397.49 127.626C1404.33 128.816 1411.02 130.897 1418.15 131.343C1425.73 131.789 1431.52 129.41 1438.21 126.139C1455.9 117.813 1471.06 131.492 1488.89 131.194C1491.71 131.194 1491.71 126.734 1488.89 126.734C1471.5 127.031 1456.19 113.501 1438.66 121.084C1434.5 122.868 1430.63 125.396 1426.17 126.437C1421.12 127.626 1415.92 126.883 1410.87 125.991C1402.99 124.504 1395.11 121.827 1387.09 122.72C1379.66 123.463 1374.31 127.775 1367.92 131.046C1356.62 136.993 1347.71 130.005 1336.56 127.775C1322.74 125.098 1308.92 131.789 1301.49 143.535C1300.15 146.063 1303.87 148.293 1305.5 145.765Z" fill="#E8E8E8"/>
<path d="M566.298 659.015C569.271 644.295 589.185 655.298 597.21 657.231C606.127 659.312 614.003 656.19 621.88 652.176C626.784 649.648 631.688 646.823 637.187 645.782C643.429 644.593 649.373 646.674 655.02 648.905C663.343 652.027 671.962 655.893 680.73 652.324C688.607 649.202 696.483 637.159 705.846 639.389C713.871 641.322 718.032 649.053 726.652 643.552C731.705 640.43 734.677 637.902 741.067 639.538C744.931 640.578 748.647 642.511 752.362 643.998C758.455 646.377 764.548 647.864 770.196 643.998C772.573 642.363 770.344 638.497 767.966 640.132C760.09 645.634 750.133 637.456 742.256 635.226C739.284 634.482 736.163 634.036 733.191 634.631C726.949 635.969 723.085 643.403 715.952 639.686C709.264 636.118 704.36 632.698 696.781 636.267C685.783 641.47 680.433 651.878 666.612 648.31C656.952 645.782 648.481 639.984 638.078 641.173C627.824 642.363 619.948 649.648 610.288 652.473C597.804 656.19 588.442 646.526 576.255 647.269C569.568 647.715 563.326 651.135 561.84 657.974C561.394 660.65 565.704 661.84 566.298 659.015Z" fill="#E8E8E8"/>
<path d="M673.003 627.94C679.987 621.993 689.35 620.506 697.821 624.372C703.171 626.751 707.778 629.873 713.871 630.022C726.503 630.171 745.08 616.194 755.186 629.278C756.077 630.468 758.009 629.873 758.752 628.832C769.007 611.883 790.704 617.235 806.16 621.844C808.984 622.588 810.024 618.425 807.349 617.533C789.664 612.329 766.183 607.72 754.888 626.602C756.077 626.454 757.266 626.305 758.455 626.156C746.715 611.139 728.138 626.007 713.871 625.71C704.806 625.413 697.97 618.127 688.756 617.83C681.622 617.681 675.232 620.358 669.882 624.967C667.653 626.751 670.922 629.873 673.003 627.94Z" fill="#E8E8E8"/>
<path d="M98.3158 792.978C100.545 786.584 106.49 781.975 113.474 781.975C119.567 781.975 124.323 786.138 128.633 789.856C134.132 794.465 140.076 799.817 147.804 798.479C156.869 796.844 160.882 787.328 167.867 782.421C177.972 775.433 191.645 776.177 202.939 779.596C212.302 782.57 221.516 788.071 231.473 784.206C240.539 780.637 245.889 771.122 256.44 770.527C273.531 769.635 288.243 785.99 305.334 777.812C307.86 776.623 305.631 772.757 303.105 773.947C285.42 782.421 267.586 760.417 249.01 767.553C236.675 772.311 231.919 784.206 216.612 779.745C206.209 776.771 197.144 772.311 185.998 772.46C177.081 772.608 168.461 775.285 161.774 781.381C157.018 785.692 153.154 793.573 146.021 794.019C140.373 794.316 135.766 789.707 131.754 786.436C125.661 781.381 119.419 776.325 110.948 777.515C102.923 778.556 96.681 784.057 94.006 791.491C93.1143 794.465 97.4241 795.654 98.3158 792.978Z" fill="#E8E8E8"/>
<path d="M3.35181 1249.13C47.1927 1216.87 97.5725 1194.12 150.776 1182.52C177.378 1176.73 204.723 1173.75 231.919 1173.9C262.087 1174.05 291.958 1177.47 321.978 1179.7C354.673 1182.08 387.665 1182.38 419.766 1175.24C422.589 1174.64 421.401 1170.33 418.577 1170.93C358.24 1184.61 296.863 1170.33 236.08 1169.59C182.728 1168.85 129.524 1179.55 80.3334 1200.22C52.0969 1212.11 25.4952 1227.28 0.825387 1245.42C-1.2552 1247.05 0.973996 1250.92 3.35181 1249.13Z" fill="#E8E8E8"/>
<path d="M314.399 1184.9C352.444 1157.4 390.192 1129.15 428.831 1102.38C446.665 1090.04 465.39 1078.59 486.047 1071.46C506.258 1064.62 527.51 1062.39 548.465 1059.56C567.784 1057.04 587.253 1053.91 605.383 1046.03C621.582 1039.05 635.701 1028.34 648.63 1016.45C676.569 990.426 699.158 958.906 733.191 940.172C773.911 917.869 821.467 912.814 866.943 908.205C869.766 907.908 869.766 903.447 866.943 903.745C827.114 907.759 786.246 912.071 748.944 927.682C713.574 942.402 688.904 968.421 663.045 995.63C649.819 1009.61 635.998 1023.43 619.502 1033.69C601.371 1044.99 580.862 1050.2 559.908 1053.47C539.845 1056.59 519.336 1058.23 499.571 1062.98C478.914 1067.89 459.891 1077.11 442.058 1088.26C420.211 1101.94 399.554 1117.7 378.748 1132.86C356.605 1148.92 334.462 1164.98 312.17 1180.89C309.941 1182.67 312.17 1186.54 314.399 1184.9Z" fill="#E8E8E8"/>
<path d="M1003.22 1427.11C1027.89 1403.61 1059.25 1389.64 1090.01 1375.66C1125.38 1359.6 1161.05 1347.26 1200.13 1357.52C1202.96 1358.27 1204.15 1353.95 1201.32 1353.21C1163.13 1343.1 1127.76 1353.95 1092.69 1369.57C1059.99 1384.14 1026.4 1398.86 1000.1 1423.83C997.871 1425.92 1001.14 1429.04 1003.22 1427.11Z" fill="#E8E8E8"/>
<path d="M660.519 1302.81C685.784 1299.24 711.345 1305.78 735.42 1313.07C754.591 1318.86 774.803 1327.04 784.76 1345.63C786.097 1348.15 789.961 1345.92 788.624 1343.4C778.369 1324.51 758.307 1315.44 738.69 1309.5C713.128 1301.62 686.081 1294.93 659.33 1298.64C656.507 1298.79 657.696 1303.1 660.519 1302.81Z" fill="#E8E8E8"/>
<path d="M874.82 1288.39C901.867 1260.14 939.912 1244.52 978.849 1245.86C981.672 1246.01 981.672 1241.55 978.849 1241.4C938.723 1240.06 899.341 1256.12 871.55 1285.26C869.618 1287.35 872.739 1290.62 874.82 1288.39Z" fill="#E8E8E8"/>
<path d="M877.346 1116.95C907.217 1122.01 933.67 1139.7 949.72 1165.57C951.206 1167.95 955.07 1165.72 953.584 1163.34C936.94 1136.58 909.595 1118 878.683 1112.79C875.711 1112.2 874.522 1116.51 877.346 1116.95Z" fill="#E8E8E8"/>
<path d="M1033.09 1087.37C1065.34 1055.1 1110.22 1037.71 1155.85 1039.64C1158.67 1039.79 1158.67 1035.33 1155.85 1035.18C1109.18 1033.1 1063.11 1051.09 1029.97 1084.24C1027.89 1086.33 1031.01 1089.45 1033.09 1087.37Z" fill="#E8E8E8"/>
<path d="M947.937 1484.79C964.73 1462.19 999.06 1457.73 1021.5 1474.53C1023.73 1476.32 1025.96 1472.45 1023.73 1470.67C999.209 1452.23 962.353 1458.18 944.073 1482.56C942.29 1484.94 946.154 1487.17 947.937 1484.79Z" fill="#E8E8E8"/>
<path d="M1172.94 1186.69C1195.23 1166.91 1221.98 1152.79 1250.81 1145.35C1264.93 1141.78 1279.49 1139.7 1294.21 1139.55C1300.6 1139.41 1317.69 1143.57 1319.62 1133.9C1320.21 1131.08 1315.9 1129.89 1315.31 1132.71C1314.42 1137.77 1299.11 1135.09 1295.54 1135.09C1288.71 1135.09 1281.87 1135.54 1275.18 1136.43C1262.25 1137.92 1249.47 1140.74 1237.14 1144.91C1212.32 1153.08 1189.58 1166.32 1169.96 1183.71C1167.59 1185.5 1170.71 1188.62 1172.94 1186.69Z" fill="#E8E8E8"/>
<path d="M1208.75 1023.88C1227.78 1021.5 1245.76 1035.18 1248.43 1054.21C1248.88 1057.04 1253.19 1055.85 1252.74 1053.02C1249.77 1032.21 1229.56 1016.89 1208.75 1019.42C1205.93 1019.72 1205.93 1024.18 1208.75 1023.88Z" fill="#E8E8E8"/>
<path d="M1273.99 1055.1C1307.28 1015.85 1360.64 996.672 1411.16 1005.89C1413.99 1006.34 1415.18 1002.17 1412.35 1001.58C1360.34 992.062 1305.2 1011.39 1270.87 1051.98C1268.94 1054.06 1272.06 1057.18 1273.99 1055.1Z" fill="#E8E8E8"/>
<path d="M538.062 1467.4C564.961 1455.21 594.832 1459.37 622.474 1466.06C650.562 1472.9 678.353 1480.34 695.889 1505.16C697.524 1507.54 701.388 1505.31 699.753 1502.93C691.876 1491.63 681.622 1482.42 669.287 1476.17C655.169 1469.04 638.97 1465.47 623.663 1461.75C594.683 1454.61 563.772 1450.9 535.833 1463.53C533.158 1464.72 535.387 1468.44 538.062 1467.4Z" fill="#E8E8E8"/>
<path d="M1381.44 1334.92C1428.85 1304.59 1486.81 1291.95 1542.54 1300.58C1556.66 1302.81 1570.63 1306.23 1584.89 1306.67C1598.27 1307.12 1610.45 1303.7 1622.64 1298.49C1649.99 1287.05 1677.48 1279.02 1707.35 1277.98C1739.9 1276.79 1772.59 1283.03 1802.46 1296.12C1805.14 1297.31 1807.37 1293.44 1804.69 1292.25C1753.12 1269.5 1693.38 1267.12 1640.33 1286.45C1625.76 1291.8 1611.79 1299.98 1596.04 1301.77C1579.39 1303.7 1562.9 1299.39 1546.55 1296.71C1520.1 1292.4 1493.05 1292.4 1466.6 1297.01C1435.54 1302.36 1405.81 1314.11 1379.21 1331.06C1376.83 1332.69 1379.06 1336.56 1381.44 1334.92Z" fill="#E8E8E8"/>
<path d="M1607.48 1231.59C1655.78 1210.77 1708.54 1188.47 1762.34 1195.46C1774.08 1196.95 1786.12 1202.15 1798 1200.81C1809 1199.62 1819.11 1193.67 1829.96 1191.3C1855.07 1185.79 1881.52 1189.81 1903.97 1201.85C1906.49 1203.19 1908.72 1199.32 1906.19 1197.99C1885.24 1186.69 1861.46 1182.23 1837.83 1185.35C1825.65 1186.98 1815.24 1191.89 1803.5 1195.16C1789.53 1199.03 1775.12 1192.63 1761.15 1190.85C1706.76 1184.31 1654 1206.61 1605.1 1227.72C1602.73 1228.91 1604.96 1232.78 1607.48 1231.59Z" fill="#E8E8E8"/>
<path d="M110.799 1411.49C135.321 1398.11 164.152 1400.49 190.01 1407.93C204.277 1411.94 218.098 1417.44 231.919 1422.64C243.362 1426.81 257.481 1434.09 269.816 1433.2C280.367 1432.46 290.324 1424.13 300.133 1420.41C312.467 1415.81 325.545 1413.13 338.623 1412.39C364.333 1411.05 389.746 1417.29 411.89 1430.67C414.416 1432.16 416.645 1428.29 414.119 1426.81C380.83 1406.74 339.069 1402.28 302.362 1414.91C293.594 1417.89 285.717 1422.5 277.395 1426.36C265.209 1432.01 250.05 1424.43 238.31 1420.27C216.761 1412.53 195.36 1403.17 172.623 1399.3C150.776 1395.58 128.187 1396.77 108.422 1407.48C106.044 1408.97 108.273 1412.83 110.799 1411.49Z" fill="#E8E8E8"/>
<path d="M1571.81 49.2715C1573.3 117.368 1573.3 185.464 1571.96 253.709C1571.96 256.534 1576.42 256.534 1576.42 253.709C1577.76 185.613 1577.76 117.517 1576.27 49.2715C1576.12 46.4466 1571.67 46.4466 1571.81 49.2715Z" fill="#E8E8E8"/>
<path d="M1579.69 43.7695C1697.54 43.7695 1815.39 43.7695 1933.24 43.7695C1936.07 43.7695 1936.07 39.3091 1933.24 39.3091C1815.39 39.3091 1697.54 39.3091 1579.69 39.3091C1576.72 39.3091 1576.72 43.7695 1579.69 43.7695Z" fill="#E8E8E8"/>
<path d="M1595.3 258.615C1706.16 258.615 1817.03 258.615 1927.89 258.615C1930.72 258.615 1930.72 254.154 1927.89 254.154C1817.03 254.154 1706.16 254.154 1595.3 254.154C1592.47 254.154 1592.47 258.615 1595.3 258.615Z" fill="#E8E8E8"/>
<path d="M1938.89 41.5393C1938.89 108.743 1938.89 176.096 1938.89 243.301C1938.89 246.125 1943.35 246.125 1943.35 243.301C1943.35 176.096 1943.35 108.743 1943.35 41.5393C1943.35 38.5657 1938.89 38.5657 1938.89 41.5393Z" fill="#E8E8E8"/>
<path d="M1724.29 30.8343C1723.85 34.4027 1726.82 36.9302 1730.38 36.1868C1735.59 35.1461 1736.18 28.0093 1737.67 23.9949C1739.3 19.6832 1741.53 15.5201 1744.21 11.6543C1746.43 8.53201 1747.18 6.1531 1751.04 7.19388C1754.76 8.23465 1754.31 10.0188 1755.35 13.2898C1758.18 22.9541 1760.55 32.6185 1762.63 42.2828C1763.23 45.1077 1767.54 43.9183 1766.94 41.0933C1764.86 31.2803 1762.49 21.616 1759.66 12.1004C1758.47 8.08597 1757.28 0.651878 1751.93 0.057151C1746.73 -0.686258 1742.72 6.00442 1740.34 9.57278C1737.96 12.8438 1736.03 16.4121 1734.55 20.2779C1733.8 21.9134 1733.21 23.6976 1732.61 25.3331C1732.32 26.0765 1732.17 26.8199 1731.87 27.712C1731.72 29.4962 1730.68 30.5369 1728.9 31.1316C1729.2 28.0093 1724.74 28.0093 1724.29 30.8343Z" fill="#E8E8E8"/>
<path d="M1590.54 70.2349C1590.54 122.571 1590.54 175.056 1590.54 227.392C1590.54 230.217 1595 230.217 1595 227.392C1595 175.056 1595 122.571 1595 70.2349C1595 67.41 1590.54 67.41 1590.54 70.2349Z" fill="#E8E8E8"/>
<path d="M1600.65 229.771C1701.85 229.771 1803.21 229.771 1904.41 229.771C1907.23 229.771 1907.23 225.31 1904.41 225.31C1803.21 225.31 1701.85 225.31 1600.65 225.31C1597.67 225.31 1597.67 229.771 1600.65 229.771Z" fill="#E8E8E8"/>
<path d="M1603.17 69.9375C1706.16 69.9375 1809.15 69.9375 1912.29 69.9375C1915.11 69.9375 1915.11 65.4771 1912.29 65.4771C1809.3 65.4771 1706.31 65.4771 1603.17 65.4771C1600.35 65.4771 1600.35 69.9375 1603.17 69.9375Z" fill="#E8E8E8"/>
<path d="M1912.58 62.5037C1912.58 115.732 1912.58 169.109 1912.58 222.337C1912.58 225.162 1917.04 225.162 1917.04 222.337C1917.04 169.109 1917.04 115.732 1917.04 62.5037C1917.04 59.53 1912.58 59.53 1912.58 62.5037Z" fill="#E8E8E8"/>
<path d="M1595.74 156.619C1627.54 144.427 1657.56 169.554 1684.91 182.192C1711.81 194.681 1740.34 203.008 1769.77 207.319C1772.59 207.765 1773.78 203.454 1770.96 203.007C1738.41 198.25 1706.9 188.585 1677.48 173.717C1651.92 160.782 1624.28 140.858 1594.4 152.307C1591.88 153.348 1593.07 157.66 1595.74 156.619Z" fill="#E8E8E8"/>
<path d="M1706.76 185.017C1725.03 184.571 1743.02 182.341 1760.7 177.732C1769.47 175.502 1777.94 172.231 1786.56 169.703C1797.11 166.581 1805.88 166.878 1816.43 169.703C1831.74 174.015 1843.93 171.487 1858.04 164.35C1876.17 155.281 1893.26 148.739 1913.77 148.739C1916.6 148.739 1916.6 144.278 1913.77 144.278C1896.98 144.278 1880.78 147.995 1865.77 155.429C1857.75 159.295 1850.02 164.053 1841.4 166.432C1831.14 169.257 1822.67 166.581 1812.87 164.053C1796.37 159.89 1781.81 166.878 1766.2 171.487C1746.88 177.137 1726.97 179.962 1706.76 180.408C1703.78 180.557 1703.78 185.017 1706.76 185.017Z" fill="#E8E8E8"/>
<path d="M1847.94 158.7C1845.26 156.322 1839.91 153.348 1838.43 150.226C1836.64 149.036 1836.94 147.252 1839.62 145.17C1839.62 141.751 1840.95 140.115 1843.78 140.264C1845.41 139.52 1847.49 139.669 1849.28 139.52C1854.03 138.926 1859.08 137.439 1861.46 132.978C1863.39 129.559 1862.5 126.882 1860.87 123.76C1858.49 119.151 1855.52 114.691 1860.42 110.23C1865.77 105.472 1873.35 108 1878.4 111.568C1879.74 112.46 1881.23 111.42 1881.67 110.23C1883.46 105.621 1887.47 102.35 1892.22 101.458C1894.16 101.012 1896.53 101.012 1898.32 101.607C1900.4 102.35 1906.94 107.851 1902.18 110.528C1899.66 112.014 1901.88 115.88 1904.41 114.393C1911.84 110.081 1906.94 99.9711 1900.25 97.5922C1890.74 94.1725 1880.78 100.12 1877.21 109.041C1878.26 108.595 1879.44 108.149 1880.48 107.703C1874.09 103.391 1865.33 101.012 1858.49 105.918C1851.8 110.676 1852.4 116.772 1854.63 123.463C1855.07 124.058 1855.52 124.652 1856.11 125.247C1857.3 131.343 1855.52 134.614 1850.46 135.06C1847.49 135.655 1844.37 135.506 1841.4 136.249C1837.83 137.142 1834.71 138.926 1832.78 142.048C1827.73 150.672 1839.32 157.214 1844.67 161.971C1847.05 163.756 1850.17 160.485 1847.94 158.7Z" fill="#E8E8E8"/>
<path d="M1736.03 115.583C1730.98 112.312 1734.99 104.878 1738.71 102.35C1743.02 99.3767 1749.56 98.782 1753.87 102.053C1758.47 105.324 1759.22 112.758 1755.2 117.07C1751.04 121.53 1743.91 120.638 1739.9 116.475C1737.96 114.394 1734.84 117.516 1736.78 119.597C1742.27 125.545 1752.53 126.288 1758.32 120.192C1764.12 114.096 1763.23 103.391 1756.54 98.4846C1749.85 93.5781 1739.45 94.9162 1733.8 100.566C1728.75 105.621 1726.97 115.137 1733.65 119.449C1736.18 120.936 1738.41 117.07 1736.03 115.583Z" fill="#E8E8E8"/>
<path d="M406.539 106.365C402.378 201.521 399.703 296.678 398.514 391.983C398.514 394.808 402.973 394.808 402.973 391.983C404.161 296.678 406.836 201.521 410.998 106.365C411.146 103.54 406.688 103.54 406.539 106.365Z" fill="#E8E8E8"/>
<path d="M405.053 387.671C529.74 356.596 653.237 321.062 775.397 281.066C810.321 269.618 845.097 257.872 879.723 245.829C882.399 244.936 881.21 240.625 878.535 241.517C757.266 283.891 634.512 321.954 510.568 355.556C475.199 365.22 439.68 374.438 404.013 383.359C401.189 383.954 402.378 388.266 405.053 387.671Z" fill="#E8E8E8"/>
<path d="M418.874 104.432C532.712 75.2902 647.887 51.3524 763.954 32.7672C797.689 27.4146 831.424 22.3594 865.308 17.899C868.131 17.4529 868.131 12.9925 865.308 13.4385C748.201 29.0501 631.688 50.0143 516.513 76.1823C483.521 83.765 450.677 91.6452 417.834 100.12C414.861 100.715 416.05 105.027 418.874 104.432Z" fill="#E8E8E8"/>
<path d="M865.903 16.2634C869.915 90.753 873.928 165.243 877.94 239.732C878.089 242.557 882.547 242.557 882.399 239.732C878.386 165.243 874.374 90.753 870.361 16.2634C870.212 13.2898 865.754 13.2898 865.903 16.2634Z" fill="#E8E8E8"/>
<path d="M407.877 137.589C423.333 133.723 438.937 130.006 454.393 126.14C453.501 125.397 452.461 124.654 451.569 124.059C444.436 204.347 442.058 284.933 444.584 365.518C444.733 368.343 449.191 368.343 449.043 365.518C446.516 284.933 448.894 204.347 456.028 124.059C456.176 122.572 454.541 121.531 453.204 121.977C437.748 125.843 422.144 129.56 406.688 133.426C404.013 134.02 405.202 138.332 407.877 137.589Z" fill="#E8E8E8"/>
<path d="M656.952 309.316C657.101 297.719 657.695 286.121 658.884 274.524C659.182 271.997 658.736 267.982 660.073 265.752C662.154 262.184 667.652 260.994 671.219 259.954C676.421 258.467 681.622 256.98 686.824 255.493C708.967 249.248 731.11 243.004 753.402 236.759C775.1 230.663 796.797 224.567 818.495 218.471C824.142 216.836 829.789 215.349 835.437 213.713C840.49 212.227 847.177 208.956 852.379 208.956C857.432 208.956 857.729 211.335 857.283 215.349C856.986 218.025 856.837 220.85 856.54 223.526C856.094 229.028 855.5 234.38 855.054 239.881C854.757 242.706 859.215 242.706 859.512 239.881C860.107 232.596 860.85 225.311 861.444 218.025C861.741 214.457 863.227 209.55 860.701 206.428C855.945 200.183 842.57 207.023 836.923 208.658C809.578 216.39 782.233 224.121 754.889 231.853C727.544 239.584 700.199 247.316 672.854 255.047C664.829 257.277 657.101 258.021 655.318 267.09C652.643 280.769 652.791 295.637 652.643 309.465C652.494 312.141 656.952 312.141 656.952 309.316Z" fill="#E8E8E8"/>
<path d="M655.912 262.035C624.703 258.764 593.346 255.493 562.583 249.099C560.8 248.802 559.611 250.14 559.908 251.776C561.84 263.819 562.434 276.903 565.704 288.649C567.933 296.38 574.621 298.164 581.457 300.841C603.154 309.315 625.744 315.114 648.779 318.534C651.602 318.98 652.791 314.668 649.968 314.222C630.499 311.397 611.477 306.788 592.9 300.394C588.59 298.908 584.281 297.272 580.119 295.637C573.283 292.812 570.46 289.987 569.271 282.553C567.636 271.996 566.001 261.291 564.366 250.735C563.475 251.627 562.583 252.519 561.691 253.411C592.9 259.804 624.555 263.075 656.209 266.495C658.736 266.792 658.736 262.332 655.912 262.035Z" fill="#E8E8E8"/>
<path d="M565.704 250.14C583.538 243.449 601.52 237.502 619.799 232.447C622.623 231.703 621.434 227.392 618.61 228.135C600.331 233.339 582.2 239.286 564.515 245.828C561.84 246.72 562.88 251.032 565.704 250.14Z" fill="#E8E8E8"/>
<path d="M675.975 215.348C677.015 226.053 678.055 236.758 678.947 247.315C679.244 250.14 683.703 250.14 683.405 247.315C682.365 236.61 681.325 225.905 680.433 215.348C680.136 212.523 675.677 212.523 675.975 215.348Z" fill="#E8E8E8"/>
<path d="M675.678 212.969C703.023 211.185 728.881 200.183 755.186 193.195C782.828 185.761 810.916 180.111 839.301 176.096C838.409 175.204 837.518 174.312 836.626 173.42C834.991 184.274 833.951 195.128 833.356 205.981C833.208 208.806 837.666 208.806 837.815 205.981C838.409 195.425 839.449 185.017 840.936 174.61C841.233 172.825 840.044 171.636 838.261 171.933C810.767 175.799 783.72 181.3 756.821 188.288C730.07 195.276 703.468 206.873 675.826 208.658C672.706 208.658 672.705 213.118 675.678 212.969Z" fill="#E8E8E8"/>
<path d="M621.434 202.413C620.839 209.699 618.61 218.62 619.502 225.756C620.096 230.068 622.771 231.406 626.487 232.596C643.429 237.8 661.114 241.071 678.353 245.234C681.176 245.977 682.365 241.665 679.542 240.922C666.612 237.8 653.534 234.529 640.605 231.406C637.335 230.663 633.62 230.217 630.499 228.879C626.338 227.094 624.555 225.608 624.109 220.701C623.663 214.903 625.149 208.063 625.744 202.265C626.041 199.44 621.582 199.44 621.434 202.413Z" fill="#E8E8E8"/>
<path d="M622.177 200.034C639.862 202.859 657.547 205.684 675.232 208.509C678.055 208.955 679.244 204.643 676.421 204.197C658.736 201.372 641.051 198.547 623.366 195.722C620.542 195.425 619.353 199.588 622.177 200.034Z" fill="#E8E8E8"/>
<path d="M626.041 195.128C654.277 187.099 682.514 179.219 710.75 171.19C738.69 163.31 766.778 155.43 795.757 153.348C798.581 153.2 798.581 148.739 795.757 148.888C767.223 150.969 739.73 158.404 712.237 166.135C683.108 174.312 653.98 182.639 624.703 190.816C622.177 191.56 623.366 195.871 626.041 195.128Z" fill="#E8E8E8"/>
<path d="M785.651 152.456C802.593 157.957 818.941 164.797 834.694 173.123C837.22 174.461 839.449 170.595 836.923 169.257C820.724 160.931 804.079 153.794 786.84 148.144C784.017 147.252 782.828 151.564 785.651 152.456Z" fill="#E8E8E8"/>
<path d="M450.529 167.77C459 164.648 467.768 162.715 476.833 162.864C480.549 162.864 484.71 162.566 486.642 167.473C487.236 168.96 486.642 171.785 486.791 173.42C486.791 177.88 486.939 182.341 486.939 186.801C487.236 205.535 487.385 224.418 487.682 243.152C488.128 280.174 488.722 317.344 489.168 354.366C489.168 357.191 493.627 357.191 493.627 354.366C493.032 310.802 492.438 267.387 491.992 223.823C491.843 212.969 491.695 202.116 491.546 191.262C491.546 186.355 491.398 181.3 491.398 176.394C491.398 172.379 492.289 167.175 490.803 163.31C488.722 157.957 481.738 158.403 477.131 158.403C467.619 158.254 458.405 160.187 449.637 163.458C446.665 164.499 447.854 168.811 450.529 167.77Z" fill="#E8E8E8"/>
<path d="M495.856 314.965C519.039 308.572 542.074 302.179 565.258 295.785C568.082 295.042 566.893 290.73 564.069 291.473C540.885 297.867 517.85 304.26 494.667 310.653C491.992 311.546 493.032 315.709 495.856 314.965Z" fill="#E8E8E8"/>
<path d="M410.552 426.774C409.809 450.712 409.066 474.798 408.174 498.736C408.025 501.561 412.484 501.561 412.632 498.736C413.376 474.798 414.119 450.712 415.01 426.774C415.159 423.949 410.7 423.949 410.552 426.774Z" fill="#E8E8E8"/>
<path d="M688.607 282.999C689.647 274.226 701.239 275.713 707.332 274.97C710.899 274.524 714.168 273.483 717.141 271.699C720.856 269.469 723.531 266.049 727.246 263.67C731.407 260.994 739.878 259.209 741.067 266.198C741.365 267.982 743.742 268.279 744.783 267.238C750.133 262.332 755.631 257.277 762.17 254.006C766.034 252.073 770.195 250.735 774.505 250.883C777.329 251.032 779.707 252.221 782.53 252.221C787.137 252.221 791.596 249.099 795.608 247.018C802.742 243.598 809.727 240.03 816.86 236.61C819.386 235.42 817.157 231.555 814.631 232.744C807.497 236.164 800.513 239.732 793.379 243.152C788.772 245.382 785.205 247.612 779.855 247.166C776.883 246.869 774.357 246.274 771.087 246.572C759.495 247.91 749.836 256.236 741.662 263.967C742.851 264.265 744.188 264.562 745.377 265.008C744.634 260.25 740.919 257.723 736.312 256.979C730.219 256.087 725.76 259.061 721.153 262.778C716.398 266.644 713.128 269.469 707.035 270.509C702.874 271.104 698.564 270.658 694.551 271.847C688.904 273.483 685.04 277.2 684.297 282.999C683.851 285.824 688.31 285.824 688.607 282.999Z" fill="#E8E8E8"/>
<path d="M709.561 219.512C716.249 213.118 728.138 220.255 736.46 218.917C740.027 218.322 742.702 216.389 745.972 214.902C751.47 212.375 757.415 213.118 763.359 212.077C782.233 208.806 799.027 192.749 818.941 196.466C821.764 197.061 822.953 192.749 820.13 192.154C798.581 188.14 781.787 204.792 761.427 207.766C756.226 208.509 750.876 208.063 745.972 209.996C743.148 211.037 740.622 213.118 737.798 214.01C734.38 215.051 730.962 214.456 727.544 214.01C720.113 212.821 712.534 210.442 706.441 216.241C704.36 218.322 707.481 221.444 709.561 219.512Z" fill="#E8E8E8"/>
<path d="M409.214 427.22C531.671 388.562 654.128 349.905 776.437 311.397C811.212 300.394 846.137 289.392 880.912 278.389C883.587 277.497 882.547 273.185 879.723 274.077C757.266 312.735 634.809 351.392 512.5 389.901C477.725 400.903 442.8 411.905 408.025 422.908C405.35 423.8 406.539 428.112 409.214 427.22Z" fill="#E8E8E8"/>
<path d="M411.443 499.033C535.387 467.066 657.25 426.625 775.694 378.155C808.389 364.773 840.935 350.797 873.184 336.078C875.859 334.888 873.482 331.022 870.955 332.212C754.888 384.845 635.403 429.598 513.243 466.026C479.062 476.285 444.733 485.8 410.254 494.721C407.431 495.465 408.62 499.776 411.443 499.033Z" fill="#E8E8E8"/>
<path d="M876.157 281.066C876.305 297.867 876.603 314.519 876.751 331.32C876.751 334.145 881.21 334.145 881.21 331.32C881.061 314.519 880.764 297.867 880.615 281.066C880.615 278.241 876.157 278.092 876.157 281.066Z" fill="#E8E8E8"/>
<path d="M642.537 981.358C665.424 967.233 696.038 943.146 713.426 904.638C731.705 864.196 720.41 841.002 729.327 805.467C747.012 735.438 811.213 745.251 880.615 665.557C952.544 583.039 926.24 523.566 1010.21 440.751C1039.48 411.758 1068.61 393.47 1088.53 382.467C1087.34 394.064 1086 405.662 1084.81 417.408C1079.16 420.232 1070.39 424.99 1060.44 431.83C1032.5 451.158 1006.94 480.003 975.876 545.869C947.343 606.233 959.826 601.476 941.101 633.145C908.555 688.603 858.026 724.733 826.669 747.035C787.435 774.987 765.292 781.975 754.146 810.82C744.337 836.244 753.848 850.666 750.579 879.957C747.607 906.719 734.38 942.849 688.459 983.588C673.151 982.696 657.844 982.101 642.537 981.358Z" fill="#8C30F5"/>
<path d="M379.64 1129.89L604.789 1177.17L832.762 990.278L626.19 980.613L379.64 1129.89Z" fill="white" stroke="#1E0E62" stroke-width="3" stroke-miterlimit="10"/>
<path d="M433.736 1117.55C481.143 1125.58 528.105 1135.39 574.77 1146.84C577.593 1147.58 578.782 1143.27 575.959 1142.53C529.294 1131.08 482.184 1121.27 434.925 1113.24C432.101 1112.79 430.763 1117.11 433.736 1117.55Z" fill="#1E0E62"/>
<path d="M435.668 1113.98C497.788 1076.07 559.908 1038.01 622.028 1000.09C624.406 998.605 622.177 994.739 619.799 996.226C557.679 1034.14 495.559 1072.2 433.438 1110.12C431.061 1111.75 433.29 1115.62 435.668 1113.98Z" fill="#1E0E62"/>
<path d="M623.069 997.861C666.166 1001.43 709.413 1003.51 752.808 1004.4C755.631 1004.4 755.631 999.943 752.808 999.943C709.561 999.2 666.315 996.969 623.069 993.401C620.096 993.104 620.096 997.564 623.069 997.861Z" fill="#1E0E62"/>
<path d="M576.256 1146.54C634.958 1098.37 694.106 1050.64 753.551 1003.66C755.78 1001.87 752.659 998.752 750.43 1000.54C690.836 1047.67 631.837 1095.25 573.135 1143.42C570.905 1145.2 574.175 1148.48 576.256 1146.54Z" fill="#1E0E62"/>
<path d="M455.73 1101.94C499.274 1110.56 542.52 1120.67 585.321 1132.27C588.144 1133.01 589.333 1128.7 586.51 1127.96C543.709 1116.36 500.463 1106.1 456.919 1097.63C454.096 1097.03 452.907 1101.34 455.73 1101.94Z" fill="#1E0E62"/>
<path d="M487.533 1084.1C527.362 1091.98 566.596 1102.98 604.789 1116.96C607.464 1118 608.653 1113.69 605.978 1112.64C567.785 1098.67 528.551 1087.81 488.722 1079.79C485.899 1079.19 484.71 1083.5 487.533 1084.1Z" fill="#1E0E62"/>
<path d="M593.346 1109.67C620.542 1089 647.887 1068.19 675.083 1047.52C677.312 1045.74 675.083 1041.87 672.854 1043.66C645.658 1064.32 618.313 1085.14 591.117 1105.8C588.888 1107.59 591.117 1111.45 593.346 1109.67Z" fill="#1E0E62"/>
<path d="M516.513 1065.81C547.573 1074.14 578.187 1083.8 608.356 1094.8C611.031 1095.84 612.22 1091.53 609.545 1090.49C579.376 1079.49 548.762 1069.82 517.702 1061.5C514.878 1060.75 513.689 1065.07 516.513 1065.81Z" fill="#1E0E62"/>
<path d="M549.208 1046.78C578.336 1053.91 606.721 1063.73 634.066 1076.22C636.592 1077.41 638.97 1073.54 636.295 1072.35C608.653 1059.71 579.971 1049.75 550.397 1042.47C547.722 1041.87 546.533 1046.18 549.208 1046.78Z" fill="#1E0E62"/>
<path d="M574.918 1030.87C602.857 1040.09 630.648 1049.3 658.587 1058.67C661.262 1059.56 662.451 1055.25 659.776 1054.36C631.837 1045.14 604.046 1035.92 576.107 1026.56C573.432 1025.66 572.243 1029.98 574.918 1030.87Z" fill="#1E0E62"/>
<path d="M595.129 1015.11C630.499 1022.69 665.72 1030.27 701.09 1037.86C703.914 1038.45 705.103 1034.14 702.279 1033.55C666.909 1025.96 631.688 1018.38 596.318 1010.8C593.494 1010.2 592.306 1014.51 595.129 1015.11Z" fill="#1E0E62"/>
<path d="M675.232 1046.78C680.285 1044.1 684.594 1040.53 688.161 1036.07C689.944 1033.84 686.824 1030.72 685.04 1032.95C681.622 1037.11 677.609 1040.38 673.002 1042.91C670.476 1044.25 672.705 1048.12 675.232 1046.78Z" fill="#1E0E62"/>
<path d="M617.719 1004.85C652.791 1011.99 687.864 1019.12 722.788 1026.11C725.612 1026.71 726.801 1022.39 723.977 1021.8C688.904 1014.66 653.832 1007.53 618.907 1000.54C616.084 999.943 614.895 1004.25 617.719 1004.85Z" fill="#1E0E62"/>
<path d="M489.019 1107.44C540.142 1074.28 590.225 1039.64 639.119 1003.51C641.348 1001.88 639.119 998.011 636.889 999.646C587.996 1035.92 537.913 1070.57 486.79 1103.57C484.412 1105.21 486.641 1109.08 489.019 1107.44Z" fill="#1E0E62"/>
<path d="M521.269 1114.58C571.054 1077.85 620.988 1041.13 670.773 1004.4C673.003 1002.77 670.773 998.902 668.544 1000.54C618.759 1037.26 568.825 1073.99 519.039 1110.71C516.81 1112.35 519.039 1116.21 521.269 1114.58Z" fill="#1E0E62"/>
<path d="M552.329 1122.9C600.182 1082.31 649.224 1043.21 699.456 1005.74C701.685 1004.11 699.456 1000.24 697.226 1001.88C646.698 1039.64 597.21 1078.89 549.208 1119.78C546.979 1121.56 550.248 1124.69 552.329 1122.9Z" fill="#1E0E62"/>
<path d="M257.183 889.918C298.052 969.909 338.92 1049.9 379.789 1129.89C461.972 1080.08 544.155 1030.42 626.338 980.614C593.495 912.072 560.503 843.678 527.659 775.136C437.451 813.347 347.243 851.558 257.183 889.918Z" fill="white" stroke="#1E0E62" stroke-width="3" stroke-miterlimit="10"/>
<path d="M278.583 896.311C314.696 965.448 350.809 1034.44 386.922 1103.57C459.594 1060.6 532.117 1017.64 604.789 974.518C575.661 915.342 546.681 856.167 517.553 796.992C437.897 830.148 358.24 863.304 278.583 896.311Z" fill="white" stroke="#1E0E62" stroke-width="3" stroke-miterlimit="10"/>
<path d="M369.683 948.648C375.182 959.055 381.275 969.017 388.111 978.533C388.854 979.573 390.043 979.871 391.232 979.276C433.438 957.42 475.644 935.712 517.851 913.856C520.377 912.518 518.148 908.652 515.621 909.99C473.415 931.847 431.209 953.554 389.003 975.41C390.043 975.708 391.083 976.005 392.124 976.154C385.287 966.638 379.046 956.676 373.696 946.269C372.21 943.741 368.346 946.12 369.683 948.648Z" fill="#E8E8E8"/>
<path d="M376.371 947.013C402.675 938.241 426.007 923.521 449.934 909.991C462.418 902.854 475.198 896.015 488.574 890.663C491.546 889.473 494.667 888.432 497.639 887.392C499.868 886.648 505.664 883.823 508.19 884.269C511.757 885.013 511.906 891.257 512.5 894.082C513.392 898.543 514.432 902.855 515.324 907.315C515.918 910.14 520.228 908.95 519.634 906.125C518.742 901.665 517.702 897.353 516.81 892.893C516.067 889.771 516.067 885.459 514.284 882.485C511.757 878.173 507.299 879.809 503.435 880.85C488.871 884.864 474.901 891.257 461.526 898.245C432.844 913.411 406.093 932.293 375.182 942.552C372.358 943.593 373.547 947.905 376.371 947.013Z" fill="#E8E8E8"/>
<path d="M445.922 909.247C451.866 918.911 457.811 928.575 463.755 938.24C465.241 940.618 469.105 938.388 467.619 936.009C461.675 926.345 455.73 916.681 449.786 907.016C448.299 904.489 444.436 906.868 445.922 909.247Z" fill="#E8E8E8"/>
<path d="M421.252 885.457C425.265 884.119 429.129 882.93 433.141 881.592C432.249 880.7 431.358 879.807 430.466 878.915C427.94 888.431 428.386 897.947 431.952 907.165C432.993 909.841 437.302 908.652 436.262 905.976C432.993 897.501 432.547 888.877 434.776 880.105C435.222 878.469 433.736 876.834 432.101 877.429C428.088 878.767 424.224 879.956 420.212 881.294C417.24 882.038 418.428 886.35 421.252 885.457Z" fill="#E8E8E8"/>
<path d="M425.265 897.65C430.02 892.149 436.113 888.58 443.247 887.093C446.071 886.499 444.882 882.187 442.058 882.782C434.181 884.269 427.197 888.283 421.995 894.379C420.36 896.609 423.481 899.731 425.265 897.65Z" fill="#E8E8E8"/>
<path d="M452.609 887.837C450.232 884.12 447.408 879.957 447.557 875.348C447.705 872.077 451.272 866.873 455.284 868.806C458.554 870.441 459.743 877.429 459.446 880.7C459 884.863 454.987 889.175 450.677 886.648C448.151 885.161 445.922 889.026 448.448 890.513C453.65 893.487 460.04 890.959 462.567 885.755C465.39 880.106 463.607 870.144 458.703 865.981C454.393 862.264 448.151 864.791 445.179 868.954C440.275 875.794 444.882 884.12 448.745 890.216C450.38 892.446 454.244 890.216 452.609 887.837Z" fill="#E8E8E8"/>
<path d="M475.347 854.681C474.456 864.048 473.564 873.415 472.672 882.633C472.375 885.458 476.833 885.458 477.131 882.633C478.022 873.266 478.914 863.899 479.806 854.681C480.103 851.856 475.644 851.856 475.347 854.681Z" fill="#E8E8E8"/>
<path d="M466.43 856.91C469.254 856.91 469.254 852.45 466.43 852.45C463.607 852.45 463.607 856.91 466.43 856.91Z" fill="#E8E8E8"/>
<path d="M490.209 876.388C493.032 876.388 493.032 871.928 490.209 871.928C487.385 871.928 487.385 876.388 490.209 876.388Z" fill="#E8E8E8"/>
<path d="M403.716 992.062C414.862 989.089 425.859 985.223 436.262 980.317C447.556 974.964 457.514 966.489 469.105 961.88C479.211 957.866 489.317 955.487 498.679 949.837C507.448 944.484 515.175 937.496 521.714 929.616C523.498 927.386 520.377 924.264 518.594 926.494C511.757 934.82 503.881 941.957 494.518 947.309C485.156 952.662 474.753 954.595 465.093 959.055C455.136 963.664 446.368 970.652 436.411 975.559C425.562 980.911 414.267 984.926 402.527 988.048C399.852 988.494 400.892 992.806 403.716 992.062Z" fill="#E8E8E8"/>
<path d="M1481.9 438.967C1473.43 446.995 1470.76 456.66 1469.57 460.972C1459.02 500.521 1458.87 523.418 1458.87 523.418C1458.57 570.699 1452.78 558.358 1450.4 625.414C1449.51 651.136 1449.36 682.805 1451.14 718.935C1445.35 727.558 1437.17 741.385 1430.93 759.673C1423.5 781.083 1418.45 795.506 1424.84 810.076C1433.01 828.959 1455.15 835.947 1460.65 837.731C1471.95 841.3 1476.7 839.367 1503.6 843.53C1512.82 845.017 1520.25 846.504 1525.3 847.544C1520.99 856.465 1514.6 869.549 1510.29 878.47C1500.78 898.096 1491.27 917.722 1481.76 937.348C1490.97 942.701 1504.2 950.283 1520.39 958.907C1554.87 977.343 1572.11 986.562 1590.99 992.955C1603.17 997.118 1630.81 1005.44 1666.78 1006.49C1691.3 1007.23 1708.98 1004.25 1736.63 999.646C1764.27 995.037 1786.86 989.387 1802.61 984.926C1805.58 969.463 1809.45 949.837 1814.5 927.386C1815.84 921.29 1822.38 892.892 1832.78 853.938C1839.62 828.662 1848.38 797.736 1859.68 762.201C1845.71 759.971 1831.74 757.592 1817.77 755.362C1828.02 737.817 1836.94 723.841 1843.03 714.177C1849.87 703.472 1862.95 683.4 1874.54 656.191C1879.15 645.337 1881.97 636.862 1878.85 627.941C1874.84 616.641 1863.39 611.438 1860.87 610.248C1850.76 605.639 1841.7 606.977 1828.92 608.464C1813.61 610.248 1798 610.545 1782.7 612.627C1765.9 614.857 1741.68 616.195 1710.02 611.289C1708.39 584.377 1708.09 562.373 1708.24 546.91C1708.54 515.835 1710.17 499.034 1699.32 491.005C1697.1 489.37 1695.01 488.478 1672.28 485.355C1658.31 483.423 1651.32 482.53 1638.69 481.192C1624.42 479.705 1604.51 477.624 1582.81 471.379C1553.54 463.053 1538.97 458.89 1525.45 446.252C1517.13 438.372 1511.78 429.748 1501.67 429.451C1492.46 429.005 1484.43 436.588 1481.9 438.967Z" fill="white"/>
<path opacity="0.2" d="M1580.43 874.01C1584 887.243 1591.73 908.653 1610.16 926.792C1638.84 955.19 1676.29 958.907 1717.31 962.922C1738.26 965.003 1769.62 966.193 1807.66 959.799C1810.78 944.783 1814.95 926.346 1820 905.233C1823.27 891.406 1830.1 863.602 1840.06 828.514C1845.56 809.185 1852.1 786.883 1859.98 762.053C1847.19 759.079 1834.41 756.105 1821.63 753.132C1808.56 775.434 1798 793.722 1790.72 806.36C1769.77 843.382 1759.36 862.859 1739 896.758C1731.43 909.396 1725.03 919.804 1720.87 926.495C1714.48 926.941 1705.57 927.238 1695.01 926.495C1687.44 925.9 1655.63 923.075 1620.11 903.3C1609.71 897.502 1595.3 888.284 1580.43 874.01Z" fill="#898989"/>
<path opacity="0.22" d="M1703.63 622.738C1711.66 628.983 1722.81 639.093 1732.91 654.259C1734.99 657.381 1746.88 675.669 1752.23 700.796C1760.26 738.413 1749.11 770.231 1740.64 793.871C1720.28 850.221 1685.36 889.92 1659.2 914.006C1664.25 917.723 1671.68 922.183 1681.19 925.157C1698.43 930.658 1713.44 928.577 1721.17 926.941C1759.07 863.454 1790.28 811.118 1816.73 768C1828.47 748.82 1847.94 717.3 1866.66 671.654C1873.2 655.894 1877.81 642.513 1880.78 633.592C1878.25 627.199 1872.76 615.899 1861.16 610.398C1852.84 606.383 1844.82 606.978 1840.95 607.275C1794.59 611.438 1771.4 613.52 1767.39 614.115C1750.45 616.494 1725.18 617.237 1692.34 607.87C1696.35 612.776 1699.92 617.683 1703.63 622.738Z" fill="#898989"/>
<path opacity="0.18" d="M1458.87 532.785C1466.45 559.548 1474.03 586.311 1481.61 613.222C1517.87 583.188 1554.13 553.006 1590.39 522.972C1567.36 546.018 1548.93 567.577 1534.51 585.865C1527.97 594.191 1506.72 621.697 1483.09 660.949C1469.57 683.4 1459.17 703.323 1451.29 719.232C1450.25 699.755 1449.65 679.386 1449.95 658.124C1450.4 612.479 1453.82 570.55 1458.87 532.785Z" fill="#898989"/>
<path d="M1493.05 650.69C1505.98 629.428 1519.95 608.762 1534.96 588.838C1549.97 568.915 1565.72 547.653 1583.85 530.555C1607.33 508.55 1630.07 536.948 1644.49 554.79C1658.75 572.483 1672.43 590.622 1687.14 607.869C1703.34 626.603 1720.87 644.148 1741.23 658.421C1743.61 660.057 1745.84 656.191 1743.46 654.556C1702.45 626.009 1674.21 584.08 1642.85 545.869C1630.96 531.298 1612.09 510.483 1591.13 519.85C1581.03 524.31 1573.6 534.718 1566.46 542.747C1557.55 553.006 1548.78 563.414 1540.46 574.119C1521.88 597.759 1504.79 622.589 1489.04 648.311C1487.7 650.839 1491.56 653.069 1493.05 650.69Z" fill="#1E0E62"/>
<path d="M1692.04 609.95C1724.14 617.533 1757.28 619.466 1789.83 615.452C1806.03 613.37 1822.23 608.464 1838.58 608.315C1854.18 608.166 1872.76 614.708 1877.96 631.212C1880.63 639.984 1876.92 647.716 1872.9 655.298C1868.89 663.03 1864.73 670.613 1860.57 678.195C1852.25 693.51 1843.93 708.675 1835.6 723.989C1818.81 754.469 1801.72 784.652 1784.33 814.685C1764.57 848.882 1744.35 882.93 1723.85 916.83C1722.36 919.357 1726.22 921.588 1727.71 919.06C1766.8 854.681 1804.54 789.558 1840.95 723.543C1849.87 707.486 1858.64 691.428 1867.26 675.222C1873.8 663.178 1885.24 648.608 1883.16 634.037C1881.52 621.994 1871.86 612.478 1861.16 607.72C1847.94 601.773 1832.93 603.408 1819.11 605.787C1798.15 609.356 1777.64 612.924 1756.24 612.924C1734.99 612.924 1713.74 610.396 1693.08 605.49C1690.56 605.044 1689.37 609.356 1692.04 609.95Z" fill="#1E0E62"/>
<path d="M1495.28 636.714C1474.62 669.572 1455.6 703.472 1438.66 738.412C1425.58 765.472 1406.41 802.643 1434.64 826.878C1460.5 849.031 1497.95 841.449 1528.42 850.816C1562.6 861.223 1590.39 884.715 1620.71 902.557C1651.92 920.993 1690.11 935.267 1725.93 922.034C1728.6 920.993 1727.41 916.682 1724.74 917.722C1658.31 941.958 1602.58 877.727 1547.29 853.195C1533.77 847.099 1519.65 843.233 1504.94 841.597C1487.7 839.516 1469.87 839.664 1453.67 833.122C1437.32 826.58 1424.54 813.645 1424.24 795.209C1423.94 776.921 1433.6 759.376 1441.33 743.319C1458.57 707.486 1477.89 672.695 1499.14 639.093C1500.63 636.565 1496.77 634.186 1495.28 636.714Z" fill="#1E0E62"/>
<path d="M1453.67 718.934C1451.44 674.478 1451.88 629.874 1455 585.566C1456.64 562.669 1459.02 539.772 1462.14 516.875C1464.66 497.993 1466.45 477.921 1472.39 459.782C1474.62 452.942 1477.89 445.657 1483.39 440.602C1492.16 432.424 1503.16 434.654 1512.82 440.007C1529.91 449.225 1546.4 458.592 1564.53 465.58C1583.26 472.866 1602.87 478.218 1622.64 481.638C1640.62 484.76 1658.46 485.057 1676.59 486.396C1685.8 486.99 1697.1 488.775 1702.59 497.101C1708.84 506.765 1706.16 524.161 1706.31 535.163C1706.61 560.737 1706.9 586.458 1707.2 612.032C1707.2 614.857 1711.66 614.857 1711.66 612.032C1711.36 587.351 1711.07 562.669 1710.77 538.137C1710.62 521.782 1715.23 497.101 1698.28 487.288C1683.72 478.813 1663.81 481.786 1647.76 480.448C1625.32 478.515 1603.02 473.906 1581.47 467.067C1559.93 460.079 1539.42 450.712 1519.95 439.263C1506.42 431.383 1490.97 425.733 1478.63 438.817C1467.34 450.712 1464.96 468.702 1462.29 484.165C1458.42 507.211 1455.3 530.405 1452.92 553.748C1447.43 608.612 1446.09 663.922 1448.76 718.934C1449.36 721.908 1453.82 721.908 1453.67 718.934Z" fill="#1E0E62"/>
<path d="M1522.48 850.964C1515.19 865.089 1507.76 879.065 1500.48 893.19C1496.77 900.178 1493.2 907.314 1489.48 914.302C1486.36 920.25 1482.05 926.346 1480.12 932.739C1479.23 935.861 1479.38 938.538 1481.9 940.768C1486.66 945.228 1494.54 947.756 1500.18 950.73C1513.86 957.866 1527.53 965.152 1541.2 972.288C1566.46 985.521 1592.47 998.011 1620.56 1003.96C1648.8 1009.91 1677.92 1009.91 1706.61 1006.63C1739.45 1002.92 1771.7 995.037 1803.65 987.157C1806.48 986.413 1805.29 982.102 1802.46 982.845C1750.15 995.78 1695.91 1009.01 1641.66 1002.92C1586.53 996.672 1537.63 965.598 1489.48 940.025C1489.93 940.173 1485.77 938.389 1485.47 937.794C1483.84 935.564 1485.77 931.698 1486.66 929.617C1488.29 925.602 1490.82 921.588 1492.9 917.722C1496.62 910.734 1500.18 903.597 1503.9 896.609C1511.48 882.039 1519.06 867.616 1526.49 853.046C1527.68 850.667 1523.81 848.436 1522.48 850.964Z" fill="#1E0E62"/>
<path d="M1817.47 755.511C1832.18 755.808 1846.15 758.782 1859.68 764.431C1859.23 763.539 1858.64 762.647 1858.19 761.755C1835.01 834.609 1815.84 908.653 1800.83 983.44C1800.23 986.265 1804.54 987.454 1805.14 984.629C1820.15 909.694 1839.32 835.65 1862.5 762.945C1862.95 761.755 1862.06 760.714 1861.02 760.268C1847.19 754.47 1832.63 751.496 1817.62 751.199C1814.5 750.901 1814.5 755.362 1817.47 755.511Z" fill="#1E0E62"/>
<path d="M1142.03 872.673C1103.83 923.373 1065.49 973.925 1027.15 1024.33C929.063 1153.38 830.384 1281.85 731.11 1410.01C737.946 1411.2 748.201 1414.02 759.198 1420.57C769.006 1426.36 775.991 1433.2 780.152 1438.11C922.97 1253.3 1065.79 1068.34 1208.75 883.527C1186.46 879.81 1164.32 876.241 1142.03 872.673Z" fill="white" stroke="#1E0E62" stroke-width="3" stroke-miterlimit="10"/>
<path d="M664.68 1321.54C659.033 1324.81 661.857 1339.68 662.897 1345.48C668.99 1377.45 679.096 1435.73 692.471 1513.49C710.453 1516.02 728.584 1518.7 746.566 1521.22C759.347 1497.88 772.276 1474.54 785.057 1451.04C783.422 1446.88 780.896 1440.64 777.18 1433.5C768.709 1417.74 759.792 1408.08 749.984 1397.37C719.37 1364.21 711.791 1355.29 693.66 1339.38C675.38 1323.18 668.544 1319.31 664.68 1321.54Z" fill="white" stroke="#1E0E62" stroke-width="3" stroke-miterlimit="10"/>
<path d="M670.327 1336.26C691.133 1359.01 699.01 1391.42 709.115 1419.67C720.707 1451.79 732.15 1483.76 743.742 1515.87C744.634 1518.55 748.944 1517.36 748.052 1514.68C735.866 1480.78 723.679 1446.88 711.493 1412.83C701.685 1385.48 693.66 1355 673.597 1332.99C671.665 1330.91 668.395 1334.03 670.327 1336.26Z" fill="#1E0E62"/>
<path d="M765.886 1368.38C784.611 1364.51 803.782 1376.41 808.835 1394.69C809.578 1397.52 813.888 1396.33 813.145 1393.51C807.349 1372.69 785.651 1359.75 764.697 1364.07C761.873 1364.66 763.062 1368.97 765.886 1368.38Z" fill="#1E0E62"/>
<path d="M798.432 1327.19C816.414 1324.37 833.95 1337.01 837.369 1354.85C837.963 1357.67 842.273 1356.48 841.678 1353.66C837.814 1333.29 817.603 1319.61 797.243 1322.88C794.419 1323.33 795.608 1327.64 798.432 1327.19Z" fill="#1E0E62"/>
<path d="M833.95 1281.25C853.27 1273.07 874.373 1285.71 876.454 1306.53C876.751 1309.35 881.21 1309.35 880.912 1306.53C878.535 1281.99 854.31 1267.87 831.721 1277.38C829.046 1278.57 831.275 1282.44 833.95 1281.25Z" fill="#1E0E62"/>
<path d="M861.741 1243.49C872.441 1240.07 882.844 1238.73 891.909 1246.76C898.746 1252.85 901.718 1261.63 903.055 1270.55C903.501 1273.37 907.811 1272.18 907.365 1269.36C905.879 1258.8 901.718 1248.39 892.801 1241.85C882.695 1234.27 871.995 1235.61 860.552 1239.17C857.877 1240.07 859.066 1244.38 861.741 1243.49Z" fill="#1E0E62"/>
<path d="M892.356 1201.26C912.864 1194.27 934.265 1207.21 936.494 1228.91C936.791 1231.74 941.25 1231.74 940.952 1228.91C938.426 1204.38 914.648 1188.77 891.167 1196.95C888.492 1197.84 889.681 1202.15 892.356 1201.26Z" fill="#1E0E62"/>
<path d="M928.023 1156.5C948.234 1151.3 967.405 1164.24 970.526 1184.75C970.972 1187.58 975.282 1186.39 974.836 1183.56C971.418 1160.52 949.275 1146.39 926.834 1152.19C924.159 1152.94 925.348 1157.25 928.023 1156.5Z" fill="#1E0E62"/>
<path d="M955.962 1119.63C964.73 1113.54 976.025 1115.62 983.901 1122.16C992.075 1129 996.087 1139.11 999.357 1149.07C1000.25 1151.75 1004.56 1150.56 1003.67 1147.88C999.803 1136.14 994.601 1123.65 983.752 1116.51C974.687 1110.56 962.649 1109.52 953.584 1115.77C951.355 1117.4 953.584 1121.27 955.962 1119.63Z" fill="#1E0E62"/>
<path d="M986.428 1084.1C994.601 1079.04 1004.71 1082.76 1012.58 1086.78C1021.2 1091.24 1026.55 1098.67 1028.49 1108.04C1029.08 1110.86 1033.39 1109.67 1032.79 1106.85C1030.42 1095.55 1023.28 1086.92 1012.88 1082.02C1003.82 1077.71 993.264 1074.58 984.05 1080.23C981.821 1081.72 984.05 1085.59 986.428 1084.1Z" fill="#1E0E62"/>
<path d="M1017.64 1040.68C1036.96 1034.59 1057.02 1043.51 1064.75 1062.54C1065.79 1061.65 1066.98 1060.9 1068.02 1060.01C1067.57 1059.71 1067.12 1059.57 1066.53 1059.27C1064 1058.08 1061.63 1061.8 1064.3 1063.13C1064.75 1063.43 1065.19 1063.58 1065.79 1063.88C1067.27 1064.62 1069.8 1063.28 1069.06 1061.35C1060.59 1040.24 1038.29 1029.53 1016.45 1036.52C1013.77 1037.26 1014.96 1041.57 1017.64 1040.68Z" fill="#1E0E62"/>
<path d="M1049.59 997.862C1070.99 993.55 1090.31 1009.01 1091.2 1030.72C1091.35 1033.55 1095.81 1033.55 1095.66 1030.72C1094.62 1005.89 1072.77 988.792 1048.4 993.55C1045.58 994.145 1046.76 998.456 1049.59 997.862Z" fill="#1E0E62"/>
<path d="M1076.04 961.287C1097 953.555 1118.84 965.45 1123.6 987.455C1124.19 990.28 1128.5 989.09 1127.91 986.265C1122.85 962.179 1098.04 948.5 1074.85 956.975C1072.18 957.867 1073.37 962.179 1076.04 961.287Z" fill="#1E0E62"/>
<path d="M1103.68 930.062C1124.34 923.074 1145.15 934.969 1149.46 956.379C1150.05 959.204 1154.36 958.014 1153.77 955.189C1149.01 931.549 1125.23 918.019 1102.49 925.75C1099.82 926.642 1101.01 930.954 1103.68 930.062Z" fill="#1E0E62"/>
<path d="M1127.16 894.827C1146.63 891.258 1170.56 896.462 1176.36 918.17C1177.1 920.995 1181.41 919.806 1180.67 916.981C1174.13 892.745 1147.82 886.649 1125.98 890.515C1123.15 891.11 1124.34 895.421 1127.16 894.827Z" fill="#1E0E62"/>
<path opacity="0.29" d="M1177.54 878.323C1125.38 948.798 1072.92 1018.98 1020.01 1088.86C936.642 1199.03 852.23 1308.46 767.075 1417.15C744.337 1382.8 720.856 1361.54 703.765 1348.31C701.685 1346.82 672.408 1324.37 668.693 1328.23C665.869 1331.21 678.798 1347.86 689.499 1360.94C703.765 1396.63 717.586 1433.95 730.813 1472.6C736.312 1488.81 741.662 1505.02 746.715 1520.93C763.954 1487.03 781.044 1453.13 798.283 1419.38C827.857 1380.57 872.441 1322.14 902.164 1283.33C1004.26 1149.82 1106.36 1016.45 1208.75 883.23C1198.2 881.743 1187.95 880.107 1177.54 878.323Z" fill="#828282"/>
<path d="M1326.75 914.45C1288.56 965.151 1250.22 1015.7 1211.87 1066.11C1113.79 1195.16 1015.11 1323.62 915.836 1451.79C922.672 1452.98 932.926 1455.8 943.924 1462.34C953.732 1468.14 960.717 1474.98 964.878 1479.89C1107.7 1295.08 1250.51 1110.12 1393.48 925.304C1371.04 921.587 1348.89 918.019 1326.75 914.45Z" fill="white" stroke="#1E0E62" stroke-width="3" stroke-miterlimit="10"/>
<path d="M849.257 1363.32C843.61 1366.59 846.434 1381.46 847.474 1387.26C853.567 1419.22 863.673 1477.51 877.048 1555.27C895.03 1557.8 913.161 1560.47 931.143 1563C943.924 1539.66 956.853 1516.31 969.634 1492.82C967.999 1488.66 965.473 1482.41 961.757 1475.28C953.287 1459.52 944.37 1449.85 934.561 1439.15C903.947 1405.99 896.368 1397.07 878.237 1381.16C859.958 1364.81 853.121 1361.09 849.257 1363.32Z" fill="white" stroke="#1E0E62" stroke-width="3" stroke-miterlimit="10"/>
<path d="M855.053 1377.89C875.859 1400.64 883.736 1433.05 893.841 1461.3C905.433 1493.42 916.876 1525.38 928.468 1557.5C929.36 1560.17 933.67 1558.99 932.778 1556.31C920.592 1522.41 908.405 1488.51 896.219 1454.46C886.411 1427.1 878.386 1396.63 858.323 1374.62C856.242 1372.69 853.121 1375.81 855.053 1377.89Z" fill="#1E0E62"/>
<path d="M950.463 1410.16C969.188 1406.29 988.359 1418.18 993.412 1436.47C994.155 1439.3 998.465 1438.11 997.722 1435.28C991.926 1414.47 970.228 1401.53 949.274 1405.84C946.45 1406.44 947.639 1410.6 950.463 1410.16Z" fill="#1E0E62"/>
<path d="M983.01 1368.82C1000.99 1366 1018.53 1378.64 1021.95 1396.48C1022.54 1399.3 1026.85 1398.11 1026.26 1395.29C1022.39 1374.92 1002.18 1361.24 981.821 1364.51C978.997 1364.96 980.186 1369.27 983.01 1368.82Z" fill="#1E0E62"/>
<path d="M1018.53 1323.03C1037.85 1314.85 1058.95 1327.49 1061.03 1348.3C1061.33 1351.13 1065.79 1351.13 1065.49 1348.3C1063.11 1323.77 1038.89 1309.65 1016.3 1319.16C1013.62 1320.35 1015.85 1324.22 1018.53 1323.03Z" fill="#1E0E62"/>
<path d="M1046.47 1285.26C1057.17 1281.84 1067.57 1280.51 1076.64 1288.53C1083.47 1294.63 1086.44 1303.4 1087.78 1312.32C1088.23 1315.15 1092.54 1313.96 1092.09 1311.13C1090.61 1300.58 1086.44 1290.17 1077.53 1283.63C1067.42 1276.05 1056.72 1277.38 1045.28 1280.95C1042.45 1281.84 1043.64 1286.16 1046.47 1285.26Z" fill="#1E0E62"/>
<path d="M1076.93 1242.89C1097.44 1235.9 1118.84 1248.83 1121.07 1270.54C1121.37 1273.37 1125.83 1273.37 1125.53 1270.54C1123 1246.01 1099.22 1230.4 1075.74 1238.57C1073.07 1239.62 1074.26 1243.93 1076.93 1242.89Z" fill="#1E0E62"/>
<path d="M1112.75 1198.28C1132.96 1193.08 1152.13 1206.01 1155.25 1226.53C1155.7 1229.36 1160.01 1228.17 1159.56 1225.34C1156.14 1202.3 1134 1188.17 1111.56 1193.97C1108.74 1194.72 1109.92 1199.03 1112.75 1198.28Z" fill="#1E0E62"/>
<path d="M1140.54 1161.41C1149.31 1155.31 1160.6 1157.4 1168.48 1163.94C1176.65 1170.78 1180.66 1180.89 1183.93 1190.85C1184.83 1193.52 1189.14 1192.34 1188.24 1189.66C1184.38 1177.91 1179.18 1165.42 1168.33 1158.29C1159.26 1152.34 1147.23 1151.3 1138.16 1157.54C1135.93 1159.18 1138.16 1163.05 1140.54 1161.41Z" fill="#1E0E62"/>
<path d="M1171 1125.88C1179.18 1120.82 1189.28 1124.54 1197.16 1128.55C1205.78 1133.01 1211.13 1140.45 1213.06 1149.81C1213.66 1152.64 1217.97 1151.45 1217.37 1148.62C1214.99 1137.32 1207.86 1128.7 1197.46 1123.79C1188.39 1119.48 1177.84 1116.36 1168.63 1122.01C1166.4 1123.5 1168.63 1127.36 1171 1125.88Z" fill="#1E0E62"/>
<path d="M1202.21 1082.46C1221.53 1076.36 1241.6 1085.28 1249.32 1104.32C1250.36 1103.42 1251.55 1102.68 1252.59 1101.79C1252.15 1101.49 1251.7 1101.34 1251.11 1101.05C1248.58 1099.86 1246.2 1103.57 1248.88 1104.91C1249.32 1105.21 1249.77 1105.36 1250.36 1105.65C1251.85 1106.4 1254.38 1105.06 1253.63 1103.13C1245.16 1082.01 1222.87 1071.31 1201.02 1078.3C1198.35 1079.04 1199.54 1083.35 1202.21 1082.46Z" fill="#1E0E62"/>
<path d="M1234.31 1039.49C1255.71 1035.18 1275.03 1050.64 1275.93 1072.35C1276.07 1075.17 1280.53 1075.17 1280.38 1072.35C1279.34 1047.52 1257.5 1030.42 1233.13 1035.18C1230.3 1035.77 1231.49 1040.09 1234.31 1039.49Z" fill="#1E0E62"/>
<path d="M1260.62 1002.92C1281.57 995.184 1303.42 1007.08 1308.17 1029.08C1308.77 1031.91 1313.08 1030.72 1312.48 1027.89C1307.43 1003.81 1282.61 990.129 1259.43 998.604C1256.75 999.644 1257.94 1003.96 1260.62 1002.92Z" fill="#1E0E62"/>
<path d="M1288.41 971.693C1309.07 964.705 1329.87 976.599 1334.18 998.01C1334.78 1000.83 1339.09 999.645 1338.49 996.82C1333.74 973.18 1309.96 959.65 1287.22 967.381C1284.55 968.422 1285.59 972.734 1288.41 971.693Z" fill="#1E0E62"/>
<path d="M1311.74 936.604C1331.21 933.036 1355.14 938.239 1360.93 959.947C1361.68 962.772 1365.99 961.583 1365.24 958.758C1358.7 934.522 1332.4 928.427 1310.55 932.292C1307.73 932.738 1308.92 937.05 1311.74 936.604Z" fill="#1E0E62"/>
<path opacity="0.29" d="M1362.12 920.101C1309.96 990.576 1257.5 1060.75 1204.59 1130.63C1121.22 1240.81 1036.81 1350.24 951.652 1458.92C928.914 1424.58 905.433 1403.32 888.343 1390.08C886.262 1388.6 856.985 1366.15 853.27 1370.01C850.446 1372.99 863.376 1389.64 874.076 1402.72C888.343 1438.41 902.164 1475.72 915.39 1514.38C920.889 1530.59 926.239 1546.79 931.292 1562.7C948.531 1528.8 965.621 1494.9 982.861 1461.15C1012.43 1422.35 1057.02 1363.92 1086.74 1325.11C1188.84 1191.59 1290.94 1058.23 1393.33 925.007C1382.93 923.52 1372.52 921.736 1362.12 920.101Z" fill="#828282"/>
<path d="M1076.78 505.13C1064.45 521.188 1049.74 542.746 1036.36 569.955C1032.05 578.727 1018.38 607.126 1007.98 646.675C1002.03 669.126 996.236 698.565 994.453 733.654C1011.25 736.181 1028.04 738.56 1044.83 741.088C1049.14 709.419 1057.17 671.059 1071.88 629.131C1083.62 595.677 1097.14 566.982 1110.22 543.192C1099.08 530.554 1087.93 517.917 1076.78 505.13Z" fill="white" stroke="#1E0E62" stroke-width="3" stroke-miterlimit="10"/>
<path d="M998.762 715.515C1012.73 705.404 1032.5 707.337 1043.94 720.273C1045.87 722.354 1048.99 719.232 1047.06 717.15C1034.28 702.877 1011.99 700.349 996.533 711.649C994.304 713.284 996.533 717.15 998.762 715.515Z" fill="#1E0E62"/>
<path d="M1001.44 683.548C1016.15 667.044 1042.6 672.694 1048.85 694.105C1049.59 696.781 1053.9 695.74 1053.16 692.915C1045.87 668.383 1015.41 661.246 998.317 680.426C996.385 682.507 999.506 685.63 1001.44 683.548Z" fill="#1E0E62"/>
<path d="M1008.27 653.068C1022.99 635.672 1050.33 641.471 1056.28 663.625C1057.02 666.45 1061.33 665.26 1060.59 662.435C1053.9 637.159 1022.09 629.725 1005.15 649.797C1003.22 652.028 1006.34 655.299 1008.27 653.068Z" fill="#1E0E62"/>
<path d="M1016.74 625.711C1023.28 617.682 1034.13 615.006 1043.79 618.574C1053.6 622.143 1060.29 630.915 1064.6 639.984C1065.79 642.512 1069.65 640.282 1068.46 637.754C1063.41 626.9 1054.94 616.939 1043.05 613.668C1032.35 610.694 1020.61 613.816 1013.62 622.589C1011.84 624.67 1014.96 627.941 1016.74 625.711Z" fill="#1E0E62"/>
<path d="M1027.74 593.744C1037.4 587.5 1047.8 586.31 1057.32 593.893C1064.3 599.543 1070.69 606.977 1073.37 615.601C1074.26 618.277 1078.57 617.087 1077.68 614.411C1074.26 603.706 1065.64 593.298 1056.13 587.5C1046.17 581.404 1035.02 583.783 1025.66 589.879C1023.14 591.514 1025.36 595.38 1027.74 593.744Z" fill="#1E0E62"/>
<path d="M1041.86 565.049C1051.97 561.183 1062.07 559.101 1070.84 567.13C1076.64 572.483 1082.88 580.511 1084.51 588.392C1085.7 587.648 1087.04 586.905 1088.23 586.161C1087.78 585.864 1087.34 585.418 1086.89 585.121C1084.66 583.336 1081.54 586.459 1083.77 588.243C1084.22 588.54 1084.66 588.986 1085.11 589.284C1086.89 590.622 1089.27 589.432 1088.82 587.053C1086.74 577.538 1078.87 567.13 1071.14 561.48C1061.48 554.343 1051.07 556.722 1040.67 560.588C1038 561.778 1039.19 566.089 1041.86 565.049Z" fill="#1E0E62"/>
<path d="M1058.95 533.826C1080.65 527.135 1093.87 551.221 1095.06 569.361C1095.21 572.186 1099.67 572.186 1099.52 569.361C1098.04 548.396 1082.43 521.931 1057.76 529.514C1055.09 530.257 1056.28 534.569 1058.95 533.826Z" fill="#1E0E62"/>
<path d="M1390.8 534.271C1390.8 534.271 1415.03 686.373 1415.92 692.617C1416.96 699.011 1403.73 926.791 1403.73 926.791L1478.63 856.316C1466.89 729.639 1455.15 602.814 1443.41 476.137C1426.03 495.614 1408.34 514.943 1390.8 534.271Z" fill="#8C30F5" stroke="#1E0E62" stroke-width="3" stroke-miterlimit="10"/>
<path d="M1075 498.736L1179.63 463.201L1443.56 476.136L1390.8 534.271L1075 498.736Z" fill="white" stroke="#1E0E62" stroke-width="3" stroke-miterlimit="10"/>
<path d="M1075 498.736L1127.46 697.821C1124.49 758.78 1121.67 819.888 1118.69 880.848C1213.66 896.162 1308.77 911.476 1403.73 926.939C1408.19 850.963 1412.5 775.135 1416.96 699.159L1390.8 534.419L1075 498.736Z" fill="white" stroke="#1E0E62" stroke-width="3" stroke-miterlimit="10"/>
<path d="M1284.99 564.453C1283.95 576.05 1284.99 587.35 1288.41 598.501C1289.3 601.178 1293.61 600.137 1292.72 597.312C1289.45 586.458 1288.41 575.604 1289.45 564.453C1289.75 561.628 1285.29 561.628 1284.99 564.453Z" fill="#1E0E62"/>
<path d="M1288.11 566.089C1307.28 566.981 1326.45 568.319 1345.63 570.252C1348.45 570.549 1348.45 566.089 1345.63 565.791C1326.45 563.858 1307.43 562.372 1288.11 561.628C1285.29 561.479 1285.29 565.94 1288.11 566.089Z" fill="#1E0E62"/>
<path d="M1291.38 601.921C1309.36 604.3 1327.49 605.341 1345.63 605.043C1348.45 605.043 1348.45 600.583 1345.63 600.583C1327.49 600.88 1309.36 599.839 1291.38 597.461C1288.56 597.014 1288.56 601.475 1291.38 601.921Z" fill="#1E0E62"/>
<path d="M1343.84 570.847C1348.15 580.363 1348.6 590.622 1345.33 600.583C1344.44 603.26 1348.75 604.449 1349.64 601.773C1353.2 590.622 1352.46 579.322 1347.71 568.617C1346.52 565.941 1342.65 568.171 1343.84 570.847Z" fill="#1E0E62"/>
<path d="M1349.94 578.875C1353.06 578.727 1356.03 580.957 1356.92 584.079C1357.51 586.458 1355.58 591.365 1352.61 589.134C1350.38 587.35 1348.15 591.216 1350.38 593C1355.43 596.717 1361.53 591.067 1361.68 585.863C1361.82 579.619 1356.18 574.415 1350.08 574.564C1347.11 574.564 1346.96 579.024 1349.94 578.875Z" fill="#1E0E62"/>
<path d="M1294.06 574.415C1293.76 580.809 1294.5 587.053 1296.14 593.298C1296.88 596.123 1301.19 594.933 1300.45 592.108C1298.96 586.31 1298.37 580.511 1298.52 574.415C1298.66 571.442 1294.21 571.442 1294.06 574.415Z" fill="#1E0E62"/>
<path d="M1297.03 574.861C1300.6 575.01 1304.16 575.307 1307.73 575.753C1307.13 575.01 1306.69 574.266 1306.09 573.671C1305.65 580.065 1305.8 586.458 1306.39 593C1306.69 595.825 1311.15 595.825 1310.85 593C1310.11 586.607 1310.11 580.213 1310.55 573.671C1310.55 572.779 1309.81 571.59 1308.92 571.59C1304.91 570.995 1301.04 570.549 1297.03 570.4C1294.21 570.4 1294.21 574.861 1297.03 574.861Z" fill="#1E0E62"/>
<path d="M1298.66 595.23C1301.93 595.676 1305.2 595.676 1308.47 595.081C1311.3 594.487 1310.11 590.175 1307.28 590.77C1304.91 591.216 1302.38 591.364 1299.85 590.918C1298.66 590.77 1297.47 591.216 1297.18 592.405C1296.88 593.446 1297.47 595.081 1298.66 595.23Z" fill="#1E0E62"/>
<path d="M1313.67 573.374C1312.63 580.362 1312.93 587.35 1314.57 594.338C1315.31 597.163 1319.62 595.974 1318.88 593.149C1317.39 587.053 1316.94 580.808 1317.98 574.564C1318.43 571.739 1314.12 570.549 1313.67 573.374Z" fill="#1E0E62"/>
<path d="M1316.35 575.01C1319.32 575.754 1322.44 576.497 1325.41 577.24C1324.82 576.497 1324.37 575.754 1323.78 575.159C1324.23 581.106 1324.67 587.053 1325.27 592.852C1325.56 595.677 1330.02 595.677 1329.72 592.852C1329.28 586.905 1328.83 580.957 1328.24 575.159C1328.09 574.118 1327.64 573.226 1326.6 573.077C1323.63 572.334 1320.51 571.591 1317.54 570.847C1314.71 570.104 1313.53 574.415 1316.35 575.01Z" fill="#1E0E62"/>
<path d="M1317.39 595.528C1320.96 597.312 1324.97 597.163 1328.24 595.081C1330.76 593.595 1328.39 589.729 1326.01 591.216C1324.08 592.405 1321.7 592.554 1319.62 591.662C1317.09 590.472 1314.86 594.338 1317.39 595.528Z" fill="#1E0E62"/>
<path d="M1330.62 574.712C1330.17 580.214 1329.87 586.161 1331.21 591.513C1332.25 596.123 1336.86 595.825 1340.72 594.933C1343.54 594.19 1342.36 589.878 1339.53 590.621C1338.34 590.919 1337.3 591.067 1336.11 591.067C1335.37 591.365 1335.07 590.919 1335.37 589.729C1334.93 588.242 1334.93 586.31 1334.93 584.674C1334.78 581.403 1334.78 578.132 1335.07 574.712C1335.37 571.888 1330.91 571.888 1330.62 574.712Z" fill="#1E0E62"/>
<path d="M1333.29 576.05C1334.78 576.347 1336.56 576.496 1338.05 576.942C1338.05 576.942 1339.38 577.388 1339.09 577.091C1339.53 577.537 1339.09 580.064 1339.09 580.659C1339.09 584.673 1339.24 588.688 1339.24 592.554C1339.24 595.379 1343.69 595.379 1343.69 592.554C1343.69 589.729 1343.55 586.904 1343.55 584.079C1343.55 581.551 1343.84 578.577 1343.4 576.05C1342.65 572.035 1337.75 572.184 1334.48 571.589C1331.66 571.143 1330.47 575.455 1333.29 576.05Z" fill="#1E0E62"/>
<path d="M1094.17 526.985C1110.52 579.024 1125.08 631.657 1138.16 684.737C1138.9 687.562 1143.21 686.372 1142.47 683.547C1129.39 630.616 1114.83 577.983 1098.48 525.796C1097.59 523.119 1093.28 524.309 1094.17 526.985Z" fill="#1E0E62"/>
<path d="M1141.58 700.647C1138.76 754.618 1134.89 808.441 1129.69 862.264C1129.39 865.089 1133.85 865.089 1134.15 862.264C1139.2 808.441 1143.21 754.618 1146.04 700.647C1146.19 697.822 1141.73 697.822 1141.58 700.647Z" fill="#1E0E62"/>
<path d="M1132.81 866.724C1218.12 875.199 1302.83 888.729 1386.49 907.165C1389.32 907.76 1390.51 903.448 1387.68 902.853C1303.57 884.417 1218.41 870.887 1132.81 862.263C1129.99 861.966 1129.99 866.426 1132.81 866.724Z" fill="#1E0E62"/>
<path d="M1097 527.283C1157.18 537.245 1217.52 545.422 1278.16 551.816C1280.98 552.113 1280.98 547.652 1278.16 547.355C1217.97 540.962 1157.93 532.933 1098.18 522.971C1095.36 522.525 1094.17 526.837 1097 527.283Z" fill="#1E0E62"/>
<path d="M1146.19 855.127C1145.89 854.235 1145.44 853.194 1145.15 852.302C1145.15 852.748 1145.15 853.046 1145.15 853.492C1145.74 851.856 1148.27 852.154 1148.42 853.789C1148.71 855.424 1146.48 855.871 1145.89 854.681C1144.55 852.153 1140.69 854.384 1142.03 856.911C1143.51 859.439 1146.78 860.48 1149.46 859.439C1152.43 858.249 1153.62 854.83 1152.58 852.005C1151.39 848.882 1148.27 847.396 1145.15 848.288C1143.66 848.734 1142.47 849.626 1141.58 850.964C1140.99 851.707 1140.69 852.599 1140.84 853.64C1140.99 854.532 1141.58 855.573 1141.88 856.465C1142.92 858.993 1147.23 857.803 1146.19 855.127Z" fill="#1E0E62"/>
<path d="M1112.15 542.151C1112.3 542.299 1112.3 541.853 1112.15 542.151C1112.15 541.853 1112.15 542.002 1112.15 541.853C1112.3 541.556 1112.45 541.407 1112.6 541.407C1112.6 541.407 1112.9 541.259 1112.75 541.407C1112.75 541.407 1112.75 541.407 1112.6 541.407C1112.9 541.556 1112.9 541.556 1112.75 541.407C1113.05 541.556 1113.19 541.705 1113.34 542.002C1113.19 541.705 1113.49 542.299 1113.49 542.448C1113.49 542.299 1113.34 542.597 1113.49 542.448C1113.64 542.151 1113.19 542.745 1113.49 542.448C1113.19 542.745 1113.49 542.448 1113.19 542.597C1113.49 542.448 1112.9 542.597 1112.9 542.597C1113.34 542.597 1112.6 542.597 1112.6 542.597C1112.9 542.597 1112.45 542.448 1112.45 542.597C1112.3 542.448 1112.3 542.448 1112.45 542.597C1112.3 542.448 1112.3 542.448 1112.15 542.299C1111.41 541.407 1109.78 541.556 1109.03 542.299C1108.14 543.192 1108.29 544.53 1109.03 545.422C1110.52 547.355 1113.64 547.652 1115.72 546.314C1118.1 544.827 1118.54 541.853 1117.21 539.474C1115.72 537.096 1112.75 536.203 1110.37 537.69C1107.99 539.177 1107.25 542.151 1108.44 544.53C1109.03 545.57 1110.52 545.868 1111.56 545.273C1112.45 544.53 1112.75 543.192 1112.15 542.151Z" fill="#1E0E62"/>
<path d="M1384.56 635.969C1389.32 655.297 1393.63 674.626 1397.49 694.103C1398.09 696.928 1402.4 695.739 1401.8 692.914C1397.94 673.437 1393.63 654.108 1388.87 634.779C1388.28 631.954 1383.97 633.144 1384.56 635.969Z" fill="#1E0E62"/>
<path d="M1398.83 694.996C1398.23 716.852 1396.75 738.857 1394.37 760.565C1394.07 763.39 1398.53 763.39 1398.83 760.565C1401.06 738.709 1402.54 716.852 1403.29 694.996C1403.29 692.171 1398.83 692.171 1398.83 694.996Z" fill="#1E0E62"/>
<path d="M904.393 640.133C905.731 640.43 916.431 642.363 924.605 634.929C929.36 630.617 930.846 625.413 931.441 623.183C934.265 626.454 937.385 629.725 941.249 632.996C959.232 648.162 976.322 645.634 992.967 653.514C1002.18 657.826 1014.52 666.896 1025.22 687.711C1031.75 683.251 1041.56 677.155 1054.49 672.099C1081.24 661.543 1101.6 662.881 1118.1 661.097C1138.31 659.015 1166.1 650.689 1198.94 623.332C1204.29 661.692 1208.9 701.687 1212.62 743.318C1219.16 818.7 1221.68 889.918 1221.39 956.082C1115.57 850.666 1009.91 745.4 904.393 640.133Z" fill="white" stroke="#1E0E62" stroke-width="3" stroke-miterlimit="10"/>
<path d="M904.393 640.134C917.62 729.045 930.995 818.106 944.222 907.018C968.594 939.281 992.818 971.694 1017.19 1003.96C1021.05 1006.63 1026.85 1009.76 1034.28 1011.39C1053.45 1015.41 1068.91 1005.74 1072.77 1003.21C1133.11 989.685 1193.45 976.155 1253.78 962.773C1241.3 855.128 1228.82 747.333 1216.33 639.688C1160.6 658.719 1104.72 677.75 1048.99 696.93C1047.8 697.822 1035.92 706.446 1021.8 701.985C1012.14 699.012 1007.23 691.726 1005.9 689.496C972.012 672.844 938.128 656.489 904.393 640.134Z" fill="#EC615B"/>
<path d="M1001.73 702.877C1007.53 798.777 1015.26 894.677 1024.92 990.279C1025.22 993.104 1029.67 993.104 1029.38 990.279C1019.72 894.677 1011.99 798.777 1006.19 702.877C1006.04 700.053 1001.59 699.904 1001.73 702.877Z" fill="#1E0E62"/>
<path d="M1044.39 749.265C1048.4 812.157 1050.93 875.198 1052.11 938.239C1052.11 941.064 1056.57 941.064 1056.57 938.239C1055.38 875.198 1052.86 812.157 1048.85 749.265C1048.7 746.44 1044.24 746.44 1044.39 749.265Z" fill="#1E0E62"/>
<path d="M1092.09 723.692C1092.69 730.383 1093.28 736.925 1093.87 743.616C1094.17 747.035 1094.02 751.05 1095.36 754.321C1098.93 762.796 1109.63 757.741 1116.02 755.956C1138.16 749.86 1160.01 743.17 1180.37 732.465C1182.89 731.126 1180.66 727.261 1178.14 728.599C1162.53 736.776 1145.89 742.575 1128.95 747.63C1125.08 748.82 1121.22 749.86 1117.36 750.901C1113.94 751.793 1109.33 754.172 1105.76 754.024C1095.51 753.726 1097.14 730.532 1096.55 723.544C1096.25 720.867 1091.79 720.867 1092.09 723.692Z" fill="#1E0E62"/>
<path d="M1096.4 723.543C1109.63 719.529 1122.85 715.515 1135.93 711.5C1149.01 707.486 1162.68 701.836 1176.5 701.241C1175.76 700.498 1175.02 699.754 1174.27 699.011C1174.13 710.459 1175.46 721.759 1178.29 732.91C1179.03 735.735 1183.34 734.546 1182.6 731.721C1179.77 721.016 1178.58 710.162 1178.73 699.011C1178.73 697.822 1177.69 696.781 1176.5 696.781C1163.13 697.375 1150.2 702.579 1137.57 706.296C1123.45 710.608 1109.33 714.92 1095.21 719.232C1092.54 720.124 1093.58 724.436 1096.4 723.543Z" fill="#1E0E62"/>
<path d="M915.539 763.242C915.391 765.323 915.093 768.743 915.985 779.597C916.134 782.124 916.728 787.923 918.066 799.52C919.254 808.59 919.7 813.199 920.741 818.552C922.078 825.54 923.416 831.189 924.456 835.055C920.889 838.921 921.038 844.571 924.01 847.247C926.388 849.477 930.4 849.923 932.927 848.139C934.413 847.098 935.305 845.166 935.602 838.624C936.196 826.134 933.224 824.499 934.71 816.767C935.751 811.266 937.534 809.779 937.088 804.873C936.939 803.981 936.791 802.197 934.116 795.952C929.509 784.801 928.023 784.949 927.577 780.786C927.131 776.326 928.766 775.731 928.32 768.594C928.171 764.431 927.428 761.458 927.28 760.714C926.239 756.403 923.267 747.779 920.443 747.928C917.025 748.225 915.688 761.904 915.539 763.242Z" fill="white"/>
<path d="M916.579 746.887C913.31 753.28 912.121 760.566 914.053 767.702C915.242 772.46 918.66 778.853 924.604 777.813C929.657 776.921 930.698 771.122 930.549 766.959C930.252 759.971 927.131 753.577 922.375 748.374C920.443 746.292 917.323 749.414 919.254 751.496C921.781 754.172 923.713 757.295 924.902 760.714C925.496 762.647 925.942 764.877 926.091 766.959C926.239 770.081 926.834 770.973 922.97 770.973C919.403 770.825 919.403 769.784 918.363 766.513C917.917 764.729 917.62 762.796 917.62 760.863C917.471 756.7 918.511 752.834 920.443 749.117C921.781 746.589 917.917 744.359 916.579 746.887Z" fill="#1E0E62"/>
<path d="M914.351 766.513C912.864 776.92 913.756 787.031 917.917 796.695C920.444 802.642 924.902 810.522 932.035 811.712C937.385 812.604 939.912 809.184 939.169 804.278C937.683 793.721 930.103 785.098 928.469 774.393C928.023 771.568 923.713 772.757 924.159 775.582C924.902 780.34 926.388 784.652 928.32 788.963C929.212 791.045 938.574 807.846 929.955 806.062C924.753 805.021 920.741 792.234 919.701 788.369C917.769 781.529 917.62 774.541 918.66 767.553C919.106 764.877 914.796 763.688 914.351 766.513Z" fill="#1E0E62"/>
<path d="M915.242 790.302C915.242 799.817 916.877 815.726 925.199 821.971C927.874 824.052 931.441 823.904 934.116 821.673C937.534 818.7 937.385 814.091 936.94 809.928C936.642 807.103 932.184 807.103 932.481 809.928C932.63 811.117 932.778 812.306 932.778 813.496C929.063 817.808 926.537 818.254 925.348 814.983C923.564 813.496 922.821 809.481 922.227 807.251C920.444 801.75 919.701 796.1 919.849 790.302C919.701 787.328 915.242 787.328 915.242 790.302Z" fill="#1E0E62"/>
<path d="M918.808 806.062C917.768 813.645 918.214 821.227 920.592 828.513C922.078 833.271 924.753 841.894 930.252 843.53C941.992 846.949 938.574 824.498 937.385 819.146C936.791 816.321 932.481 817.51 933.075 820.335C933.967 824.498 934.413 828.661 934.264 832.825C934.264 834.311 934.116 835.798 933.67 837.434C932.035 837.136 930.4 836.839 928.766 836.542C927.131 835.352 926.239 831.486 925.645 829.702C922.821 822.12 922.227 814.239 923.267 806.211C923.713 803.237 919.254 803.237 918.808 806.062Z" fill="#1E0E62"/>
<path d="M922.524 834.311C921.93 839.367 921.93 847.693 927.131 850.666C932.481 853.64 935.899 848.585 936.642 843.976C937.088 841.151 932.778 839.961 932.333 842.786C932.184 843.827 932.035 845.611 931.292 846.355C929.658 847.99 928.023 845.76 927.577 844.125C926.537 841.002 926.537 837.434 926.983 834.163C927.28 831.487 922.821 831.487 922.524 834.311Z" fill="#1E0E62"/>
<path d="M1287.07 841.894C1285.14 836.69 1282.17 829.702 1278.16 821.376C1276.52 818.105 1272.66 810.225 1266.86 800.709C1256.46 783.76 1252 781.232 1248.73 780.042C1248.14 779.894 1239.66 776.92 1236.69 780.34C1231.94 785.841 1245.31 803.832 1246.8 805.913C1242.79 806.657 1236.54 807.846 1228.96 809.035C1202.21 813.198 1191.51 812.604 1172.64 816.023C1151.83 819.74 1142.47 818.848 1140.54 824.35C1138.9 828.81 1142.92 833.717 1143.36 834.46C1147.97 840.11 1157.33 841.745 1166.4 837.731C1171.6 837.434 1176.8 837.285 1182 836.988C1181.41 840.705 1180.96 846.057 1182.45 852.302C1183.64 857.357 1185.12 857.952 1188.54 866.278C1192.55 876.24 1191.81 878.321 1195.08 882.93C1198.8 888.134 1203.4 890.81 1205.78 892C1216.93 898.244 1228.82 896.014 1251.55 893.041C1259.43 892 1272.06 890.364 1288.11 888.729C1287.81 873.117 1287.37 857.506 1287.07 841.894Z" fill="white"/>
<path d="M1422.46 527.58C1416.07 541.556 1424.99 557.614 1430.48 569.211C1431.08 570.401 1438.95 608.463 1454.71 684.886C1459.46 707.634 1466 740.79 1473.14 781.975C1459.91 790.004 1445.35 797.735 1429.15 805.169C1375.94 829.256 1326.01 838.771 1286.92 842.191C1284.99 846.057 1280.68 856.019 1282.32 868.805C1284.4 885.16 1294.5 895.122 1297.33 897.649C1313.23 893.04 1335.97 886.35 1363.16 878.023C1488.44 839.664 1515.49 825.836 1523.81 801.75C1527.08 792.085 1524.7 788.814 1517.57 751.644C1502.26 671.653 1504.79 641.917 1484.43 569.36C1473.28 529.662 1465.26 512.861 1452.03 510.333C1441.33 508.103 1427.51 516.429 1422.46 527.58Z" fill="white" stroke="#1E0E62" stroke-width="3" stroke-miterlimit="10"/>
<path d="M1311 839.961C1306.54 857.208 1310.11 875.348 1320.81 889.472C1322.59 891.703 1326.45 889.472 1324.67 887.242C1314.57 873.861 1311.15 857.357 1315.31 841.151C1316.05 838.474 1311.74 837.285 1311 839.961Z" fill="#1E0E62"/>
<path d="M1289.15 841.298C1284.4 828.809 1278.75 816.766 1272.06 805.169C1266.56 795.653 1260.32 785.989 1251.4 779.149C1246.8 775.73 1239.22 770.526 1235.35 777.663C1231.04 785.84 1240.7 800.262 1245.01 806.953C1246.5 809.332 1250.36 807.102 1248.88 804.723C1247.09 801.898 1233.42 779.001 1242.93 779.001C1246.05 779.001 1250.51 784.056 1252.74 785.989C1256.01 789.111 1258.84 792.531 1261.36 796.248C1271.32 810.373 1278.75 826.43 1284.99 842.488C1285.88 845.164 1290.19 843.975 1289.15 841.298Z" fill="#1E0E62"/>
<path d="M1244.87 806.062C1226.44 806.656 1208.01 808.292 1189.58 810.968C1180.52 812.306 1171.6 813.942 1162.53 815.726C1155.7 817.213 1146.19 817.808 1140.24 821.822C1137.12 824.052 1135.04 827.918 1136.53 831.784C1138.61 836.541 1145.89 837.582 1150.35 838.474C1167.74 841.745 1186.46 840.259 1204 840.556C1206.82 840.556 1206.82 836.095 1204 836.095C1190.62 835.947 1177.25 835.947 1163.87 835.352C1159.71 835.203 1155.55 834.906 1151.39 834.163C1149.75 833.865 1145.15 833.568 1143.81 832.23C1135.34 823.755 1156.89 821.376 1160.6 820.633C1188.24 814.685 1216.33 811.414 1244.42 810.522C1247.69 810.374 1247.69 805.913 1244.87 806.062Z" fill="#1E0E62"/>
<path d="M1178.44 840.257C1176.06 847.543 1179.92 854.679 1186.31 858.397C1195.82 863.749 1208.6 860.924 1218.86 860.181C1221.68 859.883 1221.68 855.423 1218.86 855.72C1212.32 856.166 1205.63 857.207 1199.09 856.91C1190.77 856.612 1179.33 852.003 1182.6 841.447C1183.64 838.622 1179.33 837.432 1178.44 840.257Z" fill="#1E0E62"/>
<path d="M1183.04 857.951C1185.12 875.644 1204.44 876.536 1218.26 874.603C1221.09 874.157 1219.9 869.845 1217.08 870.291C1206.52 871.778 1189.14 872.224 1187.5 857.951C1187.2 855.126 1182.75 855.126 1183.04 857.951Z" fill="#1E0E62"/>
<path d="M1189.58 872.076C1190.47 887.836 1205.04 896.46 1219.6 897.501C1230.75 898.393 1242.04 896.311 1252.89 894.973C1264.63 893.635 1276.52 892.297 1288.26 890.81C1291.08 890.513 1291.08 886.052 1288.26 886.35C1270.87 888.431 1253.49 890.661 1236.1 892.446C1220.49 894.081 1195.38 892.892 1194.04 871.927C1193.74 869.251 1189.28 869.251 1189.58 872.076Z" fill="#1E0E62"/>
<path d="M1346.67 836.541C1345.18 851.707 1348.3 866.426 1355.73 879.807C1357.07 882.335 1360.93 880.105 1359.6 877.577C1352.61 864.791 1349.79 851.112 1351.12 836.541C1351.42 833.567 1346.96 833.716 1346.67 836.541Z" fill="#1E0E62"/>
<path d="M1383.22 822.565C1383.37 838.325 1386.94 853.491 1393.63 867.764C1394.82 870.292 1398.68 868.062 1397.49 865.534C1391.1 851.855 1387.98 837.582 1387.68 822.565C1387.53 819.592 1383.08 819.592 1383.22 822.565Z" fill="#1E0E62"/>
<path d="M1414.14 812.752C1419.34 826.728 1423.5 841.001 1426.62 855.572C1427.21 858.397 1431.52 857.207 1430.93 854.383C1427.81 839.812 1423.65 825.538 1418.45 811.562C1417.55 808.886 1413.24 810.075 1414.14 812.752Z" fill="#1E0E62"/>
<path d="M1448.32 797.736C1456.94 811.712 1461.69 827.323 1462.29 843.827C1462.44 846.652 1466.89 846.652 1466.75 843.827C1466.15 826.58 1461.25 810.225 1452.18 795.505C1450.55 793.126 1446.68 795.357 1448.32 797.736Z" fill="#1E0E62"/>
<path d="M1473.43 785.692C1482.05 785.543 1489.78 788.368 1496.76 793.275C1500.18 795.654 1503.3 798.479 1506.28 801.304C1507.76 802.79 1509.25 804.426 1510.73 806.061C1513.26 808.886 1512.96 807.994 1516.53 809.332C1513.86 808.292 1512.67 812.603 1515.34 813.644C1515.64 813.793 1515.79 813.793 1516.08 813.942C1516.83 814.239 1517.72 813.942 1518.31 813.347C1519.95 811.563 1519.65 810.224 1518.61 808.292C1515.49 802.939 1509.4 797.587 1504.64 793.572C1495.72 785.989 1485.17 780.934 1473.43 781.083C1470.46 781.231 1470.46 785.692 1473.43 785.692Z" fill="#1E0E62"/>
<path d="M1472.99 760.417C1481.76 750.306 1499.14 737.966 1513.41 742.724C1516.09 743.616 1517.27 739.304 1514.6 738.412C1498.85 733.059 1479.67 745.846 1469.87 757.146C1467.93 759.525 1471.06 762.647 1472.99 760.417Z" fill="#1E0E62"/>
<path d="M1467.19 730.383C1474.92 713.73 1494.24 712.689 1510.29 712.392C1513.11 712.392 1513.11 707.932 1510.29 707.932C1492.75 708.229 1471.8 710.162 1463.48 728.152C1462.14 730.829 1466 733.059 1467.19 730.383Z" fill="#1E0E62"/>
<path d="M1459.76 693.063C1465.41 676.708 1486.21 669.125 1501.97 668.977C1504.79 668.977 1504.79 664.516 1501.97 664.516C1483.98 664.665 1461.69 673.437 1455.45 691.874C1454.56 694.55 1458.87 695.739 1459.76 693.063Z" fill="#1E0E62"/>
<path d="M1452.18 653.514C1454.41 644.742 1461.69 639.092 1468.68 633.591C1477.15 626.9 1485.32 621.993 1496.32 621.845C1499.14 621.845 1499.14 617.384 1496.32 617.384C1485.02 617.533 1476.4 622.142 1467.49 628.833C1459.31 635.077 1450.69 641.768 1447.87 652.176C1447.13 655.001 1451.44 656.19 1452.18 653.514Z" fill="#1E0E62"/>
<path d="M1444.01 615.154C1452.92 599.245 1468.97 588.689 1487.25 587.202C1490.08 586.905 1490.08 582.444 1487.25 582.742C1467.49 584.377 1449.95 595.38 1440.14 612.775C1438.81 615.452 1442.67 617.682 1444.01 615.154Z" fill="#1E0E62"/>
<path d="M1438.06 577.686C1442.67 571.59 1448.32 566.683 1455 562.966C1458.13 561.182 1461.54 559.844 1464.96 558.803C1466.45 558.357 1467.93 557.911 1469.42 557.614C1470.46 557.317 1471.5 557.168 1472.54 557.168C1474.47 557.317 1475.81 556.424 1476.26 554.343C1474.18 556.276 1477.3 559.398 1479.38 557.465C1479.53 557.317 1479.67 557.168 1479.82 557.019C1480.42 556.424 1480.57 555.532 1480.42 554.789C1480.42 554.492 1480.27 554.343 1480.27 554.046C1480.12 553.302 1479.38 552.707 1478.78 552.559C1471.35 550.923 1461.69 554.64 1455 557.911C1446.68 561.926 1439.99 567.873 1434.35 575.158C1432.42 577.686 1436.28 579.916 1438.06 577.686Z" fill="#1E0E62"/>
<path opacity="0.28" d="M1452.48 510.185C1456.49 524.607 1461.69 544.679 1466.89 568.766C1475.96 610.843 1475.07 619.169 1486.07 697.97C1495.13 761.755 1498.7 777.664 1486.96 795.208C1481.76 803.088 1469.87 809.928 1446.68 823.606C1415.33 841.894 1393.03 854.978 1359.6 865.832C1341.76 871.631 1316.65 878.024 1285.59 880.849C1279.79 881.741 1272.36 882.633 1263.59 883.376C1247.54 884.715 1234.02 884.566 1223.91 884.269C1215.59 883.971 1205.63 883.228 1194.19 881.741C1197.31 885.309 1202.51 890.364 1209.94 893.784C1222.87 899.88 1235.35 898.245 1257.05 895.271C1264.93 894.081 1275.63 892.297 1288.11 889.026C1291.23 892 1294.35 894.974 1297.62 897.799C1317.39 891.851 1346.67 883.079 1382.63 872.225C1575.98 813.793 1427.07 856.614 1452.03 849.328C1461.84 846.503 1481.76 840.705 1503.01 826.431C1514.3 818.848 1521.43 811.712 1524.26 801.899C1526.49 794.019 1524.85 787.625 1522.92 779.002C1519.5 763.241 1518.31 747.184 1514.3 731.572C1507.76 705.85 1511.78 707.932 1502.41 651.879C1491.56 586.161 1489.33 602.665 1483.09 563.413C1482.2 557.912 1480.42 546.017 1472.84 533.231C1466.3 521.782 1458.27 514.497 1452.48 510.185Z" fill="#828282"/>
<path d="M1224.51 440.304C1227.03 447.59 1229.86 455.173 1232.83 462.904C1237.73 475.542 1242.93 487.585 1248.28 498.885C1254.67 497.696 1262.4 495.763 1270.72 492.492C1277.26 489.816 1282.76 486.991 1287.37 484.166C1283.95 465.283 1280.53 446.549 1277.12 427.667C1259.58 431.83 1242.04 435.993 1224.51 440.304Z" fill="white" stroke="#1E0E62" stroke-width="2" stroke-miterlimit="10"/>
<path d="M1242.34 485.057C1259.43 491.153 1275.93 482.678 1286.33 469.148C1288.11 466.918 1284.99 463.796 1283.21 466.026C1273.7 478.367 1259.28 486.544 1243.53 480.894C1240.7 479.705 1239.66 484.017 1242.34 485.057Z" fill="#1E0E62"/>
<path d="M1234.61 469C1252 471.528 1273.99 473.014 1283.65 454.875C1284.99 452.348 1281.13 450.117 1279.79 452.645C1271.17 468.851 1251.26 466.919 1235.8 464.688C1232.98 464.242 1231.79 468.554 1234.61 469Z" fill="#1E0E62"/>
<path d="M1227.03 451.753C1245.01 456.956 1264.33 453.388 1279.2 442.088C1281.42 440.304 1279.2 436.438 1276.97 438.223C1262.85 448.928 1245.16 452.347 1228.22 447.441C1225.55 446.697 1224.36 451.009 1227.03 451.753Z" fill="#1E0E62"/>
<path d="M1314.27 263.075H1388.28L1404.03 402.687L1331.21 440.304L1314.27 263.075Z" fill="#8C30F5" stroke="#1E0E62" stroke-width="3" stroke-miterlimit="10"/>
<path d="M1064.3 290.879L1088.52 440.304H1331.21L1314.27 263.075L1064.3 290.879Z" fill="white" stroke="#1E0E62" stroke-width="3" stroke-miterlimit="10"/>
<path d="M1075 302.031L1096.85 431.532H1314.27L1298.96 277.795L1075 302.031Z" fill="white" stroke="#1E0E62" stroke-width="3" stroke-miterlimit="10"/>
<path d="M1132.66 367.856C1135.43 366.255 1135.35 360.921 1132.48 355.944C1129.61 350.966 1125.03 348.228 1122.26 349.83C1119.49 351.431 1119.57 356.764 1122.44 361.742C1125.31 366.72 1129.89 369.457 1132.66 367.856Z" fill="#1E0E62" stroke="#1E0E62" stroke-width="3" stroke-miterlimit="10"/>
<path d="M1234.75 360.676C1237.52 359.075 1237.44 353.742 1234.57 348.764C1231.69 343.786 1227.12 341.049 1224.35 342.65C1221.57 344.251 1221.66 349.585 1224.53 354.562C1227.4 359.54 1231.98 362.277 1234.75 360.676Z" fill="#1E0E62" stroke="#1E0E62" stroke-width="3" stroke-miterlimit="10"/>
<path d="M1168.03 384.102C1171.75 389.157 1175.76 394.064 1179.92 398.673C1181.11 400.011 1183.19 399.119 1183.64 397.632C1185.72 391.387 1188.24 385.292 1191.22 379.493C1192.41 376.965 1188.69 374.586 1187.35 377.263C1184.38 383.507 1181.71 389.901 1179.33 396.591C1180.52 396.294 1181.85 395.997 1183.04 395.551C1179.03 391.239 1175.31 386.63 1171.75 381.872C1170.11 379.642 1166.25 381.872 1168.03 384.102Z" fill="#1E0E62"/>
</svg>
