<svg width="1342" height="1401" viewBox="0 0 1342 1401" fill="none" xmlns="http://www.w3.org/2000/svg">
<path d="M503.131 304.64C486.467 418.427 394.015 500.51 359.91 607.865C359.223 609.97 362.542 610.886 363.206 608.78C397.334 501.426 489.786 419.411 506.45 305.556C506.77 303.404 503.451 302.466 503.131 304.64V304.64Z" fill="#E8E8E8"/>
<path d="M457.832 519.509C404.751 649.982 315.618 773.589 318.64 919.948C318.64 920.403 318.821 920.839 319.143 921.161C319.465 921.483 319.901 921.664 320.357 921.664C320.812 921.664 321.248 921.483 321.57 921.161C321.892 920.839 322.073 920.403 322.073 919.948C319.052 773.909 408.184 650.463 461.151 520.425C461.975 518.387 458.656 517.495 457.832 519.509V519.509Z" fill="#E8E8E8"/>
<path d="M909.515 479.611C946.734 542.101 1006 585.5 1058.3 634.554C1116.8 689.49 1159.95 755.551 1179.61 833.926C1179.67 834.144 1179.77 834.348 1179.91 834.527C1180.05 834.706 1180.22 834.856 1180.42 834.969C1180.61 835.082 1180.83 835.155 1181.05 835.184C1181.27 835.213 1181.5 835.198 1181.72 835.139C1181.94 835.081 1182.14 834.98 1182.32 834.842C1182.5 834.705 1182.65 834.533 1182.76 834.338C1182.87 834.142 1182.95 833.926 1182.98 833.702C1183.01 833.479 1182.99 833.251 1182.93 833.033C1164.19 758.114 1123.95 693.084 1068.67 639.635C1014.81 587.561 951.609 543.314 912.628 477.871C912.384 477.509 912.01 477.253 911.584 477.157C911.157 477.06 910.71 477.13 910.333 477.352C909.956 477.574 909.679 477.931 909.556 478.351C909.434 478.771 909.477 479.221 909.675 479.611H909.515Z" fill="#E8E8E8"/>
<path d="M759.839 159.221C777.624 233.316 837.984 285.528 871.999 351.497C873.006 353.466 875.981 351.726 874.951 349.757C841.12 284.017 780.875 232.011 763.181 158.259C762.677 156.108 759.358 157 759.862 159.152L759.839 159.221Z" fill="#E8E8E8"/>
<path d="M583.863 1213.7L510.616 1187.83C498.759 1183.64 486.902 1179.41 475.022 1175.26C468.155 1172.97 461.678 1170.09 455.269 1174.58C454.955 1174.78 454.713 1175.08 454.574 1175.43C454.434 1175.78 454.405 1176.16 454.49 1176.52C461.082 1197.67 477.792 1211.75 494.662 1225L496.333 1222.14C485.597 1218.3 461.174 1212.6 452.636 1224.27C444.831 1234.91 464.081 1246.73 471.703 1250.25C473.695 1251.17 475.434 1248.21 473.443 1247.3C466.095 1243.91 445.975 1231.89 462.616 1222.46C470.856 1217.88 487.245 1222.46 495.417 1225.44C496.974 1226.01 498.439 1223.63 497.088 1222.58C486.17 1213.99 474.862 1205.13 466.713 1193.71C462.135 1187.35 452.499 1174.53 468.453 1176.64C475.755 1177.6 483.881 1182.04 490.862 1184.49L582.947 1216.99C585.03 1217.75 585.923 1214.43 583.84 1213.7H583.863Z" fill="#E8E8E8"/>
<path d="M663.496 1229.15C653.082 1228.14 642.667 1227.41 632.206 1227.09C628.406 1227.09 620.876 1225.6 618.06 1229.37C611.857 1237.8 630.764 1247.37 636.372 1248.99C636.812 1249.11 637.283 1249.05 637.68 1248.83C638.077 1248.6 638.368 1248.23 638.489 1247.79C638.611 1247.35 638.552 1246.88 638.327 1246.48C638.102 1246.09 637.728 1245.79 637.288 1245.67C632.365 1244.38 627.871 1241.8 624.263 1238.21C621.425 1235.28 620.464 1232.42 625.156 1230.36C627.262 1229.44 631.68 1230.5 633.877 1230.56C643.743 1230.89 653.608 1231.6 663.428 1232.56C665.717 1232.76 665.602 1229.33 663.428 1229.12L663.496 1229.15Z" fill="#E8E8E8"/>
<path d="M637.127 1266.32C628.292 1263.32 618.984 1261.95 609.66 1262.29C604.372 1262.57 595.605 1262.29 591.92 1266.69C585.053 1274.65 601.579 1281.7 606.386 1285L607.256 1281.79C595.229 1282.91 583.271 1284.68 571.434 1287.08C566.97 1288.02 556.624 1288.45 555.411 1294.63C554.541 1299.01 559.142 1301.78 562.278 1303.79C572.131 1309.87 582.776 1314.56 593.911 1317.73C596.04 1318.37 596.933 1315.05 594.827 1314.41C587.891 1312.34 581.126 1309.74 574.593 1306.63C570.015 1304.48 556.281 1299.76 563.789 1292.41C566.535 1289.76 577.522 1289.48 581.299 1288.8C589.952 1287.26 598.673 1286.16 607.416 1285.32C607.787 1285.3 608.143 1285.17 608.433 1284.94C608.723 1284.71 608.932 1284.39 609.029 1284.03C609.126 1283.68 609.106 1283.3 608.973 1282.95C608.839 1282.61 608.599 1282.31 608.286 1282.11C606.203 1280.72 601.122 1278.27 599.588 1276.3C591.302 1265.52 604.807 1266.14 609.82 1265.88C618.866 1265.54 627.898 1266.87 636.463 1269.8C638.569 1270.46 639.462 1267.17 637.379 1266.48L637.127 1266.32Z" fill="#E8E8E8"/>
<path d="M734.637 1219.39C741.916 1215.16 749.241 1211.06 756.703 1207.17C760.114 1205.39 764.28 1202.2 767.965 1201.47L771.764 1199.64C778.738 1202.39 780.081 1205.02 775.793 1207.54C774.282 1208.89 776.228 1211.06 777.876 1210.24C784.743 1206.74 818.345 1191.17 814.5 1208.34C814.019 1210.49 817.338 1211.43 817.819 1209.25L819.604 1201.11C819.711 1200.67 819.644 1200.2 819.419 1199.81C819.193 1199.42 818.825 1199.13 818.391 1199C803.284 1194.42 789.527 1200.51 776.068 1207.26L778.151 1209.96C782.134 1206.39 788.84 1195.61 779.135 1193.62C774.008 1192.59 766.431 1198.34 762.38 1200.37C752.331 1205.39 742.511 1210.79 732.806 1216.4C732.444 1216.64 732.188 1217.01 732.091 1217.44C731.995 1217.87 732.065 1218.31 732.287 1218.69C732.509 1219.07 732.866 1219.35 733.286 1219.47C733.706 1219.59 734.156 1219.55 734.546 1219.35L734.637 1219.39Z" fill="#E8E8E8"/>
<path d="M790.946 1247.32C796.478 1244.12 802.403 1241.65 808.571 1239.97C812.195 1239.02 815.894 1238.38 819.627 1238.05C823.884 1237.07 826.631 1239.29 827.867 1244.69C827.728 1245.01 827.688 1245.36 827.753 1245.71C827.819 1246.05 827.985 1246.37 828.232 1246.61C828.479 1246.86 828.795 1247.03 829.138 1247.09C829.481 1247.16 829.836 1247.12 830.156 1246.98C837.912 1242.11 846.504 1238.73 855.495 1237C860.218 1236.11 865.019 1235.71 869.824 1235.81C872.433 1235.81 888.479 1235.44 880.101 1240.39C879.707 1240.62 879.42 1240.99 879.304 1241.44C879.188 1241.88 879.253 1242.35 879.483 1242.74C879.714 1243.14 880.092 1243.42 880.534 1243.54C880.976 1243.66 881.446 1243.59 881.841 1243.36C884.431 1241.97 886.519 1239.8 887.815 1237.16C887.943 1236.93 888.017 1236.68 888.033 1236.41C888.049 1236.15 888.005 1235.89 887.907 1235.65C887.808 1235.41 887.655 1235.19 887.461 1235.02C887.267 1234.84 887.036 1234.71 886.785 1234.64C876.918 1232.28 866.681 1231.89 856.664 1233.51C846.647 1235.12 837.047 1238.69 828.416 1244.02L830.705 1246.31C834.024 1241.37 831.117 1236.52 825.761 1234.87C814.545 1231.32 798.477 1239.01 789 1244.28C787.078 1245.35 788.794 1248.33 790.74 1247.25L790.946 1247.32Z" fill="#E8E8E8"/>
<path d="M756.863 1279.07C763.73 1282.43 770.071 1282.39 777.579 1281.68C782.82 1281.18 788.016 1280.51 793.281 1280.26C796.005 1280.15 798.752 1280.08 801.498 1280.08C805.87 1278.77 807.152 1280.35 805.367 1284.86C804.995 1284.87 804.634 1284.99 804.34 1285.22C804.046 1285.45 803.834 1285.77 803.736 1286.12C803.638 1286.48 803.659 1286.86 803.796 1287.21C803.933 1287.56 804.179 1287.85 804.497 1288.04C806.328 1289.28 807.61 1289.03 809.281 1290.13H809.739C813.813 1289.51 815.003 1292 813.264 1297.63C812.876 1297.46 812.438 1297.43 812.033 1297.56C811.628 1297.69 811.286 1297.97 811.073 1298.33C810.859 1298.7 810.789 1299.14 810.877 1299.55C810.964 1299.97 811.203 1300.34 811.547 1300.59C816.125 1303.33 822.534 1302.58 823.816 1296.44C826.105 1285.2 811.41 1288.5 806.236 1285L805.367 1288.2C810.38 1287.86 819.902 1283.62 813.355 1277.65C810.036 1274.56 797.172 1276.55 793.281 1276.73C782.019 1277.26 769.292 1281.31 758.603 1276.03C756.634 1275.04 754.895 1277.99 756.863 1278.98V1279.07Z" fill="#E8E8E8"/>
<path d="M880.261 1200.03C887.088 1202.17 894.452 1201.82 901.045 1199.05C910.59 1195.61 923.477 1185.98 933.572 1190.35C939.683 1193 940.164 1197.79 948.175 1196.78C962.894 1194.9 974.842 1191.72 989.926 1193.96L989.171 1191.1L982.304 1198.82C980.862 1200.49 983.266 1202.91 984.73 1201.27L991.597 1193.53C992.353 1192.68 992.215 1190.87 990.842 1190.67C981.346 1189.12 971.675 1188.98 962.138 1190.26C959.002 1190.71 955.546 1191.97 952.387 1192.2C951.229 1192.66 949.974 1192.83 948.735 1192.69C947.496 1192.54 946.313 1192.09 945.291 1191.38C943.924 1191.71 942.481 1191.52 941.25 1190.84C940.019 1190.15 939.092 1189.03 938.653 1187.69C937.383 1186.86 936.014 1186.19 934.579 1185.7C915.901 1180.89 900.45 1203.07 881.177 1196.69C879.071 1195.98 878.179 1199.3 880.261 1199.98V1200.03Z" fill="#E8E8E8"/>
<path d="M296.139 1205.68C293.056 1203.19 290.52 1200.09 288.689 1196.57C286.858 1193.05 285.77 1189.2 285.495 1185.24L282.909 1186.73C288.503 1189.21 293.939 1192.04 299.183 1195.2C299.504 1195.35 299.864 1195.4 300.214 1195.34C300.564 1195.28 300.886 1195.11 301.137 1194.86C301.388 1194.61 301.555 1194.29 301.615 1193.94C301.675 1193.59 301.625 1193.23 301.472 1192.91C292.866 1179.16 288.858 1163.03 290.028 1146.86L287.098 1148.07L324.98 1180.11C326.651 1181.53 329.1 1179.11 327.406 1177.67L289.524 1145.62C289.28 1145.39 288.975 1145.24 288.646 1145.18C288.316 1145.12 287.977 1145.15 287.667 1145.28C287.358 1145.41 287.092 1145.62 286.902 1145.9C286.712 1146.17 286.605 1146.5 286.594 1146.83C285.454 1163.61 289.644 1180.31 298.565 1194.56L300.854 1192.27C295.607 1189.11 290.173 1186.27 284.58 1183.78C283.527 1183.3 281.856 1183.78 281.993 1185.26C282.279 1189.67 283.459 1193.97 285.462 1197.91C287.465 1201.84 290.249 1205.33 293.644 1208.15C295.315 1209.6 297.764 1207.17 296.07 1205.73L296.139 1205.68Z" fill="#E8E8E8"/>
<path d="M347.961 1174.62C347.305 1174.27 346.8 1173.7 346.542 1173C346.285 1172.3 346.293 1171.54 346.565 1170.84C347.028 1169.89 347.805 1169.13 348.764 1168.69C349.724 1168.25 350.807 1168.15 351.83 1168.42C355.79 1169.04 358.399 1172.58 360.619 1175.58C361.924 1177.35 364.923 1175.58 363.595 1173.87C359.887 1168.88 354.119 1162.42 347.137 1165.6C342.399 1167.71 341.209 1175.01 346.222 1177.57C348.19 1178.58 349.93 1175.63 347.961 1174.62Z" fill="#E8E8E8"/>
<path d="M1046.05 1175.95C1053.13 1168.12 1060.4 1160.48 1068 1153.06L1072.58 1148.69C1080.21 1145.99 1083.39 1147.26 1082.1 1152.51C1081.92 1152.19 1083.77 1159.03 1083.82 1159.1C1084.05 1159.48 1084.41 1159.76 1084.84 1159.88C1085.27 1159.99 1085.72 1159.94 1086.11 1159.72L1099.39 1149.6C1102.25 1147.43 1106.02 1143.03 1109.32 1142.03C1111.36 1139.54 1113.6 1139.72 1116.03 1142.55C1120.31 1143.19 1121.84 1145.64 1120.6 1149.9C1120.61 1153.08 1121.13 1156.23 1122.16 1159.24C1122.92 1161.3 1126.23 1160.41 1125.46 1158.32C1123.05 1151.87 1126.33 1137.72 1116.53 1135.73C1108.06 1134.02 1089.27 1157.87 1085.42 1152.51C1083.52 1149.88 1086.57 1145.14 1083.29 1142.03C1081 1139.85 1079.4 1140.17 1076.43 1140.97C1072.05 1142.19 1067.04 1149.03 1063.88 1152.1C1056.83 1158.97 1050.15 1166.13 1043.47 1173.43C1042 1175.08 1044.4 1177.51 1045.89 1175.86L1046.05 1175.95Z" fill="#E8E8E8"/>
<path d="M183.293 175.54V311.759C183.293 312.214 183.474 312.651 183.796 312.973C184.118 313.295 184.554 313.475 185.009 313.475C185.465 313.475 185.901 313.295 186.223 312.973C186.545 312.651 186.726 312.214 186.726 311.759V175.54C186.726 175.085 186.545 174.648 186.223 174.326C185.901 174.004 185.465 173.823 185.009 173.823C184.554 173.823 184.118 174.004 183.796 174.326C183.474 174.648 183.293 175.085 183.293 175.54Z" fill="#E8E8E8"/>
<path d="M224.906 268.565V389.883C224.906 390.338 225.087 390.775 225.409 391.097C225.731 391.419 226.168 391.599 226.623 391.599C227.079 391.599 227.515 391.419 227.837 391.097C228.159 390.775 228.34 390.338 228.34 389.883V268.565C228.34 268.11 228.159 267.673 227.837 267.351C227.515 267.03 227.079 266.849 226.623 266.849C226.168 266.849 225.731 267.03 225.409 267.351C225.087 267.673 224.906 268.11 224.906 268.565V268.565Z" fill="#E8E8E8"/>
<path d="M949.045 113.006V304.138C949.045 304.593 949.226 305.03 949.548 305.352C949.87 305.674 950.307 305.854 950.762 305.854C951.217 305.854 951.654 305.674 951.976 305.352C952.298 305.03 952.479 304.593 952.479 304.138V113.006C952.479 112.551 952.298 112.114 951.976 111.792C951.654 111.47 951.217 111.289 950.762 111.289C950.307 111.289 949.87 111.47 949.548 111.792C949.226 112.114 949.045 112.551 949.045 113.006V113.006Z" fill="#E8E8E8"/>
<path d="M1043.12 438.019V529.374C1043.12 529.829 1043.3 530.266 1043.63 530.588C1043.95 530.91 1044.38 531.09 1044.84 531.09C1045.29 531.09 1045.73 530.91 1046.05 530.588C1046.37 530.266 1046.56 529.829 1046.56 529.374V438.019C1046.56 437.564 1046.37 437.128 1046.05 436.806C1045.73 436.484 1045.29 436.303 1044.84 436.303C1044.38 436.303 1043.95 436.484 1043.63 436.806C1043.3 437.128 1043.12 437.564 1043.12 438.019V438.019Z" fill="#E8E8E8"/>
<path d="M1100.71 214.865V334.466C1100.71 334.921 1100.89 335.358 1101.22 335.68C1101.54 336.002 1101.97 336.182 1102.43 336.182C1102.88 336.182 1103.32 336.002 1103.64 335.68C1103.97 335.358 1104.15 334.921 1104.15 334.466V214.865C1104.15 214.41 1103.97 213.973 1103.64 213.651C1103.32 213.329 1102.88 213.148 1102.43 213.148C1101.97 213.148 1101.54 213.329 1101.22 213.651C1100.89 213.973 1100.71 214.41 1100.71 214.865V214.865Z" fill="#E8E8E8"/>
<path d="M1135.25 439.669V549.312C1135.25 549.768 1135.43 550.204 1135.76 550.526C1136.08 550.848 1136.51 551.029 1136.97 551.029C1137.43 551.029 1137.86 550.848 1138.18 550.526C1138.51 550.204 1138.69 549.768 1138.69 549.312V439.669C1138.69 439.214 1138.51 438.777 1138.18 438.455C1137.86 438.133 1137.43 437.952 1136.97 437.952C1136.51 437.952 1136.08 438.133 1135.76 438.455C1135.43 438.777 1135.25 439.214 1135.25 439.669Z" fill="#E8E8E8"/>
<path d="M254.823 635.699V860.022C254.823 860.477 255.004 860.914 255.326 861.236C255.648 861.558 256.084 861.738 256.54 861.738C256.995 861.738 257.432 861.558 257.754 861.236C258.076 860.914 258.256 860.477 258.256 860.022V635.699C258.256 635.244 258.076 634.807 257.754 634.485C257.432 634.163 256.995 633.982 256.54 633.982C256.084 633.982 255.648 634.163 255.326 634.485C255.004 634.807 254.823 635.244 254.823 635.699Z" fill="#E8E8E8"/>
<path d="M281.398 911.455V1016.13C281.398 1016.59 281.579 1017.02 281.901 1017.35C282.223 1017.67 282.66 1017.85 283.115 1017.85C283.57 1017.85 284.007 1017.67 284.329 1017.35C284.651 1017.02 284.832 1016.59 284.832 1016.13V911.455C284.832 911 284.651 910.563 284.329 910.241C284.007 909.919 283.57 909.738 283.115 909.738C282.66 909.738 282.223 909.919 281.901 910.241C281.579 910.563 281.398 911 281.398 911.455V911.455Z" fill="#E8E8E8"/>
<path d="M362.794 967.948V1075.92C362.794 1076.38 362.975 1076.81 363.297 1077.13C363.619 1077.46 364.056 1077.64 364.511 1077.64C364.966 1077.64 365.403 1077.46 365.725 1077.13C366.047 1076.81 366.228 1076.38 366.228 1075.92V967.948C366.228 967.493 366.047 967.056 365.725 966.734C365.403 966.412 364.966 966.231 364.511 966.231C364.056 966.231 363.619 966.412 363.297 966.734C362.975 967.056 362.794 967.493 362.794 967.948V967.948Z" fill="#E8E8E8"/>
<path d="M148.958 1020.6L160.586 1032.22C160.912 1032.53 161.342 1032.69 161.787 1032.68C162.232 1032.68 162.656 1032.5 162.971 1032.18C163.285 1031.87 163.465 1031.44 163.473 1031C163.481 1030.55 163.316 1030.12 163.013 1029.8L151.431 1018.31C149.874 1016.73 147.448 1019.15 149.004 1020.73L148.958 1020.6Z" fill="#E8E8E8"/>
<path d="M430.845 118.727V329.316C430.845 329.771 431.026 330.208 431.348 330.53C431.67 330.852 432.107 331.033 432.562 331.033C433.017 331.033 433.454 330.852 433.776 330.53C434.098 330.208 434.279 329.771 434.279 329.316V118.727C434.279 118.272 434.098 117.836 433.776 117.514C433.454 117.192 433.017 117.011 432.562 117.011C432.107 117.011 431.67 117.192 431.348 117.514C431.026 117.836 430.845 118.272 430.845 118.727V118.727Z" fill="#E8E8E8"/>
<path d="M348.099 334.489V487.418C348.099 487.873 348.279 488.31 348.601 488.632C348.923 488.954 349.36 489.134 349.815 489.134C350.271 489.134 350.707 488.954 351.029 488.632C351.351 488.31 351.532 487.873 351.532 487.418V334.489C351.532 334.034 351.351 333.597 351.029 333.275C350.707 332.953 350.271 332.772 349.815 332.772C349.36 332.772 348.923 332.953 348.601 333.275C348.279 333.597 348.099 334.034 348.099 334.489Z" fill="#E8E8E8"/>
<path d="M196.454 465.992C202.725 465.992 207.808 460.909 207.808 454.639C207.808 448.368 202.725 443.285 196.454 443.285C190.184 443.285 185.101 448.368 185.101 454.639C185.101 460.909 190.184 465.992 196.454 465.992Z" stroke="#461EB8" stroke-miterlimit="10"/>
<path d="M314.084 158.762C319.065 158.762 323.103 154.724 323.103 149.743C323.103 144.762 319.065 140.725 314.084 140.725C309.104 140.725 305.066 144.762 305.066 149.743C305.066 154.724 309.104 158.762 314.084 158.762Z" fill="#8C30F5"/>
<path d="M163.242 871.328C170.435 871.328 176.266 865.497 176.266 858.304C176.266 851.111 170.435 845.279 163.242 845.279C156.048 845.279 150.217 851.111 150.217 858.304C150.217 865.497 156.048 871.328 163.242 871.328Z" fill="#8C30F5"/>
<path d="M928.513 425.042C932.407 425.042 935.563 421.885 935.563 417.992C935.563 414.098 932.407 410.941 928.513 410.941C924.619 410.941 921.463 414.098 921.463 417.992C921.463 421.885 924.619 425.042 928.513 425.042Z" stroke="#461EB8" stroke-miterlimit="10"/>
<path d="M1145.53 100.461C1150.25 100.461 1154.07 96.6382 1154.07 91.9228C1154.07 87.2074 1150.25 83.3848 1145.53 83.3848C1140.82 83.3848 1136.99 87.2074 1136.99 91.9228C1136.99 96.6382 1140.82 100.461 1145.53 100.461Z" fill="#8C30F5"/>
<path d="M833.178 1075.92C839.208 1075.92 844.096 1071.03 844.096 1065C844.096 1058.97 839.208 1054.08 833.178 1054.08C827.148 1054.08 822.259 1058.97 822.259 1065C822.259 1071.03 827.148 1075.92 833.178 1075.92Z" stroke="#461EB8" stroke-miterlimit="10"/>
<path d="M324.499 637.69C330.264 637.69 334.937 633.017 334.937 627.252C334.937 621.488 330.264 616.814 324.499 616.814C318.735 616.814 314.062 621.488 314.062 627.252C314.062 633.017 318.735 637.69 324.499 637.69Z" fill="#EC615B"/>
<path d="M595.88 115.226C602.315 115.226 607.531 110.01 607.531 103.575C607.531 97.1402 602.315 91.9238 595.88 91.9238C589.445 91.9238 584.229 97.1402 584.229 103.575C584.229 110.01 589.445 115.226 595.88 115.226Z" fill="#EC615B"/>
<path d="M939.638 1076.31C945.782 1076.31 950.762 1071.33 950.762 1065.18C950.762 1059.04 945.782 1054.06 939.638 1054.06C933.494 1054.06 928.513 1059.04 928.513 1065.18C928.513 1071.33 933.494 1076.31 939.638 1076.31Z" fill="#EC615B"/>
<path d="M1220.04 633.433C1224.63 633.433 1228.35 629.713 1228.35 625.124C1228.35 620.535 1224.63 616.814 1220.04 616.814C1215.45 616.814 1211.73 620.535 1211.73 625.124C1211.73 629.713 1215.45 633.433 1220.04 633.433Z" fill="#EC615B"/>
<path d="M1216.65 350.695C1219.37 350.695 1221.57 348.492 1221.57 345.774C1221.57 343.056 1219.37 340.853 1216.65 340.853C1213.93 340.853 1211.73 343.056 1211.73 345.774C1211.73 348.492 1213.93 350.695 1216.65 350.695Z" fill="#EC615B"/>
<path d="M168.62 97.1644C172.809 101.399 175.053 98.5607 179.699 96.8897C192.723 92.1744 192.998 100.209 203.276 103.619C204.912 104.248 206.689 104.414 208.413 104.099C210.137 103.784 211.741 103 213.049 101.834C215.865 99.4077 216.964 95.4248 219.71 92.9527C221.496 91.4683 223.57 90.3711 225.802 89.7308C228.033 89.0905 230.374 88.921 232.675 89.2331C234.975 89.5452 237.186 90.332 239.166 91.5437C241.147 92.7553 242.854 94.3654 244.179 96.2717C245.415 98.0571 248.391 96.2717 247.132 94.5321C239.075 82.9039 225.204 83.7509 215.567 92.472C201.696 104.993 202.314 96.3633 190.755 91.4419C188.914 90.5129 186.863 90.079 184.804 90.183C181.21 90.5492 173.359 97.1873 171.07 94.761C169.513 93.2045 167.087 95.6308 168.643 97.2102L168.62 97.1644Z" fill="#EC615B"/>
<path d="M228.088 111.355L243.424 111.035C244.267 112.08 245.227 113.024 246.286 113.85C247.636 114.514 247.659 114.972 249.17 115.635C251.557 116.716 254.225 117.012 256.792 116.482C265.948 115.04 282.955 97.1402 290.417 109.455C290.661 109.818 291.035 110.073 291.461 110.17C291.888 110.266 292.335 110.197 292.712 109.975C293.089 109.753 293.366 109.395 293.489 108.975C293.611 108.556 293.568 108.105 293.37 107.715C286.503 96.4078 273.593 104.488 265.238 109.203C256.883 113.919 252.122 112.431 244.889 107.693C243.185 106.313 241.247 105.251 239.167 104.557C236.731 103.986 234.186 104.092 231.806 104.863C229.426 105.633 227.301 107.039 225.662 108.929C225.359 109.254 225.194 109.685 225.201 110.129C225.209 110.574 225.389 110.998 225.704 111.313C226.019 111.627 226.443 111.808 226.888 111.815C227.332 111.823 227.763 111.658 228.088 111.355V111.355Z" fill="#EC615B"/>
<path d="M946.299 349.366C948.061 343.461 963.283 355.249 966.899 355.158C971.477 355.158 973.606 351.426 977.017 349.023C992.307 338.242 997.274 360.354 1011.03 353.601C1013.02 352.64 1011.28 349.664 1009.29 350.648C1001.81 354.311 994.596 343.278 987.569 341.675C981.663 340.348 978.962 343.484 974.59 346.574C971.683 348.611 966.693 351.312 962.848 350.351C960.559 349.824 958.682 346.574 956.668 345.406C955.042 344.308 953.186 343.596 951.243 343.323C947.054 342.911 944.17 344.445 942.957 348.428C942.835 348.868 942.894 349.338 943.119 349.735C943.344 350.132 943.718 350.424 944.158 350.545C944.599 350.667 945.069 350.608 945.466 350.383C945.863 350.157 946.154 349.784 946.276 349.343L946.299 349.366Z" fill="#EC615B"/>
<path d="M975.14 425.727C975.595 425.727 976.031 425.547 976.353 425.225C976.675 424.903 976.856 424.466 976.856 424.011C976.856 423.555 976.675 423.119 976.353 422.797C976.031 422.475 975.595 422.294 975.14 422.294C974.684 422.294 974.248 422.475 973.926 422.797C973.604 423.119 973.423 423.555 973.423 424.011C973.423 424.466 973.604 424.903 973.926 425.225C974.248 425.547 974.684 425.727 975.14 425.727Z" fill="#EC615B"/>
<path d="M986.516 372.051C992.078 366.878 999.128 367.954 1004.58 372.6C1006.06 373.859 1006.86 375.782 1008.38 376.995C1009.21 377.781 1010.19 378.389 1011.26 378.783C1012.34 379.177 1013.48 379.347 1014.62 379.284C1017.71 379.147 1019.75 376.995 1022.41 375.782C1026.51 373.521 1031.2 372.558 1035.87 373.02C1040.53 373.481 1044.94 375.347 1048.52 378.369C1050.24 379.742 1052.67 377.316 1050.95 375.942C1046.8 372.315 1041.64 370.046 1036.16 369.441C1027.99 368.64 1021.17 374.912 1014.01 374.019C1007.46 373.241 1005.1 366.031 997.984 364.863C995.486 364.491 992.936 364.722 990.546 365.539C988.156 366.355 985.997 367.733 984.25 369.556C982.625 371.067 985.051 373.493 986.676 371.982L986.516 372.051Z" fill="#EC615B"/>
<path d="M83.1045 1136.58C89.9714 1125.96 104.278 1146.26 112.449 1146.99C115.708 1147.15 118.928 1146.23 121.605 1144.36C131.814 1138.57 139.551 1138.36 150.309 1144.87C150.703 1145.1 151.173 1145.16 151.616 1145.04C152.058 1144.93 152.436 1144.64 152.666 1144.25C152.897 1143.85 152.962 1143.38 152.846 1142.94C152.73 1142.5 152.443 1142.12 152.048 1141.89C146.326 1138.46 139.963 1134.59 132.981 1135.18C129.612 1135.64 126.405 1136.91 123.642 1138.89C115.905 1143.47 109.679 1142.21 101.714 1136.6C95.2361 1132.02 85.9886 1125.73 80.1518 1134.82C78.9615 1136.67 81.9372 1138.41 83.1274 1136.56L83.1045 1136.58Z" fill="#EC615B"/>
<path d="M140.764 1121.17C142.932 1124.09 145.933 1126.29 149.373 1127.48C152.812 1128.66 156.53 1128.78 160.037 1127.81C161.686 1127.15 163.291 1126.39 164.844 1125.52C170.017 1123.23 172.466 1123.65 177.639 1126.28C181.393 1128.2 184.163 1130.19 188.443 1130.86C190.595 1131.15 191.533 1127.86 189.359 1127.56C182.492 1126.62 177.364 1120.1 170.383 1120.12C168.18 1120.28 166.043 1120.93 164.134 1122.04C156.352 1125.71 149.256 1126.48 143.19 1118.86C141.817 1117.14 139.39 1119.57 140.764 1121.29V1121.17Z" fill="#EC615B"/>
<path d="M1149.72 1201.84C1158.88 1195.86 1168.03 1207.29 1177.35 1206.12C1183.57 1205.34 1188.06 1200.88 1193.37 1197.97C1206.37 1190.74 1212.99 1200.47 1225.05 1201.63C1227.24 1202 1229.48 1201.79 1231.57 1201.03C1233.65 1200.27 1235.51 1198.99 1236.95 1197.31C1238.44 1195.68 1236.04 1193.23 1234.53 1194.88C1225.37 1204.81 1213.03 1190.58 1203.01 1190.9C1197.79 1191.06 1193.44 1193.9 1189.27 1196.6C1183.69 1200.15 1179.18 1203.83 1171.85 1202.27C1168.6 1201.59 1165.54 1199.16 1162.42 1198.09C1157.16 1196.23 1152.9 1195.8 1148.16 1198.86C1146.31 1200.08 1148.03 1203.05 1149.88 1201.84H1149.72Z" fill="#EC615B"/>
<path d="M1220.2 1212.62C1230.57 1204.24 1255.95 1230.75 1261.97 1210.15C1262.05 1209.72 1261.97 1209.29 1261.74 1208.92C1261.51 1208.56 1261.16 1208.29 1260.74 1208.18C1260.33 1208.06 1259.89 1208.11 1259.5 1208.3C1259.12 1208.5 1258.82 1208.83 1258.67 1209.23C1257.39 1213.6 1251.81 1215.11 1247.96 1214.45C1245.33 1213.84 1242.79 1212.86 1240.43 1211.54C1237.4 1209.84 1234.19 1208.46 1230.86 1207.45C1228.62 1206.79 1226.26 1206.7 1223.97 1207.18C1221.69 1207.66 1219.56 1208.69 1217.77 1210.19C1216.05 1211.57 1218.5 1213.99 1220.2 1212.62Z" fill="#EC615B"/>
<path d="M847.85 110.646C853.13 106.297 857.708 105.961 861.584 109.639C862.857 110.662 864.257 111.516 865.75 112.18C867.342 113.072 869.105 113.619 870.923 113.782C876.233 114.217 879.3 110.829 883.855 108.93C897.131 103.413 901.87 111.035 913.749 112.935C916.052 113.451 918.44 113.451 920.743 112.937C923.046 112.423 925.207 111.406 927.071 109.96C928.834 108.678 927.071 105.679 925.332 107.007C914.139 115.27 902.442 101.834 890.883 102.909C888.324 103.196 885.845 103.973 883.581 105.198C879.003 107.487 879.186 107.693 872.662 108.106C864.468 108.586 866.414 108.105 860.554 104.786C854.694 101.467 842.402 101.834 844.531 111.653C844.989 113.805 848.308 112.912 847.827 110.738L847.85 110.646Z" fill="#EC615B"/>
<path d="M917.48 120.009C919.993 124.135 923.746 127.359 928.203 129.222C932.66 131.084 937.592 131.489 942.293 130.378C944.444 129.875 943.552 126.556 941.377 127.059C937.394 128.01 933.213 127.673 929.433 126.098C925.654 124.523 922.471 121.79 920.341 118.292C919.197 116.415 916.221 118.132 917.389 120.009H917.48Z" fill="#EC615B"/>
<path d="M465.183 1025.53C492.631 1040.46 522.563 1050.29 553.522 1054.53C575.458 1057.2 597.631 1057.33 619.595 1054.89C644.523 1052.14 669.033 1046.41 692.604 1037.84C765.588 1012.49 813.005 992.791 856.291 976.864C919.791 953.48 951.542 941.813 993.996 935.422C1041 928.418 1088.83 929.006 1135.65 937.163C1135.26 844.145 1111.7 780.073 1090.62 739.072C1052.27 664.477 993.736 611.031 891.731 517.91C839.221 469.972 792.401 432.609 756.624 359.547C744.42 334.473 734.901 308.18 728.226 281.105L605.876 310.596C561.222 370.748 535.97 443.087 533.49 517.962C529.852 595.701 506.625 765.523 465.183 1025.53Z" fill="#E5E5E5"/>
<path d="M604.291 309.841C584.727 332.03 569.241 351.543 557.939 366.379C535.854 395.401 520.005 416.395 503.637 447.236C492.845 466.614 484.003 487.015 477.239 508.139C470.639 529.185 469.314 541.371 463.183 578.292C457.181 614.251 452.79 640.649 447.905 662.657C440.344 696.746 436.603 697.681 410.153 775.758C383.703 853.836 379.286 877.09 377.26 888.444C372.427 916.063 368.01 942.358 371.804 977.278C374.397 1006.25 382.464 1034.46 395.577 1060.42C410.347 1088.51 430.617 1113.34 455.18 1133.43C481.114 1154.81 511.192 1170.58 543.519 1179.76C528.108 1150.6 515.535 1120.02 505.975 1088.46C496.2 1055.58 489.554 1021.85 486.125 987.723C483.057 955.249 482.553 922.583 484.618 890.029C486.489 858.175 489.684 841.468 502.935 763.339C511.847 710.698 519.278 665.774 522.759 644.287C540.09 537.759 538.089 532.251 545.65 493.199C558.052 430.02 577.73 368.491 604.291 309.841Z" fill="white"/>
<path d="M728.2 281.156C734.409 303.887 742.152 326.17 751.376 347.853C770.038 391.124 794.239 431.789 823.372 468.828C912.88 586.32 957.647 645.066 993.399 686.716C993.399 686.716 1056.51 760.195 1102.76 841.286C1110.36 854.422 1116.82 868.182 1122.09 882.416C1135.94 920.013 1137.31 950.672 1138.64 976.421C1140.69 1016.62 1143.39 1061.57 1147.32 1120.42C1157.55 1113.9 1167.3 1106.64 1176.49 1098.72C1208.49 1070.73 1233.32 1035.5 1248.93 995.959C1248.18 967.252 1244.5 938.696 1237.94 910.737C1234.33 895.485 1217.34 827.204 1154.33 739.409C1101.12 665.255 1044.95 618.824 999.271 581.591C953.594 544.358 928.547 530.354 859.253 471.426C818.513 436.713 796.637 415.538 775.825 385.008C754.303 353.27 738.208 318.174 728.2 281.156V281.156Z" fill="white"/>
<path d="M602.914 308.464C560.355 358.948 516.991 410.627 489.45 471.218C459.259 537.629 461.52 611.523 440.812 680.663C403.398 805.69 324.698 947.165 400.852 1073.86C416.644 1100.17 437.481 1123.11 462.165 1141.34C486.85 1159.58 514.894 1172.76 544.688 1180.12C547.105 1180.72 548.144 1176.95 545.702 1176.38C490.247 1162.71 441.907 1128.8 410.179 1081.31C372.713 1025.32 366.737 958.181 378.377 893.069C390.589 824.761 419.351 761.208 440.318 695.447C450.816 662.954 458.398 629.59 462.975 595.752C467.496 561.273 471.861 527.34 484.046 494.576C509.872 425.099 558.589 367.262 605.746 311.218C607.331 309.295 604.603 306.541 602.992 308.464H602.914Z" fill="#1E0E62"/>
<path d="M545 1178.77C492.672 1073.1 475.498 955.323 491.425 838.895C499.583 779.317 509.976 720 519.382 660.604C528.397 603.702 536.478 546.515 547.208 489.899C558.952 427.905 575.789 366.456 607.669 311.581C607.931 311.133 608.004 310.6 607.872 310.098C607.741 309.596 607.415 309.167 606.967 308.905C606.519 308.643 605.986 308.57 605.484 308.702C604.982 308.833 604.553 309.159 604.291 309.607C546.403 408.834 536.4 528.509 518.758 639.766C508.807 702.513 498.206 765.209 489.061 828.087C480.824 884.78 478.668 941.552 486.073 998.505C494.432 1061.9 513.21 1123.48 541.648 1180.75C542.74 1182.98 546.117 1181.03 545 1178.77Z" fill="#1E0E62"/>
<path d="M493.088 1035.51C529.826 1051.9 565.838 1062.48 606.5 1058.47C647.785 1054.4 688.421 1042.18 727.446 1028.65C809.186 1000.27 887.392 961.456 972.067 941.996C1023.04 930.277 1075.63 926.042 1127.31 935.708C1129.75 936.176 1130.79 932.408 1128.35 931.94C956.868 899.878 807.055 1013.11 646.018 1048C621.465 1053.2 596.055 1057.33 570.852 1055.05C544.195 1052.6 519.304 1042.96 495.063 1032.15C492.802 1031.14 490.801 1034.49 493.088 1035.51V1035.51Z" fill="#1E0E62"/>
<path d="M726.329 281.754C748.31 400.676 856.863 472.024 945.358 541.319C1040.17 615.577 1134.25 696.356 1193.04 803.352C1225.57 862.566 1246.1 928.068 1246.98 996.012C1246.98 996.529 1247.19 997.025 1247.55 997.39C1247.92 997.755 1248.42 997.961 1248.93 997.961C1249.45 997.961 1249.94 997.755 1250.31 997.39C1250.68 997.025 1250.88 996.529 1250.88 996.012C1249.37 880.754 1192.29 775.161 1117.1 690.692C1076.91 645.613 1031.36 605.548 984.591 567.561C936.186 528.328 884.898 492.342 838.364 450.848C787.387 405.353 742.828 349.517 730.122 280.715C729.655 278.247 725.913 279.286 726.355 281.754H726.329Z" fill="#1E0E62"/>
<path d="M746.465 328.34C776.11 431.334 854.654 508.424 919.09 590.503C958.998 641.35 996.438 694.121 1034.5 746.398C1070.57 795.764 1111.93 845.131 1127.05 905.618C1135.26 938.486 1136.82 972.549 1137.99 1006.27C1139.27 1042.96 1140.49 1079.66 1141.65 1116.36C1141.65 1118.96 1145.65 1118.96 1145.55 1116.36C1143.52 1055.41 1145.34 992.789 1136.25 932.354C1127.34 872.88 1097.12 825.67 1062.33 777.94C1024.47 725.975 986.981 673.803 948.397 622.461C914.829 577.849 878.402 535.654 843.664 491.951C804.119 442.273 767.952 389.035 750.128 327.405C749.958 326.947 749.622 326.57 749.188 326.349C748.753 326.127 748.251 326.076 747.781 326.207C747.31 326.337 746.906 326.64 746.648 327.054C746.39 327.468 746.297 327.964 746.387 328.444L746.465 328.34Z" fill="#1E0E62"/>
<path d="M1148.3 1122.08C1192.98 1093.04 1228.36 1051.77 1250.23 1003.18C1251.27 1000.92 1247.89 998.948 1246.88 1001.23C1225.31 1049.22 1190.4 1090 1146.3 1118.7C1144.2 1120.08 1146.15 1123.46 1148.28 1122.08H1148.3Z" fill="#1E0E62"/>
<path d="M701.23 972.055L659.997 1014.74C691.833 1122.59 711.121 1175.74 717.859 1174.2C724.198 1172.74 719.478 1123.13 703.698 1025.37L732.045 997.05L701.23 972.055Z" fill="#1E0E62"/>
<path d="M774.292 538.979C780.839 552.36 789.647 570.964 799.365 593.543C817.585 635.473 833.331 678.435 846.522 722.208C852.29 741.669 859.279 767.339 865.957 797.921C858.63 812.124 851.104 826.398 843.378 840.74C806.224 909.827 767.537 974.731 728.174 1035.61C713.818 1017.21 704.529 995.368 701.23 972.263C700.196 964.436 699.883 956.53 700.295 948.645C706.219 930.908 712.186 913.11 718.197 895.251C731.395 856.104 744.707 817.252 758.131 778.694C746.56 754.236 735.042 729.587 723.575 704.748C701.698 657.425 680.479 610.483 659.919 563.923L774.292 538.979Z" fill="white"/>
<path opacity="0.14" d="M703.075 590.686C713.693 612.545 724.484 634.492 735.449 656.525C756.234 698.253 777.107 739.271 798.065 779.578C794.445 789.971 790.842 800.364 787.257 810.757C763.111 881.377 740.411 951.391 719.158 1020.8L694.449 957.558C712.925 919.616 728.481 880.32 740.983 840.013C747.452 819.045 752.779 798.831 757.17 779.578C746.517 755.432 735.717 731.181 724.77 706.827C710.913 676.22 697.056 645.907 683.199 615.889L703.075 590.686Z" fill="#9E9E9E"/>
<path d="M780.372 554.57C813.908 628.925 841.467 705.834 862.787 784.567C862.924 785.066 863.255 785.491 863.706 785.747C864.156 786.002 864.69 786.069 865.19 785.931C865.69 785.793 866.114 785.462 866.37 785.012C866.626 784.561 866.692 784.027 866.554 783.527C845.111 704.479 817.422 627.259 783.749 552.595C782.71 550.309 779.358 552.31 780.372 554.57V554.57Z" fill="#1E0E62"/>
<path d="M694.371 657.122C718.503 696.368 739.067 737.698 755.818 780.616C756.728 782.929 760.495 781.916 759.586 779.577C742.724 736.365 722.029 694.748 697.749 655.225C696.423 653.069 693.046 655.043 694.371 657.174V657.122Z" fill="#1E0E62"/>
<path d="M752.882 780.746C738.798 837.727 720.562 893.6 698.32 947.917C697.385 950.256 701.152 951.243 702.087 948.957C724.329 894.639 742.565 838.766 756.65 781.786C757.247 779.343 753.48 778.304 752.882 780.746V780.746Z" fill="#1E0E62"/>
<path d="M864.268 796.777C823.043 876.076 779.35 953.98 733.188 1030.49C733.059 1030.71 732.974 1030.96 732.939 1031.21C732.904 1031.47 732.92 1031.72 732.985 1031.97C733.116 1032.47 733.442 1032.9 733.89 1033.17C734.338 1033.43 734.871 1033.5 735.373 1033.37C735.875 1033.24 736.304 1032.91 736.566 1032.46C782.658 955.937 826.334 878.033 867.594 798.752C868.737 796.517 865.385 794.543 864.216 796.777H864.268Z" fill="#1E0E62"/>
<path d="M696.554 953.062C699.356 982.915 709.651 1011.58 726.485 1036.39C727.888 1038.44 731.266 1036.39 729.837 1034.41C713.353 1010.2 703.246 982.22 700.451 953.062C700.217 950.594 696.32 950.464 696.554 953.062Z" fill="#1E0E62"/>
<path d="M683.562 1094.12L689.018 1142.03C688.083 1155.02 687.199 1174.02 687.771 1196.96C688.914 1244.04 696.215 1306.24 705.153 1306.4C711.701 1306.4 717.677 1275.63 723.886 1243.49C728.188 1221.22 731.258 1198.73 733.084 1176.12L726.459 1150.76L724.64 1095.34C724.276 1094.25 720.457 1083.75 710.246 1080.87C700.424 1078.09 689.018 1083.39 683.562 1094.12Z" fill="#1E0E62"/>
<path d="M606.448 569.873C606.214 583.436 606.032 602.169 606.214 624.436C606.214 624.436 606.759 692.458 611.41 760.402C615.775 824.241 629.598 945.969 661.244 1101.79C670.155 1108.48 680.171 1113.57 690.837 1116.8C724.874 1127.01 754.493 1114.52 763.873 1110.07C752.18 1069.63 742.905 1028.52 736.098 986.969C729.265 945.397 724.484 900.525 722.224 830.892C719.342 737.764 721.858 644.548 729.758 551.711L606.448 569.873Z" fill="white"/>
<path opacity="0.14" d="M622.894 579.824C622.712 602.429 623.102 625.553 624.219 649.12C632.637 830.997 679.275 989.49 735.786 1119.12C727.834 1120.47 719.743 1120.84 711.701 1120.21C693.553 1118.65 676.142 1112.32 661.243 1101.84C649.993 1048.96 639.886 993.127 631.52 934.459C614.302 813.702 605.922 691.85 606.447 569.873L622.894 579.824Z" fill="#9E9E9E"/>
<path d="M604.499 569.873C601.789 748.907 620.199 927.636 659.347 1102.36C659.892 1104.8 663.66 1103.76 663.114 1101.32C624.062 926.936 605.721 748.554 608.474 569.873C608.474 569.357 608.269 568.861 607.903 568.496C607.538 568.13 607.042 567.925 606.525 567.925C606.009 567.925 605.513 568.13 605.148 568.496C604.782 568.861 604.577 569.357 604.577 569.873H604.499Z" fill="#1E0E62"/>
<path d="M723.237 596.842C715.183 767.963 711.935 945.007 761.976 1110.65C762.704 1113.04 766.471 1112.02 765.744 1109.61C715.806 944.306 719.08 767.625 727.134 596.842C727.264 594.244 723.367 594.244 723.237 596.842Z" fill="#1E0E62"/>
<path d="M661.322 1105.16C675.924 1116.67 693.591 1120.13 711.701 1122.16C728.018 1124 744.672 1124.37 757.819 1113.27C759.742 1111.63 756.988 1108.91 755.065 1110.49C742.853 1120.88 726.667 1119.97 711.701 1118.29C694.735 1116.36 677.924 1113.27 664.076 1102.44C662.127 1100.9 659.347 1103.63 661.322 1105.19V1105.16Z" fill="#1E0E62"/>
<path d="M585.272 307.372C602.561 297.928 620.865 290.475 639.835 285.157C674.31 275.565 710.372 273.064 745.841 277.804C757.033 304.326 763.403 332.631 764.652 361.39C765.874 393.218 759.846 408.34 759.066 434.712C758.287 461.552 762.99 499.668 788.374 546.879C769.621 557.735 749.591 566.218 728.745 572.133C688.895 583.307 646.997 585.086 606.344 577.33C618.789 527.963 615.1 491.406 609.513 467.138C603.667 441.806 595.847 430.451 589.299 401.455C582.417 370.577 581.054 338.725 585.272 307.372V307.372Z" fill="#EC615B"/>
<path d="M619.984 445.99C619.621 460.938 619.248 475.887 618.867 490.835C608.779 494.936 600.682 502.801 596.289 512.765C595.171 515.363 587.611 533.888 598.601 545.814C606.734 554.622 619.387 553.609 621.413 553.609C621.206 570.238 628.221 577.513 630.429 579.592C638.536 587.074 651.89 588.737 657.087 589.361C666.232 590.504 670.753 589.127 674.988 592.998C677.95 595.597 678.912 599.312 680.678 606.431C682.03 611.749 682.84 617.19 683.095 622.67L649.318 632.024L650.825 663.463C661.339 667.068 672.239 669.431 683.303 670.504C707.123 672.676 731.114 669.038 753.22 659.903L748.544 628.335C744.14 623.767 738.414 620.696 732.173 619.554C725.932 618.412 719.489 619.256 713.754 621.969L717.079 588.919C728.713 588.574 740.036 585.081 749.843 578.812C755.496 575.689 760.077 570.936 762.99 565.171C765.528 559.31 766.111 552.787 764.652 546.568C771.824 545.918 778.526 542.719 783.541 537.552C794.324 525.652 792.141 504.606 780.943 492.55C770.55 481.482 755.922 481.482 752.909 481.56L751.376 433.83C746.157 431.134 740.66 429.017 734.981 427.516C719.937 423.515 713.26 426.451 677.82 430.114C655.346 432.505 646.512 432.557 633.001 438.637C628.469 440.728 624.115 443.187 619.984 445.99V445.99Z" fill="white"/>
<path opacity="0.19" d="M739.71 428.555C744.647 433.492 749.921 440.117 748.102 445.158C742.776 459.916 685.381 437.363 661.4 463.086C646.85 478.675 650.565 505.879 653.19 525.132C655.034 538.643 657.035 553.323 668.779 566.236C678.764 576.626 692.04 583.236 706.349 584.943L699.646 633.219C691.643 641.013 690.396 644.209 691.201 645.482C694.683 650.991 736.904 622.514 750.544 634.44C756.312 639.48 755.325 650.315 753.143 659.825C720.647 673.731 684.13 675 650.747 663.384L651.735 629.399L682.913 621.604C683.822 602.793 679.328 595.778 674.807 593.024C671.377 590.893 668.883 591.777 652.93 588.867C648.431 588.171 643.992 587.128 639.653 585.749C634.586 583.67 625.856 577.512 620.972 555.011C618.244 554.544 603.85 551.816 597.848 540.383C590.651 526.665 597.848 504.554 618.633 492.602C618.408 475.99 618.183 459.405 617.958 442.845C656.851 428.715 698.491 423.797 739.606 428.477L739.71 428.555Z" fill="#9E9E9E"/>
<path d="M634.586 443.002C624.193 449.705 629.727 458.591 640.276 460.358C663.14 464.411 688.057 461.268 710.428 455.993C712.87 455.421 711.831 451.68 709.388 452.252C696.649 455.334 683.64 457.17 670.545 457.734C665.557 457.916 660.594 457.89 655.605 457.734C652.306 457.604 648.98 457.37 645.68 457.084C637.47 458.643 634.413 455.075 636.509 446.38C638.587 445.029 636.638 441.651 634.534 443.028L634.586 443.002Z" fill="#1E0E62"/>
<path d="M683.822 431.492C699.204 430.088 715.339 427.204 730.772 428.893C733.5 429.205 744.984 430.452 745.738 432.869L741.243 444.197C739.221 445.624 737.019 446.777 734.695 447.627C725.524 451.732 715.495 452.641 705.595 453.499C702.997 453.732 702.997 457.63 705.595 457.396C717.911 456.305 730.772 455.161 741.581 448.562C745.998 445.964 754.572 439.988 751.973 433.466C749.375 426.945 736.384 425.49 730.98 424.892C715.391 423.177 699.178 426.113 683.744 427.49C681.276 427.724 681.146 431.621 683.744 431.388L683.822 431.492Z" fill="#1E0E62"/>
<path d="M622.401 500.474C610.683 499.929 603.512 516.713 603.434 526.457C603.293 532.168 605.312 537.722 609.089 542.009C612.865 546.296 618.12 549 623.804 549.581C626.402 549.841 626.402 545.944 623.804 545.684C619.15 545.121 614.877 542.834 611.828 539.274C608.778 535.715 607.174 531.141 607.331 526.457C607.331 519.364 613.021 503.852 622.401 504.294C624.999 504.294 624.999 500.5 622.401 500.396V500.474Z" fill="#1E0E62"/>
<path d="M618.217 490.782C601.771 495.433 589.325 513.777 590.806 530.795C592.209 547.112 605.694 558.389 621.985 555.427C624.453 554.985 623.414 551.218 620.946 551.659C602.446 555.037 591.508 536.823 595.587 520.48C598.419 509.022 607.825 497.772 619.309 494.498C619.808 494.36 620.233 494.03 620.488 493.579C620.744 493.128 620.811 492.594 620.673 492.095C620.535 491.595 620.204 491.171 619.754 490.915C619.303 490.659 618.769 490.593 618.269 490.731L618.217 490.782Z" fill="#1E0E62"/>
<path d="M620.816 490.835C619.394 476.334 619.717 461.714 621.777 447.289C622.141 444.69 618.373 443.755 618.036 446.249C615.859 461.011 615.484 475.983 616.918 490.835C617.152 493.434 621.05 493.434 620.816 490.835Z" fill="#1E0E62"/>
<path d="M749.531 433.831C750.7 449.706 751.167 465.555 750.934 481.482C750.934 481.999 751.139 482.495 751.504 482.86C751.87 483.226 752.365 483.431 752.882 483.431C753.399 483.431 753.895 483.226 754.26 482.86C754.626 482.495 754.831 481.999 754.831 481.482C755.065 465.555 754.597 449.706 753.428 433.831C753.246 431.232 749.349 431.232 749.531 433.831Z" fill="#1E0E62"/>
<path d="M752.337 484.157C767.537 484.625 779.618 491.822 783.516 507.152C787.205 521.91 784.139 544.54 764.705 544.54C764.188 544.54 763.692 544.746 763.327 545.111C762.961 545.477 762.756 545.972 762.756 546.489C762.756 547.006 762.961 547.502 763.327 547.867C763.692 548.232 764.188 548.438 764.705 548.438C784.971 548.438 790.505 527.47 788.088 510.711C785.308 491.588 771.46 480.857 752.415 480.26C751.898 480.26 751.402 480.465 751.037 480.831C750.672 481.196 750.466 481.692 750.466 482.208C750.466 482.725 750.672 483.221 751.037 483.586C751.402 483.952 751.898 484.157 752.415 484.157H752.337Z" fill="#1E0E62"/>
<path d="M755.221 496.785C777.254 498.188 779.046 528.873 757.533 533.316C755.091 533.836 756.13 537.577 758.572 537.084C769.771 534.771 778.605 524.352 777.228 512.634C776.438 507.293 773.806 502.396 769.787 498.79C765.769 495.184 760.616 493.096 755.221 492.887C752.623 492.731 752.623 496.629 755.221 496.785V496.785Z" fill="#1E0E62"/>
<path d="M619.309 556.077C624.505 565.483 623.518 577.564 632.819 584.424C641.705 590.945 654.774 590.919 665.219 592.349C667.817 592.66 668.727 588.919 666.258 588.581C656.593 587.282 643.342 587.412 635.288 581.228C627.233 575.044 627.493 563.04 622.686 554.102C621.491 551.894 618.14 553.868 619.309 556.077V556.077Z" fill="#1E0E62"/>
<path d="M763.613 547.451C762.377 550.835 761.633 554.379 761.405 557.974C760.885 565.899 758.131 571.745 751.012 575.876C741.528 581.462 729.499 584.035 719.106 587.49C716.741 588.296 717.755 592.063 720.145 591.258C732.175 587.231 747.79 584.424 757.767 575.98C767.017 568.185 763.535 558.91 767.277 548.491C768.134 546.126 764.367 545.113 763.509 547.451H763.613Z" fill="#1E0E62"/>
<path d="M665.972 590.946C668.571 592.505 672.962 593.544 675.04 595.519C677.181 598.127 678.437 601.348 678.626 604.717C679.613 611.212 680.133 617.708 680.86 624.36C681.12 626.828 685.017 626.958 684.757 624.36C683.848 616.175 683.874 607.107 681.458 599.209C679.197 591.778 674.183 591.076 668.051 587.516C667.603 587.255 667.069 587.181 666.568 587.313C666.066 587.445 665.637 587.77 665.375 588.218C665.113 588.666 665.04 589.199 665.171 589.701C665.303 590.203 665.628 590.632 666.076 590.894L665.972 590.946Z" fill="#1E0E62"/>
<path d="M715.209 588.348C711.665 599.445 710.775 611.219 712.61 622.722C713 625.321 716.742 624.151 716.378 621.709C714.708 610.88 715.598 599.81 718.976 589.387C719.756 586.996 715.988 585.957 715.235 588.348H715.209Z" fill="#1E0E62"/>
<path d="M681.977 626.152C687.174 638.494 709.804 638.13 716.664 627.685C718.041 625.581 714.663 623.632 713.286 625.711C707.934 633.895 689.278 633.506 685.329 624.178C684.368 621.891 680.99 623.866 681.977 626.152Z" fill="#1E0E62"/>
<path d="M682.575 620.721C676.105 621.813 669.584 622.826 663.14 623.969C658.775 624.749 652.462 625.45 649.188 628.958C646.434 631.894 647.032 635.505 647.11 639.351C647.317 647.379 647.941 655.382 648.876 663.385C649.162 665.853 653.059 665.983 652.774 663.385C651.838 655.46 646.928 634.492 654.826 630.205C662.725 625.918 674.806 625.944 683.614 624.463C686.083 624.073 685.017 620.306 682.575 620.721V620.721Z" fill="#1E0E62"/>
<path d="M653.787 667.49C668.259 673.83 687.434 673.31 702.919 672.947C719.3 672.972 735.41 668.766 749.687 660.735C749.909 660.605 750.103 660.433 750.258 660.229C750.413 660.024 750.527 659.791 750.592 659.542C750.657 659.294 750.673 659.035 750.638 658.78C750.603 658.526 750.518 658.281 750.388 658.059C750.259 657.837 750.087 657.643 749.882 657.488C749.677 657.332 749.444 657.219 749.196 657.154C748.947 657.089 748.688 657.073 748.434 657.108C748.179 657.143 747.934 657.228 747.712 657.357C734.038 665.095 718.579 669.125 702.867 669.049C688.369 669.387 669.091 669.985 655.71 664.113C653.423 663.125 651.449 666.477 653.735 667.49H653.787Z" fill="#1E0E62"/>
<path d="M716.975 622.878C725.471 622.878 741.268 622.307 746.361 629.919C751.453 637.532 751.116 650.498 751.271 659.825C751.271 660.342 751.477 660.838 751.842 661.203C752.208 661.569 752.703 661.774 753.22 661.774C753.737 661.774 754.233 661.569 754.598 661.203C754.963 660.838 755.169 660.342 755.169 659.825C755.083 653.031 754.527 646.251 753.506 639.533C752.804 634.986 752.363 629.582 749.193 625.97C742.619 618.539 725.965 618.877 716.975 618.981C716.458 618.981 715.963 619.186 715.597 619.552C715.232 619.917 715.027 620.413 715.027 620.93C715.027 621.446 715.232 621.942 715.597 622.308C715.963 622.673 716.458 622.878 716.975 622.878V622.878Z" fill="#1E0E62"/>
<path d="M621.673 446.978C625.337 439.651 639.029 437.65 646.174 436.039C654.271 434.283 662.502 433.222 670.779 432.869C673.378 432.869 673.378 428.842 670.779 428.972C659.734 429.489 648.78 431.231 638.12 434.168C630.845 436.195 621.933 437.858 618.296 445.133C617.178 447.367 620.53 449.342 621.673 447.108V446.978Z" fill="#1E0E62"/>
<path d="M658.75 497.539V528.718C658.75 529.234 658.955 529.73 659.32 530.095C659.686 530.461 660.181 530.666 660.698 530.666C661.215 530.666 661.711 530.461 662.076 530.095C662.442 529.73 662.647 529.234 662.647 528.718V497.539C662.647 497.022 662.442 496.526 662.076 496.161C661.711 495.795 661.215 495.59 660.698 495.59C660.181 495.59 659.686 495.795 659.32 496.161C658.955 496.526 658.75 497.022 658.75 497.539V497.539Z" fill="#1E0E62"/>
<path d="M674.884 497.539L673.429 526.665C673.429 529.263 677.223 529.263 677.326 526.665L678.677 497.539C678.677 494.94 674.884 494.94 674.78 497.539H674.884Z" fill="#1E0E62"/>
<path d="M652.15 509.984L682.289 507.074C684.757 506.841 684.887 502.943 682.289 503.177L652.15 506.087C649.681 506.321 649.552 510.218 652.15 509.984Z" fill="#1E0E62"/>
<path d="M654.8 522.378L681.64 517.181C684.082 516.714 683.043 512.972 680.6 513.44L653.761 518.636C651.293 519.104 652.358 522.871 654.8 522.404V522.378Z" fill="#1E0E62"/>
<path d="M702.971 511.856C707.109 507.256 710.605 502.117 713.364 496.578L709.804 495.071C706.864 507.969 705.572 521.187 705.959 534.409C705.959 537.007 709.934 537.007 709.856 534.409C709.465 521.537 710.713 508.667 713.572 496.111C714.039 494.058 710.974 492.551 710.012 494.604C707.425 499.862 704.129 504.74 700.217 509.102C698.554 510.947 701.308 513.727 702.997 511.856H702.971Z" fill="#1E0E62"/>
<path d="M585.22 312.934C577.934 323.131 571.228 333.731 565.136 344.684C560.616 352.817 539.154 392.102 526.761 451.056C524.604 461.319 523.227 469.738 522.422 475.012C527.703 497.954 541.819 517.887 561.707 530.485C567.499 534.113 573.7 537.043 580.18 539.215C583.57 542.843 587.382 546.053 591.534 548.776C600.186 554.441 610.787 558.234 611.722 556.571C612.242 555.714 610.085 552.7 596.133 542.359C607.929 546.75 617.542 546.62 619.049 543.424C620.556 540.228 614.788 533.031 604.655 526.691C615.801 528.874 621.673 529.108 622.323 527.393C623.206 525.002 614 518.836 594.704 508.893C594.99 502.554 592.106 498.266 589.715 498.214C587.325 498.163 584.805 501.644 584.025 506.763L561.941 469.01C568.852 455.655 576.698 441.599 585.636 427.126C597.432 408.029 609.436 390.907 621.05 375.733C622.711 360.343 618.651 344.88 609.644 332.291C603.322 323.827 594.904 317.155 585.22 312.934V312.934Z" fill="white"/>
<path opacity="0.14" d="M585.22 312.934C578.699 329.147 570.28 350.608 560.901 376.097C538.348 437.338 535.231 453.888 539.803 472.752C543.415 487.666 553.756 512.037 570.436 514.947C581.842 516.948 591.664 508.114 596.289 512.869C600.913 517.623 593.301 526.847 596.289 542.541C597.278 547.588 599.143 552.425 601.797 556.831C596.413 550.147 589.831 544.526 582.388 540.254C575.347 536.253 571.735 535.915 565.058 532.459C555.566 527.475 547.261 520.5 540.713 512.011C530.855 500.026 524.235 485.712 521.486 470.439C533.181 414.561 554.765 361.221 585.22 312.934V312.934Z" fill="#9E9E9E"/>
<path d="M583.557 311.842C550.352 356.843 535.361 410.991 521.2 464.255C521.11 464.735 521.204 465.231 521.462 465.645C521.72 466.059 522.124 466.361 522.594 466.492C523.064 466.622 523.566 466.572 524.001 466.35C524.436 466.128 524.772 465.752 524.942 465.294C539.05 412.316 553.912 358.558 586.909 313.816C588.39 311.79 585.012 309.841 583.557 311.842V311.842Z" fill="#1E0E62"/>
<path d="M605.019 395.895C587.55 419.214 572.563 444.293 560.304 470.724C559.238 472.985 562.616 474.96 563.655 472.699C575.962 446.27 590.982 421.192 608.474 397.87C609.981 395.869 606.604 393.92 605.123 395.895H605.019Z" fill="#1E0E62"/>
<path d="M556.068 473.374C562.122 466.125 570.722 486.963 572.359 490.029L582.752 509.542C583.947 511.75 587.299 509.776 586.13 507.567L576.36 489.38C573.74 483.547 570.655 477.934 567.137 472.595C563.655 468.1 557.523 465.554 553.262 470.646C551.652 472.543 554.406 475.323 556.017 473.4L556.068 473.374Z" fill="#1E0E62"/>
<path d="M519.668 470.958C522.621 486.907 529.733 501.794 540.286 514.112C550.838 526.431 564.457 535.744 579.764 541.11C582.128 541.942 583.142 538.174 580.803 537.343C566.138 532.134 553.109 523.143 543.035 511.28C532.961 499.418 526.199 485.104 523.435 469.788C522.967 467.32 519.226 468.359 519.668 470.828V470.958Z" fill="#1E0E62"/>
<path d="M586.389 510.737C586.545 508.425 586.597 505.281 588.468 503.566C589.663 502.449 591.924 502.241 592.651 503.93C593.638 506.216 596.99 504.242 596.029 501.955C595.608 501.215 595.042 500.568 594.365 500.052C593.688 499.537 592.913 499.163 592.088 498.954C591.263 498.746 590.404 498.706 589.563 498.838C588.722 498.969 587.917 499.27 587.195 499.721C583.298 501.877 582.752 506.762 582.492 510.737C582.336 513.336 586.234 513.336 586.389 510.737V510.737Z" fill="#1E0E62"/>
<path d="M594.34 509.256C599.536 520.221 614.554 518.792 620.868 528.457C622.245 530.536 625.622 528.587 624.245 526.482C617.88 516.791 602.732 517.7 597.692 507.307C596.6 505.047 593.249 507.022 594.34 509.256V509.256Z" fill="#1E0E62"/>
<path d="M580.595 540.67C582.57 547.166 589.715 549.089 594.158 553.661C596.341 556.219 599.242 558.062 602.485 558.952C605.728 559.841 609.163 559.736 612.345 558.65C614.71 557.871 613.697 554.103 611.306 554.883C603.512 557.481 599.822 552.986 594.392 548.517C591.04 545.737 585.74 544.282 584.363 539.735C583.635 537.344 579.868 538.358 580.595 540.774V540.67Z" fill="#1E0E62"/>
<path d="M597.068 544.177C601.444 548.84 606.519 552.794 612.112 555.895C614.294 557.09 616.269 553.738 614.086 552.517C608.772 549.591 603.957 545.837 599.822 541.397C598.107 539.578 595.353 542.332 597.068 544.177V544.177Z" fill="#1E0E62"/>
<path d="M596.497 541.839C599.674 544.704 603.635 546.553 607.871 547.151C612.107 547.748 616.425 547.065 620.27 545.191C622.557 544.126 620.556 540.748 618.322 541.839C615.224 543.306 611.763 543.826 608.371 543.336C604.979 542.847 601.807 541.368 599.251 539.085C597.38 537.422 594.626 540.176 596.497 541.839Z" fill="#1E0E62"/>
<path d="M604.187 529.731C609.688 531.684 614.361 535.45 617.438 540.41C618.763 542.515 622.141 540.566 620.79 538.435C617.164 532.625 611.665 528.226 605.2 525.964C602.836 525.132 601.823 528.9 604.187 529.731V529.731Z" fill="#1E0E62"/>
<path d="M598.081 534.563C603.505 538.17 609.772 540.309 616.269 540.773C618.867 540.981 618.867 537.083 616.269 536.876C610.465 536.424 604.878 534.472 600.056 531.211C597.951 529.808 596.003 533.186 598.081 534.563V534.563Z" fill="#1E0E62"/>
<path d="M609.929 530.51C611.924 531.258 614.054 531.577 616.18 531.447C618.307 531.317 620.382 530.741 622.271 529.756C624.505 528.639 622.557 525.287 620.296 526.405C618.85 527.119 617.268 527.519 615.656 527.577C614.043 527.635 612.437 527.351 610.943 526.742C608.604 525.859 607.591 529.626 609.929 530.51Z" fill="#1E0E62"/>
<path d="M745.842 277.805C739.25 284.418 735.077 293.058 733.994 302.332C731.682 325.249 751.22 340.111 752.337 340.942L802.067 432.608C794.636 447.106 787.223 461.605 779.826 476.103C778.556 474.947 777.051 474.08 775.414 473.559C773.777 473.039 772.047 472.879 770.343 473.089C768.237 473.446 766.272 474.381 764.667 475.79C763.061 477.198 761.878 479.024 761.249 481.065C761.925 481.325 768.68 483.949 769.563 489.588C769.655 491.103 769.443 492.622 768.939 494.055C768.434 495.487 767.648 496.804 766.627 497.928C759.378 507.412 747.686 505.307 746.465 510.374C745.478 514.583 752.571 519.779 756.624 521.962C760.359 523.774 764.417 524.823 768.562 525.046C772.707 525.269 776.854 524.662 780.762 523.261C773.695 534.641 773.279 537.993 774.292 538.85C776.527 540.877 789.544 534.122 793.883 522.455C797.884 511.699 792.713 501.669 791.544 499.435C796.129 495.055 800.934 490.909 805.938 487.015C808.666 484.885 812.408 482.053 827.192 472.023C842.599 461.631 843.119 461.631 845.509 459.032C848.393 456.044 856.525 447.652 857.798 436.142C858.942 425.905 854.109 417.72 851.589 413.303C827.088 371.134 834.519 370.354 805.704 328.522C790.271 305.944 783.022 298.669 774.526 292.537C765.784 286.172 756.107 281.202 745.842 277.805V277.805Z" fill="white"/>
<path opacity="0.21" d="M755.559 284.871C766.471 296.719 775.175 307.372 781.697 315.816C808.536 350.607 829.036 377.888 829.842 412.809C830.208 422.38 828.808 431.936 825.71 441C824.307 444.871 814.2 472.49 789.959 481.584C781.333 484.806 775.253 484.183 772.759 489.145C769.148 496.498 778.683 504.735 775.357 513.699C773.305 519.389 767.173 522.559 761.639 524.403L780.71 523.26C773.668 534.511 773.201 537.966 774.24 538.85C776.526 540.954 790.115 534.329 793.83 522.455C797.13 511.854 790.946 502.344 789.907 500.785C799.637 490.577 810.733 481.763 822.878 474.595C831.556 469.398 839.299 466.203 847.276 456.979C851.017 452.64 856.733 445.858 857.668 436.193C858.162 430.763 856.967 426.008 852.888 416.42C848.623 406.051 843.404 396.1 837.298 386.696C808.069 344.865 810.095 321.48 780.138 298.798C772.579 293.116 764.318 288.435 755.559 284.871V284.871Z" fill="#9E9E9E"/>
<path d="M745.322 279.701C775.903 288.535 795.104 313.894 810.641 340.162C826.178 366.431 840.131 393.608 852.992 421.28C854.057 423.54 857.409 421.565 856.344 419.305C841.638 387.658 825.841 355.934 806.978 326.599C792.194 303.761 773.201 283.676 746.465 275.934C745.966 275.796 745.432 275.862 744.981 276.118C744.53 276.374 744.2 276.798 744.062 277.298C743.924 277.797 743.991 278.331 744.246 278.782C744.502 279.233 744.927 279.563 745.426 279.701H745.322Z" fill="#1E0E62"/>
<path d="M750.648 341.904C767.5 369.105 782.634 397.334 795.961 426.424C797.001 428.711 800.352 426.736 799.313 424.476C785.998 395.374 770.855 367.144 753.974 339.955C752.675 337.824 749.297 339.773 750.622 341.904H750.648Z" fill="#1E0E62"/>
<path d="M819.839 423.383C810.329 420.421 803.106 426.345 798.741 434.478C791.648 447.677 788.192 462.305 779.644 474.828C778.241 476.907 781.593 478.856 783.022 476.803C787.709 469.602 791.611 461.919 794.662 453.887C798.559 444.273 803.99 422.526 818.799 427.125C821.19 427.878 822.229 424.111 819.839 423.383Z" fill="#1E0E62"/>
<path d="M855.304 430.088C857.279 450.874 839.533 461.891 824.126 471.478C812.553 478.968 801.636 487.425 791.492 496.759C789.596 498.422 792.376 501.176 794.246 499.513C802.591 491.755 811.492 484.617 820.878 478.156C828.283 473.271 836.233 469.114 843.093 463.476C853.485 454.928 860.449 443.885 859.124 430.088C858.89 427.49 854.992 427.49 855.226 430.088H855.304Z" fill="#1E0E62"/>
<path d="M781.489 475.116C780.53 473.755 779.257 472.643 777.779 471.876C776.3 471.109 774.659 470.709 772.993 470.709C771.328 470.709 769.686 471.109 768.208 471.876C766.729 472.643 765.456 473.755 764.497 475.116C763.042 477.169 766.42 479.118 767.849 477.091C768.463 476.298 769.251 475.656 770.152 475.215C771.052 474.773 772.042 474.543 773.045 474.543C774.048 474.543 775.038 474.773 775.939 475.215C776.84 475.656 777.627 476.298 778.242 477.091C779.671 479.118 783.074 477.091 781.593 475.116H781.489Z" fill="#1E0E62"/>
<path d="M766.965 473.53C763.302 473.92 758.547 475.349 758.781 479.974C758.886 480.812 759.194 481.613 759.679 482.306C760.163 482.998 760.809 483.562 761.561 483.949C763.821 485.508 766.16 486.963 768.446 488.444C770.733 489.925 772.499 486.443 770.421 485.092C768.342 483.741 766.264 482.494 764.211 481.039C763.224 480.389 762.236 479.792 763.198 478.571C764.159 477.349 765.796 477.557 766.965 477.427C769.433 477.168 769.563 473.27 766.965 473.53Z" fill="#1E0E62"/>
<path d="M788.634 499.772C791.752 508.372 794.948 517.726 790.089 526.352C788.868 528.535 792.246 530.509 793.467 528.301C798.871 518.713 795.909 508.476 792.376 498.733C791.544 496.394 787.777 497.408 788.634 499.772Z" fill="#1E0E62"/>
<path d="M766.965 487.924C770.603 496.316 759.56 500.525 753.974 503.124C750.934 504.527 744.413 507.333 743.867 511.282C742.516 521.052 765.796 512.711 769.226 511.906C771.668 511.334 770.629 507.567 768.186 508.138C765.043 508.892 751.74 513.673 749.687 511.36C748.206 509.723 754.286 507.255 755.949 506.501C758.287 505.41 760.678 504.475 762.912 503.176C769.2 499.564 773.487 493.12 770.369 485.949C769.382 483.663 766.03 485.638 767.017 487.924H766.965Z" fill="#1E0E62"/>
<path d="M749.765 513.439L749.245 513.829C748.887 514.06 748.609 514.396 748.451 514.792C748.293 515.188 748.262 515.623 748.362 516.037C749.063 519.961 754.312 520.376 757.482 520.844C762.857 521.563 768.323 521.164 773.538 519.675C774.038 519.537 774.462 519.206 774.718 518.756C774.974 518.305 775.04 517.771 774.902 517.272C774.765 516.772 774.434 516.348 773.983 516.092C773.533 515.836 772.999 515.77 772.499 515.907C769.206 516.862 765.794 517.343 762.366 517.336C760.937 517.336 752.519 517.336 751.973 514.998L751.09 517.181L751.61 516.817C753.584 515.336 751.61 511.932 749.635 513.439H749.765Z" fill="#1E0E62"/>
<path d="M752.051 520.792C756.041 524.337 760.993 526.617 766.28 527.343C771.568 528.07 776.951 527.209 781.749 524.872C784.009 523.806 782.035 520.429 779.774 521.52C775.729 523.451 771.206 524.15 766.767 523.531C762.327 522.912 758.168 521.002 754.805 518.038C752.935 516.375 750.155 519.13 752.051 520.792Z" fill="#1E0E62"/>
<path d="M780.216 523.599C776.282 527.698 773.581 532.821 772.422 538.383C772.188 539.5 772.941 540.981 774.292 540.852C777.568 540.547 780.736 539.522 783.57 537.852C786.404 536.181 788.834 533.905 790.687 531.186C792.116 529.107 788.738 527.159 787.309 529.211C785.831 531.368 783.906 533.181 781.664 534.526C779.422 535.871 776.917 536.717 774.318 537.006L776.189 539.474C777.184 534.587 779.545 530.083 782.996 526.483C784.711 524.664 781.957 521.91 780.242 523.729L780.216 523.599Z" fill="#1E0E62"/>
<path d="M623.362 157.038C619.708 160.542 616.583 164.56 614.086 168.964C608.437 179.329 606.2 191.213 607.694 202.923C605.501 203.451 603.435 204.413 601.619 205.752C599.803 207.09 598.273 208.779 597.12 210.718C594.833 214.797 593.066 222.617 597.899 226.619C600.021 228.071 602.553 228.801 605.121 228.703C607.69 228.605 610.159 227.683 612.163 226.073C618.33 240.994 628.334 254.019 641.159 263.826C643.498 272.486 645.819 281.147 648.123 289.808C651.749 291.345 655.62 292.225 659.555 292.406C666.588 292.62 673.52 290.69 679.431 286.872C679.015 278.324 678.625 269.776 678.21 261.227C681.76 258.888 685.06 256.188 688.057 253.173C696.203 244.862 702.027 234.559 704.945 223.293C717.495 220.253 724.406 212.9 723.445 208.587C722.613 204.871 716.014 202.169 708.167 201.702C708.791 198.792 713.935 172.212 696.995 154.933C676.729 133.887 639.652 141.682 623.362 157.038Z" fill="white"/>
<path opacity="0.28" d="M612.657 173.458C612.48 183.342 613.616 193.207 616.035 202.792C618.165 211.236 629.337 255.511 658.645 261.019C663.348 261.902 672.338 262.5 684.627 256.238C680.05 261.734 675.046 266.86 669.662 271.568C665.874 274.875 661.901 277.963 657.762 280.818L659.607 292.25L648.174 289.652L641.393 260.525C637.604 258.884 634.027 256.79 630.74 254.289C621.286 246.694 614.601 236.191 611.722 224.41C610.604 227.008 608.838 229.762 606.317 230.1C600.705 230.853 591.871 219.213 595.613 212.692C598.211 207.963 606.239 208.171 606.785 208.197L612.657 173.458Z" fill="#9E9E9E"/>
<path d="M610.76 172.94C603.985 191.306 604.446 211.561 612.05 229.6C619.653 247.64 633.83 262.113 651.708 270.088C653.969 271.128 655.943 267.75 653.683 266.711C636.547 259.18 622.942 245.377 615.661 228.133C608.38 210.889 607.975 191.512 614.528 173.979C615.359 171.589 611.592 170.575 610.76 172.94V172.94Z" fill="#8C30F5"/>
<path d="M664.44 269.36C706.011 256.577 713.806 210.406 707.882 172.705C707.492 170.107 703.751 171.302 704.14 173.745C709.804 209.237 702.867 253.485 663.4 265.593C661.01 266.32 662.049 270.088 664.44 269.36V269.36Z" fill="#8C30F5"/>
<path d="M608.916 227.034C599.173 234.595 591.196 211.756 601.121 210.821C603.72 210.587 603.72 206.689 601.121 206.923C583.843 208.534 596.263 241.688 611.514 229.788C613.489 228.255 610.709 225.527 608.76 227.034H608.916Z" fill="#8C30F5"/>
<path d="M710.402 202.845C712.434 202.067 714.689 202.109 716.691 202.962C718.693 203.815 720.286 205.413 721.132 207.418C723.133 212.77 717.937 217.811 712.74 217.655C710.142 217.655 710.142 221.448 712.74 221.552C720.041 221.89 726.926 214.953 725.212 207.47C724.776 205.844 724.011 204.325 722.962 203.008C721.913 201.692 720.604 200.606 719.117 199.818C717.629 199.03 715.995 198.558 714.317 198.431C712.639 198.303 710.952 198.523 709.363 199.077C707.05 199.935 708.037 203.728 710.402 202.845V202.845Z" fill="#8C30F5"/>
<path d="M639.289 264.241C640.954 272.282 643.053 280.227 645.577 288.041C646.356 290.405 650.123 289.392 649.344 287.001C646.808 279.191 644.709 271.245 643.056 263.201C642.537 260.759 638.795 261.798 639.289 264.241Z" fill="#8C30F5"/>
<path d="M647.135 291.419C652.135 293.652 657.638 294.521 663.082 293.937C668.527 293.352 673.72 291.336 678.132 288.093C680.133 286.638 678.132 283.261 676.157 284.742C672.344 287.636 667.831 289.466 663.079 290.046C658.328 290.626 653.507 289.934 649.11 288.041C646.824 287.08 644.849 290.432 647.135 291.419V291.419Z" fill="#8C30F5"/>
<path d="M676.417 264.293C676.192 270.789 676.27 277.267 676.651 283.728C676.807 286.327 680.704 286.327 680.548 283.728C680.15 277.267 680.072 270.789 680.315 264.293C680.315 261.695 676.495 261.695 676.417 264.293Z" fill="#8C30F5"/>
<path d="M649.292 167.769C648.859 184.242 649.205 200.697 650.331 217.136C650.343 217.516 650.465 217.884 650.681 218.196C650.897 218.509 651.198 218.753 651.55 218.898C651.901 219.043 652.286 219.084 652.66 219.016C653.034 218.948 653.38 218.773 653.657 218.513C657.003 215.192 659.475 211.095 660.854 206.587C661.633 204.196 657.866 203.183 657.113 205.548C655.914 209.41 653.781 212.918 650.903 215.759L654.229 217.136C653.085 200.68 652.739 184.225 653.189 167.769C653.189 167.252 652.984 166.757 652.619 166.391C652.253 166.026 651.757 165.82 651.241 165.82C650.724 165.82 650.228 166.026 649.863 166.391C649.497 166.757 649.292 167.252 649.292 167.769V167.769Z" fill="#8C30F5"/>
<path d="M648.408 229.373C652.517 229.972 656.708 229.669 660.688 228.485C664.668 227.3 668.342 225.262 671.454 222.513C673.351 220.851 670.597 218.122 668.7 219.759C666.102 222.064 663.037 223.78 659.714 224.789C656.391 225.798 652.888 226.077 649.448 225.605C647.005 225.268 645.94 229.035 648.408 229.373Z" fill="#8C30F5"/>
<path d="M640.328 187.046C639.549 186.108 639.144 184.915 639.192 183.697C639.24 182.478 639.737 181.32 640.588 180.447L637.522 180.057C638.717 182.37 640.406 185.617 637.912 187.644L640.978 188.034C640.356 186.718 639.935 185.317 639.73 183.876C639.315 181.278 635.573 182.447 635.963 184.916C636.25 186.719 636.801 188.47 637.6 190.112C637.754 190.366 637.964 190.582 638.213 190.744C638.462 190.906 638.744 191.009 639.039 191.047C639.334 191.084 639.633 191.054 639.915 190.96C640.196 190.866 640.453 190.709 640.666 190.502C644.667 187.28 642.874 182.006 640.9 178.186C640.746 177.932 640.536 177.717 640.287 177.555C640.038 177.393 639.755 177.29 639.461 177.252C639.166 177.215 638.867 177.244 638.585 177.338C638.303 177.433 638.047 177.589 637.834 177.797C636.367 179.275 635.476 181.227 635.318 183.303C635.161 185.379 635.749 187.443 636.976 189.125C638.483 191.1 641.861 189.125 640.328 187.15V187.046Z" fill="#8C30F5"/>
<path d="M673.195 187.047C672.405 186.111 671.991 184.914 672.034 183.689C672.078 182.465 672.575 181.3 673.429 180.422L670.363 180.032C671.558 182.344 673.247 185.592 670.753 187.619L673.819 188.008C673.197 186.693 672.776 185.292 672.572 183.851C672.156 181.253 668.388 182.422 668.804 184.891C669.091 186.694 669.642 188.445 670.441 190.087C670.595 190.341 670.805 190.557 671.054 190.719C671.303 190.88 671.585 190.984 671.88 191.021C672.175 191.059 672.474 191.029 672.756 190.935C673.037 190.841 673.294 190.684 673.507 190.477C677.508 187.255 675.715 181.981 673.741 178.161C673.58 177.936 673.375 177.748 673.137 177.607C672.899 177.467 672.635 177.378 672.361 177.346C672.087 177.314 671.809 177.34 671.545 177.423C671.282 177.505 671.038 177.641 670.831 177.823C669.364 179.301 668.473 181.253 668.316 183.33C668.158 185.406 668.746 187.47 669.973 189.152C671.48 191.126 674.858 189.152 673.325 187.177L673.195 187.047Z" fill="#8C30F5"/>
<path d="M622.271 199.103C622.788 199.103 623.283 198.898 623.649 198.533C624.014 198.167 624.219 197.672 624.219 197.155C624.219 196.638 624.014 196.142 623.649 195.777C623.283 195.411 622.788 195.206 622.271 195.206C621.754 195.206 621.258 195.411 620.893 195.777C620.527 196.142 620.322 196.638 620.322 197.155C620.322 197.672 620.527 198.167 620.893 198.533C621.258 198.898 621.754 199.103 622.271 199.103Z" fill="#8C30F5"/>
<path d="M636.69 200.766C637.207 200.766 637.703 200.56 638.068 200.195C638.434 199.829 638.639 199.334 638.639 198.817C638.639 198.3 638.434 197.804 638.068 197.439C637.703 197.073 637.207 196.868 636.69 196.868C636.174 196.868 635.678 197.073 635.313 197.439C634.947 197.804 634.742 198.3 634.742 198.817C634.742 199.334 634.947 199.829 635.313 200.195C635.678 200.56 636.174 200.766 636.69 200.766V200.766Z" fill="#8C30F5"/>
<path d="M631.156 211.861C631.673 211.861 632.169 211.656 632.534 211.291C632.9 210.925 633.105 210.429 633.105 209.913C633.105 209.396 632.9 208.9 632.534 208.535C632.169 208.169 631.673 207.964 631.156 207.964C630.64 207.964 630.144 208.169 629.779 208.535C629.413 208.9 629.208 209.396 629.208 209.913C629.208 210.429 629.413 210.925 629.779 211.291C630.144 211.656 630.64 211.861 631.156 211.861Z" fill="#8C30F5"/>
<path d="M671.637 202.43C672.153 202.43 672.649 202.224 673.015 201.859C673.38 201.493 673.585 200.998 673.585 200.481C673.585 199.964 673.38 199.468 673.015 199.103C672.649 198.738 672.153 198.532 671.637 198.532C671.12 198.532 670.624 198.738 670.259 199.103C669.893 199.468 669.688 199.964 669.688 200.481C669.688 200.998 669.893 201.493 670.259 201.859C670.624 202.224 671.12 202.43 671.637 202.43V202.43Z" fill="#8C30F5"/>
<path d="M684.965 195.777C685.482 195.777 685.978 195.572 686.343 195.207C686.709 194.841 686.914 194.345 686.914 193.829C686.914 193.312 686.709 192.816 686.343 192.451C685.978 192.085 685.482 191.88 684.965 191.88C684.448 191.88 683.953 192.085 683.587 192.451C683.222 192.816 683.017 193.312 683.017 193.829C683.017 194.345 683.222 194.841 683.587 195.207C683.953 195.572 684.448 195.777 684.965 195.777Z" fill="#8C30F5"/>
<path d="M681.64 209.651C682.156 209.651 682.652 209.446 683.018 209.081C683.383 208.715 683.588 208.219 683.588 207.703C683.588 207.186 683.383 206.69 683.018 206.325C682.652 205.959 682.156 205.754 681.64 205.754C681.123 205.754 680.627 205.959 680.262 206.325C679.896 206.69 679.691 207.186 679.691 207.703C679.691 208.219 679.896 208.715 680.262 209.081C680.627 209.446 681.123 209.651 681.64 209.651Z" fill="#8C30F5"/>
<path d="M629.26 164.832C630.855 164.297 632.556 164.156 634.216 164.423C635.877 164.69 637.449 165.357 638.795 166.365C640.822 167.846 642.771 164.468 640.77 162.987C638.977 161.703 636.906 160.859 634.725 160.525C632.545 160.191 630.316 160.376 628.221 161.064C625.856 161.844 626.869 165.611 629.26 164.832V164.832Z" fill="#8C30F5"/>
<path d="M667.09 161.117C670.34 158.809 674.327 157.782 678.288 158.233C680.886 158.466 680.756 154.569 678.288 154.335C673.626 153.843 668.945 155.062 665.115 157.765C663.062 159.168 665.115 162.572 667.09 161.117Z" fill="#8C30F5"/>
<path d="M607.045 206.56C606.308 203.43 606.398 200.162 607.305 197.077C608.082 194.625 609.385 192.372 611.124 190.477C614.216 186.918 618.191 175.615 622.556 143.709C627.447 147.586 632.754 150.906 638.379 153.608C648.595 158.399 659.585 161.32 670.831 162.234C676.748 162.893 682.705 163.119 688.655 162.91C690.387 166.599 692.119 170.332 693.851 174.108C698.545 183.774 703.335 192.946 708.219 201.624C710.525 200.436 713.179 200.11 715.704 200.706C718.229 201.301 720.458 202.778 721.99 204.871C722.944 206.692 723.345 208.752 723.141 210.798C722.938 212.843 722.14 214.784 720.847 216.382C719.059 218.527 716.637 220.05 713.929 220.731C711.221 221.413 708.367 221.218 705.777 220.175C702.763 227.52 699.732 234.864 696.683 242.208C688.465 247.096 682.041 254.504 678.366 263.332C670.104 284.586 681.094 312.881 703.153 322.832C721.574 331.146 739.813 323.118 743.243 321.507C750.286 318.868 756.715 314.817 762.135 309.603C767.554 304.389 771.851 298.121 774.759 291.185C775.383 289.626 783.541 268.529 773.434 248.444C767.406 236.44 759.326 233.764 751.09 226.099C723.029 200.117 745.711 165.092 723.497 136.434C701.854 108.529 648.798 100.942 621.881 121.909C615.926 126.678 611.181 132.785 608.032 139.733C603.542 140.602 599.273 142.37 595.483 144.93C574.853 159.35 587.117 188.425 569.631 227.346C559.576 249.665 552.015 247.898 547.936 266.138C547.13 269.698 539.258 307.32 563.057 326.625C587.481 346.424 631.416 335.589 643.602 311.867C648.798 301.734 647.291 291.263 646.2 283.287C641.835 253.511 621.153 235.089 613.411 228.879C612.364 229.9 611.123 230.702 609.763 231.237C608.402 231.772 606.948 232.031 605.486 231.997C600.004 231.581 597.198 226.177 596.289 224.462C595.769 223.449 591.56 215.42 596.289 209.938C599.926 205.677 606.448 206.404 607.045 206.56Z" fill="#8C30F5"/>
</svg>
