<svg width="1342" height="1401" viewBox="0 0 1342 1401" fill="none" xmlns="http://www.w3.org/2000/svg">
<g clip-path="url(#clip0_109:4438)">
<path d="M480.46 251.147C461.545 380.306 356.604 473.479 317.89 595.337C317.111 597.727 320.878 598.766 321.632 596.376C360.371 474.518 465.313 381.423 484.228 252.186C484.591 249.744 480.824 248.679 480.46 251.147V251.147Z" fill="#E8E8E8"/>
<path d="M429.042 495.044C368.789 643.144 267.615 783.449 271.045 949.581C271.045 950.098 271.25 950.594 271.616 950.959C271.981 951.325 272.477 951.53 272.994 951.53C273.51 951.53 274.006 951.325 274.371 950.959C274.737 950.594 274.942 950.098 274.942 949.581C271.513 783.813 372.687 643.69 432.809 496.083C433.745 493.771 429.977 492.758 429.042 495.044V495.044Z" fill="#E8E8E8"/>
<path d="M941.746 449.756C983.993 520.688 1051.26 569.951 1110.63 625.631C1177.04 687.989 1226.02 762.974 1248.34 851.938C1248.4 852.186 1248.52 852.418 1248.67 852.621C1248.83 852.824 1249.02 852.994 1249.25 853.122C1249.47 853.25 1249.71 853.333 1249.97 853.366C1250.22 853.399 1250.48 853.382 1250.73 853.316C1250.97 853.249 1251.2 853.134 1251.41 852.978C1251.61 852.822 1251.78 852.627 1251.91 852.405C1252.04 852.183 1252.12 851.939 1252.15 851.685C1252.19 851.431 1252.17 851.172 1252.1 850.925C1230.82 765.884 1185.15 692.068 1122.4 631.399C1061.26 572.289 989.528 522.065 945.28 447.781C945.003 447.37 944.579 447.08 944.094 446.97C943.61 446.86 943.103 446.94 942.675 447.192C942.247 447.444 941.932 447.849 941.793 448.326C941.655 448.802 941.703 449.314 941.928 449.756H941.746Z" fill="#E8E8E8"/>
<path d="M771.849 86.081C792.038 170.186 860.552 229.452 899.162 304.334C900.305 306.568 903.683 304.593 902.513 302.359C864.112 227.737 795.727 168.705 775.643 84.9897C775.071 82.5473 771.304 83.5607 771.875 86.003L771.849 86.081Z" fill="#E8E8E8"/>
<path d="M572.099 1283.01L488.957 1253.65C475.498 1248.9 462.039 1244.09 448.555 1239.39C440.76 1236.79 433.407 1233.52 426.132 1238.61C425.777 1238.84 425.501 1239.18 425.343 1239.58C425.185 1239.97 425.152 1240.4 425.249 1240.82C432.732 1264.83 451.698 1280.81 470.847 1295.85L472.744 1292.6C460.558 1288.24 432.835 1281.77 423.144 1295.02C414.284 1307.1 436.135 1320.51 444.787 1324.51C447.048 1325.55 449.022 1322.2 446.762 1321.16C438.422 1317.31 415.583 1303.67 434.472 1292.97C443.826 1287.77 462.429 1292.97 471.705 1296.34C473.471 1296.99 475.134 1294.29 473.601 1293.1C461.208 1283.35 448.373 1273.3 439.123 1260.33C433.927 1253.11 422.988 1238.56 441.098 1240.95C449.386 1242.04 458.61 1247.08 466.534 1249.86L571.06 1286.76C573.424 1287.61 574.438 1283.85 572.073 1283.01H572.099Z" fill="#E8E8E8"/>
<path d="M662.491 1300.55C650.669 1299.41 638.848 1298.58 626.974 1298.21C622.661 1298.21 614.113 1296.52 610.917 1300.81C603.876 1310.37 625.337 1321.23 631.702 1323.08C632.202 1323.22 632.736 1323.15 633.187 1322.89C633.637 1322.64 633.968 1322.21 634.106 1321.71C634.244 1321.21 634.177 1320.68 633.922 1320.23C633.666 1319.78 633.241 1319.45 632.742 1319.31C627.154 1317.84 622.053 1314.92 617.958 1310.84C614.736 1307.51 613.645 1304.27 618.971 1301.93C621.362 1300.89 626.376 1302.08 628.87 1302.16C640.069 1302.53 651.267 1303.33 662.413 1304.42C665.011 1304.66 664.882 1300.76 662.413 1300.53L662.491 1300.55Z" fill="#E8E8E8"/>
<path d="M632.56 1342.75C622.531 1339.34 611.965 1337.79 601.381 1338.17C595.379 1338.49 585.428 1338.17 581.245 1343.16C573.45 1352.2 592.209 1360.21 597.666 1363.95L598.653 1360.31C585.001 1361.58 571.428 1363.59 557.991 1366.31C552.925 1367.38 541.181 1367.87 539.804 1374.89C538.816 1379.85 544.039 1382.99 547.598 1385.28C558.783 1392.18 570.866 1397.5 583.506 1401.1C585.922 1401.83 586.935 1398.06 584.545 1397.34C576.672 1394.99 568.992 1392.04 561.577 1388.5C556.38 1386.06 540.791 1380.71 549.313 1372.37C552.431 1369.35 564.902 1369.04 569.189 1368.26C579.011 1366.52 588.91 1365.27 598.835 1364.31C599.255 1364.3 599.66 1364.15 599.989 1363.88C600.318 1363.62 600.555 1363.26 600.665 1362.86C600.775 1362.45 600.753 1362.02 600.601 1361.63C600.45 1361.23 600.177 1360.9 599.822 1360.67C597.458 1359.09 591.69 1356.31 589.949 1354.08C580.544 1341.84 595.873 1342.54 601.563 1342.25C611.831 1341.86 622.084 1343.37 631.806 1346.7C634.196 1347.45 635.21 1343.71 632.845 1342.93L632.56 1342.75Z" fill="#E8E8E8"/>
<path d="M743.243 1289.48C751.505 1284.68 759.82 1280.03 768.29 1275.61C772.161 1273.58 776.89 1269.97 781.073 1269.14L785.386 1267.06C793.302 1270.18 794.826 1273.17 789.959 1276.02C788.244 1277.56 790.453 1280.03 792.323 1279.09C800.118 1275.11 838.26 1257.45 833.895 1276.93C833.349 1279.38 837.116 1280.44 837.662 1277.97L839.689 1268.72C839.81 1268.22 839.734 1267.7 839.478 1267.25C839.222 1266.81 838.804 1266.48 838.312 1266.33C821.163 1261.14 805.548 1268.05 790.271 1275.71L792.635 1278.78C797.156 1274.73 804.769 1262.49 793.752 1260.23C787.932 1259.06 779.332 1265.58 774.733 1267.89C763.327 1273.58 752.181 1279.71 741.165 1286.08C740.753 1286.36 740.463 1286.78 740.353 1287.26C740.244 1287.75 740.323 1288.26 740.575 1288.68C740.827 1289.11 741.232 1289.43 741.709 1289.57C742.186 1289.7 742.697 1289.66 743.139 1289.43L743.243 1289.48Z" fill="#E8E8E8"/>
<path d="M807.159 1321.18C813.439 1317.55 820.164 1314.74 827.165 1312.84C831.279 1311.76 835.477 1311.03 839.715 1310.66C844.547 1309.55 847.665 1312.06 849.068 1318.19C848.91 1318.56 848.865 1318.96 848.939 1319.35C849.013 1319.74 849.202 1320.1 849.483 1320.38C849.763 1320.66 850.121 1320.85 850.511 1320.92C850.9 1321 851.303 1320.95 851.666 1320.79C860.47 1315.27 870.223 1311.43 880.429 1309.46C885.789 1308.46 891.24 1308 896.693 1308.11C899.655 1308.11 917.869 1307.7 908.359 1313.31C907.911 1313.57 907.586 1314 907.454 1314.5C907.323 1315 907.396 1315.54 907.658 1315.99C907.92 1316.43 908.349 1316.76 908.85 1316.89C909.352 1317.02 909.886 1316.95 910.334 1316.69C913.273 1315.1 915.644 1312.64 917.115 1309.65C917.26 1309.39 917.344 1309.1 917.362 1308.8C917.38 1308.51 917.331 1308.21 917.219 1307.94C917.106 1307.66 916.934 1307.42 916.713 1307.22C916.493 1307.02 916.231 1306.87 915.946 1306.79C904.745 1304.11 893.126 1303.67 881.755 1305.5C870.385 1307.33 859.488 1311.39 849.692 1317.44L852.29 1320.04C856.057 1314.43 852.758 1308.92 846.678 1307.05C833.947 1303.02 815.707 1311.75 804.951 1317.73C802.768 1318.95 804.717 1322.33 806.925 1321.1L807.159 1321.18Z" fill="#E8E8E8"/>
<path d="M768.472 1357.22C776.267 1361.04 783.464 1360.99 791.986 1360.18C797.936 1359.61 803.834 1358.86 809.809 1358.57C812.901 1358.44 816.019 1358.36 819.137 1358.36C824.1 1356.88 825.555 1358.67 823.528 1363.79C823.106 1363.8 822.697 1363.94 822.363 1364.2C822.029 1364.46 821.788 1364.82 821.677 1365.23C821.565 1365.64 821.589 1366.07 821.745 1366.46C821.901 1366.85 822.18 1367.18 822.541 1367.4C824.619 1368.81 826.074 1368.52 827.971 1369.77H828.491C833.115 1369.07 834.466 1371.9 832.492 1378.29C832.052 1378.09 831.555 1378.06 831.095 1378.21C830.636 1378.36 830.247 1378.67 830.005 1379.09C829.762 1379.5 829.683 1380 829.783 1380.47C829.882 1380.94 830.153 1381.36 830.543 1381.64C835.74 1384.76 843.015 1383.9 844.47 1376.94C847.068 1364.18 830.387 1367.92 824.515 1363.95L823.528 1367.59C829.218 1367.2 840.027 1362.39 832.596 1355.61C828.828 1352.1 814.226 1354.36 809.809 1354.57C797.026 1355.17 782.58 1359.77 770.447 1353.76C768.212 1352.65 766.238 1356 768.472 1357.12V1357.22Z" fill="#E8E8E8"/>
<path d="M908.541 1267.5C916.289 1269.93 924.649 1269.54 932.133 1266.39C942.967 1262.49 957.595 1251.55 969.053 1256.51C975.991 1259.53 976.536 1264.96 985.63 1263.81C1002.34 1261.68 1015.9 1258.07 1033.02 1260.62L1032.16 1257.37L1024.37 1266.13C1022.73 1268.02 1025.46 1270.78 1027.12 1268.91L1034.92 1260.12C1035.78 1259.16 1035.62 1257.11 1034.06 1256.88C1023.28 1255.12 1012.3 1254.96 1001.48 1256.41C997.919 1256.93 993.996 1258.36 990.411 1258.62C989.096 1259.14 987.671 1259.33 986.265 1259.17C984.859 1259 983.515 1258.49 982.356 1257.68C980.804 1258.06 979.166 1257.84 977.769 1257.07C976.372 1256.29 975.319 1255.02 974.821 1253.5C973.379 1252.56 971.826 1251.8 970.197 1251.24C948.995 1245.78 931.457 1270.96 909.58 1263.71C907.19 1262.9 906.176 1266.67 908.541 1267.45V1267.5Z" fill="#E8E8E8"/>
<path d="M245.505 1273.92C242.005 1271.09 239.126 1267.57 237.048 1263.58C234.969 1259.58 233.735 1255.21 233.423 1250.72L230.487 1252.41C236.837 1255.22 243.007 1258.44 248.96 1262.02C249.324 1262.19 249.732 1262.25 250.13 1262.18C250.527 1262.11 250.893 1261.92 251.178 1261.64C251.463 1261.35 251.653 1260.99 251.721 1260.59C251.789 1260.19 251.732 1259.78 251.558 1259.42C241.789 1243.82 237.24 1225.51 238.567 1207.14L235.242 1208.52L278.242 1244.9C280.139 1246.51 282.919 1243.75 280.996 1242.12L237.996 1205.74C237.719 1205.48 237.373 1205.31 236.999 1205.24C236.625 1205.17 236.239 1205.21 235.888 1205.36C235.537 1205.5 235.236 1205.74 235.019 1206.06C234.803 1206.37 234.682 1206.74 234.67 1207.12C233.377 1226.16 238.133 1245.12 248.259 1261.29L250.857 1258.69C244.901 1255.11 238.732 1251.89 232.384 1249.05C231.189 1248.51 229.292 1249.05 229.448 1250.74C229.772 1255.74 231.111 1260.63 233.385 1265.1C235.659 1269.56 238.819 1273.52 242.673 1276.72C244.569 1278.36 247.349 1275.61 245.427 1273.97L245.505 1273.92Z" fill="#E8E8E8"/>
<path d="M304.328 1238.66C303.583 1238.27 303.01 1237.61 302.717 1236.82C302.425 1236.03 302.434 1235.16 302.743 1234.37C303.268 1233.3 304.15 1232.43 305.239 1231.93C306.329 1231.43 307.558 1231.32 308.719 1231.62C313.214 1232.32 316.176 1236.35 318.696 1239.75C320.177 1241.75 323.581 1239.75 322.074 1237.8C317.865 1232.14 311.317 1224.81 303.393 1228.42C298.014 1230.81 296.663 1239.1 302.353 1242.01C304.588 1243.16 306.562 1239.8 304.328 1238.66Z" fill="#E8E8E8"/>
<path d="M1096.73 1240.17C1104.76 1231.28 1113.02 1222.6 1121.65 1214.19L1126.84 1209.22C1135.5 1206.16 1139.11 1207.6 1137.65 1213.56C1137.44 1213.2 1139.55 1220.97 1139.6 1221.05C1139.86 1221.48 1140.27 1221.8 1140.76 1221.93C1141.24 1222.06 1141.76 1221.99 1142.2 1221.75L1157.27 1210.26C1160.52 1207.79 1164.8 1202.81 1168.54 1201.66C1170.87 1198.84 1173.4 1199.04 1176.16 1202.26C1181.02 1202.99 1182.76 1205.77 1181.35 1210.6C1181.36 1214.21 1181.96 1217.79 1183.12 1221.2C1183.98 1223.54 1187.74 1222.53 1186.86 1220.16C1184.13 1212.84 1187.85 1196.78 1176.73 1194.52C1167.12 1192.57 1145.78 1219.64 1141.42 1213.56C1139.26 1210.57 1142.72 1205.2 1139 1201.66C1136.4 1199.19 1134.59 1199.56 1131.21 1200.47C1126.25 1201.84 1120.56 1209.61 1116.97 1213.1C1108.97 1220.89 1101.38 1229.02 1093.79 1237.31C1092.13 1239.18 1094.86 1241.94 1096.55 1240.06L1096.73 1240.17Z" fill="#E8E8E8"/>
<path d="M117.413 104.605V259.227C117.413 259.743 117.618 260.239 117.984 260.604C118.349 260.97 118.845 261.175 119.361 261.175C119.878 261.175 120.374 260.97 120.739 260.604C121.105 260.239 121.31 259.743 121.31 259.227V104.605C121.31 104.088 121.105 103.592 120.739 103.227C120.374 102.862 119.878 102.656 119.361 102.656C118.845 102.656 118.349 102.862 117.984 103.227C117.618 103.592 117.413 104.088 117.413 104.605Z" fill="#E8E8E8"/>
<path d="M164.648 210.199V347.906C164.648 348.423 164.854 348.918 165.219 349.284C165.585 349.649 166.08 349.854 166.597 349.854C167.114 349.854 167.61 349.649 167.975 349.284C168.34 348.918 168.546 348.423 168.546 347.906V210.199C168.546 209.682 168.34 209.186 167.975 208.821C167.61 208.455 167.114 208.25 166.597 208.25C166.08 208.25 165.585 208.455 165.219 208.821C164.854 209.186 164.648 209.682 164.648 210.199V210.199Z" fill="#E8E8E8"/>
<path d="M986.617 33.6225V250.576C986.617 251.093 986.822 251.589 987.188 251.954C987.553 252.319 988.049 252.525 988.566 252.525C989.083 252.525 989.578 252.319 989.944 251.954C990.309 251.589 990.514 251.093 990.514 250.576V33.6225C990.514 33.1057 990.309 32.61 989.944 32.2446C989.578 31.8791 989.083 31.6738 988.566 31.6738C988.049 31.6738 987.553 31.8791 987.188 32.2446C986.822 32.61 986.617 33.1057 986.617 33.6225V33.6225Z" fill="#E8E8E8"/>
<path d="M1093.4 402.545V506.241C1093.4 506.758 1093.61 507.254 1093.97 507.619C1094.34 507.985 1094.84 508.19 1095.35 508.19C1095.87 508.19 1096.36 507.985 1096.73 507.619C1097.1 507.254 1097.3 506.758 1097.3 506.241V402.545C1097.3 402.029 1097.1 401.533 1096.73 401.167C1096.36 400.802 1095.87 400.597 1095.35 400.597C1094.84 400.597 1094.34 400.802 1093.97 401.167C1093.61 401.533 1093.4 402.029 1093.4 402.545V402.545Z" fill="#E8E8E8"/>
<path d="M1158.77 149.244V285.002C1158.77 285.519 1158.98 286.014 1159.35 286.38C1159.71 286.745 1160.21 286.951 1160.72 286.951C1161.24 286.951 1161.74 286.745 1162.1 286.38C1162.47 286.014 1162.67 285.519 1162.67 285.002V149.244C1162.67 148.727 1162.47 148.231 1162.1 147.866C1161.74 147.5 1161.24 147.295 1160.72 147.295C1160.21 147.295 1159.71 147.5 1159.35 147.866C1158.98 148.231 1158.77 148.727 1158.77 149.244V149.244Z" fill="#E8E8E8"/>
<path d="M1197.98 404.417V528.873C1197.98 529.39 1198.19 529.886 1198.55 530.251C1198.92 530.617 1199.41 530.822 1199.93 530.822C1200.45 530.822 1200.94 530.617 1201.31 530.251C1201.67 529.886 1201.88 529.39 1201.88 528.873V404.417C1201.88 403.901 1201.67 403.405 1201.31 403.039C1200.94 402.674 1200.45 402.469 1199.93 402.469C1199.41 402.469 1198.92 402.674 1198.55 403.039C1198.19 403.405 1197.98 403.901 1197.98 404.417Z" fill="#E8E8E8"/>
<path d="M198.607 626.931V881.559C198.607 882.076 198.812 882.572 199.177 882.937C199.543 883.303 200.039 883.508 200.555 883.508C201.072 883.508 201.568 883.303 201.933 882.937C202.299 882.572 202.504 882.076 202.504 881.559V626.931C202.504 626.414 202.299 625.919 201.933 625.553C201.568 625.188 201.072 624.982 200.555 624.982C200.039 624.982 199.543 625.188 199.177 625.553C198.812 625.919 198.607 626.414 198.607 626.931Z" fill="#E8E8E8"/>
<path d="M228.772 939.941V1058.76C228.772 1059.28 228.978 1059.77 229.343 1060.14C229.708 1060.5 230.204 1060.71 230.721 1060.71C231.238 1060.71 231.733 1060.5 232.099 1060.14C232.464 1059.77 232.67 1059.28 232.67 1058.76V939.941C232.67 939.424 232.464 938.928 232.099 938.563C231.733 938.197 231.238 937.992 230.721 937.992C230.204 937.992 229.708 938.197 229.343 938.563C228.978 938.928 228.772 939.424 228.772 939.941V939.941Z" fill="#E8E8E8"/>
<path d="M321.165 1004.07V1126.63C321.165 1127.14 321.37 1127.64 321.735 1128C322.101 1128.37 322.596 1128.57 323.113 1128.57C323.63 1128.57 324.126 1128.37 324.491 1128C324.857 1127.64 325.062 1127.14 325.062 1126.63V1004.07C325.062 1003.55 324.857 1003.05 324.491 1002.69C324.126 1002.32 323.63 1002.12 323.113 1002.12C322.596 1002.12 322.101 1002.32 321.735 1002.69C321.37 1003.05 321.165 1003.55 321.165 1004.07V1004.07Z" fill="#E8E8E8"/>
<path d="M78.4401 1063.83L91.639 1077.02C92.0084 1077.37 92.497 1077.56 93.0018 1077.55C93.5067 1077.54 93.9883 1077.33 94.3453 1076.98C94.7024 1076.62 94.9069 1076.14 94.9158 1075.63C94.9247 1075.13 94.7373 1074.64 94.3931 1074.27L81.2462 1061.23C79.4794 1059.43 76.7253 1062.19 78.4921 1063.98L78.4401 1063.83Z" fill="#E8E8E8"/>
<path d="M398.409 40.1176V279.156C398.409 279.673 398.615 280.169 398.98 280.534C399.345 280.9 399.841 281.105 400.358 281.105C400.875 281.105 401.37 280.9 401.736 280.534C402.101 280.169 402.306 279.673 402.306 279.156V40.1176C402.306 39.6008 402.101 39.1051 401.736 38.7397C401.37 38.3743 400.875 38.1689 400.358 38.1689C399.841 38.1689 399.345 38.3743 398.98 38.7397C398.615 39.1051 398.409 39.6008 398.409 40.1176V40.1176Z" fill="#E8E8E8"/>
<path d="M304.484 285.028V458.617C304.484 459.133 304.689 459.629 305.054 459.994C305.42 460.36 305.915 460.565 306.432 460.565C306.949 460.565 307.445 460.36 307.81 459.994C308.176 459.629 308.381 459.133 308.381 458.617V285.028C308.381 284.511 308.176 284.015 307.81 283.65C307.445 283.284 306.949 283.079 306.432 283.079C305.915 283.079 305.42 283.284 305.054 283.65C304.689 284.015 304.484 284.511 304.484 285.028Z" fill="#E8E8E8"/>
<path d="M132.353 434.297C139.47 434.297 145.24 428.527 145.24 421.41C145.24 414.292 139.47 408.522 132.353 408.522C125.235 408.522 119.466 414.292 119.466 421.41C119.466 428.527 125.235 434.297 132.353 434.297Z" stroke="#461EB8" stroke-miterlimit="10"/>
<path d="M265.874 85.5601C271.528 85.5601 276.111 80.9768 276.111 75.323C276.111 69.6692 271.528 65.0859 265.874 65.0859C260.221 65.0859 255.637 69.6692 255.637 75.323C255.637 80.9768 260.221 85.5601 265.874 85.5601Z" fill="#461EB8"/>
<path d="M94.6527 894.393C102.818 894.393 109.436 887.774 109.436 879.609C109.436 871.444 102.818 864.825 94.6527 864.825C86.4878 864.825 79.8689 871.444 79.8689 879.609C79.8689 887.774 86.4878 894.393 94.6527 894.393Z" fill="#461EB8"/>
<path d="M963.311 387.814C967.731 387.814 971.314 384.231 971.314 379.811C971.314 375.391 967.731 371.809 963.311 371.809C958.891 371.809 955.309 375.391 955.309 379.811C955.309 384.231 958.891 387.814 963.311 387.814Z" stroke="#461EB8" stroke-miterlimit="10"/>
<path d="M1209.65 19.3829C1215 19.3829 1219.34 15.0439 1219.34 9.69145C1219.34 4.33901 1215 0 1209.65 0C1204.3 0 1199.96 4.33901 1199.96 9.69145C1199.96 15.0439 1204.3 19.3829 1209.65 19.3829Z" fill="#461EB8"/>
<path d="M855.096 1126.63C861.941 1126.63 867.49 1121.08 867.49 1114.23C867.49 1107.39 861.941 1101.84 855.096 1101.84C848.251 1101.84 842.703 1107.39 842.703 1114.23C842.703 1121.08 848.251 1126.63 855.096 1126.63Z" stroke="#461EB8" stroke-miterlimit="10"/>
<path d="M277.696 629.191C284.24 629.191 289.544 623.887 289.544 617.343C289.544 610.8 284.24 605.495 277.696 605.495C271.153 605.495 265.849 610.8 265.849 617.343C265.849 623.887 271.153 629.191 277.696 629.191Z" fill="#EC615B"/>
<path d="M585.74 36.1425C593.044 36.1425 598.965 30.2215 598.965 22.9175C598.965 15.6134 593.044 9.69238 585.74 9.69238C578.436 9.69238 572.515 15.6134 572.515 22.9175C572.515 30.2215 578.436 36.1425 585.74 36.1425Z" fill="#EC615B"/>
<path d="M975.939 1127.07C982.913 1127.07 988.566 1121.41 988.566 1114.44C988.566 1107.47 982.913 1101.81 975.939 1101.81C968.965 1101.81 963.311 1107.47 963.311 1114.44C963.311 1121.41 968.965 1127.07 975.939 1127.07Z" fill="#EC615B"/>
<path d="M1294.22 624.358C1299.43 624.358 1303.65 620.136 1303.65 614.927C1303.65 609.718 1299.43 605.495 1294.22 605.495C1289.01 605.495 1284.79 609.718 1284.79 614.927C1284.79 620.136 1289.01 624.358 1294.22 624.358Z" fill="#EC615B"/>
<path d="M1290.37 303.423C1293.46 303.423 1295.96 300.922 1295.96 297.837C1295.96 294.752 1293.46 292.251 1290.37 292.251C1287.29 292.251 1284.79 294.752 1284.79 297.837C1284.79 300.922 1287.29 303.423 1290.37 303.423Z" fill="#EC615B"/>
<path d="M100.758 15.6413C105.513 20.448 108.059 17.2262 113.334 15.3295C128.117 9.97708 128.429 19.0969 140.095 22.9683C141.952 23.6816 143.97 23.8698 145.927 23.5123C147.884 23.1549 149.705 22.2655 151.19 20.9417C154.385 18.1875 155.632 13.6666 158.75 10.8605C160.777 9.17557 163.131 7.9302 165.665 7.20339C168.198 6.47658 170.854 6.28418 173.466 6.63841C176.077 6.99265 178.587 7.88578 180.835 9.26114C183.083 10.6365 185.021 12.4641 186.525 14.6279C187.928 16.6546 191.306 14.6279 189.877 12.6533C180.731 -0.545806 164.986 0.415541 154.048 10.3149C138.302 24.5273 139.004 14.7319 125.883 9.14565C123.793 8.09109 121.465 7.59859 119.128 7.71661C115.048 8.13233 106.137 15.6672 103.538 12.9131C101.772 11.1463 99.0175 13.9004 100.784 15.6932L100.758 15.6413Z" fill="#EC615B"/>
<path d="M168.26 31.7493L185.668 31.3856C186.624 32.5718 187.714 33.6441 188.916 34.5814C190.449 35.3349 190.475 35.8546 192.189 36.608C194.9 37.8342 197.928 38.1708 200.842 37.5694C211.234 35.9325 230.539 15.6142 239.009 29.5928C239.287 30.0043 239.711 30.2945 240.195 30.4041C240.679 30.5136 241.186 30.4344 241.614 30.1824C242.042 29.9305 242.357 29.5249 242.496 29.0483C242.635 28.5718 242.586 28.0603 242.361 27.6181C234.566 14.7828 219.912 23.9546 210.429 29.307C200.945 34.6594 195.541 32.9705 187.331 27.5921C185.396 26.0263 183.196 24.8206 180.835 24.0325C178.071 23.3851 175.181 23.5052 172.48 24.3798C169.778 25.2544 167.367 26.8503 165.506 28.9952C165.162 29.3646 164.974 29.8532 164.983 30.358C164.992 30.8629 165.197 31.3445 165.554 31.7016C165.911 32.0586 166.392 32.2631 166.897 32.272C167.402 32.2809 167.891 32.0935 168.26 31.7493V31.7493Z" fill="#EC615B"/>
<path d="M983.499 301.915C985.5 295.212 1002.78 308.593 1006.88 308.489C1012.08 308.489 1014.5 304.254 1018.37 301.526C1035.72 289.288 1041.36 314.387 1056.98 306.722C1059.24 305.631 1057.26 302.253 1055 303.37C1046.51 307.528 1038.32 295.004 1030.35 293.185C1023.64 291.678 1020.58 295.238 1015.61 298.746C1012.31 301.058 1006.65 304.124 1002.28 303.033C999.686 302.435 997.556 298.746 995.269 297.42C993.424 296.174 991.317 295.365 989.112 295.056C984.357 294.588 981.083 296.329 979.706 300.85C979.568 301.35 979.635 301.884 979.89 302.334C980.146 302.785 980.571 303.116 981.07 303.254C981.57 303.391 982.104 303.325 982.554 303.069C983.005 302.813 983.336 302.389 983.473 301.889L983.499 301.915Z" fill="#EC615B"/>
<path d="M1016.24 388.593C1016.75 388.593 1017.25 388.387 1017.61 388.022C1017.98 387.656 1018.19 387.161 1018.19 386.644C1018.19 386.127 1017.98 385.632 1017.61 385.266C1017.25 384.901 1016.75 384.695 1016.24 384.695C1015.72 384.695 1015.22 384.901 1014.86 385.266C1014.49 385.632 1014.29 386.127 1014.29 386.644C1014.29 387.161 1014.49 387.656 1014.86 388.022C1015.22 388.387 1015.72 388.593 1016.24 388.593Z" fill="#EC615B"/>
<path d="M1029.15 327.664C1035.46 321.792 1043.47 323.014 1049.65 328.288C1051.34 329.717 1052.25 331.9 1053.96 333.277C1054.91 334.169 1056.02 334.859 1057.24 335.306C1058.46 335.753 1059.76 335.946 1061.06 335.875C1064.56 335.719 1066.88 333.277 1069.89 331.9C1074.55 329.333 1079.88 328.24 1085.17 328.764C1090.46 329.288 1095.47 331.405 1099.54 334.836C1101.48 336.395 1104.24 333.64 1102.29 332.081C1097.58 327.964 1091.72 325.389 1085.51 324.702C1076.23 323.793 1068.49 330.912 1060.35 329.899C1052.92 329.016 1050.25 320.831 1042.17 319.506C1039.33 319.083 1036.44 319.346 1033.72 320.272C1031.01 321.199 1028.56 322.763 1026.58 324.832C1024.73 326.547 1027.49 329.301 1029.33 327.587L1029.15 327.664Z" fill="#EC615B"/>
<path d="M3.68939 1195.48C11.484 1183.42 27.7228 1206.47 36.9984 1207.3C40.6977 1207.48 44.3523 1206.43 47.3912 1204.31C58.9792 1197.74 67.7612 1197.51 79.9727 1204.88C80.4207 1205.15 80.9542 1205.22 81.4561 1205.09C81.958 1204.96 82.3871 1204.63 82.6489 1204.18C82.9108 1203.73 82.9839 1203.2 82.8524 1202.7C82.7208 1202.2 82.3953 1201.77 81.9474 1201.51C75.4519 1197.61 68.2289 1193.22 60.3043 1193.89C56.4794 1194.41 52.8392 1195.85 49.7036 1198.1C40.9217 1203.3 33.8546 1201.87 24.8128 1195.5C17.4599 1190.31 6.96312 1183.16 0.337697 1193.48C-1.01337 1195.58 2.36431 1197.56 3.71537 1195.45L3.68939 1195.48Z" fill="#EC615B"/>
<path d="M69.1381 1177.99C71.5994 1181.31 75.0058 1183.8 78.9101 1185.15C82.8143 1186.49 87.0339 1186.62 91.015 1185.53C92.8867 1184.78 94.7091 1183.91 96.4712 1182.93C102.343 1180.33 105.123 1180.8 110.995 1183.79C115.256 1185.97 118.4 1188.23 123.259 1188.98C125.701 1189.32 126.766 1185.58 124.298 1185.24C116.503 1184.18 110.683 1176.77 102.759 1176.8C100.259 1176.97 97.8322 1177.72 95.6658 1178.98C86.8319 1183.14 78.7774 1184.02 71.8922 1175.37C70.3333 1173.42 67.5792 1176.17 69.1381 1178.12V1177.99Z" fill="#EC615B"/>
<path d="M1214.4 1269.56C1224.79 1262.77 1235.19 1275.74 1245.76 1274.41C1252.83 1273.53 1257.92 1268.46 1263.95 1265.16C1278.71 1256.95 1286.22 1268 1299.91 1269.32C1302.39 1269.73 1304.94 1269.5 1307.31 1268.64C1309.67 1267.78 1311.78 1266.32 1313.42 1264.41C1315.11 1262.57 1312.38 1259.79 1310.67 1261.66C1300.27 1272.93 1286.27 1256.77 1274.89 1257.14C1268.96 1257.32 1264.03 1260.54 1259.3 1263.61C1252.96 1267.63 1247.84 1271.82 1239.53 1270.05C1235.84 1269.27 1232.36 1266.52 1228.82 1265.29C1222.85 1263.19 1218.01 1262.7 1212.64 1266.18C1210.53 1267.55 1212.48 1270.93 1214.58 1269.56H1214.4Z" fill="#EC615B"/>
<path d="M1294.4 1281.79C1306.17 1272.28 1334.98 1302.37 1341.82 1278.99C1341.91 1278.51 1341.81 1278.01 1341.56 1277.6C1341.3 1277.18 1340.89 1276.88 1340.42 1276.75C1339.95 1276.62 1339.45 1276.67 1339.02 1276.89C1338.58 1277.11 1338.25 1277.49 1338.08 1277.95C1336.62 1282.91 1330.28 1284.62 1325.92 1283.87C1322.93 1283.17 1320.05 1282.06 1317.37 1280.57C1313.93 1278.63 1310.29 1277.07 1306.51 1275.92C1303.97 1275.18 1301.28 1275.07 1298.69 1275.62C1296.09 1276.16 1293.68 1277.34 1291.65 1279.04C1289.7 1280.6 1292.48 1283.35 1294.4 1281.79Z" fill="#EC615B"/>
<path d="M871.751 30.945C877.744 26.0083 882.94 25.6272 887.34 29.8018C888.785 30.9626 890.375 31.932 892.069 32.6858C893.876 33.699 895.877 34.3188 897.941 34.5046C903.968 34.9983 907.45 31.1529 912.62 28.9963C927.69 22.7345 933.068 31.3867 946.553 33.5432C949.167 34.1284 951.877 34.1291 954.491 33.5452C957.105 32.9613 959.558 31.8073 961.675 30.1655C963.675 28.7105 961.674 25.3068 959.7 26.8138C946.995 36.1935 933.718 20.9417 920.597 22.1629C917.693 22.4876 914.878 23.3698 912.309 24.7612C907.112 27.3594 907.32 27.5933 899.915 28.0609C890.614 28.6066 892.822 28.0609 886.171 24.2935C879.519 20.526 865.567 20.9417 867.983 32.0882C868.503 34.5306 872.27 33.5173 871.725 31.0489L871.751 30.945Z" fill="#EC615B"/>
<path d="M950.788 41.5725C953.64 46.2552 957.9 49.9155 962.959 52.0297C968.018 54.1438 973.616 54.6034 978.952 53.3425C981.395 52.7709 980.381 49.0034 977.913 49.5751C973.392 50.6539 968.646 50.2718 964.355 48.4838C960.065 46.6958 956.452 43.5939 954.035 39.6238C952.736 37.4932 949.359 39.4419 950.684 41.5725H950.788Z" fill="#EC615B"/>
<path d="M465.183 1025.53C492.631 1040.46 522.563 1050.29 553.522 1054.53C575.458 1057.2 597.631 1057.33 619.595 1054.89C644.523 1052.14 669.033 1046.41 692.604 1037.84C765.588 1012.49 813.005 992.791 856.291 976.864C919.791 953.48 951.542 941.813 993.996 935.422C1041 928.418 1088.83 929.006 1135.65 937.163C1135.26 844.145 1111.7 780.073 1090.62 739.072C1052.27 664.477 993.736 611.031 891.731 517.91C839.221 469.972 792.401 432.609 756.624 359.547C744.42 334.473 734.901 308.18 728.226 281.105L605.876 310.596C561.222 370.748 535.97 443.087 533.49 517.962C529.852 595.701 506.625 765.523 465.183 1025.53Z" fill="#E5E5E5"/>
<path d="M604.291 309.841C584.727 332.03 569.241 351.543 557.939 366.379C535.854 395.401 520.005 416.395 503.637 447.236C492.845 466.614 484.003 487.015 477.239 508.139C470.639 529.185 469.314 541.371 463.183 578.292C457.181 614.251 452.79 640.649 447.905 662.657C440.344 696.746 436.603 697.681 410.153 775.758C383.703 853.836 379.286 877.09 377.26 888.444C372.427 916.063 368.01 942.358 371.804 977.278C374.397 1006.25 382.464 1034.46 395.577 1060.42C410.347 1088.51 430.617 1113.34 455.18 1133.43C481.114 1154.81 511.192 1170.58 543.519 1179.76C528.108 1150.6 515.535 1120.02 505.975 1088.46C496.2 1055.58 489.554 1021.85 486.125 987.723C483.057 955.249 482.553 922.583 484.618 890.029C486.489 858.175 489.684 841.468 502.935 763.339C511.847 710.698 519.278 665.774 522.759 644.287C540.09 537.759 538.089 532.251 545.65 493.199C558.052 430.02 577.73 368.491 604.291 309.841Z" fill="white"/>
<path d="M728.2 281.156C734.409 303.887 742.152 326.17 751.376 347.853C770.038 391.124 794.239 431.789 823.372 468.828C912.88 586.32 957.647 645.066 993.399 686.716C993.399 686.716 1056.51 760.195 1102.76 841.286C1110.36 854.422 1116.82 868.182 1122.09 882.416C1135.94 920.013 1137.31 950.672 1138.64 976.421C1140.69 1016.62 1143.39 1061.57 1147.32 1120.42C1157.55 1113.9 1167.3 1106.64 1176.49 1098.72C1208.49 1070.73 1233.32 1035.5 1248.93 995.959C1248.18 967.252 1244.5 938.696 1237.94 910.737C1234.33 895.485 1217.34 827.204 1154.33 739.409C1101.12 665.255 1044.95 618.824 999.271 581.591C953.594 544.358 928.547 530.354 859.253 471.426C818.513 436.713 796.637 415.538 775.825 385.008C754.303 353.27 738.208 318.174 728.2 281.156V281.156Z" fill="white"/>
<path d="M602.914 308.464C560.355 358.948 516.991 410.627 489.45 471.218C459.259 537.629 461.52 611.523 440.812 680.663C403.398 805.69 324.698 947.165 400.852 1073.86C416.644 1100.17 437.481 1123.11 462.165 1141.34C486.85 1159.58 514.894 1172.76 544.688 1180.12C547.105 1180.72 548.144 1176.95 545.702 1176.38C490.247 1162.71 441.907 1128.8 410.179 1081.31C372.713 1025.32 366.737 958.181 378.377 893.069C390.589 824.761 419.351 761.208 440.318 695.447C450.816 662.954 458.398 629.59 462.975 595.752C467.496 561.273 471.861 527.34 484.046 494.576C509.872 425.099 558.589 367.262 605.746 311.218C607.331 309.295 604.603 306.541 602.992 308.464H602.914Z" fill="#1E0E62"/>
<path d="M545 1178.77C492.672 1073.1 475.498 955.323 491.425 838.895C499.583 779.317 509.976 720 519.382 660.604C528.397 603.702 536.478 546.515 547.208 489.899C558.952 427.905 575.789 366.456 607.669 311.581C607.931 311.133 608.004 310.6 607.872 310.098C607.741 309.596 607.415 309.167 606.967 308.905C606.519 308.643 605.986 308.57 605.484 308.702C604.982 308.833 604.553 309.159 604.291 309.607C546.403 408.834 536.4 528.509 518.758 639.766C508.807 702.513 498.206 765.209 489.061 828.087C480.824 884.78 478.668 941.552 486.073 998.505C494.432 1061.9 513.21 1123.48 541.648 1180.75C542.74 1182.98 546.117 1181.03 545 1178.77Z" fill="#1E0E62"/>
<path d="M493.088 1035.51C529.826 1051.9 565.838 1062.48 606.5 1058.47C647.785 1054.4 688.421 1042.18 727.446 1028.65C809.186 1000.27 887.392 961.456 972.067 941.996C1023.04 930.277 1075.63 926.042 1127.31 935.708C1129.75 936.176 1130.79 932.408 1128.35 931.94C956.868 899.878 807.055 1013.11 646.018 1048C621.465 1053.2 596.055 1057.33 570.852 1055.05C544.195 1052.6 519.304 1042.96 495.063 1032.15C492.802 1031.14 490.801 1034.49 493.088 1035.51V1035.51Z" fill="#1E0E62"/>
<path d="M726.329 281.754C748.31 400.676 856.863 472.024 945.358 541.319C1040.17 615.577 1134.25 696.356 1193.04 803.352C1225.57 862.566 1246.1 928.068 1246.98 996.012C1246.98 996.529 1247.19 997.025 1247.55 997.39C1247.92 997.755 1248.42 997.961 1248.93 997.961C1249.45 997.961 1249.94 997.755 1250.31 997.39C1250.68 997.025 1250.88 996.529 1250.88 996.012C1249.37 880.754 1192.29 775.161 1117.1 690.692C1076.91 645.613 1031.36 605.548 984.591 567.561C936.186 528.328 884.898 492.342 838.364 450.848C787.387 405.353 742.828 349.517 730.122 280.715C729.655 278.247 725.913 279.286 726.355 281.754H726.329Z" fill="#1E0E62"/>
<path d="M746.465 328.34C776.11 431.334 854.654 508.424 919.09 590.503C958.998 641.35 996.438 694.121 1034.5 746.398C1070.57 795.764 1111.93 845.131 1127.05 905.618C1135.26 938.486 1136.82 972.549 1137.99 1006.27C1139.27 1042.96 1140.49 1079.66 1141.65 1116.36C1141.65 1118.96 1145.65 1118.96 1145.55 1116.36C1143.52 1055.41 1145.34 992.789 1136.25 932.354C1127.34 872.88 1097.12 825.67 1062.33 777.94C1024.47 725.975 986.981 673.803 948.397 622.461C914.829 577.849 878.402 535.654 843.664 491.951C804.119 442.273 767.952 389.035 750.128 327.405C749.958 326.947 749.622 326.57 749.188 326.349C748.753 326.127 748.251 326.076 747.781 326.207C747.31 326.337 746.906 326.64 746.648 327.054C746.39 327.468 746.297 327.964 746.387 328.444L746.465 328.34Z" fill="#1E0E62"/>
<path d="M1148.3 1122.08C1192.98 1093.04 1228.36 1051.77 1250.23 1003.18C1251.27 1000.92 1247.89 998.948 1246.88 1001.23C1225.31 1049.22 1190.4 1090 1146.3 1118.7C1144.2 1120.08 1146.15 1123.46 1148.28 1122.08H1148.3Z" fill="#1E0E62"/>
<path d="M701.23 972.055L659.997 1014.74C691.833 1122.59 711.121 1175.74 717.859 1174.2C724.198 1172.74 719.478 1123.13 703.698 1025.37L732.045 997.05L701.23 972.055Z" fill="#1E0E62"/>
<path d="M774.292 538.979C780.839 552.36 789.647 570.964 799.365 593.543C817.585 635.473 833.331 678.435 846.522 722.208C852.29 741.669 859.279 767.339 865.957 797.921C858.63 812.124 851.104 826.398 843.378 840.74C806.224 909.827 767.537 974.731 728.174 1035.61C713.818 1017.21 704.529 995.368 701.23 972.263C700.196 964.436 699.883 956.53 700.295 948.645C706.219 930.908 712.186 913.11 718.197 895.251C731.395 856.104 744.707 817.252 758.131 778.694C746.56 754.236 735.042 729.587 723.575 704.748C701.698 657.425 680.479 610.483 659.919 563.923L774.292 538.979Z" fill="white"/>
<path opacity="0.14" d="M703.075 590.686C713.693 612.545 724.484 634.492 735.449 656.525C756.234 698.253 777.107 739.271 798.065 779.578C794.445 789.971 790.842 800.364 787.257 810.757C763.111 881.377 740.411 951.391 719.158 1020.8L694.449 957.558C712.925 919.616 728.481 880.32 740.983 840.013C747.452 819.045 752.779 798.831 757.17 779.578C746.517 755.432 735.717 731.181 724.77 706.827C710.913 676.22 697.056 645.907 683.199 615.889L703.075 590.686Z" fill="#9E9E9E"/>
<path d="M780.372 554.57C813.908 628.925 841.467 705.834 862.787 784.567C862.924 785.066 863.255 785.491 863.706 785.747C864.156 786.002 864.69 786.069 865.19 785.931C865.69 785.793 866.114 785.462 866.37 785.012C866.626 784.561 866.692 784.027 866.554 783.527C845.111 704.479 817.422 627.259 783.749 552.595C782.71 550.309 779.358 552.31 780.372 554.57V554.57Z" fill="#1E0E62"/>
<path d="M694.371 657.122C718.503 696.368 739.067 737.698 755.818 780.616C756.728 782.929 760.495 781.916 759.586 779.577C742.724 736.365 722.029 694.748 697.749 655.225C696.423 653.069 693.046 655.043 694.371 657.174V657.122Z" fill="#1E0E62"/>
<path d="M752.882 780.746C738.798 837.727 720.562 893.6 698.32 947.917C697.385 950.256 701.152 951.243 702.087 948.957C724.329 894.639 742.565 838.766 756.65 781.786C757.247 779.343 753.48 778.304 752.882 780.746V780.746Z" fill="#1E0E62"/>
<path d="M864.268 796.777C823.043 876.076 779.35 953.98 733.188 1030.49C733.059 1030.71 732.974 1030.96 732.939 1031.21C732.904 1031.47 732.92 1031.72 732.985 1031.97C733.116 1032.47 733.442 1032.9 733.89 1033.17C734.338 1033.43 734.871 1033.5 735.373 1033.37C735.875 1033.24 736.304 1032.91 736.566 1032.46C782.658 955.937 826.334 878.033 867.594 798.752C868.737 796.517 865.385 794.543 864.216 796.777H864.268Z" fill="#1E0E62"/>
<path d="M696.554 953.062C699.356 982.915 709.651 1011.58 726.485 1036.39C727.888 1038.44 731.266 1036.39 729.837 1034.41C713.353 1010.2 703.246 982.22 700.451 953.062C700.217 950.594 696.32 950.464 696.554 953.062Z" fill="#1E0E62"/>
<path d="M683.562 1094.12L689.018 1142.03C688.083 1155.02 687.199 1174.02 687.771 1196.96C688.914 1244.04 696.215 1306.24 705.153 1306.4C711.701 1306.4 717.677 1275.63 723.886 1243.49C728.188 1221.22 731.258 1198.73 733.084 1176.12L726.459 1150.76L724.64 1095.34C724.276 1094.25 720.457 1083.75 710.246 1080.87C700.424 1078.09 689.018 1083.39 683.562 1094.12Z" fill="#1E0E62"/>
<path d="M606.448 569.873C606.214 583.436 606.032 602.169 606.214 624.436C606.214 624.436 606.759 692.458 611.41 760.402C615.775 824.241 629.598 945.969 661.244 1101.79C670.155 1108.48 680.171 1113.57 690.837 1116.8C724.874 1127.01 754.493 1114.52 763.873 1110.07C752.18 1069.63 742.905 1028.52 736.098 986.969C729.265 945.397 724.484 900.525 722.224 830.892C719.342 737.764 721.858 644.548 729.758 551.711L606.448 569.873Z" fill="white"/>
<path opacity="0.14" d="M622.894 579.824C622.712 602.429 623.102 625.553 624.219 649.12C632.637 830.997 679.275 989.49 735.786 1119.12C727.834 1120.47 719.743 1120.84 711.701 1120.21C693.553 1118.65 676.142 1112.32 661.243 1101.84C649.993 1048.96 639.886 993.127 631.52 934.459C614.302 813.702 605.922 691.85 606.447 569.873L622.894 579.824Z" fill="#9E9E9E"/>
<path d="M604.499 569.873C601.789 748.907 620.199 927.636 659.347 1102.36C659.892 1104.8 663.66 1103.76 663.114 1101.32C624.062 926.936 605.721 748.554 608.474 569.873C608.474 569.357 608.269 568.861 607.903 568.496C607.538 568.13 607.042 567.925 606.525 567.925C606.009 567.925 605.513 568.13 605.148 568.496C604.782 568.861 604.577 569.357 604.577 569.873H604.499Z" fill="#1E0E62"/>
<path d="M723.237 596.842C715.183 767.963 711.935 945.007 761.976 1110.65C762.704 1113.04 766.471 1112.02 765.744 1109.61C715.806 944.306 719.08 767.625 727.134 596.842C727.264 594.244 723.367 594.244 723.237 596.842Z" fill="#1E0E62"/>
<path d="M661.322 1105.16C675.924 1116.67 693.591 1120.13 711.701 1122.16C728.018 1124 744.672 1124.37 757.819 1113.27C759.742 1111.63 756.988 1108.91 755.065 1110.49C742.853 1120.88 726.667 1119.97 711.701 1118.29C694.735 1116.36 677.924 1113.27 664.076 1102.44C662.127 1100.9 659.347 1103.63 661.322 1105.19V1105.16Z" fill="#1E0E62"/>
<path d="M585.272 307.372C602.561 297.928 620.865 290.475 639.835 285.157C674.31 275.565 710.372 273.064 745.841 277.804C757.033 304.326 763.403 332.631 764.652 361.39C765.874 393.218 759.846 408.34 759.066 434.712C758.287 461.552 762.99 499.668 788.374 546.879C769.621 557.735 749.591 566.218 728.745 572.133C688.895 583.307 646.997 585.086 606.344 577.33C618.789 527.963 615.1 491.406 609.513 467.138C603.667 441.806 595.847 430.451 589.299 401.455C582.417 370.577 581.054 338.725 585.272 307.372V307.372Z" fill="#8C30F5"/>
<path d="M619.984 445.99C619.621 460.938 619.248 475.887 618.867 490.835C608.779 494.936 600.682 502.801 596.289 512.765C595.171 515.363 587.611 533.888 598.601 545.814C606.734 554.622 619.387 553.609 621.413 553.609C621.206 570.238 628.221 577.513 630.429 579.592C638.536 587.074 651.89 588.737 657.087 589.361C666.232 590.504 670.753 589.127 674.988 592.998C677.95 595.597 678.912 599.312 680.678 606.431C682.03 611.749 682.84 617.19 683.095 622.67L649.318 632.024L650.825 663.463C661.339 667.068 672.239 669.431 683.303 670.504C707.123 672.676 731.114 669.038 753.22 659.903L748.544 628.335C744.14 623.767 738.414 620.696 732.173 619.554C725.932 618.412 719.489 619.256 713.754 621.969L717.079 588.919C728.713 588.574 740.036 585.081 749.843 578.812C755.496 575.689 760.077 570.936 762.99 565.171C765.528 559.31 766.111 552.787 764.652 546.568C771.824 545.918 778.526 542.719 783.541 537.552C794.324 525.652 792.141 504.606 780.943 492.55C770.55 481.482 755.922 481.482 752.909 481.56L751.376 433.83C746.157 431.134 740.66 429.017 734.981 427.516C719.937 423.515 713.26 426.451 677.82 430.114C655.346 432.505 646.512 432.557 633.001 438.637C628.469 440.728 624.115 443.187 619.984 445.99V445.99Z" fill="white"/>
<path opacity="0.19" d="M739.71 428.555C744.647 433.492 749.921 440.117 748.102 445.158C742.776 459.916 685.381 437.363 661.4 463.086C646.85 478.675 650.565 505.879 653.19 525.132C655.034 538.643 657.035 553.323 668.779 566.236C678.764 576.626 692.04 583.236 706.349 584.943L699.646 633.219C691.643 641.013 690.396 644.209 691.201 645.482C694.683 650.991 736.904 622.514 750.544 634.44C756.312 639.48 755.325 650.315 753.143 659.825C720.647 673.731 684.13 675 650.747 663.384L651.735 629.399L682.913 621.604C683.822 602.793 679.328 595.778 674.807 593.024C671.377 590.893 668.883 591.777 652.93 588.867C648.431 588.171 643.992 587.128 639.653 585.749C634.586 583.67 625.856 577.512 620.972 555.011C618.244 554.544 603.85 551.816 597.848 540.383C590.651 526.665 597.848 504.554 618.633 492.602C618.408 475.99 618.183 459.405 617.958 442.845C656.851 428.715 698.491 423.797 739.606 428.477L739.71 428.555Z" fill="#9E9E9E"/>
<path d="M634.586 443.002C624.193 449.705 629.727 458.591 640.276 460.358C663.14 464.411 688.057 461.268 710.428 455.993C712.87 455.421 711.831 451.68 709.388 452.252C696.649 455.334 683.64 457.17 670.545 457.734C665.557 457.916 660.594 457.89 655.605 457.734C652.306 457.604 648.98 457.37 645.68 457.084C637.47 458.643 634.413 455.075 636.509 446.38C638.587 445.029 636.638 441.651 634.534 443.028L634.586 443.002Z" fill="#1E0E62"/>
<path d="M683.822 431.492C699.204 430.088 715.339 427.204 730.772 428.893C733.5 429.205 744.984 430.452 745.738 432.869L741.243 444.197C739.221 445.624 737.019 446.777 734.695 447.627C725.524 451.732 715.495 452.641 705.595 453.499C702.997 453.732 702.997 457.63 705.595 457.396C717.911 456.305 730.772 455.161 741.581 448.562C745.998 445.964 754.572 439.988 751.973 433.466C749.375 426.945 736.384 425.49 730.98 424.892C715.391 423.177 699.178 426.113 683.744 427.49C681.276 427.724 681.146 431.621 683.744 431.388L683.822 431.492Z" fill="#1E0E62"/>
<path d="M622.401 500.474C610.683 499.929 603.512 516.713 603.434 526.457C603.293 532.168 605.312 537.722 609.089 542.009C612.865 546.296 618.12 549 623.804 549.581C626.402 549.841 626.402 545.944 623.804 545.684C619.15 545.121 614.877 542.834 611.828 539.274C608.778 535.715 607.174 531.141 607.331 526.457C607.331 519.364 613.021 503.852 622.401 504.294C624.999 504.294 624.999 500.5 622.401 500.396V500.474Z" fill="#1E0E62"/>
<path d="M618.217 490.782C601.771 495.433 589.325 513.777 590.806 530.795C592.209 547.112 605.694 558.389 621.985 555.427C624.453 554.985 623.414 551.218 620.946 551.659C602.446 555.037 591.508 536.823 595.587 520.48C598.419 509.022 607.825 497.772 619.309 494.498C619.808 494.36 620.233 494.03 620.488 493.579C620.744 493.128 620.811 492.594 620.673 492.095C620.535 491.595 620.204 491.171 619.754 490.915C619.303 490.659 618.769 490.593 618.269 490.731L618.217 490.782Z" fill="#1E0E62"/>
<path d="M620.816 490.835C619.394 476.334 619.717 461.714 621.777 447.289C622.141 444.69 618.373 443.755 618.036 446.249C615.859 461.011 615.484 475.983 616.918 490.835C617.152 493.434 621.05 493.434 620.816 490.835Z" fill="#1E0E62"/>
<path d="M749.531 433.831C750.7 449.706 751.167 465.555 750.934 481.482C750.934 481.999 751.139 482.495 751.504 482.86C751.87 483.226 752.365 483.431 752.882 483.431C753.399 483.431 753.895 483.226 754.26 482.86C754.626 482.495 754.831 481.999 754.831 481.482C755.065 465.555 754.597 449.706 753.428 433.831C753.246 431.232 749.349 431.232 749.531 433.831Z" fill="#1E0E62"/>
<path d="M752.337 484.157C767.537 484.625 779.618 491.822 783.516 507.152C787.205 521.91 784.139 544.54 764.705 544.54C764.188 544.54 763.692 544.746 763.327 545.111C762.961 545.477 762.756 545.972 762.756 546.489C762.756 547.006 762.961 547.502 763.327 547.867C763.692 548.232 764.188 548.438 764.705 548.438C784.971 548.438 790.505 527.47 788.088 510.711C785.308 491.588 771.46 480.857 752.415 480.26C751.898 480.26 751.402 480.465 751.037 480.831C750.672 481.196 750.466 481.692 750.466 482.208C750.466 482.725 750.672 483.221 751.037 483.586C751.402 483.952 751.898 484.157 752.415 484.157H752.337Z" fill="#1E0E62"/>
<path d="M755.221 496.785C777.254 498.188 779.046 528.873 757.533 533.316C755.091 533.836 756.13 537.577 758.572 537.084C769.771 534.771 778.605 524.352 777.228 512.634C776.438 507.293 773.806 502.396 769.787 498.79C765.769 495.184 760.616 493.096 755.221 492.887C752.623 492.731 752.623 496.629 755.221 496.785V496.785Z" fill="#1E0E62"/>
<path d="M619.309 556.077C624.505 565.483 623.518 577.564 632.819 584.424C641.705 590.945 654.774 590.919 665.219 592.349C667.817 592.66 668.727 588.919 666.258 588.581C656.593 587.282 643.342 587.412 635.288 581.228C627.233 575.044 627.493 563.04 622.686 554.102C621.491 551.894 618.14 553.868 619.309 556.077V556.077Z" fill="#1E0E62"/>
<path d="M763.613 547.451C762.377 550.835 761.633 554.379 761.405 557.974C760.885 565.899 758.131 571.745 751.012 575.876C741.528 581.462 729.499 584.035 719.106 587.49C716.741 588.296 717.755 592.063 720.145 591.258C732.175 587.231 747.79 584.424 757.767 575.98C767.017 568.185 763.535 558.91 767.277 548.491C768.134 546.126 764.367 545.113 763.509 547.451H763.613Z" fill="#1E0E62"/>
<path d="M665.972 590.946C668.571 592.505 672.962 593.544 675.04 595.519C677.181 598.127 678.437 601.348 678.626 604.717C679.613 611.212 680.133 617.708 680.86 624.36C681.12 626.828 685.017 626.958 684.757 624.36C683.848 616.175 683.874 607.107 681.458 599.209C679.197 591.778 674.183 591.076 668.051 587.516C667.603 587.255 667.069 587.181 666.568 587.313C666.066 587.445 665.637 587.77 665.375 588.218C665.113 588.666 665.04 589.199 665.171 589.701C665.303 590.203 665.628 590.632 666.076 590.894L665.972 590.946Z" fill="#1E0E62"/>
<path d="M715.209 588.348C711.665 599.445 710.775 611.219 712.61 622.722C713 625.321 716.742 624.151 716.378 621.709C714.708 610.88 715.598 599.81 718.976 589.387C719.756 586.996 715.988 585.957 715.235 588.348H715.209Z" fill="#1E0E62"/>
<path d="M681.977 626.152C687.174 638.494 709.804 638.13 716.664 627.685C718.041 625.581 714.663 623.632 713.286 625.711C707.934 633.895 689.278 633.506 685.329 624.178C684.368 621.891 680.99 623.866 681.977 626.152Z" fill="#1E0E62"/>
<path d="M682.575 620.721C676.105 621.813 669.584 622.826 663.14 623.969C658.775 624.749 652.462 625.45 649.188 628.958C646.434 631.894 647.032 635.505 647.11 639.351C647.317 647.379 647.941 655.382 648.876 663.385C649.162 665.853 653.059 665.983 652.774 663.385C651.838 655.46 646.928 634.492 654.826 630.205C662.725 625.918 674.806 625.944 683.614 624.463C686.083 624.073 685.017 620.306 682.575 620.721V620.721Z" fill="#1E0E62"/>
<path d="M653.787 667.49C668.259 673.83 687.434 673.31 702.919 672.947C719.3 672.972 735.41 668.766 749.687 660.735C749.909 660.605 750.103 660.433 750.258 660.229C750.413 660.024 750.527 659.791 750.592 659.542C750.657 659.294 750.673 659.035 750.638 658.78C750.603 658.526 750.518 658.281 750.388 658.059C750.259 657.837 750.087 657.643 749.882 657.488C749.677 657.332 749.444 657.219 749.196 657.154C748.947 657.089 748.688 657.073 748.434 657.108C748.179 657.143 747.934 657.228 747.712 657.357C734.038 665.095 718.579 669.125 702.867 669.049C688.369 669.387 669.091 669.985 655.71 664.113C653.423 663.125 651.449 666.477 653.735 667.49H653.787Z" fill="#1E0E62"/>
<path d="M716.975 622.878C725.471 622.878 741.268 622.307 746.361 629.919C751.453 637.532 751.116 650.498 751.271 659.825C751.271 660.342 751.477 660.838 751.842 661.203C752.208 661.569 752.703 661.774 753.22 661.774C753.737 661.774 754.233 661.569 754.598 661.203C754.963 660.838 755.169 660.342 755.169 659.825C755.083 653.031 754.527 646.251 753.506 639.533C752.804 634.986 752.363 629.582 749.193 625.97C742.619 618.539 725.965 618.877 716.975 618.981C716.458 618.981 715.963 619.186 715.597 619.552C715.232 619.917 715.027 620.413 715.027 620.93C715.027 621.446 715.232 621.942 715.597 622.308C715.963 622.673 716.458 622.878 716.975 622.878V622.878Z" fill="#1E0E62"/>
<path d="M621.673 446.978C625.337 439.651 639.029 437.65 646.174 436.039C654.271 434.283 662.502 433.222 670.779 432.869C673.378 432.869 673.378 428.842 670.779 428.972C659.734 429.489 648.78 431.231 638.12 434.168C630.845 436.195 621.933 437.858 618.296 445.133C617.178 447.367 620.53 449.342 621.673 447.108V446.978Z" fill="#1E0E62"/>
<path d="M658.75 497.539V528.718C658.75 529.234 658.955 529.73 659.32 530.095C659.686 530.461 660.181 530.666 660.698 530.666C661.215 530.666 661.711 530.461 662.076 530.095C662.442 529.73 662.647 529.234 662.647 528.718V497.539C662.647 497.022 662.442 496.526 662.076 496.161C661.711 495.795 661.215 495.59 660.698 495.59C660.181 495.59 659.686 495.795 659.32 496.161C658.955 496.526 658.75 497.022 658.75 497.539V497.539Z" fill="#1E0E62"/>
<path d="M674.884 497.539L673.429 526.665C673.429 529.263 677.223 529.263 677.326 526.665L678.677 497.539C678.677 494.94 674.884 494.94 674.78 497.539H674.884Z" fill="#1E0E62"/>
<path d="M652.15 509.984L682.289 507.074C684.757 506.841 684.887 502.943 682.289 503.177L652.15 506.087C649.681 506.321 649.552 510.218 652.15 509.984Z" fill="#1E0E62"/>
<path d="M654.8 522.378L681.64 517.181C684.082 516.714 683.043 512.972 680.6 513.44L653.761 518.636C651.293 519.104 652.358 522.871 654.8 522.404V522.378Z" fill="#1E0E62"/>
<path d="M702.971 511.856C707.109 507.256 710.605 502.117 713.364 496.578L709.804 495.071C706.864 507.969 705.572 521.187 705.959 534.409C705.959 537.007 709.934 537.007 709.856 534.409C709.465 521.537 710.713 508.667 713.572 496.111C714.039 494.058 710.974 492.551 710.012 494.604C707.425 499.862 704.129 504.74 700.217 509.102C698.554 510.947 701.308 513.727 702.997 511.856H702.971Z" fill="#1E0E62"/>
<path d="M585.22 312.934C577.934 323.131 571.228 333.731 565.136 344.684C560.616 352.817 539.154 392.102 526.761 451.056C524.604 461.319 523.227 469.738 522.422 475.012C527.703 497.954 541.819 517.887 561.707 530.485C567.499 534.113 573.7 537.043 580.18 539.215C583.57 542.843 587.382 546.053 591.534 548.776C600.186 554.441 610.787 558.234 611.722 556.571C612.242 555.714 610.085 552.7 596.133 542.359C607.929 546.75 617.542 546.62 619.049 543.424C620.556 540.228 614.788 533.031 604.655 526.691C615.801 528.874 621.673 529.108 622.323 527.393C623.206 525.002 614 518.836 594.704 508.893C594.99 502.554 592.106 498.266 589.715 498.214C587.325 498.163 584.805 501.644 584.025 506.763L561.941 469.01C568.852 455.655 576.698 441.599 585.636 427.126C597.432 408.029 609.436 390.907 621.05 375.733C622.711 360.343 618.651 344.88 609.644 332.291C603.322 323.827 594.904 317.155 585.22 312.934V312.934Z" fill="white"/>
<path opacity="0.14" d="M585.22 312.934C578.699 329.147 570.28 350.608 560.901 376.097C538.348 437.338 535.231 453.888 539.803 472.752C543.415 487.666 553.756 512.037 570.436 514.947C581.842 516.948 591.664 508.114 596.289 512.869C600.913 517.623 593.301 526.847 596.289 542.541C597.278 547.588 599.143 552.425 601.797 556.831C596.413 550.147 589.831 544.526 582.388 540.254C575.347 536.253 571.735 535.915 565.058 532.459C555.566 527.475 547.261 520.5 540.713 512.011C530.855 500.026 524.235 485.712 521.486 470.439C533.181 414.561 554.765 361.221 585.22 312.934V312.934Z" fill="#9E9E9E"/>
<path d="M583.557 311.842C550.352 356.843 535.361 410.991 521.2 464.255C521.11 464.735 521.204 465.231 521.462 465.645C521.72 466.059 522.124 466.361 522.594 466.492C523.064 466.622 523.566 466.572 524.001 466.35C524.436 466.128 524.772 465.752 524.942 465.294C539.05 412.316 553.912 358.558 586.909 313.816C588.39 311.79 585.012 309.841 583.557 311.842V311.842Z" fill="#1E0E62"/>
<path d="M605.019 395.895C587.55 419.214 572.563 444.293 560.304 470.724C559.238 472.985 562.616 474.96 563.655 472.699C575.962 446.27 590.982 421.192 608.474 397.87C609.981 395.869 606.604 393.92 605.123 395.895H605.019Z" fill="#1E0E62"/>
<path d="M556.068 473.374C562.122 466.125 570.722 486.963 572.359 490.029L582.752 509.542C583.947 511.75 587.299 509.776 586.13 507.567L576.36 489.38C573.74 483.547 570.655 477.934 567.137 472.595C563.655 468.1 557.523 465.554 553.262 470.646C551.652 472.543 554.406 475.323 556.017 473.4L556.068 473.374Z" fill="#1E0E62"/>
<path d="M519.668 470.958C522.621 486.907 529.733 501.794 540.286 514.112C550.838 526.431 564.457 535.744 579.764 541.11C582.128 541.942 583.142 538.174 580.803 537.343C566.138 532.134 553.109 523.143 543.035 511.28C532.961 499.418 526.199 485.104 523.435 469.788C522.967 467.32 519.226 468.359 519.668 470.828V470.958Z" fill="#1E0E62"/>
<path d="M586.389 510.737C586.545 508.425 586.597 505.281 588.468 503.566C589.663 502.449 591.924 502.241 592.651 503.93C593.638 506.216 596.99 504.242 596.029 501.955C595.608 501.215 595.042 500.568 594.365 500.052C593.688 499.537 592.913 499.163 592.088 498.954C591.263 498.746 590.404 498.706 589.563 498.838C588.722 498.969 587.917 499.27 587.195 499.721C583.298 501.877 582.752 506.762 582.492 510.737C582.336 513.336 586.234 513.336 586.389 510.737V510.737Z" fill="#1E0E62"/>
<path d="M594.34 509.256C599.536 520.221 614.554 518.792 620.868 528.457C622.245 530.536 625.622 528.587 624.245 526.482C617.88 516.791 602.732 517.7 597.692 507.307C596.6 505.047 593.249 507.022 594.34 509.256V509.256Z" fill="#1E0E62"/>
<path d="M580.595 540.67C582.57 547.166 589.715 549.089 594.158 553.661C596.341 556.219 599.242 558.062 602.485 558.952C605.728 559.841 609.163 559.736 612.345 558.65C614.71 557.871 613.697 554.103 611.306 554.883C603.512 557.481 599.822 552.986 594.392 548.517C591.04 545.737 585.74 544.282 584.363 539.735C583.635 537.344 579.868 538.358 580.595 540.774V540.67Z" fill="#1E0E62"/>
<path d="M597.068 544.177C601.444 548.84 606.519 552.794 612.112 555.895C614.294 557.09 616.269 553.738 614.086 552.517C608.772 549.591 603.957 545.837 599.822 541.397C598.107 539.578 595.353 542.332 597.068 544.177V544.177Z" fill="#1E0E62"/>
<path d="M596.497 541.839C599.674 544.704 603.635 546.553 607.871 547.151C612.107 547.748 616.425 547.065 620.27 545.191C622.557 544.126 620.556 540.748 618.322 541.839C615.224 543.306 611.763 543.826 608.371 543.336C604.979 542.847 601.807 541.368 599.251 539.085C597.38 537.422 594.626 540.176 596.497 541.839Z" fill="#1E0E62"/>
<path d="M604.187 529.731C609.688 531.684 614.361 535.45 617.438 540.41C618.763 542.515 622.141 540.566 620.79 538.435C617.164 532.625 611.665 528.226 605.2 525.964C602.836 525.132 601.823 528.9 604.187 529.731V529.731Z" fill="#1E0E62"/>
<path d="M598.081 534.563C603.505 538.17 609.772 540.309 616.269 540.773C618.867 540.981 618.867 537.083 616.269 536.876C610.465 536.424 604.878 534.472 600.056 531.211C597.951 529.808 596.003 533.186 598.081 534.563V534.563Z" fill="#1E0E62"/>
<path d="M609.929 530.51C611.924 531.258 614.054 531.577 616.18 531.447C618.307 531.317 620.382 530.741 622.271 529.756C624.505 528.639 622.557 525.287 620.296 526.405C618.85 527.119 617.268 527.519 615.656 527.577C614.043 527.635 612.437 527.351 610.943 526.742C608.604 525.859 607.591 529.626 609.929 530.51Z" fill="#1E0E62"/>
<path d="M745.842 277.805C739.25 284.418 735.077 293.058 733.994 302.332C731.682 325.249 751.22 340.111 752.337 340.942L802.067 432.608C794.636 447.106 787.223 461.605 779.826 476.103C778.556 474.947 777.051 474.08 775.414 473.559C773.777 473.039 772.047 472.879 770.343 473.089C768.237 473.446 766.272 474.381 764.667 475.79C763.061 477.198 761.878 479.024 761.249 481.065C761.925 481.325 768.68 483.949 769.563 489.588C769.655 491.103 769.443 492.622 768.939 494.055C768.434 495.487 767.648 496.804 766.627 497.928C759.378 507.412 747.686 505.307 746.465 510.374C745.478 514.583 752.571 519.779 756.624 521.962C760.359 523.774 764.417 524.823 768.562 525.046C772.707 525.269 776.854 524.662 780.762 523.261C773.695 534.641 773.279 537.993 774.292 538.85C776.527 540.877 789.544 534.122 793.883 522.455C797.884 511.699 792.713 501.669 791.544 499.435C796.129 495.055 800.934 490.909 805.938 487.015C808.666 484.885 812.408 482.053 827.192 472.023C842.599 461.631 843.119 461.631 845.509 459.032C848.393 456.044 856.525 447.652 857.798 436.142C858.942 425.905 854.109 417.72 851.589 413.303C827.088 371.134 834.519 370.354 805.704 328.522C790.271 305.944 783.022 298.669 774.526 292.537C765.784 286.172 756.107 281.202 745.842 277.805V277.805Z" fill="white"/>
<path opacity="0.21" d="M755.559 284.871C766.471 296.719 775.175 307.372 781.697 315.816C808.536 350.607 829.036 377.888 829.842 412.809C830.208 422.38 828.808 431.936 825.71 441C824.307 444.871 814.2 472.49 789.959 481.584C781.333 484.806 775.253 484.183 772.759 489.145C769.148 496.498 778.683 504.735 775.357 513.699C773.305 519.389 767.173 522.559 761.639 524.403L780.71 523.26C773.668 534.511 773.201 537.966 774.24 538.85C776.526 540.954 790.115 534.329 793.83 522.455C797.13 511.854 790.946 502.344 789.907 500.785C799.637 490.577 810.733 481.763 822.878 474.595C831.556 469.398 839.299 466.203 847.276 456.979C851.017 452.64 856.733 445.858 857.668 436.193C858.162 430.763 856.967 426.008 852.888 416.42C848.623 406.051 843.404 396.1 837.298 386.696C808.069 344.865 810.095 321.48 780.138 298.798C772.579 293.116 764.318 288.435 755.559 284.871V284.871Z" fill="#9E9E9E"/>
<path d="M745.322 279.701C775.903 288.535 795.104 313.894 810.641 340.162C826.178 366.431 840.131 393.608 852.992 421.28C854.057 423.54 857.409 421.565 856.344 419.305C841.638 387.658 825.841 355.934 806.978 326.599C792.194 303.761 773.201 283.676 746.465 275.934C745.966 275.796 745.432 275.862 744.981 276.118C744.53 276.374 744.2 276.798 744.062 277.298C743.924 277.797 743.991 278.331 744.246 278.782C744.502 279.233 744.927 279.563 745.426 279.701H745.322Z" fill="#1E0E62"/>
<path d="M750.648 341.904C767.5 369.105 782.634 397.334 795.961 426.424C797.001 428.711 800.352 426.736 799.313 424.476C785.998 395.374 770.855 367.144 753.974 339.955C752.675 337.824 749.297 339.773 750.622 341.904H750.648Z" fill="#1E0E62"/>
<path d="M819.839 423.383C810.329 420.421 803.106 426.345 798.741 434.478C791.648 447.677 788.192 462.305 779.644 474.828C778.241 476.907 781.593 478.856 783.022 476.803C787.709 469.602 791.611 461.919 794.662 453.887C798.559 444.273 803.99 422.526 818.799 427.125C821.19 427.878 822.229 424.111 819.839 423.383Z" fill="#1E0E62"/>
<path d="M855.304 430.088C857.279 450.874 839.533 461.891 824.126 471.478C812.553 478.968 801.636 487.425 791.492 496.759C789.596 498.422 792.376 501.176 794.246 499.513C802.591 491.755 811.492 484.617 820.878 478.156C828.283 473.271 836.233 469.114 843.093 463.476C853.485 454.928 860.449 443.885 859.124 430.088C858.89 427.49 854.992 427.49 855.226 430.088H855.304Z" fill="#1E0E62"/>
<path d="M781.489 475.116C780.53 473.755 779.257 472.643 777.779 471.876C776.3 471.109 774.659 470.709 772.993 470.709C771.328 470.709 769.686 471.109 768.208 471.876C766.729 472.643 765.456 473.755 764.497 475.116C763.042 477.169 766.42 479.118 767.849 477.091C768.463 476.298 769.251 475.656 770.152 475.215C771.052 474.773 772.042 474.543 773.045 474.543C774.048 474.543 775.038 474.773 775.939 475.215C776.84 475.656 777.627 476.298 778.242 477.091C779.671 479.118 783.074 477.091 781.593 475.116H781.489Z" fill="#1E0E62"/>
<path d="M766.965 473.53C763.302 473.92 758.547 475.349 758.781 479.974C758.886 480.812 759.194 481.613 759.679 482.306C760.163 482.998 760.809 483.562 761.561 483.949C763.821 485.508 766.16 486.963 768.446 488.444C770.733 489.925 772.499 486.443 770.421 485.092C768.342 483.741 766.264 482.494 764.211 481.039C763.224 480.389 762.236 479.792 763.198 478.571C764.159 477.349 765.796 477.557 766.965 477.427C769.433 477.168 769.563 473.27 766.965 473.53Z" fill="#1E0E62"/>
<path d="M788.634 499.772C791.752 508.372 794.948 517.726 790.089 526.352C788.868 528.535 792.246 530.509 793.467 528.301C798.871 518.713 795.909 508.476 792.376 498.733C791.544 496.394 787.777 497.408 788.634 499.772Z" fill="#1E0E62"/>
<path d="M766.965 487.924C770.603 496.316 759.56 500.525 753.974 503.124C750.934 504.527 744.413 507.333 743.867 511.282C742.516 521.052 765.796 512.711 769.226 511.906C771.668 511.334 770.629 507.567 768.186 508.138C765.043 508.892 751.74 513.673 749.687 511.36C748.206 509.723 754.286 507.255 755.949 506.501C758.287 505.41 760.678 504.475 762.912 503.176C769.2 499.564 773.487 493.12 770.369 485.949C769.382 483.663 766.03 485.638 767.017 487.924H766.965Z" fill="#1E0E62"/>
<path d="M749.765 513.439L749.245 513.829C748.887 514.06 748.609 514.396 748.451 514.792C748.293 515.188 748.262 515.623 748.362 516.037C749.063 519.961 754.312 520.376 757.482 520.844C762.857 521.563 768.323 521.164 773.538 519.675C774.038 519.537 774.462 519.206 774.718 518.756C774.974 518.305 775.04 517.771 774.902 517.272C774.765 516.772 774.434 516.348 773.983 516.092C773.533 515.836 772.999 515.77 772.499 515.907C769.206 516.862 765.794 517.343 762.366 517.336C760.937 517.336 752.519 517.336 751.973 514.998L751.09 517.181L751.61 516.817C753.584 515.336 751.61 511.932 749.635 513.439H749.765Z" fill="#1E0E62"/>
<path d="M752.051 520.792C756.041 524.337 760.993 526.617 766.28 527.343C771.568 528.07 776.951 527.209 781.749 524.872C784.009 523.806 782.035 520.429 779.774 521.52C775.729 523.451 771.206 524.15 766.767 523.531C762.327 522.912 758.168 521.002 754.805 518.038C752.935 516.375 750.155 519.13 752.051 520.792Z" fill="#1E0E62"/>
<path d="M780.216 523.599C776.282 527.698 773.581 532.821 772.422 538.383C772.188 539.5 772.941 540.981 774.292 540.852C777.568 540.547 780.736 539.522 783.57 537.852C786.404 536.181 788.834 533.905 790.687 531.186C792.116 529.107 788.738 527.159 787.309 529.211C785.831 531.368 783.906 533.181 781.664 534.526C779.422 535.871 776.917 536.717 774.318 537.006L776.189 539.474C777.184 534.587 779.545 530.083 782.996 526.483C784.711 524.664 781.957 521.91 780.242 523.729L780.216 523.599Z" fill="#1E0E62"/>
<path d="M623.362 157.038C619.708 160.542 616.583 164.56 614.086 168.964C608.437 179.329 606.2 191.213 607.694 202.923C605.501 203.451 603.435 204.413 601.619 205.752C599.803 207.09 598.273 208.779 597.12 210.718C594.833 214.797 593.066 222.617 597.899 226.619C600.021 228.071 602.553 228.801 605.121 228.703C607.69 228.605 610.159 227.683 612.163 226.073C618.33 240.994 628.334 254.019 641.159 263.826C643.498 272.486 645.819 281.147 648.123 289.808C651.749 291.345 655.62 292.225 659.555 292.406C666.588 292.62 673.52 290.69 679.431 286.872C679.015 278.324 678.625 269.776 678.21 261.227C681.76 258.888 685.06 256.188 688.057 253.173C696.203 244.862 702.027 234.559 704.945 223.293C717.495 220.253 724.406 212.9 723.445 208.587C722.613 204.871 716.014 202.169 708.167 201.702C708.791 198.792 713.935 172.212 696.995 154.933C676.729 133.887 639.652 141.682 623.362 157.038Z" fill="white"/>
<path opacity="0.28" d="M612.657 173.458C612.48 183.342 613.616 193.207 616.035 202.792C618.165 211.236 629.337 255.511 658.645 261.019C663.348 261.902 672.338 262.5 684.627 256.238C680.05 261.734 675.046 266.86 669.662 271.568C665.874 274.875 661.901 277.963 657.762 280.818L659.607 292.25L648.174 289.652L641.393 260.525C637.604 258.884 634.027 256.79 630.74 254.289C621.286 246.694 614.601 236.191 611.722 224.41C610.604 227.008 608.838 229.762 606.317 230.1C600.705 230.853 591.871 219.213 595.613 212.692C598.211 207.963 606.239 208.171 606.785 208.197L612.657 173.458Z" fill="#9E9E9E"/>
<path d="M610.76 172.94C603.985 191.306 604.446 211.561 612.05 229.6C619.653 247.64 633.83 262.113 651.708 270.088C653.969 271.128 655.943 267.75 653.683 266.711C636.547 259.18 622.942 245.377 615.661 228.133C608.38 210.889 607.975 191.512 614.528 173.979C615.359 171.589 611.592 170.575 610.76 172.94V172.94Z" fill="#1E0E62"/>
<path d="M664.44 269.36C706.011 256.577 713.806 210.406 707.882 172.705C707.492 170.107 703.751 171.302 704.14 173.745C709.804 209.237 702.867 253.485 663.4 265.593C661.01 266.32 662.049 270.088 664.44 269.36V269.36Z" fill="#1E0E62"/>
<path d="M608.916 227.034C599.173 234.595 591.196 211.756 601.121 210.821C603.72 210.587 603.72 206.689 601.121 206.923C583.843 208.534 596.263 241.688 611.514 229.788C613.489 228.255 610.709 225.527 608.76 227.034H608.916Z" fill="#1E0E62"/>
<path d="M710.402 202.845C712.434 202.067 714.689 202.109 716.691 202.962C718.693 203.815 720.286 205.413 721.132 207.418C723.133 212.77 717.937 217.811 712.74 217.655C710.142 217.655 710.142 221.448 712.74 221.552C720.041 221.89 726.926 214.953 725.212 207.47C724.776 205.844 724.011 204.325 722.962 203.008C721.913 201.692 720.604 200.606 719.117 199.818C717.629 199.03 715.995 198.558 714.317 198.431C712.639 198.303 710.952 198.523 709.363 199.077C707.05 199.935 708.037 203.728 710.402 202.845V202.845Z" fill="#1E0E62"/>
<path d="M639.289 264.241C640.954 272.282 643.053 280.227 645.577 288.041C646.356 290.405 650.123 289.392 649.344 287.001C646.808 279.191 644.709 271.245 643.056 263.201C642.537 260.759 638.795 261.798 639.289 264.241Z" fill="#1E0E62"/>
<path d="M647.135 291.419C652.135 293.652 657.638 294.521 663.082 293.937C668.527 293.352 673.72 291.336 678.132 288.093C680.133 286.638 678.132 283.261 676.157 284.742C672.344 287.636 667.831 289.466 663.079 290.046C658.328 290.626 653.507 289.934 649.11 288.041C646.824 287.08 644.849 290.432 647.135 291.419V291.419Z" fill="#1E0E62"/>
<path d="M676.417 264.293C676.192 270.789 676.27 277.267 676.651 283.728C676.807 286.327 680.704 286.327 680.548 283.728C680.15 277.267 680.072 270.789 680.315 264.293C680.315 261.695 676.495 261.695 676.417 264.293Z" fill="#1E0E62"/>
<path d="M649.292 167.769C648.859 184.242 649.205 200.697 650.331 217.136C650.343 217.516 650.465 217.884 650.681 218.196C650.897 218.509 651.198 218.753 651.55 218.898C651.901 219.043 652.286 219.084 652.66 219.016C653.034 218.948 653.38 218.773 653.657 218.513C657.003 215.192 659.475 211.095 660.854 206.587C661.633 204.196 657.866 203.183 657.113 205.548C655.914 209.41 653.781 212.918 650.903 215.759L654.229 217.136C653.085 200.68 652.739 184.225 653.189 167.769C653.189 167.252 652.984 166.757 652.619 166.391C652.253 166.026 651.757 165.82 651.241 165.82C650.724 165.82 650.228 166.026 649.863 166.391C649.497 166.757 649.292 167.252 649.292 167.769V167.769Z" fill="#1E0E62"/>
<path d="M648.408 229.373C652.517 229.972 656.708 229.669 660.688 228.485C664.668 227.3 668.342 225.262 671.454 222.513C673.351 220.851 670.597 218.122 668.7 219.759C666.102 222.064 663.037 223.78 659.714 224.789C656.391 225.798 652.888 226.077 649.448 225.605C647.005 225.268 645.94 229.035 648.408 229.373Z" fill="#1E0E62"/>
<path d="M640.328 187.046C639.549 186.108 639.144 184.915 639.192 183.697C639.24 182.478 639.737 181.32 640.588 180.447L637.522 180.057C638.717 182.37 640.406 185.617 637.912 187.644L640.978 188.034C640.356 186.718 639.935 185.317 639.73 183.876C639.315 181.278 635.573 182.447 635.963 184.916C636.25 186.719 636.801 188.47 637.6 190.112C637.754 190.366 637.964 190.582 638.213 190.744C638.462 190.906 638.744 191.009 639.039 191.047C639.334 191.084 639.633 191.054 639.915 190.96C640.196 190.866 640.453 190.709 640.666 190.502C644.667 187.28 642.874 182.006 640.9 178.186C640.746 177.932 640.536 177.717 640.287 177.555C640.038 177.393 639.755 177.29 639.461 177.252C639.166 177.215 638.867 177.244 638.585 177.338C638.303 177.433 638.047 177.589 637.834 177.797C636.367 179.275 635.476 181.227 635.318 183.303C635.161 185.379 635.749 187.443 636.976 189.125C638.483 191.1 641.861 189.125 640.328 187.15V187.046Z" fill="#1E0E62"/>
<path d="M673.195 187.047C672.405 186.111 671.991 184.914 672.034 183.689C672.078 182.465 672.575 181.3 673.429 180.422L670.363 180.032C671.558 182.344 673.247 185.592 670.753 187.619L673.819 188.008C673.197 186.693 672.776 185.292 672.572 183.851C672.156 181.253 668.388 182.422 668.804 184.891C669.091 186.694 669.642 188.445 670.441 190.087C670.595 190.341 670.805 190.557 671.054 190.719C671.303 190.88 671.585 190.984 671.88 191.021C672.175 191.059 672.474 191.029 672.756 190.935C673.037 190.841 673.294 190.684 673.507 190.477C677.508 187.255 675.715 181.981 673.741 178.161C673.58 177.936 673.375 177.748 673.137 177.607C672.899 177.467 672.635 177.378 672.361 177.346C672.087 177.314 671.809 177.34 671.545 177.423C671.282 177.505 671.038 177.641 670.831 177.823C669.364 179.301 668.473 181.253 668.316 183.33C668.158 185.406 668.746 187.47 669.973 189.152C671.48 191.126 674.858 189.152 673.325 187.177L673.195 187.047Z" fill="#1E0E62"/>
<path d="M622.271 199.103C622.788 199.103 623.283 198.898 623.649 198.533C624.014 198.167 624.219 197.672 624.219 197.155C624.219 196.638 624.014 196.142 623.649 195.777C623.283 195.411 622.788 195.206 622.271 195.206C621.754 195.206 621.258 195.411 620.893 195.777C620.527 196.142 620.322 196.638 620.322 197.155C620.322 197.672 620.527 198.167 620.893 198.533C621.258 198.898 621.754 199.103 622.271 199.103Z" fill="#1E0E62"/>
<path d="M636.69 200.766C637.207 200.766 637.703 200.56 638.068 200.195C638.434 199.829 638.639 199.334 638.639 198.817C638.639 198.3 638.434 197.804 638.068 197.439C637.703 197.073 637.207 196.868 636.69 196.868C636.174 196.868 635.678 197.073 635.313 197.439C634.947 197.804 634.742 198.3 634.742 198.817C634.742 199.334 634.947 199.829 635.313 200.195C635.678 200.56 636.174 200.766 636.69 200.766V200.766Z" fill="#1E0E62"/>
<path d="M631.156 211.861C631.673 211.861 632.169 211.656 632.534 211.291C632.9 210.925 633.105 210.429 633.105 209.913C633.105 209.396 632.9 208.9 632.534 208.535C632.169 208.169 631.673 207.964 631.156 207.964C630.64 207.964 630.144 208.169 629.779 208.535C629.413 208.9 629.208 209.396 629.208 209.913C629.208 210.429 629.413 210.925 629.779 211.291C630.144 211.656 630.64 211.861 631.156 211.861Z" fill="#1E0E62"/>
<path d="M671.637 202.43C672.153 202.43 672.649 202.224 673.015 201.859C673.38 201.493 673.585 200.998 673.585 200.481C673.585 199.964 673.38 199.468 673.015 199.103C672.649 198.738 672.153 198.532 671.637 198.532C671.12 198.532 670.624 198.738 670.259 199.103C669.893 199.468 669.688 199.964 669.688 200.481C669.688 200.998 669.893 201.493 670.259 201.859C670.624 202.224 671.12 202.43 671.637 202.43V202.43Z" fill="#1E0E62"/>
<path d="M684.965 195.777C685.482 195.777 685.978 195.572 686.343 195.207C686.709 194.841 686.914 194.345 686.914 193.829C686.914 193.312 686.709 192.816 686.343 192.451C685.978 192.085 685.482 191.88 684.965 191.88C684.448 191.88 683.953 192.085 683.587 192.451C683.222 192.816 683.017 193.312 683.017 193.829C683.017 194.345 683.222 194.841 683.587 195.207C683.953 195.572 684.448 195.777 684.965 195.777Z" fill="#1E0E62"/>
<path d="M681.64 209.651C682.156 209.651 682.652 209.446 683.018 209.081C683.383 208.715 683.588 208.219 683.588 207.703C683.588 207.186 683.383 206.69 683.018 206.325C682.652 205.959 682.156 205.754 681.64 205.754C681.123 205.754 680.627 205.959 680.262 206.325C679.896 206.69 679.691 207.186 679.691 207.703C679.691 208.219 679.896 208.715 680.262 209.081C680.627 209.446 681.123 209.651 681.64 209.651Z" fill="#1E0E62"/>
<path d="M629.26 164.832C630.855 164.297 632.556 164.156 634.216 164.423C635.877 164.69 637.449 165.357 638.795 166.365C640.822 167.846 642.771 164.468 640.77 162.987C638.977 161.703 636.906 160.859 634.725 160.525C632.545 160.191 630.316 160.376 628.221 161.064C625.856 161.844 626.869 165.611 629.26 164.832V164.832Z" fill="#1E0E62"/>
<path d="M667.09 161.117C670.34 158.809 674.327 157.782 678.288 158.233C680.886 158.466 680.756 154.569 678.288 154.335C673.626 153.843 668.945 155.062 665.115 157.765C663.062 159.168 665.115 162.572 667.09 161.117Z" fill="#1E0E62"/>
<path d="M607.045 206.56C606.308 203.43 606.398 200.162 607.305 197.077C608.082 194.625 609.385 192.372 611.124 190.477C614.216 186.918 618.191 175.615 622.556 143.709C627.447 147.586 632.754 150.906 638.379 153.608C648.595 158.399 659.585 161.32 670.831 162.234C676.748 162.893 682.705 163.119 688.655 162.91C690.387 166.599 692.119 170.332 693.851 174.108C698.545 183.774 703.335 192.946 708.219 201.624C710.525 200.436 713.179 200.11 715.704 200.706C718.229 201.301 720.458 202.778 721.99 204.871C722.944 206.692 723.345 208.752 723.141 210.798C722.938 212.843 722.14 214.784 720.847 216.382C719.059 218.527 716.637 220.05 713.929 220.731C711.221 221.413 708.367 221.218 705.777 220.175C702.763 227.52 699.732 234.864 696.683 242.208C688.465 247.096 682.041 254.504 678.366 263.332C670.104 284.586 681.094 312.881 703.153 322.832C721.574 331.146 739.813 323.118 743.243 321.507C750.286 318.868 756.715 314.817 762.135 309.603C767.554 304.389 771.851 298.121 774.759 291.185C775.383 289.626 783.541 268.529 773.434 248.444C767.406 236.44 759.326 233.764 751.09 226.099C723.029 200.117 745.711 165.092 723.497 136.434C701.854 108.529 648.798 100.942 621.881 121.909C615.926 126.678 611.181 132.785 608.032 139.733C603.542 140.602 599.273 142.37 595.483 144.93C574.853 159.35 587.117 188.425 569.631 227.346C559.576 249.665 552.015 247.898 547.936 266.138C547.13 269.698 539.258 307.32 563.057 326.625C587.481 346.424 631.416 335.589 643.602 311.867C648.798 301.734 647.291 291.263 646.2 283.287C641.835 253.511 621.153 235.089 613.411 228.879C612.364 229.9 611.123 230.702 609.763 231.237C608.402 231.772 606.948 232.031 605.486 231.997C600.004 231.581 597.198 226.177 596.289 224.462C595.769 223.449 591.56 215.42 596.289 209.938C599.926 205.677 606.448 206.404 607.045 206.56Z" fill="#1E0E62"/>
</g>
<defs>
<clipPath id="clip0_109:4438">
<rect width="1342" height="1401" fill="white"/>
</clipPath>
</defs>
</svg>
