<svg width="1388" height="1041" viewBox="0 0 1388 1041" fill="none" xmlns="http://www.w3.org/2000/svg">
<path d="M1032.14 796.929C1015.92 780.187 1003.51 760.147 995.878 738.113C995.618 738.633 995.271 739.154 995.011 739.674C997.006 739.241 998.914 738.894 1000.91 738.46C1002.04 738.2 1002.21 736.638 1001.26 736.118C993.796 732.127 992.929 719.288 991.28 711.914C989.112 702.285 987.116 692.656 985.381 683.027C981.738 663.248 978.962 643.295 976.967 623.256C976.273 623.603 975.665 624.037 974.971 624.384C989.459 632.972 1003.25 642.601 1016.18 653.445C1027.8 663.248 1039.43 673.744 1047.67 686.583C1056.52 700.203 1060.77 716.686 1063.37 732.474C1066.32 749.911 1066.32 767.695 1062.16 784.958C1061.72 786.606 1064.24 787.3 1064.67 785.652C1071.18 759.367 1067.88 731.346 1059.55 705.842C1051.48 681.465 1033.27 663.855 1013.75 648.066C1001.95 638.524 989.372 629.849 976.36 622.128C975.579 621.694 974.277 622.215 974.364 623.256C976.446 644.683 979.482 665.937 983.473 687.017C985.468 697.514 987.637 708.011 990.153 718.334C991.801 725.361 992.929 734.556 999.955 738.373C1000.04 737.592 1000.13 736.811 1000.3 736.031C998.307 736.464 996.399 736.812 994.403 737.245C993.709 737.419 993.276 738.2 993.536 738.807C1001.34 761.275 1013.92 781.661 1030.49 798.751C1031.53 799.966 1033.35 798.144 1032.14 796.929Z" fill="#E8E8E8"/>
<path d="M977.227 625.424C1008.63 670.881 1030.32 722.584 1040.73 776.803C1041.07 778.451 1043.59 777.757 1043.24 776.109C1032.75 721.63 1010.97 669.666 979.396 624.036C978.528 622.735 976.273 624.036 977.227 625.424Z" fill="#E8E8E8"/>
<path d="M987.637 700.203C1000.74 703.066 1014.53 706.275 1023.64 716.945C1024.68 718.247 1026.59 716.338 1025.46 715.124C1016.09 704.107 1001.86 700.637 988.331 697.687C986.683 697.34 985.989 699.856 987.637 700.203Z" fill="#E8E8E8"/>
<path d="M1022.16 700.376C1021.21 688.231 1023.12 676.172 1027.98 664.982C1028.67 663.42 1026.41 662.119 1025.72 663.68C1020.69 675.305 1018.52 687.71 1019.56 700.376C1019.73 702.024 1022.34 702.024 1022.16 700.376Z" fill="#E8E8E8"/>
<path d="M1043.07 676.52C1049.32 637.656 1075.95 607.467 1101.45 579.274C1100.76 578.84 1099.98 578.406 1099.28 577.972C1093.3 599.399 1107.35 619.265 1112.47 639.391C1115.25 650.495 1116.55 661.946 1116.81 673.397C1116.98 679.036 1116.89 684.761 1116.72 690.4C1116.63 693.176 1116.63 696.039 1116.03 698.728C1115.16 702.458 1111 708.271 1106.57 704.367C1106.05 705.061 1105.53 705.755 1105.01 706.449C1112.64 710.439 1109.87 721.89 1108.65 728.57C1107.09 737.592 1104.49 746.18 1098.68 753.467C1090.26 763.877 1078.2 771.598 1074.21 784.958C1073.69 786.606 1076.21 787.213 1076.73 785.652C1081.67 769.343 1099.11 761.535 1106.31 746.441C1110.04 738.633 1111.69 729.438 1112.47 720.936C1113.08 714.777 1112.47 707.403 1106.31 704.28C1105.1 703.673 1103.53 705.321 1104.75 706.362C1107.44 708.791 1111.17 708.791 1114.21 706.796C1117.59 704.54 1118.63 700.376 1118.98 696.473C1120.36 683.373 1119.76 669.58 1118.2 656.568C1116.63 643.555 1113.16 631.323 1108.31 619.265C1103.19 606.426 1097.9 592.806 1101.8 578.84C1102.15 577.625 1100.5 576.584 1099.63 577.539C1073.87 606.079 1046.89 636.702 1040.55 675.913C1040.29 677.474 1042.81 678.168 1043.07 676.52Z" fill="#E8E8E8"/>
<path d="M1096.33 586.82C1078.29 631.323 1067.1 678.341 1063.11 726.227C1062.94 727.876 1065.54 727.876 1065.71 726.227C1069.7 678.602 1080.89 631.843 1098.85 587.514C1099.46 586.039 1096.94 585.345 1096.33 586.82Z" fill="#E8E8E8"/>
<path d="M848.403 723.105C869.657 727.703 890.39 717.466 910.863 713.389C933.418 708.965 956.667 708.965 979.309 713.042C980.957 713.302 981.651 710.873 980.003 710.526C959.01 706.709 937.582 706.449 916.589 709.746C905.832 711.481 895.422 714.43 885.012 717.38C873.301 720.589 861.242 723.192 849.184 720.589C847.449 720.242 846.755 722.671 848.403 723.105Z" fill="#E8E8E8"/>
<path d="M1114.03 715.123C1126.35 712.781 1138.5 715.731 1150.38 718.68C1162 721.456 1173.72 723.972 1185.6 726.054C1208.5 730.044 1231.75 732.387 1255 733.341C1256.65 733.428 1256.65 730.825 1255 730.738C1230.28 729.784 1205.73 727.095 1181.35 722.671C1169.55 720.502 1157.93 717.813 1146.3 715.037C1135.46 712.434 1124.44 710.526 1113.34 712.694C1111.78 712.955 1112.47 715.47 1114.03 715.123Z" fill="#E8E8E8"/>
<path d="M133.497 642.428C164.206 635.314 194.916 627.073 226.059 622.562C257.115 618.138 288.606 617.617 319.922 620.306C380.127 625.511 438.596 641.3 497.586 653.532C530.118 660.298 562.996 665.85 596.221 668.106C597.869 668.192 597.869 665.59 596.221 665.503C535.323 661.339 476.159 645.811 416.649 633.145C357.485 620.653 297.281 611.631 236.729 618.571C201.595 622.649 167.242 631.931 132.803 639.912C131.154 640.259 131.848 642.775 133.497 642.428Z" fill="#E8E8E8"/>
<path d="M379.867 625.424C430.789 620.999 480.67 609.028 530.031 596.189C580.519 583.003 631.008 569.644 681.496 556.284C731.898 543.011 782.213 529.392 832.788 516.466C857.946 510.046 883.364 504.234 909.215 501.805C934.112 499.463 959.27 499.81 984.167 502.152C1042.29 507.531 1098.85 523.059 1154.98 538.5C1156.63 538.934 1157.32 536.418 1155.67 535.985C1106.31 522.365 1056.69 508.745 1005.77 501.979C980.437 498.595 954.759 496.86 929.168 497.901C904.01 498.856 879.2 502.846 854.649 508.398C829.665 514.124 804.942 520.977 780.131 527.57C754.8 534.25 729.469 540.929 704.138 547.609C652.956 561.055 601.686 574.588 550.504 588.035C494.377 602.782 437.902 617.703 379.867 622.735C378.218 622.995 378.218 625.597 379.867 625.424Z" fill="#E8E8E8"/>
<path d="M240.112 781.401C261.279 782.182 282.533 782.962 303.7 783.743C324.347 784.524 345.08 785.738 365.726 785.912C385.852 786.085 405.284 782.182 425.063 778.625C445.71 774.895 466.617 772.205 487.523 770.731C510.859 768.996 534.282 768.735 557.617 769.69C559.266 769.776 559.266 767.174 557.617 767.087C516.671 765.352 475.639 767.694 435.213 774.287C414.567 777.671 394.094 782.876 373.187 783.309C352.714 783.83 331.981 782.268 311.508 781.488C287.738 780.62 263.969 779.753 240.199 778.885C238.464 778.712 238.464 781.314 240.112 781.401Z" fill="#E8E8E8"/>
<path d="M197.518 895.043C198.819 895.997 200.121 896.865 201.422 897.819C202.636 898.686 204.024 896.778 202.983 895.737C198.993 891.573 195.089 887.496 191.099 883.332C189.277 881.423 187.108 879.688 185.633 877.52C183.378 874.223 185.72 872.662 186.241 869.972C186.848 867.196 184.072 865.635 182.51 863.9C179.04 860.17 176.785 855.485 175.05 850.714C167.85 831.022 165.334 808.814 164.64 787.994C164.206 788.427 163.772 788.861 163.339 789.295C185.2 787.3 197.865 807.946 205.152 825.383C213.307 844.728 220.767 864.941 221.721 886.195C221.808 887.843 224.411 887.843 224.324 886.195C223.283 863.466 215.128 841.432 205.933 820.785C198.299 803.522 184.506 784.697 163.252 786.606C162.558 786.692 161.951 787.126 161.951 787.907C162.384 799.098 163.425 810.202 165.247 821.219C167.069 831.976 169.151 843.08 173.141 853.23C174.616 856.96 176.438 860.517 178.867 863.64C180.602 865.808 183.551 867.717 182.51 870.927C182.077 872.228 181.209 872.922 181.296 874.483C181.469 878.3 185.633 881.423 187.976 883.852C192.313 888.363 196.737 892.961 201.075 897.472C201.595 896.778 202.116 896.084 202.636 895.39C201.335 894.436 200.034 893.568 198.733 892.614C197.431 891.833 196.13 894.089 197.518 895.043Z" fill="#E8E8E8"/>
<path d="M213.654 835.967C221.201 816.188 234.474 798.924 251.737 786.693C251.13 786.519 250.522 786.346 249.915 786.259C254.773 797.363 258.07 808.987 259.805 820.959C260.065 820.438 260.412 819.918 260.672 819.397C258.59 820.005 256.508 820.612 254.339 821.219C253.472 821.479 253.212 822.347 253.559 823.128C255.988 828.94 258.677 835.533 255.988 841.692C253.732 846.811 248.874 850.627 245.491 854.878C239.332 862.512 234.56 871.014 230.917 880.036C230.31 881.597 232.825 882.291 233.433 880.73C238.291 868.498 245.578 858.782 254.166 848.979C257.289 845.422 259.631 841.519 259.805 836.661C259.978 831.456 257.809 826.511 255.814 821.826C255.554 822.434 255.294 823.128 255.033 823.735C257.115 823.128 259.197 822.52 261.366 821.913C262.06 821.74 262.407 821.046 262.234 820.352C260.412 808.12 257.029 796.322 252.084 784.958C251.824 784.35 250.869 784.09 250.262 784.524C232.392 797.276 218.772 814.886 210.964 835.359C210.617 836.834 213.046 837.528 213.654 835.967Z" fill="#E8E8E8"/>
<path d="M172.36 802.047C194.482 827.465 208.882 859.129 213.306 892.527C213.567 894.176 216.169 894.176 215.909 892.527C211.311 858.348 196.824 826.164 174.182 800.139C173.054 798.924 171.233 800.746 172.36 802.047Z" fill="#E8E8E8"/>
<path d="M225.451 863.38C229.529 848.979 235.254 835.186 242.628 822.087C243.409 820.612 241.24 819.311 240.372 820.785C232.912 834.058 227.1 848.112 222.936 862.686C222.415 864.334 224.931 865.028 225.451 863.38Z" fill="#E8E8E8"/>
<path d="M173.228 754.769C203.59 748.87 234.647 746.615 265.183 752.427C279.41 755.116 293.463 758.239 307.864 759.887C323.045 761.622 338.4 762.316 353.668 762.923C355.316 763.01 355.316 760.408 353.668 760.321C338.4 759.627 323.045 759.02 307.864 757.285C292.075 755.463 276.634 751.733 260.932 749.044C231.611 744.012 201.509 746.701 172.534 752.34C170.886 752.6 171.58 755.116 173.228 754.769Z" fill="#E8E8E8"/>
<path d="M287.651 857.915C305.001 855.139 322.351 852.276 339.875 851.235C357.659 850.194 374.835 851.669 392.272 854.878C408.234 857.828 423.675 859.216 439.984 858.869C456.901 858.435 473.99 857.654 490.473 862.079C492.121 862.512 492.815 859.997 491.167 859.563C475.205 855.225 458.809 855.746 442.413 856.18C433.738 856.44 424.977 856.527 416.302 855.833C407.366 855.139 398.518 853.317 389.756 851.755C372.927 848.719 356.184 847.591 339.007 848.632C321.571 849.76 304.221 852.536 286.957 855.312C285.309 855.659 286.003 858.175 287.651 857.915Z" fill="#E8E8E8"/>
<path d="M764.516 878.647C797.047 873.963 829.752 871.187 862.63 870.493C894.641 869.799 926.652 871.1 958.663 871.794C960.311 871.794 960.311 869.191 958.663 869.191C926.131 868.497 893.513 867.196 860.895 867.977C828.364 868.758 796.006 871.534 763.822 876.131C762.174 876.392 762.868 878.821 764.516 878.647Z" fill="#E8E8E8"/>
<path d="M908.695 897.299C921.1 892.007 934.459 898.427 947.212 897.82C949.901 897.646 952.677 897.299 955.279 896.432C958.836 895.217 962.133 893.309 965.95 893.135C972.543 892.788 978.702 895.304 985.295 894.263C986.943 894.003 986.249 891.487 984.601 891.747C977.227 892.962 970.027 889.318 962.74 890.966C959.443 891.66 956.494 893.395 953.284 894.35C949.988 895.217 946.604 895.391 943.221 895.304C931.163 894.783 919.105 890.186 907.307 895.217C905.919 895.651 907.22 897.906 908.695 897.299Z" fill="#E8E8E8"/>
<path d="M1084.19 801.44C1106.05 794.934 1127.91 795.107 1150.29 797.797C1171.37 800.312 1192.63 803.609 1213.79 799.879C1215.44 799.618 1214.75 797.103 1213.1 797.363C1191.07 801.267 1168.94 797.276 1147 794.847C1125.4 792.418 1104.32 792.678 1083.41 799.011C1081.93 799.445 1082.54 801.961 1084.19 801.44Z" fill="#E8E8E8"/>
<path d="M997.006 305.404C980.87 296.729 970.374 279.899 972.803 261.248C974.971 244.158 988.678 229.411 1005.42 225.42C1022.51 221.43 1041.6 229.497 1050.88 244.332C1060.85 260.207 1058.69 281.2 1046.45 295.254C1032.57 311.216 1008.28 313.645 990.76 302.367C989.372 301.413 988.071 303.669 989.459 304.623C1005.77 315.206 1028.32 314.512 1043.42 301.934C1058.42 289.442 1063.98 267.754 1056.52 249.623C1049.4 232.36 1031.19 221.083 1012.53 221.863C994.143 222.731 977.487 236.004 971.935 253.44C964.995 275.041 976.62 297.249 995.791 307.572C997.179 308.44 998.481 306.184 997.006 305.404Z" fill="#E8E8E8"/>
<path d="M248.267 495.126C257.115 487.232 269.52 492.61 276.113 500.591C279.497 504.668 281.492 509.266 284.094 513.777C285.743 516.813 288.172 519.85 291.815 520.544C294.678 521.064 297.02 520.023 298.929 517.941C300.143 516.553 300.924 514.731 302.138 513.343C304.741 510.307 308.124 510.654 310.9 513.083C316.973 518.375 317.233 531.474 327.903 530.52C329.551 530.346 329.551 527.744 327.903 527.917C316.799 528.958 318.1 510.307 307.43 508.485C304.307 507.965 301.791 509.353 299.883 511.782C298.668 513.343 297.888 515.512 296.326 516.813C291.815 520.544 287.825 515.339 286.003 511.782C281.579 503.627 277.241 495.126 268.479 490.875C261.279 487.405 252.517 487.752 246.445 493.217C245.23 494.345 247.052 496.254 248.267 495.126Z" fill="#E8E8E8"/>
<path d="M832.181 378.36C830.446 373.676 828.364 368.124 831.487 363.526C834.35 359.449 839.208 361.531 843.285 360.229C848.663 358.494 851.96 353.203 853.435 348.084C855.17 342.099 853.088 334.291 856.644 328.999C860.982 322.493 870.351 330.474 876.25 326.484C877.638 325.529 876.337 323.274 874.949 324.228C868.963 328.305 860.808 319.977 855.17 326.657C850.659 331.949 852.741 340.017 851.266 346.263C850.225 350.6 847.883 355.198 843.805 357.28C840.249 359.102 836.171 357.28 832.615 359.102C824.981 363.005 827.41 372.721 829.752 379.054C830.186 380.529 832.701 379.922 832.181 378.36Z" fill="#E8E8E8"/>
<path d="M841.55 317.548C839.902 313.21 840.856 308.266 844.066 304.796C848.056 300.458 852.654 302.193 857.599 300.458C860.548 299.417 862.283 296.901 863.411 294.125C864.105 292.39 864.539 290.569 865.146 288.834C865.667 287.446 866.274 285.884 867.315 284.843C868.876 283.368 872.607 282.154 873.561 285.45C874.081 287.012 876.51 286.405 876.076 284.756C874.949 281.113 870.698 279.812 867.401 281.547C861.155 284.756 863.411 294.299 857.599 297.509C854.389 299.244 850.399 298.203 847.015 299.591C844.847 300.545 842.938 302.106 841.463 303.928C838.254 308.005 837.213 313.384 839.034 318.242C839.555 319.803 842.071 319.109 841.55 317.548Z" fill="#E8E8E8"/>
<path d="M914.594 410.197C911.991 406.467 912.772 401.175 916.155 398.052C920.059 394.409 925.697 396.057 928.387 400.221C934.546 409.503 920.926 417.658 914.42 409.937C913.292 408.636 911.471 410.544 912.598 411.759C916.329 416.183 923.268 416.703 928.04 413.58C933.418 410.11 933.852 403.084 930.122 398.139C926.478 393.281 919.712 391.633 914.854 395.623C910.256 399.353 908.868 406.467 912.338 411.412C913.292 412.886 915.548 411.585 914.594 410.197Z" fill="#E8E8E8"/>
<path d="M924.396 424.598C921.967 421.215 918.931 417.137 919.972 412.8C921.534 406.38 929.168 408.029 932.638 411.846C935.5 415.055 936.541 420.087 932.898 423.123C930.122 425.465 925.871 425.899 923.355 423.123C922.228 421.909 920.406 423.73 921.534 424.945C925.004 428.675 930.903 428.328 934.633 425.118C939.057 421.301 938.537 414.969 935.067 410.718C931.597 406.38 923.702 403.257 919.365 408.202C914.507 413.754 918.584 420.954 922.141 425.899C923.095 427.287 925.351 425.986 924.396 424.598Z" fill="#E8E8E8"/>
<path d="M341.003 605.385C350.719 608.335 360.608 610.07 370.671 610.417C372.319 610.503 372.319 607.901 370.671 607.814C360.782 607.467 351.066 605.819 341.697 602.869C340.048 602.349 339.354 604.865 341.003 605.385Z" fill="#E8E8E8"/>
<path d="M991.628 535.985C1050.62 535.551 1106.14 557.585 1161.83 573.894C1177.79 578.579 1193.93 582.83 1210.24 586.04C1211.89 586.387 1212.58 583.871 1210.93 583.524C1153.07 572.073 1098.5 547.522 1040.29 537.546C1024.25 534.77 1007.94 533.209 991.628 533.382C989.979 533.382 989.979 535.985 991.628 535.985Z" fill="#E8E8E8"/>
<path d="M411.704 159.837C414.74 167.124 418.47 183.26 429.401 176.06C433.044 173.717 438.423 166.864 442.327 172.416C444.669 175.713 444.842 180.05 449.267 181.525C450.828 182.045 451.522 179.53 449.961 179.009C445.883 177.621 445.883 171.375 442.587 168.859C440.418 167.211 437.729 167.298 435.387 168.512C431.917 170.161 429.401 173.891 425.757 175.105C419.251 177.274 415.955 163.307 414.22 159.143C413.526 157.669 411.01 158.276 411.704 159.837Z" fill="#E8E8E8"/>
<path d="M438.683 161.399C443.541 157.668 450.655 159.403 453.084 165.042C454.558 168.599 455.686 170.681 459.85 170.941C461.845 171.028 464.014 170.334 466.009 170.681C470.173 171.375 470.173 175.018 470.867 178.402C471.561 181.785 473.123 184.734 476.766 185.168C478.415 185.342 478.415 182.739 476.766 182.566C471.995 182.045 473.99 172.242 470.26 169.466C466.27 166.517 460.284 170.421 457.161 166.777C455.686 165.042 455.252 162.7 453.691 160.965C452.476 159.49 450.828 158.449 449.006 157.755C445.103 156.194 440.765 156.714 437.469 159.23C435.994 160.184 437.295 162.44 438.683 161.399Z" fill="#E8E8E8"/>
<path d="M516.758 243.204C522.223 244.332 528.035 240.862 529.51 235.31C530.898 230.105 527.515 225.16 522.57 223.512C511.032 219.608 504.613 235.483 513.982 241.99C515.37 242.944 516.671 240.688 515.283 239.734C508.69 235.136 512.767 223.599 521.182 225.767C524.826 226.722 527.862 230.018 527.168 233.922C526.387 238.346 521.876 241.556 517.452 240.602C515.804 240.341 515.11 242.857 516.758 243.204Z" fill="#E8E8E8"/>
<path d="M525.173 247.628C523.091 245.979 520.575 244.158 519.708 241.468C518.493 237.825 521.963 233.487 526.04 234.528C528.903 235.309 530.898 238.606 530.204 241.555C529.337 244.852 525.606 246.5 522.483 245.719C520.835 245.285 520.141 247.801 521.789 248.235C526.04 249.276 530.725 247.281 532.46 243.117C534.108 239.039 531.852 234.095 527.862 232.36C523.871 230.711 519.274 232.88 517.539 236.697C515.11 241.989 519.534 246.413 523.438 249.449C524.565 250.49 526.474 248.669 525.173 247.628Z" fill="#E8E8E8"/>
<path d="M352.107 418.959C348.116 415.403 347.335 410.024 351.239 406.034C354.622 402.65 359.654 402.737 362.864 406.294C369.543 413.754 359.914 423.47 352.02 418.352C350.632 417.398 349.33 419.653 350.718 420.608C355.403 423.644 361.823 422.603 365.466 418.439C369.196 414.101 368.069 407.595 364.078 403.778C359.827 399.788 353.495 400.048 349.417 404.125C344.472 409.07 345.253 416.27 350.285 420.781C351.499 421.909 353.321 420.087 352.107 418.959Z" fill="#E8E8E8"/>
<path d="M721.922 173.717C726.953 162.7 733.98 152.897 742.655 144.482C743.869 143.354 742.048 141.446 740.833 142.66C731.985 151.249 724.871 161.225 719.666 172.502C718.972 173.89 721.228 175.278 721.922 173.717Z" fill="#E8E8E8"/>
<path d="M732.766 171.982C737.971 165.562 743.783 159.576 750.029 154.111C751.33 152.983 749.422 151.162 748.207 152.289C741.961 157.755 736.236 163.74 730.944 170.16C729.903 171.461 731.725 173.283 732.766 171.982Z" fill="#E8E8E8"/>
<path d="M739.358 179.79C741.701 177.794 744.043 175.886 746.385 173.891C747.686 172.85 745.778 170.941 744.563 172.069C742.221 174.064 739.879 175.973 737.537 177.968C736.236 179.009 738.057 180.831 739.358 179.79Z" fill="#E8E8E8"/>
<path d="M1030.98 63.4531C1040.66 63.4531 1048.5 55.61 1048.5 45.9351C1048.5 36.2601 1040.66 28.417 1030.98 28.417C1021.31 28.417 1013.46 36.2601 1013.46 45.9351C1013.46 55.61 1021.31 63.4531 1030.98 63.4531Z" fill="#EC615B"/>
<path d="M1022.94 90.6902C1028.71 90.6902 1033.38 86.0166 1033.38 80.2513C1033.38 74.4861 1028.71 69.8125 1022.94 69.8125C1017.18 69.8125 1012.5 74.4861 1012.5 80.2513C1012.5 86.0166 1017.18 90.6902 1022.94 90.6902Z" fill="#EC615B"/>
<path d="M469.923 556.119C477.014 556.119 482.762 550.37 482.762 543.28C482.762 536.189 477.014 530.441 469.923 530.441C462.833 530.441 457.085 536.189 457.085 543.28C457.085 550.37 462.833 556.119 469.923 556.119Z" fill="#EC615B"/>
<path d="M490.801 591.275C494.711 591.275 497.88 588.105 497.88 584.195C497.88 580.286 494.711 577.116 490.801 577.116C486.891 577.116 483.722 580.286 483.722 584.195C483.722 588.105 486.891 591.275 490.801 591.275Z" fill="#EC615B"/>
<path d="M615.827 397.496C616.907 407.934 620.266 417.173 632.145 416.933C636.225 416.933 639.704 415.734 642.824 418.853C645.704 421.733 644.864 424.613 646.064 428.212C646.664 430.012 647.503 431.692 649.183 432.892C651.343 434.452 659.502 434.452 658.782 438.051C658.302 440.331 661.782 441.291 662.262 439.011C663.102 434.932 660.342 432.532 656.502 431.452C650.983 429.892 649.663 427.732 648.823 422.813C648.463 420.533 647.983 418.253 646.424 416.334C643.304 412.614 638.264 413.094 633.945 413.214C629.265 413.454 624.826 413.094 622.306 408.534C620.386 405.175 619.907 401.095 619.547 397.376C619.187 395.216 615.587 395.216 615.827 397.496Z" fill="#1E0E62"/>
<path d="M628.066 441.651C634.305 435.051 641.744 441.771 643.664 448.37C644.504 451.009 644.624 453.529 646.544 455.569C650.863 460.368 658.782 457.729 662.742 462.768C664.182 464.568 666.702 462.048 665.262 460.248C662.622 456.889 658.902 456.409 654.943 455.569C651.223 454.729 649.184 453.409 647.744 449.69C646.784 447.41 646.664 445.01 645.344 442.73C641.264 435.411 631.665 432.532 625.546 439.011C623.866 440.811 626.386 443.33 628.066 441.651Z" fill="#1E0E62"/>
<path d="M1054.26 429.532C1051.98 425.212 1056.78 421.973 1060.38 424.613C1061.46 425.332 1063.14 424.373 1063.14 423.053C1062.78 418.973 1066.86 415.974 1070.7 417.413C1072.86 418.253 1073.82 414.774 1071.66 413.934C1065.66 411.654 1059.06 416.693 1059.54 423.053C1060.5 422.573 1061.34 421.973 1062.3 421.493C1055.46 416.573 1047.42 424.133 1051.26 431.332C1052.22 433.372 1055.34 431.572 1054.26 429.532Z" fill="#1E0E62"/>
<path d="M1074.66 427.612C1073.82 425.572 1079.58 425.212 1080.54 425.212C1083.54 425.332 1086.42 425.812 1089.41 426.052C1091.69 426.292 1091.69 422.692 1089.41 422.452C1084.74 421.973 1079.46 420.653 1074.9 422.572C1071.9 423.892 1070.22 426.292 1071.54 429.412C1072.38 431.571 1075.5 429.652 1074.66 427.612Z" fill="#1E0E62"/>
<path d="M449.406 571.596C457.225 571.596 463.564 565.257 463.564 557.438C463.564 549.618 457.225 543.279 449.406 543.279C441.586 543.279 435.247 549.618 435.247 557.438C435.247 565.257 441.586 571.596 449.406 571.596Z" fill="#EC615B"/>
<path d="M583.431 40.895C593.967 40.895 602.509 32.3536 602.509 21.8171C602.509 11.2807 593.967 2.73926 583.431 2.73926C572.894 2.73926 564.353 11.2807 564.353 21.8171C564.353 32.3536 572.894 40.895 583.431 40.895Z" fill="#EC615B"/>
<path d="M237.629 778.453C250.949 778.453 261.746 767.656 261.746 754.336C261.746 741.016 250.949 730.219 237.629 730.219C224.309 730.219 213.512 741.016 213.512 754.336C213.512 767.656 224.309 778.453 237.629 778.453Z" fill="#EC615B"/>
<path d="M1060.86 693.382C1067.68 693.382 1073.22 687.849 1073.22 681.024C1073.22 674.198 1067.68 668.665 1060.86 668.665C1054.03 668.665 1048.5 674.198 1048.5 681.024C1048.5 687.849 1054.03 693.382 1060.86 693.382Z" fill="#EC615B"/>
<path d="M923.353 974.511C948.79 968.392 974.347 962.153 999.784 956.033C1016.1 957.233 1040.34 957.593 1069.14 952.794C1096.49 948.234 1148.93 935.396 1148.57 921.237C1148.33 911.878 1124.93 905.159 1086.29 894C1060.74 886.681 1039.26 882.362 1024.98 879.842C1009.14 887.641 992.105 895.32 973.747 902.639C948.91 912.598 925.273 920.397 903.315 926.517C909.914 942.595 916.633 958.553 923.353 974.511Z" fill="#1E0E62" stroke="#1E0E62" stroke-width="3" stroke-miterlimit="10"/>
<path d="M860.48 950.154C885.917 944.035 911.474 937.795 936.911 931.676C953.229 932.876 977.467 933.236 1006.26 928.436C1033.62 923.877 1086.05 911.038 1085.69 896.88C1085.45 887.521 1062.06 880.802 1023.42 869.643C997.864 862.324 976.387 858.004 962.108 855.484C946.27 863.284 929.232 870.963 910.874 878.282C886.037 888.241 862.399 896.04 840.442 902.159C847.041 918.357 853.76 934.316 860.48 950.154Z" fill="#1E0E62" stroke="#1E0E62" stroke-width="3" stroke-miterlimit="10"/>
<path d="M729.214 728.539C706.537 740.778 686.979 754.336 683.619 756.616C672.101 764.655 645.224 783.493 618.587 810.97C579.231 851.525 546.115 885.602 548.274 928.797C550.194 967.672 579.591 994.669 582.83 997.549C635.265 1044.34 747.332 1027.31 860.48 955.194C856.4 933.716 852.441 912.359 848.361 890.881C858.44 888.841 881.237 882.722 901.995 863.164C927.792 838.807 933.552 809.29 934.992 799.691C934.872 788.772 933.552 775.934 929.832 762.015C918.433 719.3 891.316 692.303 876.918 679.944C839.602 686.424 783.448 699.502 729.214 728.539Z" fill="white" stroke="#1E0E62" stroke-width="3" stroke-miterlimit="10"/>
<path d="M815.004 750.977C791.967 763.455 771.449 777.614 769.41 779.054C739.653 799.811 718.655 819.729 704.377 833.408C653.382 882.362 617.146 915.598 621.946 955.914C626.625 994.67 665.381 1018.07 668.621 1019.87C691.298 1033.07 714.336 1033.43 732.814 1032.47C815.844 1028.15 908.954 992.75 946.27 977.512C942.19 956.034 938.231 934.676 934.151 913.199C944.23 909.839 972.787 898.56 991.625 868.804C994.505 864.244 1004.58 847.566 1007.34 823.689C1008.18 816.849 1009.14 802.451 1001.58 772.574C996.904 754.096 988.505 728.299 972.787 699.022C939.671 704.902 874.998 718.58 815.004 750.977Z" fill="white" stroke="#1E0E62" stroke-width="3" stroke-miterlimit="10"/>
<path d="M804.086 936.117C848.601 937.197 892.996 930.478 935.111 916.199C937.271 915.479 936.311 912 934.152 912.72C892.276 926.998 848.361 933.717 804.086 932.517C801.806 932.397 801.806 935.997 804.086 936.117Z" fill="#161616"/>
<path d="M792.447 923.517C795.447 928.677 800.006 932.756 805.526 935.036C807.685 935.876 809.485 932.876 807.325 931.917C802.286 929.757 798.326 926.397 795.567 921.718C794.367 919.678 791.247 921.478 792.447 923.517Z" fill="#161616"/>
<path opacity="0.12" d="M868.039 834.607C826.284 858.004 804.686 854.165 763.171 886.561C752.372 895.08 689.259 944.395 697.298 994.429C698.018 998.629 701.737 1022.15 719.255 1031.39C726.695 1035.34 734.014 1035.1 744.213 1034.38C778.409 1031.75 804.806 1025.27 808.046 1024.43C850.041 1013.99 842.962 1018.31 871.878 1010.51C890.956 1005.35 916.754 997.189 946.75 984.59C942.791 963.593 938.711 942.715 934.752 921.717C943.511 917.638 955.509 910.798 967.748 899.76C976.627 891.721 1001.94 868.923 1007.7 832.927C1010.82 813.609 1006.98 798.851 1000.74 774.973C994.385 750.616 985.506 731.658 978.787 719.06C941.351 784.692 899.355 817.209 868.039 834.607Z" fill="#3D3D3D"/>
<path opacity="0.11" d="M823.164 731.059C821.484 728.179 768.69 752.176 708.337 795.972C633.705 850.086 592.309 882.122 590.51 927.717C588.47 980.871 661.302 1025.27 664.421 1022.51C666.101 1020.95 622.186 990.59 621.466 946.675C620.986 917.998 639.224 895.321 671.381 862.804C753.572 779.653 825.204 734.538 823.164 731.059Z" fill="#3D3D3D"/>
<path opacity="0.12" d="M992.825 757.096C987.306 778.933 975.907 811.21 950.95 843.006C897.796 910.559 822.324 926.157 800.246 929.877C803.966 933.476 807.566 937.556 811.285 941.875C831.203 965.873 841.042 991.55 846.201 1011.71C878.838 1000.43 911.474 989.03 943.99 977.751C938.951 957.834 934.032 937.796 928.992 917.878C939.311 913.678 956.109 905.159 971.947 888.961C978.547 882.122 994.505 865.444 1001.94 839.047C1012.74 799.931 997.625 766.575 992.825 757.096Z" fill="#3D3D3D"/>
<path d="M733.414 408.894C743.493 410.334 747.812 440.45 749.252 450.409C755.131 490.845 742.653 508.963 740.733 558.517C739.173 597.873 746.372 599.673 743.133 618.87C738.333 646.947 716.136 682.943 637.304 715.58C631.425 721.939 620.986 731.898 605.868 738.257C574.071 751.696 532.316 744.737 526.677 725.419C524.757 718.939 526.557 709.94 530.996 705.741C538.195 698.782 549.234 708.741 567.472 702.141C568.432 701.781 576.591 698.782 576.351 696.622C576.231 695.302 573.112 694.822 569.392 694.342C552.474 691.942 547.434 692.422 547.074 690.983C546.474 688.583 559.433 680.304 576.231 675.504C589.19 671.785 606.708 668.545 628.305 669.625C647.143 648.387 666.101 627.15 684.939 605.912C683.139 578.555 683.499 539.559 693.818 495.284C701.377 463.128 719.255 406.854 733.414 408.894Z" fill="white" stroke="#161616" stroke-width="3" stroke-miterlimit="10"/>
<path opacity="0.12" d="M733.894 408.294C719.135 408.534 705.817 467.208 703.057 508.843C699.578 561.517 713.376 577.955 703.057 610.232C696.218 631.589 678.94 659.066 632.505 684.024C595.909 714.62 571.552 717.86 555.474 714.02C545.635 711.741 533.396 705.381 527.877 710.781C523.197 715.34 525.357 726.619 530.276 734.298C542.035 752.176 577.431 747.857 597.589 740.777C616.307 734.178 628.666 722.659 635.745 714.86C652.183 710.421 690.579 697.582 722.495 661.346C753.572 626.07 760.891 588.514 764.61 568.116C778.889 490.485 751.892 407.934 733.894 408.294Z" fill="#3D3D3D"/>
<path d="M915.914 339.302C958.629 348.301 991.025 384.417 1005.06 417.653C1020.54 454.129 1011.54 482.686 1002.9 543.039C997.025 584.435 990.666 644.068 990.666 718.58C977.707 728.419 916.394 773.294 832.883 761.895C779.849 754.696 743.613 728.419 727.655 715.1C730.294 695.902 732.934 666.146 729.814 630.15C725.255 579.515 713.016 559.717 710.737 519.642C709.297 494.325 711.456 457.009 730.894 410.214C741.813 402.775 757.291 392.936 776.609 382.617C836.603 350.581 874.158 330.543 915.914 339.302Z" fill="#8C30F5"/>
<path opacity="0.14" d="M874.399 395.335C885.437 424.852 901.036 479.566 892.757 547.238C878.958 659.666 808.526 729.138 786.688 749.056C804.206 756.015 840.442 767.534 886.637 762.254C938.831 756.255 974.587 732.018 989.586 720.499C988.266 670.584 991.266 629.069 994.625 598.232C1004.94 505.363 1023.54 471.886 1003.74 420.892C999.065 408.773 983.347 368.218 943.631 349.5C933.192 344.58 923.713 342.421 917.114 341.341C914.714 349.86 909.195 365.098 895.756 379.017C888.317 386.936 880.518 391.975 874.399 395.335Z" fill="#3D3D3D"/>
<path opacity="0.21" d="M1007.94 438.171C976.387 523.841 944.71 609.392 913.154 695.062C885.677 717.5 858.08 739.937 830.603 762.375C851.121 764.175 883.757 764.295 921.313 753.256C952.51 744.017 976.147 730.338 991.625 719.66C991.265 706.941 991.025 688.223 991.625 665.666C993.305 609.032 994.025 580.715 1001.82 546.399C1009.02 514.722 1018.74 490.605 1012.02 454.609C1010.7 447.41 1009.14 441.77 1007.94 438.171Z" fill="#3D3D3D"/>
<path d="M499.56 685.946C513.838 720.502 528.237 755.058 542.515 789.494C600.589 769.337 658.782 749.059 716.856 728.901C702.937 695.665 689.019 662.309 675.221 629.072C616.667 648.03 558.114 666.988 499.56 685.946Z" fill="white" stroke="#161616" stroke-width="3" stroke-miterlimit="10"/>
<path d="M480.842 571.717C500.28 585.876 523.557 605.673 546.475 632.31C565.073 653.908 578.991 674.906 589.43 692.904C612.228 657.508 634.905 622.112 657.703 586.835C631.185 557.319 604.668 527.922 578.151 498.405C545.635 522.883 513.238 547.24 480.842 571.717Z" fill="white" stroke="#161616" stroke-width="3" stroke-miterlimit="10"/>
<path d="M375.734 407.096C375.734 439.492 375.734 471.889 375.734 504.405C400.571 492.166 425.408 479.928 450.245 467.809C466.684 459.77 483.122 451.731 499.56 443.812C494.88 420.174 490.321 396.657 485.641 373.02C449.045 384.298 412.45 395.697 375.734 407.096Z" fill="white" stroke="#161616" stroke-width="3" stroke-miterlimit="10"/>
<path d="M303.382 200.239C315.62 229.276 327.859 258.313 339.978 287.349C383.293 262.512 426.728 237.675 470.043 212.838C451.925 178.281 433.807 143.725 415.689 109.289C404.29 122.488 390.492 136.766 374.054 150.924C348.976 172.762 324.379 188.6 303.382 200.239Z" fill="white" stroke="#161616" stroke-width="3" stroke-miterlimit="10"/>
<path d="M124.002 238.155C120.162 260.473 116.442 282.79 112.603 305.108C156.758 295.029 201.033 284.95 245.188 274.751C244.348 250.274 243.508 225.917 242.668 201.439C203.193 213.678 163.597 225.917 124.002 238.155Z" fill="white" stroke="#161616" stroke-width="3" stroke-miterlimit="10"/>
<path d="M500.879 688.946C542.395 695.065 583.55 702.744 624.346 711.983C626.626 712.463 627.585 708.983 625.306 708.503C584.39 699.264 543.235 691.465 501.839 685.466C499.56 685.226 498.6 688.706 500.879 688.946Z" fill="#161616"/>
<path d="M672.821 630.752C659.502 658.469 643.304 684.746 624.466 708.983C623.026 710.783 625.546 713.303 626.986 711.503C646.064 687.025 662.502 660.508 675.941 632.552C676.901 630.512 673.781 628.712 672.821 630.752Z" fill="#161616"/>
<path d="M510.599 578.917C530.756 557.559 553.194 538.481 577.671 522.163C579.591 520.843 577.791 517.724 575.871 519.044C551.154 535.602 528.477 554.8 508.079 576.397C506.399 577.957 509.039 580.597 510.599 578.917Z" fill="#161616"/>
<path d="M527.997 589.717C543.115 573.038 559.794 557.92 577.792 544.602C579.591 543.282 577.792 540.162 575.992 541.482C557.634 555.04 540.716 570.279 525.477 587.197C523.797 588.877 526.317 591.396 527.997 589.717Z" fill="#161616"/>
<path d="M543.115 609.873C562.673 587.916 584.15 567.638 607.428 549.52C609.227 548.08 606.708 545.56 604.908 547C581.75 565.118 560.153 585.276 540.595 607.354C539.035 609.033 541.675 611.553 543.115 609.873Z" fill="#161616"/>
<path d="M568.792 634.231C575.631 623.193 584.75 613.834 593.749 604.475C603.588 594.516 613.427 584.437 623.266 574.478C624.946 572.798 622.306 570.278 620.746 571.958C610.428 582.517 600.109 592.956 589.79 603.515C580.911 612.514 572.392 621.753 565.672 632.432C564.473 634.351 567.592 636.151 568.792 634.231Z" fill="#161616"/>
<path d="M537.716 738.619C539.875 748.458 543.475 757.697 548.395 766.336C549.474 768.376 552.594 766.576 551.514 764.536C546.715 756.017 543.235 747.138 541.195 737.659C540.715 735.379 537.236 736.339 537.716 738.619Z" fill="#161616"/>
<path d="M540.595 740.779C552.594 733.58 565.552 729.141 579.351 727.221C578.631 726.861 577.911 726.381 577.191 726.021C579.591 733.82 581.871 741.499 584.27 749.298C584.99 751.458 588.47 750.618 587.75 748.338C585.35 740.539 583.07 732.86 580.671 725.061C580.311 723.981 579.471 723.621 578.511 723.861C564.353 725.781 551.154 730.46 538.915 737.78C536.756 738.859 538.555 741.979 540.595 740.779Z" fill="#161616"/>
<path d="M550.674 767.777C562.073 763.097 573.232 757.818 584.27 752.179C586.31 751.099 584.51 747.979 582.471 749.059C571.792 754.578 560.873 759.618 549.714 764.297C547.554 765.257 548.514 768.737 550.674 767.777Z" fill="#161616"/>
<path d="M642.464 713.663C655.663 706.584 669.701 701.664 684.34 698.665C686.619 698.185 685.659 694.705 683.38 695.185C668.381 698.185 654.103 703.344 640.664 710.543C638.505 711.623 640.424 714.743 642.464 713.663Z" fill="#161616"/>
<path d="M646.784 723.981C654.823 720.501 662.862 717.022 670.781 713.542C672.941 712.582 671.021 709.463 668.982 710.422C660.942 713.902 652.903 717.382 644.984 720.861C642.824 721.821 644.744 724.821 646.784 723.981Z" fill="#161616"/>
<path d="M386.532 419.694C415.089 410.215 443.646 398.696 473.283 392.937C475.562 392.457 474.603 388.977 472.323 389.457C442.806 395.337 414.129 406.736 385.572 416.214C383.413 416.934 384.373 420.414 386.532 419.694Z" fill="#161616"/>
<path d="M386.053 435.173C413.41 422.574 441.726 412.375 470.763 404.696C473.043 404.096 472.083 400.617 469.803 401.217C440.407 409.016 411.85 419.335 384.253 432.053C382.213 433.013 384.013 436.133 386.053 435.173Z" fill="#161616"/>
<path d="M383.893 450.771C395.892 445.852 407.65 440.572 419.289 434.933C421.329 433.973 419.529 430.853 417.489 431.813C406.09 437.332 394.572 442.492 382.933 447.291C380.893 448.131 381.733 451.611 383.893 450.771Z" fill="#161616"/>
<path d="M390.492 463.729C415.809 450.891 441.726 439.132 468.123 428.693C470.283 427.853 469.323 424.374 467.163 425.214C440.406 435.773 414.249 447.651 388.692 460.61C386.532 461.69 388.452 464.809 390.492 463.729Z" fill="#161616"/>
<path d="M318.62 207.678C352.696 191.119 384.373 170.242 413.17 145.764C414.969 144.205 412.33 141.685 410.65 143.245C382.093 167.602 350.536 188.12 316.82 204.678C314.66 205.638 316.46 208.757 318.62 207.678Z" fill="#161616"/>
<path d="M325.939 223.276C340.218 214.997 353.896 205.878 367.095 195.919C368.894 194.6 367.095 191.36 365.295 192.8C352.096 202.759 338.418 211.878 324.139 220.157C322.1 221.357 323.899 224.476 325.939 223.276Z" fill="#161616"/>
<path d="M335.058 234.195C365.775 217.757 395.291 199.519 423.728 179.361C425.648 178.042 423.848 174.922 421.928 176.242C393.611 196.4 363.975 214.637 333.258 231.076C331.218 232.156 333.018 235.275 335.058 234.195Z" fill="#161616"/>
<path d="M342.737 252.793C376.694 237.435 409.09 218.957 439.567 197.359C441.487 196.04 439.687 192.92 437.767 194.24C407.41 215.837 375.014 234.315 340.938 249.674C338.778 250.634 340.578 253.633 342.737 252.793Z" fill="#161616"/>
<path opacity="0.13" d="M509.639 551.8C522.477 548.92 535.316 546.04 548.154 543.161C566.392 581.556 584.63 619.952 602.868 658.228C621.106 634.591 639.344 611.073 657.582 587.436C630.705 558.519 603.828 529.482 577.071 500.565C554.514 517.724 532.076 534.762 509.639 551.8Z" fill="#1E0E62"/>
<path opacity="0.21" d="M415.329 398.696C408.61 429.533 401.891 460.489 395.171 491.326C429.488 474.888 463.804 458.33 498.24 441.892C493.2 420.054 488.281 398.096 483.242 376.259C460.564 383.818 437.887 391.257 415.329 398.696Z" fill="#1E0E62"/>
<path opacity="0.08" d="M570.112 665.187C576.831 681.505 583.551 697.823 590.27 714.142C601.429 716.661 612.467 719.181 623.626 721.581C635.745 729.98 647.743 738.499 659.862 746.898C678.22 740.539 696.698 734.179 715.056 727.94C701.018 696.144 687.099 664.227 673.061 632.431C654.703 637.95 636.225 643.589 617.867 649.109C608.268 664.467 598.669 679.825 589.07 695.184C582.711 685.105 576.471 675.146 570.112 665.187Z" fill="#1E0E62"/>
<path opacity="0.15" d="M146.559 239.595C140.8 259.633 135.16 279.791 129.401 299.829C167.677 290.95 205.952 282.07 244.228 273.191C242.908 250.154 241.708 227.117 240.389 204.079C209.072 215.958 177.756 227.836 146.559 239.595Z" fill="#1E0E62"/>
<path opacity="0.11" d="M357.736 171.083C362.175 235.876 365.535 268.152 367.935 268.152C368.655 268.152 369.255 264.912 369.855 258.673C401.291 242.835 432.848 226.997 464.284 211.158C448.446 181.522 432.608 152.005 416.769 122.368C396.972 138.566 377.294 154.885 357.736 171.083Z" fill="#1E0E62"/>
<path d="M977.707 387.656C993.905 385.496 1013.58 432.531 1021.98 460.608C1036.14 508.122 1031.1 549.758 1026.3 588.394C1021.14 629.549 1018.62 650.187 1008.78 671.784C976.987 741.617 897.076 768.374 865.76 777.013C857.24 783.252 842.002 793.211 821.004 799.69C776.489 813.369 718.056 807.489 710.017 784.572C707.377 776.893 709.897 766.334 716.016 761.414C726.215 753.255 741.453 764.894 767.13 757.095C768.45 756.735 779.849 753.135 779.489 750.616C779.249 749.056 775.05 748.576 769.77 747.976C746.133 745.216 739.054 745.696 738.574 744.016C737.854 741.137 755.972 731.538 779.369 725.778C797.607 721.339 822.084 717.499 852.321 718.819C881.838 691.702 911.354 664.465 940.871 637.348C940.631 571.115 945.911 516.522 951.31 476.446C962.589 395.095 972.308 388.376 977.707 387.656Z" fill="white" stroke="#1E0E62" stroke-width="3" stroke-miterlimit="10"/>
<path d="M708.217 783.613C712.776 788.532 721.175 789.972 727.295 791.772C736.294 794.291 745.533 796.211 754.892 797.411C757.171 797.771 758.131 794.291 755.852 793.931C748.052 792.852 740.253 791.412 732.574 789.372C725.975 787.692 715.416 786.252 710.737 780.973C709.177 779.413 706.657 781.933 708.217 783.613Z" fill="#161616"/>
<path d="M710.257 772.693C725.255 781.932 742.053 787.092 759.691 787.931C761.971 788.051 761.971 784.452 759.691 784.332C742.653 783.612 726.575 778.573 712.057 769.574C710.137 768.374 708.217 771.493 710.257 772.693Z" fill="#161616"/>
<path d="M716.616 764.294C733.414 772.813 751.652 777.252 770.49 777.252C772.77 777.252 772.77 773.653 770.49 773.653C752.252 773.653 734.614 769.453 718.416 761.174C716.376 760.094 714.576 763.214 716.616 764.294Z" fill="#161616"/>
<path opacity="0.15" d="M971.468 392.935C982.266 416.453 996.545 454.609 1000.74 503.443C1003.86 540.039 1009.02 602.432 971.468 664.585C934.512 725.659 878.478 749.896 857.72 758.775C836.842 767.774 801.806 782.412 756.331 777.613C737.973 775.693 723.095 771.133 712.776 767.174C710.496 772.213 708.337 779.413 710.856 786.012C719.015 807.489 769.89 807.129 797.247 802.93C812.485 800.65 837.802 794.531 866.119 775.693C900.195 765.614 984.906 735.617 1010.34 667.825C1017.78 648.027 1022.22 619.59 1024.62 604.112C1027.98 582.274 1032.9 549.518 1029.78 507.283C1029.78 507.283 1025.22 446.209 991.385 396.175C989.825 393.775 986.226 388.736 980.947 388.376C976.867 388.136 973.267 391.136 971.468 392.935Z" fill="#3D3D3D"/>
<path opacity="0.09" d="M1027.38 553.476C1023.78 552.876 1016.1 592.712 1007.94 617.789C993.785 661.225 959.229 718.698 867.559 775.692C888.317 771.012 917.834 761.174 947.47 739.936C962.469 729.137 987.786 711.019 1005.3 677.543C1017.42 654.385 1020.66 633.628 1024.74 606.751C1028.46 583.113 1030.38 553.956 1027.38 553.476Z" fill="#3D3D3D"/>
<path d="M696.098 167.242C695.498 194.959 694.898 222.556 694.298 250.272C685.899 285.309 698.978 320.825 726.215 338.823C755.852 358.38 788.968 348.542 793.767 346.982C794.007 353.701 793.767 362.1 791.968 371.579C790.408 380.338 787.888 387.657 785.608 393.417C800.247 407.095 813.805 410.575 821.244 411.655C856.52 416.814 896.836 388.497 917.954 339.543C911.594 332.823 903.075 322.744 895.156 309.426C890.597 301.867 880.038 282.789 874.158 255.552C868.159 227.715 874.038 223.995 869.599 203.598C864.559 180.32 850.041 153.923 830.363 140.605C797.247 118.647 741.573 128.366 696.098 167.242Z" fill="white" stroke="#1E0E62" stroke-width="3" stroke-miterlimit="10"/>
<path d="M691.179 261.193C682.78 265.752 682.18 279.191 681.34 296.949C680.5 313.507 679.66 333.305 692.139 353.102C701.618 368.221 714.456 375.66 719.736 378.66C747.093 394.258 774.929 389.458 783.688 387.539C778.169 385.259 772.53 382.979 767.01 380.699C773.85 380.459 785.368 379.139 797.487 372.78C809.966 366.301 817.045 357.662 823.044 350.103C830.123 341.224 841.282 324.785 847.641 299.948C844.522 294.549 832.523 272.711 838.762 245.834C842.242 230.956 849.801 220.757 854.481 215.358C861.8 215.838 865.759 218.837 867.319 220.277C875.358 227.596 876.318 242.595 868.279 256.753C871.759 254.233 880.038 247.274 883.997 235.035C888.197 222.317 884.837 211.638 883.037 205.519C880.758 198.2 877.398 187.281 867.319 181.881C864.44 180.322 859.88 178.402 854.481 178.882C837.203 180.561 833.603 208.278 813.445 233.836C798.327 252.913 767.25 279.071 736.654 275.591C713.616 272.951 702.577 254.953 691.179 261.193Z" fill="#1E0E62" stroke="#1E0E62" stroke-width="3" stroke-miterlimit="10"/>
<path d="M733.414 213.317C734.854 232.275 735.094 251.353 734.014 270.311C733.894 271.991 736.054 272.591 737.134 271.631C743.133 266.351 749.132 261.072 755.012 255.792C756.692 254.233 754.172 251.713 752.492 253.273C746.493 258.552 740.493 263.832 734.614 269.111C735.694 269.591 736.654 269.951 737.734 270.431C738.814 251.473 738.574 232.395 737.134 213.437C736.894 211.037 733.294 211.037 733.414 213.317Z" fill="#161616"/>
<path d="M707.497 231.795C707.017 230.476 705.457 225.196 708.337 225.196C710.017 225.196 710.016 228.076 710.016 229.156C710.016 230.236 710.017 232.035 709.177 232.995C708.337 234.075 707.137 233.235 706.777 232.035C706.417 230.836 706.657 229.516 706.777 228.316C707.137 226.036 703.657 225.076 703.297 227.356C702.697 231.195 703.177 237.435 708.577 237.075C712.416 236.835 713.496 232.275 713.496 229.036C713.496 225.676 712.056 220.997 707.737 221.477C702.097 222.196 702.457 228.676 703.777 232.635C704.737 234.915 708.217 233.955 707.497 231.795Z" fill="#161616"/>
<path d="M710.017 230.716C709.177 229.756 709.177 228.076 710.017 226.996C709.057 226.876 708.097 226.756 707.137 226.636C708.097 227.956 708.337 229.876 707.257 231.196C708.217 231.316 709.177 231.436 710.137 231.556C709.777 230.956 707.257 227.476 709.297 227.356C709.057 227.356 709.297 226.996 709.177 227.596C709.177 228.076 709.297 228.676 709.297 229.276C709.297 229.636 709.057 231.196 708.457 230.836C706.537 229.516 704.737 232.635 706.657 233.955C708.817 235.395 711.577 233.955 712.416 231.796C713.256 229.756 713.256 225.676 711.097 224.356C709.177 223.157 706.537 224.236 705.457 226.036C704.017 228.556 705.457 231.316 706.897 233.475C707.497 234.315 708.937 234.795 709.777 233.835C711.817 231.316 712.176 227.716 710.257 224.956C709.657 224.116 708.217 223.636 707.377 224.596C705.217 227.236 705.217 230.716 707.377 233.355C708.937 234.915 711.457 232.396 710.017 230.716Z" fill="#161616"/>
<path d="M777.329 226.875C776.13 225.795 774.69 223.275 776.849 222.195C779.009 221.116 779.369 223.995 779.369 225.435C779.369 226.275 779.609 229.635 778.169 229.635C776.849 229.635 776.13 226.875 775.77 226.035C775.17 223.875 771.69 224.715 772.29 226.995C773.25 230.115 775.65 234.314 779.489 232.994C783.209 231.794 783.329 226.275 782.729 223.155C782.009 219.436 778.289 217.036 774.81 219.196C770.97 221.596 771.81 226.635 774.81 229.395C776.489 230.955 779.009 228.435 777.329 226.875Z" fill="#161616"/>
<path d="M779.849 227.835C779.369 226.275 779.249 224.715 779.609 223.155C778.769 223.515 777.809 223.875 776.969 224.235C777.809 224.715 777.809 226.275 776.969 226.755C777.809 227.115 778.769 227.475 779.609 227.835C778.889 226.275 778.289 224.595 777.569 223.035C777.209 222.196 776.369 221.476 775.409 221.836C774.569 222.076 773.73 223.155 774.209 223.995C774.929 225.555 775.529 227.235 776.249 228.795C776.729 229.875 777.809 230.595 778.889 229.875C782.009 227.955 782.009 223.035 778.889 221.116C777.929 220.516 776.489 220.996 776.249 222.196C775.769 224.475 775.889 226.635 776.489 228.795C777.089 230.955 780.449 229.995 779.849 227.835Z" fill="#161616"/>
<path d="M702.337 209.957C706.177 202.878 715.656 201.918 720.455 208.637C721.775 210.557 724.895 208.757 723.575 206.837C717.216 198.078 704.497 198.438 699.218 208.157C698.138 210.197 701.258 211.997 702.337 209.957Z" fill="#161616"/>
<path d="M765.33 209.597C770.49 201.078 782.609 201.798 786.328 211.157C787.168 213.317 790.648 212.357 789.808 210.197C784.888 197.959 769.05 196.399 762.211 207.797C761.011 209.717 764.131 211.517 765.33 209.597Z" fill="#161616"/>
<path d="M651.583 177.921C713.976 181.52 776.249 186.56 838.402 193.039C845.362 193.759 845.242 182.96 838.402 182.24C776.249 175.641 713.976 170.602 651.583 167.122C644.624 166.762 644.624 177.561 651.583 177.921Z" fill="#1E0E62"/>
<path d="M692.019 170.002C692.978 160.763 696.938 137.006 716.016 117.568C741.813 91.2906 786.808 82.1716 822.324 103.169C850.161 119.727 866.359 151.284 864.439 184.76C806.966 179.961 749.492 174.921 692.019 170.002Z" fill="#8C30F5"/>
<path opacity="0.11" d="M866.479 255.433C866.359 256.393 864.799 264.432 857.6 268.031C853.881 269.831 850.401 269.831 848.721 269.591C856.04 278.95 886.037 319.506 876.558 369.18C874.038 382.139 869.359 393.057 864.559 401.696C872.479 396.777 882.797 389.218 892.876 378.059C905.355 364.261 912.434 350.462 916.514 340.863C908.955 331.384 900.675 319.745 892.876 305.707C882.677 287.349 876.198 270.071 871.879 255.913C869.959 255.793 868.279 255.553 866.479 255.433Z" fill="#3D3D3D"/>
<path opacity="0.12" d="M733.294 214.037C728.975 230.595 724.535 247.273 720.216 263.832C725.135 265.751 730.054 267.671 734.854 269.591C734.374 250.993 733.894 232.515 733.294 214.037Z" fill="#3D3D3D"/>
<path opacity="0.69" d="M770.85 96.5699C758.491 107.849 765.33 141.925 787.048 178.041C812.725 180.321 838.402 182.72 864.079 185C864.919 174.441 865.039 153.924 853.161 134.246C832.883 100.769 786.088 82.7714 770.85 96.5699Z" fill="#8132DB"/>
</svg>
