<svg width="1570" height="1466" viewBox="0 0 1570 1466" fill="none" xmlns="http://www.w3.org/2000/svg">
<path d="M463.989 1020.24C411.354 1020.24 368.531 977.415 368.531 924.778V443.685C368.531 391.048 411.354 348.226 463.989 348.226H1105.36C1158 348.226 1200.82 391.048 1200.82 443.685V924.778C1200.82 977.415 1158 1020.24 1105.36 1020.24H463.989V1020.24Z" fill="white" stroke="#1E0E62" stroke-width="2" stroke-miterlimit="10" stroke-linecap="round" stroke-linejoin="round"/>
<path d="M633.305 440.704H453.494C443.746 440.704 435.844 432.801 435.844 423.053V423.053C435.844 413.306 443.746 405.403 453.494 405.403H633.305C643.053 405.403 650.955 413.306 650.955 423.053V423.053C650.955 432.801 643.053 440.704 633.305 440.704Z" fill="#E8E8EF"/>
<path d="M1115.86 440.704C1106.11 440.704 1098.21 432.801 1098.21 423.053V423.053C1098.21 413.306 1106.11 405.403 1115.86 405.403C1125.61 405.403 1133.51 413.306 1133.51 423.053V423.053C1133.51 432.801 1125.61 440.704 1115.86 440.704Z" fill="#EC615B"/>
<path d="M1017.68 440.704H1017.68C1007.93 440.704 1000.03 432.801 1000.03 423.053V423.053C1000.03 413.306 1007.93 405.403 1017.68 405.403H1017.68C1027.43 405.403 1035.33 413.306 1035.33 423.053V423.053C1035.33 432.801 1027.43 440.704 1017.68 440.704Z" fill="#EC615B"/>
<path d="M919.5 440.704H919.5C909.752 440.704 901.85 432.801 901.85 423.053V423.053C901.85 413.306 909.752 405.403 919.5 405.403H919.5C929.248 405.403 937.15 413.306 937.15 423.053V423.053C937.15 432.801 929.248 440.704 919.5 440.704Z" fill="#EC615B"/>
<path d="M570.264 983.098H463.99" stroke="#1E0E62" stroke-width="2" stroke-miterlimit="10" stroke-linecap="round" stroke-linejoin="round"/>
<path d="M1163.68 499.471V924.776C1163.68 956.935 1137.52 983.098 1105.36 983.098H604.254" stroke="#1E0E62" stroke-width="2" stroke-miterlimit="10" stroke-linecap="round" stroke-linejoin="round"/>
<path d="M1105.36 952.921H463.989C448.445 952.921 435.844 940.32 435.844 924.776V499.469C435.844 483.925 448.445 471.324 463.989 471.324H1105.36C1120.91 471.324 1133.51 483.925 1133.51 499.469V924.776C1133.51 940.32 1120.91 952.921 1105.36 952.921Z" fill="#E8E8EF"/>
<path d="M1088.75 814.388H1041.71C1032.34 814.388 1024.74 806.795 1024.74 797.428V797.427C1024.74 788.06 1032.34 780.467 1041.71 780.467H1088.75C1098.11 780.467 1105.71 788.06 1105.71 797.427V797.428C1105.71 806.795 1098.11 814.388 1088.75 814.388Z" fill="white" stroke="#1E0E62" stroke-width="2" stroke-miterlimit="10" stroke-linecap="round" stroke-linejoin="round"/>
<path d="M1088.75 873.973H977.249C967.882 873.973 960.289 866.38 960.289 857.012C960.289 847.645 967.882 840.052 977.249 840.052H1088.75C1098.11 840.052 1105.71 847.645 1105.71 857.012C1105.71 866.38 1098.11 873.973 1088.75 873.973Z" fill="white" stroke="#1E0E62" stroke-width="2" stroke-miterlimit="10" stroke-linecap="round" stroke-linejoin="round"/>
<path d="M1091.24 734.124H1012.93C1007.33 734.124 1002.8 729.587 1002.8 723.989V563.908C1002.8 558.311 1007.33 553.773 1012.93 553.773H1091.24C1096.84 553.773 1101.37 558.311 1101.37 563.908V723.989C1101.37 729.587 1096.84 734.124 1091.24 734.124Z" fill="white" stroke="#1E0E62" stroke-width="2" stroke-miterlimit="10" stroke-linecap="round" stroke-linejoin="round"/>
<path d="M1069.29 595.967H1034.88C1029.28 595.967 1024.74 591.43 1024.74 585.832V585.832C1024.74 580.235 1029.28 575.697 1034.88 575.697H1069.29C1074.89 575.697 1079.43 580.235 1079.43 585.832V585.832C1079.43 591.43 1074.89 595.967 1069.29 595.967Z" fill="#E8E8EF"/>
<path d="M1069.29 635.681H1034.88C1029.28 635.681 1024.74 631.144 1024.74 625.546C1024.74 619.949 1029.28 615.411 1034.88 615.411H1069.29C1074.89 615.411 1079.43 619.949 1079.43 625.546C1079.43 631.144 1074.89 635.681 1069.29 635.681Z" fill="#E8E8EF"/>
<path d="M1052.09 713.539C1067.19 713.539 1079.43 701.298 1079.43 686.198C1079.43 671.098 1067.19 658.856 1052.09 658.856C1036.99 658.856 1024.74 671.098 1024.74 686.198C1024.74 701.298 1036.99 713.539 1052.09 713.539Z" fill="#EC615B"/>
<path d="M936.794 566.156L1110.49 392.458H1267.99C1273.12 392.458 1277.28 388.301 1277.28 383.173C1277.28 378.046 1273.12 373.889 1267.99 373.889L1106.65 373.889C1104.2 373.889 1101.81 374.879 1100.08 376.608L923.664 553.026C920.038 556.652 920.038 562.53 923.664 566.156C927.29 569.782 933.169 569.782 936.795 566.156L936.794 566.156Z" fill="white" stroke="#1E0E62" stroke-width="2" stroke-miterlimit="10" stroke-linecap="round" stroke-linejoin="round"/>
<path d="M1360.18 448.81C1396.43 448.81 1425.81 419.424 1425.81 383.174C1425.81 346.924 1396.43 317.537 1360.18 317.537C1323.93 317.537 1294.54 346.924 1294.54 383.174C1294.54 419.424 1323.93 448.81 1360.18 448.81Z" fill="#E8E8EF"/>
<path d="M1360.18 416.102C1378.36 416.102 1393.1 401.359 1393.1 383.173C1393.1 364.988 1378.36 350.245 1360.18 350.245C1341.99 350.245 1327.25 364.988 1327.25 383.173C1327.25 401.359 1341.99 416.102 1360.18 416.102Z" fill="white" stroke="#1E0E62" stroke-width="2" stroke-miterlimit="10" stroke-linecap="round" stroke-linejoin="round"/>
<path d="M632.56 566.157L458.863 392.459H301.359C296.232 392.459 292.075 388.302 292.075 383.174C292.075 378.047 296.232 373.89 301.359 373.89L462.709 373.89C465.154 373.89 467.545 374.88 469.274 376.609L645.69 553.027C649.316 556.653 649.316 562.531 645.69 566.157C642.064 569.783 636.185 569.783 632.56 566.157L632.56 566.157Z" fill="white" stroke="#1E0E62" stroke-width="2" stroke-miterlimit="10" stroke-linecap="round" stroke-linejoin="round"/>
<path d="M209.179 448.811C245.429 448.811 274.815 419.425 274.815 383.175C274.815 346.925 245.429 317.538 209.179 317.538C172.928 317.538 143.542 346.925 143.542 383.175C143.542 419.425 172.928 448.811 209.179 448.811Z" fill="#E8E8EF"/>
<path d="M243.405 392.016L218.02 417.401C213.137 422.284 205.22 422.284 200.338 417.401L174.952 392.016C170.069 387.133 170.069 379.217 174.952 374.334L200.338 348.948C205.22 344.065 213.137 344.065 218.02 348.948L243.405 374.334C248.288 379.217 248.288 387.133 243.405 392.016Z" fill="white" stroke="#1E0E62" stroke-width="2" stroke-miterlimit="10" stroke-linecap="round" stroke-linejoin="round"/>
<path d="M775.152 511.898L728.149 335.545L591.747 256.793C587.306 254.229 585.784 248.551 588.348 244.11C590.912 239.669 596.591 238.148 601.031 240.712L740.764 321.386C742.881 322.609 744.457 324.662 745.09 327.024L793.089 507.092C794.416 512.045 791.477 517.136 786.524 518.464C781.57 519.791 776.479 516.851 775.152 511.898Z" fill="white" stroke="#1E0E62" stroke-width="2" stroke-miterlimit="10" stroke-linecap="round" stroke-linejoin="round"/>
<path d="M483.74 259.505C515.134 277.63 555.276 266.874 573.401 235.48C591.526 204.087 580.77 163.944 549.377 145.819C517.983 127.694 477.84 138.45 459.715 169.844C441.59 201.237 452.347 241.38 483.74 259.505Z" fill="#E8E8EF"/>
<path d="M541.779 227.431L507.101 236.723C500.431 238.51 493.576 234.552 491.788 227.882L482.497 193.204C480.709 186.534 484.668 179.679 491.338 177.891L526.015 168.6C532.685 166.812 539.541 170.771 541.328 177.441L550.62 212.118C552.407 218.788 548.449 225.644 541.779 227.431Z" fill="white" stroke="#1E0E62" stroke-width="2" stroke-miterlimit="10" stroke-linecap="round" stroke-linejoin="round"/>
<path d="M859.754 527.713L965.637 434.62L965.637 291.9C965.637 286.772 969.794 282.615 974.922 282.615C980.05 282.615 984.207 286.772 984.207 291.9L984.207 438.466C984.207 440.911 983.216 443.303 981.487 445.031L872.885 540.844C869.259 544.469 863.38 544.469 859.754 540.843C856.128 537.218 856.128 531.339 859.754 527.713Z" fill="white" stroke="#1E0E62" stroke-width="2" stroke-miterlimit="10" stroke-linecap="round" stroke-linejoin="round"/>
<path d="M913.471 191.792C907.655 227.572 931.945 261.293 967.726 267.109C1003.51 272.926 1037.23 248.635 1043.04 212.854C1048.86 177.074 1024.57 143.353 988.789 137.537C953.008 131.721 919.287 156.011 913.471 191.792Z" fill="#E8E8EF"/>
<path d="M964.333 236.624L943.35 207.494C939.314 201.891 940.584 194.077 946.187 190.041L975.316 169.057C980.919 165.021 988.733 166.291 992.769 171.894L1013.75 201.024C1017.79 206.627 1016.52 214.441 1010.92 218.477L981.786 239.461C976.183 243.497 968.369 242.227 964.333 236.624Z" fill="white" stroke="#1E0E62" stroke-width="2" stroke-miterlimit="10" stroke-linecap="round" stroke-linejoin="round"/>
<path d="M632.56 847.106L458.863 1020.8H301.359C296.232 1020.8 292.075 1024.96 292.075 1030.09C292.075 1035.22 296.232 1039.37 301.359 1039.37H462.709C465.154 1039.37 467.545 1038.38 469.274 1036.65L645.69 860.237C649.316 856.611 649.316 850.732 645.69 847.106C642.064 843.48 636.185 843.48 632.56 847.106L632.56 847.106Z" fill="white" stroke="#1E0E62" stroke-width="2" stroke-miterlimit="10" stroke-linecap="round" stroke-linejoin="round"/>
<path d="M209.179 1095.73C245.429 1095.73 274.815 1066.34 274.815 1030.09C274.815 993.839 245.429 964.452 209.179 964.452C172.928 964.452 143.542 993.839 143.542 1030.09C143.542 1066.34 172.928 1095.73 209.179 1095.73Z" fill="#E8E8EF"/>
<path d="M178.726 1019.48V1040.7C178.726 1045.01 181.027 1049 184.763 1051.16L203.142 1061.77C206.878 1063.92 211.48 1063.92 215.216 1061.77L233.595 1051.16C237.331 1049 239.632 1045.01 239.632 1040.7V1019.48C239.632 1015.16 237.331 1011.18 233.595 1009.02L215.216 998.41C211.48 996.253 206.878 996.253 203.142 998.41L184.763 1009.02C181.027 1011.18 178.726 1015.16 178.726 1019.48Z" fill="white" stroke="#1E0E62" stroke-width="2" stroke-miterlimit="10" stroke-linecap="round" stroke-linejoin="round"/>
<path d="M970.788 651.048L974.304 668.368M748.521 896.671C747.825 896.538 747.13 896.401 746.436 896.26L729.115 892.744L748.521 896.671ZM977.054 686.31C977.758 693.026 978.112 699.814 978.112 706.62C978.112 719.548 976.832 732.422 974.306 744.887L970.793 762.228L932.296 764.86C931.639 766.529 930.952 768.185 930.236 769.83L955.603 798.941L945.795 813.69C931.467 835.234 913.278 853.422 891.737 867.751L876.98 877.563L847.886 852.187C846.243 852.901 844.588 853.588 842.919 854.247L840.263 892.744L822.942 896.26C810.498 898.787 797.627 900.068 784.688 900.068C776.969 900.068 769.275 899.612 761.681 898.708L977.054 686.31Z" stroke="#1E0E62" stroke-width="2" stroke-miterlimit="10" stroke-linecap="round" stroke-linejoin="round"/>
<path d="M951.558 740.277C953.763 729.391 954.9 718.133 954.9 706.62C954.9 695.107 953.763 683.85 951.558 672.986L915.255 670.48C912.26 659.686 907.966 649.403 902.558 639.863L926.466 612.427C913.932 593.579 897.73 577.377 878.882 564.843L851.445 588.751C841.905 583.342 831.623 579.048 820.829 576.054L818.322 539.751C807.459 537.546 796.201 536.408 784.688 536.408C773.175 536.408 761.918 537.546 751.054 539.751L748.548 576.054C737.731 579.048 727.471 583.342 717.931 588.751L690.495 564.843C671.647 577.354 655.445 593.556 642.888 612.427L666.819 639.863C661.387 649.403 657.093 659.686 654.122 670.48L617.796 672.986C615.59 683.85 614.453 695.107 614.453 706.62C614.453 718.133 615.59 729.391 617.796 740.277L654.122 742.761C657.093 753.578 661.387 763.837 666.819 773.401L642.888 800.837C655.422 819.685 671.624 835.887 690.472 848.421L717.931 824.49C727.471 829.921 737.731 834.215 748.548 837.187L751.054 873.513C761.918 875.718 773.175 876.856 784.688 876.856C796.201 876.856 807.459 875.718 818.322 873.513L820.829 837.187C831.623 834.215 841.905 829.921 851.445 824.49L878.882 848.421C897.73 835.887 913.932 819.685 926.466 800.837L902.558 773.401C907.966 763.837 912.26 753.578 915.255 742.761L951.558 740.277ZM784.688 751.93C759.666 751.93 739.379 731.643 739.379 706.62C739.379 681.621 759.666 661.334 784.688 661.334C809.711 661.334 829.975 681.621 829.975 706.62C829.975 731.643 809.711 751.93 784.688 751.93Z" fill="#8C30F5"/>
<path d="M784.677 725.931C795.335 725.931 803.976 717.291 803.976 706.632C803.976 695.973 795.335 687.333 784.677 687.333C774.018 687.333 765.377 695.973 765.377 706.632C765.377 717.291 774.018 725.931 784.677 725.931Z" fill="white" stroke="#1E0E62" stroke-width="2" stroke-miterlimit="10" stroke-linecap="round" stroke-linejoin="round"/>
<path d="M209.979 872.937C246.229 872.937 275.615 843.551 275.615 807.301C275.615 771.051 246.229 741.664 209.979 741.664C173.729 741.664 144.342 771.051 144.342 807.301C144.342 843.551 173.729 872.937 209.979 872.937Z" fill="#EC615B"/>
<path d="M227.929 837.754H192.028C185.123 837.754 179.525 832.157 179.525 825.251V789.351C179.525 782.445 185.123 776.848 192.028 776.848H227.929C234.834 776.848 240.432 782.445 240.432 789.351V825.251C240.432 832.157 234.834 837.754 227.929 837.754Z" fill="white" stroke="#1E0E62" stroke-width="2" stroke-miterlimit="10" stroke-linecap="round" stroke-linejoin="round"/>
<path d="M560.467 816.586H302.159C297.031 816.586 292.875 812.429 292.875 807.301C292.875 802.174 297.031 798.017 302.159 798.017H560.467C565.595 798.017 569.752 802.174 569.752 807.301C569.752 812.429 565.595 816.586 560.467 816.586Z" fill="white" stroke="#1E0E62" stroke-width="2" stroke-miterlimit="10" stroke-linecap="round" stroke-linejoin="round"/>
<path d="M209.979 676.091C246.229 676.091 275.615 646.705 275.615 610.455C275.615 574.205 246.229 544.818 209.979 544.818C173.729 544.818 144.342 574.205 144.342 610.455C144.342 646.705 173.729 676.091 209.979 676.091Z" fill="#EC615B"/>
<path d="M227.929 640.909H192.028C185.123 640.909 179.525 635.311 179.525 628.406V592.505C179.525 585.6 185.123 580.002 192.028 580.002H227.929C234.834 580.002 240.432 585.6 240.432 592.505V628.406C240.432 635.311 234.834 640.909 227.929 640.909Z" fill="white" stroke="#1E0E62" stroke-width="2" stroke-miterlimit="10" stroke-linecap="round" stroke-linejoin="round"/>
<path d="M560.467 619.74H302.159C297.031 619.74 292.875 615.583 292.875 610.456C292.875 605.328 297.031 601.171 302.159 601.171H560.467C565.595 601.171 569.752 605.328 569.752 610.456C569.752 615.583 565.595 619.74 560.467 619.74Z" fill="white" stroke="#1E0E62" stroke-width="2" stroke-miterlimit="10" stroke-linecap="round" stroke-linejoin="round"/>
<circle cx="210.476" cy="610.953" r="66.1342" fill="#FF9900"/>
<path d="M210.911 582.019C202.767 582.019 193.721 585.066 191.818 595.026C191.613 596.087 192.354 596.632 193.054 596.787L201.325 597.63C202.103 597.59 202.723 596.865 202.872 596.099C203.585 592.667 206.49 590.971 209.751 590.971C211.512 590.971 213.502 591.632 214.544 593.191C215.747 594.933 215.548 597.296 215.548 599.314V600.461C210.585 601.012 204.112 601.35 199.472 603.369C194.108 605.663 190.351 610.341 190.351 617.219C190.351 626.021 195.978 630.457 203.182 630.457C209.268 630.457 212.554 628.997 217.25 624.26C218.803 626.486 219.355 627.583 222.198 629.923C222.836 630.261 223.643 630.196 224.207 629.694V629.772C225.915 628.265 229.03 625.562 230.776 624.108C231.47 623.544 231.321 622.66 230.776 621.888C229.21 619.749 227.607 617.976 227.607 614.005V600.842C227.607 595.25 227.983 590.076 223.819 586.225C220.533 583.107 215.071 582.019 210.911 582.019ZM213.229 607.271C214.001 607.222 214.773 607.271 215.548 607.271V609.107C215.548 612.408 215.682 615.124 214.001 618.06C212.64 620.444 210.452 621.885 208.049 621.885C204.766 621.885 202.869 619.43 202.869 615.762C202.869 609.454 207.829 607.622 213.229 607.271ZM236.88 627.016C234.713 627.047 232.174 627.502 230.233 628.851C229.638 629.266 229.725 629.846 230.388 629.768C232.574 629.508 237.404 628.897 238.272 629.998C239.14 631.098 237.311 635.624 236.495 637.649C236.247 638.259 236.787 638.495 237.345 638.03C240.981 635.017 241.954 628.767 241.21 627.853C240.842 627.406 239.05 626.985 236.88 627.016ZM179.913 628.163C179.461 628.222 179.281 628.807 179.758 629.235C187.843 636.461 198.504 640.789 210.368 640.789C218.831 640.789 228.711 638.166 235.491 633.213C236.61 632.391 235.633 631.123 234.486 631.607C226.885 634.8 218.58 636.35 211.066 636.35C199.924 636.35 189.176 633.34 180.456 628.315C180.264 628.206 180.062 628.144 179.913 628.163Z" fill="white"/>
<path d="M822.536 1248.81C814.238 1248.81 806.738 1252.18 801.313 1257.61C795.869 1263.03 792.518 1270.55 792.518 1278.83C792.518 1270.55 789.167 1263.03 783.724 1257.61C778.299 1252.18 770.799 1248.81 762.501 1248.81C770.799 1248.81 778.299 1245.45 783.724 1240.02C789.167 1234.59 792.518 1227.08 792.518 1218.8C792.518 1227.08 795.869 1234.59 801.313 1240.02C806.738 1245.45 814.238 1248.81 822.536 1248.81Z" fill="#8C30F5"/>
<path d="M1369.09 608.817C1360.79 608.817 1353.29 612.186 1347.87 617.611C1342.43 623.037 1339.07 630.554 1339.07 638.835C1339.07 630.554 1335.72 623.037 1330.28 617.611C1324.86 612.186 1317.36 608.817 1309.06 608.817C1317.36 608.817 1324.86 605.448 1330.28 600.023C1335.72 594.597 1339.07 587.08 1339.07 578.8C1339.07 587.08 1342.43 594.597 1347.87 600.023C1353.29 605.448 1360.79 608.817 1369.09 608.817Z" fill="#8C30F5"/>
<path d="M281.15 1164.88C276.737 1164.88 272.749 1166.67 269.864 1169.55C266.969 1172.44 265.187 1176.44 265.187 1180.84C265.187 1176.44 263.405 1172.44 260.51 1169.55C257.625 1166.67 253.637 1164.88 249.224 1164.88C253.637 1164.88 257.625 1163.09 260.51 1160.2C263.405 1157.32 265.187 1153.32 265.187 1148.91C265.187 1153.32 266.969 1157.32 269.864 1160.2C272.749 1163.09 276.737 1164.88 281.15 1164.88Z" fill="#8C30F5"/>
<path d="M328.23 495.157C321.74 495.157 315.875 497.791 311.632 502.034C307.375 506.277 304.754 512.156 304.754 518.632C304.754 512.156 302.134 506.277 297.877 502.034C293.634 497.791 287.769 495.157 281.279 495.157C287.769 495.157 293.634 492.522 297.877 488.279C302.134 484.036 304.754 478.157 304.754 471.682C304.754 478.157 307.375 484.036 311.632 488.279C315.875 492.522 321.74 495.157 328.23 495.157Z" fill="#8C30F5"/>
<path d="M720.442 1136.48C716.293 1136.48 712.543 1138.17 709.83 1140.88C707.109 1143.59 705.433 1147.35 705.433 1151.49C705.433 1147.35 703.758 1143.59 701.036 1140.88C698.323 1138.17 694.573 1136.48 690.424 1136.48C694.573 1136.48 698.323 1134.8 701.036 1132.09C703.758 1129.37 705.433 1125.61 705.433 1121.47C705.433 1125.61 707.109 1129.37 709.83 1132.09C712.543 1134.8 716.293 1136.48 720.442 1136.48Z" fill="#8C30F5"/>
<path d="M144.361 912.067C141.132 912.067 138.214 913.378 136.103 915.489C133.985 917.6 132.681 920.525 132.681 923.747C132.681 920.525 131.377 917.6 129.259 915.489C127.148 913.378 124.23 912.067 121.001 912.067C124.23 912.067 127.148 910.756 129.259 908.645C131.377 906.534 132.681 903.609 132.681 900.387C132.681 903.609 133.985 906.534 136.103 908.645C138.214 910.756 141.132 912.067 144.361 912.067Z" fill="#8C30F5"/>
<path d="M270.405 224.272C267.176 224.272 264.258 225.583 262.147 227.694C260.029 229.805 258.725 232.73 258.725 235.952C258.725 232.73 257.421 229.805 255.303 227.694C253.192 225.583 250.274 224.272 247.045 224.272C250.274 224.272 253.192 222.961 255.303 220.85C257.421 218.739 258.725 215.814 258.725 212.592C258.725 215.814 260.029 218.739 262.147 220.85C264.258 222.961 267.176 224.272 270.405 224.272Z" fill="#8C30F5"/>
<path d="M920.734 1144.25C925.708 1144.25 929.741 1140.22 929.741 1135.24C929.741 1130.27 925.708 1126.24 920.734 1126.24C915.76 1126.24 911.728 1130.27 911.728 1135.24C911.728 1140.22 915.76 1144.25 920.734 1144.25Z" fill="#EC615B"/>
<path d="M1370.18 812.087C1374.24 812.087 1377.53 808.797 1377.53 804.738C1377.53 800.68 1374.24 797.39 1370.18 797.39C1366.12 797.39 1362.83 800.68 1362.83 804.738C1362.83 808.797 1366.12 812.087 1370.18 812.087Z" fill="#EC615B"/>
<path d="M1318.07 861.252C1351.58 862.68 1415.63 972.752 1443.9 1024.45C1452.31 1039.81 1449.31 1058.9 1436.63 1070.98L1436.63 1070.98C1420.1 1086.73 1393.61 1084.82 1379.51 1066.85L1288.47 950.798C1288.47 950.798 1250.67 858.381 1318.07 861.252Z" fill="#EC615B"/>
<path d="M1130.33 859.594C1088.37 872.369 1033 1086.59 1033 1086.59C1022.7 1144.25 1088.48 1151.67 1105.22 1113.05L1181.39 938.886C1181.39 938.886 1194.87 839.947 1130.33 859.594Z" fill="#EC615B"/>
<path d="M1033 1086.59L1035.94 1227.48H1098.36L1105.22 1113.05C1114.95 1051.84 1044.75 1044.53 1033 1086.59Z" fill="#EC615B"/>
<path d="M1126.4 1177.6L964.552 1252.4C947.545 1260.26 936.657 1277.29 936.657 1296.03V1296.03C936.657 1326.89 965.332 1349.75 995.42 1342.88L1231.19 1289.01V1168.77H1125.29L1126.4 1177.6Z" fill="#E8E8EF"/>
<path d="M1209.13 1168.77V1207.31C1209.13 1214.28 1212.5 1220.82 1218.17 1224.86L1231.19 1234.17V1277.71" stroke="#1E0E62" stroke-width="2" stroke-miterlimit="10" stroke-linecap="round" stroke-linejoin="round"/>
<path d="M1013.32 1256.44L1155.08 1191.94V1172.63" stroke="#1E0E62" stroke-width="2" stroke-miterlimit="10" stroke-linecap="round" stroke-linejoin="round"/>
<path d="M1318.07 861.253C1318.07 861.253 1267.62 846.543 1138.81 857.629C1138.81 857.629 1115.36 894.384 1109.57 977.12C1103.09 1069.67 1098.36 1186.98 1098.36 1186.98H1344.37C1344.37 1186.98 1357.66 1042.33 1318.07 861.253Z" fill="#EC615B"/>
<path d="M1134.25 866.365C1127.13 881.643 1113.75 917.405 1109.57 977.12C1107.74 1003.34 1106.04 1031.55 1104.55 1058.51" stroke="#1E0E62" stroke-width="2" stroke-miterlimit="10" stroke-linecap="round" stroke-linejoin="round"/>
<path d="M1339.07 990.313C1334.92 952.286 1328.6 910.444 1319.17 866.365" stroke="#1E0E62" stroke-width="2" stroke-miterlimit="10" stroke-linecap="round" stroke-linejoin="round"/>
<path d="M1269.75 863.245C1261.31 882.877 1245.45 890.826 1235.53 893.939C1232.98 879.938 1225.95 862.332 1225.95 862.332C1218.14 873.081 1214.02 887.296 1213 893.782C1187.72 886.832 1184.83 862.523 1184.83 862.523C1187.92 838.165 1208.87 819.824 1226.85 820.435C1266.58 821.785 1269.75 863.245 1269.75 863.245Z" fill="white" stroke="#1E0E62" stroke-width="2" stroke-miterlimit="10" stroke-linecap="round" stroke-linejoin="round"/>
<path d="M1231.19 1289.01H1278.51C1311.89 1289.01 1339.95 1263.97 1343.74 1230.81L1370.1 999.96C1373.23 972.494 1351.75 948.421 1324.11 948.421C1303.01 948.421 1284.59 962.681 1279.3 983.101L1231.19 1187.39V1289.01Z" fill="#E8E8EF"/>
<path d="M1231.19 1196.14V1279" stroke="#1E0E62" stroke-width="2" stroke-miterlimit="10" stroke-linecap="round" stroke-linejoin="round"/>
<path d="M1266.52 1288.58V1317.03L1200.33 1323.88V1285.31L1266.52 1288.58Z" fill="white" stroke="#1E0E62" stroke-width="2" stroke-miterlimit="10" stroke-linecap="round" stroke-linejoin="round"/>
<path d="M1252.98 1331.16V1276.42L1342.26 1262.77V1341.64L1252.98 1331.16Z" fill="#E8E8EF"/>
<path d="M1252.98 1331.16V1276.42L1342.26 1262.77V1341.64L1252.98 1331.16Z" stroke="#1E0E62" stroke-width="2" stroke-miterlimit="10" stroke-linecap="round" stroke-linejoin="round"/>
<path d="M1264.08 1314.34H1308.76" stroke="#1E0E62" stroke-width="2" stroke-miterlimit="10" stroke-linecap="round" stroke-linejoin="round"/>
<path d="M1264.08 1293.25H1308.76" stroke="#1E0E62" stroke-width="2" stroke-miterlimit="10" stroke-linecap="round" stroke-linejoin="round"/>
<path d="M1297.62 1302.53V1302.53C1297.62 1327.53 1317.89 1347.8 1342.89 1347.8H1348.62V1257.26H1342.89C1317.89 1257.26 1297.62 1277.52 1297.62 1302.53Z" fill="white" stroke="#1E0E62" stroke-width="2" stroke-miterlimit="10" stroke-linecap="round" stroke-linejoin="round"/>
<path d="M1206.37 1273.57V1334.8L987.107 1344.41C975.362 1344.92 964.359 1341.16 955.678 1334.43C945.767 1326.79 938.873 1315.3 937.341 1301.96L936.667 1296.04V1291.33C936.667 1282.46 939.755 1274.38 944.931 1268.02C952.335 1258.81 964.081 1253.26 976.894 1254.33L1206.37 1273.57Z" fill="#E8E8EF"/>
<path d="M997.715 1299.33C997.715 1319.04 981.745 1335.01 962.038 1335.01C959.856 1335.01 957.744 1334.82 955.678 1334.43C945.767 1326.79 938.873 1315.3 937.341 1301.96L936.667 1296.04V1291.32C936.667 1282.46 939.755 1274.38 944.931 1268.02C950.014 1265.21 955.84 1263.63 962.038 1263.63C981.745 1263.63 997.715 1279.63 997.715 1299.33Z" fill="white"/>
<path d="M976.975 1343.79C969.09 1342.45 961.806 1339.18 955.678 1334.43C945.767 1326.79 938.873 1315.3 937.341 1301.96L936.667 1296.04V1291.33C936.667 1282.46 939.755 1274.38 944.931 1268.02C952.335 1258.81 964.081 1253.26 976.894 1254.33L1206.37 1273.57" stroke="#1E0E62" stroke-width="2" stroke-miterlimit="10" stroke-linecap="round" stroke-linejoin="round"/>
<path d="M1188.58 1277.71V1327.35" stroke="#1E0E62" stroke-width="2" stroke-miterlimit="10" stroke-linecap="round" stroke-linejoin="round"/>
<path d="M1346.52 1269.71H1318.07L1311.22 1203.52H1349.78L1346.52 1269.71Z" fill="white" stroke="#1E0E62" stroke-width="2" stroke-miterlimit="10" stroke-linecap="round" stroke-linejoin="round"/>
<path d="M1299.51 1216.98H1360.74L1370.35 997.724C1370.87 985.978 1367.1 974.976 1360.37 966.295C1352.74 956.383 1341.25 949.489 1327.9 947.957L1321.98 947.284H1317.27C1308.4 947.284 1300.32 950.371 1293.96 955.548C1284.75 962.952 1279.2 974.697 1280.27 987.51L1299.51 1216.98Z" fill="#E8E8EF"/>
<path d="M1325.28 1008.33C1344.98 1008.33 1360.95 992.362 1360.95 972.655C1360.95 970.473 1360.77 968.361 1360.37 966.295C1352.74 956.383 1341.25 949.489 1327.9 947.957L1321.98 947.284H1317.27C1308.4 947.284 1300.32 950.371 1293.96 955.548C1291.16 960.631 1289.58 966.457 1289.58 972.655C1289.58 992.362 1305.57 1008.33 1325.28 1008.33Z" fill="white"/>
<path d="M1360.37 966.295C1352.74 956.383 1341.25 949.489 1327.9 947.957L1321.98 947.284H1317.27C1308.4 947.284 1300.32 950.371 1293.96 955.548C1284.75 962.952 1279.2 974.697 1280.27 987.51L1299.51 1216.98H1358.19" stroke="#1E0E62" stroke-width="2" stroke-miterlimit="10" stroke-linecap="round" stroke-linejoin="round"/>
<path d="M1306.21 1199.2H1353.29" stroke="#1E0E62" stroke-width="2" stroke-miterlimit="10" stroke-linecap="round" stroke-linejoin="round"/>
<path d="M1306.21 1248.81H1360.95L1374.6 1338.1H1295.73L1306.21 1248.81Z" fill="#E8E8EF"/>
<path d="M1306.21 1248.81H1360.95L1374.6 1338.1H1295.73L1306.21 1248.81Z" stroke="#1E0E62" stroke-width="2" stroke-miterlimit="10" stroke-linecap="round" stroke-linejoin="round"/>
<path d="M1323.03 1259.92V1304.59" stroke="#1E0E62" stroke-width="2" stroke-miterlimit="10" stroke-linecap="round" stroke-linejoin="round"/>
<path d="M1344.13 1259.92V1304.59" stroke="#1E0E62" stroke-width="2" stroke-miterlimit="10" stroke-linecap="round" stroke-linejoin="round"/>
<path d="M1334.85 1293.46H1334.85C1309.85 1293.46 1289.58 1313.73 1289.58 1338.73V1344.46H1380.12V1338.73C1380.12 1313.73 1359.85 1293.46 1334.85 1293.46Z" fill="white" stroke="#1E0E62" stroke-width="2" stroke-miterlimit="10" stroke-linecap="round" stroke-linejoin="round"/>
<path d="M1243.4 849.138C1238.17 852.185 1232.68 854.063 1226.92 854.653C1221.16 854.121 1215.69 852.162 1210.44 849.138V804.736H1243.4V849.138Z" fill="white" stroke="#1E0E62" stroke-width="2" stroke-miterlimit="10" stroke-linecap="round" stroke-linejoin="round"/>
<path d="M1251.85 790.355C1253.14 778.968 1259.8 769.85 1266.82 770.377C1268.25 770.484 1269.67 770.982 1271.03 772.03C1278.76 778.019 1270.7 809.701 1250.56 801.739L1251.85 790.355Z" fill="white" stroke="#1E0E62" stroke-width="2" stroke-miterlimit="10" stroke-linecap="round" stroke-linejoin="round"/>
<path d="M1199.51 790.355C1198.22 778.968 1191.56 769.85 1184.54 770.377C1183.11 770.484 1181.68 770.982 1180.33 772.03C1172.59 778.019 1180.65 809.701 1200.8 801.739L1199.51 790.355Z" fill="white" stroke="#1E0E62" stroke-width="2" stroke-miterlimit="10" stroke-linecap="round" stroke-linejoin="round"/>
<path d="M1258.27 785.019C1258.27 795.098 1251.22 816.789 1225.68 818.667C1200.13 816.789 1193.09 795.098 1193.09 785.019C1193.09 774.914 1184.59 734.124 1225.68 734.124C1266.77 734.124 1258.27 774.914 1258.27 785.019Z" fill="white" stroke="#1E0E62" stroke-width="2" stroke-miterlimit="10" stroke-linecap="round" stroke-linejoin="round"/>
<path d="M1260.14 785.522L1256.95 785.798L1258.99 770.356C1258.99 770.356 1247.65 772.886 1246.67 766.653C1246.67 766.653 1245.4 760.216 1247.85 746.308C1247.85 746.308 1233.14 749.632 1223.13 749.632C1193.03 749.632 1186.8 729.688 1189.11 719.471C1189.13 719.406 1189.14 719.341 1189.16 719.276C1192.7 704.31 1198.21 715.09 1198.21 715.09C1198.21 715.09 1201.22 703.048 1207.59 702.501C1213.98 701.958 1215.4 717.777 1215.4 717.777C1215.4 717.777 1228.58 713.274 1248.16 717.986C1272.03 723.733 1262.29 737.246 1262.29 737.246C1262.29 737.246 1285.69 742.393 1260.14 785.522Z" fill="#1E0E62"/>
<path d="M1198.2 728.902C1179.28 735.498 1179.22 756.871 1192.36 783.967H1195.85L1193.67 771.412C1193.67 771.412 1209.4 771.299 1203.57 742.662L1198.2 728.902Z" fill="#1E0E62"/>
<path d="M1201.41 1237.17H998.432C988.684 1237.17 980.782 1229.26 980.782 1219.52V1083.83C980.782 1074.08 988.684 1066.18 998.432 1066.18H1201.41C1211.16 1066.18 1219.06 1074.08 1219.06 1083.83V1219.52C1219.06 1229.26 1211.16 1237.17 1201.41 1237.17Z" fill="white" stroke="#1E0E62" stroke-width="2" stroke-miterlimit="10" stroke-linecap="round" stroke-linejoin="round"/>
<path d="M1448.79 1044.53L1448.79 1044.55C1449.06 1073.61 1423.42 1089.17 1398.97 1081.2C1390.33 1078.43 1381.85 1072.7 1374.73 1063.6C1344.52 1025.05 1310.95 959.18 1310.95 959.18L1352.48 922.906C1352.48 922.906 1438.22 996.272 1447.02 1031.29C1448.2 1035.97 1448.75 1040.37 1448.79 1044.53Z" fill="#EC615B"/>
<path d="M1448.79 1044.53L1448.79 1044.55C1449.06 1073.61 1423.42 1089.17 1398.97 1081.2C1396.02 1076.52 1394.32 1070.99 1394.27 1065.07C1394.11 1047.94 1407.86 1033.91 1425.01 1033.75C1434.51 1033.66 1443.04 1037.85 1448.79 1044.53Z" fill="white"/>
<path d="M1448.79 1044.53L1448.79 1044.55C1449.06 1073.61 1423.42 1089.17 1398.97 1081.2" stroke="#1E0E62" stroke-width="2" stroke-miterlimit="10" stroke-linecap="round" stroke-linejoin="round"/>
<path d="M1415.9 984.557C1388.21 953.463 1352.49 922.896 1352.49 922.896L1310.94 959.18C1310.94 959.18 1336.52 1009.34 1363.1 1047.73" stroke="#1E0E62" stroke-width="2" stroke-miterlimit="10" stroke-linecap="round" stroke-linejoin="round"/>
<path d="M1351.16 935.596C1351.16 935.596 1328.82 916.153 1305.24 916.567C1297.79 916.698 1273.8 936.01 1267.6 944.697C1261.39 953.384 1262.22 970.759 1268.84 977.791C1275.46 984.824 1280.01 975.309 1280.01 975.309C1280.01 975.309 1278.35 986.478 1296.55 989.788C1314.76 993.097 1325.1 980.273 1325.51 964.967C1325.51 964.967 1349.09 967.449 1351.16 935.596Z" fill="white" stroke="#1E0E62" stroke-width="2" stroke-miterlimit="10" stroke-linecap="round" stroke-linejoin="round"/>
<path d="M1279.74 967.449C1279.74 967.449 1279.03 959.289 1280.43 953.214C1281.84 947.138 1293.52 940.595 1293.52 940.595" stroke="#1E0E62" stroke-width="2" stroke-miterlimit="10" stroke-linecap="round" stroke-linejoin="round"/>
<path d="M478.294 1271.91C478.294 1271.91 402.779 1207.47 413.558 1086.69C497.227 1174.46 478.294 1271.91 478.294 1271.91Z" fill="white" stroke="#1E0E62" stroke-width="2" stroke-miterlimit="10" stroke-linecap="round" stroke-linejoin="round"/>
<path d="M478.294 1271.91C478.294 1271.91 384.89 1238.28 352.333 1121.47C461.601 1174.05 478.294 1271.91 478.294 1271.91Z" fill="#E8E8EF"/>
<path d="M478.293 1271.91C478.293 1271.91 553.809 1207.47 543.029 1086.69C459.36 1174.46 478.293 1271.91 478.293 1271.91Z" fill="white" stroke="#1E0E62" stroke-width="2" stroke-miterlimit="10" stroke-linecap="round" stroke-linejoin="round"/>
<path d="M478.294 1271.91C478.294 1271.91 571.697 1238.28 604.255 1121.47C494.987 1174.05 478.294 1271.91 478.294 1271.91Z" fill="#E8E8EF"/>
<path d="M478.294 1271.91C478.294 1271.91 428.268 1186.16 478.294 1075.7C528.319 1186.16 478.294 1271.91 478.294 1271.91Z" fill="#E8E8EF"/>
<path d="M570.264 1227.48C570.264 1312.6 523.638 1353 523.638 1353H432.923C432.923 1353 386.323 1312.6 386.323 1227.48H570.264Z" fill="#8C30F5"/>
<ellipse cx="1360.5" cy="382.276" rx="66.132" ry="66.1322" fill="white"/>
<path d="M1360.5 316.14C1324.03 316.14 1294.37 345.803 1294.37 382.272C1294.37 418.741 1324.03 448.404 1360.5 448.404C1396.97 448.404 1426.63 418.741 1426.63 382.272C1426.63 345.803 1396.97 316.14 1360.5 316.14ZM1350.17 355.889C1351.08 354.339 1353.06 353.822 1354.61 354.732L1357.5 356.417C1359.05 357.326 1359.58 359.314 1358.67 360.875L1355.8 365.773L1347.3 360.797L1350.17 355.889ZM1318.31 377.453H1335.98L1330.35 386.967H1318.31V377.453ZM1322.57 414.114C1322.36 414.316 1322.04 414.35 1321.78 414.204C1321.54 414.058 1321.41 413.766 1321.49 413.485L1325.6 397.929L1334.1 402.904L1322.57 414.114ZM1326.67 396.087L1346.61 361.987L1355.11 366.963L1335.17 401.062L1326.67 396.087ZM1344.94 386.967L1350.22 377.465H1370.6L1375.88 386.967H1344.94ZM1355.28 347.824C1354.37 346.274 1354.91 344.275 1356.46 343.377L1359.1 341.838C1360.65 340.939 1362.63 341.467 1363.54 343.017L1386.08 381.823L1377.82 386.63L1355.28 347.824ZM1378.74 388.225L1387.01 383.417L1391.79 391.65L1383.52 396.446L1378.74 388.225ZM1396.14 413.855C1395.95 414.125 1395.46 413.9 1395.32 413.676C1394.94 413.069 1395.27 412.238 1394.06 410.385C1391.82 406.982 1388.87 407.656 1386.02 402.86C1385.51 402.017 1383.8 398.153 1386.02 396.839C1387.2 396.132 1389.2 394.941 1390.54 394.189C1392.81 392.897 1394.91 395.604 1396.07 397.3C1398.56 400.939 1399.57 409.116 1396.14 413.855ZM1402.56 386.967H1390.71L1385.53 377.465H1402.56V386.967Z" fill="#1C77F2"/>
<circle cx="208.92" cy="382.984" r="66.1342" fill="#00BF1F"/>
<path d="M188.593 350.497L217.187 379.086L224.566 371.708C214.483 365.59 200.979 357.384 194.906 353.694L190.837 351.229C190.118 350.791 189.348 350.555 188.593 350.497ZM184.228 353.92C184.17 354.234 184.12 354.55 184.12 354.889V411.389C184.12 411.626 184.168 411.847 184.201 412.073L213.291 382.983L184.228 353.92ZM229.415 374.652L221.084 382.983L229.27 391.169C233.607 388.54 236.611 386.715 236.945 386.513C238.419 385.612 239.251 384.253 239.227 382.768C239.204 381.31 238.372 380.007 236.955 379.205C236.638 379.023 233.675 377.234 229.415 374.652ZM217.187 386.879L188.679 415.388C189.233 415.292 189.786 415.126 190.315 414.807C191.048 414.36 210.849 402.347 224.421 394.113L217.187 386.879Z" fill="white"/>
<circle cx="208.92" cy="1031.1" r="66.1342" fill="white"/>
<path d="M208.92 964.965C172.398 964.965 142.786 994.576 142.786 1031.1C142.786 1067.62 172.398 1097.23 208.92 1097.23C245.443 1097.23 275.054 1067.62 275.054 1031.1C275.054 994.576 245.443 964.965 208.92 964.965ZM186.876 997.989H217.187C230.882 997.989 241.987 1009.09 241.987 1022.79C241.987 1036.48 230.882 1047.59 217.187 1047.59H200.654V1064.17H186.876V998.032V997.989ZM200.654 1011.77V1033.81H217.187C223.266 1033.81 228.209 1028.87 228.209 1022.79C228.209 1016.71 223.266 1011.77 217.187 1011.77H200.654Z" fill="#DA552F"/>
<circle cx="210.476" cy="807.798" r="66.1342" fill="#0A9600"/>
<path d="M169.143 787.131V800.915H182.912V828.465H196.699V800.915H210.469V787.131H169.143ZM224.255 814.682V800.915H210.467V828.465H251.81V814.682H224.255ZM224.255 787.132H251.81V800.915H224.255V787.132Z" fill="white"/>
<circle cx="515.472" cy="203.254" r="66.1342" fill="white"/>
<path d="M515.472 137.12C478.949 137.12 449.338 166.725 449.338 203.24C449.338 234.223 470.677 260.148 499.446 267.322C499.137 266.429 498.939 265.393 498.939 264.109V252.808C496.255 252.808 491.757 252.808 490.628 252.808C486.103 252.808 482.08 250.863 480.129 247.249C477.963 243.232 477.588 237.088 472.22 233.33C470.628 232.08 471.84 230.653 473.675 230.845C477.065 231.804 479.875 234.129 482.521 237.579C485.155 241.033 486.395 241.816 491.317 241.816C493.703 241.816 497.274 241.678 500.636 241.149C502.444 236.559 505.568 232.333 509.388 230.339C487.365 228.074 476.855 217.12 476.855 202.248C476.855 195.846 479.583 189.653 484.218 184.435C482.697 179.255 480.785 168.692 484.802 164.67C494.711 164.67 500.702 171.095 502.141 172.831C507.079 171.139 512.502 170.18 518.2 170.18C523.91 170.18 529.355 171.139 534.304 172.842C535.726 171.117 541.722 164.67 551.653 164.67C555.687 168.698 553.753 179.305 552.215 184.473C556.822 189.68 559.534 195.857 559.534 202.248C559.534 217.109 549.041 228.057 527.051 230.333C533.102 233.49 537.517 242.361 537.517 249.045V264.109C537.517 264.682 537.39 265.096 537.324 265.586C563.094 256.555 581.606 232.091 581.606 203.24C581.606 166.725 551.995 137.12 515.472 137.12Z" fill="#2D2B2B"/>
<ellipse cx="977.357" cy="202.477" rx="66.4311" ry="65.3766" fill="white"/>
<path d="M978.411 135.667C943.761 135.667 915.273 162.029 911.933 195.799L945.919 213.196C949.351 210.311 953.813 208.551 958.672 208.551H958.826C960.01 206.729 961.373 204.449 962.8 202.08C965.776 197.191 969.117 191.664 972.397 187.412C973.126 173.837 984.394 162.999 998.151 162.999C1012.39 162.999 1023.96 174.569 1023.96 188.812C1023.96 202.569 1013.13 213.837 999.55 214.566C995.299 217.846 989.802 221.187 984.882 224.133C982.513 225.591 980.233 226.952 978.411 228.137V228.291C978.411 239.193 969.574 248.03 958.672 248.03C947.769 248.03 938.932 239.193 938.932 228.291C938.932 227.775 938.961 227.289 938.991 226.772L912.449 213.166C917.581 244.992 945.158 269.288 978.411 269.288C1015.31 269.288 1045.22 239.375 1045.22 202.478C1045.22 165.58 1015.31 135.667 978.411 135.667ZM998.151 169.072C987.279 169.072 978.411 177.94 978.411 188.812C978.411 199.684 987.279 208.551 998.151 208.551C1009.02 208.551 1017.89 199.684 1017.89 188.812C1017.89 177.94 1009.02 169.072 998.151 169.072ZM998.151 175.146C1005.71 175.146 1011.82 181.25 1011.82 188.812C1011.82 196.374 1005.71 202.478 998.151 202.478C990.589 202.478 984.485 196.374 984.485 188.812C984.485 181.25 990.589 175.146 998.151 175.146ZM958.672 214.625C956.273 214.625 953.996 215.233 952.052 216.357L962.136 221.517C965.871 223.43 967.328 228.019 965.445 231.755C964.079 234.366 961.435 235.883 958.672 235.883C957.487 235.883 956.331 235.611 955.208 235.064L945.095 229.869C945.884 236.671 951.656 241.957 958.672 241.957C966.233 241.957 972.337 235.853 972.337 228.291C972.337 220.729 966.233 214.625 958.672 214.625Z" fill="#125389"/>
</svg>
