<svg width="1600" height="1200" viewBox="0 0 1600 1200" fill="none" xmlns="http://www.w3.org/2000/svg">
<path d="M64.0142 331.526C86.1029 313.532 116.01 310.926 143.31 315.89C172.472 321.102 199.028 335.125 225.957 346.913C253.754 359.199 282.047 368.009 312.574 369.499C342.977 371.112 373.38 366.769 402.915 359.323C464.59 343.811 521.176 314.029 580.369 291.568C610.028 280.275 640.679 270.472 672.199 266.004C689.324 263.522 706.573 262.902 723.822 264.763C740.202 266.501 756.21 270.348 772.218 274.319C807.585 283.129 842.828 290.823 879.063 295.166C916.416 299.634 954.14 301.123 991.741 299.882C994.099 299.758 994.099 296.035 991.741 296.159C923.489 298.641 855.237 291.319 788.971 274.815C757.327 266.873 725.931 258.683 693.046 260.296C661.154 261.909 629.634 270.348 599.604 280.647C539.418 301.371 482.831 331.774 421.777 350.264C390.754 359.571 358.613 366.024 326.101 366.148C293.092 366.272 262.068 358.578 231.913 345.424C202.131 332.519 172.969 316.51 140.58 311.547C113.031 307.328 83.621 310.678 61.4082 328.796C59.5468 330.409 62.1528 333.139 64.0142 331.526Z" fill="#E8E8E8"/>
<path d="M732.385 218.103C818.382 255.207 916.044 249.002 1004.03 222.074C1051.68 207.431 1099.08 187.824 1149.84 187.948C1200.96 188.072 1249.48 205.941 1299.49 213.884C1344.91 221.081 1394.92 220.212 1433.89 192.912C1435.87 191.547 1434.01 188.32 1432.03 189.685C1396.04 214.876 1350.37 217.11 1308.18 211.402C1260.4 204.949 1214.49 188.32 1166.22 184.846C1117.94 181.371 1072.4 195.89 1027.11 210.781C981.937 225.548 936.271 237.089 888.743 239.819C836.127 242.922 782.891 235.848 734.37 214.876C732.136 213.884 730.275 217.11 732.385 218.103Z" fill="#E8E8E8"/>
<path d="M16.6104 527.469C43.787 508.11 75.9273 496.197 109.185 492.971C125.813 491.357 142.566 491.978 158.946 494.832C175.947 497.81 192.327 503.519 208.584 509.227C238.739 519.651 268.645 527.593 300.413 520.271C327.838 513.942 352.657 499.672 376.979 486.145C405.645 470.137 435.428 453.757 468.685 450.779C471.043 450.53 471.043 446.808 468.685 447.056C409.368 452.392 364.818 496.942 309.472 513.942C295.45 518.286 280.806 520.519 266.163 519.651C248.17 518.534 230.673 512.95 213.796 507.117C196.795 501.285 179.794 494.956 161.924 491.606C146.537 488.751 130.777 487.883 115.265 488.876C79.2779 491.109 44.1593 503.394 14.749 524.366C12.7635 525.607 14.6249 528.834 16.6104 527.469Z" fill="#E8E8E8"/>
<path d="M345.584 575.121C393.856 524.119 464.838 503.271 533.462 502.65C573.296 502.278 613.006 507.987 651.847 516.301C688.827 524.119 724.691 534.294 762.912 529.207C802.87 523.871 840.222 506.746 875.961 488.752C878.071 487.635 876.209 484.409 874.1 485.526C840.098 502.65 804.731 518.907 766.883 524.863C747.524 527.842 728.041 527.593 708.683 524.491C689.076 521.389 669.965 516.177 650.482 512.082C579.501 497.19 503.928 490.862 434.187 515.06C399.813 526.973 368.045 545.959 342.978 572.391C341.364 574.253 343.97 576.859 345.584 575.121Z" fill="#E8E8E8"/>
<path d="M920.759 612.225C940.986 619.298 961.71 612.721 980.2 603.91C1000.92 593.983 1020.41 581.698 1041.63 572.887C1062.85 564.076 1085.68 558.12 1108.76 560.974C1129.86 563.58 1149.34 573.011 1167.83 583.063C1185.33 592.618 1202.58 603.042 1221.19 610.363C1241.91 618.429 1264.25 622.276 1286.46 621.78C1332.01 620.787 1370.72 598.078 1412.3 582.69C1451.14 568.295 1502.88 561.843 1534.03 595.596C1535.64 597.333 1538.25 594.727 1536.64 592.99C1512.19 566.558 1473.23 563.58 1439.72 570.653C1396.04 579.836 1358.31 606.516 1314.39 615.079C1290.93 619.67 1266.36 619.05 1243.16 613.466C1221.56 608.254 1202.2 598.078 1182.85 587.282C1165.35 577.478 1147.6 567.303 1128.37 561.47C1108.39 555.39 1087.54 555.266 1067.31 560.229C1042.62 566.31 1019.91 578.347 997.697 590.508C974.74 602.918 948.184 618.057 921.504 608.75C919.518 607.881 918.525 611.48 920.759 612.225Z" fill="#E8E8E8"/>
<path d="M1247.5 672.038C1298.87 675.141 1341.19 640.27 1389.71 629.722C1402.62 626.868 1416.27 625.627 1429.42 627.861C1441.21 629.846 1451.88 634.686 1462.06 640.891C1479.55 651.563 1496.55 665.337 1517.9 666.826C1543.83 668.564 1566.79 652.432 1586.15 637.292C1588.01 635.803 1585.41 633.197 1583.54 634.686C1564.68 649.329 1542.1 665.337 1516.78 662.98C1494.82 660.994 1477.44 645.11 1458.95 634.81C1416.39 610.984 1370.85 629.722 1330.02 647.716C1303.84 659.133 1276.66 670.177 1247.62 668.44C1245.14 668.191 1245.14 671.914 1247.5 672.038Z" fill="#E8E8E8"/>
<path d="M76.1755 909.307C94.1691 892.182 120.849 885.481 144.799 892.058C169.866 898.883 185.999 920.475 206.102 935.367C246.184 965.025 300.786 960.31 344.839 942.812C396.834 922.213 440.143 884.985 492.014 864.013C517.33 853.713 544.754 847.136 572.303 848.997C599.108 850.859 621.941 862.399 643.161 878.035C664.257 893.547 684.112 911.913 708.807 921.716C735.239 932.14 765.021 929.907 789.84 916.132C791.95 915.015 790.088 911.789 787.979 912.906C762.663 926.928 732.385 928.169 705.952 916.504C683.864 906.701 665.746 890.321 646.511 875.926C626.78 861.159 605.809 849.618 580.99 846.143C555.426 842.669 529.367 847.012 505.168 855.078C452.18 872.823 408.499 909.431 358.241 932.885C311.83 954.601 252.141 964.777 208.087 932.14C186.123 915.884 168.874 892.678 140.58 887.218C116.63 882.627 91.1909 889.824 73.5695 906.701C71.8322 908.314 74.4382 911.044 76.1755 909.307Z" fill="#E8E8E8"/>
<path d="M552.945 978.552C573.42 965.274 597.743 958.945 622.189 960.93C644.526 962.792 665.622 971.106 686.097 979.42C705.953 987.486 726.056 995.925 747.4 999.399C769.737 1003 792.322 1000.27 813.79 993.691C839.478 985.749 863.304 973.092 886.757 960.31C888.867 959.193 887.006 955.967 884.896 957.083C841.959 980.289 794.804 1004.74 744.422 995.056C702.354 986.99 665.374 960.93 622.065 957.207C596.998 955.098 571.931 961.675 550.959 975.325C549.098 976.69 550.959 979.917 552.945 978.552Z" fill="#E8E8E8"/>
<path d="M1021.4 1062.69C1048.45 1037.37 1081.71 1019.13 1117.57 1009.82C1135.81 1005.11 1154.55 1002.75 1173.41 1002.87C1194.39 1003.12 1215.23 1006.47 1236.08 1008.46C1276.54 1012.3 1315.38 1005.48 1353.23 990.712C1389.34 976.689 1423.34 952.367 1462.18 946.41C1507.6 939.461 1542.72 969.616 1571.63 1000.52C1573.25 1002.25 1575.85 999.647 1574.24 997.909C1550.41 972.47 1522.37 946.162 1486.13 942.067C1446.42 937.6 1410.31 960.929 1375.81 976.937C1336.1 995.427 1293.29 1008.09 1249.24 1005.6C1227.27 1004.36 1205.56 1000.39 1183.47 999.274C1164.73 998.282 1145.87 999.647 1127.5 1003.49C1086.92 1011.81 1049.07 1031.41 1018.79 1059.83C1017.06 1061.69 1019.66 1064.3 1021.4 1062.69Z" fill="#E8E8E8"/>
<path d="M294.829 278.537C329.576 305.465 374.87 293.552 412.719 281.143C459.626 265.631 507.154 255.828 556.792 254.835C559.15 254.835 559.15 251.112 556.792 251.112C511.125 251.981 466.079 259.799 422.646 273.946C383.308 286.727 334.415 304.721 297.435 275.931C295.574 274.442 292.968 277.048 294.829 278.537Z" fill="#1E0E62"/>
<path d="M629.387 52.9339C671.33 49.8315 711.785 38.1667 752.364 28.3633C794.556 18.0635 836.872 11.2383 880.429 15.9539C924.358 20.6694 966.922 33.9475 1009.98 43.3786C1051.43 52.5616 1093.5 56.7808 1135.94 54.6712C1183.71 52.3134 1230.87 42.2618 1275.42 25.1368C1277.65 24.2682 1276.66 20.6694 1274.43 21.5381C1193.39 52.6857 1104.91 59.2627 1020.03 41.6413C977.718 32.8306 936.271 19.9249 893.458 13.7202C852.135 7.76367 811.805 11.1142 771.102 20.049C723.946 30.3488 677.659 45.4882 629.387 49.087C627.029 49.4592 627.029 53.1821 629.387 52.9339Z" fill="#1E0E62"/>
<path d="M1300.98 363.913C1337.22 350.511 1374.82 369.622 1411.05 373.096C1430.54 374.958 1449.9 373.096 1468.88 368.629C1487.5 364.162 1505.61 357.585 1524.6 354.73C1544.95 351.628 1566.67 352.869 1584.29 364.41C1586.28 365.775 1588.14 362.548 1586.15 361.183C1554.88 340.832 1516.66 351.752 1483.65 360.935C1462.93 366.768 1442.2 370.987 1420.61 370.118C1400.01 369.374 1380.28 363.665 1360.18 359.446C1340.2 355.351 1319.6 353.117 1300.11 360.315C1297.76 361.059 1298.75 364.658 1300.98 363.913Z" fill="#1E0E62"/>
<path d="M36.0931 740.414C67.613 712.369 112.039 737.188 147.033 742.524C187.488 748.729 227.942 737.56 266.536 726.764C268.893 726.144 267.901 722.545 265.543 723.165C222.855 735.078 178.677 746.867 134.375 736.319C101.987 728.625 62.401 712.245 33.363 737.808C31.6257 739.298 34.2317 741.903 36.0931 740.414Z" fill="#1E0E62"/>
<path d="M432.946 1088.87C442.997 1076.96 458.509 1070.5 474.145 1072.49C483.08 1073.61 491.27 1077.7 499.46 1081.3C506.285 1084.28 513.234 1086.76 520.308 1088.75C550.711 1097.18 583.348 1095.94 613.006 1085.52C615.24 1084.78 614.247 1081.18 612.013 1081.92C578.756 1093.46 542.024 1093.46 508.891 1081.05C494.496 1075.72 481.094 1067.15 465.086 1068.39C451.56 1069.39 439.026 1075.84 430.216 1086.14C428.726 1088.13 431.457 1090.73 432.946 1088.87Z" fill="#1E0E62"/>
<path d="M644.154 1078.7C666.739 1072.12 689.945 1068.89 713.523 1069.02C715.88 1069.02 715.88 1065.29 713.523 1065.29C689.697 1065.17 666.119 1068.52 643.161 1075.1C640.928 1075.84 641.796 1079.44 644.154 1078.7Z" fill="#1E0E62"/>
<path d="M673.688 114.112C695.653 130.989 716.625 149.107 736.728 168.341C738.465 169.955 741.071 167.349 739.334 165.735C719.106 146.377 697.762 128.135 675.549 111.01C673.688 109.397 671.827 112.623 673.688 114.112Z" fill="#1E0E62"/>
<path d="M458.509 179.51C460.619 167.845 462.852 156.181 464.962 144.392C465.458 142.034 461.86 141.041 461.363 143.399C459.254 155.064 457.02 166.729 454.91 178.518C454.538 180.875 458.137 181.868 458.509 179.51Z" fill="#1E0E62"/>
<path d="M1174.03 253.47C1178.01 253.47 1181.23 250.248 1181.23 246.273C1181.23 242.298 1178.01 239.075 1174.03 239.075C1170.06 239.075 1166.84 242.298 1166.84 246.273C1166.84 250.248 1170.06 253.47 1174.03 253.47Z" fill="#8C30F5"/>
<path d="M233.651 847.881C238.38 847.881 242.213 844.047 242.213 839.318C242.213 834.589 238.38 830.756 233.651 830.756C228.922 830.756 225.089 834.589 225.089 839.318C225.089 844.047 228.922 847.881 233.651 847.881Z" fill="#8C30F5"/>
<path d="M192.204 72.1688C203.032 72.1688 211.811 63.3905 211.811 52.5619C211.811 41.7334 203.032 32.9551 192.204 32.9551C181.375 32.9551 172.597 41.7334 172.597 52.5619C172.597 63.3905 181.375 72.1688 192.204 72.1688Z" fill="#8C30F5"/>
<path d="M231.541 91.1549C235.174 91.1549 238.118 88.2103 238.118 84.578C238.118 80.9456 235.174 78.001 231.541 78.001C227.909 78.001 224.964 80.9456 224.964 84.578C224.964 88.2103 227.909 91.1549 231.541 91.1549Z" fill="#8C30F5"/>
<path d="M607.298 1194.97C615.385 1194.97 621.941 1188.41 621.941 1180.33C621.941 1172.24 615.385 1165.68 607.298 1165.68C599.211 1165.68 592.655 1172.24 592.655 1180.33C592.655 1188.41 599.211 1194.97 607.298 1194.97Z" fill="#8C30F5"/>
<path d="M1287.83 97.7325C1294.96 97.7325 1300.74 91.9543 1300.74 84.8267C1300.74 77.699 1294.96 71.9209 1287.83 71.9209C1280.7 71.9209 1274.92 77.699 1274.92 84.8267C1274.92 91.9543 1280.7 97.7325 1287.83 97.7325Z" fill="#8C30F5"/>
<path d="M1304.33 69.3137C1308.72 69.3137 1312.28 65.7579 1312.28 61.3717C1312.28 56.9854 1308.72 53.4297 1304.33 53.4297C1299.95 53.4297 1296.39 56.9854 1296.39 61.3717C1296.39 65.7579 1299.95 69.3137 1304.33 69.3137Z" fill="#8C30F5"/>
<path d="M211.934 51.5692C222.763 51.5692 231.541 42.7909 231.541 31.9623C231.541 21.1338 222.763 12.3555 211.934 12.3555C201.106 12.3555 192.328 21.1338 192.328 31.9623C192.328 42.7909 201.106 51.5692 211.934 51.5692Z" fill="#1E0E62"/>
<path d="M202.131 859.421C207.545 859.421 211.934 855.032 211.934 849.618C211.934 844.204 207.545 839.814 202.131 839.814C196.717 839.814 192.328 844.204 192.328 849.618C192.328 855.032 196.717 859.421 202.131 859.421Z" fill="#1E0E62"/>
<path d="M546.74 1166.55C551.538 1166.55 555.427 1162.66 555.427 1157.87C555.427 1153.07 551.538 1149.18 546.74 1149.18C541.943 1149.18 538.053 1153.07 538.053 1157.87C538.053 1162.66 541.943 1166.55 546.74 1166.55Z" fill="#1E0E62"/>
<path d="M1240.18 53.4287C1251.55 53.4287 1260.78 44.2059 1260.78 32.8291C1260.78 21.4522 1251.55 12.2295 1240.18 12.2295C1228.8 12.2295 1219.58 21.4522 1219.58 32.8291C1219.58 44.2059 1228.8 53.4287 1240.18 53.4287Z" fill="#1E0E62"/>
<path d="M901.028 365.403C903.495 365.403 905.495 363.402 905.495 360.935C905.495 358.468 903.495 356.468 901.028 356.468C898.561 356.468 896.561 358.468 896.561 360.935C896.561 363.402 898.561 365.403 901.028 365.403Z" fill="#1E0E62"/>
<path d="M855.237 99.47C852.632 105.551 850.15 111.755 847.544 117.836C846.675 120.07 850.274 121.062 851.142 118.829C853.748 112.748 856.23 106.543 858.836 100.463C859.705 98.2291 856.106 97.2363 855.237 99.47Z" fill="#1E0E62"/>
<path d="M854.617 102.447C859.208 107.287 862.807 112.747 865.165 118.952C866.034 121.186 869.632 120.193 868.764 117.959C866.034 111.134 862.187 105.178 857.223 99.8415C855.61 98.1042 852.88 100.71 854.617 102.447Z" fill="#1E0E62"/>
<path d="M848.536 121.061C852.135 127.762 856.23 134.091 860.822 140.047C862.311 141.909 865.537 140.047 864.048 138.186C859.456 132.105 855.361 125.776 851.763 119.199C850.522 117.09 847.419 118.951 848.536 121.061Z" fill="#1E0E62"/>
<path d="M865.413 119.2C863.924 126.149 862.559 133.098 861.07 140.047C860.573 142.405 864.172 143.398 864.669 141.04C866.158 134.091 867.523 127.142 869.012 120.192C869.508 117.959 865.909 116.966 865.413 119.2Z" fill="#1E0E62"/>
<path d="M1204.81 630.714C1201.83 636.174 1199.85 642.007 1198.98 648.212C1198.61 650.569 1202.2 651.562 1202.58 649.204C1203.45 643.372 1205.18 637.912 1208.04 632.7C1209.15 630.466 1205.93 628.605 1204.81 630.714Z" fill="#1E0E62"/>
<path d="M1204.56 631.832C1207.04 638.409 1209.9 644.738 1213.12 650.818C1214.24 652.928 1217.47 651.067 1216.35 648.957C1213.25 643.125 1210.52 637.044 1208.16 630.839C1207.29 628.605 1203.69 629.598 1204.56 631.832Z" fill="#1E0E62"/>
<path d="M1198.23 650.819C1201.46 655.41 1204.56 660.002 1207.79 664.593C1209.15 666.579 1212.38 664.717 1211.02 662.732C1207.79 658.14 1204.69 653.549 1201.46 648.957C1200.09 646.972 1196.87 648.833 1198.23 650.819Z" fill="#1E0E62"/>
<path d="M1211.76 650.197C1209.15 653.796 1207.91 657.891 1207.91 662.235C1207.91 664.592 1211.64 664.592 1211.64 662.235C1211.64 658.512 1212.75 655.037 1214.99 652.059C1216.35 650.073 1213.13 648.212 1211.76 650.197Z" fill="#1E0E62"/>
<path d="M166.764 982.027C163.414 989.348 160.063 996.546 156.712 1003.87C155.72 1005.98 158.946 1007.96 159.939 1005.73C163.289 998.407 166.64 991.21 169.991 983.888C170.983 981.778 167.881 979.917 166.764 982.027Z" fill="#1E0E62"/>
<path d="M167.385 983.017C170.611 990.711 173.838 998.405 177.064 1006.1C177.933 1008.33 181.532 1007.34 180.663 1005.11C177.436 997.412 174.21 989.719 170.984 982.025C170.115 979.791 166.516 980.784 167.385 983.017Z" fill="#1E0E62"/>
<path d="M155.844 1007.22C159.194 1013.79 162.421 1020.49 165.771 1027.07C166.392 1028.19 167.881 1028.19 168.75 1027.44C171.356 1025.33 172.597 1021.74 173.962 1018.88C175.947 1014.91 177.933 1010.94 179.918 1006.97C181.035 1004.86 177.808 1003 176.692 1005.11C174.954 1008.58 173.093 1012.06 171.356 1015.53C169.866 1018.51 168.501 1022.6 165.895 1024.71C166.888 1024.84 167.881 1024.96 168.874 1025.09C165.523 1018.51 162.297 1011.81 158.946 1005.23C157.953 1003.25 154.727 1005.11 155.844 1007.22Z" fill="#1E0E62"/>
<path d="M1415.77 405.236C1411.92 412.557 1409.57 420.251 1408.45 428.441C1408.08 430.799 1411.8 430.799 1412.17 428.441C1413.16 420.871 1415.4 413.798 1418.87 407.097C1420.11 404.987 1416.89 403.126 1415.77 405.236Z" fill="#1E0E62"/>
<path d="M1415.27 409.579C1419.12 417.025 1422.84 424.471 1426.69 431.916C1427.81 434.026 1431.03 432.165 1429.92 430.055C1426.07 422.609 1422.35 415.164 1418.5 407.718C1417.38 405.608 1414.16 407.47 1415.27 409.579Z" fill="#1E0E62"/>
<path d="M1408.7 428.939C1411.8 436.384 1415.52 443.333 1419.99 449.91C1421.35 451.896 1424.58 450.035 1423.22 448.049C1418.87 441.72 1415.15 435.019 1412.3 427.946C1411.43 425.836 1407.83 426.829 1408.7 428.939Z" fill="#1E0E62"/>
<path d="M1425.57 430.552C1423.34 437.501 1421.48 444.575 1420.24 451.896C1419.87 454.254 1423.46 455.247 1423.84 452.889C1425.08 445.692 1426.81 438.618 1429.17 431.545C1429.92 429.311 1426.32 428.318 1425.57 430.552Z" fill="#1E0E62"/>
<path d="M1401.38 1007.71C1399.89 1012.68 1398.52 1017.52 1397.03 1022.48C1396.41 1024.84 1399.89 1025.71 1400.63 1023.47C1402.12 1018.51 1403.49 1013.67 1404.97 1008.71C1405.72 1006.35 1402.12 1005.36 1401.38 1007.71Z" fill="#1E0E62"/>
<path d="M1401.13 1010.44C1403.36 1015.41 1405.72 1020.37 1407.95 1025.21C1408.94 1027.44 1412.17 1025.46 1411.18 1023.35C1408.94 1018.38 1406.59 1013.42 1404.35 1008.58C1403.36 1006.35 1400.13 1008.21 1401.13 1010.44Z" fill="#1E0E62"/>
<path d="M1398.02 1024.84C1399.14 1030.67 1401.87 1035.88 1405.72 1040.35C1407.33 1042.21 1409.94 1039.48 1408.32 1037.74C1404.85 1033.77 1402.62 1029.06 1401.62 1023.97C1401.13 1021.49 1397.53 1022.48 1398.02 1024.84Z" fill="#1E0E62"/>
<path d="M1407.83 1024.34C1406.21 1029.55 1405.47 1034.89 1405.59 1040.23C1405.72 1042.58 1409.44 1042.58 1409.32 1040.23C1409.19 1035.14 1409.81 1030.17 1411.43 1025.33C1412.17 1023.1 1408.57 1022.11 1407.83 1024.34Z" fill="#1E0E62"/>
<path d="M119.981 352.994C117.251 358.95 114.645 364.907 111.915 370.863C110.922 372.973 114.149 374.958 115.141 372.725C117.871 366.768 120.477 360.812 123.207 354.855C124.2 352.746 120.974 350.76 119.981 352.994Z" fill="#1E0E62"/>
<path d="M112.411 373.965C115.265 381.286 117.995 388.484 120.849 395.805C121.718 398.039 125.317 397.046 124.448 394.813C121.594 387.491 118.864 380.294 116.01 372.972C115.141 370.738 111.542 371.731 112.411 373.965Z" fill="#1E0E62"/>
<path d="M119.981 353.243C123.828 359.944 127.674 366.769 131.521 373.47C132.762 375.579 135.865 373.718 134.748 371.608C130.901 364.907 127.054 358.082 123.207 351.381C121.966 349.272 118.74 351.133 119.981 353.243Z" fill="#1E0E62"/>
<path d="M132.39 371.856C128.419 379.301 124.945 386.995 121.966 394.813C121.098 397.047 124.696 398.04 125.565 395.806C128.419 388.236 131.77 380.79 135.617 373.717C136.733 371.608 133.507 369.746 132.39 371.856Z" fill="#1E0E62"/>
<path d="M1055.4 467.408C1057.88 462.692 1062.6 459.466 1068.06 459.714C1072.53 459.838 1075.88 462.941 1079.85 464.43C1086.8 466.912 1088.91 462.444 1094.12 459.094C1101.19 454.378 1108.02 464.926 1115.59 464.802C1119.93 464.678 1123.53 462.568 1123.65 457.977C1122.66 458.473 1121.79 459.094 1120.8 459.59C1124.65 461.576 1128.49 463.561 1132.22 465.671C1134.32 466.788 1136.19 463.561 1134.08 462.444C1130.23 460.459 1126.38 458.473 1122.66 456.364C1121.42 455.743 1119.93 456.488 1119.81 457.977C1119.43 466.788 1102.31 454.254 1099.08 453.882C1091.76 452.889 1088.91 461.948 1082.58 460.955C1075.88 459.838 1071.66 454.999 1064.46 456.24C1059 457.232 1054.53 460.583 1052.05 465.547C1051.18 467.656 1054.28 469.518 1055.4 467.408Z" fill="#1E0E62"/>
<path d="M1102.93 442.215C1108.51 436.011 1117.32 443.829 1123.65 444.573C1130.97 445.442 1136.68 437.624 1143.76 441.595C1149.59 444.946 1160.26 452.888 1164.48 442.712C1165.35 440.478 1161.75 439.485 1160.88 441.719C1157.9 448.917 1147.23 438.865 1143.63 437.376C1138.79 435.266 1135.57 437.004 1131.22 439.113C1126.01 441.595 1122.29 440.726 1117.32 438.493C1115.09 437.5 1112.86 436.631 1110.37 436.259C1106.53 435.763 1103.05 436.507 1100.32 439.485C1098.71 441.347 1101.32 443.953 1102.93 442.215Z" fill="#1E0E62"/>
<path d="M1002.16 149.478C1003.9 146.252 1005.89 145.383 1008.12 146.872C1009.11 147.245 1010.11 147.741 1011.1 148.362C1012.22 148.858 1013.33 149.602 1014.45 149.975C1016.44 150.595 1018.42 150.843 1020.41 150.347C1025.74 148.858 1028.47 142.157 1034.18 142.281C1039.52 142.405 1043.36 147.493 1048.95 144.887C1051.31 143.77 1052.92 141.785 1055.15 140.544C1060.12 137.814 1066.2 138.806 1070.42 142.281C1072.28 143.77 1074.88 141.164 1073.02 139.675C1067.44 135.083 1059.74 133.718 1053.29 137.317C1050.44 138.93 1048.08 142.405 1044.36 141.909C1042.25 141.66 1040.39 140.171 1038.4 139.427C1035.42 138.31 1032.69 137.938 1029.71 139.303C1025.99 141.04 1023.51 145.88 1019.41 146.748C1014.2 147.865 1010.73 142.529 1005.89 142.405C1001.3 142.281 995.96 146.748 999.062 151.34C1000.3 153.325 1003.53 151.464 1002.16 149.478Z" fill="#8C30F5"/>
<path d="M1043.36 127.516C1044.85 119.449 1058.88 127.267 1063.84 126.399C1067.07 125.902 1069.42 123.669 1072.4 122.552C1077.12 120.69 1081.71 121.435 1086.05 124.041C1088.16 125.282 1090.02 122.055 1087.91 120.814C1084.19 118.581 1080.22 117.464 1076 117.836C1074.14 117.96 1072.4 118.457 1070.79 119.077C1065.83 121.187 1063.84 123.545 1057.64 122.055C1051.68 120.566 1041.5 117.588 1039.89 126.523C1039.27 128.881 1042.87 129.873 1043.36 127.516Z" fill="#8C30F5"/>
<path d="M103.849 575.988C105.462 568.17 116.258 578.843 118.368 580.208C120.725 581.821 123.331 582.938 126.185 582.317C129.908 581.697 132.762 578.594 136.609 577.726C142.814 576.361 149.019 578.346 153.486 582.814C155.223 584.551 157.829 581.821 156.092 580.208C152.245 576.361 147.53 574.003 142.069 573.631C139.339 573.382 136.609 573.755 134.003 574.623C129.908 575.988 126.682 579.959 121.718 577.974C116.506 575.864 114.521 570.528 108.564 569.908C104.717 569.535 101.118 571.025 100.374 574.996C99.7534 577.353 103.352 578.346 103.849 575.988Z" fill="#8C30F5"/>
<path d="M145.172 567.054C147.902 563.331 160.435 570.777 164.034 571.646C169.867 573.011 175.823 573.011 181.78 572.266C184.137 571.894 183.145 568.295 180.787 568.667C170.487 570.032 162.545 567.302 153.238 563.579C149.019 561.966 144.8 561.346 141.945 565.193C140.58 567.054 143.807 568.916 145.172 567.054Z" fill="#8C30F5"/>
<path d="M447.713 827.158C449.699 824.055 452.801 822.07 456.648 822.07C459.874 822.07 461.86 824.055 464.714 824.924C467.568 825.917 469.926 825.296 472.408 823.683C477.247 820.457 479.605 816.486 486.182 816.734C492.139 816.858 497.847 819.712 503.059 822.318C505.169 823.435 507.03 820.208 504.92 819.092C495.117 814.128 483.204 809.412 473.773 817.478C471.663 819.216 471.415 819.712 468.189 820.333C464.59 821.077 464.962 820.581 462.232 819.464C459.874 818.471 457.641 818.099 455.035 818.347C450.443 818.843 446.844 821.449 444.487 825.172C443.246 827.282 446.472 829.143 447.713 827.158Z" fill="#8C30F5"/>
<path d="M489.036 834.353C494.869 829.265 505.913 839.937 513.111 838.945C517.454 838.324 519.439 835.098 522.294 832.12C527.754 826.287 535.944 825.418 542.645 829.762C544.63 831.003 546.492 827.9 544.506 826.535C539.667 823.433 533.958 822.44 528.374 824.053C525.892 824.798 523.659 825.915 521.673 827.528C518.695 830.01 516.833 834.477 512.614 835.222C503.555 836.835 494.993 824.178 486.43 831.747C484.693 833.361 487.299 835.966 489.036 834.353Z" fill="#8C30F5"/>
<path d="M319.772 38.4148C320.765 34.3197 323.123 31.0932 327.094 29.3559C330.568 27.8668 333.422 28.8596 337.021 28.7355C340.992 28.4873 343.97 26.5018 346.328 23.5235C349.927 19.0561 352.285 14.4646 357.373 11.4864C363.205 8.13585 369.906 7.51539 376.359 9.50089C378.717 10.2455 379.585 6.64672 377.352 5.90216C365.439 2.30343 353.65 6.89492 346.452 16.9465C343.598 20.9175 341.489 24.8885 336.028 25.0126C332.678 25.1367 329.824 24.3922 326.597 25.509C321.137 27.3704 317.414 31.9619 316.173 37.422C315.553 39.7798 319.152 40.7726 319.772 38.4148Z" fill="#8C30F5"/>
<path d="M337.27 52.6864C331.934 38.5397 357.497 39.2842 365.191 36.5542C374.746 33.2036 382.936 27.2471 391.002 21.2906C392.864 19.9256 391.002 16.6991 389.141 18.0642C383.681 22.1593 378.096 26.1303 372.14 29.3567C364.694 33.3278 357.621 34.5687 349.555 35.8096C340.992 37.1747 329.824 43.1312 333.795 53.5551C334.54 55.7888 338.138 54.9201 337.27 52.6864Z" fill="#8C30F5"/>
<path d="M832.156 764.115C841.587 739.42 857.595 723.288 874.1 706.536C895.816 684.571 936.147 643.744 977.222 650.197C1012.22 655.657 1008.37 689.286 1056.39 713.733C1101.69 736.939 1119.06 713.981 1164.23 738.924C1170.93 742.647 1218.21 769.575 1229.01 820.454C1233.48 841.55 1232.36 870.464 1223.05 873.194C1212.5 876.296 1208.91 815.49 1166.71 791.664C1134.45 773.422 1090.02 782.233 1086.42 795.263C1082.58 809.037 1127.13 818.096 1152.32 865.996C1163.36 886.844 1165.72 905.83 1169.07 931.89C1172.17 956.461 1175.65 1006.84 1164.23 1009.82C1154.8 1012.3 1149.71 978.674 1115.09 951.125C1096.85 936.606 1077.37 930.649 1038.4 918.736C1003.28 908.064 985.536 902.852 975.981 911.539C961.834 924.445 972.755 957.205 974.74 963.038C988.639 1004.73 1024.13 1022.11 1021.52 1026.57C1018.05 1032.16 953.272 1016.03 900.408 964.279C855.238 919.977 804.731 835.717 832.156 764.115Z" fill="#8C30F5"/>
<path d="M1237.32 907.94C1236.83 911.414 1234.22 930.773 1245.64 943.182C1258.3 956.833 1273.68 946.409 1289.19 959.935C1303.47 972.344 1301.6 990.958 1305.95 990.586C1310.91 990.214 1318.48 965.023 1307.81 949.759C1304.46 944.92 1296.27 940.576 1280.01 932.138C1263.38 923.451 1261.15 923.824 1256.81 919.108C1246.01 907.443 1247.62 892.18 1243.78 892.18C1240.8 892.18 1238.19 901.363 1237.32 907.94Z" fill="#8C30F5"/>
<path d="M1130.6 1053.63C1123.65 1064.05 1124.4 1075.22 1125.02 1087.01C1125.76 1099.04 1126.26 1108.85 1133.33 1117.66C1141.4 1127.71 1154.8 1131.93 1156.54 1129.7C1157.9 1127.96 1151.82 1123.24 1146.36 1112.94C1145.74 1111.7 1137.68 1096.44 1138.05 1078.57C1138.42 1056.23 1151.57 1042.95 1148.22 1040.6C1145.74 1038.73 1136.19 1045.19 1130.6 1053.63Z" fill="#8C30F5"/>
<path d="M1180.36 847.877C1201.21 861.651 1189.8 893.543 1203.45 912.157C1204.81 914.019 1208.04 912.157 1206.67 910.296C1192.53 890.937 1204.56 859.417 1182.23 844.65C1180.24 843.285 1178.38 846.512 1180.36 847.877Z" fill="#8C30F5"/>
<path d="M1172.92 758.034C1195.26 775.159 1210.77 799.606 1216.97 827.03C1217.47 829.388 1221.07 828.395 1220.57 826.038C1214.12 797.62 1197.99 772.553 1174.9 754.932C1172.79 753.319 1170.93 756.545 1172.92 758.034Z" fill="#1E0E62"/>
<path d="M1100.94 826.784C1118.81 841.427 1132.84 860.165 1141.52 881.634C1142.39 883.867 1145.99 882.874 1145.12 880.641C1136.06 858.552 1122.04 839.317 1103.55 824.178C1101.81 822.689 1099.08 825.295 1100.94 826.784Z" fill="#1E0E62"/>
<path d="M1150.21 902.108C1153.56 911.043 1155.79 920.102 1156.66 929.533C1156.91 931.891 1160.63 931.891 1160.38 929.533C1159.39 919.73 1157.16 910.298 1153.68 901.116C1153.06 898.882 1149.46 899.875 1150.21 902.108Z" fill="#1E0E62"/>
<path d="M959.228 922.708C956.126 941.446 959.725 960.184 969.9 976.316C971.141 978.302 974.368 976.44 973.127 974.455C963.571 959.315 959.849 941.446 962.827 923.7C963.199 921.342 959.6 920.35 959.228 922.708Z" fill="#1E0E62"/>
<path d="M974.864 986.492C979.332 994.682 985.04 1002 991.865 1008.33C993.602 1009.95 996.208 1007.34 994.471 1005.73C987.894 999.521 982.434 992.448 978.091 984.63C976.974 982.521 973.747 984.382 974.864 986.492Z" fill="#1E0E62"/>
<path d="M832.404 797.372C831.411 809.161 832.528 820.826 835.879 832.242C836.499 834.6 840.098 833.607 839.477 831.249C836.251 820.081 835.134 808.913 836.127 797.372C836.375 795.014 832.652 795.014 832.404 797.372Z" fill="#1E0E62"/>
<path d="M839.602 844.899C841.587 854.579 845.186 863.513 850.398 871.952C851.639 873.937 854.865 872.076 853.624 870.09C848.661 861.9 845.186 853.338 843.201 843.907C842.704 841.673 839.105 842.666 839.602 844.899Z" fill="#1E0E62"/>
<path d="M515.592 69.1895C512.118 78.6206 507.898 91.5264 503.803 107.162C499.584 123.419 489.657 166.231 490.649 222.57C491.642 276.923 502.314 316.881 512.118 352.496C527.381 408.09 545.995 448.048 557.04 471.254C557.04 471.254 592.158 545.586 650.358 625.255C660.658 639.277 673.812 657.023 673.812 657.023C683.367 669.804 691.558 680.476 697.266 688.17C701.857 693.382 707.69 699.215 715.26 704.799C729.406 715.347 743.429 720.683 753.232 723.413C769.364 709.638 785.497 695.74 801.629 681.965C808.95 688.915 816.396 695.74 823.718 702.689C833.893 692.265 842.952 683.951 850.026 677.87C880.801 651.19 906.24 637.54 912.197 634.313C917.284 631.583 921.628 629.474 924.606 628.109C920.015 618.926 915.423 609.743 910.832 600.436C918.277 593.983 926.84 587.158 936.395 580.457C949.301 571.398 961.71 564.076 973.003 558.368C972.879 547.944 971.514 532.184 964.688 514.811C959.601 501.781 953.52 492.97 950.914 489.248C922.248 447.924 1006.76 561.843 896.313 404.243C853.5 343.189 832.156 312.538 822.353 299.88C791.701 259.798 767.627 232.373 750.502 212.89C717.741 175.538 702.974 161.639 691.061 151.464C674.805 137.317 656.811 122.053 629.635 107.907C612.51 99.0961 598.363 94.2564 577.763 87.1831C552.324 78.4965 530.856 72.7882 515.592 69.1895Z" fill="white"/>
<path d="M511.745 71.4226C484.817 154.441 484.817 244.037 504.176 328.669C509.015 349.889 515.096 370.861 522.293 391.337C525.892 401.761 530.235 411.936 534.082 422.236C535.447 425.835 535.696 429.434 537.309 433.032C539.667 438.617 542.148 444.201 544.63 449.785C549.222 460.209 554.061 470.509 559.149 480.809C564.237 490.984 570.442 500.664 575.033 510.963C576.771 514.81 578.26 518.905 580.245 522.628C582.851 527.344 586.698 530.943 589.428 535.534C595.137 545.089 600.597 554.893 606.553 564.324C633.73 608.129 664.629 649.452 696.273 690.031C697.762 691.893 700.368 689.287 698.879 687.425C670.958 651.562 643.657 615.202 619.087 577.106C613.006 567.674 607.174 558.243 601.465 548.564C598.735 543.972 596.005 539.257 593.399 534.541C590.793 529.95 587.319 526.723 584.589 522.256C582.355 518.533 580.742 514.562 579.128 510.591C576.895 505.255 573.916 500.415 571.186 495.328C565.974 485.772 561.135 476.093 556.543 466.29C551.704 455.99 547.112 445.566 542.521 435.142C540.535 430.551 539.791 425.711 537.929 420.995C535.944 415.908 533.834 410.82 531.849 405.608C524.279 385.629 517.702 365.277 512.242 344.553C501.322 302.61 494.993 259.549 494.372 216.116C493.752 167.347 500.453 118.578 515.592 72.043C515.965 70.1816 512.366 69.1889 511.745 71.4226Z" fill="#1E0E62"/>
<path d="M513.483 71.4231C534.206 73.0363 555.302 80.2338 574.785 87.0589C594.02 93.8841 613.006 101.33 630.627 111.505C665.746 131.857 696.769 158.537 725.063 187.575C754.225 217.482 780.781 250.367 806.469 283.252C832.032 316.012 856.478 349.89 880.056 384.14C906.116 422.237 931.183 461.078 955.754 500.292C956.994 502.277 960.221 500.416 958.98 498.43C913.934 426.828 867.399 356.095 815.651 289.084C765.642 224.183 712.033 157.917 641.796 113.863C622.685 101.826 602.21 93.1395 581.114 85.3216C559.77 77.5037 536.44 69.4376 513.607 67.5762C511.125 67.5762 511.125 71.299 513.483 71.4231Z" fill="#1E0E62"/>
<path d="M701.609 688.914C759.437 629.97 824.462 578.223 894.823 535.038C914.678 522.877 934.782 511.46 955.381 500.788C957.491 499.671 955.629 496.445 953.52 497.562C880.429 535.783 811.929 582.814 750.254 637.54C732.633 653.175 715.508 669.432 699.003 686.309C697.266 688.046 699.872 690.652 701.609 688.914Z" fill="#1E0E62"/>
<path d="M698.011 691.77C712.778 708.274 732.012 719.939 753.481 725.151C755.838 725.772 756.831 722.173 754.473 721.552C733.501 716.34 715.011 705.172 700.616 689.04C699.003 687.302 696.397 690.033 698.011 691.77Z" fill="#1E0E62"/>
<path d="M954.761 501.781C964.44 518.781 970.024 537.52 971.265 557.002C971.389 559.36 975.112 559.36 974.988 557.002C973.747 536.775 967.915 517.541 957.987 499.919C956.87 497.81 953.644 499.671 954.761 501.781Z" fill="#1E0E62"/>
<path d="M755.715 724.157C822.849 662.855 895.568 608.005 973.127 560.477C975.113 559.236 973.251 556.01 971.266 557.251C893.583 604.903 820.492 660.001 753.109 721.551C751.371 723.164 753.977 725.77 755.715 724.157Z" fill="#1E0E62"/>
<path d="M802.498 684.199C809.323 690.9 816.148 697.601 822.973 704.427C823.718 705.171 824.959 705.171 825.579 704.427C845.682 683.082 868.268 664.22 892.962 648.46C898.919 644.613 904.999 641.015 911.204 637.54C915.175 635.306 922.745 633.197 925.103 628.977C927.584 624.758 923.862 619.05 921.876 615.451C918.402 609.122 914.306 603.29 909.839 597.83C908.35 595.968 905.744 598.574 907.233 600.436C911.576 605.772 915.423 611.356 918.65 617.313C919.394 618.554 921.007 620.663 921.132 622.152C920.635 624.386 920.139 626.495 919.642 628.729C919.022 629.101 918.401 629.35 917.781 629.722C915.299 631.583 912.073 632.7 909.343 634.313C898.546 640.394 887.999 646.971 877.823 654.044C857.968 668.067 839.602 684.075 822.973 701.696C823.842 701.696 824.711 701.696 825.579 701.696C818.754 694.995 811.929 688.294 805.104 681.469C803.366 679.856 800.76 682.462 802.498 684.199Z" fill="#1E0E62"/>
<path d="M520.556 378.307C551.083 342.319 586.822 311.172 623.43 281.513C660.162 251.855 698.631 224.058 741.692 204.327C743.925 203.334 741.94 200.108 739.83 201.101C697.142 220.583 659.045 248.132 622.561 277.418C585.333 307.449 548.974 339.093 517.95 375.577C516.337 377.562 518.943 380.168 520.556 378.307Z" fill="#1E0E62"/>
<path d="M742.436 221.7C738.341 221.949 736.604 215.123 741.195 214.751C742.809 214.627 744.67 215.372 745.29 216.985C746.159 219.343 743.925 221.824 741.568 221.824C739.83 221.824 739.706 224.679 741.568 224.679C745.415 224.679 748.765 221.08 748.145 217.233C747.648 214.007 744.298 212.021 741.195 212.145C737.845 212.393 735.239 215.123 735.611 218.474C735.983 221.824 738.962 224.927 742.436 224.679C744.298 224.43 744.298 221.576 742.436 221.7Z" fill="#1E0E62"/>
<path d="M931.928 496.198C932.052 496.198 932.052 496.198 932.176 496.074C931.804 496.074 931.431 495.949 931.059 495.949C932.424 496.57 931.68 493.964 931.556 493.592C931.556 493.219 931.68 492.723 931.804 492.351C932.176 491.606 932.796 490.862 933.541 490.489C935.154 489.745 936.892 490.986 937.388 492.599C938.381 495.825 933.665 497.439 932.424 494.584C931.68 492.971 929.322 494.336 930.066 495.949C931.556 499.424 936.643 499.672 939.125 497.066C941.979 493.964 939.87 488.752 936.023 487.635C931.928 486.518 927.957 490.862 928.95 494.833C929.322 496.446 931.431 498.431 933.045 496.818C934.286 495.577 933.045 492.847 931.183 493.592C929.57 494.212 930.315 496.818 931.928 496.198Z" fill="#1E0E62"/>
<path opacity="0.15" d="M515.592 69.9346C535.199 82.5922 561.755 101.206 590.793 126.149C608.787 141.661 655.446 183.232 713.77 263.893C777.058 351.38 808.702 395.061 815.031 443.83C818.257 469.269 822.725 541.74 758.816 630.839C785.248 610.736 811.805 590.509 838.237 570.406C849.777 589.392 861.194 608.378 872.735 627.365C860.325 636.548 847.916 645.606 835.507 654.789C841.587 662.111 847.668 669.308 853.748 676.63C861.194 669.433 870.129 661.739 880.429 654.169C896.313 642.504 911.576 634.19 924.73 628.109C919.766 618.554 914.927 608.875 909.963 599.319C931.307 585.297 952.651 571.15 973.995 557.128C972.879 546.58 970.273 531.316 963.447 514.191C955.505 494.088 945.454 480.686 941.607 475.474C913.81 437.873 927.336 446.932 869.136 365.154C827.316 306.334 804.235 273.449 767.255 230.884C743.553 203.584 727.793 185.59 702.602 163.377C675.798 139.675 643.285 111.506 593.647 90.9064C562.003 78.0007 534.206 72.5405 515.592 69.9346Z" fill="#494949"/>
<path opacity="0.11" d="M914.058 430.427C912.941 438.369 910.708 450.53 905.124 464.304C892.218 496.197 872.363 510.095 830.915 552.039C811.308 571.894 782.146 601.304 784.876 604.531C787.482 607.633 819.375 583.062 875.093 546.331C907.729 524.738 935.154 507.986 953.148 497.065C940.118 474.852 927.088 452.64 914.058 430.427Z" fill="#494949"/>
<path opacity="0.08" d="M955.754 500.789C954.016 501.161 958.236 514.687 953.148 531.564C949.425 543.973 943.096 549.93 927.584 568.668C920.883 576.734 911.08 588.895 899.415 604.531C923.737 587.903 948.06 571.274 972.382 554.645C961.338 510.716 957.243 500.54 955.754 500.789Z" fill="#494949"/>
<path d="M746.159 906.947C746.531 910.546 747.896 913.4 750.006 916.875C758.941 931.27 773.708 940.08 784.38 945.168C780.161 958.446 775.073 977.557 771.35 1000.89C767.875 1023.35 763.78 1049.53 769.116 1051.27C770.978 1051.89 776.438 1050.15 827.192 949.636C834.266 935.613 840.098 923.948 843.945 916.006C816.892 903.845 789.964 891.56 762.912 879.398C760.306 881.384 744.794 892.677 746.159 906.947Z" fill="#1E0E62" stroke="#1E0E62" stroke-width="2" stroke-miterlimit="10"/>
<path d="M689.572 632.452C666.739 648.336 651.971 663.724 638.817 677.622C633.481 683.206 607.918 710.383 580.99 753.071C569.077 771.934 560.266 788.562 554.185 801.096C554.93 806.184 556.667 813.505 561.259 820.827C566.347 829.017 572.055 832.616 580.99 840.558C591.91 850.237 595.881 855.945 602.21 862.398C614.495 875.056 631.744 884.611 665.746 903.349C708.434 926.803 731.391 935.365 738.465 937.971C747.151 941.074 754.473 943.432 759.685 945.045C762.167 933.504 765.145 921.219 768.868 908.313C772.218 896.772 775.817 885.976 779.416 875.924C752.984 856.566 725.807 834.849 698.258 810.279C688.703 801.84 679.52 793.278 670.71 784.839C679.644 774.043 692.178 759.897 708.062 744.633C712.653 740.166 722.333 730.983 734.122 721.303C749.013 709.266 771.474 693.134 802.497 678.243C807.833 642.628 801.505 609.371 782.022 598.574C757.699 585.172 720.719 610.86 689.572 632.452Z" fill="white"/>
<path d="M664.505 650.942C620.576 688.17 584.216 734.209 558.405 785.708C555.799 791.044 552.076 797 551.579 802.957C551.083 809.285 554.93 814.125 558.405 818.965C566.719 830.257 576.15 840.805 586.202 850.609C607.546 871.084 632.116 887.961 657.928 902.232C689.696 919.853 723.325 933.876 756.831 947.774C759.065 948.643 760.057 945.044 757.824 944.176C702.974 921.342 647.008 898.013 601.217 859.171C590.917 850.361 581.114 840.929 572.303 830.63C567.712 825.169 563.12 819.585 559.149 813.753C556.667 810.154 554.806 806.804 555.426 802.212C556.047 797.745 558.653 793.525 560.638 789.43C572.551 765.232 586.822 742.275 603.202 720.806C621.941 696.112 643.409 673.651 667.111 653.672C668.972 652.058 666.366 649.452 664.505 650.942Z" fill="#1E0E62"/>
<path d="M769.737 693.754C727.172 721.303 689.944 756.173 659.789 796.876C658.424 798.862 661.651 800.723 663.016 798.738C692.798 758.531 729.654 724.033 771.598 696.857C773.583 695.74 771.722 692.513 769.737 693.754Z" fill="#1E0E62"/>
<path d="M668.6 786.701C703.47 818.22 739.333 848.499 776.313 877.413C778.175 878.902 780.781 876.296 778.919 874.807C741.939 845.893 705.952 815.614 671.206 784.095C669.468 782.481 666.862 785.087 668.6 786.701Z" fill="#1E0E62"/>
<path d="M776.437 876.916C768.62 899.005 762.539 921.59 758.072 944.548C757.575 946.905 761.174 947.898 761.67 945.54C766.138 922.583 772.342 899.998 780.036 877.909C780.781 875.675 777.182 874.683 776.437 876.916Z" fill="#1E0E62"/>
<path opacity="0.11" d="M737.596 679.855C720.471 681.344 707.566 693.877 667.731 749.223C652.468 770.443 639.686 788.933 629.883 803.576C644.03 813.504 655.198 821.694 662.271 827.03C701.857 856.689 718.486 873.317 752.115 891.435C759.437 895.406 765.518 898.26 769.116 899.873C771.97 892.055 774.825 884.237 777.555 876.42C768.123 868.229 758.692 860.163 749.137 851.973C722.829 829.636 696.769 808.044 670.834 787.072C681.63 771.932 691.806 760.516 699.251 752.698C721.216 729.74 743.057 714.229 760.057 702.316C765.89 698.221 770.854 694.994 774.08 692.885C758.072 680.599 745.538 679.11 737.596 679.855Z" fill="#494949"/>
<path opacity="0.08" d="M742.56 712.245C731.888 714.727 717.617 719.567 703.098 729.246C667.607 752.948 655.694 789.183 652.22 801.593C671.33 816.484 691.061 831.499 711.537 846.515C731.392 861.158 751.123 875.056 770.357 888.459C773.211 884.363 776.066 880.144 778.796 876.049C752.364 856.815 724.939 834.602 697.514 809.162C688.827 801.22 680.513 793.154 672.571 785.212C676.914 779.504 681.63 773.672 686.594 767.715C705.208 745.626 724.318 727.385 742.56 712.245Z" fill="#494949"/>
<path d="M977.47 866.371C990.624 878.78 1003.9 891.313 1017.06 903.723C1013.58 982.895 1020.16 1001.51 1027.11 1002.87C1037.9 1004.98 1056.39 967.631 1064.46 938.221C1070.54 915.884 1071.16 896.277 1070.54 882.999C1049.94 864.633 1029.34 846.267 1008.74 827.777C998.318 840.683 987.894 853.589 977.47 866.371Z" fill="#1E0E62" stroke="#1E0E62" stroke-width="2" stroke-miterlimit="10"/>
<path d="M719.23 643.124C720.347 663.724 734.742 676.258 734.742 676.258C743.677 684.076 753.729 686.185 758.692 686.806C762.663 688.419 766.634 690.156 770.729 691.769C776.934 700.704 786.117 713.362 798.278 727.757C814.41 747.115 836.127 770.197 889.239 813.878C915.423 835.346 949.176 861.778 990.003 890.816C995.836 887.962 1002.79 883.743 1009.73 877.538C1025 864.012 1032.07 848.252 1035.3 839.317C1028.1 832.368 1017.43 821.944 1005.02 809.038C949.921 752.079 913.189 703.31 885.144 665.834C866.654 641.139 842.952 608.254 816.768 568.544C756.831 584.924 717.741 616.692 719.23 643.124Z" fill="white"/>
<path d="M738.465 680.975C748.392 684.45 758.196 687.8 768.123 691.275C770.357 692.019 771.35 688.421 769.116 687.676C759.188 684.201 749.385 680.851 739.457 677.376C737.224 676.632 736.231 680.23 738.465 680.975Z" fill="#1E0E62"/>
<path d="M764.028 687.55C810.688 751.707 871.121 803.578 933.789 851.603C951.782 865.377 970.024 879.027 988.266 892.554C990.252 894.043 991.989 890.692 990.127 889.327C927.336 842.792 864.172 795.636 810.812 738.305C795.3 721.676 780.781 704.055 767.379 685.689C765.89 683.828 762.663 685.689 764.028 687.55Z" fill="#1E0E62"/>
<path d="M837.243 601.057C881.173 668.44 930.686 731.976 985.288 791.045C1001.05 808.17 1017.3 824.798 1033.81 841.055C1035.55 842.792 1038.15 840.062 1036.41 838.449C978.959 782.11 926.343 720.932 879.187 655.782C865.785 637.292 852.879 618.43 840.346 599.196C839.105 597.21 835.878 599.071 837.243 601.057Z" fill="#1E0E62"/>
<path d="M1031.7 838.699C1024.5 860.043 1010.6 879.898 989.631 889.329C987.397 890.322 989.383 893.548 991.493 892.555C1013.33 882.752 1027.73 861.904 1035.17 839.691C1036.04 837.458 1032.44 836.465 1031.7 838.699Z" fill="#1E0E62"/>
<path opacity="0.09" d="M837.368 599.072C830.294 589.517 824.338 581.699 820.367 576.611C816.396 583.933 810.936 596.218 810.439 611.482C809.322 645.98 834.638 660.747 907.233 741.16C938.877 776.154 955.629 797.25 996.456 838.946C1006.01 848.625 1014.08 856.691 1019.91 862.4C1024.38 854.582 1028.84 846.764 1033.44 838.946C994.098 799.484 962.951 763.869 939.621 735.7C917.16 708.523 897.057 684.201 876.333 653.922C870.997 646.352 857.471 626.125 837.368 599.072Z" fill="#494949"/>
<path opacity="0.09" d="M859.332 633.943C861.07 642.506 864.668 657.025 871.742 673.902C892.217 722.05 922.496 742.402 976.973 802.587C987.397 814.128 1003.53 832.37 1022.39 855.948C1026.74 849.743 1031.08 843.662 1035.42 837.457C1031.45 833.735 1025.12 827.902 1017.43 820.457C1003.28 806.806 964.936 768.709 891.721 675.763C883.779 665.836 872.61 651.441 859.332 633.943Z" fill="#494949"/>
<path d="M456.523 524.242C454.041 525.235 450.319 527.345 439.274 545.09C427.361 564.2 419.295 577.23 413.339 597.83C408.127 616.196 406.886 632.949 407.258 646.599C408.127 650.57 408.747 656.402 406.762 662.855C404.156 671.045 399.44 673.031 390.505 684.199C386.907 688.667 380.95 696.236 376.234 706.536C371.023 718.077 373.629 719.566 368.665 730.859C362.708 744.385 353.898 753.692 352.408 755.181C344.218 763.744 340.247 763.992 336.648 771.437C332.553 779.876 333.794 787.818 334.167 790.176C334.415 791.913 337.021 807.052 345.831 808.914C348.189 809.41 351.912 809.162 353.401 806.928C355.759 803.454 350.299 798.614 349.306 790.176C348.437 782.482 351.788 776.277 353.898 772.43C360.226 760.641 367.548 762.379 374.249 752.575C380.702 742.896 374.621 739.918 380.826 721.676C384.301 711.5 387.775 701.324 397.082 693.755C401.301 690.28 405.397 688.419 409.243 682.586C412.594 677.498 413.835 672.41 414.331 668.936C421.157 679.856 428.354 686.929 433.566 691.273C440.515 696.981 448.457 703.682 455.158 701.2C458.757 699.835 461.983 695.74 461.363 692.886C460.991 691.273 459.502 690.776 455.655 687.302C455.655 687.302 454.165 685.937 450.815 682.338C448.581 679.98 445.355 675.637 442.501 667.447C443.617 666.206 446.472 663.476 450.319 663.227C454.538 663.103 457.764 666.082 460.991 669.308C467.071 675.265 466.823 678.863 470.67 682.462C473.648 685.316 479.108 688.294 489.905 687.55C489.408 686.185 488.54 683.951 487.423 681.469C483.576 673.155 481.59 672.286 481.342 668.812C481.218 666.082 482.335 665.337 487.423 656.65C491.766 649.205 493.876 645.482 494 643.496C494.62 636.175 488.291 633.693 486.926 625.255C485.685 618.181 488.788 612.473 491.021 608.006C503.927 581.822 512.117 565.193 509.76 552.66C506.161 533.053 474.889 516.548 456.523 524.242Z" fill="#1E0E62"/>
<path d="M450.815 528.71C432.821 547.076 421.281 570.405 413.587 594.728C406.141 618.43 400.557 645.482 412.346 668.688C413.463 670.797 416.689 668.936 415.572 666.826C403.907 643.993 410.236 616.941 417.806 593.735C425.252 570.653 436.296 548.813 453.421 531.316C455.034 529.578 452.428 526.972 450.815 528.71Z" fill="#1E0E62"/>
<path d="M432.201 635.926C433.69 635.181 435.179 634.561 436.668 633.816C437.785 634.436 438.902 635.181 440.019 635.801C441.384 637.042 442.625 638.656 443.493 640.269C445.231 643.247 446.099 646.846 445.851 650.32C445.355 657.022 440.515 662.233 439.274 668.686C438.53 672.657 441.136 675.512 443.369 678.49C447.216 683.578 451.684 688.293 456.523 692.512C458.261 694.126 460.991 691.52 459.129 689.906C456.027 687.052 452.925 684.198 450.195 680.972C445.727 675.884 441.756 671.541 444.858 664.467C447.589 658.262 450.443 652.43 449.202 645.357C448.209 639.897 445.107 634.312 440.267 631.334C436.172 628.852 431.208 629.349 428.974 633.94C427.858 636.174 431.084 638.035 432.201 635.926Z" fill="#1E0E62"/>
<path d="M412.594 669.183C419.791 680.724 429.719 690.279 441.756 696.608C445.355 698.469 452.18 702.813 456.523 700.951C460.618 699.214 459.874 694.25 458.757 690.9C458.012 688.666 454.414 689.659 455.158 691.892C458.012 700.951 445.975 694.622 443.618 693.381C439.771 691.396 436.172 689.038 432.697 686.308C425.872 680.972 420.288 674.519 415.696 667.198C414.58 665.336 411.353 667.198 412.594 669.183Z" fill="#1E0E62"/>
<path d="M498.095 555.266C490.773 579.836 486.182 605.152 484.072 630.715C483.948 631.46 484.693 632.328 485.437 632.452C493.255 634.562 492.138 644.241 489.284 649.701C486.43 654.913 481.963 659.257 479.729 664.841C475.758 674.892 487.547 678.119 487.299 686.93C487.919 686.309 488.54 685.689 489.16 685.068C477.992 684.448 468.56 678.491 462.976 668.812C459.005 661.863 454.414 660.373 446.472 660.87C444.114 660.994 444.114 664.717 446.472 664.593C449.45 664.468 453.049 664.096 455.779 665.585C458.137 666.95 458.881 669.308 460.122 671.418C462.232 675.016 464.962 678.243 468.188 680.849C474.269 685.813 481.342 688.295 489.036 688.791C490.029 688.791 490.897 687.922 490.897 686.93C491.021 681.718 487.547 678.615 484.693 674.644C478.736 666.33 488.54 658.636 492.386 651.563C496.606 643.869 496.482 631.46 486.306 628.854C486.802 629.474 487.175 630.094 487.671 630.591C489.656 605.276 494.372 580.457 501.569 556.134C502.314 554.025 498.715 553.032 498.095 555.266Z" fill="#1E0E62"/>
<path d="M406.017 647.716C406.886 655.161 405.893 662.483 402.294 669.184C398.944 675.513 393.484 680.104 388.148 684.944C378.716 693.754 374.373 703.434 371.395 715.843C368.168 728.997 364.321 739.545 354.766 749.473C347.569 756.794 339.13 763.619 334.663 773.175C330.32 782.482 330.94 793.278 336.524 801.964C339.751 807.052 350.795 817.228 355.014 807.549C356.752 803.578 354.766 798.614 353.401 794.767C352.16 791.416 350.547 788.066 350.547 784.343C350.547 779.131 353.525 774.664 357 771.065C365.438 762.254 376.235 757.291 379.957 744.757C382.067 737.684 380.578 730.61 381.074 723.413C381.695 714.478 385.914 706.908 392.367 700.828C402.17 691.521 415.2 683.827 415.2 668.687C415.2 666.33 411.477 666.33 411.477 668.687C411.353 683.206 397.206 690.404 388.272 699.587C381.322 706.66 377.351 715.595 377.227 725.522C377.103 732.099 378.22 738.304 375.986 744.633C373.504 751.83 368.292 756.67 362.584 761.386C355.263 767.218 346.824 774.043 346.824 784.343C346.824 789.307 349.306 793.774 350.795 798.49C351.168 799.731 352.533 803.081 351.912 804.074C350.671 804.198 349.306 804.446 348.065 804.57C345.831 805.935 344.094 805.687 342.853 803.826C340.123 802.088 337.765 796.877 336.773 793.898C332.802 782.233 338.262 771.81 346.08 763.371C352.657 756.174 360.35 750.093 365.811 741.903C371.643 733.216 373.38 722.917 375.862 712.989C377.724 705.792 380.205 698.842 385.169 693.134C389.513 688.046 394.973 684.199 399.44 679.235C407.382 670.549 410.981 659.256 409.616 647.716C409.492 645.358 405.769 645.358 406.017 647.716Z" fill="#1E0E62"/>
<path d="M325.48 496.568C322.874 498.057 318.035 500.663 317.042 506.123C315.801 512.204 320.144 517.168 320.765 517.788C320.02 518.657 317.786 521.263 317.538 525.234C317.29 531.811 323.122 535.658 323.371 535.906C323.122 536.154 319.524 539.877 320.765 544.965C321.757 549.308 325.604 551.169 326.101 551.293C325.853 552.038 324.984 555.264 326.597 558.243C329.079 562.71 335.035 562.462 335.656 562.462C339.875 562.214 343.846 559.36 345.708 555.016C348.065 556.381 354.27 559.608 362.708 558.739C368.417 558.119 372.636 555.885 374.87 554.52C379.337 562.338 386.286 572.886 396.586 583.682C405.645 593.113 422.522 610.859 447.589 618.18C478.86 627.363 506.533 615.45 522.417 608.625C565.106 590.259 586.326 556.505 594.144 543.848C607.298 522.255 611.889 503.766 615.86 487.013C622.313 460.457 620.079 450.033 617.97 443.952C616.729 440.229 609.407 418.885 592.53 416.403C578.756 414.294 567.339 426.083 565.974 427.572C561.259 432.536 558.777 439.113 553.813 452.018C551.331 458.595 549.718 463.559 548.974 465.793C540.907 491.977 536.812 505.006 535.695 507.736C532.717 515.182 525.644 532.183 508.643 545.461C492.387 558.119 475.386 560.849 467.816 561.966C456.399 563.579 442.377 565.564 427.485 558.243C410.857 550.053 403.411 535.161 401.426 531.19C395.469 518.905 394.352 505.255 393.484 495.575C392.367 483.166 393.236 473.487 386.038 465.793C384.673 464.428 381.447 460.953 378.096 461.574C373.256 462.566 370.526 471.873 368.044 480.684C365.935 488.13 366.555 488.998 364.818 490.736C361.219 494.334 356.628 492.473 340.868 493.342C331.685 493.962 328.458 494.955 325.48 496.568Z" fill="white"/>
<path d="M351.168 491.234C337.765 488.752 314.188 492.227 316.049 510.592C317.662 527.097 337.269 529.951 349.058 522.754C351.044 521.513 349.182 518.286 347.197 519.527C337.393 525.484 319.648 523.87 319.648 508.979C319.648 494.584 339.875 492.971 350.175 494.833C352.533 495.329 353.525 491.73 351.168 491.234Z" fill="#1E0E62"/>
<path d="M319.275 516.672C305.873 533.052 338.138 553.652 347.693 533.052C348.686 530.943 345.459 528.957 344.467 531.191C337.021 547.075 312.202 531.191 322.006 519.278C323.495 517.541 320.889 514.811 319.275 516.672Z" fill="#1E0E62"/>
<path d="M320.02 533.301C317.166 539.754 319.151 547.944 325.728 551.295C332.181 554.645 340.247 551.543 343.598 545.338C344.715 543.229 341.488 541.367 340.371 543.477C337.89 547.82 332.305 550.302 327.59 548.068C322.874 545.834 321.137 539.754 323.247 535.162C324.239 533.053 321.013 531.191 320.02 533.301Z" fill="#1E0E62"/>
<path d="M322.998 549.929C322.502 556.506 326.349 562.463 333.05 563.828C339.254 565.069 344.963 560.974 347.072 555.39C347.941 553.156 344.342 552.163 343.474 554.397C341.86 558.616 337.393 561.346 332.926 559.981C328.334 558.616 326.473 554.397 326.721 549.929C326.845 547.572 323.122 547.572 322.998 549.929Z" fill="#1E0E62"/>
<path d="M334.787 509.351C338.014 508.979 341.364 509.103 344.094 510.964C346.7 512.702 348.189 516.176 346.7 519.03C345.584 521.14 348.81 523.001 349.927 520.892C351.912 517.045 351.044 512.577 348.065 509.475C344.715 505.876 339.379 505.132 334.663 505.628C332.43 506.001 332.43 509.723 334.787 509.351Z" fill="#1E0E62"/>
<path d="M346.328 557.872C352.781 555.514 358.986 560.85 365.687 560.106C370.775 559.485 375.242 556.755 379.461 554.273C381.447 553.032 379.585 549.806 377.6 551.047C371.271 554.894 365.811 557.624 358.241 555.39C353.65 554.025 350.051 552.536 345.335 554.273C343.102 555.142 343.97 558.741 346.328 557.872Z" fill="#1E0E62"/>
<path d="M350.175 494.459C356.628 496.693 365.314 497.065 368.913 489.992C370.899 486.021 369.658 481.181 370.526 476.962C371.519 471.254 374.746 466.538 379.213 462.939C381.074 461.45 378.468 458.844 376.607 460.333C371.767 464.304 368.293 469.764 367.052 475.969C366.431 479.444 367.3 483.539 366.307 486.889C364.074 493.59 356.628 492.722 351.416 490.86C348.934 490.116 347.941 493.715 350.175 494.459Z" fill="#1E0E62"/>
<path d="M376.483 463.187C387.031 464.552 388.396 482.298 390.133 490.364C392.243 500.912 393.36 511.584 395.345 522.132C398.572 539.009 408.375 552.411 424.011 559.981C440.391 567.798 459.005 567.426 476.13 562.711C493.752 557.747 511.994 548.812 523.41 534.045C524.899 532.183 522.293 529.578 520.804 531.439C508.891 546.827 489.533 555.885 470.918 560.229C452.18 564.572 431.705 562.959 416.069 550.798C399.192 537.768 398.82 518.161 395.469 498.678C393.856 489.495 392.491 479.568 389.141 470.881C387.031 465.421 383.68 460.457 377.6 459.588C375.118 459.216 374.125 462.815 376.483 463.187Z" fill="#1E0E62"/>
<path d="M373.753 556.755C388.768 575.121 403.287 596.093 423.142 609.619C442.625 622.773 466.699 624.138 489.284 620.415C535.199 612.721 574.165 581.574 596.502 541.367C609.283 518.534 616.853 493.219 620.204 467.283C620.452 464.925 616.729 464.925 616.481 467.283C610.772 511.585 591.414 555.017 556.916 584.304C539.915 598.698 519.687 609.495 497.971 614.707C475.51 620.167 449.574 620.911 429.099 608.874C407.258 596.092 391.995 573.259 376.359 554.025C374.87 552.287 372.264 554.893 373.753 556.755Z" fill="#1E0E62"/>
<path d="M594.268 415.908C583.968 411.812 573.048 417.149 565.851 424.718C557.412 433.405 553.193 444.946 550.091 456.362C546.492 469.64 543.265 482.794 538.178 495.576C532.717 509.35 525.768 522.38 517.826 534.79C516.461 536.775 519.688 538.637 521.053 536.651C533.834 516.92 543.638 495.452 549.718 472.743C552.945 460.83 555.054 448.42 561.011 437.624C566.967 426.704 579.625 414.046 593.275 419.506C595.509 420.375 596.502 416.776 594.268 415.908Z" fill="#1E0E62"/>
<path d="M340.372 547.943C343.846 548.191 343.102 554.023 342.481 556.133C341.737 558.367 345.335 559.359 346.08 557.126C347.693 552.41 346.576 544.716 340.372 544.22C338.014 544.096 338.014 547.819 340.372 547.943Z" fill="#1E0E62"/>
<path d="M342.481 536.526C343.226 539.505 342.109 542.607 339.751 544.344C337.765 545.709 339.627 548.936 341.612 547.571C345.459 544.841 347.321 540.125 346.08 535.534C345.583 533.176 341.985 534.169 342.481 536.526Z" fill="#1E0E62"/>
<path d="M344.591 523.621C347.941 525.234 345.707 530.57 344.094 532.68C342.605 534.541 345.832 536.403 347.321 534.541C350.175 530.818 351.664 522.876 346.452 520.394C344.342 519.402 342.481 522.628 344.591 523.621Z" fill="#1E0E62"/>
<path opacity="0.11" d="M319.027 524.116C321.013 523 324.239 529.949 332.554 533.423C335.656 534.664 339.503 535.533 357.124 533.423C362.833 532.679 370.278 531.686 379.213 530.073C380.95 537.146 384.549 547.818 391.871 558.863C394.973 563.454 407.506 581.324 431.705 591.872C457.64 603.288 481.094 599.441 490.153 597.828C497.847 596.463 519.315 592.368 538.426 575.74C551.207 564.695 559.397 551.293 571.435 516.423C579.625 492.721 589.552 459.836 596.874 419.009C601.838 424.097 609.531 433.28 613.875 446.93C615.984 453.507 617.97 463.186 616.357 478.326C613.006 510.962 596.626 538.139 586.698 552.038C576.398 566.557 558.032 591.624 524.031 607.135C519.439 609.245 493.504 620.537 460.495 619.048C452.925 618.676 445.976 618.304 437.413 615.201C428.106 611.851 418.799 603.164 400.309 586.039C392.615 578.966 385.045 571.52 377.352 560.724C375.862 558.614 374.622 556.753 373.753 555.512C371.147 557.249 367.3 559.235 362.957 558.739C357.124 558.242 355.139 554.023 350.299 554.768C346.08 555.388 346.08 558.863 340.992 560.724C337.021 562.089 331.437 561.965 327.714 559.111C324.984 557.001 324.612 554.643 321.509 541.241C318.531 528.087 317.662 524.861 319.027 524.116Z" fill="#494949"/>
<path d="M460.867 491.854C458.509 492.351 457.64 497.066 456.151 504.388C455.282 508.855 454.91 512.702 454.786 515.432C449.822 521.265 449.326 526.601 449.202 528.71C449.078 533.054 450.567 536.404 453.421 542.609C455.406 547.076 457.516 550.551 459.005 552.909C453.669 554.149 449.946 557.624 449.698 561.347C449.45 564.946 452.676 567.8 453.917 568.793C459.502 573.632 463.597 570.034 470.67 573.88C476.378 576.983 475.882 580.457 484.196 585.049C489.408 587.903 491.021 587.283 491.642 586.91C493.752 585.545 493.007 581.078 492.635 578.1C492.138 574.501 490.649 569.041 486.554 562.712C491.394 560.975 496.233 559.237 500.949 557.624C497.474 557.996 496.73 558.121 496.73 558.121C496.73 557.996 505.292 554.522 512.614 557.624C518.694 560.23 519.191 565.69 524.279 566.062C527.133 566.311 530.359 564.697 531.724 562.34C534.578 557.5 529.242 550.427 528.001 548.813C522.914 542.112 515.468 540.127 512.117 539.506C513.234 537.025 514.475 533.054 514.723 528.09C514.972 519.651 511.497 513.447 509.884 510.841C507.65 503.519 505.54 496.198 503.307 488.752C499.832 496.818 495.985 499.3 493.007 499.92C489.656 500.665 487.795 499.052 482.335 499.92C477.123 500.789 476.875 502.402 473.896 502.278C466.947 501.534 464.589 491.11 460.867 491.854Z" fill="#1E0E62"/>
<path d="M463.969 531.067C466.079 533.549 469.429 535.162 472.78 534.294C475.758 533.549 477.743 531.067 478.116 528.089C478.24 526.848 476.378 526.848 476.254 528.089C476.006 530.695 473.772 532.556 471.166 532.68C468.809 532.804 466.823 531.439 465.334 529.702C464.465 528.833 463.224 530.199 463.969 531.067Z" fill="white"/>
<path d="M490.525 526.973C493.627 531.44 503.679 531.813 503.307 524.739C503.183 523.498 501.321 523.498 501.445 524.739C501.817 529.827 494.248 529.083 492.138 525.98C491.394 524.987 489.78 525.98 490.525 526.973Z" fill="white"/>
<path d="M485.685 540.746C485.685 540.87 485.809 540.994 485.809 541.118C486.182 541.243 486.678 541.367 487.05 541.491C486.802 540.994 486.43 540.746 485.809 540.746C486.306 540.622 486.678 540.374 487.174 540.25C487.05 540.126 486.926 539.878 486.802 539.753C486.182 540.002 485.685 540.25 485.065 540.498C485.934 541.863 485.561 544.345 485.065 545.71C484.444 547.571 481.838 550.053 480.225 547.571C479.605 546.579 477.991 547.447 478.612 548.564C480.225 551.046 483.576 550.922 485.437 548.812C487.299 546.703 488.291 542.111 486.678 539.629C486.182 538.761 484.693 539.257 484.941 540.374C485.189 541.119 485.561 541.615 486.182 541.987C486.678 542.359 487.423 541.987 487.547 541.491C487.795 540.374 487.423 537.768 485.685 538.513C484.072 539.133 484.693 541.615 485.437 542.608C485.685 542.98 486.306 543.228 486.678 542.98C488.043 541.987 488.043 540.126 486.554 539.381C485.561 538.637 484.693 540.25 485.685 540.746Z" fill="white"/>
<path d="M485.81 541.119C486.306 543.973 487.299 547.448 490.649 547.944C494 548.441 494.993 545.214 494.993 542.608C494.993 541.367 493.131 541.367 493.131 542.608C493.131 544.47 492.511 547.076 490.029 545.835C488.167 544.966 487.919 542.484 487.671 540.623C487.423 539.506 485.561 540.002 485.81 541.119Z" fill="white"/>
<path d="M451.56 531.689C453.917 518.783 463.224 507.738 475.882 504.015C488.54 500.293 503.183 505.381 509.015 517.542C510.008 519.651 513.234 517.79 512.241 515.68C505.913 502.65 490.401 496.818 476.626 500.045C461.983 503.519 450.691 516.053 447.961 530.696C447.589 533.053 451.187 534.046 451.56 531.689Z" fill="#1E0E62"/>
<path d="M458.137 512.951C458.012 506.746 459.129 500.541 461.735 494.957C461.983 494.461 462.232 494.088 462.356 493.592C463.224 492.103 463.348 491.855 462.604 492.847C461.859 493.468 461.983 493.964 463.1 494.709C463.349 495.081 463.721 495.577 463.969 495.95C465.83 498.928 467.444 502.03 468.809 505.257C469.677 507.49 473.276 506.498 472.407 504.264C471.166 501.286 465.458 486.146 460.618 489.497C458.261 491.11 456.772 496.57 456.027 499.176C454.662 503.644 454.166 508.359 454.29 513.075C454.538 515.308 458.261 515.308 458.137 512.951Z" fill="#1E0E62"/>
<path d="M495.985 502.899C497.226 500.789 498.467 498.679 499.832 496.57C500.452 495.701 501.321 494.833 501.693 493.84C502.562 493.343 502.686 492.847 502.19 492.227C501.693 491.358 501.818 491.606 502.438 492.971C504.548 498.307 506.037 503.519 506.657 509.352C506.905 511.709 510.628 511.709 510.38 509.352C510.008 505.256 509.263 501.285 508.146 497.314C507.402 495.081 506.285 489.993 504.175 488.628C502.562 487.635 501.197 488.38 500.08 489.745C497.226 493.095 494.992 497.19 492.759 501.037C491.518 503.023 494.744 504.884 495.985 502.899Z" fill="#1E0E62"/>
<path d="M448.209 529.704C447.34 550.551 466.203 568.421 487.175 564.078C496.854 562.092 505.789 555.763 510.38 546.953C515.22 537.646 517.95 522.878 511.621 513.696C510.256 511.71 507.03 513.571 508.395 515.557C513.979 523.871 511.249 537.522 506.781 545.836C502.686 553.406 494.62 558.742 486.182 560.479C467.444 564.202 451.187 548.07 451.932 529.704C451.932 527.222 448.209 527.222 448.209 529.704Z" fill="#1E0E62"/>
<path d="M450.815 562.464C453.793 551.42 468.685 552.04 476.503 556.88C484.817 561.844 489.036 571.523 489.905 580.83C490.153 583.436 491.146 586.042 486.802 584.429C485.189 583.808 483.079 581.45 481.839 580.209C479.605 577.976 477.619 575.618 475.138 573.757C472.407 571.647 469.553 570.406 466.203 569.786C460.991 568.793 451.56 569.413 451.063 561.968C450.939 559.61 447.216 559.61 447.34 561.968C447.713 566.807 450.815 570.034 455.282 571.647C458.757 572.888 462.604 572.64 466.203 573.508C470.67 574.625 473.648 576.983 476.751 580.209C479.853 583.312 485.189 590.261 490.525 589.268C494.993 588.4 494 583.312 493.627 579.961C492.262 568.048 485.934 556.259 474.269 551.668C464.465 547.821 450.319 550.055 447.34 561.595C446.596 563.829 450.195 564.822 450.815 562.464Z" fill="#1E0E62"/>
<path d="M500.329 546.332C505.417 539.506 516.957 542.237 522.294 546.828C525.396 549.434 527.505 553.033 528.498 557.004C528.746 558.245 529.367 560.851 528.995 562.216C527.754 565.814 525.148 564.698 522.914 562.96C519.812 560.602 517.454 557.252 513.607 555.763C511.746 555.018 509.884 554.894 507.899 555.018C506.037 555.018 504.3 555.515 502.438 555.266C498.964 554.77 494.124 551.544 499.957 547.076C501.818 545.587 499.212 542.981 497.351 544.47C494.496 546.704 493.007 550.054 494.248 553.653C495.986 558.369 500.453 559.362 505.044 559.113C509.636 558.865 512.614 558.989 516.337 562.092C518.074 563.581 519.563 565.318 521.549 566.683C524.155 568.544 528.002 570.282 530.856 567.676C537.433 561.595 529.863 548.069 524.651 543.85C517.206 537.769 503.555 536.032 497.351 544.594C495.737 546.332 498.964 548.193 500.329 546.332Z" fill="#1E0E62"/>
<path d="M458.012 552.164C466.078 549.558 478.364 554.645 483.328 561.222C483.7 561.719 484.444 561.222 484.072 560.726C478.86 553.653 466.451 548.441 457.764 551.295C457.144 551.419 457.392 552.288 458.012 552.164Z" fill="white"/>
<path d="M501.197 546.829C504.796 542.609 510.008 540.748 515.468 541.865C516.088 541.989 516.337 541.12 515.716 540.996C510.008 539.879 504.3 541.741 500.577 546.208C500.204 546.705 500.825 547.325 501.197 546.829Z" fill="white"/>
<path d="M462.604 493.964C463.845 497.19 464.714 500.417 465.086 503.767C465.334 503.643 465.582 503.519 465.831 503.395C465.21 502.775 464.59 502.402 463.845 502.03C463.473 501.906 463.101 502.03 463.101 502.402C463.101 503.519 462.976 504.512 462.976 505.629C463.225 505.505 463.473 505.38 463.721 505.256C461.984 503.271 460.619 507.738 460.122 508.607C459.874 509.103 460.619 509.6 460.867 509.103C460.991 508.855 462.604 505.38 462.976 505.877C463.225 506.249 463.721 505.877 463.721 505.505C463.721 504.388 463.845 503.395 463.845 502.278C463.597 502.402 463.349 502.526 463.101 502.65C463.845 502.899 464.341 503.271 464.838 503.891C465.086 504.14 465.706 504.016 465.582 503.519C465.086 500.045 464.341 496.694 462.976 493.467C463.225 493.219 462.356 493.468 462.604 493.964Z" fill="white"/>
<path d="M500.949 492.35C499.584 494.955 498.839 497.561 498.591 500.54C498.591 500.788 498.964 501.036 499.212 501.036C500.949 500.54 501.197 501.905 501.321 503.394C501.321 503.766 501.818 504.014 502.066 503.766C502.686 504.759 503.183 505.628 503.803 506.62C503.679 507.241 504.672 507.489 504.672 506.869C504.92 505.131 503.803 500.664 501.445 503.146C501.694 503.27 501.942 503.394 502.19 503.518C502.066 502.401 501.818 501.408 501.57 500.291C501.57 500.043 501.321 499.919 501.073 499.919C500.205 499.919 499.584 500.043 498.84 500.291C499.088 500.416 499.212 500.54 499.46 500.788C499.584 498.058 500.329 495.576 501.694 493.094C502.066 492.225 501.197 491.729 500.949 492.35Z" fill="white"/>
<path d="M578.756 418.763C580.493 430.676 583.844 449.539 590.793 471.876C605.436 518.535 622.685 538.514 645.518 592.619C651.227 606.145 659.293 626.497 667.235 652.184C682.002 657.024 709.427 663.601 742.932 657.768C798.03 648.213 830.418 611.729 839.477 600.685C820.615 565.939 801.629 528.338 783.139 488.008C764.773 448.049 748.765 409.58 734.866 372.973C723.201 368.629 692.674 358.95 655.198 368.133C610.4 378.929 585.705 409.58 578.756 418.763Z" fill="#8C30F5"/>
<path opacity="0.13" d="M687.71 363.913C692.426 373.841 698.383 387.367 704.711 403.747C724.566 455.867 731.764 498.679 734.37 513.943C739.954 545.463 744.794 594.356 736.852 657.147C754.101 656.651 766.882 652.68 774.948 649.577C798.03 640.394 814.783 624.386 830.915 608.875C834.638 605.4 837.492 602.298 839.353 600.436C834.017 591.253 825.951 576.858 816.52 558.865C789.219 506.993 771.35 463.933 756.334 427.449C750.998 414.667 743.677 396.302 735.114 374.089C728.289 371.235 719.727 368.38 709.675 366.519C701.485 364.906 694.039 364.161 687.71 363.913Z" fill="#494949"/>
<path opacity="0.1" d="M769.861 462.319C771.97 484.532 773.707 503.146 774.948 516.548C779.664 569.04 780.533 583.559 780.905 592.866C781.898 614.831 781.898 632.824 781.774 644.613C789.467 641.883 799.395 637.416 809.695 630.218C822.601 621.16 831.287 611.232 836.871 603.911C814.534 556.631 792.198 509.475 769.861 462.319Z" fill="#494949"/>
<path d="M681.754 342.072C675.798 343.809 672.571 352.372 670.586 361.183C666.615 379.176 668.724 394.564 669.469 399.9C673.067 423.602 679.52 441.347 681.63 447.18C687.09 461.575 694.536 480.809 710.792 501.285C720.099 512.95 728.041 523.001 742.684 530.447C751.247 534.914 768.992 543.973 787.234 536.776C788.103 536.403 805.972 529.082 810.564 513.446C811.556 509.971 811.805 506.497 812.177 499.671C812.425 495.576 812.549 488.379 811.68 479.444C810.439 467.655 807.834 458.472 805.848 451.895C797.037 422.733 792.694 408.214 783.511 395.557C775.941 385.133 767.379 373.22 753.232 371.606C751.991 371.482 737.72 370.117 729.282 380.045C723.45 386.994 723.822 395.557 723.946 401.265C724.318 412.185 728.538 420.003 735.115 432.04C741.691 443.953 744.297 445.442 752.115 459.589C762.787 478.948 761.671 480.809 761.174 481.306C759.065 483.167 750.626 477.335 748.765 475.97C747.028 474.729 744.546 472.991 741.443 469.641C731.764 458.845 726.056 442.588 726.056 442.588C720.968 432.537 714.267 418.266 707.441 400.148C709.551 392.082 712.778 386.374 715.384 382.651C719.603 376.694 724.318 372.599 725.435 365.154C725.931 362.299 725.683 359.818 725.435 358.204C727.545 356.219 728.165 353.241 727.048 350.759C725.683 347.905 722.333 346.539 719.106 347.532C719.106 347.16 718.734 343.934 715.88 342.196C713.522 340.707 710.296 340.955 707.938 342.693C704.215 339.838 701.113 339.094 698.879 338.97C696.273 338.846 695.032 339.466 688.827 340.583C683.615 341.948 683.243 341.7 681.754 342.072Z" fill="white"/>
<path d="M712.901 394.439C716.252 386.124 720.471 378.555 725.063 370.861C727.42 366.89 730.15 361.926 726.924 357.583C719.602 348.152 709.675 360.189 706.573 366.393C705.456 368.503 708.682 370.364 709.799 368.255C711.66 364.532 713.77 359.94 718.113 358.699C719.354 358.079 720.595 358.079 721.96 358.451C722.333 361.305 722.705 364.16 723.201 367.014C722.829 368.627 720.595 371.233 719.727 372.722C715.756 379.299 712.529 386.248 709.551 393.322C708.434 395.679 712.033 396.548 712.901 394.439Z" fill="#1E0E62"/>
<path d="M672.323 410.447C670.461 397.169 670.213 383.643 671.702 370.365C673.067 358.203 675.673 339.713 692.55 343.188C694.908 343.684 695.901 340.086 693.543 339.589C680.265 336.859 671.951 346.29 669.717 358.328C666.366 375.825 666.242 393.694 668.724 411.44C669.096 413.798 672.695 412.805 672.323 410.447Z" fill="#1E0E62"/>
<path d="M687.835 353.24C689.2 350.013 690.689 346.663 693.295 344.181C697.762 339.838 703.471 342.195 708.31 344.553C710.42 345.67 712.281 342.444 710.172 341.327C705.084 338.721 699.376 336.239 693.915 339.093C689.2 341.575 686.718 346.663 684.732 351.254C683.74 353.612 686.966 355.473 687.835 353.24Z" fill="#1E0E62"/>
<path d="M698.879 354.356C703.47 348.399 709.551 342.195 717.493 346.91C719.603 348.151 721.464 344.925 719.355 343.684C709.923 338.1 701.981 344.18 696.273 351.626C694.784 353.611 697.39 356.217 698.879 354.356Z" fill="#1E0E62"/>
<path d="M707.193 357.086C709.551 354.604 712.033 351.998 715.259 350.758C719.106 349.144 726.18 350.137 724.69 355.969C724.194 358.327 727.669 359.32 728.289 356.962C729.53 351.874 726.18 347.159 721.092 346.29C714.267 345.049 708.93 350.013 704.587 354.48C702.974 356.218 705.58 358.824 707.193 357.086Z" fill="#1E0E62"/>
<path d="M708.682 392.578C704.339 401.885 709.675 411.316 713.398 419.878C718.61 431.915 724.07 443.953 730.771 455.121C739.458 469.764 758.32 496.072 778.051 481.057C779.912 479.568 778.051 476.341 776.19 477.83C757.203 492.349 739.582 463.063 731.888 449.537C727.421 441.595 723.45 433.405 719.727 425.09C716.004 416.776 707.69 403.746 712.033 394.439C712.902 392.33 709.675 390.344 708.682 392.578Z" fill="#1E0E62"/>
<path d="M724.691 383.147C713.77 420.251 747.276 449.041 759.561 480.809C760.43 483.043 764.029 482.05 763.16 479.816C751.247 449.041 717.741 420.003 728.289 384.14C728.91 381.782 725.311 380.789 724.691 383.147Z" fill="#1E0E62"/>
<path d="M668.6 409.455C674.929 444.201 689.696 477.086 711.412 505.008C721.96 518.41 733.998 531.44 750.626 536.9C764.773 541.491 784.256 543.849 797.41 535.286C811.804 526.103 813.666 507.365 814.286 491.854C814.41 489.496 810.688 489.496 810.564 491.854C809.819 511.833 805.352 533.921 781.65 536.776C759.809 539.382 739.458 530.695 724.69 514.935C697.266 485.773 679.272 447.676 672.075 408.462C671.826 406.105 668.228 407.097 668.6 409.455Z" fill="#1E0E62"/>
<path d="M727.172 388.111C731.143 372.227 750.254 371.11 762.167 378.059C774.328 385.133 782.642 397.914 788.723 410.2C795.052 423.106 799.643 437.004 804.111 450.654C809.198 466.29 813.045 482.671 810.439 499.175C810.067 501.533 813.666 502.526 814.038 500.168C817.016 481.306 812.301 463.064 806.22 445.194C800.636 428.938 795.176 412.185 785.869 397.542C778.051 385.133 766.386 372.227 750.998 370.117C739.085 368.504 726.428 374.957 723.449 387.118C722.953 389.476 726.552 390.469 727.172 388.111Z" fill="#1E0E62"/>
<path opacity="0.1" d="M686.345 340.458C696.273 336.487 705.952 340.83 708.31 341.947C701.361 351.13 686.593 373.343 685.353 404.739C683.491 449.413 710.171 479.071 719.603 489.619C731.764 503.145 747.648 520.767 768.123 518.285C779.664 516.92 790.584 509.226 796.168 499.423C801.753 489.619 801.38 478.947 794.679 451.398C784.38 409.703 773.087 385.256 774.7 384.511C776.313 383.767 789.716 404.739 799.767 431.047C800.76 433.777 809.074 455.865 812.053 486.269C813.914 505.007 812.301 512.701 808.454 519.526C802.497 530.074 792.818 534.789 789.095 536.403C774.08 542.731 759.685 538.264 752.86 535.906C728.413 527.716 715.383 507.861 702.229 487.882C682.002 456.982 676.418 430.55 671.082 405.111C667.359 387.49 664.877 367.014 674.184 351.999C675.797 348.897 679.396 343.312 686.345 340.458Z" fill="#494949"/>
<path d="M507.154 280.025C506.782 285.857 508.892 292.434 513.359 305.588C518.323 320.356 523.659 336.116 537.061 351.627C545.623 361.555 556.047 373.716 573.793 377.191C587.815 379.921 599.604 375.95 605.561 373.468C606.926 377.191 608.787 381.162 611.145 385.257C617.35 396.177 625.043 403.871 631.124 408.959C635.716 408.462 644.65 406.601 652.344 399.652C658.301 394.192 661.155 387.739 662.892 383.519C665.002 378.556 666.119 374.212 666.615 371.11C662.892 368.876 658.797 365.898 654.826 361.803C642.417 349.145 639.066 334.13 638.073 326.933C639.687 312.662 641.424 298.267 643.037 283.996C644.899 284.244 648.87 284.492 652.344 282.135C656.191 279.529 656.936 275.185 657.928 270.346C658.921 265.506 660.038 259.301 657.308 252.228C656.067 249.126 652.096 239.198 643.658 238.578C637.949 238.081 632.117 241.928 628.766 247.885C621.569 240.935 606.181 228.65 584.589 226.665C547.237 223.19 509.264 252.352 507.154 280.025Z" fill="white"/>
<path d="M562.252 336.736C561.259 339.342 564.113 343.065 566.223 344.927C572.055 350.015 582.355 349.766 589.801 346.292C600.224 341.452 603.575 331.028 605.064 326.313C606.801 321.101 609.035 314.275 605.436 308.195C602.334 302.859 596.874 300.997 594.764 300.377C592.655 304.72 591.042 307.947 589.801 310.056C588.311 312.662 587.815 313.531 586.946 315.516C585.705 318.122 585.581 319.115 583.844 321.473C576.771 330.656 567.091 334.006 567.091 334.006C564.858 334.503 562.872 334.999 562.252 336.736Z" fill="#1E0E62"/>
<path d="M509.14 294.917C518.943 325.568 531.228 361.307 562.872 375.702C575.778 381.534 591.166 382.651 604.32 376.943C619.087 370.614 627.773 355.971 633.73 341.824C641.548 323.334 644.898 303.231 643.658 283.252C643.533 280.894 639.811 280.894 639.935 283.252C641.176 304.1 637.453 325.071 628.642 344.058C620.08 362.548 606.553 377.315 584.837 377.067C541.156 376.57 523.41 328.422 512.49 294.048C511.994 291.566 508.519 292.559 509.14 294.917Z" fill="#1E0E62"/>
<path d="M630.131 251.359C630.255 243.913 637.949 239.446 644.774 241.555C651.103 243.665 655.074 249.87 656.439 256.074C657.68 262.031 657.184 268.98 655.322 274.688C653.833 279.404 651.972 281.886 646.263 281.886C644.278 281.886 642.293 281.141 640.183 281.141C637.825 281.141 637.825 284.864 640.183 284.864C644.402 284.864 648.497 286.85 652.592 284.74C655.571 283.251 657.308 280.273 658.549 277.17C661.775 268.732 662.148 257.315 658.052 249.001C654.702 242.176 647.504 236.343 639.562 237.212C632.241 237.957 626.533 243.913 626.408 251.235C626.408 253.717 630.131 253.717 630.131 251.359Z" fill="#1E0E62"/>
<path d="M637.453 319.362C637.081 339.838 646.14 359.444 662.272 372.226C664.133 373.715 666.739 371.109 664.878 369.62C649.49 357.459 640.803 339.093 641.176 319.362C641.176 317.004 637.453 317.004 637.453 319.362Z" fill="#1E0E62"/>
<path d="M605.436 374.957C610.152 387.987 617.846 399.403 628.146 408.586C629.883 410.2 632.613 407.594 630.751 405.98C620.824 397.17 613.502 386.374 608.911 373.964C608.166 371.73 604.568 372.723 605.436 374.957Z" fill="#1E0E62"/>
<path d="M629.015 409.828C639.687 413.675 650.359 404.616 656.936 397.046C663.885 389.104 669.966 378.805 666.987 368.008C666.367 365.651 662.768 366.643 663.389 369.001C665.87 378.432 660.286 387.615 654.206 394.44C648.497 400.893 639.19 409.58 629.883 406.229C627.774 405.361 626.781 408.959 629.015 409.828Z" fill="#1E0E62"/>
<path d="M523.038 281.887C521.425 277.296 525.148 272.332 527.878 269.105C531.973 264.017 538.302 262.652 543.017 267.864C548.477 273.821 549.967 284.493 550.711 292.187C551.207 297.523 549.346 304.348 552.448 309.064C555.799 314.151 562.004 317.13 567.836 318.247C570.194 318.743 571.187 315.144 568.829 314.648C565.727 314.027 562.996 313.035 560.266 311.297C555.799 308.319 554.806 305.093 554.682 299.757C554.558 295.165 554.434 290.698 553.689 286.106C552.448 278.537 550.339 268.857 544.134 263.769C538.922 259.426 532.469 259.55 527.381 263.893C522.542 268.113 516.958 276.179 519.315 282.756C520.308 285.113 523.907 284.121 523.038 281.887Z" fill="#1E0E62"/>
<path d="M557.412 255.083C558.281 240.067 577.019 234.607 585.706 246.892C587.071 248.878 590.297 247.016 588.932 245.031C578.136 229.643 554.806 236.22 553.69 255.083C553.565 257.44 557.288 257.44 557.412 255.083Z" fill="#1E0E62"/>
<path d="M540.535 291.815C538.798 289.457 537.805 286.851 537.681 283.997C536.688 284.493 535.82 285.113 534.827 285.61C537.681 287.471 539.17 290.45 539.046 293.8C539.791 293.18 540.659 292.559 541.404 292.063C538.302 290.946 536.316 287.471 536.937 284.245C536.068 284.617 535.075 284.989 534.206 285.362C535.696 286.23 536.937 287.471 537.805 289.084C538.177 289.829 538.426 290.574 538.55 291.442C538.55 292.063 538.55 291.318 538.426 291.07C538.177 290.574 537.929 290.201 537.681 289.705C536.688 287.471 533.462 289.457 534.455 291.566C535.199 293.304 536.44 295.165 538.674 295.289C540.535 295.413 542.148 294.172 542.397 292.311C542.769 288.216 539.542 284.121 536.192 282.259C535.199 281.639 533.71 282.135 533.462 283.376C532.469 288.712 535.447 293.924 540.535 295.786C541.776 296.158 542.893 295.165 542.893 294.048C543.017 289.333 540.783 285.113 536.812 282.632C535.696 281.887 533.958 282.88 533.958 284.245C534.082 287.719 535.199 291.07 537.309 293.924C538.798 295.661 542.024 293.8 540.535 291.815Z" fill="#1E0E62"/>
<path d="M575.282 267.865C574.661 267.12 574.165 266.252 573.917 265.259C573.917 265.011 573.669 263.522 573.917 263.397C574.165 263.273 574.785 265.259 574.909 265.383C575.158 266.376 575.034 267.493 574.537 268.361C575.406 268.113 576.274 267.865 577.143 267.741C574.041 266.003 572.552 262.777 573.048 259.302C572.055 259.799 571.187 260.419 570.194 260.916C573.669 262.405 575.654 266.003 574.785 269.726C575.53 269.354 576.275 268.858 577.019 268.485C575.158 267.865 573.669 266.252 573.296 264.266C573.296 264.142 573.296 263.025 573.172 263.025C572.924 263.149 572.676 263.273 572.304 263.397C572.428 263.646 572.676 264.018 572.8 264.266C573.296 265.631 573.296 266.996 573.172 268.485C574.289 267.989 575.282 267.617 576.399 267.12C575.282 266.252 574.413 265.259 573.793 263.894C572.676 261.784 569.449 263.646 570.566 265.755C571.311 267.244 572.428 268.609 573.793 269.726C575.158 270.843 576.771 270.098 577.019 268.361C577.267 265.879 577.019 262.529 575.158 260.667C573.669 259.178 570.938 259.054 569.946 261.288C567.96 265.631 572.179 270.719 576.026 272.084C577.019 272.456 578.136 271.712 578.26 270.843C579.625 265.631 577.019 259.923 571.931 257.813C570.566 257.193 569.325 257.937 569.077 259.426C568.457 264.142 570.939 268.733 575.034 271.091C575.778 271.588 577.143 271.339 577.64 270.471C578.632 268.113 578.88 265.755 578.012 263.397C577.267 261.536 575.654 259.55 573.544 259.799C568.084 260.419 570.442 268.237 572.676 270.719C574.289 272.332 576.895 269.602 575.282 267.865Z" fill="#1E0E62"/>
<path d="M607.67 374.585C607.67 374.709 607.67 374.709 607.546 374.833C608.291 374.461 609.035 373.964 609.78 373.592C609.656 373.592 609.532 373.468 609.408 373.468C609.78 374.337 610.152 375.329 610.525 376.198C610.773 375.702 614.123 374.088 615.116 373.22C617.35 371.358 619.211 368.876 620.948 366.519C624.795 361.431 627.65 355.847 630.007 350.014C628.766 349.642 627.65 349.394 626.409 349.021C622.686 359.693 620.08 374.585 609.656 380.913C610.525 381.782 611.393 382.651 612.262 383.519C614.744 379.797 617.226 375.95 619.708 372.227C620.824 370.49 618.218 368.38 616.729 369.993C614.744 372.103 612.634 374.337 610.649 376.446C611.517 377.315 612.386 378.183 613.255 379.052C615.116 376.818 616.853 374.461 618.467 372.103C619.708 370.365 616.977 368.256 615.488 369.869C613.751 371.731 612.014 373.096 609.78 374.212C610.773 374.709 611.641 375.329 612.634 375.826C612.634 375.453 612.51 375.081 612.51 374.709C612.262 372.351 608.539 372.351 608.787 374.709C608.787 375.081 608.911 375.453 608.911 375.826C609.035 377.191 610.4 378.183 611.765 377.439C614.247 376.074 616.233 374.585 618.218 372.475C617.226 371.731 616.233 370.986 615.24 370.241C613.751 372.351 612.262 374.461 610.649 376.446C609.159 378.308 611.641 380.913 613.255 379.052C615.24 376.942 617.35 374.709 619.335 372.599C618.342 371.855 617.35 371.11 616.357 370.366C613.875 374.088 611.393 377.935 608.911 381.658C607.919 383.271 609.904 385.133 611.517 384.264C622.934 377.315 625.912 361.927 630.007 350.138C630.752 347.78 627.277 347.036 626.409 349.145C623.803 355.474 620.452 361.679 615.985 366.891C613.875 369.373 610.525 370.738 608.539 372.971C608.043 373.468 607.546 373.592 607.298 374.212C606.678 375.329 607.174 376.446 608.415 376.943C608.539 376.943 608.663 377.067 608.787 377.067C609.78 377.439 610.773 376.694 611.021 375.826C611.021 375.702 611.021 375.702 611.145 375.577C612.138 373.344 608.539 372.351 607.67 374.585Z" fill="#1E0E62"/>
<path d="M621.445 370.862C622.561 369.621 623.306 368.38 623.678 366.891C624.299 364.657 621.445 363.913 620.328 365.402C617.722 368.876 615.116 372.351 612.51 375.826C611.021 377.687 614.247 379.548 615.736 377.687C618.342 374.212 620.948 370.738 623.554 367.263C622.437 366.767 621.321 366.27 620.204 365.774C619.956 366.643 619.583 367.387 618.963 368.132C617.225 370.117 619.956 372.723 621.445 370.862Z" fill="#1E0E62"/>
<path d="M564.113 340.086C560.638 333.137 564.361 330.531 571.311 328.669C572.179 328.421 573.048 328.297 573.792 327.925C576.771 326.56 578.508 323.582 579.749 320.727C581.734 316.508 582.851 311.917 585.457 308.07C590.917 299.756 600.597 300.128 603.699 310.055C606.801 319.983 602.954 331.027 596.378 338.597C593.151 342.32 589.18 345.794 584.465 347.408C580.369 348.897 576.771 348.4 572.8 346.663C569.945 345.422 564.734 342.94 563.989 339.714C563.493 337.356 559.894 338.349 560.39 340.707C561.755 347.159 571.435 351.13 577.267 351.999C583.596 352.992 589.552 349.89 594.392 345.918C605.188 336.984 611.889 321.224 606.677 307.573C601.093 292.806 585.954 298.266 580.369 309.931C578.632 313.53 577.763 319.611 574.909 322.217C571.311 325.567 566.719 324.326 562.996 326.932C557.784 330.655 558.281 337.232 560.887 342.32C562.004 344.181 565.23 342.32 564.113 340.086Z" fill="#1E0E62"/>
<path d="M561.631 336.24C580.866 335.743 590.173 317.874 594.392 301.493C595.013 299.135 591.414 298.143 590.793 300.501C587.071 315.144 579.005 332.02 561.631 332.517C559.274 332.641 559.274 336.364 561.631 336.24Z" fill="#1E0E62"/>
<path d="M510.629 292.931C508.395 294.172 494.869 279.405 489.16 259.674C484.941 245.279 486.182 232.497 487.671 224.431C489.781 217.978 492.759 211.029 496.854 203.956C514.476 173.677 542.273 159.406 556.667 153.325C553.689 156.179 550.215 159.902 546.988 164.618C542.521 170.822 539.667 176.655 537.805 181.495C542.024 177.896 546.864 174.297 552.076 170.822C563.741 163.005 575.033 157.42 584.837 153.449C583.348 159.778 581.734 166.107 580.245 172.312C583.72 170.326 588.56 167.472 594.516 164.618C601.093 161.515 614.619 155.063 616.729 157.917C617.349 158.785 616.605 159.778 615.488 163.377C613.999 168.092 613.503 172.063 613.254 174.669C617.101 174.049 621.445 173.553 626.16 173.428C631.372 173.18 636.088 173.428 640.307 173.801C638.818 179.509 637.329 185.093 635.839 190.802C638.818 191.918 643.037 194.028 647.38 197.503C659.045 207.058 662.396 219.964 663.264 225.051C665.126 237.213 662.147 247.388 659.914 252.973C653.957 240.315 642.168 235.351 635.467 238.454C631.372 240.315 626.657 246.272 627.153 252.352C627.277 253.717 627.649 254.958 628.021 255.827C623.678 251.856 617.101 246.52 608.539 241.556C599.976 236.592 590.421 231.008 577.763 229.395C553.937 226.292 535.323 239.322 530.36 242.921C522.666 248.381 510.132 257.192 507.899 271.214C505.665 283.003 512.366 292.062 510.629 292.931Z" fill="#1E0E62"/>
<path opacity="0.11" d="M605.064 238.454C608.911 247.14 614.123 260.666 616.978 277.667C619.956 294.544 623.679 316.26 614.62 340.335C611.517 348.525 604.196 364.285 586.823 379.052C590.918 378.928 597.991 378.183 605.437 374.212C617.598 367.884 622.934 357.336 624.547 353.613C630.38 359.321 638.198 368.256 644.154 380.913C647.505 387.987 649.614 394.564 650.855 400.024C654.206 397.046 660.41 390.593 663.265 380.417C664.381 376.446 664.754 372.847 664.754 369.869C657.556 365.898 652.965 361.058 650.359 357.956C649.242 356.591 638.198 342.693 638.818 323.458C639.066 316.509 640.555 316.385 641.672 305.712C642.665 296.157 642.169 288.091 641.672 282.755C648.001 285.361 651.227 284.12 652.717 283.251C655.571 281.514 656.315 278.412 658.921 262.652C660.286 254.213 661.031 249.994 661.279 247.761C662.768 235.723 663.513 229.643 662.768 224.803C660.659 211.029 651.848 201.846 648.87 198.992C643.906 194.152 638.818 191.422 635.467 189.933C636.957 184.721 638.322 179.385 639.811 174.173C632.737 182.487 626.16 188.195 621.693 191.918C610.525 200.853 604.072 202.963 596.378 211.525C590.297 218.226 586.823 225.051 584.837 229.643C591.662 232.745 598.363 235.599 605.064 238.454Z" fill="#494949"/>
<path opacity="0.17" d="M553.938 154.69C549.719 156.552 539.791 161.764 532.842 172.808C531.104 175.538 527.257 182.363 526.141 191.919C524.9 202.467 527.506 210.781 528.995 214.876C529.491 204.576 531.973 187.948 541.901 170.823C545.748 164.37 549.967 159.034 553.938 154.69Z" fill="#494949"/>
<path opacity="0.08" d="M641.672 283.375C641.299 283.251 640.555 284.616 637.825 294.048C634.102 306.829 632.117 316.26 631 320.976C629.386 327.801 626.656 337.48 621.569 349.145C630.379 350.883 639.19 352.62 648.001 354.233C644.774 347.16 640.927 336.984 639.438 324.327C637.08 302.61 642.913 283.624 641.672 283.375Z" fill="#494949"/>
</svg>
