<svg width="1676" height="1635" viewBox="0 0 1676 1635" fill="none" xmlns="http://www.w3.org/2000/svg">
<path d="M995.667 134.064C958.999 155.766 948.522 193.182 944.182 208.598C943.134 212.339 930.861 258.287 952.114 306.179C958.4 320.398 965.135 335.065 980.401 342.099C989.231 346.29 997.163 345.991 1028.29 343.297C1042.81 342.099 1058.53 340.603 1075.29 338.807C1087.11 323.69 1107.47 293.458 1113.45 250.953C1114.5 243.021 1126.77 148.432 1075.29 123.288C1041.61 106.675 1001.05 130.771 995.667 134.064Z" fill="#EC615B"/>
<path d="M318.58 357.215C337.26 357.215 352.404 340.463 352.404 319.798C352.404 299.134 337.26 282.382 318.58 282.382C299.899 282.382 284.755 299.134 284.755 319.798C284.755 340.463 299.899 357.215 318.58 357.215Z" fill="#EC615B"/>
<path d="M1085.62 956.776C1099.5 956.776 1110.76 945.921 1110.76 932.53C1110.76 919.139 1099.5 908.284 1085.62 908.284C1071.73 908.284 1060.47 919.139 1060.47 932.53C1060.47 945.921 1071.73 956.776 1085.62 956.776Z" fill="#EC615B"/>
<path d="M318.879 810.404C329.211 810.404 337.587 802.028 337.587 791.695C337.587 781.363 329.211 772.987 318.879 772.987C308.547 772.987 300.171 781.363 300.171 791.695C300.171 802.028 308.547 810.404 318.879 810.404Z" fill="#EC615B"/>
<path d="M284.007 344.794C300.456 344.794 313.79 330.789 313.79 313.513C313.79 296.238 300.456 282.233 284.007 282.233C267.558 282.233 254.223 296.238 254.223 313.513C254.223 330.789 267.558 344.794 284.007 344.794Z" fill="#8C30F5"/>
<path d="M1078.73 918.461C1088.9 918.461 1097.14 909.884 1097.14 899.304C1097.14 888.723 1088.9 880.146 1078.73 880.146C1068.56 880.146 1060.32 888.723 1060.32 899.304C1060.32 909.884 1068.56 918.461 1078.73 918.461Z" fill="#8C30F5"/>
<path d="M1324.78 390.141C1335.94 390.141 1344.99 380.492 1344.99 368.589C1344.99 356.686 1335.94 347.037 1324.78 347.037C1313.62 347.037 1304.58 356.686 1304.58 368.589C1304.58 380.492 1313.62 390.141 1324.78 390.141Z" fill="#8C30F5"/>
<path d="M885.962 523.344C882.669 518.106 877.281 523.045 875.036 526.637C870.396 534.12 867.403 543.4 870.846 551.931C873.39 558.366 879.676 563.754 887.009 562.707C893.744 561.809 898.833 556.271 898.683 549.536C898.683 547.74 896.139 546.393 894.792 547.89C886.86 557.917 877.131 572.135 885.064 585.007C890.601 593.837 904.221 595.034 909.609 585.456C908.262 585.306 906.915 585.156 905.568 584.857C906.316 589.048 907.065 593.238 907.663 597.429C908.112 600.273 912.453 599.075 912.004 596.232C911.255 592.041 910.507 587.85 909.908 583.66C909.609 581.714 906.616 581.564 905.867 583.061C903.473 587.252 898.085 588.748 893.744 586.653C888.955 584.258 886.86 578.87 886.86 573.632C886.86 564.951 892.996 557.319 898.085 550.883C896.738 550.284 895.54 549.835 894.193 549.237C894.343 554.924 888.805 559.115 883.268 557.917C879.077 557.019 876.383 553.427 874.886 549.536C873.39 545.495 873.539 541.454 874.737 537.413C874.886 537.114 881.023 523.793 881.921 525.29C883.567 527.984 887.458 525.739 885.962 523.344Z" fill="#EC615B"/>
<path d="M274.877 536.814C278.17 527.834 289.095 531.725 292.538 538.011C293.735 540.106 294.334 542.501 294.633 544.896C295.232 549.386 294.783 551.182 290.891 553.876C286.701 558.066 285.653 556.42 287.898 548.937C288.946 548.488 290.143 548.039 291.191 547.59C294.034 546.841 297.327 546.991 300.171 547.889C307.355 550.284 310.947 557.917 309.899 564.951C309.6 566.747 311.396 568.543 313.192 567.495C322.92 561.958 335.791 568.094 338.036 579.019C338.635 581.863 342.975 580.666 342.376 577.822C339.533 564.053 323.219 556.869 310.947 563.754C311.994 564.652 313.192 565.4 314.239 566.298C316.185 553.127 306.157 540.855 292.238 542.95C287.449 543.698 280.265 546.692 279.667 552.379C279.218 557.019 283.558 560.461 287.898 560.91C300.769 562.107 300.47 543.399 296.279 535.916C290.592 525.738 274.877 523.194 270.387 535.766C269.489 538.31 273.83 539.508 274.877 536.814Z" fill="#EC615B"/>
<path d="M1062.87 1100.16C1074.39 1107.79 1084.12 1117.52 1091.9 1128.89C1093.55 1131.29 1097.44 1129.04 1095.79 1126.65C1087.56 1114.67 1077.38 1104.5 1065.26 1096.41C1062.72 1094.62 1060.47 1098.51 1062.87 1100.16Z" fill="#1E0E62"/>
<path d="M1092.05 1108.39C1094.45 1111.23 1096.69 1114.22 1099.09 1117.07C1100.88 1119.31 1104.02 1116.17 1102.23 1113.93C1099.83 1111.08 1097.59 1108.09 1095.19 1105.24C1093.4 1103 1090.26 1106.29 1092.05 1108.39Z" fill="#1E0E62"/>
<path d="M1078.28 1066.48C1088.61 1076.06 1097.14 1086.98 1103.73 1099.41C1105.07 1101.95 1108.96 1099.71 1107.62 1097.16C1100.88 1084.44 1092.05 1073.07 1081.42 1063.34C1079.33 1061.24 1076.19 1064.53 1078.28 1066.48Z" fill="#1E0E62"/>
<path d="M95.7734 1185.42C98.9338 1216.59 104.393 1247.34 112.006 1277.79C112.725 1280.52 116.89 1279.37 116.172 1276.64C108.702 1246.62 103.243 1216.16 100.083 1185.42C99.7957 1182.69 95.4861 1182.69 95.7734 1185.42Z" fill="#E8E8E8"/>
<path d="M112.868 1279.23C141.168 1286.56 170.617 1286.56 198.917 1279.23C201.646 1278.51 200.497 1274.35 197.767 1275.06C170.186 1282.25 141.599 1282.25 114.017 1275.06C111.432 1274.35 110.282 1278.51 112.868 1279.23Z" fill="#E8E8E8"/>
<path d="M202.221 1274.92C204.088 1244.32 206.53 1213.72 209.403 1183.12C209.691 1180.39 205.381 1180.39 205.094 1183.12C202.221 1213.72 199.779 1244.32 197.911 1274.92C197.767 1277.65 202.077 1277.65 202.221 1274.92Z" fill="#E8E8E8"/>
<path d="M98.2154 1187.72C133.985 1195.05 170.761 1194.76 206.53 1186.72C209.26 1186.14 208.111 1181.98 205.381 1182.55C170.473 1190.31 134.416 1190.74 99.3647 1183.56C96.6353 1182.98 95.486 1187.15 98.2154 1187.72Z" fill="#E8E8E8"/>
<path d="M97.7844 1198.06C98.9337 1203.95 106.404 1203.67 111.001 1204.1C122.636 1205.1 134.416 1205.39 146.052 1205.1C157.257 1204.82 168.462 1203.95 179.667 1202.66C188.574 1201.51 197.193 1200.36 205.094 1195.91C207.536 1194.62 205.381 1190.88 202.939 1192.17C188.717 1200.08 169.037 1199.79 153.091 1200.51C145.19 1200.79 137.146 1200.94 129.245 1200.79C125.079 1200.65 102.812 1201.66 101.95 1196.91C101.376 1194.19 97.3535 1195.33 97.7844 1198.06Z" fill="#E8E8E8"/>
<path d="M105.973 1247.91C112.868 1260.12 121.631 1270.9 132.118 1280.23C134.129 1282.1 137.289 1279.09 135.134 1277.22C124.791 1268.17 116.316 1257.68 109.708 1245.76C108.415 1243.32 104.68 1245.47 105.973 1247.91Z" fill="#E8E8E8"/>
<path d="M100.37 1214.73C115.023 1239.44 132.836 1262.13 153.235 1282.53C155.246 1284.54 158.263 1281.38 156.251 1279.52C136.14 1259.4 118.614 1236.99 104.105 1212.57C102.669 1210.27 98.9337 1212.43 100.37 1214.73Z" fill="#E8E8E8"/>
<path d="M124.36 1204.38C139.588 1231.53 157.257 1257.25 177.225 1281.24C178.949 1283.39 181.965 1280.38 180.242 1278.22C160.561 1254.52 143.035 1229.09 128.095 1202.23C126.802 1199.79 123.067 1201.94 124.36 1204.38Z" fill="#E8E8E8"/>
<path d="M151.798 1205.39C166.595 1227.51 181.535 1249.49 196.618 1271.47C198.198 1273.77 201.933 1271.61 200.353 1269.32C185.27 1247.34 170.33 1225.36 155.533 1203.23C153.953 1200.94 150.218 1203.09 151.798 1205.39Z" fill="#E8E8E8"/>
<path d="M174.783 1204.1C182.253 1216.17 190.298 1227.94 198.629 1239.44C200.21 1241.59 203.945 1239.44 202.364 1237.28C194.033 1225.79 185.988 1214.01 178.518 1201.94C177.081 1199.65 173.346 1201.8 174.783 1204.1Z" fill="#E8E8E8"/>
<path d="M50.5224 1059.01C52.2462 1068.92 53.97 1078.97 55.8375 1088.89C56.4121 1091.62 56.8431 1094.49 59.1416 1096.21C60.7218 1097.51 65.8933 1097.36 66.8989 1098.8C67.0425 1097.94 67.1861 1097.07 67.1861 1096.21C65.0313 1098.37 62.8766 1100.52 60.5781 1102.53C60.0035 1103.11 59.8598 1103.97 60.0035 1104.69C61.2963 1108.57 62.1583 1114.31 64.7441 1117.62C66.0369 1119.34 68.3354 1119.05 69.341 1120.06C70.2029 1120.92 69.9156 1120.35 69.4846 1122.93C69.1973 1125.09 69.1973 1127.39 69.4846 1129.68C69.9156 1133.13 70.9211 1136.44 72.214 1139.6C79.684 1157.7 94.193 1172.35 108.127 1185.85C110.139 1187.72 113.155 1184.7 111.144 1182.84C102.238 1174.22 93.3311 1165.31 86.0048 1155.25C78.8221 1145.34 70.3466 1131.98 74.7998 1119.34C75.0871 1118.62 74.7998 1117.62 74.2252 1117.19C71.4958 1115.03 68.7664 1115.89 66.8989 1112.45C63.3075 1105.98 65.3187 1103.83 69.9156 1099.37C70.6339 1098.8 70.7775 1097.51 70.2029 1096.79C69.0537 1095.06 68.1918 1094.49 66.3243 1093.91C65.175 1093.48 63.4512 1093.91 62.3019 1093.34C59.8598 1092.05 59.8598 1088.89 59.4289 1086.59C57.705 1077.11 55.9812 1067.48 54.401 1058C54.1137 1055.13 49.9477 1056.28 50.5224 1059.01Z" fill="#E8E8E8"/>
<path d="M53.6829 1058.43C109.708 1077.11 148.063 1129.4 149.213 1188.58C149.213 1191.31 153.522 1191.31 153.522 1188.58C152.373 1127.53 112.725 1073.66 54.8321 1054.27C52.2464 1053.41 51.0971 1057.57 53.6829 1058.43Z" fill="#E8E8E8"/>
<path d="M139.731 1129.69C153.666 1091.04 174.208 1053.69 207.105 1028.27C209.26 1026.54 207.105 1022.81 204.95 1024.53C171.048 1050.82 149.931 1088.74 135.565 1128.54C134.704 1131.12 138.869 1132.27 139.731 1129.69Z" fill="#E8E8E8"/>
<path d="M203.37 1027.4C204.376 1040.62 205.525 1053.84 206.53 1067.2C206.818 1069.92 211.127 1069.92 210.84 1067.2C209.834 1053.98 208.685 1040.76 207.68 1027.4C207.536 1024.67 203.226 1024.67 203.37 1027.4Z" fill="#E8E8E8"/>
<path d="M208.398 1065.76C206.53 1066.19 204.663 1066.62 202.939 1067.19C200.21 1067.91 201.359 1072.08 204.088 1071.36C205.956 1070.93 207.823 1070.5 209.547 1069.92C212.277 1069.21 211.127 1065.18 208.398 1065.76Z" fill="#E8E8E8"/>
<path d="M200.784 1071.07C201.359 1073.8 203.657 1075.53 206.243 1075.82C207.392 1075.96 208.398 1074.81 208.398 1073.66C208.398 1072.37 207.392 1071.65 206.243 1071.51C206.674 1071.51 206.243 1071.51 206.099 1071.51C205.956 1071.51 205.668 1071.36 205.956 1071.51C205.812 1071.36 205.668 1071.36 205.525 1071.22C205.237 1071.07 205.812 1071.51 205.381 1071.07C205.237 1070.93 205.237 1070.93 205.094 1070.79C205.381 1071.07 205.094 1070.79 205.094 1070.64C204.95 1070.5 204.95 1070.21 204.95 1070.5C204.95 1070.36 204.806 1070.07 204.806 1069.93C204.519 1068.78 203.226 1068.06 202.221 1068.49C201.071 1068.78 200.497 1069.93 200.784 1071.07Z" fill="#E8E8E8"/>
<path d="M204.088 1074.23C204.232 1082.42 203.944 1090.47 203.083 1098.51C202.795 1101.1 203.226 1107.13 201.502 1109.14C201.359 1109.28 198.773 1109.72 198.198 1110.15C196.044 1111.87 199.06 1114.89 201.215 1113.16C201.933 1112.59 203.657 1113.16 204.806 1111.87C206.53 1110.15 206.243 1106.12 206.53 1104.11C207.823 1094.2 208.398 1084.15 208.254 1074.09C208.398 1071.5 204.088 1071.5 204.088 1074.23Z" fill="#E8E8E8"/>
<path d="M196.475 1113.88C201.071 1119.34 199.779 1128.39 199.348 1135C198.773 1142.61 197.48 1149.65 193.745 1156.26C188.43 1166.03 180.96 1174.22 177.081 1184.85C176.076 1187.43 180.242 1188.58 181.247 1186C186.419 1172.06 198.342 1161.72 201.933 1147.07C204.519 1136.58 206.961 1119.77 199.491 1110.87C197.767 1108.86 194.751 1111.87 196.475 1113.88Z" fill="#E8E8E8"/>
<path d="M162.572 1186.86C166.595 1146.06 177.369 1106.27 194.607 1069.21C195.756 1066.76 192.021 1064.47 190.872 1067.05C173.346 1104.98 162.285 1145.34 158.263 1187C157.975 1189.73 162.285 1189.59 162.572 1186.86Z" fill="#E8E8E8"/>
<path d="M77.8166 1082.42C102.956 1114.03 121.344 1150.37 132.118 1189.16C132.836 1191.89 137.002 1190.74 136.284 1188.01C125.222 1148.36 106.404 1111.58 80.8333 1079.41C79.1095 1077.25 76.0928 1080.27 77.8166 1082.42Z" fill="#E8E8E8"/>
<path d="M80.546 1135.43C92.613 1134.71 103.818 1137.59 114.017 1143.91C116.316 1145.34 118.614 1141.61 116.172 1140.17C105.398 1133.56 93.1876 1130.4 80.546 1131.12C77.673 1131.27 77.673 1135.57 80.546 1135.43Z" fill="#E8E8E8"/>
<path d="M106.835 1116.18C105.973 1108.28 106.978 1100.67 109.995 1093.2C111.001 1090.61 106.835 1089.46 105.829 1092.05C102.669 1099.8 101.663 1107.85 102.525 1116.18C102.812 1118.91 107.122 1118.91 106.835 1116.18Z" fill="#E8E8E8"/>
<path d="M153.378 1092.34C158.119 1103.97 165.014 1116.33 166.738 1128.68C167.169 1131.41 171.335 1130.26 170.904 1127.53C169.037 1115.03 162.141 1102.68 157.544 1091.19C156.539 1088.6 152.373 1089.75 153.378 1092.34Z" fill="#E8E8E8"/>
<path d="M179.811 1105.98C183.977 1101.24 187.999 1095.64 193.314 1092.05C197.767 1089.03 202.652 1087.02 206.099 1082.85C207.823 1080.7 204.807 1077.68 203.083 1079.84C199.348 1084.29 193.889 1086.16 189.436 1089.61C184.551 1093.34 180.816 1098.37 176.794 1102.97C174.927 1105.12 177.943 1108.14 179.811 1105.98Z" fill="#E8E8E8"/>
<path d="M181.247 1185.42C188.143 1183.56 195.182 1182.84 202.364 1183.27C205.094 1183.41 205.094 1179.1 202.364 1178.96C194.751 1178.53 187.424 1179.25 180.098 1181.26C177.512 1181.98 178.518 1186.14 181.247 1185.42Z" fill="#E8E8E8"/>
<path d="M180.673 1187.15C188.717 1187.87 196.475 1186.86 204.232 1184.42C206.818 1183.56 205.668 1179.39 203.083 1180.25C195.756 1182.55 188.286 1183.41 180.673 1182.84C177.943 1182.69 177.943 1187 180.673 1187.15Z" fill="#E8E8E8"/>
<path d="M100.083 1186.43C101.951 1186.43 103.674 1186.43 105.542 1186.43C108.271 1186.43 108.271 1182.12 105.542 1182.12C103.674 1182.12 101.951 1182.12 100.083 1182.12C97.3537 1182.12 97.3537 1186.43 100.083 1186.43Z" fill="#E8E8E8"/>
<path d="M205.381 1221.19C250.919 1221.19 296.601 1221.19 342.139 1221.19C344.869 1221.19 344.869 1216.88 342.139 1216.88C296.601 1216.88 250.919 1216.88 205.381 1216.88C202.652 1216.88 202.652 1221.19 205.381 1221.19Z" fill="#E8E8E8"/>
<path d="M976.227 1192.75C1003.38 1192.75 1030.38 1192.75 1057.53 1192.75C1060.26 1192.75 1060.26 1188.44 1057.53 1188.44C1030.38 1188.44 1003.38 1188.44 976.227 1188.44C973.497 1188.44 973.497 1192.75 976.227 1192.75Z" fill="#E8E8E8"/>
<path d="M1222.74 1195.34C1339.81 1195.34 1456.89 1195.34 1573.97 1195.34C1607.3 1195.34 1640.63 1195.34 1673.95 1195.34C1676.68 1195.34 1676.68 1191.03 1673.95 1191.03C1556.88 1191.03 1439.8 1191.03 1322.72 1191.03C1289.39 1191.03 1256.06 1191.03 1222.74 1191.03C1220.01 1191.03 1220.01 1195.34 1222.74 1195.34Z" fill="#E8E8E8"/>
<path d="M1049.35 723.72C1038.43 746.274 1026.65 768.396 1014.15 790.088C1013.58 791.237 1014.01 793.105 1015.44 793.248C1077.07 802.586 1132.23 833.184 1185.39 864.07C1187.83 865.506 1189.98 861.771 1187.54 860.335C1133.96 829.305 1078.51 798.564 1016.45 789.082C1016.88 790.088 1017.31 791.237 1017.74 792.243C1030.38 770.551 1042.02 748.428 1052.94 725.875C1054.23 723.433 1050.64 721.134 1049.35 723.72Z" fill="#E8E8E8"/>
<path d="M1058.83 802.011C1063.14 789.656 1067.45 777.159 1071.76 764.804C1073.62 759.633 1074.92 753.887 1077.36 748.859C1077.93 745.842 1079.8 743.544 1082.67 741.82C1084.4 742.251 1086.12 742.682 1087.85 743.113C1090.43 743.831 1093.02 744.406 1095.46 745.124C1101.35 746.56 1110.83 746.56 1109.82 754.461C1109.11 760.064 1105.8 766.097 1103.94 771.556C1099.63 783.767 1095.46 795.977 1091.15 808.188C1090.29 810.773 1094.45 811.923 1095.32 809.337C1100.92 793.248 1106.52 777.015 1112.12 760.926C1113.42 757.191 1117.01 750.87 1114.13 746.848C1110.97 742.538 1101.49 742.251 1096.61 740.958C1091.87 739.809 1083.54 735.499 1078.65 737.797C1074.49 739.665 1073.62 746.848 1072.33 750.439C1066.44 767.246 1060.55 784.198 1054.66 801.005C1053.8 803.447 1057.97 804.596 1058.83 802.011Z" fill="#E8E8E8"/>
<path d="M1114.28 817.381C1123.47 797.988 1132.81 778.451 1142 759.058C1146.6 749.29 1151.2 739.665 1155.94 729.896C1158.09 725.443 1159.82 720.128 1162.55 715.962C1164.84 712.371 1165.42 711.509 1169.44 713.089C1171.6 713.951 1174.18 716.106 1176.05 717.398C1178.49 719.122 1182.37 720.99 1184.09 723.288C1186.25 726.018 1185.39 728.891 1184.09 732.338C1182.37 736.935 1179.78 741.389 1177.63 745.842C1172.89 755.61 1168.15 765.379 1163.12 775.147C1153.64 793.679 1143.73 812.066 1133.53 830.31C1132.09 832.752 1135.83 834.907 1137.26 832.465C1149.76 810.342 1161.68 787.932 1172.89 765.235C1178.49 754.03 1184.67 742.538 1189.41 730.902C1192.71 722.426 1185.53 718.979 1179.21 714.525C1174.18 711.078 1166.28 703.177 1160.82 709.641C1157.37 713.663 1155.51 720.415 1153.21 725.299C1150.34 731.189 1147.61 737.079 1144.73 743.112C1133.24 767.246 1121.75 791.38 1110.4 815.514C1109.39 817.669 1113.13 819.967 1114.28 817.381Z" fill="#E8E8E8"/>
<path d="M1161.97 847.262C1174.33 827.868 1188.26 809.481 1203.63 792.53C1202.77 792.673 1201.91 792.817 1201.05 792.817C1206.5 796.552 1211.82 800.143 1217.28 803.878C1216.99 802.873 1216.7 801.867 1216.56 800.861C1204.35 819.967 1192.14 838.93 1179.93 858.036C1178.49 860.334 1182.08 862.489 1183.66 860.19C1195.87 841.084 1208.08 822.122 1220.29 803.016C1221.01 802.011 1220.44 800.718 1219.58 800C1214.12 796.265 1208.8 792.673 1203.34 788.938C1202.63 788.364 1201.33 788.651 1200.76 789.225C1185.1 806.608 1170.88 825.139 1158.38 844.819C1156.8 847.549 1160.53 849.704 1161.97 847.262Z" fill="#E8E8E8"/>
<path d="M1333.35 710.647C1318.98 705.188 1309.93 690.823 1312.52 675.452C1315.11 659.794 1330.48 645.859 1346.28 655.197C1357.2 661.661 1362.8 676.314 1358.63 688.237C1354.32 701.022 1340.25 708.636 1327.17 706.625C1324.44 706.194 1323.29 710.36 1326.02 710.791C1341.39 713.089 1357.63 704.613 1362.8 689.386C1367.97 674.159 1359.64 655.771 1344.7 649.594C1327.17 642.411 1311.23 657.495 1308.21 674.303C1305.05 692.116 1315.54 708.492 1332.06 714.813C1334.79 715.818 1335.94 711.653 1333.35 710.647Z" fill="#E8E8E8"/>
<path d="M1362.8 707.917C1334.21 707.055 1344.99 661.23 1370.27 662.954C1395.55 664.821 1385.21 716.393 1357.48 706.912C1354.9 706.05 1353.75 710.216 1356.33 711.078C1388.37 721.995 1402.73 663.672 1372.14 658.788C1357.2 656.346 1343.69 670.424 1341.39 684.358C1339.1 698.149 1348.43 711.652 1362.8 712.083C1365.53 712.371 1365.53 708.061 1362.8 707.917Z" fill="#E8E8E8"/>
<path d="M1341.39 577.911C1338.95 575.326 1337.8 571.16 1339.67 567.999C1341.54 564.983 1346.14 563.546 1349.01 565.844C1351.59 567.856 1352.17 572.165 1349.73 574.32C1346.85 576.906 1342.26 575.613 1339.53 573.458C1337.37 571.734 1334.36 574.751 1336.51 576.475C1340.96 579.923 1347.86 581.646 1352.6 577.48C1356.91 573.602 1356.48 566.419 1352.17 562.684C1347.72 558.805 1340.68 559.955 1336.94 564.264C1332.78 569.149 1333.92 576.475 1338.23 580.928C1340.25 582.939 1343.26 579.923 1341.39 577.911Z" fill="#E8E8E8"/>
<path d="M924.512 686.082C920.489 661.661 934.711 632.212 962.293 632.499C976.371 632.643 990.018 638.389 1004.24 636.378C1014.3 634.941 1022.91 629.195 1028.95 621.294C1034.98 613.393 1038.43 603.481 1039 593.569C1039.72 578.916 1034.12 563.977 1038.14 549.467C1040.15 542.141 1044.46 535.389 1051.79 532.66C1058.83 530.218 1066.44 531.654 1073.77 531.367C1084.4 530.936 1092.73 526.339 1098.05 517.002C1105.52 503.929 1103.79 488.271 1108.96 474.48C1115.14 457.816 1132.52 443.595 1150.91 451.783C1153.35 452.932 1155.65 449.197 1153.06 448.048C1128.07 436.843 1107.24 459.397 1102.35 482.094C1099.19 496.89 1099.77 519.875 1082.1 525.765C1069.75 529.931 1055.81 523.466 1044.46 531.942C1035.12 538.837 1032.4 551.479 1032.54 562.54C1032.97 578.773 1038 594.575 1030.82 610.089C1024.21 624.742 1011.13 633.505 994.902 632.499C980.537 631.637 966.315 625.748 951.806 629.483C927.241 635.66 916.754 664.678 920.633 687.375C920.92 689.817 925.086 688.668 924.512 686.082Z" fill="#E8E8E8"/>
<path d="M1106.09 583.657C1100.77 571.59 1108.1 560.098 1119.74 556.219C1128.21 553.346 1137.55 553.202 1144.88 547.456C1150.62 543.003 1152.49 537.401 1151.77 530.218C1151.05 523.466 1151.05 518.151 1156.37 513.554C1160.82 509.675 1166.71 508.239 1172.46 507.952C1188.26 507.377 1209.95 515.422 1221.44 500.051C1226.76 492.868 1225.18 483.961 1227.62 475.917C1230.92 464.712 1241.7 457.816 1253.19 458.391C1255.92 458.535 1255.92 454.225 1253.19 454.081C1244.43 453.65 1235.95 456.954 1229.92 463.275C1222.45 471.176 1223.45 480.083 1221.16 489.995C1214.98 517.145 1177.2 498.039 1159.39 506.515C1152.78 509.675 1147.46 515.278 1146.89 522.748C1146.17 531.511 1150.19 538.693 1141.28 544.727C1136.54 547.887 1131.09 548.893 1125.63 550.186C1116.58 552.341 1107.67 555.07 1103.07 563.833C1099.34 570.728 1099.34 578.629 1102.5 585.668C1103.5 588.398 1107.1 586.099 1106.09 583.657Z" fill="#E8E8E8"/>
<path d="M1362.08 392.31C1361.51 391.017 1360.93 389.581 1360.5 388.144C1362.37 385.989 1364.09 383.834 1365.96 381.68C1366.53 381.536 1369.12 383.26 1369.98 383.26C1372.14 383.547 1374 382.972 1375.73 381.68C1381.04 377.514 1379.18 370.906 1380.76 365.303C1383.34 355.678 1394.69 362.286 1399.86 355.104C1405.03 348.065 1403.17 333.125 1416.96 337.147C1419.69 337.865 1420.83 333.699 1418.11 332.981C1410.2 330.683 1403.02 334.418 1400.15 342.031C1399.29 344.186 1399 346.628 1398.14 348.783C1396.27 353.811 1394.26 354.529 1388.8 354.816C1384.78 355.104 1381.62 354.816 1378.89 358.264C1376.59 361.281 1376.59 365.159 1376.16 368.751C1375.73 374.066 1376.16 378.519 1368.26 377.945C1366.68 377.801 1365.38 376.364 1363.66 376.364C1354.18 376.221 1355.76 387.857 1358.06 393.459C1358.92 396.045 1363.23 394.896 1362.08 392.31Z" fill="#E8E8E8"/>
<path d="M1389.09 404.233C1386.79 401.216 1382.91 392.454 1389.66 390.155C1392.1 389.293 1395.26 390.299 1397.85 390.299C1400.15 390.299 1402.16 390.299 1404.03 388.719C1409.77 384.122 1405.61 375.933 1408.62 370.187C1413.51 360.85 1423.28 368.176 1430.17 363.292C1435.06 359.844 1436.35 353.236 1437.21 347.777C1437.64 345.048 1433.48 343.899 1433.05 346.628C1432.04 353.092 1430.89 360.275 1422.85 360.993C1418.68 361.424 1415.52 359.988 1411.64 361.855C1405.32 364.872 1403.31 370.475 1403.17 376.939C1403.02 382.398 1404.31 385.127 1395.12 385.558C1393.97 385.558 1392.82 385.271 1391.67 385.271C1388.37 385.558 1385.5 387.282 1383.63 390.011C1379.61 395.758 1381.91 402.366 1385.93 407.394C1387.79 409.548 1390.81 406.388 1389.09 404.233Z" fill="#E8E8E8"/>
<path d="M167.744 482.094C179.667 467.728 196.618 455.949 216.155 457.96C237.416 460.115 247.903 477.066 249.914 496.89C253.361 529.787 245.317 569.148 267.583 597.16C276.346 608.222 289.419 614.111 303.497 610.664C320.448 606.641 333.664 593.282 348.748 585.381C366.561 576.043 391.125 571.015 407.215 586.674C418.994 598.166 421.58 615.692 425.459 630.919C429.05 644.71 435.227 659.937 447.581 668.125C455.051 673.009 463.24 673.44 471.859 672.866C481.484 672.147 501.164 671.573 499.153 686.657C498.866 689.386 503.175 689.386 503.463 686.657C504.181 680.767 501.451 676.026 496.711 672.578C489.241 667.12 480.622 667.982 471.859 668.556C461.947 669.274 453.471 668.412 445.857 661.373C438.962 655.053 434.796 646.146 431.779 637.383C426.751 622.3 425.315 605.779 416.696 591.989C408.22 578.342 393.567 571.734 377.766 572.308C357.798 573.026 340.99 584.519 325.045 595.149C317.431 600.177 309.243 605.492 299.905 607.072C288.7 608.94 278.788 604.056 271.606 595.724C258.102 579.922 255.947 557.368 255.229 537.544C254.511 519.013 256.953 498.901 250.776 480.944C245.173 464.568 230.951 454.368 213.857 453.507C194.032 452.501 176.65 464.424 164.44 479.077C162.86 481.232 165.876 484.248 167.744 482.094Z" fill="#E8E8E8"/>
<path d="M95.1987 703.751C117.609 741.101 137.577 779.743 155.246 819.535C156.395 822.121 160.13 819.823 158.981 817.381C141.312 777.589 121.2 738.946 98.9337 701.596C97.4972 699.154 93.7622 701.308 95.1987 703.751Z" fill="#E8E8E8"/>
<path d="M97.9282 702.028C132.836 680.336 168.749 660.081 205.668 641.693C208.111 640.401 205.956 636.666 203.514 637.958C166.738 656.346 130.825 676.601 95.7734 698.293C93.3313 699.873 95.4861 703.608 97.9282 702.028Z" fill="#E8E8E8"/>
<path d="M203.083 639.826C221.327 678.182 240.576 715.962 260.975 753.169C262.268 755.611 266.003 753.456 264.71 751.014C244.311 713.808 224.918 676.027 206.818 637.671C205.525 635.085 201.933 637.24 203.083 639.826Z" fill="#E8E8E8"/>
<path d="M160.13 820.399C194.463 799.713 228.366 778.452 261.981 756.617C264.279 755.18 262.124 751.445 259.826 752.882C226.211 774.717 192.309 795.978 157.975 816.664C155.677 818.101 157.832 821.835 160.13 820.399Z" fill="#E8E8E8"/>
<path d="M157.401 689.386C156.539 716.967 158.119 744.405 162.141 771.7C162.572 774.429 166.738 773.28 166.307 770.55C162.285 743.687 160.848 716.536 161.71 689.386C161.854 686.657 157.544 686.657 157.401 689.386Z" fill="#E8E8E8"/>
<path d="M157.545 687.949C177.512 703.608 197.48 718.979 217.735 734.206C219.89 735.93 222.045 732.195 219.89 730.471C199.922 715.531 180.098 700.304 160.561 684.933C158.406 683.209 155.39 686.226 157.545 687.949Z" fill="#E8E8E8"/>
<path d="M166.595 772.562C183.115 757.766 204.663 749.865 220.321 733.919C222.332 731.908 219.172 728.891 217.304 730.903C201.646 746.704 180.242 754.749 163.578 769.545C161.423 771.269 164.583 774.286 166.595 772.562Z" fill="#E8E8E8"/>
<path d="M100.945 726.305C105.542 724.007 110.139 721.852 114.736 719.554C117.178 718.404 115.023 714.669 112.581 715.819C107.984 718.117 103.387 720.272 98.79 722.57C96.3479 723.863 98.5027 727.454 100.945 726.305Z" fill="#E8E8E8"/>
<path d="M115.741 750.726C119.62 748.141 123.786 745.986 128.095 744.118C130.681 743.113 129.532 738.947 126.946 739.952C122.206 741.963 117.752 744.262 113.443 746.991C111.288 748.572 113.443 752.306 115.741 750.726Z" fill="#E8E8E8"/>
<path d="M131.974 778.883C135.996 776.871 140.019 774.86 144.041 772.993C146.483 771.7 144.328 768.109 141.886 769.258C137.864 771.269 133.841 773.28 129.819 775.148C127.377 776.297 129.532 780.032 131.974 778.883Z" fill="#E8E8E8"/>
<path d="M140.306 807.039C144.759 803.161 149.356 799.857 154.528 796.984C156.97 795.547 154.815 791.956 152.373 793.249C147.058 796.265 142.03 799.857 137.289 804.023C135.134 805.89 138.151 808.907 140.306 807.039Z" fill="#E8E8E8"/>
<path d="M211.271 668.126C214.575 665.827 218.023 664.247 221.901 663.241C224.631 662.523 223.482 658.501 220.752 659.076C216.586 660.081 212.564 661.805 208.972 664.391C206.818 665.971 208.972 669.706 211.271 668.126Z" fill="#E8E8E8"/>
<path d="M224.056 692.69C228.653 689.817 233.25 686.944 237.703 683.927C240.002 682.491 237.847 678.756 235.549 680.192C230.952 683.065 226.355 685.938 221.901 688.955C219.459 690.535 221.614 694.27 224.056 692.69Z" fill="#E8E8E8"/>
<path d="M238.709 722.139C243.593 719.984 248.621 717.829 253.505 715.675C256.091 714.525 253.792 710.79 251.35 711.94C246.466 714.094 241.438 716.249 236.554 718.404C233.968 719.553 236.267 723.288 238.709 722.139Z" fill="#E8E8E8"/>
<path d="M249.195 741.39C253.074 737.655 257.384 734.494 262.124 731.765C264.566 730.472 262.412 726.737 259.97 728.03C254.942 730.903 250.345 734.207 246.179 738.229C244.168 740.24 247.184 743.257 249.195 741.39Z" fill="#E8E8E8"/>
<path d="M172.341 801.435C175.932 806.751 178.949 812.353 181.247 818.243C182.253 820.829 186.419 819.68 185.413 817.094C182.971 810.773 179.954 804.74 176.076 799.137C174.495 796.982 170.76 799.137 172.341 801.435Z" fill="#E8E8E8"/>
<path d="M194.32 789.512C197.049 794.397 199.635 799.137 202.364 804.021C203.657 806.463 207.392 804.309 206.099 801.867C203.37 796.982 200.784 792.242 198.055 787.357C196.762 784.915 193.027 787.07 194.32 789.512Z" fill="#E8E8E8"/>
<path d="M219.746 771.268C222.62 776.44 225.493 781.611 228.366 786.783C229.659 789.225 233.394 787.07 232.101 784.628C229.228 779.456 226.355 774.285 223.481 769.113C222.189 766.671 218.454 768.826 219.746 771.268Z" fill="#E8E8E8"/>
<path d="M242.587 757.622C244.886 763.08 247.184 768.539 249.626 773.855C250.776 776.44 254.367 774.142 253.361 771.7C251.063 766.241 248.764 760.782 246.322 755.467C245.173 753.025 241.438 755.18 242.587 757.622Z" fill="#E8E8E8"/>
<path d="M112.294 679.905C115.023 684.358 117.609 688.812 120.338 693.121C121.775 695.563 125.51 693.265 124.073 690.966C121.344 686.513 118.758 682.06 116.029 677.75C114.592 675.452 110.857 677.607 112.294 679.905Z" fill="#E8E8E8"/>
<path d="M137.002 665.54C139.588 671.286 142.174 677.032 144.759 682.778C145.909 685.364 149.644 683.066 148.494 680.623C145.909 674.877 143.323 669.131 140.737 663.385C139.444 660.799 135.853 662.954 137.002 665.54Z" fill="#E8E8E8"/>
<path d="M159.268 651.749C163.147 656.92 166.164 662.523 168.175 668.556C169.037 671.142 173.203 669.993 172.341 667.407C170.186 660.943 167.169 654.909 163.003 649.594C161.423 647.439 157.688 649.45 159.268 651.749Z" fill="#E8E8E8"/>
<path d="M183.259 640.687C186.275 645.284 189.148 649.737 192.165 654.334C193.602 656.633 197.337 654.478 195.9 652.18C192.883 647.583 190.01 643.129 186.994 638.532C185.413 636.234 181.678 638.389 183.259 640.687Z" fill="#E8E8E8"/>
<path d="M406.64 355.822C392.706 351.513 391.987 336.716 398.595 325.655C405.06 314.881 417.558 312.008 427.326 320.915C435.371 328.385 436.089 341.17 428.619 349.358C421.149 357.69 408.939 357.546 400.319 351.225C398.165 349.502 396.01 353.237 398.165 354.96C409.082 363.005 425.028 361.712 433.216 350.364C441.692 338.871 438.675 322.782 426.752 315.025C398.021 296.493 373.312 349.933 405.491 359.988C408.22 360.85 409.369 356.684 406.64 355.822Z" fill="#E8E8E8"/>
<path d="M429.768 359.558C418.994 362.862 416.408 349.933 421.149 343.038C425.028 337.435 432.641 334.131 439.537 335.999C446.145 337.722 450.885 344.474 449.162 351.226C447.007 359.701 438.1 362.718 430.199 361.425C427.47 360.994 426.321 365.16 429.05 365.591C439.68 367.459 451.173 362.862 453.471 351.369C455.482 341.457 447.725 332.407 438.1 331.258C427.47 329.965 415.834 337.722 414.397 348.64C413.104 358.121 421.724 366.597 431.205 363.58C433.647 362.862 432.498 358.696 429.768 359.558Z" fill="#E8E8E8"/>
<path d="M338.117 453.075C334.67 460.114 339.554 467.153 346.736 469.021C352.195 470.457 357.941 469.164 363.544 469.452C369.577 469.739 375.611 471.176 381.07 473.618C393.137 479.077 400.894 488.989 401.325 502.348C401.756 513.553 398.452 525.189 403.336 535.82C413.679 558.23 442.122 541.135 456.775 555.644C468.986 567.855 463.958 590.121 480.334 599.458C482.777 600.895 484.931 597.16 482.489 595.723C467.837 587.391 471.284 565.7 460.941 553.633C455.482 547.312 447.581 545.588 439.537 545.014C429.768 544.439 417.127 546.45 409.944 538.118C401.612 528.35 406.065 513.697 405.634 502.205C405.347 493.155 402.33 484.966 396.01 478.502C390.407 472.899 383.081 469.021 375.467 467.01C371.589 466.004 367.566 465.286 363.544 465.142C358.372 464.855 335.962 467.441 341.996 455.23C343.145 452.788 339.41 450.633 338.117 453.075Z" fill="#E8E8E8"/>
<path d="M2.25478 1228.52C28.2561 1228.52 54.1137 1228.52 80.1151 1228.52C82.8445 1228.52 82.8445 1224.21 80.1151 1224.21C54.1137 1224.21 28.2561 1224.21 2.25478 1224.21C-0.618293 1224.21 -0.618293 1228.52 2.25478 1228.52Z" fill="#E8E8E8"/>
<path d="M44.2016 1325.92C94.193 1325.92 144.041 1325.92 194.032 1325.92C196.762 1325.92 196.762 1321.61 194.032 1321.61C144.041 1321.61 94.193 1321.61 44.2016 1321.61C41.3285 1321.61 41.3285 1325.92 44.2016 1325.92Z" fill="#E8E8E8"/>
<path d="M187.999 1298.91C234.399 1298.91 280.943 1298.91 327.343 1298.91C330.072 1298.91 330.072 1294.6 327.343 1294.6C280.943 1294.6 234.399 1294.6 187.999 1294.6C185.126 1294.6 185.126 1298.91 187.999 1298.91Z" fill="#E8E8E8"/>
<path d="M960.712 1291.44C984.128 1285.69 1007.69 1285.12 1031.53 1288.85C1041.59 1290.43 1051.79 1292.01 1061.99 1291.15C1071.9 1290.29 1081.52 1287.27 1091.15 1284.69C1102.07 1281.67 1112.99 1279.37 1124.48 1280.23C1136.26 1281.1 1147.61 1284.4 1159.1 1286.99C1169.01 1289.28 1179.07 1290.86 1189.27 1290.72C1200.04 1290.43 1210.67 1288.57 1221.16 1286.99C1249.89 1282.39 1276.89 1285.26 1305.34 1290C1308.07 1290.43 1309.22 1286.27 1306.49 1285.84C1283.5 1282.1 1260.37 1278.22 1236.96 1280.52C1212.54 1282.96 1189.84 1289 1165.13 1283.97C1144.45 1279.8 1124.76 1273.34 1103.5 1277.36C1092.16 1279.52 1081.38 1283.54 1070.03 1285.69C1057.39 1288.14 1045.18 1286.7 1032.54 1284.69C1007.97 1280.95 983.697 1281.24 959.419 1287.27C956.977 1287.99 958.126 1292.16 960.712 1291.44Z" fill="#E8E8E8"/>
<path d="M1181.36 1247.77C1226.47 1245.33 1271.58 1242.88 1316.69 1240.59C1338.95 1239.44 1360.5 1239.87 1382.62 1242.88C1392.54 1244.18 1402.02 1244.46 1411.93 1243.31C1422.99 1242.02 1434.48 1240.3 1444.83 1245.61C1447.27 1246.91 1449.42 1243.17 1446.98 1241.88C1429.45 1232.97 1409.2 1241.3 1390.38 1239.58C1379.18 1238.57 1368.26 1236.42 1357.05 1235.84C1345.42 1235.27 1333.78 1235.56 1322.15 1236.13C1275.17 1238.29 1228.2 1241.16 1181.22 1243.6C1178.64 1243.6 1178.64 1247.91 1181.36 1247.77Z" fill="#E8E8E8"/>
<path d="M298.038 1371.17C319.299 1373.18 340.703 1375.19 361.964 1372.75C371.876 1371.6 381.357 1369.44 390.982 1366.57C403.48 1362.84 414.685 1361.83 427.613 1364.13C437.526 1365.85 447.294 1368.29 457.206 1369.16C467.693 1370.02 478.18 1369.44 488.666 1368.44C510.645 1366.28 532.624 1362.55 554.46 1367.43C557.189 1368.01 558.338 1363.84 555.609 1363.27C534.635 1358.67 513.662 1361.69 492.545 1363.84C482.058 1364.85 471.571 1365.85 461.085 1365.28C449.162 1364.7 437.669 1361.54 426.033 1359.68C416.265 1358.1 406.927 1358.1 397.303 1360.39C386.959 1362.98 377.191 1366.43 366.561 1368.01C343.863 1371.31 320.735 1369.01 298.038 1367C295.165 1366.57 295.308 1370.88 298.038 1371.17Z" fill="#E8E8E8"/>
<path d="M525.298 212.025C519.695 208.146 512.082 201.969 514.38 194.212C516.822 186.167 522.856 190.046 528.458 188.178C535.928 185.736 535.497 176.686 533.342 170.796C531.188 165.05 526.591 151.116 538.514 155.856C541.243 157.005 543.255 158.873 546.415 157.867C549.288 157.005 550.725 154.42 551.443 151.69C552.017 149.248 551.586 146.662 551.443 144.077C551.156 142.353 551.012 140.485 551.012 138.761C550.437 134.595 553.023 132.872 558.482 133.59C558.625 136.319 562.935 136.319 562.791 133.59C562.504 129.568 559.487 126.695 555.178 126.838C550.15 126.982 547.421 131.866 546.846 136.463C546.415 139.623 549.001 146.95 547.564 149.535C545.84 150.685 544.116 151.978 542.249 153.127C541.531 152.696 540.812 152.265 540.094 151.834C538.801 151.403 537.796 150.541 536.503 150.254C532.05 149.248 528.458 151.978 526.878 156C524.149 162.895 529.033 168.641 530.469 175.106C532.337 184.012 525.585 183.007 519.695 184.012C517.11 184.443 514.955 185.736 513.231 187.604C504.181 198.09 514.667 209.726 523.287 215.76C525.441 217.34 527.596 213.605 525.298 212.025Z" fill="#E8E8E8"/>
<path d="M553.598 208.002C548.857 202.543 545.266 195.073 554.46 192.2C556.758 191.482 559.344 191.769 561.499 190.333C566.239 187.028 564.228 182.575 563.366 177.978C562.935 175.393 561.93 171.945 563.51 169.359C564.659 167.492 568.825 166.773 570.98 166.342C573.997 165.624 577.157 165.193 579.743 163.469C583.621 160.74 585.058 155.856 582.472 151.69C581.036 149.391 577.301 151.546 578.737 153.844C583.047 160.74 562.935 162.607 559.488 167.635C555.465 173.525 563.941 183.868 556.902 187.603C554.172 189.04 550.725 188.034 548.139 189.902C546.271 191.194 544.978 193.206 544.404 195.36C542.824 201.537 546.99 206.853 550.725 211.162C552.449 213.173 555.465 210.157 553.598 208.002Z" fill="#E8E8E8"/>
<path d="M383.943 173.956C380.208 171.371 379.777 166.774 380.926 162.751C381.644 160.022 385.092 152.552 388.396 152.265C393.855 151.69 396.584 158.585 398.021 162.608C399.314 166.486 399.745 170.365 399.888 174.387C399.888 177.117 404.198 177.117 404.198 174.387C404.054 166.343 398.739 141.634 385.523 148.817C380.495 151.546 376.76 159.447 376.185 164.906C375.611 170.078 377.622 174.675 381.788 177.691C383.943 179.271 386.097 175.536 383.943 173.956Z" fill="#E8E8E8"/>
<path d="M382.219 176.255C377.047 177.548 371.876 178.841 366.561 180.134C363.544 180.852 358.372 181.14 355.93 183.438C351.764 187.317 352.914 199.24 352.914 204.268C352.914 205.704 354.35 206.71 355.643 206.279C356.361 206.135 357.08 205.848 357.941 205.704C361.676 203.693 363.544 204.986 363.688 209.296C366.561 212.169 366.561 213.893 363.688 214.18C361.964 214.898 360.24 215.186 358.372 215.186C357.223 215.329 356.218 216.048 356.218 217.34C356.505 226.534 357.223 235.584 358.229 244.778C358.516 247.508 362.826 247.508 362.538 244.778C361.533 235.584 360.815 226.534 360.527 217.34C359.809 218.059 359.091 218.777 358.372 219.495C364.406 218.777 374.031 216.335 372.738 208.147C371.301 199.384 360.671 200.389 354.637 202.113C355.499 202.831 356.505 203.55 357.367 204.124C357.367 200.82 357.367 197.66 357.654 194.356C358.085 189.184 357.798 187.317 362.538 185.449C369.003 182.864 376.616 182.002 383.368 180.278C386.098 179.847 384.948 175.681 382.219 176.255Z" fill="#E8E8E8"/>
<path d="M402.905 177.548C408.938 177.261 415.116 177.261 421.149 177.979C426.895 178.697 426.608 179.559 427.47 184.587C428.044 187.747 428.188 191.051 428.475 194.212C429.625 206.566 430.487 218.92 431.205 231.274C431.348 234.004 435.658 234.004 435.514 231.274C434.652 214.467 434.078 197.228 431.348 180.565C430.63 176.399 429.912 175.106 425.602 174.388C418.132 172.951 410.375 172.951 402.905 173.382C400.176 173.382 400.176 177.692 402.905 177.548Z" fill="#E8E8E8"/>
<path d="M361.389 247.795C369.865 246.359 378.34 244.922 386.672 243.486C396.297 241.905 405.491 242.624 415.116 241.905C419.569 241.474 440.686 239.32 432.929 230.557C431.061 228.546 428.044 231.562 429.912 233.574C431.061 234.866 411.524 237.739 411.093 237.739C405.06 237.883 399.026 237.596 392.993 238.314C382.075 239.607 371.158 241.905 360.24 243.773C357.51 244.06 358.66 248.226 361.389 247.795Z" fill="#E8E8E8"/>
<path d="M1115.25 1120.06C1114.8 1135.78 1114.35 1151.49 1113.9 1167.36C1133.81 1168.7 1153.56 1169.9 1173.47 1171.25C1173.47 1155.08 1173.47 1138.92 1173.47 1122.76C1154.01 1121.86 1134.71 1120.96 1115.25 1120.06Z" fill="white" stroke="#1E0E62" stroke-width="2" stroke-miterlimit="10"/>
<path d="M1141.14 1294.72C1143.84 1312.08 1145.03 1326.45 1145.63 1336.78C1147.58 1371.05 1146.08 1378.98 1143.09 1385.27C1135.75 1400.68 1122.43 1407.12 1123.63 1409.22C1124.53 1410.56 1131.11 1409.07 1160.45 1393.65C1158.65 1359.53 1157.01 1325.55 1155.21 1291.43C1150.57 1292.63 1145.93 1293.67 1141.14 1294.72Z" fill="white" stroke="#1E0E62" stroke-width="2" stroke-miterlimit="10"/>
<path d="M1102.38 1184.72C1127.82 1184.87 1153.26 1185.17 1178.71 1185.32C1175.86 1219.44 1173.17 1253.41 1170.33 1287.54C1148.18 1285.74 1125.88 1284.09 1103.73 1282.3C1103.13 1249.82 1102.68 1217.34 1102.38 1184.72Z" fill="white" stroke="#1E0E62" stroke-width="2" stroke-miterlimit="10"/>
<path d="M1112.71 1293.52C1120.79 1313.13 1123.48 1330.04 1124.38 1341.42C1125.73 1358.18 1126.62 1371.05 1118.54 1379.58C1115.55 1382.87 1110.61 1386.02 1101.03 1392.45C1092.5 1398.14 1088.46 1400.24 1088.76 1400.83C1089.21 1401.73 1097.44 1399.94 1133.36 1387.21C1135.75 1375.09 1137.7 1359.53 1137.25 1341.27C1136.65 1321.81 1133.51 1305.2 1130.07 1292.78C1124.38 1293.07 1118.54 1293.22 1112.71 1293.52Z" fill="white" stroke="#1E0E62" stroke-width="2" stroke-miterlimit="10"/>
<path d="M1125.73 1410.56C1130.22 1406.82 1134.41 1402.78 1138.45 1398.44C1143.09 1393.35 1149.97 1385.57 1157.16 1392.3C1157.31 1391.11 1157.46 1389.91 1157.6 1388.71C1146.98 1393.95 1136.5 1399.19 1125.88 1404.28C1123.78 1405.32 1124.83 1408.47 1127.07 1408.47C1137.1 1408.62 1143.39 1391.11 1153.71 1394.4C1156.41 1395.3 1157.6 1390.96 1154.91 1390.06C1150.42 1388.71 1146.98 1389.91 1143.24 1392.6C1138.9 1395.75 1132.76 1403.98 1127.22 1403.98C1127.67 1405.32 1127.97 1406.82 1128.42 1408.17C1139.05 1402.93 1149.52 1397.69 1160.15 1392.6C1161.5 1392 1161.65 1390.06 1160.6 1389.01C1156.56 1385.27 1149.37 1383.92 1144.28 1386.32C1140.54 1387.96 1138.15 1392.3 1135.45 1395.15C1131.41 1399.49 1127.22 1403.38 1122.73 1407.27C1120.34 1409.21 1123.48 1412.51 1125.73 1410.56Z" fill="#1E0E62"/>
<path d="M1144.13 1387.22C1148.62 1387.37 1152.97 1388.26 1157.16 1390.06C1159.7 1391.26 1162.09 1387.37 1159.4 1386.17C1154.46 1383.92 1149.52 1382.73 1144.13 1382.58C1141.29 1382.73 1141.29 1387.22 1144.13 1387.22Z" fill="#1E0E62"/>
<path d="M1119.59 1381.98C1123.03 1382.88 1126.03 1384.67 1128.42 1387.37C1130.37 1389.46 1133.51 1386.32 1131.56 1384.22C1128.57 1381.08 1124.83 1378.83 1120.64 1377.79C1118.09 1376.89 1116.9 1381.23 1119.59 1381.98Z" fill="#1E0E62"/>
<path d="M1095.34 1400.09C1099.98 1396.64 1104.77 1393.5 1109.71 1390.51C1111.96 1389.16 1114.35 1387.36 1116.75 1386.62C1120.49 1385.27 1122.73 1386.17 1126.17 1387.66C1126.17 1386.32 1126.17 1385.12 1126.17 1383.77C1121.39 1385.87 1116 1385.72 1111.06 1387.81C1106.27 1389.76 1101.78 1394.55 1096.84 1395.45C1097.44 1396.79 1098.04 1398.14 1098.64 1399.49C1107.47 1395.15 1117.34 1394.4 1126.17 1390.06C1128.72 1388.71 1126.47 1384.97 1123.93 1386.17C1115.1 1390.51 1105.22 1391.26 1096.39 1395.6C1094 1396.79 1095.79 1400.09 1098.19 1399.64C1103.58 1398.74 1107.92 1393.8 1113 1391.85C1118.09 1389.91 1123.63 1389.76 1128.57 1387.66C1130.07 1387.06 1130.07 1384.37 1128.57 1383.77C1122.88 1381.23 1120.34 1379.73 1114.65 1382.72C1107.17 1386.62 1100.13 1391.25 1093.4 1396.19C1090.7 1397.84 1092.95 1401.73 1095.34 1400.09Z" fill="#1E0E62"/>
<path d="M1120.94 1316.42C1124.68 1315.08 1128.42 1315.23 1131.86 1317.02C1134.41 1318.37 1136.65 1314.48 1134.11 1313.13C1129.62 1310.74 1124.53 1310.29 1119.74 1312.08C1117.05 1313.13 1118.24 1317.47 1120.94 1316.42Z" fill="#1E0E62"/>
<path d="M1124.68 1331.39C1127.82 1331.09 1130.81 1331.84 1133.21 1333.93C1135.45 1335.73 1138.6 1332.59 1136.35 1330.79C1133.06 1328.1 1129.02 1326.6 1124.68 1326.9C1121.83 1327.05 1121.83 1331.54 1124.68 1331.39Z" fill="#1E0E62"/>
<path d="M1126.32 1350.1C1129.17 1349.8 1131.86 1350.85 1133.51 1353.24C1135.01 1355.63 1138.9 1353.39 1137.4 1350.99C1135.15 1347.25 1130.81 1345.01 1126.47 1345.61C1125.28 1345.76 1124.23 1346.5 1124.23 1347.85C1124.08 1348.9 1125.13 1350.25 1126.32 1350.1Z" fill="#1E0E62"/>
<path d="M1145.63 1315.37C1148.33 1313.88 1151.77 1314.03 1154.31 1316.12C1156.56 1317.92 1159.7 1314.78 1157.46 1312.98C1153.41 1309.69 1148.03 1308.94 1143.39 1311.48C1140.84 1312.98 1143.09 1316.87 1145.63 1315.37Z" fill="#1E0E62"/>
<path d="M1148.18 1343.66C1150.57 1342.61 1153.26 1343.06 1155.21 1344.86C1157.31 1346.8 1160.6 1343.66 1158.35 1341.72C1154.91 1338.57 1150.12 1337.82 1145.78 1339.92C1143.24 1340.97 1145.63 1344.86 1148.18 1343.66Z" fill="#1E0E62"/>
<path d="M1148.77 1367.61C1151.17 1366.11 1154.16 1366.11 1156.41 1367.91C1158.65 1369.7 1161.8 1366.56 1159.55 1364.76C1155.81 1361.62 1150.57 1361.17 1146.53 1363.87C1144.13 1365.36 1146.38 1369.25 1148.77 1367.61Z" fill="#1E0E62"/>
<path d="M1182.3 1185.17C1179.31 1219.59 1176.31 1254.01 1173.32 1288.44" stroke="#1E0E62" stroke-width="6" stroke-miterlimit="10"/>
<path d="M1103.28 1283.65C1128.27 1285.44 1153.26 1287.09 1178.26 1288.88" stroke="#1E0E62" stroke-width="6" stroke-miterlimit="10"/>
<path d="M1178.41 1121.41C1177.81 1138.47 1177.06 1155.38 1176.46 1172.45" stroke="#1E0E62" stroke-width="6" stroke-miterlimit="10"/>
<path d="M1181.55 1205.37C1195.47 1202.83 1210.29 1213.75 1211.33 1228.12C1212.83 1246.08 1192.33 1249.22 1178.86 1247.28C1176.01 1246.83 1174.82 1251.17 1177.66 1251.62C1194.12 1254.01 1217.32 1249.37 1215.82 1228.12C1214.63 1210.61 1197.12 1197.89 1180.35 1201.03C1177.51 1201.48 1178.71 1205.82 1181.55 1205.37Z" fill="#1E0E62"/>
<path d="M1178.26 1255.21C1184.1 1256.41 1188.74 1260.6 1190.38 1266.29C1191.13 1269.13 1195.47 1267.93 1194.72 1265.09C1192.78 1257.9 1186.94 1252.22 1179.61 1250.87C1176.61 1250.42 1175.42 1254.61 1178.26 1255.21Z" fill="#1E0E62"/>
<path d="M1176.01 1253.71C1179.61 1258.95 1181.25 1264.79 1180.65 1271.22C1180.5 1274.07 1184.99 1274.07 1185.14 1271.22C1185.59 1264.19 1183.8 1257.31 1179.76 1251.47C1178.26 1249.07 1174.37 1251.32 1176.01 1253.71Z" fill="#1E0E62"/>
<path d="M1102.23 1203.28C1092.35 1196.99 1074.24 1215.1 1072 1223.93C1067.51 1241.89 1090.55 1239.79 1100.13 1245.78C1102.53 1247.28 1104.77 1243.39 1102.38 1241.89C1095.49 1237.55 1085.32 1239.2 1079.33 1233.81C1072 1227.22 1078.73 1219.29 1083.82 1214.65C1086.51 1212.26 1095.64 1204.32 1099.98 1207.02C1102.38 1208.81 1104.77 1204.92 1102.23 1203.28Z" fill="#1E0E62"/>
<path d="M1099.83 1243.69C1095.94 1245.18 1092.35 1247.43 1089.36 1250.57C1087.11 1252.96 1084.27 1256.71 1086.51 1260C1088.16 1262.39 1092.05 1260.15 1090.4 1257.75C1089.36 1256.26 1093.25 1252.96 1094.3 1252.07C1096.24 1250.27 1098.49 1248.92 1101.03 1248.03C1103.73 1246.98 1102.68 1242.64 1099.83 1243.69Z" fill="#1E0E62"/>
<path d="M1098.04 1246.83C1095.19 1251.32 1094.3 1256.41 1095.34 1261.49C1095.94 1264.34 1100.28 1263.14 1099.68 1260.3C1098.79 1256.26 1099.68 1252.51 1101.93 1249.07C1103.58 1246.68 1099.68 1244.43 1098.04 1246.83Z" fill="#1E0E62"/>
<path d="M1112.26 1200.43C1111.51 1211.36 1111.66 1222.43 1112.41 1233.36C1112.71 1236.2 1117.2 1236.2 1116.9 1233.36C1116 1222.43 1116 1211.36 1116.75 1200.43C1117.05 1197.59 1112.56 1197.59 1112.26 1200.43Z" fill="#1E0E62"/>
<path d="M1115.55 1201.63C1131.41 1202.53 1147.13 1203.13 1162.99 1203.43C1162.24 1202.68 1161.5 1201.93 1160.75 1201.18C1160.3 1212.41 1159.85 1223.78 1159.25 1235.01C1159.1 1237.85 1163.59 1237.85 1163.74 1235.01C1164.19 1223.78 1164.64 1212.41 1165.24 1201.18C1165.24 1199.98 1164.19 1198.94 1162.99 1198.94C1147.13 1198.64 1131.41 1198.04 1115.55 1197.14C1112.71 1196.99 1112.71 1201.48 1115.55 1201.63Z" fill="#1E0E62"/>
<path d="M1113.75 1235.3C1120.34 1237.1 1127.67 1236.65 1134.26 1237.1C1142.34 1237.55 1150.57 1238.15 1158.65 1238.6C1161.5 1238.75 1161.5 1234.26 1158.65 1234.11C1151.47 1233.66 1144.28 1233.21 1137.1 1232.76C1129.92 1232.31 1121.83 1232.76 1114.8 1230.96C1112.26 1230.21 1111.06 1234.56 1113.75 1235.3Z" fill="#1E0E62"/>
<path d="M1118.84 1258.5C1121.54 1264.34 1127.37 1259.25 1131.86 1261.35C1133.96 1262.24 1133.51 1263.59 1136.35 1263.74C1139.64 1263.89 1147.73 1257.31 1149.37 1263.44C1149.82 1265.09 1151.92 1265.54 1153.11 1264.49C1154.61 1264.04 1156.26 1263.59 1157.75 1263.29C1159.55 1265.54 1162.84 1262.24 1160.9 1260.15C1157.46 1256.11 1153.11 1258.35 1149.82 1261.35C1151.02 1261.65 1152.37 1261.95 1153.56 1262.39C1152.22 1257.16 1146.68 1253.71 1141.44 1256.11C1138.9 1257.31 1138.6 1259.55 1134.71 1258.05C1133.96 1257.75 1133.66 1256.56 1132.91 1256.26C1131.26 1255.66 1122.58 1256.56 1122.58 1256.41C1121.54 1253.56 1117.64 1255.81 1118.84 1258.5Z" fill="#1E0E62"/>
<path d="M1126.77 1140.72C1127.07 1139.07 1129.02 1138.62 1130.37 1139.22C1132.31 1139.97 1133.36 1142.21 1134.26 1143.86C1135.45 1146.4 1139.35 1144.16 1138.15 1141.61C1136.5 1138.32 1133.96 1134.88 1129.92 1134.43C1126.62 1134.13 1123.18 1136.08 1122.58 1139.37C1121.83 1142.36 1126.18 1143.56 1126.77 1140.72Z" fill="#1E0E62"/>
<path d="M1154.31 1142.81C1154.61 1141.31 1155.96 1140.41 1157.46 1141.01C1159.25 1141.61 1160 1143.86 1160.3 1145.5C1160.75 1148.35 1165.09 1147.15 1164.64 1144.31C1164.04 1140.71 1161.65 1136.97 1157.75 1136.37C1154.31 1135.92 1150.57 1138.02 1149.97 1141.61C1149.52 1144.46 1153.86 1145.65 1154.31 1142.81Z" fill="#1E0E62"/>
<path d="M1129.02 1150.14C1134.11 1159.12 1146.23 1160.47 1152.82 1152.39C1154.61 1150.14 1151.47 1147 1149.67 1149.25C1144.88 1155.08 1136.65 1154.63 1132.91 1147.9C1131.56 1145.36 1127.67 1147.6 1129.02 1150.14Z" fill="#1E0E62"/>
<path d="M972.019 336.861C953.162 329.228 941.787 310.969 934.902 292.71C927.569 273.702 924.426 253.049 925.473 232.694C927.269 195.128 943.284 157.113 972.917 133.166C1000.9 110.417 1042.36 103.982 1073.49 124.636C1105.97 146.187 1111.81 190.638 1112.11 226.408C1112.41 266.219 1103.13 307.976 1073.64 336.562C1071.55 338.508 1074.69 341.8 1076.79 339.705C1104.77 312.466 1115.4 273.553 1116.45 235.538C1117.49 198.271 1113 151.126 1082.32 125.534C1053.59 101.587 1010.93 102.784 980.251 122.241C946.277 143.793 926.222 182.855 921.881 222.217C919.187 246.613 922.181 271.906 931.161 294.955C938.794 314.411 950.917 332.97 970.972 341.052C973.516 342.249 974.564 337.909 972.019 336.861Z" fill="#1E0E62"/>
<path d="M969.924 339.705C964.836 346.889 965.883 357.515 973.366 362.903C979.054 366.944 987.435 367.543 994.17 368.441C1002.25 369.638 1010.48 370.087 1018.72 370.087C1033.38 369.938 1050.14 368.89 1063.76 363.203C1073.64 359.012 1081.13 349.134 1075.89 338.508C1074.69 335.964 1070.8 338.209 1072 340.753C1083.22 363.652 1030.09 365.597 1018.57 365.597C1007.94 365.597 997.313 364.699 986.986 362.754C982.047 361.856 976.509 360.958 973.366 356.617C970.223 352.127 970.822 346.29 973.815 342.1C975.462 339.556 971.57 337.311 969.924 339.705Z" fill="#1E0E62"/>
<path d="M974.713 363.95C974.713 371.434 974.863 379.066 975.761 386.55C976.21 389.992 976.958 392.985 979.802 395.081C983.843 398.074 990.578 397.924 995.367 398.373C1003.45 398.972 1011.68 398.972 1019.76 398.673C1027.4 398.373 1035.03 397.775 1042.66 397.026C1047.15 396.577 1052.24 396.727 1055.68 393.285C1063.32 385.801 1063.47 371.583 1061.52 362.154C1060.92 359.311 1056.58 360.508 1057.18 363.352C1058.23 368.44 1058.53 373.529 1057.48 378.767C1055.98 386.101 1053.89 390.89 1045.65 392.387C1036.08 394.183 1025.3 394.183 1015.57 394.332C1005.99 394.482 995.218 394.931 985.789 392.686C977.108 390.591 979.353 371.134 979.353 363.95C979.203 361.107 974.713 361.107 974.713 363.95Z" fill="#1E0E62"/>
<path d="M976.21 202.762C994.17 213.987 1007.79 230.45 1015.42 250.206C1016.47 252.9 1020.81 251.702 1019.76 249.008C1011.68 228.055 997.463 210.694 978.605 198.87C976.06 197.224 973.815 201.115 976.21 202.762Z" fill="#1E0E62"/>
<path d="M1019.01 250.205C1027.84 231.646 1040.72 215.782 1057.18 203.509C1059.42 201.863 1057.18 197.822 1054.93 199.618C1037.87 212.339 1024.4 228.803 1015.12 247.96C1013.93 250.504 1017.82 252.749 1019.01 250.205Z" fill="#1E0E62"/>
<path d="M1015.42 244.967C1017.67 275.798 1018.72 306.629 1018.27 337.46C1018.27 340.304 1022.76 340.304 1022.76 337.46C1023.2 306.629 1022.16 275.648 1019.91 244.967C1019.61 241.973 1015.12 241.973 1015.42 244.967Z" fill="#1E0E62"/>
<path d="M840.164 320.397C860.07 313.662 879.825 306.927 899.731 300.192C902.425 299.294 901.228 294.954 898.534 295.852C878.628 302.587 858.872 309.322 838.967 316.057C836.123 316.955 837.32 321.295 840.164 320.397Z" fill="#1E0E62"/>
<path d="M862.913 290.464C869.798 288.518 876.683 286.423 883.567 284.477C886.261 283.729 885.213 279.389 882.37 280.137C875.485 282.083 868.601 284.178 861.716 286.124C859.022 287.022 860.07 291.362 862.913 290.464Z" fill="#1E0E62"/>
<path d="M813.075 240.626C839.416 240.327 865.607 241.075 891.799 242.722C894.642 242.871 894.642 238.381 891.799 238.232C865.607 236.585 839.266 235.987 813.075 236.136C810.231 236.136 810.231 240.626 813.075 240.626Z" fill="#1E0E62"/>
<path d="M868.75 220.272C875.036 221.919 881.472 222.667 887.907 222.817C890.751 222.817 890.751 218.327 887.907 218.327C881.771 218.177 875.785 217.429 869.948 215.932C867.104 215.184 865.907 219.524 868.75 220.272Z" fill="#1E0E62"/>
<path d="M859.022 80.9339C882.519 101.139 903.922 123.289 923.228 147.535C925.024 149.78 928.167 146.637 926.371 144.392C907.065 120.146 885.662 97.8461 862.165 77.7909C860.07 75.8453 856.777 78.9883 859.022 80.9339Z" fill="#1E0E62"/>
<path d="M924.725 123.437C928.766 127.627 932.657 131.818 936.698 136.158C938.644 138.253 941.787 135.11 939.841 133.015C935.8 128.824 931.909 124.634 927.868 120.294C925.922 118.198 922.779 121.341 924.725 123.437Z" fill="#1E0E62"/>
<path d="M833.579 131.819C840.912 136.159 848.396 140.2 856.029 143.942C858.573 145.289 860.818 141.397 858.274 140.05C850.641 136.159 843.157 132.118 835.824 127.927C833.279 126.431 831.034 130.322 833.579 131.819Z" fill="#1E0E62"/>
<path d="M1094 97.6966C1116.15 75.5461 1138.3 53.3956 1160.45 31.2451C1162.54 29.1498 1159.25 26.0068 1157.31 28.1021C1135.15 50.2526 1113 72.4031 1090.85 94.5536C1088.76 96.649 1091.9 99.7919 1094 97.6966Z" fill="#1E0E62"/>
<path d="M1116.3 108.023C1121.98 103.832 1127.67 99.7912 1133.36 95.6006C1135.6 93.9543 1133.51 90.063 1131.11 91.7093C1125.43 95.8999 1119.74 99.9409 1114.05 104.132C1111.66 105.778 1113.9 109.669 1116.3 108.023Z" fill="#1E0E62"/>
<path d="M1024.85 68.3611C1029.34 46.6595 1032.78 24.8084 1034.88 2.80754C1035.18 -0.0361067 1030.69 -0.0361067 1030.39 2.80754C1028.29 24.3594 1025 45.9112 1020.51 67.1637C1019.91 70.0074 1024.25 71.2047 1024.85 68.3611Z" fill="#1E0E62"/>
<path d="M1150.72 206.053C1191.43 202.312 1231.99 198.57 1272.7 194.829C1275.54 194.529 1275.54 190.039 1272.7 190.339C1231.99 194.08 1191.43 197.822 1150.72 201.563C1147.88 201.713 1147.73 206.203 1150.72 206.053Z" fill="#1E0E62"/>
<path d="M979.652 345.093C1004.95 350.63 1030.69 350.481 1055.83 344.793C1058.68 344.195 1057.48 339.854 1054.63 340.453C1030.24 345.991 1005.25 346.14 980.85 340.752C978.006 340.154 976.809 344.494 979.652 345.093Z" fill="#1E0E62"/>
<path d="M983.394 383.108C1002.7 385.652 1022.01 386.251 1041.46 384.904C1044.31 384.754 1044.31 380.264 1041.46 380.414C1022.01 381.761 1002.7 381.162 983.394 378.618C980.55 378.319 980.55 382.808 983.394 383.108Z" fill="#1E0E62"/>
<path d="M1122.43 329.977C1152.82 351.379 1183.8 372.033 1215.23 391.938C1217.62 393.435 1219.87 389.543 1217.47 388.047C1186.04 368.141 1155.06 347.487 1124.68 326.085C1122.28 324.439 1120.04 328.33 1122.43 329.977Z" fill="#1E0E62"/>
<path d="M740.038 1382.72C711.601 1417.6 683.314 1452.32 654.878 1487.19C688.253 1604.53 707.111 1635.36 718.336 1633.71C726.418 1632.52 730.309 1615.01 734.65 1595.4C745.426 1546.46 738.99 1504.4 732.405 1478.21C750.365 1458.16 768.175 1437.95 786.135 1417.9C770.719 1406.22 755.453 1394.55 740.038 1382.72Z" fill="#1E0E62" stroke="#1E0E62" stroke-width="2" stroke-miterlimit="10"/>
<path d="M635.122 1203.13C652.932 1216.9 669.994 1211.96 705.315 1217.94C735.398 1223.03 769.223 1234.26 805.142 1256.71C766.828 1301.61 728.514 1349.05 690.499 1399.04C681.369 1411.16 672.239 1423.28 663.409 1435.41C678.076 1438.85 695.737 1444.24 714.894 1452.92C733.602 1461.3 748.868 1470.73 760.991 1479.26C818.014 1429.57 868.9 1381.53 914.248 1336.18C935.202 1315.23 964.835 1283.2 969.475 1237.85C969.774 1235.3 969.774 1233.06 969.774 1230.81C968.727 1155.53 873.988 1101.05 816.367 1081C753.358 1059.15 645 1047.32 614.768 1099.56C596.958 1130.39 607.434 1181.72 635.122 1203.13Z" fill="#EC615B"/>
<path opacity="0.26" d="M745.725 1127.84C744.677 1142.06 742.133 1158.98 736.895 1177.68C733.153 1191 728.663 1202.83 724.173 1212.85C719.234 1214.8 714.445 1216.75 709.506 1218.69C741.684 1231.41 774.012 1244.13 806.19 1256.86C782.243 1284.25 758.147 1312.98 733.901 1342.91C708.907 1373.75 685.11 1403.98 662.511 1433.76C678.525 1439 694.39 1444.24 710.404 1449.33C767.726 1386.17 825.048 1322.86 882.37 1259.7C888.356 1242.49 888.057 1229.02 886.261 1219.59C878.029 1173.49 821.606 1135.93 745.725 1127.84Z" fill="#6D6C6C"/>
<path opacity="0.23" d="M805.891 1256.56C811.129 1264.49 816.218 1272.57 821.456 1280.5C776.856 1334.23 732.255 1387.81 687.655 1441.54C679.723 1439.45 671.641 1437.2 663.708 1435.11C692.294 1395.89 723.126 1355.63 756.501 1315.07C773.114 1294.87 789.577 1275.41 805.891 1256.56Z" fill="#6D6C6C"/>
<path d="M656.973 1325.85C701.124 1333.93 745.426 1341.86 789.577 1349.95C840.613 1461.3 846.3 1497.22 836.722 1503.35C829.837 1507.69 815.469 1496.92 799.455 1484.8C759.344 1454.41 737.044 1418.19 724.921 1393.8C698.281 1390.21 671.64 1386.47 645 1382.87C648.891 1363.87 652.932 1344.86 656.973 1325.85Z" fill="#1E0E62" stroke="#1E0E62" stroke-width="2" stroke-miterlimit="10"/>
<path d="M565.977 1077.86C485.457 1101.5 436.366 1150.59 404.787 1182.92C362.132 1226.77 309.749 1280.5 324.865 1320.16C332.648 1340.37 356.295 1352.79 466.449 1371.95C549.663 1386.47 621.802 1394.25 678.076 1398.59C685.11 1372.85 692.145 1347.25 699.029 1321.51C642.456 1303.25 586.032 1285.14 529.458 1266.88C564.181 1259.55 600.699 1250.87 638.714 1240.24C667.6 1232.16 695.138 1223.78 721.329 1214.95C745.575 1166.01 750.814 1113.18 725.52 1083.24C690.199 1041.34 611.026 1064.54 565.977 1077.86Z" fill="#EC615B"/>
<path opacity="0.29" d="M745.126 1129.64C744.378 1144.46 741.834 1163.46 734.949 1184.42C730.758 1197.14 725.969 1208.21 721.18 1217.34C717.139 1217.64 713.098 1218.09 709.057 1218.39C674.933 1229.62 638.564 1240.24 600.1 1250.12C575.256 1256.56 551.01 1262.09 527.513 1267.18C584.236 1284.99 640.959 1302.65 697.682 1320.46C696.485 1326.6 694.988 1333.04 693.192 1339.77C691.097 1347.55 688.702 1354.74 686.457 1361.32C608.182 1342.02 529.907 1322.71 451.632 1303.4C448.04 1299.06 436.217 1283.35 438.013 1262.54C439.958 1239.94 461.51 1223.93 489.049 1209.26C568.671 1167.06 702.172 1138.47 745.126 1129.64Z" fill="#6D6C6C"/>
<path opacity="0.24" d="M487.252 1270.33C501.471 1269.28 515.839 1268.23 530.057 1267.03C585.882 1285.59 641.707 1304.3 697.533 1322.86C695.138 1331.69 692.743 1340.67 690.349 1349.5C622.7 1323.01 554.901 1296.67 487.252 1270.33Z" fill="#6D6C6C"/>
<path d="M544.874 738.713C567.024 725.692 605.488 707.134 656.674 701.746C735.099 693.514 795.264 721.652 819.061 734.373C814.721 793.192 807.986 840.187 802.598 872.514C796.162 911.128 790.924 932.53 788.529 968.001C785.536 1012.45 789.278 1048.97 792.72 1072.92C766.678 1081 727.316 1089.83 678.825 1088.78C632.129 1087.73 594.413 1077.56 569.12 1068.73C575.855 1015.15 573.61 972.641 570.317 943.755C566.575 911.577 561.487 895.862 555.35 856.949C547.418 806.661 545.323 765.503 544.874 738.713Z" fill="white" stroke="#1E0E62" stroke-width="2" stroke-miterlimit="10"/>
<path opacity="0.14" d="M706.812 719.557C709.955 730.931 713.547 746.646 715.942 765.504C717.588 778.226 724.323 835.847 703.37 911.877C690.498 958.722 676.879 1008.26 632.278 1048.97C617.911 1062.14 603.992 1070.97 593.815 1076.51C616.414 1082.35 645.898 1087.88 680.77 1088.18C726.418 1088.63 764.134 1080.4 790.325 1072.32C788.829 1061.09 786.883 1044.18 786.135 1023.83C785.536 1006.02 785.536 977.58 797.809 897.509C807.537 834.5 814.421 807.41 817.864 750.388C818.313 743.802 818.462 738.265 818.762 734.523C807.836 728.088 793.618 721.053 776.107 715.366C759.943 710.128 745.426 707.434 733.452 706.236C724.772 710.577 715.792 715.067 706.812 719.557Z" fill="#6D6C6C"/>
<path opacity="0.17" d="M814.421 758.92C806.04 806.364 794.965 844.678 786.284 871.319C760.841 949.145 743.031 1001.53 694.988 1039.84C665.205 1063.64 634.224 1073.67 614.318 1078.46C634.523 1084.14 663.109 1089.68 697.682 1088.93C737.493 1088.03 769.671 1079.05 790.774 1071.42C787.931 1053.16 784.638 1025.77 785.536 992.398C786.584 949.145 793.618 923.103 801.4 875.659C805.741 847.821 811.278 808.01 814.421 758.92Z" fill="#6D6C6C"/>
<path d="M543.976 737.965C524.519 751.435 499.525 772.687 477.674 804.267C428.434 875.807 429.781 951.687 431.727 979.675C440.707 1003.77 456.122 1035.35 483.062 1066.33C498.777 1084.44 521.825 1110.48 561.187 1127.25C574.358 1132.93 585.882 1136.08 594.264 1137.87C601.448 1131.44 608.482 1125 615.666 1118.56C592.617 1091.62 569.419 1063.34 546.221 1034.15C528.411 1011.85 511.349 989.702 494.886 967.851C495.484 949.442 499.376 916.067 519.431 881.195C530.805 861.439 544.126 847.071 554.752 837.343C551.16 804.267 547.568 771.191 543.976 737.965Z" fill="white" stroke="#1E0E62" stroke-width="2" stroke-miterlimit="10"/>
<path opacity="0.13" d="M546.82 771.341C503.716 819.982 483.212 866.079 473.035 895.114C455.224 945.402 458.966 971.743 461.66 984.315C463.905 994.193 468.844 1011.11 486.954 1036.85C502.668 1059.15 535.745 1099.11 598.754 1132.03C604.291 1126.65 609.829 1121.41 615.367 1116.02C597.556 1095.97 579.597 1074.86 561.487 1052.86C537.69 1023.98 515.54 995.54 495.036 967.702C495.634 952.586 498.179 931.483 507.009 907.836C520.329 872.365 541.282 849.017 554.303 836.595C551.609 814.894 549.214 793.192 546.82 771.341Z" fill="#6D6C6C"/>
<path opacity="0.16" d="M494.886 969.647C497.58 987.158 503.117 1009.46 514.791 1033.55C540.534 1085.94 580.794 1114.82 601.298 1127.39C605.339 1123.8 609.23 1120.36 613.271 1116.77C573.759 1067.68 534.397 1018.59 494.886 969.647Z" fill="#6D6C6C"/>
<path d="M821.306 735.271C843.157 748.592 871.294 769.395 895.69 800.376C951.066 870.569 949.42 945.103 947.325 972.641C937.147 996.288 919.936 1027.27 889.703 1057.8C872.043 1075.46 846.151 1101.05 801.999 1117.67C787.182 1123.2 774.161 1126.35 764.733 1128.14C756.8 1121.86 748.718 1115.57 740.786 1109.29C766.529 1082.79 792.72 1055.11 818.762 1026.37C838.667 1004.37 857.825 982.669 876.383 961.266C875.635 943.307 871.444 910.53 848.845 876.107C835.973 856.65 821.156 842.582 809.183 833.003C813.374 800.376 817.415 767.899 821.306 735.271Z" fill="white" stroke="#1E0E62" stroke-width="2" stroke-miterlimit="10"/>
<path opacity="0.16" d="M820.259 771.64C839.266 791.545 865.158 823.424 885.363 867.875C894.942 888.977 910.507 923.251 910.806 955.579C911.854 1053.91 772.665 1121.56 764.583 1125.45C756.651 1120.36 748.868 1115.42 740.936 1110.33C785.985 1060.94 830.885 1011.55 875.934 962.164C875.036 946 871.294 915.917 853.335 883.889C838.518 857.548 820.109 840.486 807.986 831.057C812.177 811.301 816.218 791.545 820.259 771.64Z" fill="#6D6C6C"/>
<path opacity="0.12" d="M877.431 962.614C875.186 975.635 871.444 989.853 865.607 1004.52C839.266 1070.97 785.985 1107.34 759.045 1122.91C752.61 1118.72 746.324 1114.52 739.888 1110.33C785.686 1061.09 831.483 1011.85 877.431 962.614Z" fill="#6D6C6C"/>
<path d="M855.729 973.69H487.702V1206.72H855.729V973.69Z" fill="white" stroke="#1E0E62" stroke-width="2" stroke-miterlimit="10"/>
<path d="M666.402 1112.43C646.946 1114.82 637.517 1091.18 642.606 1075.46C647.545 1059.9 665.953 1052.56 680.92 1057.95C695.737 1063.34 702.921 1081.45 697.682 1095.97C691.846 1112.13 671.491 1118.71 656.524 1111.53C653.98 1110.33 651.586 1114.22 654.279 1115.42C667.6 1121.86 683.913 1119.46 694.54 1108.99C704.866 1098.66 706.363 1082.35 699.927 1069.62C685.26 1040.59 639.912 1049.87 636.769 1081.75C635.122 1098.81 647.395 1119.31 666.402 1117.07C669.246 1116.62 669.246 1112.13 666.402 1112.43Z" fill="#1E0E62"/>
<path opacity="0.14" d="M625.843 973.089C675.682 990.45 709.656 1034.9 710.703 1082.64C712.05 1142.51 661.763 1198.78 593.216 1204.47C680.471 1205.22 767.726 1205.97 855.131 1206.72C854.831 1128.59 854.682 1050.47 854.382 972.49C778.203 972.49 702.023 972.79 625.843 973.089Z" fill="#6D6C6C"/>
<path opacity="0.26" d="M855.131 972.342C853.784 1019.94 844.355 1057.05 836.422 1081.45C824.748 1116.92 816.367 1142.81 792.271 1165.71C759.494 1197.14 718.636 1202.98 700.676 1204.47C751.712 1204.92 802.748 1205.37 853.783 1205.97C853.933 1161.52 854.232 1117.07 854.532 1072.47C854.532 1039.09 854.831 1005.72 855.131 972.342Z" fill="#6D6C6C"/>
<path d="M660.865 617.933C652.633 627.96 660.565 640.233 659.069 673.01C658.32 689.323 655.626 702.494 653.531 711.324C660.565 714.617 672.988 719.256 689.002 719.705C708.758 720.154 723.724 714.018 731.058 710.426C727.765 703.841 723.425 693.664 720.731 680.493C713.996 646.968 725.969 631.253 716.091 618.831C704.567 604.463 671.94 604.313 660.865 617.933Z" fill="white" stroke="#8C30F5" stroke-width="2" stroke-miterlimit="10"/>
<path d="M608.631 473.955C599.202 498.2 602.794 520.052 604.89 529.481C603.992 529.63 586.481 533.372 581.691 546.842C576.902 560.461 586.78 579.768 607.434 586.054C614.917 604.313 633.027 639.634 671.191 658.941C677.627 662.084 683.763 664.629 689.9 666.425C695.437 664.329 702.921 661.037 711.452 656.098C738.092 640.682 752.909 621.525 756.351 616.885C762.637 608.504 771.168 595.034 777.155 576.476C780.447 577.074 786.284 577.374 791.972 574.53C804.843 567.945 811.278 547.44 802.299 534.12C794.815 523.045 780.298 522.596 778.502 522.596C780.447 514.813 786.434 486.826 771.318 459.138C753.957 427.259 716.69 410.496 681.668 415.286C629.884 422.021 609.529 471.56 608.631 473.955Z" fill="white" stroke="#8C30F5" stroke-width="2" stroke-miterlimit="10"/>
<path d="M658.919 657.594C668.049 662.982 678.076 671.363 689.301 670.465C698.58 669.717 708.907 664.329 715.941 658.642C718.186 656.846 715.044 653.703 712.799 655.499C706.213 660.737 695.587 666.275 686.906 666.125C677.777 665.975 668.497 658.342 661.014 653.703C658.769 652.206 656.524 656.097 658.919 657.594Z" fill="#8C30F5"/>
<path d="M658.32 659.54C666.851 666.874 676.58 675.105 688.553 674.507C700.227 673.908 711.152 666.125 718.785 657.744C720.731 655.649 717.588 652.506 715.642 654.601C709.057 661.785 699.778 668.819 689.601 669.867C678.376 670.915 669.396 663.282 661.463 656.397C659.368 654.451 656.225 657.594 658.32 659.54Z" fill="#8C30F5"/>
<path d="M664.007 660.436C664.007 660.287 664.007 660.287 664.007 660.436C663.109 659.089 661.463 658.79 660.416 659.838C660.416 659.838 660.416 659.838 660.266 659.987C659.368 660.736 659.368 662.382 660.266 663.13C676.729 678.845 706.962 683.934 718.785 659.838C719.982 657.293 716.241 654.899 714.894 657.593C704.417 679.145 677.926 673.906 663.559 659.987C663.559 661.035 663.559 662.083 663.559 663.13C663.559 663.13 663.558 663.13 663.708 662.981C662.511 662.831 661.314 662.681 660.116 662.532V662.681C661.613 665.076 665.504 662.831 664.007 660.436Z" fill="#8C30F5"/>
<path d="M681.968 521.997C680.022 546.243 681.07 570.339 684.961 594.286C685.11 595.483 686.607 596.232 687.655 595.783C693.492 593.837 697.682 590.395 700.825 585.156C702.322 582.612 698.431 580.367 696.934 582.911C694.39 587.252 691.247 589.796 686.457 591.442C687.355 591.891 688.253 592.49 689.151 592.939C685.26 569.441 684.362 545.645 686.308 521.848C686.757 519.004 682.267 519.004 681.968 521.997Z" fill="#8C30F5"/>
<path d="M655.327 545.795C655.626 547.142 657.871 555.523 655.327 556.87C652.783 558.217 645.599 552.829 643.354 545.795C641.558 539.808 643.054 532.325 645.898 531.726C648.891 530.978 653.531 539.21 655.327 545.795Z" fill="#8C30F5" stroke="#8C30F5" stroke-miterlimit="10"/>
<path d="M732.554 545.795C732.854 547.142 735.099 555.523 732.554 556.87C730.01 558.217 722.826 552.829 720.581 545.795C718.785 539.808 720.282 532.325 723.125 531.726C726.119 530.978 730.758 539.21 732.554 545.795Z" fill="#8C30F5" stroke="#8C30F5" stroke-miterlimit="10"/>
<path d="M676.579 614.041C694.839 621.824 711.452 610.898 724.921 599.075C727.166 597.129 723.874 593.986 721.778 595.932C710.105 606.109 695.138 617.034 678.974 610.15C676.13 609.102 673.885 612.993 676.579 614.041Z" fill="#8C30F5"/>
<path d="M729.262 569.591C732.105 569.591 732.105 565.101 729.262 565.101C726.418 565.101 726.418 569.591 729.262 569.591Z" fill="#8C30F5"/>
<path d="M745.875 561.209C746.024 561.059 746.174 560.91 746.324 560.76C747.222 559.862 747.222 558.515 746.324 557.617C745.426 556.719 744.079 556.719 743.181 557.617C743.031 557.767 742.881 557.916 742.732 558.066C741.834 558.964 741.834 560.311 742.732 561.209C743.63 562.107 744.977 562.107 745.875 561.209Z" fill="#8C30F5"/>
<path d="M740.936 572.135C741.085 572.135 741.235 572.135 741.385 572.135C742.582 572.135 743.63 571.088 743.63 569.89C743.63 568.693 742.582 567.646 741.385 567.646C741.235 567.646 741.085 567.646 740.936 567.646C739.738 567.646 738.691 568.693 738.691 569.89C738.691 571.088 739.589 572.135 740.936 572.135Z" fill="#8C30F5"/>
<path d="M637.666 519.003C643.354 514.214 651.735 514.064 657.422 518.703C659.667 520.499 662.81 517.357 660.565 515.561C652.783 509.275 642.007 509.275 634.374 515.86C632.278 517.656 635.571 520.799 637.666 519.003Z" fill="#8C30F5"/>
<path d="M710.703 517.357C717.139 511.67 726.268 510.622 733.901 514.663C736.446 516.01 738.691 512.119 736.146 510.772C726.717 505.683 715.493 507.03 707.56 514.214C705.315 516.159 708.458 519.302 710.703 517.357Z" fill="#8C30F5"/>
<path d="M638.864 569.141C641.707 569.141 641.707 564.651 638.864 564.651C636.02 564.651 636.02 569.141 638.864 569.141Z" fill="#8C30F5"/>
<path d="M654.728 567.046C657.572 567.046 657.572 562.556 654.728 562.556C651.885 562.556 651.885 567.046 654.728 567.046Z" fill="#8C30F5"/>
<path d="M646.796 570.489C646.646 570.639 646.497 570.788 646.347 570.938C645.449 571.836 645.449 573.183 646.347 574.081C647.245 574.979 648.592 574.979 649.49 574.081C649.64 573.931 649.789 573.782 649.939 573.632C650.837 572.734 650.837 571.387 649.939 570.489C649.041 569.591 647.694 569.591 646.796 570.489Z" fill="#8C30F5"/>
<path d="M633.027 425.313C624.047 430.851 604.441 442.974 591.12 467.818C577.8 492.513 577.95 515.861 578.549 525.889C556.697 565.251 546.819 599.973 542.03 623.62C534.248 661.186 538.438 674.956 543.826 684.085C556.997 706.535 583.487 712.073 589.923 713.42C622.999 720.454 649.34 703.542 655.327 699.65C656.973 694.711 658.62 688.575 659.518 681.691C661.164 669.867 660.266 659.69 658.919 652.356C651.436 646.22 642.755 637.988 634.374 627.212C621.652 610.749 614.468 594.585 610.427 582.911C597.257 581.564 587.379 572.584 586.481 562.557C585.583 553.128 592.168 541.005 600.849 541.005C607.284 541.005 611.924 547.59 612.822 548.788C617.761 545.944 624.645 541.005 630.782 533.222C639.612 521.997 641.109 511.97 645.15 501.493C649.041 491.316 656.524 477.247 672.688 462.58C688.253 468.118 700.676 473.506 709.207 477.547C736.595 490.268 752.161 497.752 764.283 514.065C771.018 523.045 774.461 531.875 776.257 537.413C790.176 526.787 795.863 529.63 797.06 530.229C805.891 535.168 805.591 562.257 791.822 569.741C786.584 572.584 780.597 571.836 776.855 570.938C772.515 586.054 762.936 610.749 740.936 632.6C733.602 639.934 726.119 645.621 719.384 649.961C718.785 655.499 718.486 663.132 719.982 672.112C721.329 680.344 723.724 687.079 725.969 691.868C762.338 715.814 807.537 711.474 832.082 685.732C853.933 662.683 853.933 627.811 845.702 604.014C838.218 582.313 823.701 569.292 816.517 563.604C818.462 555.223 829.238 505.534 797.958 459.886C789.876 448.063 767.277 419.476 726.568 409.599C683.464 399.122 647.993 416.184 633.027 425.313Z" fill="#8C30F5"/>
<path opacity="0.17" d="M727.915 486.826C744.827 508.079 749.317 527.685 750.814 537.862C756.95 580.666 732.105 615.389 719.534 633.199C709.207 647.717 698.58 658.044 690.947 664.779C697.533 682.439 703.968 699.95 710.554 717.61C717.289 715.365 724.023 713.121 730.758 710.876C727.615 705.338 724.323 698.453 721.778 690.072C717.139 675.105 716.84 661.935 717.289 652.955C725.52 647.118 735.099 639.186 744.378 628.709C762.936 607.756 772.216 586.204 777.005 571.687C779.998 572.285 786.434 573.034 792.57 569.591C805.442 562.258 803.346 543.998 803.196 542.801C802.747 538.91 801.85 532.624 797.36 530.08C792.121 527.236 783.441 529.93 776.556 538.012C774.461 530.678 768.474 513.766 752.31 500.296C743.33 492.813 734.201 488.921 727.915 486.826Z" fill="#6D6C6C"/>
<path opacity="0.19" d="M684.063 523.344C683.165 523.194 680.171 536.215 671.042 593.687C676.28 593.687 681.518 593.687 686.757 593.687C685.709 586.054 684.512 574.979 683.913 561.509C683.165 538.46 684.961 523.494 684.063 523.344Z" fill="#6D6C6C"/>
<path opacity="0.54" d="M815.619 565.1C813.074 566.597 822.653 579.468 821.306 598.625C820.857 604.612 819.959 618.231 809.183 627.361C808.435 627.96 792.421 641.13 776.556 632.749C767.127 627.81 761.44 617.333 761.739 605.959C757.249 614.34 749.916 625.415 738.391 636.191C731.207 642.926 724.173 647.865 718.037 651.607C717.588 658.192 717.588 667.172 719.982 677.349C721.329 682.887 722.976 687.676 724.622 691.568C729.262 694.561 736.146 698.602 745.126 701.745C750.814 703.69 782.094 714.616 812.625 699.5C818.013 696.806 829.987 690.67 838.667 677.499C839.715 675.853 843.606 670.016 846.45 660.138C856.627 626.313 841.66 595.782 840.314 593.237C832.082 576.624 818.762 563.304 815.619 565.1Z" fill="#341999"/>
<path opacity="0.35" d="M610.278 583.509C608.931 583.659 611.924 595.931 608.631 608.054C606.237 617.034 598.604 631.701 585.583 634.695C571.963 637.688 555.051 627.66 547.269 608.952C543.677 617.184 538.887 630.354 538.139 647.117C537.69 658.043 537.091 669.716 542.479 681.241C554.602 706.983 590.223 717.011 616.713 714.616C634.374 712.97 647.694 706.085 654.878 701.446C656.674 696.357 658.47 690.221 659.667 683.186C661.613 671.063 661.164 660.437 660.116 652.655C648.293 644.124 640.211 635.293 635.122 628.858C627.938 619.728 618.21 607.456 613.271 590.394C612.523 588.448 611.176 583.359 610.278 583.509Z" fill="#341999"/>
</svg>
