<svg width="1903" height="532" viewBox="0 0 1903 532" fill="none" xmlns="http://www.w3.org/2000/svg">
<path d="M496.44 529.192C496.44 527.646 495.981 526.678 495.421 527.04C494.861 527.402 493.703 525.948 492.848 523.81C491.946 521.555 490.556 519.922 489.536 519.922C488.146 519.922 488.034 519.599 489.001 518.382C489.94 517.199 489.909 516.731 488.867 516.364C487.799 515.989 487.846 515.459 489.085 513.883C490.286 512.355 490.349 511.769 489.348 511.416C488.626 511.162 488.035 510.472 488.035 509.883C488.035 509.294 488.502 509.114 489.073 509.483C489.669 509.867 489.845 509.426 489.486 508.449C489.142 507.512 489.401 506.745 490.061 506.745C490.935 506.745 490.956 506.149 490.136 504.549C489.233 502.785 489.337 502.353 490.666 502.353C492.003 502.353 492.068 502.07 491.004 500.88C489.644 499.359 487.002 500.719 487.347 502.764C487.436 503.293 486.956 503.939 486.279 504.2C485.469 504.512 485.256 503.842 485.656 502.243C485.991 500.907 485.836 500.075 485.311 500.396C484.787 500.717 483.412 500.616 482.256 500.172C480.59 499.531 481.08 499.199 484.62 498.565C487.405 498.068 489.085 497.183 489.085 496.216C489.085 495.363 490.004 494.666 491.127 494.666C492.25 494.666 493.815 493.701 494.606 492.521C496.023 490.406 501.374 487.52 503.109 487.935C503.599 488.053 506.672 487.444 509.938 486.583C513.204 485.721 518.832 484.668 522.444 484.242C526.057 483.817 529.276 483.023 529.598 482.478C529.92 481.934 531.219 481.477 532.485 481.464C533.751 481.45 537.624 479.979 541.091 478.194C544.558 476.409 548.194 474.938 549.171 474.924C550.148 474.91 551.24 474.405 551.597 473.801C551.954 473.197 551.713 472.703 551.06 472.703C549.604 472.703 550.129 467.792 551.597 467.685C552.175 467.643 554.72 466.989 557.254 466.231C559.787 465.473 563.014 465.155 564.424 465.525C565.834 465.895 568.489 465.713 570.323 465.122C572.158 464.53 576.298 463.507 579.522 462.847C588.371 461.037 593.096 459.525 593.096 458.504C593.096 457.445 539.2 458.184 525.857 459.425C518.827 460.079 516.144 459.901 513.249 458.585C511.227 457.666 509.336 456.842 509.047 456.755C508.758 456.668 507.14 456 505.451 455.271C503.763 454.542 501.635 454.249 500.724 454.62C499.812 454.991 485.828 455.472 469.649 455.689C453.47 455.906 438.104 456.575 435.504 457.177C432.904 457.778 425.111 458.844 418.188 459.545C411.264 460.246 404.694 461.326 403.588 461.944C402.483 462.563 399.269 462.837 396.447 462.553C393.625 462.27 391.061 462.469 390.749 462.996C390.438 463.523 389.743 463.67 389.205 463.322C388.667 462.975 388.227 463.214 388.227 463.853C388.227 464.493 387.872 464.918 387.439 464.798C385.691 464.315 376.67 466.313 376.67 467.183C376.67 468.255 368.734 470.037 365.733 469.639C364.629 469.492 362.838 470.369 361.752 471.587C360.667 472.805 358.969 473.86 357.981 473.931C356.992 474.002 353.346 474.167 349.879 474.298C346.412 474.428 341.685 475.105 339.373 475.802C337.062 476.499 333.385 477.348 331.202 477.687C329.019 478.027 327.489 478.738 327.803 479.268C328.78 480.922 326.446 481.355 308.193 482.907C307.223 482.989 306.513 483.525 306.617 484.097C306.72 484.669 305.859 485.428 304.703 485.783C303.547 486.139 301.408 487.278 299.949 488.316C298.041 489.673 294.062 490.4 285.766 490.908C279.424 491.297 273.142 491.563 271.807 491.5C270.471 491.437 267.926 492.17 266.152 493.129C264.319 494.119 262.645 494.438 262.276 493.866C261.372 492.461 257.673 491.112 258.484 492.482C259.337 493.926 258.315 493.852 255.518 492.267C249.872 489.069 223.143 491.5 220.355 495.466C219.492 496.694 219.397 497.522 220.092 497.764C220.69 497.973 221.179 498.581 221.179 499.115C221.179 499.65 220.518 499.822 219.71 499.498C218.901 499.174 217.928 499.436 217.547 500.081C216.528 501.804 222.824 501.554 226.222 499.737C227.782 498.902 231.186 497.856 233.787 497.411C236.387 496.967 239.342 496.443 240.353 496.246C241.364 496.05 242.192 496.537 242.192 497.328C242.192 498.346 243.498 498.66 246.657 498.401C250.108 498.119 250.699 498.292 249.261 499.163C248.238 499.784 247.637 500.691 247.926 501.18C248.55 502.235 242.676 503.296 231.304 504.182C224.919 504.679 222.835 504.482 222.127 503.314C221.463 502.218 221.207 502.18 221.195 503.176C221.172 505.198 214.857 504.871 212.595 502.731C211.538 501.732 210.673 501.382 210.673 501.953C210.673 502.583 207.263 502.695 202.006 502.237C197.239 501.822 189.792 501.21 185.459 500.877C181.125 500.544 176.026 499.697 174.128 498.995C172.23 498.293 169.5 497.954 168.062 498.241C166.624 498.529 165.149 498.259 164.784 497.643C164.377 496.954 164.652 496.865 165.497 497.411C166.352 497.964 166.617 497.868 166.197 497.158C165.406 495.82 160.396 494.608 154.465 494.321C150.967 494.151 150.244 493.721 150.149 491.757C150.047 489.648 150.772 489.308 156.978 488.557C160.797 488.094 165.103 487.822 166.548 487.953L169.174 488.191L166.386 486.607C161.552 483.86 156.839 482.701 147.637 481.997C142.725 481.621 135.633 480.506 131.877 479.52C123.239 477.251 93.2637 477.077 91.9564 479.288C91.5065 480.049 90.5823 480.312 89.9026 479.873C88.1473 478.739 68.8134 478.358 69.471 479.47C70.0862 480.51 69.9296 480.528 56.1859 480.964C46.4857 481.271 42.3912 481.647 27.8668 483.559C21.244 484.43 17.3718 483.931 13.5866 481.717C12.0014 480.79 12.343 480.262 16.1606 477.743C19.2398 475.712 23.0016 474.517 28.6798 473.766C38.3698 472.486 47.6153 470.873 54.2764 469.301C58.2608 468.361 59.0555 467.779 58.638 466.111C58.3383 464.913 57.5194 464.314 56.6551 464.661C55.8453 464.986 55.1827 464.704 55.1827 464.036C55.1827 463.367 56.01 462.813 57.0213 462.803C58.5925 462.789 58.6307 462.632 57.2839 461.722C56.2872 461.049 56.1786 460.651 56.9883 460.641C57.6944 460.631 57.9964 459.883 57.6616 458.971C57.2393 457.82 58.2875 456.745 61.1091 455.434L65.1635 453.551L54.8984 452.889C49.2526 452.525 41.8064 452.277 38.3512 452.338C34.8961 452.399 32.0692 452.388 32.0692 452.312C32.0692 452.237 33.0148 451.035 34.1704 449.643C35.3261 448.25 36.2717 447.444 36.2717 447.853C36.2717 448.261 37.3363 447.867 38.6375 446.975C39.9387 446.084 44.5082 444.786 48.7919 444.092C53.0756 443.397 58.4529 442.138 60.7414 441.294C63.03 440.45 66.6159 439.742 68.7101 439.72C74.561 439.66 89.2993 435.655 85.0376 435.283C84.5079 435.237 83.129 434.972 81.9733 434.694C80.8176 434.416 79.2948 434.056 78.5892 433.894C76.1855 433.344 76.032 432.275 78.2508 431.539C79.4687 431.135 81.7008 429.607 83.2112 428.144C84.7215 426.681 87.0123 425.484 88.3018 425.484C89.5912 425.484 91.1856 424.805 91.8448 423.974C92.8298 422.734 91.9636 422.336 86.983 421.743C83.6498 421.347 79.5043 420.782 77.7708 420.49C73.6467 419.794 57.2359 419.895 56.1087 420.623C54.5881 421.605 42.5754 422.068 42.5754 421.145C42.5754 420.659 43.2845 419.647 44.1513 418.895C45.018 418.143 45.7272 417.012 45.7272 416.381C45.7272 415.751 45.4161 415.56 45.0359 415.957C44.6557 416.355 43.7101 416.129 42.9347 415.457C42.154 414.78 41.5248 414.702 41.5248 415.283C41.5248 415.861 40.8156 416.333 39.9488 416.333C37.4257 416.333 38.1178 415.157 41.5851 413.553C45.4843 411.749 44.926 410.992 38.6398 409.561C32.9054 408.256 31.8122 406.21 35.9236 404.478C40.1785 402.686 60.169 400.359 71.5965 400.326C76.9529 400.31 82.5896 399.97 84.1225 399.567L86.9095 398.836L83.9161 396.277C82.2697 394.869 80.1232 393.7 79.1461 393.678C76.6558 393.623 75.8989 391.876 77.2347 389.267C78.6452 386.512 87.784 381.559 91.4559 381.559C93.004 381.559 93.8991 381.085 93.53 380.461C93.1729 379.857 92.0137 379.363 90.9539 379.363C89.174 379.363 87.1949 376.621 87.5849 374.696C87.9813 372.738 71.3121 374.927 69.9171 377.016C68.8517 378.611 42.0237 382.779 39.3863 381.76L36.8748 380.788L39.3179 379.422C40.6615 378.67 49.3904 376.726 58.7153 375.101C75.7787 372.128 79.9316 370.029 68.7504 370.029C65.3148 370.029 62.1542 369.402 61.1267 368.516C59.6673 367.258 57.6466 367.223 49.1349 368.309C33.4836 370.307 24.3876 371.679 22.2545 372.365C20.8413 372.819 20.4162 372.493 20.6786 371.158C21.0609 369.212 24.3114 366.928 29.4071 365.026C33.7933 363.389 31.0668 361.945 25.4586 362.936C23.0272 363.365 18.9103 364.064 16.3101 364.49L11.5823 365.263L15.5221 361.317C17.689 359.147 19.4619 357.194 19.4619 356.978C19.4619 356.763 16.5302 356.239 12.947 355.816C4.47501 354.814 -0.0581258 352.331 0.000562748 348.726C0.0313913 346.825 6.8281 344.274 13.1523 343.79C15.7558 343.591 21.6682 342.643 26.2909 341.683C30.9136 340.724 38.0058 339.716 42.0513 339.444C46.0969 339.173 52.243 338.43 55.7093 337.794C77.237 333.842 82.0822 332.87 83.0101 332.314C83.5803 331.972 81.9256 331.153 79.3329 330.493C76.7239 329.829 74.619 328.649 74.619 327.851C74.619 326.003 85.2081 321.989 94.8184 320.194C99.4934 319.321 102.952 318.022 104.085 316.714C105.098 315.543 108.615 314.067 112.095 313.351C119.99 311.728 119.777 310.188 111.198 306.875C109.359 306.165 108.068 305.012 108.328 304.313C108.921 302.723 113.79 300.298 116.39 300.298C117.464 300.298 118.051 299.804 117.694 299.2C117.337 298.596 113.527 298.102 109.227 298.102C102.143 298.102 99.2983 296.979 102.723 295.535C105.783 294.244 90.4504 294.943 82.8773 296.439C73.4466 298.302 68.3153 297.522 68.3153 294.226C68.3153 292.706 71.0596 290.71 78.6277 286.727C85.7571 282.975 88.5135 281.012 87.5579 280.367C85.7429 279.142 87.5343 277.889 94.5807 275.456C104.527 272.023 112.417 266.267 111.381 263.201C110.673 261.107 114.55 259.965 130.566 257.549C138.527 256.348 146.499 254.604 148.282 253.674C150.066 252.744 153.841 251.693 156.672 251.339C164.479 250.361 179.416 246.411 181.753 244.707C182.892 243.876 185.256 243.161 187.006 243.119C188.755 243.076 191.132 242.617 192.288 242.098C193.961 241.346 193.533 241.121 190.186 240.992C181.231 240.647 176.48 239.725 175.292 238.1C174.482 236.99 173.216 236.649 171.615 237.109C169.515 237.712 169.433 237.64 171.032 236.594C172.053 235.925 173.708 235.518 174.709 235.69C175.71 235.862 177.164 235.587 177.942 235.077C178.778 234.53 180.413 234.744 181.946 235.601C183.966 236.731 184.976 236.764 186.525 235.753C187.783 234.932 188.747 234.851 189.149 235.531C189.499 236.123 192.476 236.625 195.764 236.646C199.052 236.667 202.925 237.391 204.37 238.254C207.517 240.135 208.572 240.273 208.572 238.803C208.572 238.199 207.835 237.705 206.934 237.705C206.033 237.705 205.555 237.267 205.872 236.732C206.188 236.197 205.457 235.488 204.247 235.157C203.037 234.827 202.252 233.906 202.503 233.111C202.967 231.644 207.673 230.785 222.23 229.508C235.381 228.355 239.04 227.735 239.04 226.657C239.04 226.09 238.331 225.626 237.464 225.626C236.588 225.626 235.888 224.65 235.888 223.43C235.888 221.819 236.588 221.233 238.514 221.233C241.537 221.233 242.052 219.542 239.262 218.78C238.229 218.497 232.91 218.53 227.443 218.853C211.519 219.792 205.15 219.479 201.818 217.595C200.126 216.638 198.439 216.051 198.069 216.29C197.698 216.529 197.591 215.334 197.83 213.634C198.351 209.924 196.873 209.345 186.086 209.035C179.629 208.849 179.128 208.682 181.372 207.467C185.063 205.467 198.603 202.598 206.678 202.104C210.804 201.851 214.702 200.95 216.104 199.923C219.089 197.738 220.887 197.711 222.905 199.82C223.813 200.769 226.343 201.457 228.871 201.443C236.658 201.401 265.711 198.313 269.656 197.108C273.339 195.983 273.451 195.801 272.674 192.199C272.184 189.93 272.294 188.012 272.954 187.323C273.703 186.54 273.671 185.72 272.85 184.686C270.34 181.525 273.533 180.871 288.865 181.404C300.778 181.818 304.495 181.591 306.912 180.302C309.47 178.939 321.001 177.059 328.867 176.722C330.023 176.673 333.332 176.19 336.221 175.65L341.474 174.669L336.747 173.87C334.146 173.431 326.346 173.323 319.412 173.631C312.478 173.939 302.549 174.125 297.349 174.045C292.148 173.965 281.984 174.704 274.761 175.688C260.469 177.634 245.73 178.996 239.385 178.956C237.173 178.942 235.066 179.362 234.703 179.889C234.34 180.417 232.567 180.911 230.763 180.988C228.959 181.066 227.483 181.538 227.483 182.038C227.483 182.538 226.419 182.634 225.119 182.252C223.269 181.708 223.098 181.807 224.331 182.71C225.69 183.704 225.654 183.866 224.069 183.88C223.057 183.89 222.23 184.448 222.23 185.122C222.23 185.873 221.231 185.662 219.64 184.572C216.764 182.603 215.504 182.294 216.378 183.772C216.694 184.308 216.013 185.003 214.864 185.317C213.668 185.644 212.774 185.345 212.774 184.618C212.774 183.883 211.115 183.348 208.834 183.348C206.33 183.348 204.985 183.829 205.141 184.668C205.31 185.577 204.178 185.827 201.509 185.469C197.136 184.884 192.821 182.326 192.797 180.303C192.785 179.438 192.416 179.546 191.762 180.603C190.972 181.881 190.74 181.558 190.728 179.158C190.707 175.197 192.438 171.818 194.488 171.818C195.368 171.818 195.796 171.324 195.439 170.72C195.082 170.116 195.645 169.584 196.691 169.538C200.153 169.384 202.352 168.719 204.692 167.116C206.791 165.678 211.724 166.232 211.724 167.905C211.724 168.207 211.09 168.2 210.316 167.889C209.542 167.578 208.242 168.183 207.427 169.232C206.15 170.876 206.152 171.01 207.438 170.2C208.586 169.477 208.76 169.725 208.191 171.274C207.749 172.479 207.993 173.648 208.8 174.183C210.81 175.516 212.503 175.265 210.674 173.905C209.489 173.023 210.097 172.878 213.134 173.32C215.365 173.645 218.027 173.347 219.089 172.653C220.543 171.704 221.384 171.724 222.548 172.734C223.789 173.811 224.245 173.691 224.902 172.119C225.35 171.047 225.642 169.799 225.55 169.346C225.458 168.893 226.053 168.522 226.871 168.522C227.69 168.522 228.54 167.957 228.76 167.266C228.981 166.576 230.548 165.856 232.243 165.667C233.938 165.478 235.853 164.568 236.499 163.645C237.145 162.723 238.056 162.331 238.524 162.774C238.993 163.218 239.079 162.716 238.716 161.659C237.904 159.293 239.913 159.072 240.78 161.432C241.33 162.932 241.629 162.912 243.373 161.262C245.236 159.5 245.346 159.512 245.361 161.489C245.374 163.241 245.542 163.313 246.395 161.933C247.914 159.478 247.697 158.943 244.885 158.205C243.102 157.737 242.375 156.831 242.491 155.221C242.676 152.657 246.335 150.739 250.552 150.998C254.482 151.24 257.952 149.827 257.952 147.984C257.952 146.798 258.996 146.45 261.892 146.671C266.126 146.994 273.25 145.758 275.812 144.256C277.085 143.51 276.984 143.316 275.287 143.247C274.131 143.2 270.822 142.93 267.933 142.647C258.999 141.771 247.116 141.799 242.829 142.705C239.886 143.327 238.943 143.222 239.469 142.332C239.921 141.568 239.637 141.321 238.726 141.686C237.861 142.033 236.467 141.028 235.358 139.259C234.004 137.1 233.827 136.114 234.733 135.798C235.584 135.502 235.379 134.847 234.106 133.804C232.38 132.388 232.491 132.301 235.364 132.823C237.097 133.138 237.925 133.104 237.202 132.748C234.542 131.437 236.007 130.088 240.091 130.088C242.744 130.088 244.3 130.594 244.31 131.461C244.321 132.471 244.565 132.44 245.229 131.343C245.797 130.407 246.378 130.269 246.793 130.971C247.498 132.164 248.836 132.071 252.12 130.602C253.246 130.098 255.721 129.653 257.62 129.612C261.974 129.52 263.388 126.794 259.082 126.794C257.379 126.794 255.813 126.08 255.471 125.146C255.062 124.035 255.522 123.499 256.882 123.499C257.991 123.499 259.276 122.882 259.738 122.127C260.943 120.158 265.224 117.826 266.327 118.538C266.841 118.871 267.559 118.641 267.922 118.027C268.285 117.413 269.886 116.91 271.481 116.91C273.075 116.91 276.948 116.108 280.087 115.127C285.04 113.579 285.486 113.223 283.462 112.43C282.18 111.927 273.407 111.583 263.967 111.665C254.528 111.747 246.187 111.415 245.432 110.927C244.65 110.422 243.749 110.564 243.34 111.256C242.496 112.684 209.836 113.766 209.024 112.393C208.739 111.911 207.772 111.81 206.875 112.17C205.771 112.613 205.626 113.07 206.425 113.586C207.074 114.005 206.168 114.348 204.412 114.348C202.656 114.348 201.219 113.876 201.219 113.299C201.219 112.721 200.498 112.874 199.617 113.638C198.737 114.402 197.68 114.676 197.269 114.247C196.858 113.817 197.697 112.531 199.133 111.389L201.744 109.311L199.117 109.839C196.816 110.302 196.751 110.238 198.592 109.323C201.622 107.819 206.602 107.974 209.521 109.665C212.366 111.313 215.927 110.77 215.927 108.688C215.927 107.73 218.002 107.299 222.756 107.271C227.041 107.246 229.585 107.68 229.585 108.437C229.585 109.101 230.176 108.834 230.898 107.844C231.847 106.544 234.692 105.849 241.142 105.34C246.054 104.952 253.056 103.938 256.704 103.086C260.351 102.234 264.842 101.489 266.684 101.431C268.527 101.373 272.398 100.651 275.287 99.8266C280.213 98.4206 279.656 98.3645 266.357 98.9262C258.556 99.2557 251.464 99.5334 250.597 99.5433C249.731 99.5532 238.857 100.72 226.433 102.135C214.01 103.551 200.465 104.86 196.335 105.045C192.204 105.229 189.041 105.751 189.305 106.204C189.57 106.657 187.749 107.029 185.259 107.032C182.769 107.032 176.477 107.752 171.276 108.627C162.358 110.127 141.381 111.675 144.23 110.622C144.955 110.354 145.282 109.682 144.955 109.13C144.629 108.578 145.69 108.102 147.313 108.073C148.936 108.045 151.919 107.082 153.941 105.936C155.964 104.79 158.564 103.392 159.72 102.829C163.518 100.977 225.482 90.2626 240.091 88.9311C244.425 88.5361 256.954 87.2339 267.933 86.0377C278.911 84.8413 293.402 83.3831 300.134 82.797C306.866 82.2108 314.649 81.0157 317.429 80.1412C321.082 78.9924 322.686 78.891 323.209 79.7762C323.873 80.8985 334.926 80.5912 348.304 79.0786C350.327 78.8499 356.709 78.3541 362.488 77.9767C372.856 77.2997 388.653 75.0218 397.495 72.9288C399.992 72.3378 402.477 72.1401 403.018 72.4895C403.559 72.8389 410.879 72.0358 419.284 70.7049C431.721 68.7357 435.015 68.5355 436.971 69.63C438.939 70.7304 441.458 70.5457 450.836 68.6142C466.446 65.3988 486.815 61.2187 496.966 59.1475C501.589 58.2043 508.305 56.7316 511.89 55.8751C515.476 55.0185 519.968 54.3201 521.871 54.323C523.775 54.323 527.46 53.6169 530.06 52.747C534.442 51.2812 543.415 49.6539 567.357 45.9827C579.657 44.0967 582.135 43.6613 594.673 41.1841C600.451 40.0424 609.907 38.2928 615.685 37.2959C621.463 36.299 627.61 35.2383 629.343 34.9388C641.61 32.8198 643.946 32.8592 646.386 35.2264C647.702 36.5036 648.779 38.1096 648.779 38.7953C648.779 39.481 649.134 39.9834 649.567 39.9119C650.001 39.8411 651.436 39.8411 652.756 39.9119C654.764 40.0205 654.985 40.3779 654.106 42.0938C652.82 44.6057 653.849 45.9606 655.774 44.2905C657.941 42.4114 657.447 44.1016 654.955 47.0976C653.648 48.6691 651.022 50.0781 648.606 50.5048C645.078 51.1278 644.675 51.4712 645.805 52.8939C647.5 55.0291 646.068 55.1616 713.392 46.6472C718.015 46.0625 726.288 45.3472 731.778 45.0576C737.267 44.768 747.195 44.0108 753.841 43.3751C760.486 42.7394 769.232 42.0235 773.277 41.7842C777.322 41.545 782.501 40.8373 784.786 40.2115C787.071 39.5858 796.136 39.0434 804.93 39.0063C813.725 38.9693 821.547 38.7186 822.313 38.4494C824.204 37.7852 848.823 36.4371 854.681 36.6771C857.271 36.7835 860.114 37.5538 860.998 38.3897C862.978 40.2626 868.02 40.4503 891.471 39.5244C902.25 39.0986 912.15 38.1307 915.401 37.1846C919.642 35.9499 926.677 35.612 945.343 35.7462C958.762 35.8433 981.088 35.5487 994.956 35.0931C1023.06 34.1695 1021.56 34.1591 1050.64 35.4786C1069.47 36.3328 1080.33 36.3683 1096.87 35.6295C1099.75 35.5004 1101.29 35.1688 1100.28 34.8926C1099.27 34.6165 1098.44 33.8738 1098.44 33.2425C1098.44 32.4853 1101.39 32.3123 1107.11 32.7343C1111.88 33.0862 1126.18 33.8748 1138.89 34.4869C1151.6 35.099 1167.91 36.1068 1175.14 36.7263C1204.15 39.2156 1215.22 40.0929 1230.29 41.0985C1267.99 43.6137 1287.86 44.6159 1308.56 45.0465C1318.1 45.2448 1329.92 45.7437 1334.83 46.1551C1339.74 46.5666 1347.07 46.8589 1351.11 46.8047C1355.16 46.7514 1363.2 47.1922 1368.97 47.7863C1374.75 48.3804 1393.47 49.084 1410.56 49.35C1427.65 49.616 1443.73 50.3153 1446.28 50.904C1448.83 51.4926 1454.64 52.2419 1459.18 52.569C1463.72 52.8961 1468.92 53.418 1470.73 53.7287C1476.94 54.7911 1486.64 55.5134 1500.83 55.97C1513.31 56.372 1525.45 57.3369 1543.38 59.3535C1546.26 59.6784 1550.28 60.0822 1552.31 60.2507C1554.33 60.4193 1559.53 60.8743 1563.86 61.262C1568.2 61.6497 1575.52 62.2692 1580.15 62.6387C1584.77 63.0081 1588.79 63.4626 1589.08 63.6487C1589.37 63.8349 1592.29 64.2855 1595.58 64.6508C1598.86 65.0159 1602.24 65.5924 1603.09 65.9319C1603.94 66.2714 1608.81 66.6963 1613.93 66.8762C1627.97 67.3703 1627.95 67.3673 1627.95 69.1422C1627.95 70.0482 1628.45 70.7894 1629.06 70.7894C1629.67 70.7894 1629.83 70.2113 1629.42 69.5047C1628.9 68.6287 1629.24 68.454 1630.49 68.9556C1631.5 69.3603 1633.37 69.6913 1634.64 69.6913C1636.2 69.6913 1637.01 70.4052 1637.12 71.8876C1637.31 74.5127 1636.74 74.6386 1634.63 72.4366C1632.43 70.1381 1629.97 70.3104 1630.71 72.7112C1631.07 73.8936 1630.96 74.1608 1630.41 73.4056C1629.81 72.5693 1626.85 72.4123 1621.12 72.9127C1611.26 73.7741 1603.82 73.537 1590.13 71.9255C1584.64 71.2794 1577.55 70.485 1574.37 70.1601C1571.19 69.8354 1568.04 69.3813 1567.36 69.1507C1566.69 68.9204 1565.86 69.4813 1565.53 70.3971C1565.07 71.6306 1564.08 71.8699 1561.68 71.3198C1557.92 70.4558 1555.5 70.1273 1545.48 69.1192C1541.43 68.7122 1537.84 68.1975 1537.49 67.9754C1536.76 67.5021 1522.71 67.4243 1503.45 67.787C1491.24 68.017 1482.62 67.3884 1476.2 65.798C1472.58 64.9018 1447.24 64.5141 1447.24 65.355C1447.24 65.7874 1450.44 66.4981 1454.34 66.9345C1458.24 67.3709 1462.37 67.9228 1463.53 68.1611C1471.64 69.8323 1493.35 71.7054 1510.81 72.2399C1514.85 72.3638 1518.66 72.7997 1519.27 73.2085C1520.29 73.8885 1552.46 76.5106 1554.18 76.0542C1554.6 75.9454 1558.48 76.2022 1562.81 76.6248C1569.51 77.2779 1586.62 78.5924 1590.92 78.7838C1592.47 78.8528 1592.65 80.2704 1591.23 81.1906C1590.2 81.851 1582.28 82.0035 1575.12 81.5007C1572.93 81.3472 1570.75 80.5712 1570.28 79.7762C1569.65 78.7009 1567.84 78.5213 1563.23 79.0749C1559.82 79.4842 1556.72 80.0155 1556.33 80.2558C1555.94 80.4962 1554.91 79.9432 1554.03 79.027C1553.16 78.111 1552.19 77.7845 1551.88 78.3017C1551.29 79.3053 1530.09 78.8778 1523.94 77.7385C1521.92 77.3635 1518.35 76.9548 1516.02 76.8303C1513.68 76.7058 1510.73 76.0195 1509.45 75.3052C1507.59 74.2669 1507.13 74.3005 1507.13 75.4729C1507.13 76.3359 1505.72 77.0576 1503.71 77.2271C1495.41 77.9278 1483.78 77.8613 1474.56 77.0606C1467.93 76.4848 1465.1 76.5568 1466.13 77.2756C1470.27 80.1739 1462.5 81.6033 1450.4 80.1691C1439.67 78.8976 1437.75 78.8307 1433.12 79.5661C1430.72 79.9455 1427.37 79.8646 1425.66 79.3861C1421.16 78.126 1397.77 75.8945 1387.36 75.7316C1382.45 75.6549 1375.36 75.254 1371.6 74.8412C1367.84 74.4283 1360.28 73.8368 1354.79 73.5268C1349.3 73.2168 1336.3 72.2366 1325.9 71.3487C1315.5 70.4607 1300.03 69.402 1291.52 68.9962C1277.66 68.3349 1275.98 68.4481 1275.38 70.0872C1274.81 71.6461 1272.98 71.909 1263.01 71.8692C1256.57 71.8439 1249.18 72.2232 1246.58 72.7131L1241.85 73.604L1249.73 74.8284C1254.06 75.5018 1259.26 76.0394 1261.29 76.0228C1263.31 76.0049 1271.58 76.7579 1279.67 77.6931C1287.76 78.6283 1303.13 79.9453 1313.82 80.6196C1324.51 81.2938 1334.3 82.082 1335.59 82.3711C1336.88 82.6603 1347.51 83.3779 1359.23 83.9658C1380.29 85.0225 1395.04 85.8849 1406.27 86.7155C1409.45 86.9505 1420.35 87.6432 1430.5 88.255C1440.65 88.8666 1449.63 89.5872 1450.46 89.8561C1451.29 90.125 1452.92 90.7188 1454.07 91.1756C1455.23 91.6324 1457.99 92.1431 1460.21 92.311C1462.43 92.4788 1464.8 93.3994 1465.47 94.357C1466.44 95.7397 1469.18 96.1566 1478.77 96.382C1485.41 96.5381 1491.32 96.9699 1491.9 97.3411C1492.47 97.7124 1496.49 98.3062 1500.83 98.6606C1521.54 100.355 1542.25 101.731 1551.78 102.046C1557.56 102.238 1569.85 103.257 1579.1 104.312C1588.34 105.366 1600.16 106.393 1605.36 106.594C1641.36 107.981 1670.1 109.729 1685.21 111.447C1690.41 112.039 1699.52 112.841 1705.46 113.229C1711.41 113.617 1716.52 114.358 1716.82 114.874C1717.13 115.39 1715.81 115.853 1713.9 115.902C1711.99 115.951 1709.09 116.092 1707.46 116.216C1705.83 116.34 1704.29 116.094 1704.03 115.669C1703.78 115.244 1701.83 115.401 1699.7 116.017C1697.53 116.642 1692.77 116.817 1688.93 116.412C1685.15 116.013 1665.04 115.494 1644.23 115.257C1623.43 115.021 1598.61 114.508 1589.08 114.118C1572.08 113.423 1567.27 113.848 1578.42 115.06C1581.51 115.396 1584.27 115.91 1584.55 116.202C1585.3 116.985 1581.45 118.923 1578.27 119.369C1574.55 119.888 1573.38 121.279 1576.56 121.399C1577.95 121.451 1585.24 121.954 1592.75 122.517C1600.27 123.08 1615.04 123.833 1625.59 124.19C1642.92 124.776 1644.76 125.023 1644.76 126.763C1644.76 129.178 1648.99 129.75 1674.48 130.776C1684.76 131.191 1693.41 131.946 1693.71 132.456C1694.02 132.966 1696.33 133.383 1698.87 133.383C1707.5 133.383 1705.08 136.415 1694.48 138.885C1691.48 139.583 1687.46 140.062 1685.55 139.951C1672.75 139.21 1676.11 141.372 1690.46 143.118C1696.24 143.82 1704.28 144.635 1708.32 144.927C1712.37 145.22 1719.69 145.952 1724.61 146.554C1729.52 147.156 1739.45 147.974 1746.67 148.372C1755.56 148.863 1760.14 149.561 1760.85 150.535C1761.43 151.333 1765.18 152.293 1769.26 152.689C1773.3 153.083 1777.08 154.008 1777.66 154.745C1778.24 155.483 1782.17 156.419 1786.39 156.827C1790.61 157.234 1795.12 158.293 1796.41 159.18C1797.9 160.197 1802.44 160.972 1808.7 161.276C1822.2 161.933 1832.78 163.17 1833.36 164.162C1833.98 165.204 1824.78 166.692 1823.37 165.779C1822.79 165.405 1822.31 165.567 1822.31 166.139C1822.31 166.712 1823.97 167.505 1825.99 167.901C1829.98 168.684 1830.74 170.05 1827.83 171.229C1824.4 172.62 1829.2 174.823 1840 176.811C1849.07 178.48 1854.81 180.544 1850.63 180.635C1846.7 180.721 1852.76 182.657 1859.07 183.332C1862.82 183.733 1866.44 184.537 1867.11 185.12C1867.78 185.702 1871.32 186.683 1874.97 187.298C1885.13 189.007 1885.02 190.38 1874.66 191.231C1870.79 191.549 1867.25 192.491 1866.19 193.487C1864.69 194.884 1862.87 195.051 1856.21 194.4C1842.66 193.078 1839.98 193.335 1837.94 196.153C1836.95 197.531 1836.34 199.005 1836.59 199.428C1836.84 199.85 1840.23 200.542 1844.12 200.964C1848.02 201.387 1851.68 202.121 1852.26 202.595C1852.83 203.069 1855.55 203.806 1858.3 204.233C1865.83 205.405 1864.28 206.957 1855.58 206.957C1851.34 206.957 1847.52 207.327 1847.08 207.78C1846.65 208.233 1842.24 208.604 1837.29 208.604C1831.03 208.604 1828.15 209.022 1827.84 209.977C1827.53 210.917 1828.66 211.351 1831.42 211.355C1833.63 211.357 1837.1 211.815 1839.12 212.369C1841.15 212.923 1846.8 213.689 1851.69 214.071C1856.58 214.453 1861.12 215.228 1861.77 215.793C1862.42 216.358 1863.23 216.533 1863.57 216.181C1863.9 215.829 1865.28 215.952 1866.62 216.454C1868.51 217.158 1867.39 217.525 1861.71 218.065C1855.01 218.703 1847.37 220.305 1843.33 221.921C1840.76 222.946 1844.75 224.073 1856.72 225.704C1862.64 226.511 1867.49 227.465 1867.49 227.823C1867.49 228.181 1870.56 228.27 1874.32 228.02C1879.81 227.655 1881.15 227.88 1881.15 229.17C1881.15 231.161 1877.82 234.416 1875.81 234.393C1874.58 234.379 1874.59 234.192 1875.89 233.312C1877.23 232.406 1877.19 232.245 1875.6 232.23C1874.57 232.221 1873.44 232.981 1873.1 233.918C1872.57 235.37 1870.67 235.537 1860.26 235.048C1847.23 234.435 1844.02 235.161 1846.42 238.186C1850.45 243.253 1866.85 248.685 1878.13 248.685C1884.94 248.685 1888.5 250.017 1888.5 252.568C1888.5 253.844 1886.82 254.171 1880.36 254.15C1875.88 254.136 1870.33 253.603 1868.01 252.967C1865.7 252.331 1854.81 251.587 1843.81 251.313C1824.36 250.829 1823.81 250.876 1823.66 253.023C1823.5 255.135 1824.79 256.656 1827.04 257.037C1827.62 257.135 1832.15 258.015 1837.11 258.992C1853.35 262.19 1867.77 264.138 1882.53 265.128C1896.2 266.045 1900.86 267.303 1899.45 269.692C1899.13 270.238 1898.41 270.392 1897.86 270.035C1897.31 269.678 1896.98 270.041 1897.14 270.841C1897.3 271.645 1896.61 272.228 1895.6 272.145C1894.6 272.062 1894 272.378 1894.28 272.848C1894.56 273.317 1893.18 274.016 1891.22 274.401C1886.98 275.232 1885.97 277.212 1888.15 280.452C1889.3 282.179 1889.43 283.209 1888.6 284.248C1887.25 285.953 1888.13 287.12 1890.78 287.12C1891.84 287.12 1892.7 287.326 1892.7 287.579C1892.7 287.832 1893.02 288.893 1893.4 289.938C1894.04 291.683 1893.34 291.778 1884.73 291.109C1879.58 290.709 1873.59 290.087 1871.43 289.728C1868.29 289.209 1867.49 289.425 1867.49 290.788C1867.49 291.731 1866.73 292.947 1865.79 293.492C1863.39 294.899 1864.83 301.226 1867.85 302.498C1870.01 303.407 1870.01 303.459 1868.01 303.599C1865.91 303.746 1865.91 303.746 1868.01 304.69C1870.06 305.61 1867.2 306.004 1856.46 306.278C1851.98 306.392 1848.58 307.871 1848.58 309.705C1848.58 310.686 1847.49 311.284 1845.69 311.293C1844.1 311.303 1841.72 311.609 1840.41 311.977C1838.17 312.605 1838.14 312.738 1839.89 314.124C1840.91 314.936 1843.04 315.617 1844.62 315.636C1846.2 315.656 1850.62 317.4 1854.43 319.514C1858.27 321.646 1862.89 323.358 1864.79 323.358C1871.16 323.358 1881.09 324.756 1880.6 325.583C1880.34 326.035 1880.92 326.336 1881.91 326.254C1882.89 326.171 1883.86 326.955 1884.07 327.995C1884.54 330.412 1878.34 334.577 1875.14 333.988C1873.86 333.753 1872.64 334.099 1872.43 334.758C1871.94 336.312 1859.68 336.751 1854.77 335.391C1852.69 334.813 1841.93 334.207 1830.87 334.043C1812.17 333.766 1806.65 334.327 1813.64 335.794C1815.23 336.127 1818.66 336.903 1821.26 337.518C1823.86 338.133 1828 338.657 1830.45 338.684C1832.91 338.71 1834.92 339.226 1834.92 339.83C1834.92 340.434 1835.66 340.928 1836.56 340.928C1837.47 340.928 1839.18 341.471 1840.37 342.134C1842.5 343.328 1842.5 343.355 1840.03 344.637C1835.72 346.883 1837.06 349.002 1844.3 351.409C1848.02 352.644 1851.28 354.374 1851.55 355.253C1851.82 356.132 1852.46 357.137 1852.97 357.487C1854.58 358.589 1852.66 361.977 1850.84 361.248C1849.92 360.879 1849.46 360.881 1849.81 361.252C1850.17 361.623 1849.26 363.171 1847.81 364.694C1845.89 366.696 1843.92 367.512 1840.66 367.644C1838.19 367.744 1836.36 368.149 1836.59 368.544C1836.82 368.939 1832.49 369.02 1826.96 368.724C1818.92 368.293 1816.55 368.519 1815.14 369.85C1813.19 371.699 1802.87 372.461 1797.49 371.154C1795.43 370.655 1793.93 370.809 1793.49 371.565C1793.09 372.23 1791.66 372.774 1790.29 372.774C1787.13 372.774 1784.49 373.827 1784.49 375.088C1784.49 375.627 1785.18 376.068 1786.01 376.068C1786.85 376.068 1787.94 376.817 1788.43 377.733C1788.98 378.766 1793.09 380.165 1799.25 381.417C1811.39 383.886 1820.32 387.66 1819.48 389.961C1819.15 390.845 1818.22 391.298 1817.39 390.969C1816.57 390.639 1816.16 390.816 1816.49 391.361C1816.81 391.907 1815.83 393.894 1814.32 395.775C1812.29 398.294 1811.01 399.012 1809.45 398.496C1808.28 398.108 1807.6 398.241 1807.93 398.795C1808.26 399.345 1806.88 399.844 1804.87 399.904C1802.86 399.963 1797.9 400.862 1793.84 401.901L1786.47 403.79L1788.81 406.401C1790.1 407.837 1791.6 409.012 1792.13 409.012C1792.67 409.012 1794.73 409.817 1796.71 410.8C1800.17 412.515 1800.25 412.693 1798.72 415.135C1797.71 416.74 1797.51 417.935 1798.18 418.365C1798.76 418.74 1798.93 419.559 1798.56 420.186C1798.12 420.921 1797.56 420.797 1796.97 419.836C1796.37 418.869 1795.77 418.739 1795.26 419.466C1794.83 420.083 1793.05 421.302 1791.32 422.176L1788.17 423.764L1791.49 424.138C1795.09 424.542 1797.02 427.36 1794.41 428.406C1793.53 428.76 1792.54 428.776 1792.22 428.442C1791.9 428.109 1790.07 428.759 1788.15 429.889C1786.22 431.018 1782.85 432.294 1780.66 432.725C1778.46 433.155 1776.03 434.173 1775.25 434.986C1773.41 436.913 1772.68 436.87 1762.92 434.26C1754.16 431.918 1751.69 432.137 1748.1 435.571C1746.07 437.508 1745.25 437.603 1739.76 436.543C1732.56 435.152 1719 434.973 1719.77 436.28C1720.07 436.783 1723.76 437.808 1727.97 438.56C1738.71 440.474 1739.92 440.885 1738.16 442.024C1735.1 443.999 1748.79 448.66 1762.17 450.2C1765.78 450.616 1768.96 451.344 1769.24 451.818C1769.52 452.291 1768.76 453.996 1767.55 455.606C1765.51 458.311 1765.47 458.683 1767.04 460.489C1767.97 461.564 1768.73 462.714 1768.73 463.044C1768.73 464.401 1750.94 462.449 1745.09 460.449C1736.68 457.575 1719.65 455.477 1718.08 457.121C1717.25 457.991 1717.24 458.738 1718.05 459.763C1719.15 461.147 1720.84 461.738 1734.85 465.663C1739.22 466.886 1741.41 468.055 1741.41 469.156C1741.41 470.547 1740.17 470.692 1733.62 470.071C1728.63 469.598 1725.58 469.741 1725.15 470.469C1724.78 471.094 1725.06 471.605 1725.77 471.605C1726.48 471.605 1726.81 471.861 1726.51 472.173C1725.81 472.909 1710.93 469.646 1709.45 468.43C1708.29 467.475 1692.94 465.005 1689.67 465.246C1688.66 465.321 1687.83 466.001 1687.83 466.756C1687.83 467.512 1687.59 468.797 1687.29 469.611C1686.77 471.017 1699.6 473.861 1721.71 477.239C1725.03 477.747 1729.47 478.911 1731.56 479.825C1733.65 480.74 1736.85 481.491 1738.65 481.494C1743.41 481.504 1750.25 483.678 1749.14 484.832C1748.63 485.366 1742.23 485.944 1734.92 486.116C1727.62 486.289 1721.71 486.513 1721.81 486.616C1721.91 486.718 1724.32 487.761 1727.18 488.934C1732.15 490.975 1732.27 491.121 1730 492.392C1728.22 493.388 1726.31 493.426 1722.39 492.545C1715.99 491.112 1715.15 491.093 1715.15 492.382C1715.15 492.938 1716.56 493.717 1718.29 494.113C1724.03 495.432 1722.79 496.861 1715.9 496.861C1711.89 496.861 1707.83 497.558 1705.86 498.585C1703.87 499.624 1701.63 500.003 1700.23 499.537C1697.23 498.543 1647.91 498.164 1648.48 499.14C1649.71 501.207 1635.92 501.196 1624.16 499.12C1600.35 494.918 1580.08 492.529 1567.01 492.383C1559.79 492.302 1548.92 491.557 1542.85 490.727C1536.78 489.897 1525.97 488.709 1518.83 488.086C1511.69 487.463 1505.54 486.764 1505.17 486.531C1504.8 486.299 1500.96 485.794 1496.62 485.408C1492.29 485.022 1487.09 484.498 1485.07 484.242C1480.86 483.711 1461.69 482.593 1447.77 482.069C1437.7 481.689 1422.4 480.679 1412.05 479.71C1408.58 479.386 1395.11 478.91 1382.11 478.652C1369.1 478.395 1353.74 477.779 1347.96 477.284C1342.18 476.789 1326.2 476.433 1312.45 476.493C1291.65 476.584 1287.27 476.875 1286.44 478.221C1285.6 479.594 1285.31 479.607 1284.5 478.307C1283.88 477.287 1282.52 476.992 1280.46 477.424C1278.74 477.782 1276.83 477.534 1276.2 476.871C1275.57 476.21 1273.49 475.565 1271.58 475.438C1269.67 475.31 1267.17 474.913 1266.01 474.556C1259.72 472.607 1253.16 472.04 1250.51 473.217C1248.39 474.161 1243.1 473.046 1243.83 471.808C1244.1 471.353 1239.04 470.847 1232.58 470.684C1215.19 470.247 1213.38 470.048 1211.42 468.34C1209.82 466.953 1209.66 467.016 1209.97 468.917C1210.22 470.366 1209.82 470.929 1208.75 470.664C1207.89 470.45 1206.11 470.264 1204.81 470.252C1203.51 470.241 1202.45 469.851 1202.45 469.387C1202.45 468.924 1201.69 468.238 1200.76 467.865C1199.53 467.372 1199.24 467.656 1199.7 468.903C1200.13 470.086 1199.92 470.351 1199.02 469.755C1198.31 469.28 1193.23 468.736 1187.74 468.546C1176.2 468.147 1177.91 468.152 1123.65 468.352C1100.83 468.437 1079.23 468.148 1075.66 467.712C1072.09 467.276 1068.37 467.238 1067.4 467.628C1065.61 468.345 1031.29 469.761 1020.74 469.552C1012.5 469.39 1003.15 474.457 1008.35 476.269C1009.12 476.539 1008.59 477.316 1007.03 478.172C1005.59 478.968 1004.15 480.036 1003.83 480.546C1002.67 482.388 993.746 483.416 991.213 481.999C989.617 481.106 985.387 480.786 978.734 481.053C973.199 481.276 955.019 481.719 938.333 482.037C921.648 482.356 906.848 482.918 905.445 483.286C904.042 483.654 898.077 484.031 892.191 484.123C886.305 484.216 880.543 484.847 879.387 485.526C877.32 486.74 867.576 488.734 865.945 488.277C863.935 487.712 860.203 487.854 856.799 488.624C854.777 489.081 852.177 489.373 851.021 489.272C849.865 489.17 847.974 489.001 846.818 488.894C845.663 488.788 840.226 489.281 834.736 489.99C829.247 490.699 822.712 491.269 820.213 491.257C817.715 491.245 815.115 491.701 814.435 492.273C813.755 492.844 811.662 493.655 809.784 494.075C806.99 494.7 806.37 494.501 806.37 492.98C806.37 491.334 805.501 491.21 798.753 491.899C794.564 492.326 783.572 492.79 774.326 492.929C765.081 493.068 754.97 493.763 751.857 494.472C748.745 495.181 745.968 495.762 745.688 495.762C745.407 495.762 745.765 496.503 746.485 497.409C747.204 498.315 749.39 499.056 751.341 499.056C753.293 499.056 754.89 499.263 754.89 499.515C754.89 499.768 755.177 500.756 755.528 501.712C756.402 504.094 753.444 503.977 751.11 501.537C749.787 500.154 749.159 500.004 748.844 500.994C748.603 501.748 747.974 502.085 747.446 501.743C746.917 501.402 746.485 501.523 746.485 502.011C746.485 502.5 745.421 502.96 744.121 503.034C742.821 503.108 735.611 503.728 728.099 504.412C720.588 505.095 705.459 505.853 694.48 506.095C683.501 506.336 673.336 506.805 671.892 507.136C666.997 508.258 640.086 510.86 625.665 511.606C598.943 512.987 578.684 516.982 574.507 521.693C573.2 523.167 570.898 524.357 569.244 524.413C555.649 524.875 536.769 526.355 528.483 527.608C525.016 528.132 518.934 528.865 514.967 529.235C511.001 529.605 505.381 530.379 502.479 530.954C499.577 531.529 497.031 532 496.821 532C496.611 532 496.439 530.735 496.439 529.19L496.44 529.192ZM496.44 519.2C496.44 517.999 495.974 517.909 494.378 518.802C493.146 519.492 492.561 520.624 492.924 521.614C493.394 522.892 493.867 522.984 494.987 522.012C495.786 521.319 496.44 520.054 496.44 519.2ZM673.468 502.868C677.578 501.327 677.474 501.304 668.74 501.839C648.739 503.065 642.475 503.686 642.475 504.444C642.475 505.876 669.047 504.525 673.468 502.868ZM185.459 489.607C185.459 489.369 184.749 489.175 183.883 489.175C183.016 489.175 182.307 489.654 182.307 490.239C182.307 490.824 183.016 491.018 183.883 490.67C184.749 490.323 185.459 489.844 185.459 489.607ZM261.628 485.881C261.995 485.26 261.134 484.783 259.651 484.783C258.206 484.783 256.732 485.277 256.375 485.881C256.008 486.501 256.869 486.979 258.352 486.979C259.797 486.979 261.271 486.485 261.628 485.881ZM211.724 480.262C211.724 479.129 210.466 479.023 208.133 479.958C205.496 481.016 206.204 482.335 209.097 481.757C210.542 481.468 211.724 480.796 211.724 480.262ZM806.198 480.083C809.783 479.039 810.275 478.639 808.509 478.201C805.705 477.506 772.279 478.974 754.365 480.578C749.497 481.014 787.091 482.079 794.813 481.723C798.569 481.551 803.692 480.813 806.198 480.083ZM842.616 476.704C843.772 476.418 841.645 476.224 837.889 476.274C828.924 476.391 825.375 477.4 831.06 478.215C833.371 478.546 836.444 478.459 837.889 478.02C839.333 477.582 841.461 476.989 842.616 476.704V476.704ZM172.149 477.026C174.312 476.96 174.298 476.903 171.869 475.888C169.005 474.692 166.548 475.288 166.548 477.179C166.548 477.868 167.294 478.13 168.209 477.762C169.123 477.396 170.896 477.065 172.149 477.026ZM858.399 475.79C858.68 475.496 856.81 475.173 854.243 475.072C851.677 474.97 849.25 475.44 848.851 476.115C848.341 476.978 849.575 477.191 853.007 476.833C855.691 476.553 858.118 476.084 858.399 475.79V475.79ZM1679.95 462.82C1680.36 462.14 1678.68 461.772 1675.55 461.852C1671.07 461.967 1670.85 462.076 1673.65 462.82C1678.25 464.043 1679.23 464.043 1679.95 462.82ZM60.6328 446.696C59.8744 446.379 58.9682 446.418 58.6191 446.783C58.27 447.148 58.8905 447.408 59.998 447.36C61.222 447.307 61.4709 447.047 60.6328 446.697V446.696ZM73.0431 445.25C75.1546 444.544 75.2576 444.365 73.5685 444.339C72.4128 444.321 70.5217 444.731 69.366 445.25C66.6888 446.453 69.4509 446.453 73.0431 445.25ZM87.1405 445.682C88.0545 445.315 88.8023 444.127 88.8023 443.041C88.8023 441.359 88.1415 441.153 84.3372 441.65C79.5096 442.281 76.3593 444.152 80.1253 444.152C81.3624 444.152 82.6668 444.646 83.024 445.25C83.7713 446.514 84.797 446.622 87.1405 445.682V445.682ZM1793.95 426.582C1793.95 425.978 1793.12 425.492 1792.11 425.501C1790.54 425.515 1790.5 425.672 1791.84 426.582C1793.83 427.922 1793.95 427.922 1793.95 426.582V426.582ZM113.163 381.907C112.405 381.59 111.499 381.629 111.15 381.994C110.801 382.359 111.421 382.618 112.529 382.571C113.753 382.518 114.001 382.258 113.163 381.907V381.907ZM104.562 378.703C104.562 376.914 101.64 376.712 97.8009 378.238C93.622 379.898 94.6138 381.067 99.8338 380.633C103.005 380.369 104.562 379.734 104.562 378.703ZM124.076 379.496C123.027 377.721 119.27 377.269 119.27 378.917C119.27 379.842 120.349 380.461 121.959 380.461C123.437 380.461 124.39 380.027 124.076 379.496V379.496ZM116.118 378.265C117.29 377.473 116.685 377.196 113.754 377.184C111.587 377.174 109.815 377.661 109.815 378.265C109.815 379.664 114.048 379.664 116.118 378.265ZM1867.49 249.785C1867.49 249.181 1867.02 248.687 1866.44 248.687C1865.86 248.687 1865.39 249.181 1865.39 249.785C1865.39 250.389 1865.86 250.883 1866.44 250.883C1867.02 250.883 1867.49 250.389 1867.49 249.785ZM1875.11 229.291C1874.38 228.987 1873.2 228.987 1872.48 229.291C1871.76 229.596 1872.35 229.845 1873.79 229.845C1875.24 229.845 1875.83 229.596 1875.11 229.291ZM1859.35 216.066C1858.05 215.804 1855.92 215.804 1854.62 216.066C1853.32 216.328 1854.38 216.542 1856.98 216.542C1859.58 216.542 1860.65 216.328 1859.35 216.066V216.066ZM1810.76 207.201C1810.76 206.731 1806.85 205.76 1802.09 205.044C1797.32 204.328 1792.28 203.399 1790.89 202.981C1789.32 202.508 1788.61 202.631 1789.01 203.306C1789.36 203.903 1793.81 205.021 1798.89 205.789C1803.97 206.558 1808.6 207.343 1809.18 207.535C1809.76 207.726 1810.35 207.922 1810.49 207.969C1810.64 208.017 1810.76 207.671 1810.76 207.201V207.201ZM278.438 197.075C280.314 196.232 280.236 196.123 277.712 196.054C276.157 196.011 274.592 196.471 274.235 197.075C273.46 198.386 275.519 198.386 278.438 197.075V197.075ZM1803.4 190.641C1803.4 190.122 1798.66 189.134 1792.86 188.445C1779.8 186.892 1777.45 186.861 1778.79 188.257C1779.35 188.843 1785 189.762 1791.34 190.3C1797.68 190.837 1802.99 191.346 1803.14 191.431C1803.28 191.515 1803.4 191.16 1803.4 190.641V190.641ZM219.495 177.492C219.793 176.988 219.348 176.576 218.507 176.576C217.665 176.576 216.977 176.988 216.977 177.492C216.977 177.995 217.422 178.407 217.966 178.407C218.509 178.407 219.198 177.995 219.495 177.492ZM360.057 175.46C359.299 175.143 358.393 175.182 358.043 175.547C357.694 175.912 358.315 176.171 359.422 176.124C360.646 176.071 360.895 175.811 360.057 175.46V175.46ZM197.015 174.014C197.015 173.41 196.188 172.924 195.177 172.933C193.606 172.947 193.567 173.104 194.914 174.014C196.897 175.353 197.015 175.353 197.015 174.014V174.014ZM201.218 172.302C201.218 172.036 200.745 171.818 200.167 171.818C199.589 171.818 199.117 172.341 199.117 172.981C199.117 173.62 199.589 173.838 200.167 173.465C200.745 173.092 201.218 172.569 201.218 172.302V172.302ZM261.103 164.656C262.547 164.234 267.039 163.476 271.084 162.972C275.128 162.468 280.092 161.534 282.115 160.895C284.137 160.257 285.792 159.776 285.792 159.826C285.792 160.247 292.988 157.897 296.561 156.31C301.981 153.902 302.323 152.052 297.349 152.052C294.781 152.052 293.672 151.555 293.672 150.405C293.672 148.716 298.374 148.048 306.179 148.629C309.579 148.882 319.281 146.989 321.502 145.64C323.161 144.632 317.859 143.495 310.943 143.376C306.444 143.298 302.61 144.072 297.874 146.012C294.188 147.522 290.198 148.765 289.007 148.774C287.283 148.788 287.153 148.996 288.368 149.8C289.208 150.355 290.271 150.565 290.732 150.267C291.193 149.969 291.57 150.193 291.57 150.764C291.57 151.747 289.271 152.442 281.246 153.881C279.324 154.226 277.496 155.203 277.184 156.053C276.72 157.317 276.316 157.343 274.967 156.198C273.585 155.025 273.417 155.078 273.935 156.527C274.388 157.793 273.947 158.208 272.293 158.074C271.05 157.973 268.464 158.339 266.547 158.887C264.129 159.578 262.599 159.483 261.556 158.578C260.71 157.844 260.052 157.748 260.052 158.357C260.052 159.568 252.047 163.033 249.248 163.033C248.256 163.033 247.445 163.709 247.445 164.534C247.445 165.652 248.854 165.957 252.96 165.73C255.994 165.561 259.658 165.079 261.103 164.656V164.656ZM304.321 124.832C303.563 124.568 302.444 124.873 301.833 125.512C301.054 126.327 301.464 126.47 303.211 125.992C304.632 125.604 305.108 125.106 304.321 124.832ZM1573.31 120.481C1573.31 120.028 1571.88 119.552 1570.13 119.424C1568.3 119.29 1567.21 119.642 1567.56 120.247C1568.3 121.486 1573.32 121.69 1573.31 120.481ZM307.33 113.563L309.956 113.478L307.505 112.452C304.737 111.292 299.975 112.185 299.975 113.865C299.975 114.477 301.032 114.676 302.339 114.31C303.639 113.945 305.885 113.609 307.33 113.563V113.563ZM1564.91 113.801C1564.91 113.297 1564.2 112.885 1563.34 112.885C1562.47 112.885 1561.76 113.297 1561.76 113.801C1561.76 114.304 1562.47 114.716 1563.34 114.716C1564.2 114.716 1564.91 114.304 1564.91 113.801ZM1569.31 113.965C1568.55 113.648 1567.65 113.687 1567.3 114.052C1566.95 114.417 1567.57 114.676 1568.68 114.629C1569.9 114.576 1570.15 114.316 1569.31 113.965V113.965ZM325.387 111.769C324.629 111.452 323.722 111.491 323.373 111.856C323.024 112.221 323.645 112.48 324.752 112.432C325.976 112.38 326.225 112.12 325.387 111.769V111.769ZM207.521 110.323C207.521 109.719 207.049 109.225 206.471 109.225C205.893 109.225 205.42 109.719 205.42 110.323C205.42 110.927 205.893 111.421 206.471 111.421C207.049 111.421 207.521 110.927 207.521 110.323ZM234.837 107.443C234.837 106.213 232.864 107.292 232.299 108.831C231.746 110.338 231.9 110.406 233.237 109.246C234.117 108.482 234.837 107.671 234.837 107.443ZM245.343 107.578C245.343 106.672 245.158 105.931 244.931 105.931C244.703 105.931 244.246 106.672 243.913 107.578C243.58 108.484 243.766 109.225 244.326 109.225C244.886 109.225 245.343 108.484 245.343 107.578ZM1620.79 70.0406C1620.03 69.7233 1619.13 69.7624 1618.78 70.1271C1618.43 70.492 1619.05 70.7516 1620.16 70.7038C1621.38 70.6513 1621.63 70.391 1620.79 70.0405V70.0406ZM653.461 47.8058C653.794 47.2436 653.635 46.5052 653.108 46.165C652.581 45.8247 651.879 46.2848 651.548 47.1872C650.895 48.9663 652.473 49.4767 653.461 47.8058ZM154.782 519.099C154.178 518.344 154.095 517.711 154.6 517.693C155.104 517.675 154.632 517.123 153.552 516.466C150.78 514.783 153.235 513.34 158.668 513.46C161.505 513.522 162.188 513.785 160.769 514.267C158.767 514.947 157.275 517.743 158.931 517.711C162.015 517.652 164.243 516.217 163.763 514.598C163.293 513.017 163.419 513.031 164.739 514.706C166.534 516.983 174.528 517.402 175.219 515.255C175.57 514.165 175.998 514.173 177.295 515.292C179.34 517.056 180.547 521.342 178.81 520.672C178.133 520.411 177.732 519.532 177.919 518.718C178.157 517.684 177.675 517.792 176.316 519.078C174.763 520.547 172.509 520.872 165.126 520.695C159.256 520.553 155.48 519.971 154.782 519.099L154.782 519.099ZM140.36 516.678C138.961 515.774 139.634 513.334 141.283 513.334C142.481 513.334 143.533 516.435 142.55 517.07C142.114 517.351 141.129 517.175 140.36 516.678ZM162.589 507.843C161.427 505.898 161.548 505.628 163.65 505.48C164.955 505.388 166.731 505.232 167.598 505.133C170.401 504.814 170.928 505.817 169.08 507.952C166.745 510.649 164.24 510.607 162.589 507.843V507.843ZM799.016 499.672C799.016 499.406 799.489 498.882 800.067 498.509C800.644 498.136 801.117 498.354 801.117 498.993C801.117 499.633 800.644 500.156 800.067 500.156C799.489 500.156 799.016 499.938 799.016 499.672ZM811.343 498.922C812.056 498.171 812.904 497.834 813.227 498.172C813.55 498.51 812.967 499.124 811.931 499.537C810.434 500.133 810.313 500.006 811.343 498.922ZM247.445 495.898C247.445 495.368 248.174 494.302 249.065 493.529C250.325 492.436 250.966 492.416 251.946 493.44C252.925 494.464 252.857 494.988 251.638 495.793C249.657 497.102 247.445 497.158 247.445 495.898V495.898ZM1433.59 485.881C1433.59 485.277 1434.27 484.783 1435.1 484.783C1435.93 484.783 1436.91 485.277 1437.26 485.881C1437.62 486.485 1436.94 486.979 1435.75 486.979C1434.56 486.979 1433.59 486.485 1433.59 485.881ZM1415.73 484.714C1415.73 483.464 1418.55 483.337 1419.27 484.555C1419.55 485.033 1418.87 485.497 1417.75 485.584C1416.64 485.672 1415.73 485.281 1415.73 484.714ZM373.827 482.942C372.882 480.367 374.322 479.989 377.954 481.86C379.848 482.836 380.925 483.709 380.347 483.8C375.919 484.496 374.32 484.285 373.827 482.942V482.942ZM1282.3 480.39C1282.3 479.786 1282.51 479.292 1282.76 479.292C1283.02 479.292 1283.52 479.786 1283.87 480.39C1284.23 480.994 1284.02 481.488 1283.41 481.488C1282.8 481.488 1282.3 480.994 1282.3 480.39ZM1267.15 479.439C1266.7 478.674 1266.61 477.751 1266.96 477.389C1267.9 476.406 1268.92 477.851 1268.42 479.444C1268.06 480.56 1267.81 480.559 1267.15 479.438V479.439ZM1271 479.663C1268.85 478.756 1269.51 477.253 1271.79 477.876C1272.95 478.192 1273.89 478.887 1273.89 479.42C1273.89 480.467 1273.07 480.536 1271 479.663ZM1774.68 474.167C1773.48 472.904 1773.92 471.605 1775.56 471.605C1776.43 471.605 1777.14 472.346 1777.14 473.252C1777.14 474.967 1775.89 475.431 1774.68 474.167ZM470.835 467.441C470.552 466.962 471.243 466.498 472.371 466.409C473.499 466.32 474.148 466.712 473.812 467.279C473.068 468.538 471.533 468.621 470.835 467.441ZM480.305 465.554C480.635 464.654 481.682 463.88 482.632 463.834C483.581 463.787 486.485 463.526 489.085 463.254C492.495 462.898 493.374 463.07 492.237 463.871C490.937 464.788 490.922 464.986 492.15 465C492.968 465.01 493.343 465.324 492.983 465.701C492.623 466.077 489.488 466.566 486.016 466.788C480.758 467.123 479.804 466.917 480.305 465.554V465.554ZM51.5505 462.896C50.7735 461.582 52.7499 460.28 54.1493 461.184C55.3242 461.943 54.5529 463.918 53.0815 463.918C52.5719 463.918 51.8829 463.458 51.5505 462.896ZM61.4864 434.334C61.4864 433.765 61.9538 432.999 62.525 432.63C63.1206 432.245 63.2967 432.686 62.9379 433.663C62.2395 435.565 61.4864 435.913 61.4864 434.334V434.334ZM69.1909 433.768C69.1909 432.889 69.5926 432.429 70.0836 432.746C70.5745 433.063 70.7042 433.783 70.3718 434.345C69.5222 435.782 69.1909 435.62 69.1909 433.768ZM1900.06 290.415C1899.19 289.829 1898.95 289.35 1899.53 289.35C1900.11 289.35 1901.29 289.829 1902.16 290.415C1903.03 291 1903.26 291.479 1902.68 291.479C1902.11 291.479 1900.92 291 1900.06 290.415ZM173.902 208.92C173.902 208.445 174.847 208.056 176.003 208.056C177.159 208.056 178.104 208.519 178.104 209.086C178.104 209.652 177.159 210.041 176.003 209.95C174.847 209.859 173.902 209.396 173.902 208.92ZM217.898 192.793L215.434 190.708L221.721 189.836C225.179 189.356 230.49 188.935 233.523 188.901C236.556 188.867 239.038 188.503 239.039 188.092C239.04 187.237 245.297 188.94 246.274 190.061C246.629 190.468 245.461 190.512 243.678 190.158C241.683 189.762 239.26 190.166 237.375 191.207C235.69 192.138 231.83 192.947 228.796 193.005C225.763 193.064 223.281 193.509 223.281 193.995C223.281 195.569 220.424 194.932 217.898 192.793V192.793ZM204.654 193.117C205.003 192.752 205.909 192.713 206.668 193.03C207.506 193.381 207.257 193.641 206.033 193.694C204.926 193.741 204.305 193.482 204.654 193.117V193.117ZM185.542 177.949C185.496 176.791 185.744 176.143 186.093 176.508C186.442 176.873 186.48 177.82 186.176 178.612C185.841 179.488 185.592 179.228 185.542 177.949H185.542ZM214.235 168.719C214.528 168.223 213.801 166.951 212.618 165.893C210.503 164 210.572 163.917 216.969 160.755C224.673 156.947 225.382 156.862 225.382 159.738C225.382 161.092 224.676 161.941 223.543 161.951C222.053 161.965 221.986 162.155 223.191 162.952C224.009 163.493 225.545 163.76 226.606 163.547C227.666 163.334 228.534 163.662 228.534 164.278C228.534 164.894 226.997 165.309 225.119 165.202C223.241 165.094 220.759 165.064 219.603 165.135C217.853 165.241 217.765 165.441 219.078 166.327C220.425 167.237 220.387 167.394 218.816 167.409C217.804 167.419 216.977 167.92 216.977 168.524C216.977 169.128 216.24 169.622 215.339 169.622C214.438 169.622 213.941 169.216 214.235 168.72V168.719ZM227.668 159.858C226.612 159.176 226.653 158.718 227.865 157.666C229.565 156.192 230.92 157.48 229.75 159.458C229.333 160.164 228.415 160.34 227.668 159.858V159.858ZM191.237 113.617C190.88 113.013 191.297 112.519 192.164 112.519C193.03 112.519 194.032 113.013 194.389 113.617C194.746 114.221 194.329 114.715 193.462 114.715C192.595 114.715 191.594 114.221 191.237 113.617ZM212.755 108.701C214.268 106.795 214.876 106.597 214.876 108.009C214.876 108.549 214.1 109.301 213.151 109.681C211.709 110.26 211.644 110.099 212.755 108.701ZM1697.59 90.9796C1698.82 89.6923 1705.54 88.6836 1706.9 89.5826C1707.68 90.0998 1707.85 90.5798 1707.27 90.6489C1701.62 91.3265 1697.11 91.4805 1697.59 90.9796V90.9796ZM1691.21 89.6248C1690.33 89.0457 1690.99 88.7266 1693.05 88.7266C1694.8 88.7266 1696.24 89.1383 1696.24 89.6416C1696.24 90.8104 1692.98 90.7995 1691.21 89.6237V89.6248ZM1664.19 88.2229C1659.7 87.1705 1648.78 86.4158 1628.38 85.747C1621.39 85.5179 1614.67 84.765 1613.43 84.0741C1612.09 83.3221 1607.38 82.9395 1601.71 83.1212C1596.49 83.2882 1592.23 83.3125 1592.23 83.1746C1592.23 82.7926 1598.34 79.5747 1599.07 79.5747C1599.42 79.5747 1599.41 80.0689 1599.06 80.6728C1598.68 81.3135 1599.75 81.771 1601.62 81.771C1603.39 81.771 1604.84 81.2768 1604.84 80.6728C1604.84 80.0689 1605.34 79.5747 1605.95 79.5747C1606.56 79.5747 1606.71 80.1924 1606.27 80.9473C1605.69 81.9623 1605.88 82.0303 1607 81.2079C1607.83 80.5962 1609.46 80.1525 1610.61 80.2219C1611.77 80.2909 1615.23 80.4209 1618.29 80.5103C1621.36 80.5997 1623.65 81.0434 1623.38 81.4964C1623.11 81.9493 1625.81 82.2476 1629.36 82.1592C1632.92 82.0699 1636.66 82.4589 1637.67 83.0215C1638.89 83.7044 1639.51 83.6449 1639.51 82.8431C1639.51 82.1822 1640.08 82.0106 1640.78 82.4619C1641.47 82.9131 1646.08 83.4171 1651.02 83.5819C1655.95 83.7466 1659.99 83.9399 1659.99 84.0115C1659.99 84.0833 1662.36 84.3018 1665.25 84.4976C1668.14 84.6933 1670.62 84.9628 1670.76 85.0967C1671.01 85.325 1672.09 85.6577 1673.91 86.0653C1674.75 86.2523 1669.82 89.4416 1668.92 89.2928C1668.63 89.2442 1666.51 88.763 1664.2 88.2222L1664.19 88.2229ZM1621.65 82.7326C1621.65 82.2041 1620.73 81.7717 1619.61 81.7717C1618.48 81.7717 1617.31 82.2041 1617 82.7326C1616.69 83.2611 1617.6 83.6934 1619.04 83.6934C1620.47 83.6934 1621.65 83.2611 1621.65 82.7326ZM1677.84 79.5576C1677.48 78.9438 1676.74 78.7258 1676.2 79.0733C1675.67 79.4208 1675.23 79.2109 1675.23 78.607C1675.23 76.4809 1676.92 76.4472 1678.18 78.5487C1678.88 79.7176 1679.23 80.6739 1678.97 80.6739C1678.71 80.6739 1678.21 80.1716 1677.84 79.5579V79.5576ZM1655.35 75.2746C1654.24 74.1169 1653.12 73.399 1652.85 73.679C1652.58 73.9592 1650.06 74.3538 1647.25 74.5563C1642.37 74.9071 1636.33 72.6448 1637.86 71.0432C1639.09 69.7611 1646.34 70.0612 1647.93 71.4594C1649.55 72.8911 1652.51 72.9386 1653.83 71.5537C1654.95 70.3884 1660.31 70.644 1661.05 71.8978C1662.06 73.6045 1660.56 77.3786 1658.87 77.3786C1658.04 77.3786 1656.46 76.4315 1655.35 75.2739V75.2746ZM1666.2 76.1114C1665.75 75.3547 1665.91 75.1405 1666.59 75.5802C1667.21 75.9855 1668.02 75.8147 1668.39 75.2009C1669.37 73.5452 1670.67 73.8491 1670.67 75.732C1670.67 77.6664 1667.28 77.9535 1666.2 76.1114V76.1114ZM437.89 67.9309C438.239 67.5659 439.145 67.5269 439.904 67.8444C440.742 68.1949 440.493 68.4551 439.269 68.5078C438.161 68.5554 437.541 68.296 437.89 67.9311V67.9309ZM649.829 36.7487C649.829 36.1448 650.038 35.6506 650.292 35.6506C650.547 35.6506 651.048 36.1448 651.405 36.7487C651.762 37.3527 651.554 37.8468 650.942 37.8468C650.33 37.8468 649.829 37.3527 649.829 36.7487ZM674.327 36.8598C672.631 35.5574 673.037 33.6859 674.905 34.1963C676.095 34.5219 676.86 34.0739 676.97 32.9856C677.066 32.0355 677.224 30.5169 677.32 29.6109C677.416 28.705 678.362 27.9021 679.421 27.8265C680.481 27.7507 681.702 27.5873 682.135 27.4625C682.569 27.3376 684.342 26.8373 686.075 26.3502C689.93 25.2673 692.024 23.6496 691.255 22.3488C690.938 21.8133 691.613 21.3751 692.755 21.3751C693.896 21.3751 695.07 21.9927 695.363 22.7478C695.733 23.7015 696.161 23.7607 696.764 22.9423C698.306 20.8484 701.523 20.1949 703.22 21.6309C704.582 22.7834 704.71 22.7546 703.965 21.463C703.282 20.2786 703.506 20.0805 704.9 20.6394C705.909 21.0441 707.373 21.3751 708.153 21.3751C708.934 21.3751 709.857 22.3126 710.205 23.4586C710.612 24.7979 711.513 25.3575 712.727 25.0255C715.409 24.2925 715.131 21.5774 712.428 22.0974C710.292 22.5082 710.29 22.4932 712.34 21.4747C713.496 20.9009 716.042 20.3966 717.998 20.3541C719.954 20.3114 724.445 19.7923 727.979 19.1998C737.137 17.6646 760.16 14.9743 770.649 14.2136C775.561 13.8576 781.707 13.3703 784.307 13.1308C789.786 12.6264 800.601 11.8233 814.775 10.8686C820.265 10.4989 827.829 9.92421 831.585 9.59166C840.612 8.79236 854.822 8.73274 856.8 9.48626C857.666 9.81646 860.385 10.466 862.841 10.9299C865.296 11.3936 867.306 12.1367 867.306 12.5811C867.306 13.0254 866.137 14.6108 864.708 16.1038C862.594 18.314 861.128 18.7986 856.824 18.7106C853.681 18.6455 851.681 19.0533 851.892 19.7145C852.087 20.326 855.887 20.8671 860.335 20.9167C867.322 20.9945 871.976 22.4153 870.388 23.9851C869.677 24.6875 855.749 25.3815 855.751 24.7145C855.752 24.3879 852.561 24.2753 848.66 24.4642C844.758 24.6531 838.854 24.359 835.539 23.8092C832.224 23.26 829.287 23.045 829.013 23.3317C828.739 23.6181 826.487 23.9567 824.009 24.0842C821.531 24.2117 818.197 24.6976 816.6 25.1644C814.874 25.6691 813.156 25.5441 812.363 24.8557C811.629 24.2191 806.457 23.5841 800.87 23.4444C793.954 23.2718 790.928 22.8134 791.389 22.0084C791.761 21.3584 791.263 21.5068 790.282 22.3385C789.055 23.3785 787.165 23.6276 784.224 23.1361C781.418 22.667 780.178 22.8077 780.615 23.5458C781.359 24.8039 781.22 24.828 771.7 25.0954C767.944 25.2008 763.807 25.6757 762.507 26.1506C761.207 26.6255 760.143 26.6102 760.143 26.1166C760.143 25.6229 758.961 25.219 757.517 25.219C756.072 25.219 754.89 25.5896 754.89 26.0426C754.89 26.4955 754.153 26.8662 753.252 26.8662C752.351 26.8662 751.861 26.4488 752.163 25.9385C752.892 24.7053 742.099 26.5164 741.316 27.7586C739.882 30.0329 720.22 32.3375 720.22 30.2314C720.22 29.5886 719.719 29.0624 719.107 29.0624C718.496 29.0624 718.267 29.5225 718.599 30.0847C719.55 31.692 717.132 32.6816 715.569 31.3253C714.52 30.4154 714.027 30.4711 713.633 31.5435C713.293 32.4695 711.565 32.8924 708.783 32.7298C706.406 32.591 704.461 32.9388 704.461 33.5029C704.461 35.3189 699.063 34.1263 698.015 32.0788C697.457 30.99 696.544 30.3941 695.986 30.7547C695.428 31.1154 695.212 31.8187 695.507 32.3176C695.803 32.8165 695.353 33.5021 694.508 33.841C693.663 34.1799 692.687 33.9769 692.34 33.3896C691.955 32.7387 690.609 32.9623 688.892 33.9625C685.66 35.8447 675.609 37.8445 674.327 36.8603L674.327 36.8598ZM659.285 31.8721C659.285 29.9432 659.915 29.6593 660.816 31.1823C661.148 31.7446 660.94 32.515 660.352 32.8943C659.765 33.2736 659.285 32.8147 659.285 31.8721V31.8721ZM663.244 29.9752C663.854 29.337 664.974 29.0309 665.732 29.295C666.519 29.5692 666.043 30.067 664.622 30.4552C662.874 30.9329 662.464 30.7899 663.244 29.9752ZM1025.16 27.1888C1023.86 26.9271 1022.8 26.3357 1022.8 25.8748C1022.8 24.5309 1027.36 25.2614 1027.81 26.6776C1028.04 27.385 1028.07 27.8965 1027.87 27.8142C1027.68 27.7316 1026.46 27.4506 1025.16 27.1888H1025.16ZM1003.36 24.6694C1006.25 23.3722 1007.91 23.3722 1005.99 24.6694C1005.12 25.2549 1003.7 25.7069 1002.83 25.6736C1001.8 25.6338 1001.97 25.2917 1003.36 24.6694V24.6694ZM1009.72 24.7716C1009.4 24.2239 1010.08 24.0346 1011.24 24.3507C1013.69 25.0212 1014 25.7674 1011.83 25.7674C1010.99 25.7674 1010.05 25.3193 1009.72 24.7716V24.7716ZM874.473 22.2866C872.819 20.5492 873.57 20.4287 886.555 20.347C894.17 20.2984 901.454 20.0468 902.742 19.7866C904.03 19.5265 905.329 19.7283 905.628 20.235C905.928 20.7418 907.62 21.0518 909.388 20.9238C914.169 20.5779 914.191 22.1766 909.413 22.653C907.153 22.8783 905.529 22.6822 905.803 22.2187C906.666 20.7601 905.048 21.3013 903.402 23.0221C901.614 24.8902 897.176 25.2266 896.196 23.5682C895.763 22.8371 894.853 22.8541 893.486 23.6187C891.159 24.9198 888.97 24.0356 890.039 22.2271C890.507 21.4363 890.247 21.3611 889.268 22.0034C888.457 22.536 885.192 23.2343 882.014 23.5553C877.466 24.0145 875.86 23.7444 874.473 22.2864V22.2866ZM958.709 23.571C958.709 22.9671 958.917 22.473 959.172 22.473C959.427 22.473 959.928 22.9671 960.285 23.571C960.642 24.175 960.434 24.6691 959.822 24.6691C959.21 24.6691 958.709 24.175 958.709 23.571ZM916.684 21.3748C915.738 20.7352 915.608 20.3035 916.36 20.2934C917.048 20.2835 917.903 20.7708 918.26 21.3748C919.067 22.7382 918.703 22.7382 916.684 21.3748ZM1327.04 21.225C1327.58 20.3057 1323.58 19.2243 1322.77 20.0716C1321.64 21.2523 1316.97 21.4753 1316.97 20.3485C1316.97 19.6515 1313.98 19.4836 1308.83 19.8912C1302.51 20.391 1299.86 20.1335 1297.01 18.7426C1294.98 17.7567 1294.13 17.1766 1295.1 17.4535C1296.07 17.7304 1297.02 17.5273 1297.2 17.0028C1297.38 16.4782 1298.24 15.8883 1299.11 15.6919C1299.97 15.4958 1301.03 14.8409 1301.46 14.2369C1301.88 13.6329 1302.23 14.221 1302.24 15.5445C1302.26 17.8186 1302.42 17.8639 1305.15 16.3726C1307.74 14.9574 1308.19 14.9923 1309.49 16.7122C1310.88 18.5357 1310.92 18.5355 1310.31 16.7122C1309.82 15.2291 1310.26 14.7905 1312.22 14.7905C1313.62 14.7905 1315.24 15.6553 1315.83 16.7122C1316.43 17.7787 1316.92 18.023 1316.94 17.2613C1316.97 15.8233 1320.12 15.2799 1320.12 16.7122C1320.12 17.1652 1323.69 17.5072 1328.06 17.4723C1332.43 17.4373 1336.24 17.808 1336.53 18.2959C1336.82 18.7838 1338.07 19.1829 1339.3 19.1829C1341.1 19.1829 1341.29 19.4575 1340.24 20.5555C1338.92 21.9299 1326.24 22.5775 1327.04 21.2295V21.225ZM1344.28 21.192C1344.28 20.6886 1344.64 20.2435 1345.07 20.2027C1345.51 20.162 1347.37 19.9218 1349.22 19.6691C1353.38 19.1006 1354.86 20.9845 1350.86 21.7541C1346.91 22.5151 1344.28 22.291 1344.28 21.192V21.192ZM1268.64 17.5315C1268.64 16.9276 1266.87 16.4334 1264.7 16.4334C1262.53 16.4334 1260.41 16.9276 1259.99 17.5315C1259.47 18.2636 1259.21 18.2636 1259.2 17.5315C1259.17 16.1557 1252.88 15.8303 1252.88 17.205C1252.88 17.7579 1252.45 17.9327 1251.93 17.5934C1250.92 16.9471 1241.68 15.9093 1231.87 15.3411C1228.69 15.1571 1226.09 14.8956 1226.09 14.7599C1226.09 14.0239 1212.27 14.0125 1211.38 14.748C1209.8 16.0606 1199.3 16.9763 1199.3 15.8012C1199.3 15.243 1198.59 14.7863 1197.72 14.7863C1196.86 14.7863 1196.15 15.2631 1196.15 15.846C1196.15 16.5076 1188.75 16.7104 1176.45 16.386C1165.61 16.1003 1155.61 15.8716 1154.22 15.878C1152.82 15.8879 1150.1 15.4339 1148.17 14.8772C1146.07 14.2687 1144.67 14.2649 1144.67 14.8673C1144.67 15.8652 1140.99 15.7036 1140 14.6618C1139.71 14.3613 1134.93 14.291 1129.37 14.5058C1122.68 14.7647 1118.77 14.4621 1117.79 13.6085C1116.63 12.6054 1116.3 12.6539 1116.28 13.8277C1116.27 14.7799 1115.98 14.9125 1115.5 14.1877C1115.03 13.4992 1109.06 12.986 1100.54 12.9039C1092.74 12.8291 1069.1 12.4843 1048.01 12.139C1026.92 11.7937 999.854 11.4453 987.864 11.3648C975.873 11.2853 966.062 10.9094 966.061 10.5315C966.06 10.1534 963.459 9.84418 960.282 9.84418C957.105 9.84418 954.506 10.2148 954.506 10.6678C954.506 11.1208 954.006 11.4914 953.394 11.4914C952.782 11.4914 952.573 10.9972 952.931 10.3932C953.288 9.7893 952.843 9.29517 951.942 9.29517C951.041 9.29567 950.304 8.8015 950.304 8.1976C950.304 7.5936 949.803 7.09942 949.191 7.09942C948.58 7.09942 948.371 7.5936 948.728 8.1976C949.112 8.84617 947.954 9.28884 945.901 9.27884C943.27 9.26492 942.808 9.00323 944 8.1976C945.164 7.41139 945.213 7.12867 944.188 7.11624C943.119 7.10231 943.162 6.72076 944.376 5.45224C945.242 4.5463 946.931 3.80505 948.128 3.80505C949.325 3.80505 950.304 3.27757 950.304 2.63288C950.304 1.93758 951.212 1.76211 952.537 2.2016C954.039 2.70001 954.535 2.54461 954.051 1.72655C953.655 1.05777 953.611 0.510674 953.953 0.510674C954.295 0.510674 954.934 1.52697 955.374 2.76915L956.173 5.02772L958.943 2.74982C960.843 1.18849 961.943 0.860307 962.444 1.70673C962.962 2.58217 963.43 2.50799 964.055 1.4516C964.771 0.240785 971.979 -0.0306809 1002.53 0.0026358C1023.21 0.0259078 1048.64 0.360933 1059.04 0.749018C1069.44 1.13702 1086.7 1.74101 1097.39 2.09124C1135.99 3.35557 1145.93 3.81507 1146.8 4.37382C1148.73 5.62231 1157.2 6.72979 1158.48 5.90173C1159.27 5.39146 1160.19 5.57365 1160.66 6.33383C1161.27 7.31485 1161.74 7.23046 1162.51 6.00128C1163.08 5.09532 1163.55 4.84824 1163.56 5.45224C1163.58 6.1453 1170.07 6.50138 1181.18 6.41766C1198.73 6.28519 1228.72 8.05783 1228.72 9.22797C1228.72 9.56721 1232.38 9.78911 1236.86 9.72132C1244.53 9.60496 1262.21 11.1078 1265.34 12.1431C1266.5 12.5251 1266.52 12.9356 1265.46 14.2755C1264.39 15.6257 1264.41 15.8449 1265.6 15.4522C1266.41 15.1869 1268.38 14.6669 1270 14.2968C1271.8 13.882 1272.69 13.1092 1272.32 12.2833C1271.99 11.5461 1272.26 11.7164 1272.94 12.6616C1273.93 14.0517 1275.28 14.2222 1280 13.553C1283.31 13.0824 1286.62 13.1699 1287.67 13.7559C1288.68 14.3227 1290.84 14.8536 1292.47 14.9358C1295.2 15.0735 1295.23 15.1248 1292.9 15.5846C1290.94 15.9709 1290.7 16.3059 1291.85 17.0654C1293.47 18.1401 1292.1 18.2747 1277.31 18.4986C1272.15 18.5764 1268.64 18.1856 1268.64 17.5316L1268.64 17.5315ZM963.294 7.65475C962.962 6.75219 962.268 6.28729 961.751 6.62149C960.267 7.5797 960.654 9.29556 962.353 9.29556C963.29 9.29556 963.66 8.65143 963.294 7.65475V7.65475ZM902.019 11.4085C903.1 9.29682 903.036 9.05702 901.549 9.65346C900.065 10.2484 899.998 10.0079 901.067 7.92077L902.308 5.49731L903.353 7.94557C904.552 10.7544 906.722 11.1628 907.609 8.74652C907.941 7.84056 907.834 7.09933 907.371 7.09933C906.908 7.09933 906.529 6.35207 906.529 5.43864C906.529 4.08847 907.478 3.90954 911.607 4.48199C915.076 4.96292 916.684 4.79328 916.684 3.94657C916.684 3.25798 918.347 2.7069 920.424 2.7069C922.875 2.7069 923.917 3.12286 923.449 3.91458C922.941 4.77314 923.372 4.76587 924.939 3.88933C926.77 2.86479 927.039 2.9391 926.529 4.32881C926.191 5.24867 925.493 6.00134 924.977 6.00134C924.461 6.00134 924.039 6.4955 924.039 7.09939C924.039 9.38846 925.937 8.06547 927.191 4.90316C928.652 1.21515 928.69 1.19488 931.324 2.66812C932.652 3.41131 933.063 4.57171 932.7 6.55709C932.415 8.11347 932.595 9.24289 933.101 9.06672C933.606 8.89069 934.256 9.22941 934.545 9.81978C934.856 10.4546 932.358 10.969 928.432 11.0793C922.363 11.2495 921.695 11.0395 920.646 8.63343C919.515 6.03913 915.634 4.90146 915.634 7.16419C915.634 7.80393 916.101 8.02525 916.673 7.6563C917.259 7.2776 917.45 7.69808 917.111 8.62023C916.76 9.57554 915.82 9.97821 914.849 9.58875C913.769 9.15567 913.447 9.3608 913.929 10.1751C914.774 11.6044 911.282 12.6598 907.229 12.2001C905.784 12.0364 903.739 12.3416 902.684 12.8784C900.966 13.7529 900.896 13.6003 902.019 11.4086V11.4085ZM930.76 7.28241C931.057 6.77912 930.633 6.36734 929.817 6.36734C929.001 6.36734 928.577 6.77912 928.875 7.28241C929.172 7.78568 929.596 8.19751 929.817 8.19751C930.038 8.19751 930.462 7.78568 930.76 7.28241ZM887.867 11.6167C887.55 11.0813 888.233 10.3859 889.385 10.0712C890.779 9.68997 891.264 8.91483 890.836 7.75014C890.483 6.78825 890.639 6.00125 891.182 6.00125C892.623 6.00125 892.39 9.58835 890.844 11.2043C889.276 12.8433 888.644 12.9309 887.867 11.6167ZM894.309 8.56354C894.605 7.75821 894.982 7.09933 895.147 7.09933C895.312 7.09933 895.689 7.75821 895.985 8.56354C896.281 9.36887 895.904 10.0277 895.147 10.0277C894.39 10.0277 894.013 9.36887 894.309 8.56354ZM898.361 5.48711C899.482 4.60039 901.436 3.85916 902.702 3.83992C905.208 3.80114 906.805 5.46709 905.235 6.48133C904.697 6.82874 904.075 6.54538 903.854 5.85062C903.551 4.90194 902.894 4.90011 901.207 5.84069C897.977 7.64725 895.946 7.39268 898.361 5.48404V5.48711ZM884.4 5.33772C884.749 4.97283 885.655 4.9338 886.414 5.25119C887.252 5.60171 887.003 5.86194 885.779 5.91457C884.671 5.96211 884.051 5.70274 884.4 5.33785V5.33772ZM939.798 4.90301C938.451 3.99336 938.489 3.83603 940.061 3.82165C941.072 3.81171 941.899 4.299 941.899 4.90301C941.899 6.24232 941.781 6.24232 939.798 4.90301ZM934.156 3.23048C933.655 1.86581 933.924 1.77181 935.619 2.72002C938.054 4.08234 938.285 4.90301 936.233 4.90301C935.428 4.90301 934.493 4.15032 934.156 3.23048V3.23048Z" fill="#EFEFF6"/>
</svg>
